<?xml version="1.0" encoding="UTF-8" standalone="no"?>
<!DOCTYPE svg PUBLIC "-//W3C//DTD SVG 1.1//EN"
 "http://www.w3.org/Graphics/SVG/1.1/DTD/svg11.dtd">
<!-- Generated by graphviz version 2.36.0 (20140111.2315)
 -->
<!-- Title: save.load.FileWriter.main Pages: 1 -->
<svg width="526pt" height="224pt"
 viewBox="0.00 0.00 526.00 224.00" xmlns="http://www.w3.org/2000/svg" xmlns:xlink="http://www.w3.org/1999/xlink">
<g id="graph0" class="graph" transform="scale(1 1) rotate(0) translate(4 220)">
<title>save.load.FileWriter.main</title>
<polygon fill="white" stroke="none" points="-4,4 -4,-220 522,-220 522,4 -4,4"/>
<!-- Node1 -->
<g id="node1" class="node"><title>Node1</title>
<polygon fill="#bfbfbf" stroke="black" points="0,-98.5 0,-117.5 134,-117.5 134,-98.5 0,-98.5"/>
<text text-anchor="middle" x="67" y="-105.5" font-family="Helvetica,sans-Serif" font-size="10.00">save.load.FileWriter.main</text>
</g>
<!-- Node2 -->
<g id="node2" class="node"><title>Node2</title>
<g id="a_node2"><a xlink:href="../../d8/dae/classsave_1_1load_1_1_file_writer.html#ade19c6c81face5b7b64c2ed541831517" target="_top" xlink:title="save.load.FileWriter.File\lWriter">
<polygon fill="white" stroke="black" points="185.5,-186 185.5,-216 310.5,-216 310.5,-186 185.5,-186"/>
<text text-anchor="start" x="193.5" y="-204" font-family="Helvetica,sans-Serif" font-size="10.00">save.load.FileWriter.File</text>
<text text-anchor="middle" x="248" y="-193" font-family="Helvetica,sans-Serif" font-size="10.00">Writer</text>
</a>
</g>
</g>
<!-- Node1&#45;&gt;Node2 -->
<g id="edge1" class="edge"><title>Node1&#45;&gt;Node2</title>
<path fill="none" stroke="midnightblue" d="M79.9023,-117.529C98.2913,-131.871 135.138,-159.118 170,-176 174.625,-178.24 179.5,-180.35 184.458,-182.321"/>
<polygon fill="midnightblue" stroke="midnightblue" points="183.462,-185.686 194.054,-185.94 185.932,-179.136 183.462,-185.686"/>
</g>
<!-- Node3 -->
<g id="node3" class="node"><title>Node3</title>
<g id="a_node3"><a xlink:href="../../de/d4e/classexpression_tree_1_1_variable_node_map.html#a4855134d1fd875836c2c9944ec2079f4" target="_top" xlink:title="expressionTree.VariableNode\lMap.getVariable">
<polygon fill="white" stroke="black" points="170.5,-137 170.5,-167 325.5,-167 325.5,-137 170.5,-137"/>
<text text-anchor="start" x="178.5" y="-155" font-family="Helvetica,sans-Serif" font-size="10.00">expressionTree.VariableNode</text>
<text text-anchor="middle" x="248" y="-144" font-family="Helvetica,sans-Serif" font-size="10.00">Map.getVariable</text>
</a>
</g>
</g>
<!-- Node1&#45;&gt;Node3 -->
<g id="edge2" class="edge"><title>Node1&#45;&gt;Node3</title>
<path fill="none" stroke="midnightblue" d="M106.84,-117.547C126.994,-122.501 152.257,-128.711 175.764,-134.49"/>
<polygon fill="midnightblue" stroke="midnightblue" points="175.165,-137.946 185.711,-136.935 176.836,-131.149 175.165,-137.946"/>
</g>
<!-- Node5 -->
<g id="node5" class="node"><title>Node5</title>
<g id="a_node5"><a xlink:href="../../de/d4e/classexpression_tree_1_1_variable_node_map.html#afa5500d8a01c92260f32d787c802b802" target="_top" xlink:title="expressionTree.VariableNode\lMap.getVariableNodeMap">
<polygon fill="white" stroke="black" points="362.5,-49 362.5,-79 517.5,-79 517.5,-49 362.5,-49"/>
<text text-anchor="start" x="370.5" y="-67" font-family="Helvetica,sans-Serif" font-size="10.00">expressionTree.VariableNode</text>
<text text-anchor="middle" x="440" y="-56" font-family="Helvetica,sans-Serif" font-size="10.00">Map.getVariableNodeMap</text>
</a>
</g>
</g>
<!-- Node1&#45;&gt;Node5 -->
<g id="edge4" class="edge"><title>Node1&#45;&gt;Node5</title>
<path fill="none" stroke="midnightblue" d="M134.01,-105.285C186.294,-102.556 261.08,-97.3686 326,-88 338.813,-86.151 352.348,-83.7087 365.427,-81.0897"/>
<polygon fill="midnightblue" stroke="midnightblue" points="366.228,-84.4984 375.32,-79.0595 364.82,-77.6413 366.228,-84.4984"/>
</g>
<!-- Node6 -->
<g id="node6" class="node"><title>Node6</title>
<g id="a_node6"><a xlink:href="../../d8/dae/classsave_1_1load_1_1_file_writer.html#a07ea7e1a48782df66b6ec1ac8ed08b93" target="_top" xlink:title="save.load.FileWriter.read\lFromFile">
<polygon fill="white" stroke="black" points="182.5,-0 182.5,-30 313.5,-30 313.5,-0 182.5,-0"/>
<text text-anchor="start" x="190.5" y="-18" font-family="Helvetica,sans-Serif" font-size="10.00">save.load.FileWriter.read</text>
<text text-anchor="middle" x="248" y="-7" font-family="Helvetica,sans-Serif" font-size="10.00">FromFile</text>
</a>
</g>
</g>
<!-- Node1&#45;&gt;Node6 -->
<g id="edge5" class="edge"><title>Node1&#45;&gt;Node6</title>
<path fill="none" stroke="midnightblue" d="M79.8519,-98.2658C98.175,-83.6281 134.937,-55.8706 170,-39 173.833,-37.1559 177.84,-35.4116 181.926,-33.7693"/>
<polygon fill="midnightblue" stroke="midnightblue" points="183.446,-36.9364 191.56,-30.1234 180.968,-30.3896 183.446,-36.9364"/>
</g>
<!-- Node8 -->
<g id="node8" class="node"><title>Node8</title>
<g id="a_node8"><a xlink:href="../../d8/dae/classsave_1_1load_1_1_file_writer.html#a60b6f2a1f12cf993e2dded94c9fe05a2" target="_top" xlink:title="save.load.FileWriter.write\lToFile">
<polygon fill="white" stroke="black" points="182,-49 182,-79 314,-79 314,-49 182,-49"/>
<text text-anchor="start" x="190" y="-67" font-family="Helvetica,sans-Serif" font-size="10.00">save.load.FileWriter.write</text>
<text text-anchor="middle" x="248" y="-56" font-family="Helvetica,sans-Serif" font-size="10.00">ToFile</text>
</a>
</g>
</g>
<!-- Node1&#45;&gt;Node8 -->
<g id="edge8" class="edge"><title>Node1&#45;&gt;Node8</title>
<path fill="none" stroke="midnightblue" d="M106.84,-98.4527C126.994,-93.4988 152.257,-87.2888 175.764,-81.5105"/>
<polygon fill="midnightblue" stroke="midnightblue" points="176.836,-84.8513 185.711,-79.0654 175.165,-78.0537 176.836,-84.8513"/>
</g>
<!-- Node4 -->
<g id="node4" class="node"><title>Node4</title>
<g id="a_node4"><a xlink:href="../../de/d4e/classexpression_tree_1_1_variable_node_map.html#aa39aa781cc2fe52784af8657407974ce" target="_top" xlink:title="expressionTree.VariableNode\lMap.addVariable">
<polygon fill="white" stroke="black" points="362.5,-137 362.5,-167 517.5,-167 517.5,-137 362.5,-137"/>
<text text-anchor="start" x="370.5" y="-155" font-family="Helvetica,sans-Serif" font-size="10.00">expressionTree.VariableNode</text>
<text text-anchor="middle" x="440" y="-144" font-family="Helvetica,sans-Serif" font-size="10.00">Map.addVariable</text>
</a>
</g>
</g>
<!-- Node3&#45;&gt;Node4 -->
<g id="edge3" class="edge"><title>Node3&#45;&gt;Node4</title>
<path fill="none" stroke="midnightblue" d="M325.733,-152C334.394,-152 343.265,-152 352.044,-152"/>
<polygon fill="midnightblue" stroke="midnightblue" points="352.29,-155.5 362.29,-152 352.29,-148.5 352.29,-155.5"/>
</g>
<!-- Node6&#45;&gt;Node5 -->
<g id="edge6" class="edge"><title>Node6&#45;&gt;Node5</title>
<path fill="none" stroke="midnightblue" d="M307.297,-30.0346C327.45,-35.2318 350.206,-41.1006 371.064,-46.4796"/>
<polygon fill="midnightblue" stroke="midnightblue" points="370.256,-49.8856 380.813,-48.9938 372.004,-43.1074 370.256,-49.8856"/>
</g>
<!-- Node7 -->
<g id="node7" class="node"><title>Node7</title>
<g id="a_node7"><a xlink:href="../../de/d4e/classexpression_tree_1_1_variable_node_map.html#a7bd9f4565fb7e72c11659a650e428647" target="_top" xlink:title="expressionTree.VariableNode\lMap.applyLoadedMap">
<polygon fill="white" stroke="black" points="362.5,-0 362.5,-30 517.5,-30 517.5,-0 362.5,-0"/>
<text text-anchor="start" x="370.5" y="-18" font-family="Helvetica,sans-Serif" font-size="10.00">expressionTree.VariableNode</text>
<text text-anchor="middle" x="440" y="-7" font-family="Helvetica,sans-Serif" font-size="10.00">Map.applyLoadedMap</text>
</a>
</g>
</g>
<!-- Node6&#45;&gt;Node7 -->
<g id="edge7" class="edge"><title>Node6&#45;&gt;Node7</title>
<path fill="none" stroke="midnightblue" d="M313.59,-15C325.984,-15 339.15,-15 352.112,-15"/>
<polygon fill="midnightblue" stroke="midnightblue" points="352.446,-18.5001 362.446,-15 352.446,-11.5001 352.446,-18.5001"/>
</g>
<!-- Node8&#45;&gt;Node5 -->
<g id="edge9" class="edge"><title>Node8&#45;&gt;Node5</title>
<path fill="none" stroke="midnightblue" d="M314.121,-64C326.327,-64 339.266,-64 352.011,-64"/>
<polygon fill="midnightblue" stroke="midnightblue" points="352.173,-67.5001 362.173,-64 352.173,-60.5001 352.173,-67.5001"/>
</g>
</g>
</svg>
