<?xml version="1.0" encoding="UTF-8" standalone="no"?>
<!DOCTYPE svg PUBLIC "-//W3C//DTD SVG 1.1//EN"
 "http://www.w3.org/Graphics/SVG/1.1/DTD/svg11.dtd">
<!-- Generated by graphviz version 2.36.0 (20140111.2315)
 -->
<!-- Title: save.load.FileWriter.readFromFile Pages: 1 -->
<svg width="332pt" height="87pt"
 viewBox="0.00 0.00 332.00 87.00" xmlns="http://www.w3.org/2000/svg" xmlns:xlink="http://www.w3.org/1999/xlink">
<g id="graph0" class="graph" transform="scale(1 1) rotate(0) translate(4 83)">
<title>save.load.FileWriter.readFromFile</title>
<polygon fill="white" stroke="none" points="-4,4 -4,-83 328,-83 328,4 -4,4"/>
<!-- Node1 -->
<g id="node1" class="node"><title>Node1</title>
<polygon fill="#bfbfbf" stroke="black" points="0.5,-24 0.5,-54 131.5,-54 131.5,-24 0.5,-24"/>
<text text-anchor="start" x="8.5" y="-42" font-family="Helvetica,sans-Serif" font-size="10.00">save.load.FileWriter.read</text>
<text text-anchor="middle" x="66" y="-31" font-family="Helvetica,sans-Serif" font-size="10.00">FromFile</text>
</g>
<!-- Node2 -->
<g id="node2" class="node"><title>Node2</title>
<g id="a_node2"><a xlink:href="../../de/d4e/classexpression_tree_1_1_variable_node_map.html#a7bd9f4565fb7e72c11659a650e428647" target="_top" xlink:title="expressionTree.VariableNode\lMap.applyLoadedMap">
<polygon fill="white" stroke="black" points="168.5,-49 168.5,-79 323.5,-79 323.5,-49 168.5,-49"/>
<text text-anchor="start" x="176.5" y="-67" font-family="Helvetica,sans-Serif" font-size="10.00">expressionTree.VariableNode</text>
<text text-anchor="middle" x="246" y="-56" font-family="Helvetica,sans-Serif" font-size="10.00">Map.applyLoadedMap</text>
</a>
</g>
</g>
<!-- Node1&#45;&gt;Node2 -->
<g id="edge1" class="edge"><title>Node1&#45;&gt;Node2</title>
<path fill="none" stroke="midnightblue" d="M131.514,-48.0609C140.188,-49.2793 149.199,-50.5449 158.181,-51.8063"/>
<polygon fill="midnightblue" stroke="midnightblue" points="157.9,-55.3011 168.289,-53.226 158.873,-48.3691 157.9,-55.3011"/>
</g>
<!-- Node3 -->
<g id="node3" class="node"><title>Node3</title>
<g id="a_node3"><a xlink:href="../../de/d4e/classexpression_tree_1_1_variable_node_map.html#afa5500d8a01c92260f32d787c802b802" target="_top" xlink:title="expressionTree.VariableNode\lMap.getVariableNodeMap">
<polygon fill="white" stroke="black" points="168.5,-0 168.5,-30 323.5,-30 323.5,-0 168.5,-0"/>
<text text-anchor="start" x="176.5" y="-18" font-family="Helvetica,sans-Serif" font-size="10.00">expressionTree.VariableNode</text>
<text text-anchor="middle" x="246" y="-7" font-family="Helvetica,sans-Serif" font-size="10.00">Map.getVariableNodeMap</text>
</a>
</g>
</g>
<!-- Node1&#45;&gt;Node3 -->
<g id="edge2" class="edge"><title>Node1&#45;&gt;Node3</title>
<path fill="none" stroke="midnightblue" d="M131.514,-30.3015C140.188,-29.1319 149.199,-27.9169 158.181,-26.7059"/>
<polygon fill="midnightblue" stroke="midnightblue" points="158.847,-30.148 168.289,-25.343 157.911,-23.2107 158.847,-30.148"/>
</g>
</g>
</svg>
