<?xml version="1.0" encoding="UTF-8" standalone="no"?>
<!DOCTYPE svg PUBLIC "-//W3C//DTD SVG 1.1//EN"
 "http://www.w3.org/Graphics/SVG/1.1/DTD/svg11.dtd">
<!-- Generated by graphviz version 2.36.0 (20140111.2315)
 -->
<!-- Title: displayCommands.SetBackground Pages: 1 -->
<svg width="241pt" height="226pt"
 viewBox="0.00 0.00 241.00 226.00" xmlns="http://www.w3.org/2000/svg" xmlns:xlink="http://www.w3.org/1999/xlink">
<g id="graph0" class="graph" transform="scale(1 1) rotate(0) translate(4 222)">
<title>displayCommands.SetBackground</title>
<polygon fill="white" stroke="none" points="-4,4 -4,-222 237,-222 237,4 -4,4"/>
<!-- Node1 -->
<g id="node1" class="node"><title>Node1</title>
<polygon fill="#bfbfbf" stroke="black" points="0,-0.5 0,-19.5 182,-19.5 182,-0.5 0,-0.5"/>
<text text-anchor="middle" x="91" y="-7.5" font-family="Helvetica,sans-Serif" font-size="10.00">displayCommands.SetBackground</text>
</g>
<!-- Node2 -->
<g id="node2" class="node"><title>Node2</title>
<g id="a_node2"><a xlink:href="../../d6/d49/classdisplay_commands_1_1_display_node.html" target="_top" xlink:title="displayCommands.DisplayNode">
<polygon fill="white" stroke="black" points="7,-58.5 7,-77.5 175,-77.5 175,-58.5 7,-58.5"/>
<text text-anchor="middle" x="91" y="-65.5" font-family="Helvetica,sans-Serif" font-size="10.00">displayCommands.DisplayNode</text>
</a>
</g>
</g>
<!-- Node2&#45;&gt;Node1 -->
<g id="edge1" class="edge"><title>Node2&#45;&gt;Node1</title>
<path fill="none" stroke="midnightblue" d="M91,-47.953C91,-38.2875 91,-27.0312 91,-19.5052"/>
<polygon fill="midnightblue" stroke="midnightblue" points="87.5001,-48.25 91,-58.25 94.5001,-48.25 87.5001,-48.25"/>
</g>
<!-- Node3 -->
<g id="node3" class="node"><title>Node3</title>
<g id="a_node3"><a xlink:href="../../db/da5/classexpression_tree_1_1_expression_node.html" target="_top" xlink:title="expressionTree.ExpressionNode">
<polygon fill="white" stroke="black" points="7,-117.5 7,-136.5 175,-136.5 175,-117.5 7,-117.5"/>
<text text-anchor="middle" x="91" y="-124.5" font-family="Helvetica,sans-Serif" font-size="10.00">expressionTree.ExpressionNode</text>
</a>
</g>
</g>
<!-- Node3&#45;&gt;Node2 -->
<g id="edge2" class="edge"><title>Node3&#45;&gt;Node2</title>
<path fill="none" stroke="midnightblue" d="M91,-106.933C91,-97.0243 91,-85.4007 91,-77.6571"/>
<polygon fill="midnightblue" stroke="midnightblue" points="87.5001,-107.094 91,-117.094 94.5001,-107.094 87.5001,-107.094"/>
</g>
<!-- Node3&#45;&gt;Node3 -->
<g id="edge4" class="edge"><title>Node3&#45;&gt;Node3</title>
<path fill="none" stroke="#9a32cd" stroke-dasharray="5,2" d="M185.372,-130.469C189.558,-129.584 192,-128.428 192,-127 192,-124.656 185.424,-123.045 175.356,-122.166"/>
<polygon fill="#9a32cd" stroke="#9a32cd" points="184.791,-127.015 175.356,-131.834 185.737,-133.951 184.791,-127.015"/>
<text text-anchor="middle" x="212" y="-130" font-family="Helvetica,sans-Serif" font-size="10.00"> myLeft</text>
<text text-anchor="middle" x="212" y="-119" font-family="Helvetica,sans-Serif" font-size="10.00">myRight</text>
</g>
<!-- Node4 -->
<g id="node4" class="node"><title>Node4</title>
<polygon fill="white" stroke="#bfbfbf" points="6,-187 6,-217 176,-217 176,-187 6,-187"/>
<text text-anchor="start" x="14" y="-205" font-family="Helvetica,sans-Serif" font-size="10.00">List&lt; displayCommands.Display</text>
<text text-anchor="middle" x="91" y="-194" font-family="Helvetica,sans-Serif" font-size="10.00">Node &gt;</text>
</g>
<!-- Node4&#45;&gt;Node3 -->
<g id="edge3" class="edge"><title>Node4&#45;&gt;Node3</title>
<path fill="none" stroke="#9a32cd" stroke-dasharray="5,2" d="M91,-176.574C91,-162.751 91,-146.325 91,-136.553"/>
<polygon fill="#9a32cd" stroke="#9a32cd" points="87.5001,-176.925 91,-186.925 94.5001,-176.925 87.5001,-176.925"/>
<text text-anchor="middle" x="126" y="-159.5" font-family="Helvetica,sans-Serif" font-size="10.00"> instructionList</text>
</g>
</g>
</svg>
