<?xml version="1.0" encoding="UTF-8" standalone="no"?>
<!DOCTYPE svg PUBLIC "-//W3C//DTD SVG 1.1//EN"
 "http://www.w3.org/Graphics/SVG/1.1/DTD/svg11.dtd">
<!-- Generated by graphviz version 2.36.0 (20140111.2315)
 -->
<!-- Title: save.load.CustomParameters Pages: 1 -->
<svg width="652pt" height="176pt"
 viewBox="0.00 0.00 652.00 176.00" xmlns="http://www.w3.org/2000/svg" xmlns:xlink="http://www.w3.org/1999/xlink">
<g id="graph0" class="graph" transform="scale(1 1) rotate(0) translate(4 172)">
<title>save.load.CustomParameters</title>
<polygon fill="white" stroke="none" points="-4,4 -4,-172 648,-172 648,4 -4,4"/>
<!-- Node1 -->
<g id="node1" class="node"><title>Node1</title>
<polygon fill="#bfbfbf" stroke="black" points="245,-0.5 245,-19.5 403,-19.5 403,-0.5 245,-0.5"/>
<text text-anchor="middle" x="324" y="-7.5" font-family="Helvetica,sans-Serif" font-size="10.00">save.load.CustomParameters</text>
</g>
<!-- Node2 -->
<g id="node2" class="node"><title>Node2</title>
<polygon fill="white" stroke="#bfbfbf" points="279.5,-142.5 279.5,-161.5 350.5,-161.5 350.5,-142.5 279.5,-142.5"/>
<text text-anchor="middle" x="315" y="-149.5" font-family="Helvetica,sans-Serif" font-size="10.00">Serializable</text>
</g>
<!-- Node2&#45;&gt;Node1 -->
<g id="edge1" class="edge"><title>Node2&#45;&gt;Node1</title>
<path fill="none" stroke="midnightblue" d="M316.22,-132.023C318.192,-101.345 322.004,-42.0446 323.437,-19.7543"/>
<polygon fill="midnightblue" stroke="midnightblue" points="312.712,-132.038 315.563,-142.242 319.697,-132.488 312.712,-132.038"/>
</g>
<!-- Node3 -->
<g id="node3" class="node"><title>Node3</title>
<g id="a_node3"><a xlink:href="../../d8/d36/classexpression_tree_1_1_user_function_map.html" target="_top" xlink:title="expressionTree.UserFunctionMap">
<polygon fill="white" stroke="black" points="352.5,-68.5 352.5,-87.5 525.5,-87.5 525.5,-68.5 352.5,-68.5"/>
<text text-anchor="middle" x="439" y="-75.5" font-family="Helvetica,sans-Serif" font-size="10.00">expressionTree.UserFunctionMap</text>
</a>
</g>
</g>
<!-- Node2&#45;&gt;Node3 -->
<g id="edge3" class="edge"><title>Node2&#45;&gt;Node3</title>
<path fill="none" stroke="midnightblue" d="M338.641,-137.273C363.902,-122.605 403.157,-99.8119 424.308,-87.531"/>
<polygon fill="midnightblue" stroke="midnightblue" points="336.602,-134.41 329.711,-142.458 340.117,-140.463 336.602,-134.41"/>
</g>
<!-- Node5 -->
<g id="node5" class="node"><title>Node5</title>
<g id="a_node5"><a xlink:href="../../de/d4e/classexpression_tree_1_1_variable_node_map.html" target="_top" xlink:title="expressionTree.VariableNodeMap">
<polygon fill="white" stroke="black" points="-0.5,-68.5 -0.5,-87.5 174.5,-87.5 174.5,-68.5 -0.5,-68.5"/>
<text text-anchor="middle" x="87" y="-75.5" font-family="Helvetica,sans-Serif" font-size="10.00">expressionTree.VariableNodeMap</text>
</a>
</g>
</g>
<!-- Node2&#45;&gt;Node5 -->
<g id="edge7" class="edge"><title>Node2&#45;&gt;Node5</title>
<path fill="none" stroke="midnightblue" d="M278.385,-139.437C232.483,-124.942 154.875,-100.434 114.015,-87.531"/>
<polygon fill="midnightblue" stroke="midnightblue" points="277.36,-142.784 287.95,-142.458 279.468,-136.109 277.36,-142.784"/>
</g>
<!-- Node3&#45;&gt;Node1 -->
<g id="edge2" class="edge"><title>Node3&#45;&gt;Node1</title>
<path fill="none" stroke="#9a32cd" stroke-dasharray="5,2" d="M415.199,-63.3401C392.309,-50.2036 358.411,-30.7487 339.038,-19.6305"/>
<polygon fill="#9a32cd" stroke="#9a32cd" points="413.55,-66.4296 423.966,-68.3717 417.035,-60.3584 413.55,-66.4296"/>
<text text-anchor="middle" x="434" y="-41.5" font-family="Helvetica,sans-Serif" font-size="10.00"> myUserFunctions</text>
</g>
<!-- Node3&#45;&gt;Node3 -->
<g id="edge4" class="edge"><title>Node3&#45;&gt;Node3</title>
<path fill="none" stroke="#9a32cd" stroke-dasharray="5,2" d="M535.84,-82.0077C540.355,-80.9961 543,-79.6602 543,-78 543,-75.3438 536.229,-73.5176 525.861,-72.5215"/>
<polygon fill="#9a32cd" stroke="#9a32cd" points="535.244,-78.5577 525.861,-83.4785 536.265,-85.4829 535.244,-78.5577"/>
<text text-anchor="middle" x="593.5" y="-75.5" font-family="Helvetica,sans-Serif" font-size="10.00"> myUserFunctionMap</text>
</g>
<!-- Node4 -->
<g id="node4" class="node"><title>Node4</title>
<polygon fill="white" stroke="#bfbfbf" points="368.5,-137 368.5,-167 525.5,-167 525.5,-137 368.5,-137"/>
<text text-anchor="start" x="376.5" y="-155" font-family="Helvetica,sans-Serif" font-size="10.00">Map&lt; String, expressionTree.</text>
<text text-anchor="middle" x="447" y="-144" font-family="Helvetica,sans-Serif" font-size="10.00">ListNode &gt;</text>
</g>
<!-- Node4&#45;&gt;Node3 -->
<g id="edge5" class="edge"><title>Node4&#45;&gt;Node3</title>
<path fill="none" stroke="#9a32cd" stroke-dasharray="5,2" d="M444.299,-126.688C442.806,-113.253 441.042,-97.3805 439.973,-87.7589"/>
<polygon fill="#9a32cd" stroke="#9a32cd" points="440.836,-127.223 445.419,-136.775 447.794,-126.45 440.836,-127.223"/>
<text text-anchor="middle" x="485.5" y="-109.5" font-family="Helvetica,sans-Serif" font-size="10.00"> userFunctionMap</text>
</g>
<!-- Node5&#45;&gt;Node1 -->
<g id="edge6" class="edge"><title>Node5&#45;&gt;Node1</title>
<path fill="none" stroke="#9a32cd" stroke-dasharray="5,2" d="M127.846,-65.6253C174.902,-52.5209 251.148,-31.2879 293.384,-19.5259"/>
<polygon fill="#9a32cd" stroke="#9a32cd" points="126.678,-62.3172 117.984,-68.3717 128.556,-69.0606 126.678,-62.3172"/>
<text text-anchor="middle" x="258" y="-41.5" font-family="Helvetica,sans-Serif" font-size="10.00"> myVariables</text>
</g>
<!-- Node5&#45;&gt;Node5 -->
<g id="edge9" class="edge"><title>Node5&#45;&gt;Node5</title>
<path fill="none" stroke="#9a32cd" stroke-dasharray="5,2" d="M184.771,-82.0077C189.33,-80.9961 192,-79.6602 192,-78 192,-75.3438 185.164,-73.5176 174.697,-72.5215"/>
<polygon fill="#9a32cd" stroke="#9a32cd" points="184.086,-78.5706 174.697,-83.4785 185.097,-85.4972 184.086,-78.5706"/>
<text text-anchor="middle" x="243.5" y="-75.5" font-family="Helvetica,sans-Serif" font-size="10.00"> myVariableNodeMap</text>
</g>
<!-- Node6 -->
<g id="node6" class="node"><title>Node6</title>
<polygon fill="white" stroke="#bfbfbf" points="8.5,-137 8.5,-167 165.5,-167 165.5,-137 8.5,-137"/>
<text text-anchor="start" x="16.5" y="-155" font-family="Helvetica,sans-Serif" font-size="10.00">Map&lt; String, expressionTree.</text>
<text text-anchor="middle" x="87" y="-144" font-family="Helvetica,sans-Serif" font-size="10.00">VariableNode &gt;</text>
</g>
<!-- Node6&#45;&gt;Node5 -->
<g id="edge8" class="edge"><title>Node6&#45;&gt;Node5</title>
<path fill="none" stroke="#9a32cd" stroke-dasharray="5,2" d="M87,-126.688C87,-113.253 87,-97.3805 87,-87.7589"/>
<polygon fill="#9a32cd" stroke="#9a32cd" points="83.5001,-126.775 87,-136.775 90.5001,-126.775 83.5001,-126.775"/>
<text text-anchor="middle" x="117.5" y="-109.5" font-family="Helvetica,sans-Serif" font-size="10.00"> variableMap</text>
</g>
</g>
</svg>
