<?xml version="1.0" encoding="UTF-8" standalone="no"?>
<!DOCTYPE svg PUBLIC "-//W3C//DTD SVG 1.1//EN"
 "http://www.w3.org/Graphics/SVG/1.1/DTD/svg11.dtd">
<!-- Generated by graphviz version 2.36.0 (20140111.2315)
 -->
<!-- Title: expressionTree.VariableNode Pages: 1 -->
<svg width="265pt" height="84pt"
 viewBox="0.00 0.00 265.00 84.00" xmlns="http://www.w3.org/2000/svg" xmlns:xlink="http://www.w3.org/1999/xlink">
<g id="graph0" class="graph" transform="scale(1 1) rotate(0) translate(4 80)">
<title>expressionTree.VariableNode</title>
<polygon fill="white" stroke="none" points="-4,4 -4,-80 261,-80 261,4 -4,4"/>
<!-- Node1 -->
<g id="node1" class="node"><title>Node1</title>
<polygon fill="#bfbfbf" stroke="black" points="75.5,-0.5 75.5,-19.5 230.5,-19.5 230.5,-0.5 75.5,-0.5"/>
<text text-anchor="middle" x="153" y="-7.5" font-family="Helvetica,sans-Serif" font-size="10.00">expressionTree.VariableNode</text>
</g>
<!-- Node2 -->
<g id="node2" class="node"><title>Node2</title>
<g id="a_node2"><a xlink:href="../../db/da5/classexpression_tree_1_1_expression_node.html" target="_top" xlink:title="expressionTree.ExpressionNode">
<polygon fill="white" stroke="black" points="0,-56.5 0,-75.5 168,-75.5 168,-56.5 0,-56.5"/>
<text text-anchor="middle" x="84" y="-63.5" font-family="Helvetica,sans-Serif" font-size="10.00">expressionTree.ExpressionNode</text>
</a>
</g>
</g>
<!-- Node2&#45;&gt;Node1 -->
<g id="edge1" class="edge"><title>Node2&#45;&gt;Node1</title>
<path fill="none" stroke="midnightblue" d="M103.038,-50.1008C115.456,-40.3824 131.243,-28.0269 141.712,-19.8339"/>
<polygon fill="midnightblue" stroke="midnightblue" points="100.804,-47.4046 95.086,-56.324 105.118,-52.9171 100.804,-47.4046"/>
</g>
<!-- Node3 -->
<g id="node3" class="node"><title>Node3</title>
<polygon fill="white" stroke="#bfbfbf" points="186.5,-56.5 186.5,-75.5 257.5,-75.5 257.5,-56.5 186.5,-56.5"/>
<text text-anchor="middle" x="222" y="-63.5" font-family="Helvetica,sans-Serif" font-size="10.00">Serializable</text>
</g>
<!-- Node3&#45;&gt;Node1 -->
<g id="edge2" class="edge"><title>Node3&#45;&gt;Node1</title>
<path fill="none" stroke="midnightblue" d="M202.962,-50.1008C190.544,-40.3824 174.757,-28.0269 164.288,-19.8339"/>
<polygon fill="midnightblue" stroke="midnightblue" points="200.882,-52.9171 210.914,-56.324 205.196,-47.4046 200.882,-52.9171"/>
</g>
</g>
</svg>
