<?xml version="1.0" encoding="UTF-8" standalone="no"?>
<!DOCTYPE svg PUBLIC "-//W3C//DTD SVG 1.1//EN"
 "http://www.w3.org/Graphics/SVG/1.1/DTD/svg11.dtd">
<!-- Generated by graphviz version 2.36.0 (20140111.2315)
 -->
<!-- Title: controlStructures.DoTimes.evaluate Pages: 1 -->
<svg width="378pt" height="136pt"
 viewBox="0.00 0.00 378.00 136.00" xmlns="http://www.w3.org/2000/svg" xmlns:xlink="http://www.w3.org/1999/xlink">
<g id="graph0" class="graph" transform="scale(1 1) rotate(0) translate(4 132)">
<title>controlStructures.DoTimes.evaluate</title>
<polygon fill="white" stroke="none" points="-4,4 -4,-132 374,-132 374,4 -4,4"/>
<!-- Node1 -->
<g id="node1" class="node"><title>Node1</title>
<polygon fill="#bfbfbf" stroke="black" points="0.5,-54.5 0.5,-73.5 189.5,-73.5 189.5,-54.5 0.5,-54.5"/>
<text text-anchor="middle" x="95" y="-61.5" font-family="Helvetica,sans-Serif" font-size="10.00">controlStructures.DoTimes.evaluate</text>
</g>
<!-- Node2 -->
<g id="node2" class="node"><title>Node2</title>
<g id="a_node2"><a xlink:href="../../db/da5/classexpression_tree_1_1_expression_node.html#a189034630678dbe1dbb8805adbda2a96" target="_top" xlink:title="expressionTree.Expression\lNode.evaluate">
<polygon fill="white" stroke="black" points="226.5,-98 226.5,-128 369.5,-128 369.5,-98 226.5,-98"/>
<text text-anchor="start" x="234.5" y="-116" font-family="Helvetica,sans-Serif" font-size="10.00">expressionTree.Expression</text>
<text text-anchor="middle" x="298" y="-105" font-family="Helvetica,sans-Serif" font-size="10.00">Node.evaluate</text>
</a>
</g>
</g>
<!-- Node1&#45;&gt;Node2 -->
<g id="edge1" class="edge"><title>Node1&#45;&gt;Node2</title>
<path fill="none" stroke="midnightblue" d="M135.232,-73.564C160.901,-79.8218 195.194,-88.1817 225.599,-95.5937"/>
<polygon fill="midnightblue" stroke="midnightblue" points="224.773,-98.9949 235.318,-97.963 226.431,-92.1941 224.773,-98.9949"/>
</g>
<!-- Node3 -->
<g id="node3" class="node"><title>Node3</title>
<g id="a_node3"><a xlink:href="../../db/da5/classexpression_tree_1_1_expression_node.html#a76dbf0eda9446dbbe98827fb6ef33356" target="_top" xlink:title="expressionTree.Expression\lNode.getLeft">
<polygon fill="white" stroke="black" points="226.5,-49 226.5,-79 369.5,-79 369.5,-49 226.5,-49"/>
<text text-anchor="start" x="234.5" y="-67" font-family="Helvetica,sans-Serif" font-size="10.00">expressionTree.Expression</text>
<text text-anchor="middle" x="298" y="-56" font-family="Helvetica,sans-Serif" font-size="10.00">Node.getLeft</text>
</a>
</g>
</g>
<!-- Node1&#45;&gt;Node3 -->
<g id="edge2" class="edge"><title>Node1&#45;&gt;Node3</title>
<path fill="none" stroke="midnightblue" d="M189.733,-64C198.56,-64 207.457,-64 216.15,-64"/>
<polygon fill="midnightblue" stroke="midnightblue" points="216.245,-67.5001 226.245,-64 216.245,-60.5001 216.245,-67.5001"/>
</g>
<!-- Node4 -->
<g id="node4" class="node"><title>Node4</title>
<g id="a_node4"><a xlink:href="../../db/da5/classexpression_tree_1_1_expression_node.html#a154ef8394f8f1a4f41d4842e72f0681e" target="_top" xlink:title="expressionTree.Expression\lNode.getRight">
<polygon fill="white" stroke="black" points="226.5,-0 226.5,-30 369.5,-30 369.5,-0 226.5,-0"/>
<text text-anchor="start" x="234.5" y="-18" font-family="Helvetica,sans-Serif" font-size="10.00">expressionTree.Expression</text>
<text text-anchor="middle" x="298" y="-7" font-family="Helvetica,sans-Serif" font-size="10.00">Node.getRight</text>
</a>
</g>
</g>
<!-- Node1&#45;&gt;Node4 -->
<g id="edge3" class="edge"><title>Node1&#45;&gt;Node4</title>
<path fill="none" stroke="midnightblue" d="M135.232,-54.436C160.901,-48.1782 195.194,-39.8183 225.599,-32.4063"/>
<polygon fill="midnightblue" stroke="midnightblue" points="226.431,-35.8059 235.318,-30.037 224.773,-29.0051 226.431,-35.8059"/>
</g>
</g>
</svg>
