<?xml version="1.0" encoding="UTF-8" standalone="no"?>
<!DOCTYPE svg PUBLIC "-//W3C//DTD SVG 1.1//EN"
 "http://www.w3.org/Graphics/SVG/1.1/DTD/svg11.dtd">
<!-- Generated by graphviz version 2.36.0 (20140111.2315)
 -->
<!-- Title: mathOperations.Quotient.evaluate Pages: 1 -->
<svg width="372pt" height="136pt"
 viewBox="0.00 0.00 372.00 136.00" xmlns="http://www.w3.org/2000/svg" xmlns:xlink="http://www.w3.org/1999/xlink">
<g id="graph0" class="graph" transform="scale(1 1) rotate(0) translate(4 132)">
<title>mathOperations.Quotient.evaluate</title>
<polygon fill="white" stroke="none" points="-4,4 -4,-132 368,-132 368,4 -4,4"/>
<!-- Node1 -->
<g id="node1" class="node"><title>Node1</title>
<polygon fill="#bfbfbf" stroke="black" points="0.5,-54.5 0.5,-73.5 183.5,-73.5 183.5,-54.5 0.5,-54.5"/>
<text text-anchor="middle" x="92" y="-61.5" font-family="Helvetica,sans-Serif" font-size="10.00">mathOperations.Quotient.evaluate</text>
</g>
<!-- Node2 -->
<g id="node2" class="node"><title>Node2</title>
<g id="a_node2"><a xlink:href="../../db/da5/classexpression_tree_1_1_expression_node.html#a189034630678dbe1dbb8805adbda2a96" target="_top" xlink:title="expressionTree.Expression\lNode.evaluate">
<polygon fill="white" stroke="black" points="220.5,-98 220.5,-128 363.5,-128 363.5,-98 220.5,-98"/>
<text text-anchor="start" x="228.5" y="-116" font-family="Helvetica,sans-Serif" font-size="10.00">expressionTree.Expression</text>
<text text-anchor="middle" x="292" y="-105" font-family="Helvetica,sans-Serif" font-size="10.00">Node.evaluate</text>
</a>
</g>
</g>
<!-- Node1&#45;&gt;Node2 -->
<g id="edge1" class="edge"><title>Node1&#45;&gt;Node2</title>
<path fill="none" stroke="midnightblue" d="M131.646,-73.564C156.823,-79.7947 190.421,-88.1094 220.275,-95.4974"/>
<polygon fill="midnightblue" stroke="midnightblue" points="219.69,-98.9582 230.238,-97.963 221.372,-92.1632 219.69,-98.9582"/>
</g>
<!-- Node3 -->
<g id="node3" class="node"><title>Node3</title>
<g id="a_node3"><a xlink:href="../../db/da5/classexpression_tree_1_1_expression_node.html#a76dbf0eda9446dbbe98827fb6ef33356" target="_top" xlink:title="expressionTree.Expression\lNode.getLeft">
<polygon fill="white" stroke="black" points="220.5,-49 220.5,-79 363.5,-79 363.5,-49 220.5,-49"/>
<text text-anchor="start" x="228.5" y="-67" font-family="Helvetica,sans-Serif" font-size="10.00">expressionTree.Expression</text>
<text text-anchor="middle" x="292" y="-56" font-family="Helvetica,sans-Serif" font-size="10.00">Node.getLeft</text>
</a>
</g>
</g>
<!-- Node1&#45;&gt;Node3 -->
<g id="edge2" class="edge"><title>Node1&#45;&gt;Node3</title>
<path fill="none" stroke="midnightblue" d="M183.598,-64C192.454,-64 201.4,-64 210.15,-64"/>
<polygon fill="midnightblue" stroke="midnightblue" points="210.315,-67.5001 220.315,-64 210.315,-60.5001 210.315,-67.5001"/>
</g>
<!-- Node4 -->
<g id="node4" class="node"><title>Node4</title>
<g id="a_node4"><a xlink:href="../../db/da5/classexpression_tree_1_1_expression_node.html#a154ef8394f8f1a4f41d4842e72f0681e" target="_top" xlink:title="expressionTree.Expression\lNode.getRight">
<polygon fill="white" stroke="black" points="220.5,-0 220.5,-30 363.5,-30 363.5,-0 220.5,-0"/>
<text text-anchor="start" x="228.5" y="-18" font-family="Helvetica,sans-Serif" font-size="10.00">expressionTree.Expression</text>
<text text-anchor="middle" x="292" y="-7" font-family="Helvetica,sans-Serif" font-size="10.00">Node.getRight</text>
</a>
</g>
</g>
<!-- Node1&#45;&gt;Node4 -->
<g id="edge3" class="edge"><title>Node1&#45;&gt;Node4</title>
<path fill="none" stroke="midnightblue" d="M131.646,-54.436C156.823,-48.2053 190.421,-39.8906 220.275,-32.5026"/>
<polygon fill="midnightblue" stroke="midnightblue" points="221.372,-35.8368 230.238,-30.037 219.69,-29.0418 221.372,-35.8368"/>
</g>
</g>
</svg>
