<?xml version="1.0" encoding="UTF-8" standalone="no"?>
<!DOCTYPE svg PUBLIC "-//W3C//DTD SVG 1.1//EN"
 "http://www.w3.org/Graphics/SVG/1.1/DTD/svg11.dtd">
<!-- Generated by graphviz version 2.36.0 (20140111.2315)
 -->
<!-- Title: frontend.Translator Pages: 1 -->
<svg width="241pt" height="96pt"
 viewBox="0.00 0.00 241.00 96.00" xmlns="http://www.w3.org/2000/svg" xmlns:xlink="http://www.w3.org/1999/xlink">
<g id="graph0" class="graph" transform="scale(1 1) rotate(0) translate(4 92)">
<title>frontend.Translator</title>
<polygon fill="white" stroke="none" points="-4,4 -4,-92 237,-92 237,4 -4,4"/>
<!-- Node1 -->
<g id="node1" class="node"><title>Node1</title>
<polygon fill="#bfbfbf" stroke="black" points="55.5,-0.5 55.5,-19.5 162.5,-19.5 162.5,-0.5 55.5,-0.5"/>
<text text-anchor="middle" x="109" y="-7.5" font-family="Helvetica,sans-Serif" font-size="10.00">frontend.Translator</text>
</g>
<!-- Node2 -->
<g id="node2" class="node"><title>Node2</title>
<polygon fill="white" stroke="#bfbfbf" points="-0.5,-68.5 -0.5,-87.5 92.5,-87.5 92.5,-68.5 -0.5,-68.5"/>
<text text-anchor="middle" x="46" y="-75.5" font-family="Helvetica,sans-Serif" font-size="10.00">ResourceBundle</text>
</g>
<!-- Node2&#45;&gt;Node1 -->
<g id="edge1" class="edge"><title>Node2&#45;&gt;Node1</title>
<path fill="none" stroke="#9a32cd" stroke-dasharray="5,2" d="M61.2275,-61.0474C73.5757,-48.1111 90.5231,-30.3567 100.561,-19.8411"/>
<polygon fill="#9a32cd" stroke="#9a32cd" points="58.6092,-58.7214 54.2361,-68.3717 63.6727,-63.5547 58.6092,-58.7214"/>
<text text-anchor="middle" x="117" y="-41.5" font-family="Helvetica,sans-Serif" font-size="10.00"> myLanguage</text>
</g>
<!-- Node3 -->
<g id="node3" class="node"><title>Node3</title>
<polygon fill="white" stroke="#bfbfbf" points="111,-68.5 111,-87.5 233,-87.5 233,-68.5 111,-68.5"/>
<text text-anchor="middle" x="172" y="-75.5" font-family="Helvetica,sans-Serif" font-size="10.00">Map&lt; String, String &gt;</text>
</g>
<!-- Node3&#45;&gt;Node1 -->
<g id="edge2" class="edge"><title>Node3&#45;&gt;Node1</title>
<path fill="none" stroke="#9a32cd" stroke-dasharray="5,2" d="M164.137,-59.0221C160.495,-51.9642 155.703,-44.1088 150,-38 143.137,-30.6484 133.89,-24.3376 125.915,-19.67"/>
<polygon fill="#9a32cd" stroke="#9a32cd" points="161.179,-60.954 168.62,-68.4959 167.506,-57.9598 161.179,-60.954"/>
<text text-anchor="middle" x="192.5" y="-41.5" font-family="Helvetica,sans-Serif" font-size="10.00"> myDictionary</text>
</g>
</g>
</svg>
