<?xml version="1.0" encoding="UTF-8" standalone="no"?>
<!DOCTYPE svg PUBLIC "-//W3C//DTD SVG 1.1//EN"
 "http://www.w3.org/Graphics/SVG/1.1/DTD/svg11.dtd">
<!-- Generated by graphviz version 2.36.0 (20140111.2315)
 -->
<!-- Title: frontend.SLogoWorkspace.AddWorkspaceButton Pages: 1 -->
<svg width="244pt" height="190pt"
 viewBox="0.00 0.00 244.00 190.00" xmlns="http://www.w3.org/2000/svg" xmlns:xlink="http://www.w3.org/1999/xlink">
<g id="graph0" class="graph" transform="scale(1 1) rotate(0) translate(4 186)">
<title>frontend.SLogoWorkspace.AddWorkspaceButton</title>
<polygon fill="white" stroke="none" points="-4,4 -4,-186 240,-186 240,4 -4,4"/>
<!-- Node1 -->
<g id="node1" class="node"><title>Node1</title>
<polygon fill="#bfbfbf" stroke="black" points="89,-1 89,-31 233,-31 233,-1 89,-1"/>
<text text-anchor="start" x="97" y="-19" font-family="Helvetica,sans-Serif" font-size="10.00">frontend.SLogoWorkspace.</text>
<text text-anchor="middle" x="161" y="-8" font-family="Helvetica,sans-Serif" font-size="10.00">AddWorkspaceButton</text>
</g>
<!-- Node2 -->
<g id="node2" class="node"><title>Node2</title>
<g id="a_node2"><a xlink:href="../../d1/d84/classfrontend_1_1_abstract_features_1_1_s_logo_button.html" target="_top" xlink:title="frontend.AbstractFeatures.\lSLogoButton">
<polygon fill="white" stroke="black" points="-0.5,-81 -0.5,-111 144.5,-111 144.5,-81 -0.5,-81"/>
<text text-anchor="start" x="7.5" y="-99" font-family="Helvetica,sans-Serif" font-size="10.00">frontend.AbstractFeatures.</text>
<text text-anchor="middle" x="72" y="-88" font-family="Helvetica,sans-Serif" font-size="10.00">SLogoButton</text>
</a>
</g>
</g>
<!-- Node2&#45;&gt;Node1 -->
<g id="edge1" class="edge"><title>Node2&#45;&gt;Node1</title>
<path fill="none" stroke="midnightblue" d="M95.9702,-73.9924C111.435,-60.4394 131.135,-43.1736 144.78,-31.2157"/>
<polygon fill="midnightblue" stroke="midnightblue" points="93.5377,-71.4703 88.324,-80.6936 98.1514,-76.7347 93.5377,-71.4703"/>
</g>
<!-- Node3 -->
<g id="node3" class="node"><title>Node3</title>
<g id="a_node3"><a xlink:href="../../dc/db4/classfrontend_1_1_abstract_features_1_1_g_u_i_feature.html" target="_top" xlink:title="frontend.AbstractFeatures.\lGUIFeature">
<polygon fill="white" stroke="black" points="-0.5,-151 -0.5,-181 144.5,-181 144.5,-151 -0.5,-151"/>
<text text-anchor="start" x="7.5" y="-169" font-family="Helvetica,sans-Serif" font-size="10.00">frontend.AbstractFeatures.</text>
<text text-anchor="middle" x="72" y="-158" font-family="Helvetica,sans-Serif" font-size="10.00">GUIFeature</text>
</a>
</g>
</g>
<!-- Node3&#45;&gt;Node2 -->
<g id="edge2" class="edge"><title>Node3&#45;&gt;Node2</title>
<path fill="none" stroke="midnightblue" d="M72,-140.769C72,-130.814 72,-119.638 72,-111.072"/>
<polygon fill="midnightblue" stroke="midnightblue" points="68.5001,-140.91 72,-150.91 75.5001,-140.91 68.5001,-140.91"/>
</g>
<!-- Node4 -->
<g id="node4" class="node"><title>Node4</title>
<polygon fill="white" stroke="#bfbfbf" points="163,-86.5 163,-105.5 219,-105.5 219,-86.5 163,-86.5"/>
<text text-anchor="middle" x="191" y="-93.5" font-family="Helvetica,sans-Serif" font-size="10.00">TabPane</text>
</g>
<!-- Node4&#45;&gt;Node1 -->
<g id="edge3" class="edge"><title>Node4&#45;&gt;Node1</title>
<path fill="none" stroke="#9a32cd" stroke-dasharray="5,2" d="M184.033,-76.8856C178.685,-62.9816 171.405,-44.054 166.472,-31.227"/>
<polygon fill="#9a32cd" stroke="#9a32cd" points="180.818,-78.2776 187.675,-86.3546 187.352,-75.7647 180.818,-78.2776"/>
<text text-anchor="middle" x="207" y="-53.5" font-family="Helvetica,sans-Serif" font-size="10.00"> myTabPane</text>
</g>
</g>
</svg>
