<?xml version="1.0" encoding="UTF-8" standalone="no"?>
<!DOCTYPE svg PUBLIC "-//W3C//DTD SVG 1.1//EN"
 "http://www.w3.org/Graphics/SVG/1.1/DTD/svg11.dtd">
<!-- Generated by graphviz version 2.36.0 (20140111.2315)
 -->
<!-- Title: expressionTree.ExpressionNode Pages: 1 -->
<svg width="235pt" height="110pt"
 viewBox="0.00 0.00 235.00 110.00" xmlns="http://www.w3.org/2000/svg" xmlns:xlink="http://www.w3.org/1999/xlink">
<g id="graph0" class="graph" transform="scale(1 1) rotate(0) translate(4 106)">
<title>expressionTree.ExpressionNode</title>
<polygon fill="white" stroke="none" points="-4,4 -4,-106 231,-106 231,4 -4,4"/>
<!-- Node1 -->
<g id="node1" class="node"><title>Node1</title>
<polygon fill="#bfbfbf" stroke="black" points="1,-1.5 1,-20.5 169,-20.5 169,-1.5 1,-1.5"/>
<text text-anchor="middle" x="85" y="-8.5" font-family="Helvetica,sans-Serif" font-size="10.00">expressionTree.ExpressionNode</text>
</g>
<!-- Node1&#45;&gt;Node1 -->
<g id="edge2" class="edge"><title>Node1&#45;&gt;Node1</title>
<path fill="none" stroke="#9a32cd" stroke-dasharray="5,2" d="M179.372,-14.9312C183.558,-13.9291 186,-12.6187 186,-11 186,-8.34375 179.424,-6.51758 169.356,-5.52148"/>
<polygon fill="#9a32cd" stroke="#9a32cd" points="178.704,-11.4928 169.356,-16.4785 179.773,-18.4108 178.704,-11.4928"/>
<text text-anchor="middle" x="206" y="-14" font-family="Helvetica,sans-Serif" font-size="10.00"> myLeft</text>
<text text-anchor="middle" x="206" y="-3" font-family="Helvetica,sans-Serif" font-size="10.00">myRight</text>
</g>
<!-- Node2 -->
<g id="node2" class="node"><title>Node2</title>
<polygon fill="white" stroke="#bfbfbf" points="0,-71 0,-101 170,-101 170,-71 0,-71"/>
<text text-anchor="start" x="8" y="-89" font-family="Helvetica,sans-Serif" font-size="10.00">List&lt; displayCommands.Display</text>
<text text-anchor="middle" x="85" y="-78" font-family="Helvetica,sans-Serif" font-size="10.00">Node &gt;</text>
</g>
<!-- Node2&#45;&gt;Node1 -->
<g id="edge1" class="edge"><title>Node2&#45;&gt;Node1</title>
<path fill="none" stroke="#9a32cd" stroke-dasharray="5,2" d="M85,-60.5743C85,-46.7515 85,-30.325 85,-20.5528"/>
<polygon fill="#9a32cd" stroke="#9a32cd" points="81.5001,-60.9248 85,-70.9249 88.5001,-60.9249 81.5001,-60.9248"/>
<text text-anchor="middle" x="120" y="-43.5" font-family="Helvetica,sans-Serif" font-size="10.00"> instructionList</text>
</g>
</g>
</svg>
