<?xml version="1.0" encoding="UTF-8" standalone="no"?>
<!DOCTYPE svg PUBLIC "-//W3C//DTD SVG 1.1//EN"
 "http://www.w3.org/Graphics/SVG/1.1/DTD/svg11.dtd">
<!-- Generated by graphviz version 2.36.0 (20140111.2315)
 -->
<!-- Title: frontend.ConcreteFeatures.TurtleStatsWindow Pages: 1 -->
<svg width="708pt" height="241pt"
 viewBox="0.00 0.00 708.00 241.00" xmlns="http://www.w3.org/2000/svg" xmlns:xlink="http://www.w3.org/1999/xlink">
<g id="graph0" class="graph" transform="scale(1 1) rotate(0) translate(4 237)">
<title>frontend.ConcreteFeatures.TurtleStatsWindow</title>
<polygon fill="white" stroke="none" points="-4,4 -4,-237 704,-237 704,4 -4,4"/>
<!-- Node1 -->
<g id="node1" class="node"><title>Node1</title>
<polygon fill="#bfbfbf" stroke="black" points="552,-125 552,-155 700,-155 700,-125 552,-125"/>
<text text-anchor="start" x="560" y="-143" font-family="Helvetica,sans-Serif" font-size="10.00">frontend.ConcreteFeatures.</text>
<text text-anchor="middle" x="626" y="-132" font-family="Helvetica,sans-Serif" font-size="10.00">TurtleStatsWindow</text>
</g>
<!-- Node2 -->
<g id="node2" class="node"><title>Node2</title>
<g id="a_node2"><a xlink:href="../../de/daa/classfrontend_1_1_abstract_features_1_1_s_logo_scroll_pane.html" target="_top" xlink:title="frontend.AbstractFeatures.\lSLogoScrollPane">
<polygon fill="white" stroke="black" points="274.5,-159 274.5,-189 419.5,-189 419.5,-159 274.5,-159"/>
<text text-anchor="start" x="282.5" y="-177" font-family="Helvetica,sans-Serif" font-size="10.00">frontend.AbstractFeatures.</text>
<text text-anchor="middle" x="347" y="-166" font-family="Helvetica,sans-Serif" font-size="10.00">SLogoScrollPane</text>
</a>
</g>
</g>
<!-- Node2&#45;&gt;Node1 -->
<g id="edge1" class="edge"><title>Node2&#45;&gt;Node1</title>
<path fill="none" stroke="midnightblue" d="M429.867,-163.951C468.487,-159.211 514.205,-153.599 551.677,-149"/>
<polygon fill="midnightblue" stroke="midnightblue" points="429.194,-160.508 419.695,-165.2 430.047,-167.455 429.194,-160.508"/>
</g>
<!-- Node3 -->
<g id="node3" class="node"><title>Node3</title>
<g id="a_node3"><a xlink:href="../../dc/db4/classfrontend_1_1_abstract_features_1_1_g_u_i_feature.html" target="_top" xlink:title="frontend.AbstractFeatures.\lGUIFeature">
<polygon fill="white" stroke="black" points="4.5,-203 4.5,-233 149.5,-233 149.5,-203 4.5,-203"/>
<text text-anchor="start" x="12.5" y="-221" font-family="Helvetica,sans-Serif" font-size="10.00">frontend.AbstractFeatures.</text>
<text text-anchor="middle" x="77" y="-210" font-family="Helvetica,sans-Serif" font-size="10.00">GUIFeature</text>
</a>
</g>
</g>
<!-- Node3&#45;&gt;Node2 -->
<g id="edge2" class="edge"><title>Node3&#45;&gt;Node2</title>
<path fill="none" stroke="midnightblue" d="M159.957,-204.544C196.517,-198.542 239.196,-191.535 274.448,-185.747"/>
<polygon fill="midnightblue" stroke="midnightblue" points="159.12,-201.135 149.819,-206.209 160.254,-208.042 159.12,-201.135"/>
</g>
<!-- Node4 -->
<g id="node4" class="node"><title>Node4</title>
<polygon fill="white" stroke="#bfbfbf" points="44,-164.5 44,-183.5 110,-183.5 110,-164.5 44,-164.5"/>
<text text-anchor="middle" x="77" y="-171.5" font-family="Helvetica,sans-Serif" font-size="10.00">ScrollPane</text>
</g>
<!-- Node4&#45;&gt;Node2 -->
<g id="edge3" class="edge"><title>Node4&#45;&gt;Node2</title>
<path fill="none" stroke="#9a32cd" stroke-dasharray="5,2" d="M120.313,-174C161.606,-174 225.218,-174 274.395,-174"/>
<polygon fill="#9a32cd" stroke="#9a32cd" points="120.061,-170.5 110.061,-174 120.061,-177.5 120.061,-170.5"/>
<text text-anchor="middle" x="212" y="-177" font-family="Helvetica,sans-Serif" font-size="10.00"> myWindow</text>
</g>
<!-- Node5 -->
<g id="node5" class="node"><title>Node5</title>
<g id="a_node5"><a xlink:href="../../d4/d7e/classturtle_classes_1_1_turtle_collection.html" target="_top" xlink:title="turtleClasses.TurtleCollection">
<polygon fill="white" stroke="black" points="270,-82.5 270,-101.5 424,-101.5 424,-82.5 270,-82.5"/>
<text text-anchor="middle" x="347" y="-89.5" font-family="Helvetica,sans-Serif" font-size="10.00">turtleClasses.TurtleCollection</text>
</a>
</g>
</g>
<!-- Node5&#45;&gt;Node1 -->
<g id="edge4" class="edge"><title>Node5&#45;&gt;Node1</title>
<path fill="none" stroke="#9a32cd" stroke-dasharray="5,2" d="M413.09,-103.279C454.731,-110.495 508.822,-119.868 551.932,-127.338"/>
<polygon fill="#9a32cd" stroke="#9a32cd" points="413.508,-99.7995 403.057,-101.541 412.313,-106.697 413.508,-99.7995"/>
<text text-anchor="middle" x="488" y="-127" font-family="Helvetica,sans-Serif" font-size="10.00"> myTurtleCollection</text>
</g>
<!-- Node6 -->
<g id="node6" class="node"><title>Node6</title>
<polygon fill="white" stroke="#bfbfbf" points="26.5,-126.5 26.5,-145.5 127.5,-145.5 127.5,-126.5 26.5,-126.5"/>
<text text-anchor="middle" x="77" y="-133.5" font-family="Helvetica,sans-Serif" font-size="10.00">Iterable&lt; Turtle &gt;</text>
</g>
<!-- Node6&#45;&gt;Node5 -->
<g id="edge5" class="edge"><title>Node6&#45;&gt;Node5</title>
<path fill="none" stroke="midnightblue" d="M137.667,-126.204C182.535,-118.837 243.668,-108.801 288.101,-101.506"/>
<polygon fill="midnightblue" stroke="midnightblue" points="137.081,-122.753 127.781,-127.827 138.216,-129.661 137.081,-122.753"/>
</g>
<!-- Node7 -->
<g id="node7" class="node"><title>Node7</title>
<polygon fill="white" stroke="#bfbfbf" points="0.5,-77 0.5,-107 153.5,-107 153.5,-77 0.5,-77"/>
<text text-anchor="start" x="8.5" y="-95" font-family="Helvetica,sans-Serif" font-size="10.00">Map&lt; Integer, turtleClasses.</text>
<text text-anchor="middle" x="77" y="-84" font-family="Helvetica,sans-Serif" font-size="10.00">Turtle &gt;</text>
</g>
<!-- Node7&#45;&gt;Node5 -->
<g id="edge6" class="edge"><title>Node7&#45;&gt;Node5</title>
<path fill="none" stroke="#9a32cd" stroke-dasharray="5,2" d="M164.13,-92C198.19,-92 237.002,-92 269.999,-92"/>
<polygon fill="#9a32cd" stroke="#9a32cd" points="163.723,-88.5001 153.723,-92 163.723,-95.5001 163.723,-88.5001"/>
<text text-anchor="middle" x="212" y="-95" font-family="Helvetica,sans-Serif" font-size="10.00"> myTurtles</text>
</g>
<!-- Node8 -->
<g id="node8" class="node"><title>Node8</title>
<polygon fill="white" stroke="#bfbfbf" points="4,-38.5 4,-57.5 150,-57.5 150,-38.5 4,-38.5"/>
<text text-anchor="middle" x="77" y="-45.5" font-family="Helvetica,sans-Serif" font-size="10.00">List&lt; turtleClasses.Turtle &gt;</text>
</g>
<!-- Node8&#45;&gt;Node5 -->
<g id="edge7" class="edge"><title>Node8&#45;&gt;Node5</title>
<path fill="none" stroke="#9a32cd" stroke-dasharray="5,2" d="M146.151,-59.1889C189.967,-66.3826 246.284,-75.6287 287.961,-82.4713"/>
<polygon fill="#9a32cd" stroke="#9a32cd" points="146.587,-55.7138 136.152,-57.5473 145.453,-62.6213 146.587,-55.7138"/>
<text text-anchor="middle" x="212" y="-80" font-family="Helvetica,sans-Serif" font-size="10.00"> myActiveTurtles</text>
</g>
<!-- Node9 -->
<g id="node9" class="node"><title>Node9</title>
<polygon fill="white" stroke="#bfbfbf" points="51,-0.5 51,-19.5 103,-19.5 103,-0.5 51,-0.5"/>
<text text-anchor="middle" x="77" y="-7.5" font-family="Helvetica,sans-Serif" font-size="10.00">Canvas</text>
</g>
<!-- Node9&#45;&gt;Node5 -->
<g id="edge8" class="edge"><title>Node9&#45;&gt;Node5</title>
<path fill="none" stroke="#9a32cd" stroke-dasharray="5,2" d="M113.125,-15.6502C148.692,-21.8854 205.002,-33.1765 252,-49 279.383,-58.2192 309.502,-72.8499 328.086,-82.439"/>
<polygon fill="#9a32cd" stroke="#9a32cd" points="113.676,-12.1936 103.228,-13.952 112.492,-19.0928 113.676,-12.1936"/>
<text text-anchor="middle" x="212" y="-52" font-family="Helvetica,sans-Serif" font-size="10.00"> myCanvas</text>
</g>
</g>
</svg>
