<?xml version="1.0" encoding="UTF-8" standalone="no"?>
<!DOCTYPE svg PUBLIC "-//W3C//DTD SVG 1.1//EN"
 "http://www.w3.org/Graphics/SVG/1.1/DTD/svg11.dtd">
<!-- Generated by graphviz version 2.36.0 (20140111.2315)
 -->
<!-- Title: displayCommands.SetPenColor Pages: 1 -->
<svg width="267pt" height="236pt"
 viewBox="0.00 0.00 267.00 236.00" xmlns="http://www.w3.org/2000/svg" xmlns:xlink="http://www.w3.org/1999/xlink">
<g id="graph0" class="graph" transform="scale(1 1) rotate(0) translate(4 232)">
<title>displayCommands.SetPenColor</title>
<polygon fill="white" stroke="none" points="-4,4 -4,-232 263,-232 263,4 -4,4"/>
<!-- Node1 -->
<g id="node1" class="node"><title>Node1</title>
<polygon fill="#bfbfbf" stroke="black" points="92.5,-0.5 92.5,-19.5 259.5,-19.5 259.5,-0.5 92.5,-0.5"/>
<text text-anchor="middle" x="176" y="-7.5" font-family="Helvetica,sans-Serif" font-size="10.00">displayCommands.SetPenColor</text>
</g>
<!-- Node2 -->
<g id="node2" class="node"><title>Node2</title>
<g id="a_node2"><a xlink:href="../../d6/d49/classdisplay_commands_1_1_display_node.html" target="_top" xlink:title="displayCommands.DisplayNode">
<polygon fill="white" stroke="black" points="1,-68.5 1,-87.5 169,-87.5 169,-68.5 1,-68.5"/>
<text text-anchor="middle" x="85" y="-75.5" font-family="Helvetica,sans-Serif" font-size="10.00">displayCommands.DisplayNode</text>
</a>
</g>
</g>
<!-- Node2&#45;&gt;Node1 -->
<g id="edge1" class="edge"><title>Node2&#45;&gt;Node1</title>
<path fill="none" stroke="midnightblue" d="M105.054,-62.4551C123.133,-49.3431 149.111,-30.5016 164.1,-19.6305"/>
<polygon fill="midnightblue" stroke="midnightblue" points="102.937,-59.6672 96.8967,-68.3717 107.047,-65.3338 102.937,-59.6672"/>
</g>
<!-- Node3 -->
<g id="node3" class="node"><title>Node3</title>
<g id="a_node3"><a xlink:href="../../db/da5/classexpression_tree_1_1_expression_node.html" target="_top" xlink:title="expressionTree.ExpressionNode">
<polygon fill="white" stroke="black" points="1,-127.5 1,-146.5 169,-146.5 169,-127.5 1,-127.5"/>
<text text-anchor="middle" x="85" y="-134.5" font-family="Helvetica,sans-Serif" font-size="10.00">expressionTree.ExpressionNode</text>
</a>
</g>
</g>
<!-- Node3&#45;&gt;Node2 -->
<g id="edge2" class="edge"><title>Node3&#45;&gt;Node2</title>
<path fill="none" stroke="midnightblue" d="M85,-116.933C85,-107.024 85,-95.4007 85,-87.6571"/>
<polygon fill="midnightblue" stroke="midnightblue" points="81.5001,-117.094 85,-127.094 88.5001,-117.094 81.5001,-117.094"/>
</g>
<!-- Node3&#45;&gt;Node3 -->
<g id="edge4" class="edge"><title>Node3&#45;&gt;Node3</title>
<path fill="none" stroke="#9a32cd" stroke-dasharray="5,2" d="M179.372,-140.469C183.558,-139.584 186,-138.428 186,-137 186,-134.656 179.424,-133.045 169.356,-132.166"/>
<polygon fill="#9a32cd" stroke="#9a32cd" points="178.791,-137.015 169.356,-141.834 179.737,-143.951 178.791,-137.015"/>
<text text-anchor="middle" x="206" y="-140" font-family="Helvetica,sans-Serif" font-size="10.00"> myLeft</text>
<text text-anchor="middle" x="206" y="-129" font-family="Helvetica,sans-Serif" font-size="10.00">myRight</text>
</g>
<!-- Node4 -->
<g id="node4" class="node"><title>Node4</title>
<polygon fill="white" stroke="#bfbfbf" points="0,-197 0,-227 170,-227 170,-197 0,-197"/>
<text text-anchor="start" x="8" y="-215" font-family="Helvetica,sans-Serif" font-size="10.00">List&lt; displayCommands.Display</text>
<text text-anchor="middle" x="85" y="-204" font-family="Helvetica,sans-Serif" font-size="10.00">Node &gt;</text>
</g>
<!-- Node4&#45;&gt;Node3 -->
<g id="edge3" class="edge"><title>Node4&#45;&gt;Node3</title>
<path fill="none" stroke="#9a32cd" stroke-dasharray="5,2" d="M85,-186.574C85,-172.751 85,-156.325 85,-146.553"/>
<polygon fill="#9a32cd" stroke="#9a32cd" points="81.5001,-186.925 85,-196.925 88.5001,-186.925 81.5001,-186.925"/>
<text text-anchor="middle" x="120" y="-169.5" font-family="Helvetica,sans-Serif" font-size="10.00"> instructionList</text>
</g>
<!-- Node5 -->
<g id="node5" class="node"><title>Node5</title>
<polygon fill="white" stroke="#bfbfbf" points="186.5,-68.5 186.5,-87.5 227.5,-87.5 227.5,-68.5 186.5,-68.5"/>
<text text-anchor="middle" x="207" y="-75.5" font-family="Helvetica,sans-Serif" font-size="10.00">Color</text>
</g>
<!-- Node5&#45;&gt;Node1 -->
<g id="edge5" class="edge"><title>Node5&#45;&gt;Node1</title>
<path fill="none" stroke="#9a32cd" stroke-dasharray="5,2" d="M198.633,-59.1859C192.652,-46.4523 184.859,-29.8607 180.153,-19.8411"/>
<polygon fill="#9a32cd" stroke="#9a32cd" points="195.528,-60.8083 202.947,-68.3717 201.864,-57.8324 195.528,-60.8083"/>
<text text-anchor="middle" x="215.5" y="-41.5" font-family="Helvetica,sans-Serif" font-size="10.00"> myColor</text>
</g>
</g>
</svg>
