<?xml version="1.0" encoding="UTF-8" standalone="no"?>
<!DOCTYPE svg PUBLIC "-//W3C//DTD SVG 1.1//EN"
 "http://www.w3.org/Graphics/SVG/1.1/DTD/svg11.dtd">
<!-- Generated by graphviz version 2.36.0 (20140111.2315)
 -->
<!-- Title: turtleClasses.TurtleKeyHandler.handle Pages: 1 -->
<svg width="1048pt" height="405pt"
 viewBox="0.00 0.00 1048.00 405.00" xmlns="http://www.w3.org/2000/svg" xmlns:xlink="http://www.w3.org/1999/xlink">
<g id="graph0" class="graph" transform="scale(1 1) rotate(0) translate(4 401)">
<title>turtleClasses.TurtleKeyHandler.handle</title>
<polygon fill="white" stroke="none" points="-4,4 -4,-401 1044,-401 1044,4 -4,4"/>
<!-- Node1 -->
<g id="node1" class="node"><title>Node1</title>
<polygon fill="#bfbfbf" stroke="black" points="0,-263.5 0,-282.5 196,-282.5 196,-263.5 0,-263.5"/>
<text text-anchor="middle" x="98" y="-270.5" font-family="Helvetica,sans-Serif" font-size="10.00">turtleClasses.TurtleKeyHandler.handle</text>
</g>
<!-- Node2 -->
<g id="node2" class="node"><title>Node2</title>
<g id="a_node2"><a xlink:href="../../d2/dea/class_s_logo_controllers_1_1_input_controller.html#a7ce411d6699e0b45d54f63e43995c6a0" target="_top" xlink:title="SLogoControllers.InputController.get\lInstructions">
<polygon fill="white" stroke="black" points="234,-354 234,-384 424,-384 424,-354 234,-354"/>
<text text-anchor="start" x="242" y="-372" font-family="Helvetica,sans-Serif" font-size="10.00">SLogoControllers.InputController.get</text>
<text text-anchor="middle" x="329" y="-361" font-family="Helvetica,sans-Serif" font-size="10.00">Instructions</text>
</a>
</g>
</g>
<!-- Node1&#45;&gt;Node2 -->
<g id="edge1" class="edge"><title>Node1&#45;&gt;Node2</title>
<path fill="none" stroke="midnightblue" d="M119.101,-282.561C144.993,-294.762 191.489,-316.287 232,-333 246.305,-338.902 261.966,-344.947 276.412,-350.357"/>
<polygon fill="midnightblue" stroke="midnightblue" points="275.594,-353.787 286.187,-353.992 278.034,-347.226 275.594,-353.787"/>
</g>
<!-- Node5 -->
<g id="node5" class="node"><title>Node5</title>
<g id="a_node5"><a xlink:href="../../d2/dea/class_s_logo_controllers_1_1_input_controller.html#a1e1beebe816454b8128ce9222eeb8620" target="_top" xlink:title="SLogoControllers.InputController.give\lInput">
<polygon fill="white" stroke="black" points="232,-294 232,-324 426,-324 426,-294 232,-294"/>
<text text-anchor="start" x="240" y="-312" font-family="Helvetica,sans-Serif" font-size="10.00">SLogoControllers.InputController.give</text>
<text text-anchor="middle" x="329" y="-301" font-family="Helvetica,sans-Serif" font-size="10.00">Input</text>
</a>
</g>
</g>
<!-- Node1&#45;&gt;Node5 -->
<g id="edge4" class="edge"><title>Node1&#45;&gt;Node5</title>
<path fill="none" stroke="midnightblue" d="M159.467,-282.506C178.887,-285.559 200.998,-289.035 222.668,-292.441"/>
<polygon fill="midnightblue" stroke="midnightblue" points="222.16,-295.904 232.582,-294 223.247,-288.989 222.16,-295.904"/>
</g>
<!-- Node8 -->
<g id="node8" class="node"><title>Node8</title>
<g id="a_node8"><a xlink:href="../../d3/d17/classturtle_classes_1_1_turtle_mover.html#a955db4be8fe596975332813b98a0cecf" target="_top" xlink:title="turtleClasses.TurtleMover.start\lDrawing">
<polygon fill="white" stroke="black" points="248.5,-222 248.5,-252 409.5,-252 409.5,-222 248.5,-222"/>
<text text-anchor="start" x="256.5" y="-240" font-family="Helvetica,sans-Serif" font-size="10.00">turtleClasses.TurtleMover.start</text>
<text text-anchor="middle" x="329" y="-229" font-family="Helvetica,sans-Serif" font-size="10.00">Drawing</text>
</a>
</g>
</g>
<!-- Node1&#45;&gt;Node8 -->
<g id="edge7" class="edge"><title>Node1&#45;&gt;Node8</title>
<path fill="none" stroke="midnightblue" d="M159.467,-263.494C183.554,-259.708 211.781,-255.27 238.173,-251.121"/>
<polygon fill="midnightblue" stroke="midnightblue" points="238.85,-254.558 248.185,-249.547 237.763,-247.643 238.85,-254.558"/>
</g>
<!-- Node22 -->
<g id="node22" class="node"><title>Node22</title>
<g id="a_node22"><a xlink:href="../../df/d0e/classfrontend_1_1_pane_updater.html#a5fcda115228f65df7abd8ec164ca67f9" target="_top" xlink:title="frontend.PaneUpdater.updateAll">
<polygon fill="white" stroke="black" points="244,-183.5 244,-202.5 414,-202.5 414,-183.5 244,-183.5"/>
<text text-anchor="middle" x="329" y="-190.5" font-family="Helvetica,sans-Serif" font-size="10.00">frontend.PaneUpdater.updateAll</text>
</a>
</g>
</g>
<!-- Node1&#45;&gt;Node22 -->
<g id="edge22" class="edge"><title>Node1&#45;&gt;Node22</title>
<path fill="none" stroke="midnightblue" d="M116.535,-263.336C141.482,-249.968 188.975,-225.91 232,-212 240.548,-209.236 249.66,-206.804 258.739,-204.683"/>
<polygon fill="midnightblue" stroke="midnightblue" points="259.546,-208.09 268.549,-202.504 258.028,-201.256 259.546,-208.09"/>
</g>
<!-- Node3 -->
<g id="node3" class="node"><title>Node3</title>
<g id="a_node3"><a xlink:href="../../d1/ddd/classbackend_1_1_parser.html#a8b57ca47f899f9682d7e7b8f19857933" target="_top" xlink:title="backend.Parser.parse">
<polygon fill="white" stroke="black" points="497.5,-365.5 497.5,-384.5 616.5,-384.5 616.5,-365.5 497.5,-365.5"/>
<text text-anchor="middle" x="557" y="-372.5" font-family="Helvetica,sans-Serif" font-size="10.00">backend.Parser.parse</text>
</a>
</g>
</g>
<!-- Node2&#45;&gt;Node3 -->
<g id="edge2" class="edge"><title>Node2&#45;&gt;Node3</title>
<path fill="none" stroke="midnightblue" d="M424.208,-371.501C445.351,-372.062 467.398,-372.648 487.274,-373.175"/>
<polygon fill="midnightblue" stroke="midnightblue" points="487.364,-376.679 497.453,-373.446 487.55,-369.681 487.364,-376.679"/>
</g>
<!-- Node4 -->
<g id="node4" class="node"><title>Node4</title>
<g id="a_node4"><a xlink:href="../../d3/dfb/classexpression_tree_1_1_expression_tree_builder.html#aa6681548d74fc2f813e9496a163716be" target="_top" xlink:title="expressionTree.Expression\lTreeBuilder.getOutputList">
<polygon fill="white" stroke="black" points="702.5,-367 702.5,-397 845.5,-397 845.5,-367 702.5,-367"/>
<text text-anchor="start" x="710.5" y="-385" font-family="Helvetica,sans-Serif" font-size="10.00">expressionTree.Expression</text>
<text text-anchor="middle" x="774" y="-374" font-family="Helvetica,sans-Serif" font-size="10.00">TreeBuilder.getOutputList</text>
</a>
</g>
</g>
<!-- Node3&#45;&gt;Node4 -->
<g id="edge3" class="edge"><title>Node3&#45;&gt;Node4</title>
<path fill="none" stroke="midnightblue" d="M616.75,-376.913C640.025,-377.671 667.169,-378.554 692.241,-379.371"/>
<polygon fill="midnightblue" stroke="midnightblue" points="692.362,-382.876 702.471,-379.704 692.59,-375.88 692.362,-382.876"/>
</g>
<!-- Node6 -->
<g id="node6" class="node"><title>Node6</title>
<g id="a_node6"><a xlink:href="../../d4/dbc/classfrontend_1_1_translator.html#af1bc0cb421e114e275cf9b0185da7092" target="_top" xlink:title="frontend.Translator.translate">
<polygon fill="white" stroke="black" points="481,-321.5 481,-340.5 633,-340.5 633,-321.5 481,-321.5"/>
<text text-anchor="middle" x="557" y="-328.5" font-family="Helvetica,sans-Serif" font-size="10.00">frontend.Translator.translate</text>
</a>
</g>
</g>
<!-- Node5&#45;&gt;Node6 -->
<g id="edge5" class="edge"><title>Node5&#45;&gt;Node6</title>
<path fill="none" stroke="midnightblue" d="M426.172,-318.362C441.009,-319.806 456.242,-321.289 470.817,-322.708"/>
<polygon fill="midnightblue" stroke="midnightblue" points="470.497,-326.193 480.789,-323.679 471.176,-319.226 470.497,-326.193"/>
</g>
<!-- Node7 -->
<g id="node7" class="node"><title>Node7</title>
<g id="a_node7"><a xlink:href="../../d4/dbc/classfrontend_1_1_translator.html#ad4388893530365ae85e623478ec20d50" target="_top" xlink:title="frontend.Translator.translateOne">
<polygon fill="white" stroke="black" points="688.5,-328.5 688.5,-347.5 859.5,-347.5 859.5,-328.5 688.5,-328.5"/>
<text text-anchor="middle" x="774" y="-335.5" font-family="Helvetica,sans-Serif" font-size="10.00">frontend.Translator.translateOne</text>
</a>
</g>
</g>
<!-- Node6&#45;&gt;Node7 -->
<g id="edge6" class="edge"><title>Node6&#45;&gt;Node7</title>
<path fill="none" stroke="midnightblue" d="M633.197,-333.448C647.66,-333.919 662.983,-334.418 677.978,-334.906"/>
<polygon fill="midnightblue" stroke="midnightblue" points="678.183,-338.415 688.292,-335.242 678.411,-331.418 678.183,-338.415"/>
</g>
<!-- Node9 -->
<g id="node9" class="node"><title>Node9</title>
<g id="a_node9"><a xlink:href="../../d4/d7e/classturtle_classes_1_1_turtle_collection.html#a61f007615f0fd523dae94957f8022100" target="_top" xlink:title="turtleClasses.TurtleCollection.set\lActiveTurtles">
<polygon fill="white" stroke="black" points="471,-265 471,-295 643,-295 643,-265 471,-265"/>
<text text-anchor="start" x="479" y="-283" font-family="Helvetica,sans-Serif" font-size="10.00">turtleClasses.TurtleCollection.set</text>
<text text-anchor="middle" x="557" y="-272" font-family="Helvetica,sans-Serif" font-size="10.00">ActiveTurtles</text>
</a>
</g>
</g>
<!-- Node8&#45;&gt;Node9 -->
<g id="edge8" class="edge"><title>Node8&#45;&gt;Node9</title>
<path fill="none" stroke="midnightblue" d="M409.044,-252.039C427.796,-255.607 447.924,-259.437 467.083,-263.082"/>
<polygon fill="midnightblue" stroke="midnightblue" points="466.523,-266.538 477.001,-264.969 467.831,-259.662 466.523,-266.538"/>
</g>
<!-- Node13 -->
<g id="node13" class="node"><title>Node13</title>
<g id="a_node13"><a xlink:href="../../dc/d69/classturtle_classes_1_1_turtle_snapshot.html#a40b94c5cc09d2877090e9ced16447e03" target="_top" xlink:title="turtleClasses.TurtleSnapshot.get\lTurtleSnapshot">
<polygon fill="white" stroke="black" points="471,-216 471,-246 643,-246 643,-216 471,-216"/>
<text text-anchor="start" x="479" y="-234" font-family="Helvetica,sans-Serif" font-size="10.00">turtleClasses.TurtleSnapshot.get</text>
<text text-anchor="middle" x="557" y="-223" font-family="Helvetica,sans-Serif" font-size="10.00">TurtleSnapshot</text>
</a>
</g>
</g>
<!-- Node8&#45;&gt;Node13 -->
<g id="edge12" class="edge"><title>Node8&#45;&gt;Node13</title>
<path fill="none" stroke="midnightblue" d="M409.679,-234.885C426.097,-234.449 443.545,-233.986 460.458,-233.537"/>
<polygon fill="midnightblue" stroke="midnightblue" points="461.003,-237.023 470.906,-233.259 460.817,-230.026 461.003,-237.023"/>
</g>
<!-- Node14 -->
<g id="node14" class="node"><title>Node14</title>
<g id="a_node14"><a xlink:href="../../dc/d69/classturtle_classes_1_1_turtle_snapshot.html#a15dec792db9c32413964d88bae094216" target="_top" xlink:title="turtleClasses.TurtleSnapshot.update">
<polygon fill="white" stroke="black" points="462,-164.5 462,-183.5 652,-183.5 652,-164.5 462,-164.5"/>
<text text-anchor="middle" x="557" y="-171.5" font-family="Helvetica,sans-Serif" font-size="10.00">turtleClasses.TurtleSnapshot.update</text>
</a>
</g>
</g>
<!-- Node8&#45;&gt;Node14 -->
<g id="edge13" class="edge"><title>Node8&#45;&gt;Node14</title>
<path fill="none" stroke="midnightblue" d="M388.966,-221.938C401.225,-218.725 414.048,-215.302 426,-212 455.713,-203.79 489.086,-194.024 514.578,-186.448"/>
<polygon fill="midnightblue" stroke="midnightblue" points="515.702,-189.765 524.286,-183.555 513.703,-183.056 515.702,-189.765"/>
</g>
<!-- Node21 -->
<g id="node21" class="node"><title>Node21</title>
<g id="a_node21"><a xlink:href="../../d4/d7e/classturtle_classes_1_1_turtle_collection.html#ad8dcff2e2a1b9234392977c700bd76ed" target="_top" xlink:title="turtleClasses.TurtleCollection.get\lLastActiveTurtle">
<polygon fill="white" stroke="black" points="470.5,-115 470.5,-145 643.5,-145 643.5,-115 470.5,-115"/>
<text text-anchor="start" x="478.5" y="-133" font-family="Helvetica,sans-Serif" font-size="10.00">turtleClasses.TurtleCollection.get</text>
<text text-anchor="middle" x="557" y="-122" font-family="Helvetica,sans-Serif" font-size="10.00">LastActiveTurtle</text>
</a>
</g>
</g>
<!-- Node8&#45;&gt;Node21 -->
<g id="edge21" class="edge"><title>Node8&#45;&gt;Node21</title>
<path fill="none" stroke="midnightblue" d="M408.787,-221.89C414.886,-219.128 420.716,-215.862 426,-212 450.191,-194.32 437.855,-172.742 462,-155 464.654,-153.05 467.448,-151.252 470.347,-149.595"/>
<polygon fill="midnightblue" stroke="midnightblue" points="471.994,-152.684 479.32,-145.03 468.82,-146.445 471.994,-152.684"/>
</g>
<!-- Node10 -->
<g id="node10" class="node"><title>Node10</title>
<g id="a_node10"><a xlink:href="../../d8/d89/classturtle_classes_1_1_turtle.html#aff48aa8a8ca4bb8a7aa40743a1a944c4" target="_top" xlink:title="turtleClasses.Turtle.getID">
<polygon fill="white" stroke="black" points="706,-240.5 706,-259.5 842,-259.5 842,-240.5 706,-240.5"/>
<text text-anchor="middle" x="774" y="-247.5" font-family="Helvetica,sans-Serif" font-size="10.00">turtleClasses.Turtle.getID</text>
</a>
</g>
</g>
<!-- Node9&#45;&gt;Node10 -->
<g id="edge9" class="edge"><title>Node9&#45;&gt;Node10</title>
<path fill="none" stroke="midnightblue" d="M643.282,-268.1C660.467,-265.702 678.444,-263.194 695.351,-260.835"/>
<polygon fill="midnightblue" stroke="midnightblue" points="696.303,-264.236 705.723,-259.387 695.335,-257.303 696.303,-264.236"/>
</g>
<!-- Node11 -->
<g id="node11" class="node"><title>Node11</title>
<g id="a_node11"><a xlink:href="../../d8/d89/classturtle_classes_1_1_turtle.html#a2d3828dbca854624cc75fca5aa65b4c5" target="_top" xlink:title="turtleClasses.Turtle.set\lActive">
<polygon fill="white" stroke="black" points="711.5,-279 711.5,-309 836.5,-309 836.5,-279 711.5,-279"/>
<text text-anchor="start" x="719.5" y="-297" font-family="Helvetica,sans-Serif" font-size="10.00">turtleClasses.Turtle.set</text>
<text text-anchor="middle" x="774" y="-286" font-family="Helvetica,sans-Serif" font-size="10.00">Active</text>
</a>
</g>
</g>
<!-- Node9&#45;&gt;Node11 -->
<g id="edge10" class="edge"><title>Node9&#45;&gt;Node11</title>
<path fill="none" stroke="midnightblue" d="M643.282,-285.553C662.473,-286.803 682.652,-288.117 701.225,-289.326"/>
<polygon fill="midnightblue" stroke="midnightblue" points="701.155,-292.829 711.362,-289.986 701.61,-285.844 701.155,-292.829"/>
</g>
<!-- Node12 -->
<g id="node12" class="node"><title>Node12</title>
<g id="a_node12"><a xlink:href="../../d8/d89/classturtle_classes_1_1_turtle.html#abd769212afc56f042db3d4b5ee33790e" target="_top" xlink:title="turtleClasses.Turtle.handle\lActiveOutline">
<polygon fill="white" stroke="black" points="896.5,-279 896.5,-309 1039.5,-309 1039.5,-279 896.5,-279"/>
<text text-anchor="start" x="904.5" y="-297" font-family="Helvetica,sans-Serif" font-size="10.00">turtleClasses.Turtle.handle</text>
<text text-anchor="middle" x="968" y="-286" font-family="Helvetica,sans-Serif" font-size="10.00">ActiveOutline</text>
</a>
</g>
</g>
<!-- Node11&#45;&gt;Node12 -->
<g id="edge11" class="edge"><title>Node11&#45;&gt;Node12</title>
<path fill="none" stroke="midnightblue" d="M836.542,-294C852.347,-294 869.589,-294 886.207,-294"/>
<polygon fill="midnightblue" stroke="midnightblue" points="886.455,-297.5 896.455,-294 886.455,-290.5 886.455,-297.5"/>
</g>
<!-- Node14&#45;&gt;Node10 -->
<g id="edge20" class="edge"><title>Node14&#45;&gt;Node10</title>
<path fill="none" stroke="midnightblue" d="M593.765,-183.604C611.725,-189.062 633.533,-196.676 652,-206 669.389,-214.78 670.162,-223.174 688,-231 693.725,-233.512 699.818,-235.708 706.01,-237.624"/>
<polygon fill="midnightblue" stroke="midnightblue" points="705.208,-241.035 715.785,-240.412 707.128,-234.304 705.208,-241.035"/>
</g>
<!-- Node15 -->
<g id="node15" class="node"><title>Node15</title>
<g id="a_node15"><a xlink:href="../../d8/d89/classturtle_classes_1_1_turtle.html#a56503fbcf1cf444dc2dba7a7f07b891e" target="_top" xlink:title="turtleClasses.Turtle.getX">
<polygon fill="white" stroke="black" points="708,-202.5 708,-221.5 840,-221.5 840,-202.5 708,-202.5"/>
<text text-anchor="middle" x="774" y="-209.5" font-family="Helvetica,sans-Serif" font-size="10.00">turtleClasses.Turtle.getX</text>
</a>
</g>
</g>
<!-- Node14&#45;&gt;Node15 -->
<g id="edge14" class="edge"><title>Node14&#45;&gt;Node15</title>
<path fill="none" stroke="midnightblue" d="M611.976,-183.54C641.368,-188.735 677.926,-195.196 708.777,-200.649"/>
<polygon fill="midnightblue" stroke="midnightblue" points="708.545,-204.162 719.002,-202.456 709.764,-197.269 708.545,-204.162"/>
</g>
<!-- Node16 -->
<g id="node16" class="node"><title>Node16</title>
<g id="a_node16"><a xlink:href="../../d8/d89/classturtle_classes_1_1_turtle.html#a603a81ffb444aa19cecef6fc7f356e1f" target="_top" xlink:title="turtleClasses.Turtle.getY">
<polygon fill="white" stroke="black" points="708.5,-164.5 708.5,-183.5 839.5,-183.5 839.5,-164.5 708.5,-164.5"/>
<text text-anchor="middle" x="774" y="-171.5" font-family="Helvetica,sans-Serif" font-size="10.00">turtleClasses.Turtle.getY</text>
</a>
</g>
</g>
<!-- Node14&#45;&gt;Node16 -->
<g id="edge15" class="edge"><title>Node14&#45;&gt;Node16</title>
<path fill="none" stroke="midnightblue" d="M652.302,-174C667.703,-174 683.471,-174 698.316,-174"/>
<polygon fill="midnightblue" stroke="midnightblue" points="698.429,-177.5 708.429,-174 698.429,-170.5 698.429,-177.5"/>
</g>
<!-- Node17 -->
<g id="node17" class="node"><title>Node17</title>
<g id="a_node17"><a xlink:href="../../d8/d89/classturtle_classes_1_1_turtle.html#a83d46277ec7258a57d8b69797ffb42d8" target="_top" xlink:title="turtleClasses.Turtle.get\lDirection">
<polygon fill="white" stroke="black" points="711,-115 711,-145 837,-145 837,-115 711,-115"/>
<text text-anchor="start" x="719" y="-133" font-family="Helvetica,sans-Serif" font-size="10.00">turtleClasses.Turtle.get</text>
<text text-anchor="middle" x="774" y="-122" font-family="Helvetica,sans-Serif" font-size="10.00">Direction</text>
</a>
</g>
</g>
<!-- Node14&#45;&gt;Node17 -->
<g id="edge16" class="edge"><title>Node14&#45;&gt;Node17</title>
<path fill="none" stroke="midnightblue" d="M604.652,-164.453C632.735,-158.705 669.079,-151.267 700.807,-144.774"/>
<polygon fill="midnightblue" stroke="midnightblue" points="701.835,-148.137 710.93,-142.703 700.432,-141.279 701.835,-148.137"/>
</g>
<!-- Node18 -->
<g id="node18" class="node"><title>Node18</title>
<g id="a_node18"><a xlink:href="../../d8/d89/classturtle_classes_1_1_turtle.html#aebccf7c8d3ea7b21ea040ec199df9524" target="_top" xlink:title="turtleClasses.Turtle.getPen">
<polygon fill="white" stroke="black" points="702,-76.5 702,-95.5 846,-95.5 846,-76.5 702,-76.5"/>
<text text-anchor="middle" x="774" y="-83.5" font-family="Helvetica,sans-Serif" font-size="10.00">turtleClasses.Turtle.getPen</text>
</a>
</g>
</g>
<!-- Node14&#45;&gt;Node18 -->
<g id="edge17" class="edge"><title>Node14&#45;&gt;Node18</title>
<path fill="none" stroke="midnightblue" d="M630.001,-164.45C637.763,-161.763 645.272,-158.345 652,-154 674.701,-139.34 665.374,-119.777 688,-105 691.161,-102.936 694.514,-101.093 697.992,-99.4488"/>
<polygon fill="midnightblue" stroke="midnightblue" points="699.536,-102.598 707.441,-95.5434 696.863,-96.1284 699.536,-102.598"/>
</g>
<!-- Node19 -->
<g id="node19" class="node"><title>Node19</title>
<g id="a_node19"><a xlink:href="../../d3/d0e/classfrontend_1_1_pen.html#a17318755b237586d312171984cbcc550" target="_top" xlink:title="frontend.Pen.isPenDown">
<polygon fill="white" stroke="black" points="707.5,-38.5 707.5,-57.5 840.5,-57.5 840.5,-38.5 707.5,-38.5"/>
<text text-anchor="middle" x="774" y="-45.5" font-family="Helvetica,sans-Serif" font-size="10.00">frontend.Pen.isPenDown</text>
</a>
</g>
</g>
<!-- Node14&#45;&gt;Node19 -->
<g id="edge18" class="edge"><title>Node14&#45;&gt;Node19</title>
<path fill="none" stroke="midnightblue" d="M634.876,-164.43C641.048,-161.692 646.87,-158.269 652,-154 684.166,-127.233 655.972,-93.932 688,-67 691.101,-64.3922 694.485,-62.1221 698.057,-60.1477"/>
<polygon fill="midnightblue" stroke="midnightblue" points="699.706,-63.2401 707.273,-55.8247 696.734,-56.9026 699.706,-63.2401"/>
</g>
<!-- Node20 -->
<g id="node20" class="node"><title>Node20</title>
<g id="a_node20"><a xlink:href="../../d8/d89/classturtle_classes_1_1_turtle.html#ab9f4167fbd3300aef49f2221457509af" target="_top" xlink:title="turtleClasses.Turtle.isShowing">
<polygon fill="white" stroke="black" points="695,-0.5 695,-19.5 853,-19.5 853,-0.5 695,-0.5"/>
<text text-anchor="middle" x="774" y="-7.5" font-family="Helvetica,sans-Serif" font-size="10.00">turtleClasses.Turtle.isShowing</text>
</a>
</g>
</g>
<!-- Node14&#45;&gt;Node20 -->
<g id="edge19" class="edge"><title>Node14&#45;&gt;Node20</title>
<path fill="none" stroke="midnightblue" d="M636.76,-164.371C642.308,-161.618 647.483,-158.208 652,-154 694.301,-114.591 645.902,-68.6253 688,-29 689.528,-27.562 691.14,-26.2241 692.822,-24.9796"/>
<polygon fill="midnightblue" stroke="midnightblue" points="695.059,-27.7136 701.758,-19.5051 691.402,-21.7446 695.059,-27.7136"/>
</g>
</g>
</svg>
