<?xml version="1.0" encoding="UTF-8" standalone="no"?>
<!DOCTYPE svg PUBLIC "-//W3C//DTD SVG 1.1//EN"
 "http://www.w3.org/Graphics/SVG/1.1/DTD/svg11.dtd">
<!-- Generated by graphviz version 2.36.0 (20140111.2315)
 -->
<!-- Title: frontend.ConcreteFeatures.TurtleChanger.doDropDownClickAction Pages: 1 -->
<svg width="766pt" height="104pt"
 viewBox="0.00 0.00 766.00 104.00" xmlns="http://www.w3.org/2000/svg" xmlns:xlink="http://www.w3.org/1999/xlink">
<g id="graph0" class="graph" transform="scale(1 1) rotate(0) translate(4 100)">
<title>frontend.ConcreteFeatures.TurtleChanger.doDropDownClickAction</title>
<polygon fill="white" stroke="none" points="-4,4 -4,-100 762,-100 762,4 -4,4"/>
<!-- Node1 -->
<g id="node1" class="node"><title>Node1</title>
<polygon fill="#bfbfbf" stroke="black" points="0,-41 0,-71 198,-71 198,-41 0,-41"/>
<text text-anchor="start" x="8" y="-59" font-family="Helvetica,sans-Serif" font-size="10.00">frontend.ConcreteFeatures.</text>
<text text-anchor="middle" x="99" y="-48" font-family="Helvetica,sans-Serif" font-size="10.00">TurtleChanger.doDropDownClickAction</text>
</g>
<!-- Node2 -->
<g id="node2" class="node"><title>Node2</title>
<g id="a_node2"><a xlink:href="../../d0/d3e/classfrontend_1_1_concrete_features_1_1_turtle_changer.html#a3b50b8860e9334a1401fe4fe609b7181" target="_top" xlink:title="frontend.ConcreteFeatures.\lTurtleChanger.doAction">
<polygon fill="white" stroke="black" points="246,-66 246,-96 394,-96 394,-66 246,-66"/>
<text text-anchor="start" x="254" y="-84" font-family="Helvetica,sans-Serif" font-size="10.00">frontend.ConcreteFeatures.</text>
<text text-anchor="middle" x="320" y="-73" font-family="Helvetica,sans-Serif" font-size="10.00">TurtleChanger.doAction</text>
</a>
</g>
</g>
<!-- Node1&#45;&gt;Node2 -->
<g id="edge1" class="edge"><title>Node1&#45;&gt;Node2</title>
<path fill="none" stroke="midnightblue" d="M198.289,-67.2203C210.815,-68.6501 223.539,-70.1026 235.795,-71.5017"/>
<polygon fill="midnightblue" stroke="midnightblue" points="235.634,-75.0059 245.966,-72.6628 236.428,-68.0511 235.634,-75.0059"/>
</g>
<!-- Node3 -->
<g id="node3" class="node"><title>Node3</title>
<g id="a_node3"><a xlink:href="../../d4/d7e/classturtle_classes_1_1_turtle_collection.html#a61f007615f0fd523dae94957f8022100" target="_top" xlink:title="turtleClasses.TurtleCollection.set\lActiveTurtles">
<polygon fill="white" stroke="black" points="234,-17 234,-47 406,-47 406,-17 234,-17"/>
<text text-anchor="start" x="242" y="-35" font-family="Helvetica,sans-Serif" font-size="10.00">turtleClasses.TurtleCollection.set</text>
<text text-anchor="middle" x="320" y="-24" font-family="Helvetica,sans-Serif" font-size="10.00">ActiveTurtles</text>
</a>
</g>
</g>
<!-- Node1&#45;&gt;Node3 -->
<g id="edge2" class="edge"><title>Node1&#45;&gt;Node3</title>
<path fill="none" stroke="midnightblue" d="M198.289,-45.2286C206.697,-44.3072 215.193,-43.3761 223.578,-42.4572"/>
<polygon fill="midnightblue" stroke="midnightblue" points="224.177,-45.9126 233.736,-41.344 223.414,-38.9543 224.177,-45.9126"/>
</g>
<!-- Node4 -->
<g id="node4" class="node"><title>Node4</title>
<g id="a_node4"><a xlink:href="../../d8/d89/classturtle_classes_1_1_turtle.html#a2d3828dbca854624cc75fca5aa65b4c5" target="_top" xlink:title="turtleClasses.Turtle.set\lActive">
<polygon fill="white" stroke="black" points="447.5,-39 447.5,-69 572.5,-69 572.5,-39 447.5,-39"/>
<text text-anchor="start" x="455.5" y="-57" font-family="Helvetica,sans-Serif" font-size="10.00">turtleClasses.Turtle.set</text>
<text text-anchor="middle" x="510" y="-46" font-family="Helvetica,sans-Serif" font-size="10.00">Active</text>
</a>
</g>
</g>
<!-- Node3&#45;&gt;Node4 -->
<g id="edge3" class="edge"><title>Node3&#45;&gt;Node4</title>
<path fill="none" stroke="midnightblue" d="M406.199,-41.9701C416.619,-43.1894 427.184,-44.4258 437.376,-45.6185"/>
<polygon fill="midnightblue" stroke="midnightblue" points="437.086,-49.1084 447.426,-46.7945 437.9,-42.1558 437.086,-49.1084"/>
</g>
<!-- Node6 -->
<g id="node6" class="node"><title>Node6</title>
<g id="a_node6"><a xlink:href="../../d8/d89/classturtle_classes_1_1_turtle.html#aff48aa8a8ca4bb8a7aa40743a1a944c4" target="_top" xlink:title="turtleClasses.Turtle.getID">
<polygon fill="white" stroke="black" points="442,-0.5 442,-19.5 578,-19.5 578,-0.5 442,-0.5"/>
<text text-anchor="middle" x="510" y="-7.5" font-family="Helvetica,sans-Serif" font-size="10.00">turtleClasses.Turtle.getID</text>
</a>
</g>
</g>
<!-- Node3&#45;&gt;Node6 -->
<g id="edge5" class="edge"><title>Node3&#45;&gt;Node6</title>
<path fill="none" stroke="midnightblue" d="M406.199,-22.0299C414.695,-21.0357 423.287,-20.0303 431.695,-19.0463"/>
<polygon fill="midnightblue" stroke="midnightblue" points="432.316,-22.4977 441.841,-17.859 431.502,-15.5451 432.316,-22.4977"/>
</g>
<!-- Node5 -->
<g id="node5" class="node"><title>Node5</title>
<g id="a_node5"><a xlink:href="../../d8/d89/classturtle_classes_1_1_turtle.html#abd769212afc56f042db3d4b5ee33790e" target="_top" xlink:title="turtleClasses.Turtle.handle\lActiveOutline">
<polygon fill="white" stroke="black" points="614.5,-39 614.5,-69 757.5,-69 757.5,-39 614.5,-39"/>
<text text-anchor="start" x="622.5" y="-57" font-family="Helvetica,sans-Serif" font-size="10.00">turtleClasses.Turtle.handle</text>
<text text-anchor="middle" x="686" y="-46" font-family="Helvetica,sans-Serif" font-size="10.00">ActiveOutline</text>
</a>
</g>
</g>
<!-- Node4&#45;&gt;Node5 -->
<g id="edge4" class="edge"><title>Node4&#45;&gt;Node5</title>
<path fill="none" stroke="midnightblue" d="M572.836,-54C583.051,-54 593.773,-54 604.368,-54"/>
<polygon fill="midnightblue" stroke="midnightblue" points="604.467,-57.5001 614.467,-54 604.467,-50.5001 604.467,-57.5001"/>
</g>
</g>
</svg>
