<?xml version="1.0" encoding="UTF-8" standalone="no"?>
<!DOCTYPE svg PUBLIC "-//W3C//DTD SVG 1.1//EN"
 "http://www.w3.org/Graphics/SVG/1.1/DTD/svg11.dtd">
<!-- Generated by graphviz version 2.36.0 (20140111.2315)
 -->
<!-- Title: turtleClasses.TurtleKeyHandler Pages: 1 -->
<svg width="1008pt" height="213pt"
 viewBox="0.00 0.00 1008.00 213.00" xmlns="http://www.w3.org/2000/svg" xmlns:xlink="http://www.w3.org/1999/xlink">
<g id="graph0" class="graph" transform="scale(1 1) rotate(0) translate(4 209)">
<title>turtleClasses.TurtleKeyHandler</title>
<polygon fill="white" stroke="none" points="-4,4 -4,-209 1004,-209 1004,4 -4,4"/>
<!-- Node1 -->
<g id="node1" class="node"><title>Node1</title>
<polygon fill="#bfbfbf" stroke="black" points="838.5,-116.5 838.5,-135.5 999.5,-135.5 999.5,-116.5 838.5,-116.5"/>
<text text-anchor="middle" x="919" y="-123.5" font-family="Helvetica,sans-Serif" font-size="10.00">turtleClasses.TurtleKeyHandler</text>
</g>
<!-- Node2 -->
<g id="node2" class="node"><title>Node2</title>
<polygon fill="white" stroke="#bfbfbf" points="572,-175 572,-205 720,-205 720,-175 572,-175"/>
<text text-anchor="start" x="580" y="-193" font-family="Helvetica,sans-Serif" font-size="10.00">javafx::event::EventHandler</text>
<text text-anchor="middle" x="646" y="-182" font-family="Helvetica,sans-Serif" font-size="10.00">&lt; KeyEvent &gt;</text>
</g>
<!-- Node2&#45;&gt;Node1 -->
<g id="edge1" class="edge"><title>Node2&#45;&gt;Node1</title>
<path fill="none" stroke="midnightblue" d="M729.983,-173.275C758.588,-167.238 790.776,-160.144 820,-153 841.772,-147.677 866.06,-140.991 885.011,-135.604"/>
<polygon fill="midnightblue" stroke="midnightblue" points="729.094,-169.885 720.026,-175.364 730.531,-176.736 729.094,-169.885"/>
</g>
<!-- Node3 -->
<g id="node3" class="node"><title>Node3</title>
<g id="a_node3"><a xlink:href="../../df/d0e/classfrontend_1_1_pane_updater.html" target="_top" xlink:title="frontend.PaneUpdater">
<polygon fill="white" stroke="black" points="585,-136.5 585,-155.5 707,-155.5 707,-136.5 585,-136.5"/>
<text text-anchor="middle" x="646" y="-143.5" font-family="Helvetica,sans-Serif" font-size="10.00">frontend.PaneUpdater</text>
</a>
</g>
</g>
<!-- Node3&#45;&gt;Node1 -->
<g id="edge2" class="edge"><title>Node3&#45;&gt;Node1</title>
<path fill="none" stroke="#9a32cd" stroke-dasharray="5,2" d="M717.367,-140.807C754.462,-138.069 800.103,-134.701 838.477,-131.869"/>
<polygon fill="#9a32cd" stroke="#9a32cd" points="716.859,-137.335 707.144,-141.561 717.374,-144.316 716.859,-137.335"/>
<text text-anchor="middle" x="779" y="-141" font-family="Helvetica,sans-Serif" font-size="10.00"> myPaneUpdater</text>
</g>
<!-- Node4 -->
<g id="node4" class="node"><title>Node4</title>
<polygon fill="white" stroke="#bfbfbf" points="270.5,-131 270.5,-161 443.5,-161 443.5,-131 270.5,-131"/>
<text text-anchor="start" x="278.5" y="-149" font-family="Helvetica,sans-Serif" font-size="10.00">List&lt; frontend.AbstractFeatures.</text>
<text text-anchor="middle" x="357" y="-138" font-family="Helvetica,sans-Serif" font-size="10.00">SLogoScrollPane &gt;</text>
</g>
<!-- Node4&#45;&gt;Node3 -->
<g id="edge3" class="edge"><title>Node4&#45;&gt;Node3</title>
<path fill="none" stroke="#9a32cd" stroke-dasharray="5,2" d="M453.978,-146C497.186,-146 546.875,-146 584.742,-146"/>
<polygon fill="#9a32cd" stroke="#9a32cd" points="453.721,-142.5 443.721,-146 453.721,-149.5 453.721,-142.5"/>
<text text-anchor="middle" x="508" y="-149" font-family="Helvetica,sans-Serif" font-size="10.00"> myUpdateables</text>
</g>
<!-- Node5 -->
<g id="node5" class="node"><title>Node5</title>
<polygon fill="white" stroke="#bfbfbf" points="578.5,-98.5 578.5,-117.5 713.5,-117.5 713.5,-98.5 578.5,-98.5"/>
<text text-anchor="middle" x="646" y="-105.5" font-family="Helvetica,sans-Serif" font-size="10.00">Map&lt; KeyCode, String &gt;</text>
</g>
<!-- Node5&#45;&gt;Node1 -->
<g id="edge4" class="edge"><title>Node5&#45;&gt;Node1</title>
<path fill="none" stroke="#9a32cd" stroke-dasharray="5,2" d="M723.66,-107.117C753.743,-107.349 788.537,-108.331 820,-111 834.492,-112.229 850.094,-114.281 864.495,-116.479"/>
<polygon fill="#9a32cd" stroke="#9a32cd" points="723.667,-103.617 713.65,-107.066 723.631,-110.617 723.667,-103.617"/>
<text text-anchor="middle" x="779" y="-114" font-family="Helvetica,sans-Serif" font-size="10.00"> ARROW_KEYS</text>
</g>
<!-- Node6 -->
<g id="node6" class="node"><title>Node6</title>
<g id="a_node6"><a xlink:href="../../d3/d17/classturtle_classes_1_1_turtle_mover.html" target="_top" xlink:title="turtleClasses.TurtleMover">
<polygon fill="white" stroke="black" points="577.5,-60.5 577.5,-79.5 714.5,-79.5 714.5,-60.5 577.5,-60.5"/>
<text text-anchor="middle" x="646" y="-67.5" font-family="Helvetica,sans-Serif" font-size="10.00">turtleClasses.TurtleMover</text>
</a>
</g>
</g>
<!-- Node6&#45;&gt;Node1 -->
<g id="edge5" class="edge"><title>Node6&#45;&gt;Node1</title>
<path fill="none" stroke="#9a32cd" stroke-dasharray="5,2" d="M724.544,-76.3935C754.602,-79.7729 789.146,-84.7687 820,-92 846.125,-98.123 875.037,-108.636 894.642,-116.355"/>
<polygon fill="#9a32cd" stroke="#9a32cd" points="724.853,-72.9065 714.534,-75.3085 724.098,-79.8658 724.853,-72.9065"/>
<text text-anchor="middle" x="779" y="-95" font-family="Helvetica,sans-Serif" font-size="10.00"> myMover</text>
</g>
<!-- Node7 -->
<g id="node7" class="node"><title>Node7</title>
<g id="a_node7"><a xlink:href="../../d4/d7e/classturtle_classes_1_1_turtle_collection.html" target="_top" xlink:title="turtleClasses.TurtleCollection">
<polygon fill="white" stroke="black" points="280,-60.5 280,-79.5 434,-79.5 434,-60.5 280,-60.5"/>
<text text-anchor="middle" x="357" y="-67.5" font-family="Helvetica,sans-Serif" font-size="10.00">turtleClasses.TurtleCollection</text>
</a>
</g>
</g>
<!-- Node7&#45;&gt;Node6 -->
<g id="edge6" class="edge"><title>Node7&#45;&gt;Node6</title>
<path fill="none" stroke="#9a32cd" stroke-dasharray="5,2" d="M444.242,-70C486.858,-70 537.533,-70 577.309,-70"/>
<polygon fill="#9a32cd" stroke="#9a32cd" points="444.157,-66.5001 434.157,-70 444.157,-73.5001 444.157,-66.5001"/>
<text text-anchor="middle" x="508" y="-73" font-family="Helvetica,sans-Serif" font-size="10.00"> myTurtleCollection</text>
</g>
<!-- Node8 -->
<g id="node8" class="node"><title>Node8</title>
<polygon fill="white" stroke="#bfbfbf" points="26.5,-126.5 26.5,-145.5 127.5,-145.5 127.5,-126.5 26.5,-126.5"/>
<text text-anchor="middle" x="77" y="-133.5" font-family="Helvetica,sans-Serif" font-size="10.00">Iterable&lt; Turtle &gt;</text>
</g>
<!-- Node8&#45;&gt;Node7 -->
<g id="edge7" class="edge"><title>Node8&#45;&gt;Node7</title>
<path fill="none" stroke="midnightblue" d="M137.874,-124.792C171.548,-118.193 214.277,-109.328 252,-100 276.809,-93.8648 304.61,-85.7815 325.223,-79.5514"/>
<polygon fill="midnightblue" stroke="midnightblue" points="136.877,-121.42 127.729,-126.765 138.213,-128.291 136.877,-121.42"/>
</g>
<!-- Node9 -->
<g id="node9" class="node"><title>Node9</title>
<polygon fill="white" stroke="#bfbfbf" points="0.5,-77 0.5,-107 153.5,-107 153.5,-77 0.5,-77"/>
<text text-anchor="start" x="8.5" y="-95" font-family="Helvetica,sans-Serif" font-size="10.00">Map&lt; Integer, turtleClasses.</text>
<text text-anchor="middle" x="77" y="-84" font-family="Helvetica,sans-Serif" font-size="10.00">Turtle &gt;</text>
</g>
<!-- Node9&#45;&gt;Node7 -->
<g id="edge8" class="edge"><title>Node9&#45;&gt;Node7</title>
<path fill="none" stroke="#9a32cd" stroke-dasharray="5,2" d="M163.891,-85.2029C200.983,-82.2676 244.013,-78.8623 279.935,-76.0195"/>
<polygon fill="#9a32cd" stroke="#9a32cd" points="163.29,-81.7394 153.598,-86.0175 163.842,-88.7176 163.29,-81.7394"/>
<text text-anchor="middle" x="212" y="-88" font-family="Helvetica,sans-Serif" font-size="10.00"> myTurtles</text>
</g>
<!-- Node10 -->
<g id="node10" class="node"><title>Node10</title>
<polygon fill="white" stroke="#bfbfbf" points="4,-38.5 4,-57.5 150,-57.5 150,-38.5 4,-38.5"/>
<text text-anchor="middle" x="77" y="-45.5" font-family="Helvetica,sans-Serif" font-size="10.00">List&lt; turtleClasses.Turtle &gt;</text>
</g>
<!-- Node10&#45;&gt;Node7 -->
<g id="edge9" class="edge"><title>Node10&#45;&gt;Node7</title>
<path fill="none" stroke="#9a32cd" stroke-dasharray="5,2" d="M160.76,-54.5493C198.454,-57.5324 242.787,-61.0407 279.672,-63.9596"/>
<polygon fill="#9a32cd" stroke="#9a32cd" points="160.56,-51.0227 150.316,-53.7228 160.008,-58.0009 160.56,-51.0227"/>
<text text-anchor="middle" x="212" y="-65" font-family="Helvetica,sans-Serif" font-size="10.00"> myActiveTurtles</text>
</g>
<!-- Node11 -->
<g id="node11" class="node"><title>Node11</title>
<polygon fill="white" stroke="#bfbfbf" points="51,-0.5 51,-19.5 103,-19.5 103,-0.5 51,-0.5"/>
<text text-anchor="middle" x="77" y="-7.5" font-family="Helvetica,sans-Serif" font-size="10.00">Canvas</text>
</g>
<!-- Node11&#45;&gt;Node7 -->
<g id="edge10" class="edge"><title>Node11&#45;&gt;Node7</title>
<path fill="none" stroke="#9a32cd" stroke-dasharray="5,2" d="M113.494,-15.3041C148.798,-20.8189 204.419,-30.1536 252,-41 276.672,-46.6241 304.244,-54.3812 324.797,-60.4576"/>
<polygon fill="#9a32cd" stroke="#9a32cd" points="113.638,-11.7849 103.22,-13.7178 112.569,-18.7029 113.638,-11.7849"/>
<text text-anchor="middle" x="212" y="-44" font-family="Helvetica,sans-Serif" font-size="10.00"> myCanvas</text>
</g>
</g>
</svg>
