<?xml version="1.0" encoding="UTF-8" standalone="no"?>
<!DOCTYPE svg PUBLIC "-//W3C//DTD SVG 1.1//EN"
 "http://www.w3.org/Graphics/SVG/1.1/DTD/svg11.dtd">
<!-- Generated by graphviz version 2.36.0 (20140111.2315)
 -->
<!-- Title: displayCommands.ClearObjects Pages: 1 -->
<svg width="363pt" height="196pt"
 viewBox="0.00 0.00 363.00 196.00" xmlns="http://www.w3.org/2000/svg" xmlns:xlink="http://www.w3.org/1999/xlink">
<g id="graph0" class="graph" transform="scale(1 1) rotate(0) translate(4 192)">
<title>displayCommands.ClearObjects</title>
<polygon fill="white" stroke="none" points="-4,4 -4,-192 359,-192 359,4 -4,4"/>
<!-- Node1 -->
<g id="node1" class="node"><title>Node1</title>
<polygon fill="#bfbfbf" stroke="black" points="91.5,-56.5 91.5,-75.5 260.5,-75.5 260.5,-56.5 91.5,-56.5"/>
<text text-anchor="middle" x="176" y="-63.5" font-family="Helvetica,sans-Serif" font-size="10.00">displayCommands.ClearObjects</text>
</g>
<!-- Node4 -->
<g id="node4" class="node"><title>Node4</title>
<g id="a_node4"><a xlink:href="../../d6/dc6/classdisplay_commands_1_1_clear_screen.html" target="_top" xlink:title="displayCommands.ClearScreen">
<polygon fill="white" stroke="black" points="-0.5,-0.5 -0.5,-19.5 166.5,-19.5 166.5,-0.5 -0.5,-0.5"/>
<text text-anchor="middle" x="83" y="-7.5" font-family="Helvetica,sans-Serif" font-size="10.00">displayCommands.ClearScreen</text>
</a>
</g>
</g>
<!-- Node1&#45;&gt;Node4 -->
<g id="edge3" class="edge"><title>Node1&#45;&gt;Node4</title>
<path fill="none" stroke="midnightblue" d="M152.194,-51.1774C135.081,-41.2407 112.535,-28.1492 97.905,-19.6545"/>
<polygon fill="midnightblue" stroke="midnightblue" points="150.653,-54.3293 161.058,-56.324 154.168,-48.2758 150.653,-54.3293"/>
</g>
<!-- Node5 -->
<g id="node5" class="node"><title>Node5</title>
<g id="a_node5"><a xlink:href="../../dc/d6d/classdisplay_commands_1_1_clear_stamps.html" target="_top" xlink:title="displayCommands.ClearStamps">
<polygon fill="white" stroke="black" points="185,-0.5 185,-19.5 355,-19.5 355,-0.5 185,-0.5"/>
<text text-anchor="middle" x="270" y="-7.5" font-family="Helvetica,sans-Serif" font-size="10.00">displayCommands.ClearStamps</text>
</a>
</g>
</g>
<!-- Node1&#45;&gt;Node5 -->
<g id="edge4" class="edge"><title>Node1&#45;&gt;Node5</title>
<path fill="none" stroke="midnightblue" d="M200.062,-51.1774C217.359,-41.2407 240.148,-28.1492 254.935,-19.6545"/>
<polygon fill="midnightblue" stroke="midnightblue" points="198.03,-48.3078 191.103,-56.324 201.517,-54.3775 198.03,-48.3078"/>
</g>
<!-- Node2 -->
<g id="node2" class="node"><title>Node2</title>
<g id="a_node2"><a xlink:href="../../d6/d49/classdisplay_commands_1_1_display_node.html" target="_top" xlink:title="displayCommands.DisplayNode">
<polygon fill="white" stroke="black" points="92,-112.5 92,-131.5 260,-131.5 260,-112.5 92,-112.5"/>
<text text-anchor="middle" x="176" y="-119.5" font-family="Helvetica,sans-Serif" font-size="10.00">displayCommands.DisplayNode</text>
</a>
</g>
</g>
<!-- Node2&#45;&gt;Node1 -->
<g id="edge1" class="edge"><title>Node2&#45;&gt;Node1</title>
<path fill="none" stroke="midnightblue" d="M176,-101.805C176,-92.9102 176,-82.7798 176,-75.7511"/>
<polygon fill="midnightblue" stroke="midnightblue" points="172.5,-102.083 176,-112.083 179.5,-102.083 172.5,-102.083"/>
</g>
<!-- Node3 -->
<g id="node3" class="node"><title>Node3</title>
<g id="a_node3"><a xlink:href="../../db/da5/classexpression_tree_1_1_expression_node.html" target="_top" xlink:title="expressionTree.ExpressionNode">
<polygon fill="white" stroke="black" points="92,-168.5 92,-187.5 260,-187.5 260,-168.5 92,-168.5"/>
<text text-anchor="middle" x="176" y="-175.5" font-family="Helvetica,sans-Serif" font-size="10.00">expressionTree.ExpressionNode</text>
</a>
</g>
</g>
<!-- Node3&#45;&gt;Node2 -->
<g id="edge2" class="edge"><title>Node3&#45;&gt;Node2</title>
<path fill="none" stroke="midnightblue" d="M176,-157.805C176,-148.91 176,-138.78 176,-131.751"/>
<polygon fill="midnightblue" stroke="midnightblue" points="172.5,-158.083 176,-168.083 179.5,-158.083 172.5,-158.083"/>
</g>
</g>
</svg>
