<?xml version="1.0" encoding="UTF-8" standalone="no"?>
<!DOCTYPE svg PUBLIC "-//W3C//DTD SVG 1.1//EN"
 "http://www.w3.org/Graphics/SVG/1.1/DTD/svg11.dtd">
<!-- Generated by graphviz version 2.36.0 (20140111.2315)
 -->
<!-- Title: displayCommands.ClearObjects Pages: 1 -->
<svg width="235pt" height="226pt"
 viewBox="0.00 0.00 235.00 226.00" xmlns="http://www.w3.org/2000/svg" xmlns:xlink="http://www.w3.org/1999/xlink">
<g id="graph0" class="graph" transform="scale(1 1) rotate(0) translate(4 222)">
<title>displayCommands.ClearObjects</title>
<polygon fill="white" stroke="none" points="-4,4 -4,-222 231,-222 231,4 -4,4"/>
<!-- Node1 -->
<g id="node1" class="node"><title>Node1</title>
<polygon fill="#bfbfbf" stroke="black" points="0.5,-0.5 0.5,-19.5 169.5,-19.5 169.5,-0.5 0.5,-0.5"/>
<text text-anchor="middle" x="85" y="-7.5" font-family="Helvetica,sans-Serif" font-size="10.00">displayCommands.ClearObjects</text>
</g>
<!-- Node2 -->
<g id="node2" class="node"><title>Node2</title>
<g id="a_node2"><a xlink:href="../../d6/d49/classdisplay_commands_1_1_display_node.html" target="_top" xlink:title="displayCommands.DisplayNode">
<polygon fill="white" stroke="black" points="1,-58.5 1,-77.5 169,-77.5 169,-58.5 1,-58.5"/>
<text text-anchor="middle" x="85" y="-65.5" font-family="Helvetica,sans-Serif" font-size="10.00">displayCommands.DisplayNode</text>
</a>
</g>
</g>
<!-- Node2&#45;&gt;Node1 -->
<g id="edge1" class="edge"><title>Node2&#45;&gt;Node1</title>
<path fill="none" stroke="midnightblue" d="M85,-47.953C85,-38.2875 85,-27.0312 85,-19.5052"/>
<polygon fill="midnightblue" stroke="midnightblue" points="81.5001,-48.25 85,-58.25 88.5001,-48.25 81.5001,-48.25"/>
</g>
<!-- Node3 -->
<g id="node3" class="node"><title>Node3</title>
<g id="a_node3"><a xlink:href="../../db/da5/classexpression_tree_1_1_expression_node.html" target="_top" xlink:title="expressionTree.ExpressionNode">
<polygon fill="white" stroke="black" points="1,-117.5 1,-136.5 169,-136.5 169,-117.5 1,-117.5"/>
<text text-anchor="middle" x="85" y="-124.5" font-family="Helvetica,sans-Serif" font-size="10.00">expressionTree.ExpressionNode</text>
</a>
</g>
</g>
<!-- Node3&#45;&gt;Node2 -->
<g id="edge2" class="edge"><title>Node3&#45;&gt;Node2</title>
<path fill="none" stroke="midnightblue" d="M85,-106.933C85,-97.0243 85,-85.4007 85,-77.6571"/>
<polygon fill="midnightblue" stroke="midnightblue" points="81.5001,-107.094 85,-117.094 88.5001,-107.094 81.5001,-107.094"/>
</g>
<!-- Node3&#45;&gt;Node3 -->
<g id="edge4" class="edge"><title>Node3&#45;&gt;Node3</title>
<path fill="none" stroke="#9a32cd" stroke-dasharray="5,2" d="M179.372,-130.469C183.558,-129.584 186,-128.428 186,-127 186,-124.656 179.424,-123.045 169.356,-122.166"/>
<polygon fill="#9a32cd" stroke="#9a32cd" points="178.791,-127.015 169.356,-131.834 179.737,-133.951 178.791,-127.015"/>
<text text-anchor="middle" x="206" y="-130" font-family="Helvetica,sans-Serif" font-size="10.00"> myLeft</text>
<text text-anchor="middle" x="206" y="-119" font-family="Helvetica,sans-Serif" font-size="10.00">myRight</text>
</g>
<!-- Node4 -->
<g id="node4" class="node"><title>Node4</title>
<polygon fill="white" stroke="#bfbfbf" points="0,-187 0,-217 170,-217 170,-187 0,-187"/>
<text text-anchor="start" x="8" y="-205" font-family="Helvetica,sans-Serif" font-size="10.00">List&lt; displayCommands.Display</text>
<text text-anchor="middle" x="85" y="-194" font-family="Helvetica,sans-Serif" font-size="10.00">Node &gt;</text>
</g>
<!-- Node4&#45;&gt;Node3 -->
<g id="edge3" class="edge"><title>Node4&#45;&gt;Node3</title>
<path fill="none" stroke="#9a32cd" stroke-dasharray="5,2" d="M85,-176.574C85,-162.751 85,-146.325 85,-136.553"/>
<polygon fill="#9a32cd" stroke="#9a32cd" points="81.5001,-176.925 85,-186.925 88.5001,-176.925 81.5001,-176.925"/>
<text text-anchor="middle" x="120" y="-159.5" font-family="Helvetica,sans-Serif" font-size="10.00"> instructionList</text>
</g>
</g>
</svg>
