<?xml version="1.0" encoding="UTF-8" standalone="no"?>
<!DOCTYPE svg PUBLIC "-//W3C//DTD SVG 1.1//EN"
 "http://www.w3.org/Graphics/SVG/1.1/DTD/svg11.dtd">
<!-- Generated by graphviz version 2.36.0 (20140111.2315)
 -->
<!-- Title: frontend.ConcreteFeatures.TurtleChanger Pages: 1 -->
<svg width="322pt" height="244pt"
 viewBox="0.00 0.00 322.00 244.00" xmlns="http://www.w3.org/2000/svg" xmlns:xlink="http://www.w3.org/1999/xlink">
<g id="graph0" class="graph" transform="scale(1 1) rotate(0) translate(4 240)">
<title>frontend.ConcreteFeatures.TurtleChanger</title>
<polygon fill="white" stroke="none" points="-4,4 -4,-240 318,-240 318,4 -4,4"/>
<!-- Node1 -->
<g id="node1" class="node"><title>Node1</title>
<polygon fill="#bfbfbf" stroke="black" points="83,-69 83,-99 231,-99 231,-69 83,-69"/>
<text text-anchor="start" x="91" y="-87" font-family="Helvetica,sans-Serif" font-size="10.00">frontend.ConcreteFeatures.</text>
<text text-anchor="middle" x="157" y="-76" font-family="Helvetica,sans-Serif" font-size="10.00">TurtleChanger</text>
</g>
<!-- Node4 -->
<g id="node4" class="node"><title>Node4</title>
<g id="a_node4"><a xlink:href="../../dc/d0b/classfrontend_1_1_concrete_features_1_1_choose_image.html" target="_top" xlink:title="frontend.ConcreteFeatures.\lChooseImage">
<polygon fill="white" stroke="black" points="0,-1 0,-31 148,-31 148,-1 0,-1"/>
<text text-anchor="start" x="8" y="-19" font-family="Helvetica,sans-Serif" font-size="10.00">frontend.ConcreteFeatures.</text>
<text text-anchor="middle" x="74" y="-8" font-family="Helvetica,sans-Serif" font-size="10.00">ChooseImage</text>
</a>
</g>
</g>
<!-- Node1&#45;&gt;Node4 -->
<g id="edge3" class="edge"><title>Node1&#45;&gt;Node4</title>
<path fill="none" stroke="midnightblue" d="M130.98,-62.3094C118.194,-52.1426 103.121,-40.1562 91.6895,-31.0663"/>
<polygon fill="midnightblue" stroke="midnightblue" points="128.985,-65.1945 138.99,-68.679 133.342,-59.7155 128.985,-65.1945"/>
</g>
<!-- Node5 -->
<g id="node5" class="node"><title>Node5</title>
<g id="a_node5"><a xlink:href="../../db/d1c/classfrontend_1_1_concrete_features_1_1_choose_line_style.html" target="_top" xlink:title="frontend.ConcreteFeatures.\lChooseLineStyle">
<polygon fill="white" stroke="black" points="166,-1 166,-31 314,-31 314,-1 166,-1"/>
<text text-anchor="start" x="174" y="-19" font-family="Helvetica,sans-Serif" font-size="10.00">frontend.ConcreteFeatures.</text>
<text text-anchor="middle" x="240" y="-8" font-family="Helvetica,sans-Serif" font-size="10.00">ChooseLineStyle</text>
</a>
</g>
</g>
<!-- Node1&#45;&gt;Node5 -->
<g id="edge4" class="edge"><title>Node1&#45;&gt;Node5</title>
<path fill="none" stroke="midnightblue" d="M183.02,-62.3094C195.806,-52.1426 210.879,-40.1562 222.311,-31.0663"/>
<polygon fill="midnightblue" stroke="midnightblue" points="180.658,-59.7155 175.01,-68.679 185.015,-65.1945 180.658,-59.7155"/>
</g>
<!-- Node2 -->
<g id="node2" class="node"><title>Node2</title>
<g id="a_node2"><a xlink:href="../../d1/de3/classfrontend_1_1_abstract_features_1_1_s_logo_drop_down.html" target="_top" xlink:title="frontend.AbstractFeatures.\lSLogoDropDown">
<polygon fill="white" stroke="black" points="84.5,-137 84.5,-167 229.5,-167 229.5,-137 84.5,-137"/>
<text text-anchor="start" x="92.5" y="-155" font-family="Helvetica,sans-Serif" font-size="10.00">frontend.AbstractFeatures.</text>
<text text-anchor="middle" x="157" y="-144" font-family="Helvetica,sans-Serif" font-size="10.00">SLogoDropDown</text>
</a>
</g>
</g>
<!-- Node2&#45;&gt;Node1 -->
<g id="edge1" class="edge"><title>Node2&#45;&gt;Node1</title>
<path fill="none" stroke="midnightblue" d="M157,-126.532C157,-117.361 157,-107.245 157,-99.2931"/>
<polygon fill="midnightblue" stroke="midnightblue" points="153.5,-126.679 157,-136.679 160.5,-126.679 153.5,-126.679"/>
</g>
<!-- Node3 -->
<g id="node3" class="node"><title>Node3</title>
<g id="a_node3"><a xlink:href="../../dc/db4/classfrontend_1_1_abstract_features_1_1_g_u_i_feature.html" target="_top" xlink:title="frontend.AbstractFeatures.\lGUIFeature">
<polygon fill="white" stroke="black" points="84.5,-205 84.5,-235 229.5,-235 229.5,-205 84.5,-205"/>
<text text-anchor="start" x="92.5" y="-223" font-family="Helvetica,sans-Serif" font-size="10.00">frontend.AbstractFeatures.</text>
<text text-anchor="middle" x="157" y="-212" font-family="Helvetica,sans-Serif" font-size="10.00">GUIFeature</text>
</a>
</g>
</g>
<!-- Node3&#45;&gt;Node2 -->
<g id="edge2" class="edge"><title>Node3&#45;&gt;Node2</title>
<path fill="none" stroke="midnightblue" d="M157,-194.532C157,-185.361 157,-175.245 157,-167.293"/>
<polygon fill="midnightblue" stroke="midnightblue" points="153.5,-194.679 157,-204.679 160.5,-194.679 153.5,-194.679"/>
</g>
</g>
</svg>
