<?xml version="1.0" encoding="UTF-8" standalone="no"?>
<!DOCTYPE svg PUBLIC "-//W3C//DTD SVG 1.1//EN"
 "http://www.w3.org/Graphics/SVG/1.1/DTD/svg11.dtd">
<!-- Generated by graphviz version 2.36.0 (20140111.2315)
 -->
<!-- Title: displayCommands.SetBackground.doAction Pages: 1 -->
<svg width="416pt" height="87pt"
 viewBox="0.00 0.00 416.00 87.00" xmlns="http://www.w3.org/2000/svg" xmlns:xlink="http://www.w3.org/1999/xlink">
<g id="graph0" class="graph" transform="scale(1 1) rotate(0) translate(4 83)">
<title>displayCommands.SetBackground.doAction</title>
<polygon fill="white" stroke="none" points="-4,4 -4,-83 412,-83 412,4 -4,4"/>
<!-- Node1 -->
<g id="node1" class="node"><title>Node1</title>
<polygon fill="#bfbfbf" stroke="black" points="0.5,-24 0.5,-54 197.5,-54 197.5,-24 0.5,-24"/>
<text text-anchor="start" x="8.5" y="-42" font-family="Helvetica,sans-Serif" font-size="10.00">displayCommands.SetBackground.do</text>
<text text-anchor="middle" x="99" y="-31" font-family="Helvetica,sans-Serif" font-size="10.00">Action</text>
</g>
<!-- Node2 -->
<g id="node2" class="node"><title>Node2</title>
<g id="a_node2"><a xlink:href="../../d1/d07/classfrontend_1_1_s_logo_canvas.html#aebc97a1a0bb2222ced6cb22354bcb9f4" target="_top" xlink:title="frontend.SLogoCanvas.change\lBackground">
<polygon fill="white" stroke="black" points="239,-49 239,-79 403,-79 403,-49 239,-49"/>
<text text-anchor="start" x="247" y="-67" font-family="Helvetica,sans-Serif" font-size="10.00">frontend.SLogoCanvas.change</text>
<text text-anchor="middle" x="321" y="-56" font-family="Helvetica,sans-Serif" font-size="10.00">Background</text>
</a>
</g>
</g>
<!-- Node1&#45;&gt;Node2 -->
<g id="edge1" class="edge"><title>Node1&#45;&gt;Node2</title>
<path fill="none" stroke="midnightblue" d="M197.776,-50.111C208.105,-51.2846 218.579,-52.4748 228.828,-53.6395"/>
<polygon fill="midnightblue" stroke="midnightblue" points="228.657,-57.1425 238.988,-54.7941 229.447,-50.1873 228.657,-57.1425"/>
</g>
<!-- Node3 -->
<g id="node3" class="node"><title>Node3</title>
<g id="a_node3"><a xlink:href="../../d4/d7e/classturtle_classes_1_1_turtle_collection.html#a8b89821e45d78b1168249c798c3c5756" target="_top" xlink:title="turtleClasses.TurtleCollection.get\lCanvas">
<polygon fill="white" stroke="black" points="234.5,-0 234.5,-30 407.5,-30 407.5,-0 234.5,-0"/>
<text text-anchor="start" x="242.5" y="-18" font-family="Helvetica,sans-Serif" font-size="10.00">turtleClasses.TurtleCollection.get</text>
<text text-anchor="middle" x="321" y="-7" font-family="Helvetica,sans-Serif" font-size="10.00">Canvas</text>
</a>
</g>
</g>
<!-- Node1&#45;&gt;Node3 -->
<g id="edge2" class="edge"><title>Node1&#45;&gt;Node3</title>
<path fill="none" stroke="midnightblue" d="M197.776,-28.3335C206.52,-27.3797 215.367,-26.4145 224.094,-25.4624"/>
<polygon fill="midnightblue" stroke="midnightblue" points="224.709,-28.9162 234.27,-24.3523 223.95,-21.9575 224.709,-28.9162"/>
</g>
</g>
</svg>
