<?xml version="1.0" encoding="UTF-8" standalone="no"?>
<!DOCTYPE svg PUBLIC "-//W3C//DTD SVG 1.1//EN"
 "http://www.w3.org/Graphics/SVG/1.1/DTD/svg11.dtd">
<!-- Generated by graphviz version 2.36.0 (20140111.2315)
 -->
<!-- Title: expressionTree.ExpressionNode.setChildren Pages: 1 -->
<svg width="544pt" height="38pt"
 viewBox="0.00 0.00 544.00 38.00" xmlns="http://www.w3.org/2000/svg" xmlns:xlink="http://www.w3.org/1999/xlink">
<g id="graph0" class="graph" transform="scale(1 1) rotate(0) translate(4 34)">
<title>expressionTree.ExpressionNode.setChildren</title>
<polygon fill="white" stroke="none" points="-4,4 -4,-34 540,-34 540,4 -4,4"/>
<!-- Node1 -->
<g id="node1" class="node"><title>Node1</title>
<polygon fill="#bfbfbf" stroke="black" points="0.5,-0 0.5,-30 143.5,-30 143.5,-0 0.5,-0"/>
<text text-anchor="start" x="8.5" y="-18" font-family="Helvetica,sans-Serif" font-size="10.00">expressionTree.Expression</text>
<text text-anchor="middle" x="72" y="-7" font-family="Helvetica,sans-Serif" font-size="10.00">Node.setChildren</text>
</g>
<!-- Node2 -->
<g id="node2" class="node"><title>Node2</title>
<g id="a_node2"><a xlink:href="../../d3/dfb/classexpression_tree_1_1_expression_tree_builder.html#ad720a1e94a9d9256422a4492358c5dba" target="_top" xlink:title="expressionTree.Expression\lTreeBuilder.getTree">
<polygon fill="white" stroke="black" points="180.5,-0 180.5,-30 323.5,-30 323.5,-0 180.5,-0"/>
<text text-anchor="start" x="188.5" y="-18" font-family="Helvetica,sans-Serif" font-size="10.00">expressionTree.Expression</text>
<text text-anchor="middle" x="252" y="-7" font-family="Helvetica,sans-Serif" font-size="10.00">TreeBuilder.getTree</text>
</a>
</g>
</g>
<!-- Node1&#45;&gt;Node2 -->
<g id="edge1" class="edge"><title>Node1&#45;&gt;Node2</title>
<path fill="none" stroke="midnightblue" d="M153.646,-15C162.599,-15 171.666,-15 180.479,-15"/>
<polygon fill="midnightblue" stroke="midnightblue" points="153.606,-11.5001 143.606,-15 153.606,-18.5001 153.606,-11.5001"/>
</g>
<!-- Node3 -->
<g id="node3" class="node"><title>Node3</title>
<g id="a_node3"><a xlink:href="../../d3/dfb/classexpression_tree_1_1_expression_tree_builder.html#ab3c3bc68ab96d1cd026bc68a7b329f92" target="_top" xlink:title="expressionTree.Expression\lTreeBuilder.ExpressionTreeBuilder">
<polygon fill="white" stroke="black" points="360,-0 360,-30 536,-30 536,-0 360,-0"/>
<text text-anchor="start" x="368" y="-18" font-family="Helvetica,sans-Serif" font-size="10.00">expressionTree.Expression</text>
<text text-anchor="middle" x="448" y="-7" font-family="Helvetica,sans-Serif" font-size="10.00">TreeBuilder.ExpressionTreeBuilder</text>
</a>
</g>
</g>
<!-- Node2&#45;&gt;Node3 -->
<g id="edge2" class="edge"><title>Node2&#45;&gt;Node3</title>
<path fill="none" stroke="midnightblue" d="M333.668,-15C342.34,-15 351.191,-15 359.934,-15"/>
<polygon fill="midnightblue" stroke="midnightblue" points="333.587,-11.5001 323.587,-15 333.587,-18.5001 333.587,-11.5001"/>
</g>
</g>
</svg>
