<?xml version="1.0" encoding="UTF-8" standalone="no"?>
<!DOCTYPE svg PUBLIC "-//W3C//DTD SVG 1.1//EN"
 "http://www.w3.org/Graphics/SVG/1.1/DTD/svg11.dtd">
<!-- Generated by graphviz version 2.36.0 (20140111.2315)
 -->
<!-- Title: expressionTree.ExpressionNode.getRight Pages: 1 -->
<svg width="574pt" height="669pt"
 viewBox="0.00 0.00 574.00 669.00" xmlns="http://www.w3.org/2000/svg" xmlns:xlink="http://www.w3.org/1999/xlink">
<g id="graph0" class="graph" transform="scale(1 1) rotate(0) translate(4 665)">
<title>expressionTree.ExpressionNode.getRight</title>
<polygon fill="white" stroke="none" points="-4,4 -4,-665 570,-665 570,4 -4,4"/>
<!-- Node1 -->
<g id="node1" class="node"><title>Node1</title>
<polygon fill="#bfbfbf" stroke="black" points="0.5,-332 0.5,-362 143.5,-362 143.5,-332 0.5,-332"/>
<text text-anchor="start" x="8.5" y="-350" font-family="Helvetica,sans-Serif" font-size="10.00">expressionTree.Expression</text>
<text text-anchor="middle" x="72" y="-339" font-family="Helvetica,sans-Serif" font-size="10.00">Node.getRight</text>
</g>
<!-- Node2 -->
<g id="node2" class="node"><title>Node2</title>
<g id="a_node2"><a xlink:href="../../da/d56/classmath_operations_1_1_sum.html#ad619a3b249dbf2b3a3ac289844131f80" target="_top" xlink:title="mathOperations.Sum.evaluate">
<polygon fill="white" stroke="black" points="194,-641.5 194,-660.5 358,-660.5 358,-641.5 194,-641.5"/>
<text text-anchor="middle" x="276" y="-648.5" font-family="Helvetica,sans-Serif" font-size="10.00">mathOperations.Sum.evaluate</text>
</a>
</g>
</g>
<!-- Node1&#45;&gt;Node2 -->
<g id="edge1" class="edge"><title>Node1&#45;&gt;Node2</title>
<path fill="none" stroke="midnightblue" d="M74.5818,-372.382C79.5199,-428.522 99.5884,-563.647 180,-632 184.485,-635.813 189.52,-638.938 194.87,-641.493"/>
<polygon fill="midnightblue" stroke="midnightblue" points="78.0583,-371.944 73.7826,-362.25 71.0799,-372.494 78.0583,-371.944"/>
</g>
<!-- Node3 -->
<g id="node3" class="node"><title>Node3</title>
<g id="a_node3"><a xlink:href="../../d4/d95/classcomparators_1_1_and.html#aae73d9a1c6d3d171fd29d7af92de9dbb" target="_top" xlink:title="comparators.And.evaluate">
<polygon fill="white" stroke="black" points="204,-603.5 204,-622.5 348,-622.5 348,-603.5 204,-603.5"/>
<text text-anchor="middle" x="276" y="-610.5" font-family="Helvetica,sans-Serif" font-size="10.00">comparators.And.evaluate</text>
</a>
</g>
</g>
<!-- Node1&#45;&gt;Node3 -->
<g id="edge2" class="edge"><title>Node1&#45;&gt;Node3</title>
<path fill="none" stroke="midnightblue" d="M76.1802,-372.131C83.9752,-422.64 108.889,-536.531 180,-594 186.933,-599.603 195.068,-603.701 203.609,-606.676"/>
<polygon fill="midnightblue" stroke="midnightblue" points="79.6228,-371.481 74.7294,-362.084 72.6946,-372.482 79.6228,-371.481"/>
</g>
<!-- Node4 -->
<g id="node4" class="node"><title>Node4</title>
<g id="a_node4"><a xlink:href="../../dd/d1a/classcomparators_1_1_equal.html#a68bd135e42307e1ea27d1a618a601b11" target="_top" xlink:title="comparators.Equal.evaluate">
<polygon fill="white" stroke="black" points="200,-565.5 200,-584.5 352,-584.5 352,-565.5 200,-565.5"/>
<text text-anchor="middle" x="276" y="-572.5" font-family="Helvetica,sans-Serif" font-size="10.00">comparators.Equal.evaluate</text>
</a>
</g>
</g>
<!-- Node1&#45;&gt;Node4 -->
<g id="edge3" class="edge"><title>Node1&#45;&gt;Node4</title>
<path fill="none" stroke="midnightblue" d="M78.2983,-371.979C89.1136,-416.484 118.126,-509.206 180,-556 185.903,-560.464 192.583,-563.955 199.599,-566.675"/>
<polygon fill="midnightblue" stroke="midnightblue" points="81.6544,-370.958 75.986,-362.007 74.8353,-372.539 81.6544,-370.958"/>
</g>
<!-- Node5 -->
<g id="node5" class="node"><title>Node5</title>
<g id="a_node5"><a xlink:href="../../de/dad/classcomparators_1_1_not_equal.html#a01f665356e0e91db7b96116ea6ce45d8" target="_top" xlink:title="comparators.NotEqual.evaluate">
<polygon fill="white" stroke="black" points="191.5,-527.5 191.5,-546.5 360.5,-546.5 360.5,-527.5 191.5,-527.5"/>
<text text-anchor="middle" x="276" y="-534.5" font-family="Helvetica,sans-Serif" font-size="10.00">comparators.NotEqual.evaluate</text>
</a>
</g>
</g>
<!-- Node1&#45;&gt;Node5 -->
<g id="edge4" class="edge"><title>Node1&#45;&gt;Node5</title>
<path fill="none" stroke="midnightblue" d="M81.3199,-372.015C95.3165,-409.992 127.325,-481.611 180,-518 185.535,-521.824 191.66,-524.917 198.056,-527.414"/>
<polygon fill="midnightblue" stroke="midnightblue" points="84.4966,-370.502 77.8476,-362.253 77.9014,-372.848 84.4966,-370.502"/>
</g>
<!-- Node6 -->
<g id="node6" class="node"><title>Node6</title>
<g id="a_node6"><a xlink:href="../../da/d72/classcomparators_1_1_greater_than.html#a28d1ad6771b015bcdf4d63db675fcddf" target="_top" xlink:title="comparators.GreaterThan.evaluate">
<polygon fill="white" stroke="black" points="183.5,-489.5 183.5,-508.5 368.5,-508.5 368.5,-489.5 183.5,-489.5"/>
<text text-anchor="middle" x="276" y="-496.5" font-family="Helvetica,sans-Serif" font-size="10.00">comparators.GreaterThan.evaluate</text>
</a>
</g>
</g>
<!-- Node1&#45;&gt;Node6 -->
<g id="edge5" class="edge"><title>Node1&#45;&gt;Node6</title>
<path fill="none" stroke="midnightblue" d="M85.5529,-371.358C102.616,-401.868 136.105,-453.367 180,-480 186.327,-483.839 193.286,-486.919 200.472,-489.389"/>
<polygon fill="midnightblue" stroke="midnightblue" points="88.4504,-369.36 80.5976,-362.247 82.3011,-372.704 88.4504,-369.36"/>
</g>
<!-- Node7 -->
<g id="node7" class="node"><title>Node7</title>
<g id="a_node7"><a xlink:href="../../d7/da3/classcomparators_1_1_or.html#a3d02d515a2988e53e88009029638b83d" target="_top" xlink:title="comparators.Or.evaluate">
<polygon fill="white" stroke="black" points="208,-451.5 208,-470.5 344,-470.5 344,-451.5 208,-451.5"/>
<text text-anchor="middle" x="276" y="-458.5" font-family="Helvetica,sans-Serif" font-size="10.00">comparators.Or.evaluate</text>
</a>
</g>
</g>
<!-- Node1&#45;&gt;Node7 -->
<g id="edge6" class="edge"><title>Node1&#45;&gt;Node7</title>
<path fill="none" stroke="midnightblue" d="M92.0571,-369.828C111.753,-391.846 144.544,-424.357 180,-442 188.659,-446.309 198.22,-449.64 207.843,-452.216"/>
<polygon fill="midnightblue" stroke="midnightblue" points="94.6328,-367.456 85.4126,-362.237 89.3657,-372.067 94.6328,-367.456"/>
</g>
<!-- Node8 -->
<g id="node8" class="node"><title>Node8</title>
<g id="a_node8"><a xlink:href="../../df/d35/classmath_operations_1_1_difference.html#abdafd222ba7c6a36adcb729d5922dd15" target="_top" xlink:title="mathOperations.Difference.evaluate">
<polygon fill="white" stroke="black" points="180.5,-413.5 180.5,-432.5 371.5,-432.5 371.5,-413.5 180.5,-413.5"/>
<text text-anchor="middle" x="276" y="-420.5" font-family="Helvetica,sans-Serif" font-size="10.00">mathOperations.Difference.evaluate</text>
</a>
</g>
</g>
<!-- Node1&#45;&gt;Node8 -->
<g id="edge7" class="edge"><title>Node1&#45;&gt;Node8</title>
<path fill="none" stroke="midnightblue" d="M105.389,-367.467C126.039,-379.691 153.759,-394.616 180,-404 190.69,-407.823 202.348,-410.951 213.719,-413.484"/>
<polygon fill="midnightblue" stroke="midnightblue" points="107.087,-364.404 96.7143,-362.245 103.476,-370.401 107.087,-364.404"/>
</g>
<!-- Node9 -->
<g id="node9" class="node"><title>Node9</title>
<g id="a_node9"><a xlink:href="../../d0/d5d/classmath_operations_1_1_quotient.html#aca070b0b78b061915ea959ce8c1494e1" target="_top" xlink:title="mathOperations.Quotient.evaluate">
<polygon fill="white" stroke="black" points="184.5,-375.5 184.5,-394.5 367.5,-394.5 367.5,-375.5 184.5,-375.5"/>
<text text-anchor="middle" x="276" y="-382.5" font-family="Helvetica,sans-Serif" font-size="10.00">mathOperations.Quotient.evaluate</text>
</a>
</g>
</g>
<!-- Node1&#45;&gt;Node9 -->
<g id="edge8" class="edge"><title>Node1&#45;&gt;Node9</title>
<path fill="none" stroke="midnightblue" d="M153.762,-362.193C177.621,-366.681 203.05,-371.465 224.426,-375.486"/>
<polygon fill="midnightblue" stroke="midnightblue" points="154.125,-358.7 143.65,-360.291 152.83,-365.579 154.125,-358.7"/>
</g>
<!-- Node10 -->
<g id="node10" class="node"><title>Node10</title>
<g id="a_node10"><a xlink:href="../../d3/d94/classmath_operations_1_1_product.html#a3e86689d47ade1e2b5581d8f357021c9" target="_top" xlink:title="mathOperations.Product.evaluate">
<polygon fill="white" stroke="black" points="186.5,-337.5 186.5,-356.5 365.5,-356.5 365.5,-337.5 186.5,-337.5"/>
<text text-anchor="middle" x="276" y="-344.5" font-family="Helvetica,sans-Serif" font-size="10.00">mathOperations.Product.evaluate</text>
</a>
</g>
</g>
<!-- Node1&#45;&gt;Node10 -->
<g id="edge9" class="edge"><title>Node1&#45;&gt;Node10</title>
<path fill="none" stroke="midnightblue" d="M153.781,-347C164.466,-347 175.466,-347 186.276,-347"/>
<polygon fill="midnightblue" stroke="midnightblue" points="153.65,-343.5 143.65,-347 153.65,-350.5 153.65,-343.5"/>
</g>
<!-- Node11 -->
<g id="node11" class="node"><title>Node11</title>
<g id="a_node11"><a xlink:href="../../d5/d53/classmath_operations_1_1_remainder.html#ade1dc877bde6c9793c1906c665403c98" target="_top" xlink:title="mathOperations.Remainder.evaluate">
<polygon fill="white" stroke="black" points="180,-299.5 180,-318.5 372,-318.5 372,-299.5 180,-299.5"/>
<text text-anchor="middle" x="276" y="-306.5" font-family="Helvetica,sans-Serif" font-size="10.00">mathOperations.Remainder.evaluate</text>
</a>
</g>
</g>
<!-- Node1&#45;&gt;Node11 -->
<g id="edge10" class="edge"><title>Node1&#45;&gt;Node11</title>
<path fill="none" stroke="midnightblue" d="M153.762,-331.807C177.621,-327.319 203.05,-322.535 224.426,-318.514"/>
<polygon fill="midnightblue" stroke="midnightblue" points="152.83,-328.421 143.65,-333.709 154.125,-335.3 152.83,-328.421"/>
</g>
<!-- Node12 -->
<g id="node12" class="node"><title>Node12</title>
<g id="a_node12"><a xlink:href="../../d6/d0f/classcomparators_1_1_less_than.html#a1b3c366286ee4049d82e5fa9659c44dc" target="_top" xlink:title="comparators.LessThan.evaluate">
<polygon fill="white" stroke="black" points="191,-261.5 191,-280.5 361,-280.5 361,-261.5 191,-261.5"/>
<text text-anchor="middle" x="276" y="-268.5" font-family="Helvetica,sans-Serif" font-size="10.00">comparators.LessThan.evaluate</text>
</a>
</g>
</g>
<!-- Node1&#45;&gt;Node12 -->
<g id="edge11" class="edge"><title>Node1&#45;&gt;Node12</title>
<path fill="none" stroke="midnightblue" d="M105.389,-326.533C126.039,-314.309 153.759,-299.384 180,-290 190.69,-286.177 202.348,-283.049 213.719,-280.516"/>
<polygon fill="midnightblue" stroke="midnightblue" points="103.476,-323.599 96.7143,-331.755 107.087,-329.596 103.476,-323.599"/>
</g>
<!-- Node13 -->
<g id="node13" class="node"><title>Node13</title>
<g id="a_node13"><a xlink:href="../../d2/dc5/classmath_operations_1_1_power.html#a9090644e267c6b6ad7bd2291803f63be" target="_top" xlink:title="mathOperations.Power.evaluate">
<polygon fill="white" stroke="black" points="191,-223.5 191,-242.5 361,-242.5 361,-223.5 191,-223.5"/>
<text text-anchor="middle" x="276" y="-230.5" font-family="Helvetica,sans-Serif" font-size="10.00">mathOperations.Power.evaluate</text>
</a>
</g>
</g>
<!-- Node1&#45;&gt;Node13 -->
<g id="edge12" class="edge"><title>Node1&#45;&gt;Node13</title>
<path fill="none" stroke="midnightblue" d="M92.0571,-324.172C111.753,-302.154 144.544,-269.643 180,-252 187.83,-248.104 196.399,-245.006 205.084,-242.544"/>
<polygon fill="midnightblue" stroke="midnightblue" points="89.3657,-321.933 85.4126,-331.763 94.6328,-326.544 89.3657,-321.933"/>
</g>
<!-- Node14 -->
<g id="node14" class="node"><title>Node14</title>
<g id="a_node14"><a xlink:href="../../d7/da3/classcontrol_structures_1_1_do_times.html#abf029aa5c71912cd587351a983327056" target="_top" xlink:title="controlStructures.DoTimes.evaluate">
<polygon fill="white" stroke="black" points="181.5,-185.5 181.5,-204.5 370.5,-204.5 370.5,-185.5 181.5,-185.5"/>
<text text-anchor="middle" x="276" y="-192.5" font-family="Helvetica,sans-Serif" font-size="10.00">controlStructures.DoTimes.evaluate</text>
</a>
</g>
</g>
<!-- Node1&#45;&gt;Node14 -->
<g id="edge13" class="edge"><title>Node1&#45;&gt;Node14</title>
<path fill="none" stroke="midnightblue" d="M85.5529,-322.642C102.616,-292.132 136.105,-240.633 180,-214 186.327,-210.161 193.286,-207.081 200.472,-204.611"/>
<polygon fill="midnightblue" stroke="midnightblue" points="82.3011,-321.296 80.5976,-331.753 88.4504,-324.64 82.3011,-321.296"/>
</g>
<!-- Node15 -->
<g id="node15" class="node"><title>Node15</title>
<g id="a_node15"><a xlink:href="../../d3/db4/classcontrol_structures_1_1_repeat.html#a7262839bb56d1c1d5b78033bbe7d55c0" target="_top" xlink:title="controlStructures.Repeat.evaluate">
<polygon fill="white" stroke="black" points="186,-147.5 186,-166.5 366,-166.5 366,-147.5 186,-147.5"/>
<text text-anchor="middle" x="276" y="-154.5" font-family="Helvetica,sans-Serif" font-size="10.00">controlStructures.Repeat.evaluate</text>
</a>
</g>
</g>
<!-- Node1&#45;&gt;Node15 -->
<g id="edge14" class="edge"><title>Node1&#45;&gt;Node15</title>
<path fill="none" stroke="midnightblue" d="M81.3199,-321.985C95.3165,-284.008 127.325,-212.389 180,-176 185.535,-172.176 191.66,-169.083 198.056,-166.586"/>
<polygon fill="midnightblue" stroke="midnightblue" points="77.9014,-321.152 77.8476,-331.747 84.4966,-323.498 77.9014,-321.152"/>
</g>
<!-- Node16 -->
<g id="node16" class="node"><title>Node16</title>
<g id="a_node16"><a xlink:href="../../d7/da3/classcontrol_structures_1_1_do_times.html#a535784ce7dfb7fe3b953d96769740470" target="_top" xlink:title="controlStructures.DoTimes.make\lInstructionList">
<polygon fill="white" stroke="black" points="188.5,-98 188.5,-128 363.5,-128 363.5,-98 188.5,-98"/>
<text text-anchor="start" x="196.5" y="-116" font-family="Helvetica,sans-Serif" font-size="10.00">controlStructures.DoTimes.make</text>
<text text-anchor="middle" x="276" y="-105" font-family="Helvetica,sans-Serif" font-size="10.00">InstructionList</text>
</a>
</g>
</g>
<!-- Node1&#45;&gt;Node16 -->
<g id="edge15" class="edge"><title>Node1&#45;&gt;Node16</title>
<path fill="none" stroke="midnightblue" d="M78.6631,-322.062C89.9918,-278.011 119.702,-186.509 180,-138 184.784,-134.151 190.101,-130.891 195.706,-128.129"/>
<polygon fill="midnightblue" stroke="midnightblue" points="75.2234,-321.393 76.229,-331.94 82.02,-323.068 75.2234,-321.393"/>
</g>
<!-- Node17 -->
<g id="node17" class="node"><title>Node17</title>
<g id="a_node17"><a xlink:href="../../d3/db4/classcontrol_structures_1_1_repeat.html#ac23df78844cddd03bac4ed1c349eba2a" target="_top" xlink:title="controlStructures.Repeat.make\lInstructionList">
<polygon fill="white" stroke="black" points="193,-49 193,-79 359,-79 359,-49 193,-49"/>
<text text-anchor="start" x="201" y="-67" font-family="Helvetica,sans-Serif" font-size="10.00">controlStructures.Repeat.make</text>
<text text-anchor="middle" x="276" y="-56" font-family="Helvetica,sans-Serif" font-size="10.00">InstructionList</text>
</a>
</g>
</g>
<!-- Node1&#45;&gt;Node17 -->
<g id="edge16" class="edge"><title>Node1&#45;&gt;Node17</title>
<path fill="none" stroke="midnightblue" d="M76.0163,-321.837C83.5802,-270.156 108.199,-151.656 180,-89 184.369,-85.1875 189.253,-81.9467 194.439,-79.193"/>
<polygon fill="midnightblue" stroke="midnightblue" points="72.5402,-321.424 74.6503,-331.807 79.4754,-322.375 72.5402,-321.424"/>
</g>
<!-- Node18 -->
<g id="node18" class="node"><title>Node18</title>
<g id="a_node18"><a xlink:href="../../db/da5/classexpression_tree_1_1_expression_node.html#a784cb7e13acef3676fd7170ffe456432" target="_top" xlink:title="expressionTree.Expression\lNode.makeInstructionList">
<polygon fill="white" stroke="black" points="204.5,-0 204.5,-30 347.5,-30 347.5,-0 204.5,-0"/>
<text text-anchor="start" x="212.5" y="-18" font-family="Helvetica,sans-Serif" font-size="10.00">expressionTree.Expression</text>
<text text-anchor="middle" x="276" y="-7" font-family="Helvetica,sans-Serif" font-size="10.00">Node.makeInstructionList</text>
</a>
</g>
</g>
<!-- Node1&#45;&gt;Node18 -->
<g id="edge17" class="edge"><title>Node1&#45;&gt;Node18</title>
<path fill="none" stroke="midnightblue" d="M74.13,-321.693C78.1551,-263.097 96.4973,-117.227 180,-40 187.012,-33.5153 195.502,-28.6714 204.487,-25.0607"/>
<polygon fill="midnightblue" stroke="midnightblue" points="70.6233,-321.701 73.5165,-331.893 77.6106,-322.121 70.6233,-321.701"/>
</g>
<!-- Node19 -->
<g id="node19" class="node"><title>Node19</title>
<g id="a_node19"><a xlink:href="../../d3/d06/classcontrol_structures_1_1_if_else.html#a9645552ea12e9008be136c28244bd9a4" target="_top" xlink:title="controlStructures.IfElse.make\lInstructionList">
<polygon fill="white" stroke="black" points="408,-0 408,-30 566,-30 566,-0 408,-0"/>
<text text-anchor="start" x="416" y="-18" font-family="Helvetica,sans-Serif" font-size="10.00">controlStructures.IfElse.make</text>
<text text-anchor="middle" x="487" y="-7" font-family="Helvetica,sans-Serif" font-size="10.00">InstructionList</text>
</a>
</g>
</g>
<!-- Node18&#45;&gt;Node19 -->
<g id="edge18" class="edge"><title>Node18&#45;&gt;Node19</title>
<path fill="none" stroke="midnightblue" d="M357.848,-15C374.248,-15 391.469,-15 407.777,-15"/>
<polygon fill="midnightblue" stroke="midnightblue" points="357.758,-11.5001 347.758,-15 357.758,-18.5001 357.758,-11.5001"/>
</g>
</g>
</svg>
