<?xml version="1.0" encoding="UTF-8" standalone="no"?>
<!DOCTYPE svg PUBLIC "-//W3C//DTD SVG 1.1//EN"
 "http://www.w3.org/Graphics/SVG/1.1/DTD/svg11.dtd">
<!-- Generated by graphviz version 2.36.0 (20140111.2315)
 -->
<!-- Title: expressionTree.ExpressionNode.setRight Pages: 1 -->
<svg width="726pt" height="87pt"
 viewBox="0.00 0.00 726.00 87.00" xmlns="http://www.w3.org/2000/svg" xmlns:xlink="http://www.w3.org/1999/xlink">
<g id="graph0" class="graph" transform="scale(1 1) rotate(0) translate(4 83)">
<title>expressionTree.ExpressionNode.setRight</title>
<polygon fill="white" stroke="none" points="-4,4 -4,-83 722,-83 722,4 -4,4"/>
<!-- Node1 -->
<g id="node1" class="node"><title>Node1</title>
<polygon fill="#bfbfbf" stroke="black" points="0.5,-24 0.5,-54 143.5,-54 143.5,-24 0.5,-24"/>
<text text-anchor="start" x="8.5" y="-42" font-family="Helvetica,sans-Serif" font-size="10.00">expressionTree.Expression</text>
<text text-anchor="middle" x="72" y="-31" font-family="Helvetica,sans-Serif" font-size="10.00">Node.setRight</text>
</g>
<!-- Node2 -->
<g id="node2" class="node"><title>Node2</title>
<g id="a_node2"><a xlink:href="../../d3/d06/classcontrol_structures_1_1_if_else.html#a37e102d701f7dbb7e7b725ac8e6a723f" target="_top" xlink:title="controlStructures.IfElse.set\lChildren">
<polygon fill="white" stroke="black" points="180,-49 180,-79 326,-79 326,-49 180,-49"/>
<text text-anchor="start" x="188" y="-67" font-family="Helvetica,sans-Serif" font-size="10.00">controlStructures.IfElse.set</text>
<text text-anchor="middle" x="253" y="-56" font-family="Helvetica,sans-Serif" font-size="10.00">Children</text>
</a>
</g>
</g>
<!-- Node1&#45;&gt;Node2 -->
<g id="edge1" class="edge"><title>Node1&#45;&gt;Node2</title>
<path fill="none" stroke="midnightblue" d="M153.811,-50.2865C162.445,-51.4923 171.188,-52.7134 179.714,-53.9042"/>
<polygon fill="midnightblue" stroke="midnightblue" points="154.134,-46.7976 143.746,-48.8807 153.165,-53.7303 154.134,-46.7976"/>
</g>
<!-- Node3 -->
<g id="node3" class="node"><title>Node3</title>
<g id="a_node3"><a xlink:href="../../db/da5/classexpression_tree_1_1_expression_node.html#abeb93d13a54bef927167b01aabcec922" target="_top" xlink:title="expressionTree.Expression\lNode.setChildren">
<polygon fill="white" stroke="black" points="181.5,-0 181.5,-30 324.5,-30 324.5,-0 181.5,-0"/>
<text text-anchor="start" x="189.5" y="-18" font-family="Helvetica,sans-Serif" font-size="10.00">expressionTree.Expression</text>
<text text-anchor="middle" x="253" y="-7" font-family="Helvetica,sans-Serif" font-size="10.00">Node.setChildren</text>
</a>
</g>
</g>
<!-- Node1&#45;&gt;Node3 -->
<g id="edge2" class="edge"><title>Node1&#45;&gt;Node3</title>
<path fill="none" stroke="midnightblue" d="M153.723,-28.1768C162.981,-26.9355 172.366,-25.6772 181.475,-24.4558"/>
<polygon fill="midnightblue" stroke="midnightblue" points="153.192,-24.7166 143.746,-29.5146 154.122,-31.6545 153.192,-24.7166"/>
</g>
<!-- Node4 -->
<g id="node4" class="node"><title>Node4</title>
<g id="a_node4"><a xlink:href="../../d3/dfb/classexpression_tree_1_1_expression_tree_builder.html#ad720a1e94a9d9256422a4492358c5dba" target="_top" xlink:title="expressionTree.Expression\lTreeBuilder.getTree">
<polygon fill="white" stroke="black" points="362.5,-0 362.5,-30 505.5,-30 505.5,-0 362.5,-0"/>
<text text-anchor="start" x="370.5" y="-18" font-family="Helvetica,sans-Serif" font-size="10.00">expressionTree.Expression</text>
<text text-anchor="middle" x="434" y="-7" font-family="Helvetica,sans-Serif" font-size="10.00">TreeBuilder.getTree</text>
</a>
</g>
</g>
<!-- Node3&#45;&gt;Node4 -->
<g id="edge3" class="edge"><title>Node3&#45;&gt;Node4</title>
<path fill="none" stroke="midnightblue" d="M335.018,-15C344.181,-15 353.463,-15 362.475,-15"/>
<polygon fill="midnightblue" stroke="midnightblue" points="334.746,-11.5001 324.746,-15 334.746,-18.5001 334.746,-11.5001"/>
</g>
<!-- Node5 -->
<g id="node5" class="node"><title>Node5</title>
<g id="a_node5"><a xlink:href="../../d3/dfb/classexpression_tree_1_1_expression_tree_builder.html#ab3c3bc68ab96d1cd026bc68a7b329f92" target="_top" xlink:title="expressionTree.Expression\lTreeBuilder.ExpressionTreeBuilder">
<polygon fill="white" stroke="black" points="542,-0 542,-30 718,-30 718,-0 542,-0"/>
<text text-anchor="start" x="550" y="-18" font-family="Helvetica,sans-Serif" font-size="10.00">expressionTree.Expression</text>
<text text-anchor="middle" x="630" y="-7" font-family="Helvetica,sans-Serif" font-size="10.00">TreeBuilder.ExpressionTreeBuilder</text>
</a>
</g>
</g>
<!-- Node4&#45;&gt;Node5 -->
<g id="edge4" class="edge"><title>Node4&#45;&gt;Node5</title>
<path fill="none" stroke="midnightblue" d="M515.668,-15C524.34,-15 533.191,-15 541.934,-15"/>
<polygon fill="midnightblue" stroke="midnightblue" points="515.587,-11.5001 505.587,-15 515.587,-18.5001 515.587,-11.5001"/>
</g>
</g>
</svg>
