<?xml version="1.0" encoding="UTF-8" standalone="no"?>
<!DOCTYPE svg PUBLIC "-//W3C//DTD SVG 1.1//EN"
 "http://www.w3.org/Graphics/SVG/1.1/DTD/svg11.dtd">
<!-- Generated by graphviz version 2.36.0 (20140111.2315)
 -->
<!-- Title: expressionTree.ExpressionNode.getValue Pages: 1 -->
<svg width="378pt" height="66pt"
 viewBox="0.00 0.00 378.00 66.00" xmlns="http://www.w3.org/2000/svg" xmlns:xlink="http://www.w3.org/1999/xlink">
<g id="graph0" class="graph" transform="scale(1 1) rotate(0) translate(4 62)">
<title>expressionTree.ExpressionNode.getValue</title>
<polygon fill="white" stroke="none" points="-4,4 -4,-62 374,-62 374,4 -4,4"/>
<!-- Node1 -->
<g id="node1" class="node"><title>Node1</title>
<polygon fill="#bfbfbf" stroke="black" points="0.5,-14 0.5,-44 143.5,-44 143.5,-14 0.5,-14"/>
<text text-anchor="start" x="8.5" y="-32" font-family="Helvetica,sans-Serif" font-size="10.00">expressionTree.Expression</text>
<text text-anchor="middle" x="72" y="-21" font-family="Helvetica,sans-Serif" font-size="10.00">Node.getValue</text>
</g>
<!-- Node2 -->
<g id="node2" class="node"><title>Node2</title>
<g id="a_node2"><a xlink:href="../../d0/d12/classdisplay_commands_1_1_ask_with.html#a289dd1788ad6c9d4ffee88deaa98cb1f" target="_top" xlink:title="displayCommands.AskWith.evaluate">
<polygon fill="white" stroke="black" points="180,-38.5 180,-57.5 370,-57.5 370,-38.5 180,-38.5"/>
<text text-anchor="middle" x="275" y="-45.5" font-family="Helvetica,sans-Serif" font-size="10.00">displayCommands.AskWith.evaluate</text>
</a>
</g>
</g>
<!-- Node1&#45;&gt;Node2 -->
<g id="edge1" class="edge"><title>Node1&#45;&gt;Node2</title>
<path fill="none" stroke="midnightblue" d="M153.635,-36.6222C162.292,-37.4406 171.155,-38.2783 179.951,-39.1098"/>
<polygon fill="midnightblue" stroke="midnightblue" points="153.867,-33.1287 143.582,-35.672 153.209,-40.0976 153.867,-33.1287"/>
</g>
<!-- Node3 -->
<g id="node3" class="node"><title>Node3</title>
<g id="a_node3"><a xlink:href="../../dc/d9a/classdisplay_commands_1_1_ask.html#ad7725f77c582751b73c3e0a54dc60400" target="_top" xlink:title="displayCommands.Ask.evaluate">
<polygon fill="white" stroke="black" points="190,-0.5 190,-19.5 360,-19.5 360,-0.5 190,-0.5"/>
<text text-anchor="middle" x="275" y="-7.5" font-family="Helvetica,sans-Serif" font-size="10.00">displayCommands.Ask.evaluate</text>
</a>
</g>
</g>
<!-- Node1&#45;&gt;Node3 -->
<g id="edge2" class="edge"><title>Node1&#45;&gt;Node3</title>
<path fill="none" stroke="midnightblue" d="M153.863,-21.3562C165.692,-20.238 177.899,-19.0842 189.793,-17.9599"/>
<polygon fill="midnightblue" stroke="midnightblue" points="153.209,-17.9024 143.582,-22.328 153.867,-24.8713 153.209,-17.9024"/>
</g>
</g>
</svg>
