<?xml version="1.0" encoding="UTF-8" standalone="no"?>
<!DOCTYPE svg PUBLIC "-//W3C//DTD SVG 1.1//EN"
 "http://www.w3.org/Graphics/SVG/1.1/DTD/svg11.dtd">
<!-- Generated by graphviz version 2.36.0 (20140111.2315)
 -->
<!-- Title: expressionTree.ExpressionNode.getLeft Pages: 1 -->
<svg width="592pt" height="1011pt"
 viewBox="0.00 0.00 592.00 1011.00" xmlns="http://www.w3.org/2000/svg" xmlns:xlink="http://www.w3.org/1999/xlink">
<g id="graph0" class="graph" transform="scale(1 1) rotate(0) translate(4 1007)">
<title>expressionTree.ExpressionNode.getLeft</title>
<polygon fill="white" stroke="none" points="-4,4 -4,-1007 588,-1007 588,4 -4,4"/>
<!-- Node1 -->
<g id="node1" class="node"><title>Node1</title>
<polygon fill="#bfbfbf" stroke="black" points="0.5,-503 0.5,-533 143.5,-533 143.5,-503 0.5,-503"/>
<text text-anchor="start" x="8.5" y="-521" font-family="Helvetica,sans-Serif" font-size="10.00">expressionTree.Expression</text>
<text text-anchor="middle" x="72" y="-510" font-family="Helvetica,sans-Serif" font-size="10.00">Node.getLeft</text>
</g>
<!-- Node2 -->
<g id="node2" class="node"><title>Node2</title>
<g id="a_node2"><a xlink:href="../../d0/dd5/classcomparators_1_1_not.html#ae1843eab5f16a526cbdb78a1596e9e3d" target="_top" xlink:title="comparators.Not.evaluate">
<polygon fill="white" stroke="black" points="213.5,-983.5 213.5,-1002.5 356.5,-1002.5 356.5,-983.5 213.5,-983.5"/>
<text text-anchor="middle" x="285" y="-990.5" font-family="Helvetica,sans-Serif" font-size="10.00">comparators.Not.evaluate</text>
</a>
</g>
</g>
<!-- Node1&#45;&gt;Node2 -->
<g id="edge1" class="edge"><title>Node1&#45;&gt;Node2</title>
<path fill="none" stroke="midnightblue" d="M75.3306,-543.183C83.8667,-629.792 116.3,-913.395 180,-974 189.175,-982.73 200.96,-988.134 213.28,-991.371"/>
<polygon fill="midnightblue" stroke="midnightblue" points="78.8102,-542.802 74.3659,-533.185 71.8426,-543.475 78.8102,-542.802"/>
</g>
<!-- Node3 -->
<g id="node3" class="node"><title>Node3</title>
<g id="a_node3"><a xlink:href="../../da/d56/classmath_operations_1_1_sum.html#ad619a3b249dbf2b3a3ac289844131f80" target="_top" xlink:title="mathOperations.Sum.evaluate">
<polygon fill="white" stroke="black" points="203,-945.5 203,-964.5 367,-964.5 367,-945.5 203,-945.5"/>
<text text-anchor="middle" x="285" y="-952.5" font-family="Helvetica,sans-Serif" font-size="10.00">mathOperations.Sum.evaluate</text>
</a>
</g>
</g>
<!-- Node1&#45;&gt;Node3 -->
<g id="edge2" class="edge"><title>Node1&#45;&gt;Node3</title>
<path fill="none" stroke="midnightblue" d="M75.9089,-543.216C85.8698,-625.074 121.275,-881.243 180,-936 186.578,-942.133 194.448,-946.615 202.874,-949.852"/>
<polygon fill="midnightblue" stroke="midnightblue" points="79.3833,-542.793 74.7213,-533.279 72.4328,-543.624 79.3833,-542.793"/>
</g>
<!-- Node4 -->
<g id="node4" class="node"><title>Node4</title>
<g id="a_node4"><a xlink:href="../../d4/d95/classcomparators_1_1_and.html#aae73d9a1c6d3d171fd29d7af92de9dbb" target="_top" xlink:title="comparators.And.evaluate">
<polygon fill="white" stroke="black" points="213,-907.5 213,-926.5 357,-926.5 357,-907.5 213,-907.5"/>
<text text-anchor="middle" x="285" y="-914.5" font-family="Helvetica,sans-Serif" font-size="10.00">comparators.And.evaluate</text>
</a>
</g>
</g>
<!-- Node1&#45;&gt;Node4 -->
<g id="edge3" class="edge"><title>Node1&#45;&gt;Node4</title>
<path fill="none" stroke="midnightblue" d="M76.6236,-543.407C88.1279,-620.436 126.26,-849.077 180,-898 189.161,-906.34 200.722,-911.603 212.78,-914.832"/>
<polygon fill="midnightblue" stroke="midnightblue" points="80.0377,-542.566 75.1208,-533.182 73.1121,-543.584 80.0377,-542.566"/>
</g>
<!-- Node5 -->
<g id="node5" class="node"><title>Node5</title>
<g id="a_node5"><a xlink:href="../../df/d35/classmath_operations_1_1_difference.html#abdafd222ba7c6a36adcb729d5922dd15" target="_top" xlink:title="mathOperations.Difference.evaluate">
<polygon fill="white" stroke="black" points="189.5,-869.5 189.5,-888.5 380.5,-888.5 380.5,-869.5 189.5,-869.5"/>
<text text-anchor="middle" x="285" y="-876.5" font-family="Helvetica,sans-Serif" font-size="10.00">mathOperations.Difference.evaluate</text>
</a>
</g>
</g>
<!-- Node1&#45;&gt;Node5 -->
<g id="edge4" class="edge"><title>Node1&#45;&gt;Node5</title>
<path fill="none" stroke="midnightblue" d="M72.676,-543.524C73.3536,-607.506 84.6015,-775.628 180,-860 184.125,-863.648 188.711,-866.702 193.594,-869.251"/>
<polygon fill="midnightblue" stroke="midnightblue" points="76.1753,-543.158 72.6523,-533.166 69.1753,-543.174 76.1753,-543.158"/>
</g>
<!-- Node6 -->
<g id="node6" class="node"><title>Node6</title>
<g id="a_node6"><a xlink:href="../../d0/d97/classmath_operations_1_1_minus.html#ad7ac410f3fbc6f98e5281fd54a53a32a" target="_top" xlink:title="mathOperations.Minus.evaluate">
<polygon fill="white" stroke="black" points="200,-831.5 200,-850.5 370,-850.5 370,-831.5 200,-831.5"/>
<text text-anchor="middle" x="285" y="-838.5" font-family="Helvetica,sans-Serif" font-size="10.00">mathOperations.Minus.evaluate</text>
</a>
</g>
</g>
<!-- Node1&#45;&gt;Node6 -->
<g id="edge5" class="edge"><title>Node1&#45;&gt;Node6</title>
<path fill="none" stroke="midnightblue" d="M73.8233,-543.505C77.1946,-602.477 94.2407,-748.803 180,-822 185.863,-827.005 192.602,-830.878 199.771,-833.858"/>
<polygon fill="midnightblue" stroke="midnightblue" points="77.3057,-543.053 73.3272,-533.234 70.3138,-543.391 77.3057,-543.053"/>
</g>
<!-- Node7 -->
<g id="node7" class="node"><title>Node7</title>
<g id="a_node7"><a xlink:href="../../dd/d1a/classcomparators_1_1_equal.html#a68bd135e42307e1ea27d1a618a601b11" target="_top" xlink:title="comparators.Equal.evaluate">
<polygon fill="white" stroke="black" points="209,-793.5 209,-812.5 361,-812.5 361,-793.5 209,-793.5"/>
<text text-anchor="middle" x="285" y="-800.5" font-family="Helvetica,sans-Serif" font-size="10.00">comparators.Equal.evaluate</text>
</a>
</g>
</g>
<!-- Node1&#45;&gt;Node7 -->
<g id="edge6" class="edge"><title>Node1&#45;&gt;Node7</title>
<path fill="none" stroke="midnightblue" d="M75.2427,-543.285C81.4233,-596.806 103.696,-721.723 180,-784 188.39,-790.847 198.436,-795.548 208.93,-798.727"/>
<polygon fill="midnightblue" stroke="midnightblue" points="78.7172,-542.859 74.182,-533.284 71.7563,-543.597 78.7172,-542.859"/>
</g>
<!-- Node8 -->
<g id="node8" class="node"><title>Node8</title>
<g id="a_node8"><a xlink:href="../../d0/d5d/classmath_operations_1_1_quotient.html#aca070b0b78b061915ea959ce8c1494e1" target="_top" xlink:title="mathOperations.Quotient.evaluate">
<polygon fill="white" stroke="black" points="193.5,-755.5 193.5,-774.5 376.5,-774.5 376.5,-755.5 193.5,-755.5"/>
<text text-anchor="middle" x="285" y="-762.5" font-family="Helvetica,sans-Serif" font-size="10.00">mathOperations.Quotient.evaluate</text>
</a>
</g>
</g>
<!-- Node1&#45;&gt;Node8 -->
<g id="edge7" class="edge"><title>Node1&#45;&gt;Node8</title>
<path fill="none" stroke="midnightblue" d="M77.1087,-543.295C86.287,-591.098 113.155,-694.511 180,-746 184.871,-749.752 190.248,-752.848 195.916,-755.394"/>
<polygon fill="midnightblue" stroke="midnightblue" points="80.5039,-542.402 75.2753,-533.187 73.6163,-543.652 80.5039,-542.402"/>
</g>
<!-- Node9 -->
<g id="node9" class="node"><title>Node9</title>
<g id="a_node9"><a xlink:href="../../da/d72/classcomparators_1_1_greater_than.html#a28d1ad6771b015bcdf4d63db675fcddf" target="_top" xlink:title="comparators.GreaterThan.evaluate">
<polygon fill="white" stroke="black" points="192.5,-717.5 192.5,-736.5 377.5,-736.5 377.5,-717.5 192.5,-717.5"/>
<text text-anchor="middle" x="285" y="-724.5" font-family="Helvetica,sans-Serif" font-size="10.00">comparators.GreaterThan.evaluate</text>
</a>
</g>
</g>
<!-- Node1&#45;&gt;Node9 -->
<g id="edge8" class="edge"><title>Node1&#45;&gt;Node9</title>
<path fill="none" stroke="midnightblue" d="M79.526,-542.877C91.7653,-584.287 122.292,-666.862 180,-708 185.306,-711.782 191.14,-714.881 197.254,-717.413"/>
<polygon fill="midnightblue" stroke="midnightblue" points="82.8356,-541.718 76.7396,-533.053 76.1012,-543.628 82.8356,-541.718"/>
</g>
<!-- Node10 -->
<g id="node10" class="node"><title>Node10</title>
<g id="a_node10"><a xlink:href="../../de/dad/classcomparators_1_1_not_equal.html#a01f665356e0e91db7b96116ea6ce45d8" target="_top" xlink:title="comparators.NotEqual.evaluate">
<polygon fill="white" stroke="black" points="200.5,-679.5 200.5,-698.5 369.5,-698.5 369.5,-679.5 200.5,-679.5"/>
<text text-anchor="middle" x="285" y="-686.5" font-family="Helvetica,sans-Serif" font-size="10.00">comparators.NotEqual.evaluate</text>
</a>
</g>
</g>
<!-- Node1&#45;&gt;Node10 -->
<g id="edge9" class="edge"><title>Node1&#45;&gt;Node10</title>
<path fill="none" stroke="midnightblue" d="M82.9325,-542.36C98.3028,-576.753 131.256,-638.821 180,-670 186.262,-674.006 193.146,-677.219 200.298,-679.791"/>
<polygon fill="midnightblue" stroke="midnightblue" points="86.0823,-540.826 78.8965,-533.041 79.6588,-543.608 86.0823,-540.826"/>
</g>
<!-- Node11 -->
<g id="node11" class="node"><title>Node11</title>
<g id="a_node11"><a xlink:href="../../d6/df7/classmath_operations_1_1_tangent.html#af36e41d6aabb972bc921e2a759d00614" target="_top" xlink:title="mathOperations.Tangent.evaluate">
<polygon fill="white" stroke="black" points="195.5,-641.5 195.5,-660.5 374.5,-660.5 374.5,-641.5 195.5,-641.5"/>
<text text-anchor="middle" x="285" y="-648.5" font-family="Helvetica,sans-Serif" font-size="10.00">mathOperations.Tangent.evaluate</text>
</a>
</g>
</g>
<!-- Node1&#45;&gt;Node11 -->
<g id="edge10" class="edge"><title>Node1&#45;&gt;Node11</title>
<path fill="none" stroke="midnightblue" d="M88.0405,-541.413C106.386,-567.901 139.954,-610.181 180,-632 187.092,-635.864 194.818,-638.961 202.751,-641.44"/>
<polygon fill="midnightblue" stroke="midnightblue" points="90.9141,-539.414 82.4153,-533.088 85.114,-543.334 90.9141,-539.414"/>
</g>
<!-- Node12 -->
<g id="node12" class="node"><title>Node12</title>
<g id="a_node12"><a xlink:href="../../d7/da3/classcomparators_1_1_or.html#a3d02d515a2988e53e88009029638b83d" target="_top" xlink:title="comparators.Or.evaluate">
<polygon fill="white" stroke="black" points="217,-603.5 217,-622.5 353,-622.5 353,-603.5 217,-603.5"/>
<text text-anchor="middle" x="285" y="-610.5" font-family="Helvetica,sans-Serif" font-size="10.00">comparators.Or.evaluate</text>
</a>
</g>
</g>
<!-- Node1&#45;&gt;Node12 -->
<g id="edge11" class="edge"><title>Node1&#45;&gt;Node12</title>
<path fill="none" stroke="midnightblue" d="M96.9769,-539.749C117.522,-557.163 148.677,-580.789 180,-594 191.584,-598.886 204.416,-602.518 216.997,-605.217"/>
<polygon fill="midnightblue" stroke="midnightblue" points="99.2346,-537.074 89.3807,-533.181 94.6563,-542.369 99.2346,-537.074"/>
</g>
<!-- Node13 -->
<g id="node13" class="node"><title>Node13</title>
<g id="a_node13"><a xlink:href="../../d3/d45/classmath_operations_1_1_arc_tangent.html#a1d684aab86418efa69ee85075bde7974" target="_top" xlink:title="mathOperations.ArcTangent.evaluate">
<polygon fill="white" stroke="black" points="187.5,-565.5 187.5,-584.5 382.5,-584.5 382.5,-565.5 187.5,-565.5"/>
<text text-anchor="middle" x="285" y="-572.5" font-family="Helvetica,sans-Serif" font-size="10.00">mathOperations.ArcTangent.evaluate</text>
</a>
</g>
</g>
<!-- Node1&#45;&gt;Node13 -->
<g id="edge12" class="edge"><title>Node1&#45;&gt;Node13</title>
<path fill="none" stroke="midnightblue" d="M120.283,-536.635C138.712,-543.41 160.143,-550.697 180,-556 193.654,-559.647 208.504,-562.818 222.594,-565.471"/>
<polygon fill="midnightblue" stroke="midnightblue" points="121.257,-533.263 110.664,-533.047 118.81,-539.822 121.257,-533.263"/>
</g>
<!-- Node14 -->
<g id="node14" class="node"><title>Node14</title>
<g id="a_node14"><a xlink:href="../../d6/d0f/classcomparators_1_1_less_than.html#a1b3c366286ee4049d82e5fa9659c44dc" target="_top" xlink:title="comparators.LessThan.evaluate">
<polygon fill="white" stroke="black" points="200,-527.5 200,-546.5 370,-546.5 370,-527.5 200,-527.5"/>
<text text-anchor="middle" x="285" y="-534.5" font-family="Helvetica,sans-Serif" font-size="10.00">comparators.LessThan.evaluate</text>
</a>
</g>
</g>
<!-- Node1&#45;&gt;Node14 -->
<g id="edge13" class="edge"><title>Node1&#45;&gt;Node14</title>
<path fill="none" stroke="midnightblue" d="M153.876,-525.283C168.974,-526.642 184.785,-528.066 199.975,-529.434"/>
<polygon fill="midnightblue" stroke="midnightblue" points="153.827,-521.764 143.553,-524.353 153.199,-528.736 153.827,-521.764"/>
</g>
<!-- Node15 -->
<g id="node15" class="node"><title>Node15</title>
<g id="a_node15"><a xlink:href="../../d6/dff/classmath_operations_1_1_log.html#a32dcbcbedf7b8bca37e7b47ef1fc1cd2" target="_top" xlink:title="mathOperations.Log.evaluate">
<polygon fill="white" stroke="black" points="205.5,-489.5 205.5,-508.5 364.5,-508.5 364.5,-489.5 205.5,-489.5"/>
<text text-anchor="middle" x="285" y="-496.5" font-family="Helvetica,sans-Serif" font-size="10.00">mathOperations.Log.evaluate</text>
</a>
</g>
</g>
<!-- Node1&#45;&gt;Node15 -->
<g id="edge14" class="edge"><title>Node1&#45;&gt;Node15</title>
<path fill="none" stroke="midnightblue" d="M153.893,-510.716C170.709,-509.202 188.408,-507.608 205.15,-506.1"/>
<polygon fill="midnightblue" stroke="midnightblue" points="153.199,-507.264 143.553,-511.647 153.827,-514.236 153.199,-507.264"/>
</g>
<!-- Node16 -->
<g id="node16" class="node"><title>Node16</title>
<g id="a_node16"><a xlink:href="../../da/d58/classmath_operations_1_1_sine.html#aa418ffe693d2e8b1b89297cb12335973" target="_top" xlink:title="mathOperations.Sine.evaluate">
<polygon fill="white" stroke="black" points="203.5,-451.5 203.5,-470.5 366.5,-470.5 366.5,-451.5 203.5,-451.5"/>
<text text-anchor="middle" x="285" y="-458.5" font-family="Helvetica,sans-Serif" font-size="10.00">mathOperations.Sine.evaluate</text>
</a>
</g>
</g>
<!-- Node1&#45;&gt;Node16 -->
<g id="edge15" class="edge"><title>Node1&#45;&gt;Node16</title>
<path fill="none" stroke="midnightblue" d="M120.283,-499.365C138.712,-492.59 160.143,-485.303 180,-480 193.654,-476.353 208.504,-473.182 222.594,-470.529"/>
<polygon fill="midnightblue" stroke="midnightblue" points="118.81,-496.178 110.664,-502.953 121.257,-502.737 118.81,-496.178"/>
</g>
<!-- Node17 -->
<g id="node17" class="node"><title>Node17</title>
<g id="a_node17"><a xlink:href="../../d3/d94/classmath_operations_1_1_product.html#a3e86689d47ade1e2b5581d8f357021c9" target="_top" xlink:title="mathOperations.Product.evaluate">
<polygon fill="white" stroke="black" points="195.5,-413.5 195.5,-432.5 374.5,-432.5 374.5,-413.5 195.5,-413.5"/>
<text text-anchor="middle" x="285" y="-420.5" font-family="Helvetica,sans-Serif" font-size="10.00">mathOperations.Product.evaluate</text>
</a>
</g>
</g>
<!-- Node1&#45;&gt;Node17 -->
<g id="edge16" class="edge"><title>Node1&#45;&gt;Node17</title>
<path fill="none" stroke="midnightblue" d="M96.9769,-496.251C117.522,-478.837 148.677,-455.211 180,-442 189.217,-438.112 199.223,-435.019 209.264,-432.558"/>
<polygon fill="midnightblue" stroke="midnightblue" points="94.6563,-493.631 89.3807,-502.819 99.2346,-498.926 94.6563,-493.631"/>
</g>
<!-- Node18 -->
<g id="node18" class="node"><title>Node18</title>
<g id="a_node18"><a xlink:href="../../d5/d53/classmath_operations_1_1_remainder.html#ade1dc877bde6c9793c1906c665403c98" target="_top" xlink:title="mathOperations.Remainder.evaluate">
<polygon fill="white" stroke="black" points="189,-375.5 189,-394.5 381,-394.5 381,-375.5 189,-375.5"/>
<text text-anchor="middle" x="285" y="-382.5" font-family="Helvetica,sans-Serif" font-size="10.00">mathOperations.Remainder.evaluate</text>
</a>
</g>
</g>
<!-- Node1&#45;&gt;Node18 -->
<g id="edge17" class="edge"><title>Node1&#45;&gt;Node18</title>
<path fill="none" stroke="midnightblue" d="M88.0405,-494.587C106.386,-468.099 139.954,-425.819 180,-404 187.092,-400.136 194.818,-397.039 202.751,-394.56"/>
<polygon fill="midnightblue" stroke="midnightblue" points="85.114,-492.666 82.4153,-502.912 90.9141,-496.586 85.114,-492.666"/>
</g>
<!-- Node19 -->
<g id="node19" class="node"><title>Node19</title>
<g id="a_node19"><a xlink:href="../../df/d6e/classmath_operations_1_1_cosine.html#a8f3d21b6edca99089e38c9c898b9fb40" target="_top" xlink:title="mathOperations.Cosine.evaluate">
<polygon fill="white" stroke="black" points="198,-337.5 198,-356.5 372,-356.5 372,-337.5 198,-337.5"/>
<text text-anchor="middle" x="285" y="-344.5" font-family="Helvetica,sans-Serif" font-size="10.00">mathOperations.Cosine.evaluate</text>
</a>
</g>
</g>
<!-- Node1&#45;&gt;Node19 -->
<g id="edge18" class="edge"><title>Node1&#45;&gt;Node19</title>
<path fill="none" stroke="midnightblue" d="M82.9325,-493.64C98.3028,-459.247 131.256,-397.179 180,-366 185.953,-362.192 192.467,-359.1 199.24,-356.594"/>
<polygon fill="midnightblue" stroke="midnightblue" points="79.6588,-492.392 78.8965,-502.959 86.0823,-495.174 79.6588,-492.392"/>
</g>
<!-- Node20 -->
<g id="node20" class="node"><title>Node20</title>
<g id="a_node20"><a xlink:href="../../d2/dc5/classmath_operations_1_1_power.html#a9090644e267c6b6ad7bd2291803f63be" target="_top" xlink:title="mathOperations.Power.evaluate">
<polygon fill="white" stroke="black" points="200,-299.5 200,-318.5 370,-318.5 370,-299.5 200,-299.5"/>
<text text-anchor="middle" x="285" y="-306.5" font-family="Helvetica,sans-Serif" font-size="10.00">mathOperations.Power.evaluate</text>
</a>
</g>
</g>
<!-- Node1&#45;&gt;Node20 -->
<g id="edge19" class="edge"><title>Node1&#45;&gt;Node20</title>
<path fill="none" stroke="midnightblue" d="M79.526,-493.123C91.7653,-451.713 122.292,-369.138 180,-328 186.053,-323.685 192.794,-320.26 199.853,-317.551"/>
<polygon fill="midnightblue" stroke="midnightblue" points="76.1012,-492.372 76.7396,-502.947 82.8356,-494.282 76.1012,-492.372"/>
</g>
<!-- Node21 -->
<g id="node21" class="node"><title>Node21</title>
<g id="a_node21"><a xlink:href="../../d2/da8/classmath_operations_1_1_slogo_random.html#a166f8e5aefaf83bfb4eb09de2daf090d" target="_top" xlink:title="mathOperations.SlogoRandom.evaluate">
<polygon fill="white" stroke="black" points="180.5,-261.5 180.5,-280.5 389.5,-280.5 389.5,-261.5 180.5,-261.5"/>
<text text-anchor="middle" x="285" y="-268.5" font-family="Helvetica,sans-Serif" font-size="10.00">mathOperations.SlogoRandom.evaluate</text>
</a>
</g>
</g>
<!-- Node1&#45;&gt;Node21 -->
<g id="edge20" class="edge"><title>Node1&#45;&gt;Node21</title>
<path fill="none" stroke="midnightblue" d="M77.1087,-492.705C86.287,-444.902 113.155,-341.489 180,-290 184.871,-286.248 190.248,-283.152 195.916,-280.606"/>
<polygon fill="midnightblue" stroke="midnightblue" points="73.6163,-492.348 75.2753,-502.813 80.5039,-493.598 73.6163,-492.348"/>
</g>
<!-- Node22 -->
<g id="node22" class="node"><title>Node22</title>
<g id="a_node22"><a xlink:href="../../d7/da3/classcontrol_structures_1_1_do_times.html#abf029aa5c71912cd587351a983327056" target="_top" xlink:title="controlStructures.DoTimes.evaluate">
<polygon fill="white" stroke="black" points="190.5,-223.5 190.5,-242.5 379.5,-242.5 379.5,-223.5 190.5,-223.5"/>
<text text-anchor="middle" x="285" y="-230.5" font-family="Helvetica,sans-Serif" font-size="10.00">controlStructures.DoTimes.evaluate</text>
</a>
</g>
</g>
<!-- Node1&#45;&gt;Node22 -->
<g id="edge21" class="edge"><title>Node1&#45;&gt;Node22</title>
<path fill="none" stroke="midnightblue" d="M75.2427,-492.715C81.4233,-439.194 103.696,-314.277 180,-252 184.621,-248.228 189.745,-245.108 195.17,-242.534"/>
<polygon fill="midnightblue" stroke="midnightblue" points="71.7563,-492.403 74.182,-502.716 78.7172,-493.141 71.7563,-492.403"/>
</g>
<!-- Node23 -->
<g id="node23" class="node"><title>Node23</title>
<g id="a_node23"><a xlink:href="../../d3/db4/classcontrol_structures_1_1_repeat.html#a7262839bb56d1c1d5b78033bbe7d55c0" target="_top" xlink:title="controlStructures.Repeat.evaluate">
<polygon fill="white" stroke="black" points="195,-185.5 195,-204.5 375,-204.5 375,-185.5 195,-185.5"/>
<text text-anchor="middle" x="285" y="-192.5" font-family="Helvetica,sans-Serif" font-size="10.00">controlStructures.Repeat.evaluate</text>
</a>
</g>
</g>
<!-- Node1&#45;&gt;Node23 -->
<g id="edge22" class="edge"><title>Node1&#45;&gt;Node23</title>
<path fill="none" stroke="midnightblue" d="M73.8233,-492.495C77.1946,-433.523 94.2407,-287.197 180,-214 184.467,-210.187 189.443,-207.03 194.73,-204.426"/>
<polygon fill="midnightblue" stroke="midnightblue" points="70.3138,-492.609 73.3272,-502.766 77.3057,-492.947 70.3138,-492.609"/>
</g>
<!-- Node24 -->
<g id="node24" class="node"><title>Node24</title>
<g id="a_node24"><a xlink:href="../../d9/d2b/classdisplay_commands_1_1_tell.html#a584240af72be7290f5cbc7eb8deafa48" target="_top" xlink:title="displayCommands.Tell.evaluate">
<polygon fill="white" stroke="black" points="201.5,-147.5 201.5,-166.5 368.5,-166.5 368.5,-147.5 201.5,-147.5"/>
<text text-anchor="middle" x="285" y="-154.5" font-family="Helvetica,sans-Serif" font-size="10.00">displayCommands.Tell.evaluate</text>
</a>
</g>
</g>
<!-- Node1&#45;&gt;Node24 -->
<g id="edge23" class="edge"><title>Node1&#45;&gt;Node24</title>
<path fill="none" stroke="midnightblue" d="M72.676,-492.476C73.3536,-428.494 84.6015,-260.372 180,-176 186.256,-170.467 193.573,-166.301 201.377,-163.191"/>
<polygon fill="midnightblue" stroke="midnightblue" points="69.1753,-492.826 72.6523,-502.834 76.1753,-492.842 69.1753,-492.826"/>
</g>
<!-- Node25 -->
<g id="node25" class="node"><title>Node25</title>
<g id="a_node25"><a xlink:href="../../d7/da3/classcontrol_structures_1_1_do_times.html#a535784ce7dfb7fe3b953d96769740470" target="_top" xlink:title="controlStructures.DoTimes.make\lInstructionList">
<polygon fill="white" stroke="black" points="197.5,-98 197.5,-128 372.5,-128 372.5,-98 197.5,-98"/>
<text text-anchor="start" x="205.5" y="-116" font-family="Helvetica,sans-Serif" font-size="10.00">controlStructures.DoTimes.make</text>
<text text-anchor="middle" x="285" y="-105" font-family="Helvetica,sans-Serif" font-size="10.00">InstructionList</text>
</a>
</g>
</g>
<!-- Node1&#45;&gt;Node25 -->
<g id="edge24" class="edge"><title>Node1&#45;&gt;Node25</title>
<path fill="none" stroke="midnightblue" d="M76.7447,-492.722C88.5984,-416.067 127.63,-188.388 180,-138 185.085,-133.107 190.952,-129.116 197.257,-125.867"/>
<polygon fill="midnightblue" stroke="midnightblue" points="73.2407,-492.484 75.1946,-502.897 80.1608,-493.539 73.2407,-492.484"/>
</g>
<!-- Node26 -->
<g id="node26" class="node"><title>Node26</title>
<g id="a_node26"><a xlink:href="../../d3/db4/classcontrol_structures_1_1_repeat.html#ac23df78844cddd03bac4ed1c349eba2a" target="_top" xlink:title="controlStructures.Repeat.make\lInstructionList">
<polygon fill="white" stroke="black" points="202,-49 202,-79 368,-79 368,-49 202,-49"/>
<text text-anchor="start" x="210" y="-67" font-family="Helvetica,sans-Serif" font-size="10.00">controlStructures.Repeat.make</text>
<text text-anchor="middle" x="285" y="-56" font-family="Helvetica,sans-Serif" font-size="10.00">InstructionList</text>
</a>
</g>
</g>
<!-- Node1&#45;&gt;Node26 -->
<g id="edge25" class="edge"><title>Node1&#45;&gt;Node26</title>
<path fill="none" stroke="midnightblue" d="M75.8658,-492.814C85.8081,-409.841 121.443,-147.06 180,-89 186.264,-82.7895 193.783,-78.0229 201.877,-74.3783"/>
<polygon fill="midnightblue" stroke="midnightblue" points="72.3755,-492.528 74.6823,-502.868 79.3275,-493.346 72.3755,-492.528"/>
</g>
<!-- Node27 -->
<g id="node27" class="node"><title>Node27</title>
<g id="a_node27"><a xlink:href="../../db/da5/classexpression_tree_1_1_expression_node.html#a784cb7e13acef3676fd7170ffe456432" target="_top" xlink:title="expressionTree.Expression\lNode.makeInstructionList">
<polygon fill="white" stroke="black" points="213.5,-0 213.5,-30 356.5,-30 356.5,-0 213.5,-0"/>
<text text-anchor="start" x="221.5" y="-18" font-family="Helvetica,sans-Serif" font-size="10.00">expressionTree.Expression</text>
<text text-anchor="middle" x="285" y="-7" font-family="Helvetica,sans-Serif" font-size="10.00">Node.makeInstructionList</text>
</a>
</g>
</g>
<!-- Node1&#45;&gt;Node27 -->
<g id="edge26" class="edge"><title>Node1&#45;&gt;Node27</title>
<path fill="none" stroke="midnightblue" d="M75.192,-492.617C83.4103,-403.353 115.285,-105.739 180,-40 189.054,-30.8027 200.857,-24.7567 213.25,-20.8287"/>
<polygon fill="midnightblue" stroke="midnightblue" points="71.6981,-492.393 74.2865,-502.667 78.6698,-493.021 71.6981,-492.393"/>
</g>
<!-- Node28 -->
<g id="node28" class="node"><title>Node28</title>
<g id="a_node28"><a xlink:href="../../d3/d06/classcontrol_structures_1_1_if_else.html#a9645552ea12e9008be136c28244bd9a4" target="_top" xlink:title="controlStructures.IfElse.make\lInstructionList">
<polygon fill="white" stroke="black" points="426,-0 426,-30 584,-30 584,-0 426,-0"/>
<text text-anchor="start" x="434" y="-18" font-family="Helvetica,sans-Serif" font-size="10.00">controlStructures.IfElse.make</text>
<text text-anchor="middle" x="505" y="-7" font-family="Helvetica,sans-Serif" font-size="10.00">InstructionList</text>
</a>
</g>
</g>
<!-- Node27&#45;&gt;Node28 -->
<g id="edge27" class="edge"><title>Node27&#45;&gt;Node28</title>
<path fill="none" stroke="midnightblue" d="M366.986,-15C386.17,-15 406.595,-15 425.659,-15"/>
<polygon fill="midnightblue" stroke="midnightblue" points="366.778,-11.5001 356.778,-15 366.778,-18.5001 366.778,-11.5001"/>
</g>
</g>
</svg>
