<?xml version="1.0" encoding="UTF-8" standalone="no"?>
<!DOCTYPE svg PUBLIC "-//W3C//DTD SVG 1.1//EN"
 "http://www.w3.org/Graphics/SVG/1.1/DTD/svg11.dtd">
<!-- Generated by graphviz version 2.36.0 (20140111.2315)
 -->
<!-- Title: expressionTree.ExpressionNode.setChildren Pages: 1 -->
<svg width="332pt" height="136pt"
 viewBox="0.00 0.00 332.00 136.00" xmlns="http://www.w3.org/2000/svg" xmlns:xlink="http://www.w3.org/1999/xlink">
<g id="graph0" class="graph" transform="scale(1 1) rotate(0) translate(4 132)">
<title>expressionTree.ExpressionNode.setChildren</title>
<polygon fill="white" stroke="none" points="-4,4 -4,-132 328,-132 328,4 -4,4"/>
<!-- Node1 -->
<g id="node1" class="node"><title>Node1</title>
<polygon fill="#bfbfbf" stroke="black" points="0.5,-49 0.5,-79 143.5,-79 143.5,-49 0.5,-49"/>
<text text-anchor="start" x="8.5" y="-67" font-family="Helvetica,sans-Serif" font-size="10.00">expressionTree.Expression</text>
<text text-anchor="middle" x="72" y="-56" font-family="Helvetica,sans-Serif" font-size="10.00">Node.setChildren</text>
</g>
<!-- Node2 -->
<g id="node2" class="node"><title>Node2</title>
<g id="a_node2"><a xlink:href="../../db/da5/classexpression_tree_1_1_expression_node.html#aee1e0e9f9ef99059439c9ffd5e08bed6" target="_top" xlink:title="expressionTree.Expression\lNode.getNumChildren">
<polygon fill="white" stroke="black" points="180.5,-98 180.5,-128 323.5,-128 323.5,-98 180.5,-98"/>
<text text-anchor="start" x="188.5" y="-116" font-family="Helvetica,sans-Serif" font-size="10.00">expressionTree.Expression</text>
<text text-anchor="middle" x="252" y="-105" font-family="Helvetica,sans-Serif" font-size="10.00">Node.getNumChildren</text>
</a>
</g>
</g>
<!-- Node1&#45;&gt;Node2 -->
<g id="edge1" class="edge"><title>Node1&#45;&gt;Node2</title>
<path fill="none" stroke="midnightblue" d="M127.858,-79.1014C146.386,-84.2019 167.242,-89.9429 186.45,-95.2305"/>
<polygon fill="midnightblue" stroke="midnightblue" points="185.753,-98.6687 196.323,-97.9484 187.61,-91.9198 185.753,-98.6687"/>
</g>
<!-- Node3 -->
<g id="node3" class="node"><title>Node3</title>
<g id="a_node3"><a xlink:href="../../db/da5/classexpression_tree_1_1_expression_node.html#a2fa33101014b85248cd335238da0b74a" target="_top" xlink:title="expressionTree.Expression\lNode.setLeft">
<polygon fill="white" stroke="black" points="180.5,-49 180.5,-79 323.5,-79 323.5,-49 180.5,-49"/>
<text text-anchor="start" x="188.5" y="-67" font-family="Helvetica,sans-Serif" font-size="10.00">expressionTree.Expression</text>
<text text-anchor="middle" x="252" y="-56" font-family="Helvetica,sans-Serif" font-size="10.00">Node.setLeft</text>
</a>
</g>
</g>
<!-- Node1&#45;&gt;Node3 -->
<g id="edge2" class="edge"><title>Node1&#45;&gt;Node3</title>
<path fill="none" stroke="midnightblue" d="M143.606,-64C152.421,-64 161.488,-64 170.441,-64"/>
<polygon fill="midnightblue" stroke="midnightblue" points="170.479,-67.5001 180.479,-64 170.479,-60.5001 170.479,-67.5001"/>
</g>
<!-- Node4 -->
<g id="node4" class="node"><title>Node4</title>
<g id="a_node4"><a xlink:href="../../db/da5/classexpression_tree_1_1_expression_node.html#a25229591e36f2ce78394dff938a3ef54" target="_top" xlink:title="expressionTree.Expression\lNode.setRight">
<polygon fill="white" stroke="black" points="180.5,-0 180.5,-30 323.5,-30 323.5,-0 180.5,-0"/>
<text text-anchor="start" x="188.5" y="-18" font-family="Helvetica,sans-Serif" font-size="10.00">expressionTree.Expression</text>
<text text-anchor="middle" x="252" y="-7" font-family="Helvetica,sans-Serif" font-size="10.00">Node.setRight</text>
</a>
</g>
</g>
<!-- Node1&#45;&gt;Node4 -->
<g id="edge3" class="edge"><title>Node1&#45;&gt;Node4</title>
<path fill="none" stroke="midnightblue" d="M127.858,-48.8986C146.386,-43.7981 167.242,-38.0571 186.45,-32.7695"/>
<polygon fill="midnightblue" stroke="midnightblue" points="187.61,-36.0802 196.323,-30.0516 185.753,-29.3313 187.61,-36.0802"/>
</g>
</g>
</svg>
