<?xml version="1.0" encoding="UTF-8" standalone="no"?>
<!DOCTYPE svg PUBLIC "-//W3C//DTD SVG 1.1//EN"
 "http://www.w3.org/Graphics/SVG/1.1/DTD/svg11.dtd">
<!-- Generated by graphviz version 2.36.0 (20140111.2315)
 -->
<!-- Title: expressionTree.ExpressionNode.evaluate Pages: 1 -->
<!--zoomable 1049 -->
<svg id="main" version="1.1" xmlns="http://www.w3.org/2000/svg" xmlns:xlink="http://www.w3.org/1999/xlink" xml:space="preserve" onload="init(evt)">
<style type="text/css"><![CDATA[
.edge:hover path { stroke: red; }
.edge:hover polygon { stroke: red; fill: red; }
]]></style>
<script type="text/javascript"><![CDATA[
var edges = document.getElementsByTagName('g');
if (edges && edges.length) {
  for (var i=0;i<edges.length;i++) {
    if (edges[i].id.substr(0,4)=='edge') {
      edges[i].setAttribute('class','edge');
    }
  }
}
]]></script>
        <defs>
                <circle id="rim" cx="0" cy="0" r="7"/>
                <circle id="rim2" cx="0" cy="0" r="3.5"/>
                <g id="zoomPlus">
                        <use xlink:href="#rim" fill="#404040">
                                <set attributeName="fill" to="#808080" begin="zoomplus.mouseover" end="zoomplus.mouseout"/>
                        </use>
                        <path d="M-4,0h8M0,-4v8" fill="none" stroke="white" stroke-width="1.5" pointer-events="none"/>
                </g>
                <g id="zoomMin">
                        <use xlink:href="#rim" fill="#404040">
                                <set attributeName="fill" to="#808080" begin="zoomminus.mouseover" end="zoomminus.mouseout"/>
                        </use>
                        <path d="M-4,0h8" fill="none" stroke="white" stroke-width="1.5" pointer-events="none"/>
                </g>
                <g id="dirArrow">
                        <path fill="none" stroke="white" stroke-width="1.5" d="M0,-3.0v7 M-2.5,-0.5L0,-3.0L2.5,-0.5"/>
                </g>
               <g id="resetDef">
                       <use xlink:href="#rim2" fill="#404040">
                               <set attributeName="fill" to="#808080" begin="reset.mouseover" end="reset.mouseout"/>
                       </use>
               </g>
        </defs>

<script type="text/javascript">
var viewWidth = 626;
var viewHeight = 1049;
var sectionId = 'dynsection-2';
</script>
<script xlink:href="../../svgpan.js"/>
<svg id="graph" class="graph">
<g id="viewport">
<title>expressionTree.ExpressionNode.evaluate</title>
<polygon fill="white" stroke="none" points="-4,4 -4,-1045 622,-1045 622,4 -4,4"/>
<!-- Node1 -->
<g id="node1" class="node"><title>Node1</title>
<polygon fill="#bfbfbf" stroke="black" points="0.5,-522 0.5,-552 143.5,-552 143.5,-522 0.5,-522"/>
<text text-anchor="start" x="8.5" y="-540" font-family="Helvetica,sans-Serif" font-size="10.00">expressionTree.Expression</text>
<text text-anchor="middle" x="72" y="-529" font-family="Helvetica,sans-Serif" font-size="10.00">Node.evaluate</text>
</g>
<!-- Node2 -->
<g id="node2" class="node"><title>Node2</title>
<g id="a_node2"><a xlink:href="../../da/d56/classmath_operations_1_1_sum.html#ad619a3b249dbf2b3a3ac289844131f80" target="_top" xlink:title="mathOperations.Sum.evaluate">
<polygon fill="white" stroke="black" points="211,-1021.5 211,-1040.5 375,-1040.5 375,-1021.5 211,-1021.5"/>
<text text-anchor="middle" x="293" y="-1028.5" font-family="Helvetica,sans-Serif" font-size="10.00">mathOperations.Sum.evaluate</text>
</a>
</g>
</g>
<!-- Node1&#45;&gt;Node2 -->
<g id="edge1" class="edge"><title>Node1&#45;&gt;Node2</title>
<path fill="none" stroke="midnightblue" d="M75.0639,-562.381C82.8503,-651.612 113.449,-948.919 180,-1012 188.66,-1020.21 199.482,-1025.6 210.961,-1029.04"/>
<polygon fill="midnightblue" stroke="midnightblue" points="78.5442,-562 74.2077,-552.333 71.5695,-562.594 78.5442,-562"/>
</g>
<!-- Node3 -->
<g id="node3" class="node"><title>Node3</title>
<g id="a_node3"><a xlink:href="../../df/d35/classmath_operations_1_1_difference.html#abdafd222ba7c6a36adcb729d5922dd15" target="_top" xlink:title="mathOperations.Difference.evaluate">
<polygon fill="white" stroke="black" points="197.5,-983.5 197.5,-1002.5 388.5,-1002.5 388.5,-983.5 197.5,-983.5"/>
<text text-anchor="middle" x="293" y="-990.5" font-family="Helvetica,sans-Serif" font-size="10.00">mathOperations.Difference.evaluate</text>
</a>
</g>
</g>
<!-- Node1&#45;&gt;Node3 -->
<g id="edge2" class="edge"><title>Node1&#45;&gt;Node3</title>
<path fill="none" stroke="midnightblue" d="M75.5536,-561.986C84.665,-646.063 118.367,-916.657 180,-974 185.126,-978.769 190.984,-982.581 197.272,-985.609"/>
<polygon fill="midnightblue" stroke="midnightblue" points="79.0338,-561.613 74.4969,-552.039 72.0729,-562.353 79.0338,-561.613"/>
</g>
<!-- Node4 -->
<g id="node4" class="node"><title>Node4</title>
<g id="a_node4"><a xlink:href="../../d0/d97/classmath_operations_1_1_minus.html#ad7ac410f3fbc6f98e5281fd54a53a32a" target="_top" xlink:title="mathOperations.Minus.evaluate">
<polygon fill="white" stroke="black" points="208,-945.5 208,-964.5 378,-964.5 378,-945.5 208,-945.5"/>
<text text-anchor="middle" x="293" y="-952.5" font-family="Helvetica,sans-Serif" font-size="10.00">mathOperations.Minus.evaluate</text>
</a>
</g>
</g>
<!-- Node1&#45;&gt;Node4 -->
<g id="edge3" class="edge"><title>Node1&#45;&gt;Node4</title>
<path fill="none" stroke="midnightblue" d="M76.1925,-562.123C86.793,-641.464 123.392,-884.476 180,-936 187.949,-943.235 197.59,-948.251 207.841,-951.664"/>
<polygon fill="midnightblue" stroke="midnightblue" points="79.6422,-561.51 74.8699,-552.051 72.7017,-562.422 79.6422,-561.51"/>
</g>
<!-- Node5 -->
<g id="node5" class="node"><title>Node5</title>
<g id="a_node5"><a xlink:href="../../d2/dcc/classdisplay_commands_1_1_forward.html#a73613a284bd012b5932f4ba1da950e5c" target="_top" xlink:title="displayCommands.Forward.evaluate">
<polygon fill="white" stroke="black" points="198,-907.5 198,-926.5 388,-926.5 388,-907.5 198,-907.5"/>
<text text-anchor="middle" x="293" y="-914.5" font-family="Helvetica,sans-Serif" font-size="10.00">displayCommands.Forward.evaluate</text>
</a>
</g>
</g>
<!-- Node1&#45;&gt;Node5 -->
<g id="edge4" class="edge"><title>Node1&#45;&gt;Node5</title>
<path fill="none" stroke="midnightblue" d="M72.1204,-562.635C71.3491,-629.213 79.2,-808.634 180,-898 185.313,-902.71 191.346,-906.471 197.792,-909.457"/>
<polygon fill="midnightblue" stroke="midnightblue" points="75.6272,-562.319 72.3245,-552.252 68.6285,-562.181 75.6272,-562.319"/>
</g>
<!-- Node6 -->
<g id="node6" class="node"><title>Node6</title>
<g id="a_node6"><a xlink:href="../../d3/d7b/classdisplay_commands_1_1_left.html#aa6e9737caa7dfdd9b1b9ce778147802f" target="_top" xlink:title="displayCommands.Left.evaluate">
<polygon fill="white" stroke="black" points="208,-869.5 208,-888.5 378,-888.5 378,-869.5 208,-869.5"/>
<text text-anchor="middle" x="293" y="-876.5" font-family="Helvetica,sans-Serif" font-size="10.00">displayCommands.Left.evaluate</text>
</a>
</g>
</g>
<!-- Node1&#45;&gt;Node6 -->
<g id="edge5" class="edge"><title>Node1&#45;&gt;Node6</title>
<path fill="none" stroke="midnightblue" d="M73.1511,-562.443C74.9988,-624.019 88.8631,-781.749 180,-860 188.08,-866.938 197.735,-871.794 207.941,-875.138"/>
<polygon fill="midnightblue" stroke="midnightblue" points="76.6431,-562.028 72.93,-552.105 69.6447,-562.177 76.6431,-562.028"/>
</g>
<!-- Node7 -->
<g id="node7" class="node"><title>Node7</title>
<g id="a_node7"><a xlink:href="../../d0/d5d/classmath_operations_1_1_quotient.html#aca070b0b78b061915ea959ce8c1494e1" target="_top" xlink:title="mathOperations.Quotient.evaluate">
<polygon fill="white" stroke="black" points="201.5,-831.5 201.5,-850.5 384.5,-850.5 384.5,-831.5 201.5,-831.5"/>
<text text-anchor="middle" x="293" y="-838.5" font-family="Helvetica,sans-Serif" font-size="10.00">mathOperations.Quotient.evaluate</text>
</a>
</g>
</g>
<!-- Node1&#45;&gt;Node7 -->
<g id="edge6" class="edge"><title>Node1&#45;&gt;Node7</title>
<path fill="none" stroke="midnightblue" d="M74.405,-562.158C78.9911,-618.406 98.4028,-754.677 180,-822 186.389,-827.272 193.697,-831.325 201.449,-834.418"/>
<polygon fill="midnightblue" stroke="midnightblue" points="77.8841,-561.74 73.6714,-552.019 70.9023,-562.246 77.8841,-561.74"/>
</g>
<!-- Node8 -->
<g id="node8" class="node"><title>Node8</title>
<g id="a_node8"><a xlink:href="../../d5/d53/classmath_operations_1_1_remainder.html#ade1dc877bde6c9793c1906c665403c98" target="_top" xlink:title="mathOperations.Remainder.evaluate">
<polygon fill="white" stroke="black" points="197,-793.5 197,-812.5 389,-812.5 389,-793.5 197,-793.5"/>
<text text-anchor="middle" x="293" y="-800.5" font-family="Helvetica,sans-Serif" font-size="10.00">mathOperations.Remainder.evaluate</text>
</a>
</g>
</g>
<!-- Node1&#45;&gt;Node8 -->
<g id="edge7" class="edge"><title>Node1&#45;&gt;Node8</title>
<path fill="none" stroke="midnightblue" d="M76.0409,-562.306C83.5812,-613.135 108.054,-727.581 180,-784 185.121,-788.016 190.784,-791.313 196.762,-794.008"/>
<polygon fill="midnightblue" stroke="midnightblue" points="79.4793,-561.619 74.6425,-552.193 72.5453,-562.578 79.4793,-561.619"/>
</g>
<!-- Node9 -->
<g id="node9" class="node"><title>Node9</title>
<g id="a_node9"><a xlink:href="../../d6/d3d/classdisplay_commands_1_1_right.html#ab1dc74fb3770bb45fff66b2ad8a3d1f0" target="_top" xlink:title="displayCommands.Right.evaluate">
<polygon fill="white" stroke="black" points="205,-755.5 205,-774.5 381,-774.5 381,-755.5 205,-755.5"/>
<text text-anchor="middle" x="293" y="-762.5" font-family="Helvetica,sans-Serif" font-size="10.00">displayCommands.Right.evaluate</text>
</a>
</g>
</g>
<!-- Node1&#45;&gt;Node9 -->
<g id="edge8" class="edge"><title>Node1&#45;&gt;Node9</title>
<path fill="none" stroke="midnightblue" d="M78.097,-561.876C88.6435,-606.559 117.314,-700.022 180,-746 187.474,-751.482 195.98,-755.592 204.885,-758.648"/>
<polygon fill="midnightblue" stroke="midnightblue" points="81.5117,-561.108 75.9017,-552.12 74.6824,-562.645 81.5117,-561.108"/>
</g>
<!-- Node10 -->
<g id="node10" class="node"><title>Node10</title>
<g id="a_node10"><a xlink:href="../../d3/d94/classmath_operations_1_1_product.html#a3e86689d47ade1e2b5581d8f357021c9" target="_top" xlink:title="mathOperations.Product.evaluate">
<polygon fill="white" stroke="black" points="203.5,-717.5 203.5,-736.5 382.5,-736.5 382.5,-717.5 203.5,-717.5"/>
<text text-anchor="middle" x="293" y="-724.5" font-family="Helvetica,sans-Serif" font-size="10.00">mathOperations.Product.evaluate</text>
</a>
</g>
</g>
<!-- Node1&#45;&gt;Node10 -->
<g id="edge9" class="edge"><title>Node1&#45;&gt;Node10</title>
<path fill="none" stroke="midnightblue" d="M81.087,-561.919C94.8556,-600.076 126.664,-672.299 180,-708 187.129,-712.772 195.07,-716.471 203.34,-719.324"/>
<polygon fill="midnightblue" stroke="midnightblue" points="84.2695,-560.415 77.6791,-552.119 77.6579,-562.714 84.2695,-560.415"/>
</g>
<!-- Node11 -->
<g id="node11" class="node"><title>Node11</title>
<g id="a_node11"><a xlink:href="../../dc/df4/classdisplay_commands_1_1_set_pen_size.html#af48e86f9d7d0045d7871cb14342596dc" target="_top" xlink:title="displayCommands.SetPenSize.evaluate">
<polygon fill="white" stroke="black" points="189.5,-679.5 189.5,-698.5 396.5,-698.5 396.5,-679.5 189.5,-679.5"/>
<text text-anchor="middle" x="293" y="-686.5" font-family="Helvetica,sans-Serif" font-size="10.00">displayCommands.SetPenSize.evaluate</text>
</a>
</g>
</g>
<!-- Node1&#45;&gt;Node11 -->
<g id="edge10" class="edge"><title>Node1&#45;&gt;Node11</title>
<path fill="none" stroke="midnightblue" d="M85.4319,-561.56C102.367,-592.287 135.719,-644.014 180,-670 186.549,-673.843 193.661,-676.96 201.019,-679.482"/>
<polygon fill="midnightblue" stroke="midnightblue" points="88.3232,-559.545 80.5174,-552.382 82.152,-562.85 88.3232,-559.545"/>
</g>
<!-- Node12 -->
<g id="node12" class="node"><title>Node12</title>
<g id="a_node12"><a xlink:href="../../de/dfe/classdisplay_commands_1_1_backward.html#aec522ad2760c87928efa6157a0acacb3" target="_top" xlink:title="displayCommands.Backward.evaluate">
<polygon fill="white" stroke="black" points="194,-641.5 194,-660.5 392,-660.5 392,-641.5 194,-641.5"/>
<text text-anchor="middle" x="293" y="-648.5" font-family="Helvetica,sans-Serif" font-size="10.00">displayCommands.Backward.evaluate</text>
</a>
</g>
</g>
<!-- Node1&#45;&gt;Node12 -->
<g id="edge11" class="edge"><title>Node1&#45;&gt;Node12</title>
<path fill="none" stroke="midnightblue" d="M91.6207,-559.68C111.195,-581.875 144.09,-614.784 180,-632 188.092,-635.879 196.845,-638.98 205.769,-641.456"/>
<polygon fill="midnightblue" stroke="midnightblue" points="94.2115,-557.325 85.031,-552.036 88.9097,-561.895 94.2115,-557.325"/>
</g>
<!-- Node13 -->
<g id="node13" class="node"><title>Node13</title>
<g id="a_node13"><a xlink:href="../../d8/d4d/classcontrol_structures_1_1_if.html#a6a24a59bb7494aedad6ec76e5468b85e" target="_top" xlink:title="controlStructures.If.evaluate">
<polygon fill="white" stroke="black" points="217,-603.5 217,-622.5 369,-622.5 369,-603.5 217,-603.5"/>
<text text-anchor="middle" x="293" y="-610.5" font-family="Helvetica,sans-Serif" font-size="10.00">controlStructures.If.evaluate</text>
</a>
</g>
</g>
<!-- Node1&#45;&gt;Node13 -->
<g id="edge12" class="edge"><title>Node1&#45;&gt;Node13</title>
<path fill="none" stroke="midnightblue" d="M104.889,-557.494C125.544,-569.867 153.45,-584.943 180,-594 191.666,-597.98 204.312,-601.149 216.763,-603.666"/>
<polygon fill="midnightblue" stroke="midnightblue" points="106.583,-554.428 96.2239,-552.207 102.937,-560.403 106.583,-554.428"/>
</g>
<!-- Node14 -->
<g id="node14" class="node"><title>Node14</title>
<g id="a_node14"><a xlink:href="../../d2/d7b/classcontrol_structures_1_1_make_variable.html#ad4194bdebf62424041439822c9780e12" target="_top" xlink:title="controlStructures.MakeVariable.evaluate">
<polygon fill="white" stroke="black" points="187.5,-565.5 187.5,-584.5 398.5,-584.5 398.5,-565.5 187.5,-565.5"/>
<text text-anchor="middle" x="293" y="-572.5" font-family="Helvetica,sans-Serif" font-size="10.00">controlStructures.MakeVariable.evaluate</text>
</a>
</g>
</g>
<!-- Node1&#45;&gt;Node14 -->
<g id="edge13" class="edge"><title>Node1&#45;&gt;Node14</title>
<path fill="none" stroke="midnightblue" d="M153.747,-551.406C162.604,-552.966 171.491,-554.523 180,-556 197.974,-559.12 217.582,-562.466 235.296,-565.468"/>
<polygon fill="midnightblue" stroke="midnightblue" points="154.236,-547.939 143.78,-549.648 153.02,-554.832 154.236,-547.939"/>
</g>
<!-- Node15 -->
<g id="node15" class="node"><title>Node15</title>
<g id="a_node15"><a xlink:href="../../d0/d12/classdisplay_commands_1_1_ask_with.html#a289dd1788ad6c9d4ffee88deaa98cb1f" target="_top" xlink:title="displayCommands.AskWith.evaluate">
<polygon fill="white" stroke="black" points="198,-527.5 198,-546.5 388,-546.5 388,-527.5 198,-527.5"/>
<text text-anchor="middle" x="293" y="-534.5" font-family="Helvetica,sans-Serif" font-size="10.00">displayCommands.AskWith.evaluate</text>
</a>
</g>
</g>
<!-- Node1&#45;&gt;Node15 -->
<g id="edge14" class="edge"><title>Node1&#45;&gt;Node15</title>
<path fill="none" stroke="midnightblue" d="M154.058,-537C168.335,-537 183.305,-537 197.902,-537"/>
<polygon fill="midnightblue" stroke="midnightblue" points="153.801,-533.5 143.801,-537 153.801,-540.5 153.801,-533.5"/>
</g>
<!-- Node16 -->
<g id="node16" class="node"><title>Node16</title>
<g id="a_node16"><a xlink:href="../../d6/d8f/classdisplay_commands_1_1_set_towards.html#a16423a13c1fdeb374d5ec881e53189d5" target="_top" xlink:title="displayCommands.SetTowards.evaluate">
<polygon fill="white" stroke="black" points="190,-489.5 190,-508.5 396,-508.5 396,-489.5 190,-489.5"/>
<text text-anchor="middle" x="293" y="-496.5" font-family="Helvetica,sans-Serif" font-size="10.00">displayCommands.SetTowards.evaluate</text>
</a>
</g>
</g>
<!-- Node1&#45;&gt;Node16 -->
<g id="edge15" class="edge"><title>Node1&#45;&gt;Node16</title>
<path fill="none" stroke="midnightblue" d="M153.747,-522.594C162.604,-521.034 171.491,-519.477 180,-518 197.974,-514.88 217.582,-511.534 235.296,-508.532"/>
<polygon fill="midnightblue" stroke="midnightblue" points="153.02,-519.168 143.78,-524.352 154.236,-526.061 153.02,-519.168"/>
</g>
<!-- Node17 -->
<g id="node17" class="node"><title>Node17</title>
<g id="a_node17"><a xlink:href="../../da/d72/classdisplay_commands_1_1_set_shape.html#a01de775575069455024d991a3843d2d0" target="_top" xlink:title="displayCommands.SetShape.evaluate">
<polygon fill="white" stroke="black" points="193,-451.5 193,-470.5 393,-470.5 393,-451.5 193,-451.5"/>
<text text-anchor="middle" x="293" y="-458.5" font-family="Helvetica,sans-Serif" font-size="10.00">displayCommands.SetShape.evaluate</text>
</a>
</g>
</g>
<!-- Node1&#45;&gt;Node17 -->
<g id="edge16" class="edge"><title>Node1&#45;&gt;Node17</title>
<path fill="none" stroke="midnightblue" d="M104.889,-516.506C125.544,-504.133 153.45,-489.057 180,-480 191.386,-476.116 203.705,-473.004 215.866,-470.517"/>
<polygon fill="midnightblue" stroke="midnightblue" points="102.937,-513.597 96.2239,-521.793 106.583,-519.572 102.937,-513.597"/>
</g>
<!-- Node18 -->
<g id="node18" class="node"><title>Node18</title>
<g id="a_node18"><a xlink:href="../../d1/dae/classdisplay_commands_1_1_set_background.html#a5306e4042b0dab0f92eca03b87010337" target="_top" xlink:title="displayCommands.SetBackground.evaluate">
<polygon fill="white" stroke="black" points="180,-413.5 180,-432.5 406,-432.5 406,-413.5 180,-413.5"/>
<text text-anchor="middle" x="293" y="-420.5" font-family="Helvetica,sans-Serif" font-size="10.00">displayCommands.SetBackground.evaluate</text>
</a>
</g>
</g>
<!-- Node1&#45;&gt;Node18 -->
<g id="edge17" class="edge"><title>Node1&#45;&gt;Node18</title>
<path fill="none" stroke="midnightblue" d="M91.6207,-514.32C111.195,-492.125 144.09,-459.216 180,-442 188.092,-438.121 196.845,-435.02 205.769,-432.544"/>
<polygon fill="midnightblue" stroke="midnightblue" points="88.9097,-512.105 85.031,-521.964 94.2115,-516.675 88.9097,-512.105"/>
</g>
<!-- Node19 -->
<g id="node19" class="node"><title>Node19</title>
<g id="a_node19"><a xlink:href="../../d3/d06/classcontrol_structures_1_1_if_else.html#a8f4962bbeae08dd34a22ac81b04366a3" target="_top" xlink:title="controlStructures.IfElse.evaluate">
<polygon fill="white" stroke="black" points="207,-375.5 207,-394.5 379,-394.5 379,-375.5 207,-375.5"/>
<text text-anchor="middle" x="293" y="-382.5" font-family="Helvetica,sans-Serif" font-size="10.00">controlStructures.IfElse.evaluate</text>
</a>
</g>
</g>
<!-- Node1&#45;&gt;Node19 -->
<g id="edge18" class="edge"><title>Node1&#45;&gt;Node19</title>
<path fill="none" stroke="midnightblue" d="M85.4319,-512.44C102.367,-481.713 135.719,-429.986 180,-404 188.25,-399.159 197.394,-395.47 206.797,-392.671"/>
<polygon fill="midnightblue" stroke="midnightblue" points="82.152,-511.15 80.5174,-521.618 88.3232,-514.455 82.152,-511.15"/>
</g>
<!-- Node20 -->
<g id="node20" class="node"><title>Node20</title>
<g id="a_node20"><a xlink:href="../../d7/da3/classcontrol_structures_1_1_do_times.html#abf029aa5c71912cd587351a983327056" target="_top" xlink:title="controlStructures.DoTimes.evaluate">
<polygon fill="white" stroke="black" points="198.5,-337.5 198.5,-356.5 387.5,-356.5 387.5,-337.5 198.5,-337.5"/>
<text text-anchor="middle" x="293" y="-344.5" font-family="Helvetica,sans-Serif" font-size="10.00">controlStructures.DoTimes.evaluate</text>
</a>
</g>
</g>
<!-- Node1&#45;&gt;Node20 -->
<g id="edge19" class="edge"><title>Node1&#45;&gt;Node20</title>
<path fill="none" stroke="midnightblue" d="M81.087,-512.081C94.8556,-473.924 126.664,-401.701 180,-366 185.654,-362.215 191.819,-359.105 198.253,-356.558"/>
<polygon fill="midnightblue" stroke="midnightblue" points="77.6579,-511.286 77.6791,-521.881 84.2695,-513.585 77.6579,-511.286"/>
</g>
<!-- Node21 -->
<g id="node21" class="node"><title>Node21</title>
<g id="a_node21"><a xlink:href="../../d3/db4/classcontrol_structures_1_1_repeat.html#a7262839bb56d1c1d5b78033bbe7d55c0" target="_top" xlink:title="controlStructures.Repeat.evaluate">
<polygon fill="white" stroke="black" points="203,-299.5 203,-318.5 383,-318.5 383,-299.5 203,-299.5"/>
<text text-anchor="middle" x="293" y="-306.5" font-family="Helvetica,sans-Serif" font-size="10.00">controlStructures.Repeat.evaluate</text>
</a>
</g>
</g>
<!-- Node1&#45;&gt;Node21 -->
<g id="edge20" class="edge"><title>Node1&#45;&gt;Node21</title>
<path fill="none" stroke="midnightblue" d="M78.097,-512.124C88.6435,-467.441 117.314,-373.978 180,-328 186.918,-322.926 194.719,-319.028 202.902,-316.052"/>
<polygon fill="midnightblue" stroke="midnightblue" points="74.6824,-511.355 75.9017,-521.88 81.5117,-512.892 74.6824,-511.355"/>
</g>
<!-- Node22 -->
<g id="node22" class="node"><title>Node22</title>
<g id="a_node22"><a xlink:href="../../d9/d2b/classdisplay_commands_1_1_tell.html#a584240af72be7290f5cbc7eb8deafa48" target="_top" xlink:title="displayCommands.Tell.evaluate">
<polygon fill="white" stroke="black" points="209.5,-261.5 209.5,-280.5 376.5,-280.5 376.5,-261.5 209.5,-261.5"/>
<text text-anchor="middle" x="293" y="-268.5" font-family="Helvetica,sans-Serif" font-size="10.00">displayCommands.Tell.evaluate</text>
</a>
</g>
</g>
<!-- Node1&#45;&gt;Node22 -->
<g id="edge21" class="edge"><title>Node1&#45;&gt;Node22</title>
<path fill="none" stroke="midnightblue" d="M76.0409,-511.694C83.5812,-460.865 108.054,-346.419 180,-290 188.613,-283.246 198.756,-278.527 209.36,-275.279"/>
<polygon fill="midnightblue" stroke="midnightblue" points="72.5453,-511.422 74.6425,-521.807 79.4793,-512.381 72.5453,-511.422"/>
</g>
<!-- Node23 -->
<g id="node23" class="node"><title>Node23</title>
<g id="a_node23"><a xlink:href="../../d7/d5b/classdisplay_commands_1_1_set_pen_color.html#a3102cc0d13c3b77ad7a4fe0a3858dbef" target="_top" xlink:title="displayCommands.SetPenColor.evaluate">
<polygon fill="white" stroke="black" points="187.5,-223.5 187.5,-242.5 398.5,-242.5 398.5,-223.5 187.5,-223.5"/>
<text text-anchor="middle" x="293" y="-230.5" font-family="Helvetica,sans-Serif" font-size="10.00">displayCommands.SetPenColor.evaluate</text>
</a>
</g>
</g>
<!-- Node1&#45;&gt;Node23 -->
<g id="edge22" class="edge"><title>Node1&#45;&gt;Node23</title>
<path fill="none" stroke="midnightblue" d="M74.405,-511.842C78.9911,-455.594 98.4028,-319.323 180,-252 184.488,-248.297 189.428,-245.196 194.658,-242.606"/>
<polygon fill="midnightblue" stroke="midnightblue" points="70.9023,-511.754 73.6714,-521.981 77.8841,-512.26 70.9023,-511.754"/>
</g>
<!-- Node24 -->
<g id="node24" class="node"><title>Node24</title>
<g id="a_node24"><a xlink:href="../../dc/d9a/classdisplay_commands_1_1_ask.html#ad7725f77c582751b73c3e0a54dc60400" target="_top" xlink:title="displayCommands.Ask.evaluate">
<polygon fill="white" stroke="black" points="208,-185.5 208,-204.5 378,-204.5 378,-185.5 208,-185.5"/>
<text text-anchor="middle" x="293" y="-192.5" font-family="Helvetica,sans-Serif" font-size="10.00">displayCommands.Ask.evaluate</text>
</a>
</g>
</g>
<!-- Node1&#45;&gt;Node24 -->
<g id="edge23" class="edge"><title>Node1&#45;&gt;Node24</title>
<path fill="none" stroke="midnightblue" d="M73.1511,-511.557C74.9988,-449.981 88.8631,-292.251 180,-214 188.08,-207.062 197.735,-202.206 207.941,-198.862"/>
<polygon fill="midnightblue" stroke="midnightblue" points="69.6447,-511.823 72.93,-521.895 76.6431,-511.972 69.6447,-511.823"/>
</g>
<!-- Node25 -->
<g id="node25" class="node"><title>Node25</title>
<g id="a_node25"><a xlink:href="../../dd/dc2/classdisplay_commands_1_1_set_palette.html#a81ee9f42ae61cba32b49a2a1f84307ed" target="_top" xlink:title="displayCommands.SetPalette.evaluate">
<polygon fill="white" stroke="black" points="192,-147.5 192,-166.5 394,-166.5 394,-147.5 192,-147.5"/>
<text text-anchor="middle" x="293" y="-154.5" font-family="Helvetica,sans-Serif" font-size="10.00">displayCommands.SetPalette.evaluate</text>
</a>
</g>
</g>
<!-- Node1&#45;&gt;Node25 -->
<g id="edge24" class="edge"><title>Node1&#45;&gt;Node25</title>
<path fill="none" stroke="midnightblue" d="M72.1204,-511.365C71.3491,-444.787 79.2,-265.366 180,-176 184.206,-172.271 188.863,-169.137 193.82,-166.512"/>
<polygon fill="midnightblue" stroke="midnightblue" points="68.6285,-511.819 72.3245,-521.748 75.6272,-511.681 68.6285,-511.819"/>
</g>
<!-- Node26 -->
<g id="node26" class="node"><title>Node26</title>
<g id="a_node26"><a xlink:href="../../d3/dfb/classexpression_tree_1_1_expression_tree_builder.html#ad720a1e94a9d9256422a4492358c5dba" target="_top" xlink:title="expressionTree.Expression\lTreeBuilder.getTree">
<polygon fill="white" stroke="black" points="221.5,-98 221.5,-128 364.5,-128 364.5,-98 221.5,-98"/>
<text text-anchor="start" x="229.5" y="-116" font-family="Helvetica,sans-Serif" font-size="10.00">expressionTree.Expression</text>
<text text-anchor="middle" x="293" y="-105" font-family="Helvetica,sans-Serif" font-size="10.00">TreeBuilder.getTree</text>
</a>
</g>
</g>
<!-- Node1&#45;&gt;Node26 -->
<g id="edge25" class="edge"><title>Node1&#45;&gt;Node26</title>
<path fill="none" stroke="midnightblue" d="M76.3779,-511.464C87.4086,-431.933 124.863,-190.848 180,-138 191.291,-127.178 206.188,-120.642 221.419,-116.782"/>
<polygon fill="midnightblue" stroke="midnightblue" points="72.8821,-511.196 74.9977,-521.577 79.8178,-512.143 72.8821,-511.196"/>
</g>
<!-- Node28 -->
<g id="node28" class="node"><title>Node28</title>
<g id="a_node28"><a xlink:href="../../d3/db4/classcontrol_structures_1_1_repeat.html#ac23df78844cddd03bac4ed1c349eba2a" target="_top" xlink:title="controlStructures.Repeat.make\lInstructionList">
<polygon fill="white" stroke="black" points="210,-49 210,-79 376,-79 376,-49 210,-49"/>
<text text-anchor="start" x="218" y="-67" font-family="Helvetica,sans-Serif" font-size="10.00">controlStructures.Repeat.make</text>
<text text-anchor="middle" x="293" y="-56" font-family="Helvetica,sans-Serif" font-size="10.00">InstructionList</text>
</a>
</g>
</g>
<!-- Node1&#45;&gt;Node28 -->
<g id="edge27" class="edge"><title>Node1&#45;&gt;Node28</title>
<path fill="none" stroke="midnightblue" d="M75.5717,-511.512C84.7413,-425.729 118.609,-149.487 180,-89 188.373,-80.7502 198.836,-74.9751 209.98,-70.9722"/>
<polygon fill="midnightblue" stroke="midnightblue" points="72.0696,-511.35 74.508,-521.661 79.0314,-512.08 72.0696,-511.35"/>
</g>
<!-- Node29 -->
<g id="node29" class="node"><title>Node29</title>
<g id="a_node29"><a xlink:href="../../d3/d06/classcontrol_structures_1_1_if_else.html#a9645552ea12e9008be136c28244bd9a4" target="_top" xlink:title="controlStructures.IfElse.make\lInstructionList">
<polygon fill="white" stroke="black" points="214,-0 214,-30 372,-30 372,-0 214,-0"/>
<text text-anchor="start" x="222" y="-18" font-family="Helvetica,sans-Serif" font-size="10.00">controlStructures.IfElse.make</text>
<text text-anchor="middle" x="293" y="-7" font-family="Helvetica,sans-Serif" font-size="10.00">InstructionList</text>
</a>
</g>
</g>
<!-- Node1&#45;&gt;Node29 -->
<g id="edge28" class="edge"><title>Node1&#45;&gt;Node29</title>
<path fill="none" stroke="midnightblue" d="M74.9042,-511.777C82.3184,-420.368 112.264,-108.25 180,-40 189.263,-30.6671 201.194,-24.4847 213.801,-20.4488"/>
<polygon fill="midnightblue" stroke="midnightblue" points="71.411,-511.554 74.1107,-521.8 78.3891,-512.107 71.411,-511.554"/>
</g>
<!-- Node27 -->
<g id="node27" class="node"><title>Node27</title>
<g id="a_node27"><a xlink:href="../../d3/dfb/classexpression_tree_1_1_expression_tree_builder.html#ab3c3bc68ab96d1cd026bc68a7b329f92" target="_top" xlink:title="expressionTree.Expression\lTreeBuilder.ExpressionTreeBuilder">
<polygon fill="white" stroke="black" points="442,-98 442,-128 618,-128 618,-98 442,-98"/>
<text text-anchor="start" x="450" y="-116" font-family="Helvetica,sans-Serif" font-size="10.00">expressionTree.Expression</text>
<text text-anchor="middle" x="530" y="-105" font-family="Helvetica,sans-Serif" font-size="10.00">TreeBuilder.ExpressionTreeBuilder</text>
</a>
</g>
</g>
<!-- Node26&#45;&gt;Node27 -->
<g id="edge26" class="edge"><title>Node26&#45;&gt;Node27</title>
<path fill="none" stroke="midnightblue" d="M374.656,-113C396.339,-113 419.885,-113 441.902,-113"/>
<polygon fill="midnightblue" stroke="midnightblue" points="374.508,-109.5 364.508,-113 374.508,-116.5 374.508,-109.5"/>
</g>
</g>
</svg>
        <g id="navigator" transform="translate(0 0)" fill="#404254">
                <rect fill="#f2f5e9" fill-opacity="0.5" stroke="#606060" stroke-width=".5" x="0" y="0" width="60" height="60"/>
                <use id="zoomplus" xlink:href="#zoomPlus" x="17" y="9" onmousedown="handleZoom(evt,'in')"/>
                <use id="zoomminus" xlink:href="#zoomMin" x="42" y="9" onmousedown="handleZoom(evt,'out')"/>
                <use id="reset" xlink:href="#resetDef" x="30" y="36" onmousedown="handleReset()"/>
                <g id="arrowUp" xlink:href="#dirArrow" transform="translate(30 24)" onmousedown="handlePan(0,-1)">
                  <use xlink:href="#rim" fill="#404040">
                        <set attributeName="fill" to="#808080" begin="arrowUp.mouseover" end="arrowUp.mouseout"/>
                  </use>
                  <path fill="none" stroke="white" stroke-width="1.5" d="M0,-3.0v7 M-2.5,-0.5L0,-3.0L2.5,-0.5"/>
                </g>
                <g id="arrowRight" xlink:href="#dirArrow" transform="rotate(90) translate(36 -43)" onmousedown="handlePan(1,0)">
                  <use xlink:href="#rim" fill="#404040">
                        <set attributeName="fill" to="#808080" begin="arrowRight.mouseover" end="arrowRight.mouseout"/>
                  </use>
                  <path fill="none" stroke="white" stroke-width="1.5" d="M0,-3.0v7 M-2.5,-0.5L0,-3.0L2.5,-0.5"/>
                </g>
                <g id="arrowDown" xlink:href="#dirArrow" transform="rotate(180) translate(-30 -48)" onmousedown="handlePan(0,1)">
                  <use xlink:href="#rim" fill="#404040">
                        <set attributeName="fill" to="#808080" begin="arrowDown.mouseover" end="arrowDown.mouseout"/>
                  </use>
                  <path fill="none" stroke="white" stroke-width="1.5" d="M0,-3.0v7 M-2.5,-0.5L0,-3.0L2.5,-0.5"/>
                </g>
                <g id="arrowLeft" xlink:href="#dirArrow" transform="rotate(270) translate(-36 17)" onmousedown="handlePan(-1,0)">
                  <use xlink:href="#rim" fill="#404040">
                        <set attributeName="fill" to="#808080" begin="arrowLeft.mouseover" end="arrowLeft.mouseout"/>
                  </use>
                  <path fill="none" stroke="white" stroke-width="1.5" d="M0,-3.0v7 M-2.5,-0.5L0,-3.0L2.5,-0.5"/>
                </g>
        </g>
        <svg viewBox="0 0 15 15" width="100%" height="30px" preserveAspectRatio="xMaxYMin meet">
         <g id="arrow_out" transform="scale(0.3 0.3)">
          <a xlink:href="classexpression_tree_1_1_expression_node_a189034630678dbe1dbb8805adbda2a96_icgraph_org.svg" target="_base">
           <rect id="button" ry="5" rx="5" y="6" x="6" height="38" width="38"
                fill="#f2f5e9" fill-opacity="0.5" stroke="#606060" stroke-width="1.0"/>
           <path id="arrow"
             d="M 11.500037,31.436501 C 11.940474,20.09759 22.043105,11.32322 32.158766,21.979434 L 37.068811,17.246167 C 37.068811,17.246167 37.088388,32 37.088388,32 L 22.160133,31.978069 C 22.160133,31.978069 26.997745,27.140456 26.997745,27.140456 C 18.528582,18.264221 13.291696,25.230495 11.500037,31.436501 z"
             style="fill:#404040;"/>
          </a>
         </g>
        </svg>
</svg>
