<?xml version="1.0" encoding="UTF-8" standalone="no"?>
<!DOCTYPE svg PUBLIC "-//W3C//DTD SVG 1.1//EN"
 "http://www.w3.org/Graphics/SVG/1.1/DTD/svg11.dtd">
<!-- Generated by graphviz version 2.36.0 (20140111.2315)
 -->
<!-- Title: frontend.SLogoCanvas.changeBackground Pages: 1 -->
<svg width="406pt" height="87pt"
 viewBox="0.00 0.00 406.00 87.00" xmlns="http://www.w3.org/2000/svg" xmlns:xlink="http://www.w3.org/1999/xlink">
<g id="graph0" class="graph" transform="scale(1 1) rotate(0) translate(4 83)">
<title>frontend.SLogoCanvas.changeBackground</title>
<polygon fill="white" stroke="none" points="-4,4 -4,-83 402,-83 402,4 -4,4"/>
<!-- Node1 -->
<g id="node1" class="node"><title>Node1</title>
<polygon fill="#bfbfbf" stroke="black" points="0,-24 0,-54 164,-54 164,-24 0,-24"/>
<text text-anchor="start" x="8" y="-42" font-family="Helvetica,sans-Serif" font-size="10.00">frontend.SLogoCanvas.change</text>
<text text-anchor="middle" x="82" y="-31" font-family="Helvetica,sans-Serif" font-size="10.00">Background</text>
</g>
<!-- Node2 -->
<g id="node2" class="node"><title>Node2</title>
<g id="a_node2"><a xlink:href="../../d1/d07/classfrontend_1_1_s_logo_canvas.html#a1ac5f5e0cebf6e87589f10a03155fa9e" target="_top" xlink:title="frontend.SLogoCanvas.change\lBackground">
<polygon fill="white" stroke="black" points="217,-49 217,-79 381,-79 381,-49 217,-49"/>
<text text-anchor="start" x="225" y="-67" font-family="Helvetica,sans-Serif" font-size="10.00">frontend.SLogoCanvas.change</text>
<text text-anchor="middle" x="299" y="-56" font-family="Helvetica,sans-Serif" font-size="10.00">Background</text>
</a>
</g>
</g>
<!-- Node1&#45;&gt;Node2 -->
<g id="edge1" class="edge"><title>Node1&#45;&gt;Node2</title>
<path fill="none" stroke="midnightblue" d="M174.481,-49.6373C188.598,-51.2788 203.092,-52.9642 216.959,-54.5767"/>
<polygon fill="midnightblue" stroke="midnightblue" points="174.62,-46.1299 164.282,-48.4514 173.811,-53.0831 174.62,-46.1299"/>
</g>
<!-- Node3 -->
<g id="node3" class="node"><title>Node3</title>
<g id="a_node3"><a xlink:href="../../d1/dae/classdisplay_commands_1_1_set_background.html#a4bd55b720ccdcebfeddf0bb29026fbe9" target="_top" xlink:title="displayCommands.SetBackground.do\lAction">
<polygon fill="white" stroke="black" points="200.5,-0 200.5,-30 397.5,-30 397.5,-0 200.5,-0"/>
<text text-anchor="start" x="208.5" y="-18" font-family="Helvetica,sans-Serif" font-size="10.00">displayCommands.SetBackground.do</text>
<text text-anchor="middle" x="299" y="-7" font-family="Helvetica,sans-Serif" font-size="10.00">Action</text>
</a>
</g>
</g>
<!-- Node1&#45;&gt;Node3 -->
<g id="edge2" class="edge"><title>Node1&#45;&gt;Node3</title>
<path fill="none" stroke="midnightblue" d="M174.308,-28.8075C182.915,-27.8467 191.664,-26.8701 200.327,-25.903"/>
<polygon fill="midnightblue" stroke="midnightblue" points="173.832,-25.3388 164.282,-29.9266 174.609,-32.2955 173.832,-25.3388"/>
</g>
</g>
</svg>
