<?xml version="1.0" encoding="UTF-8" standalone="no"?>
<!DOCTYPE svg PUBLIC "-//W3C//DTD SVG 1.1//EN"
 "http://www.w3.org/Graphics/SVG/1.1/DTD/svg11.dtd">
<!-- Generated by graphviz version 2.36.0 (20140111.2315)
 -->
<!-- Title: frontend.SLogoCanvas.getColor Pages: 1 -->
<svg width="370pt" height="87pt"
 viewBox="0.00 0.00 370.00 87.00" xmlns="http://www.w3.org/2000/svg" xmlns:xlink="http://www.w3.org/1999/xlink">
<g id="graph0" class="graph" transform="scale(1 1) rotate(0) translate(4 83)">
<title>frontend.SLogoCanvas.getColor</title>
<polygon fill="white" stroke="none" points="-4,4 -4,-83 366,-83 366,4 -4,4"/>
<!-- Node1 -->
<g id="node1" class="node"><title>Node1</title>
<polygon fill="#bfbfbf" stroke="black" points="0,-24 0,-54 144,-54 144,-24 0,-24"/>
<text text-anchor="start" x="8" y="-42" font-family="Helvetica,sans-Serif" font-size="10.00">frontend.SLogoCanvas.get</text>
<text text-anchor="middle" x="72" y="-31" font-family="Helvetica,sans-Serif" font-size="10.00">Color</text>
</g>
<!-- Node2 -->
<g id="node2" class="node"><title>Node2</title>
<g id="a_node2"><a xlink:href="../../d1/d07/classfrontend_1_1_s_logo_canvas.html#a1ac5f5e0cebf6e87589f10a03155fa9e" target="_top" xlink:title="frontend.SLogoCanvas.change\lBackground">
<polygon fill="white" stroke="black" points="189,-49 189,-79 353,-79 353,-49 189,-49"/>
<text text-anchor="start" x="197" y="-67" font-family="Helvetica,sans-Serif" font-size="10.00">frontend.SLogoCanvas.change</text>
<text text-anchor="middle" x="271" y="-56" font-family="Helvetica,sans-Serif" font-size="10.00">Background</text>
</a>
</g>
</g>
<!-- Node1&#45;&gt;Node2 -->
<g id="edge1" class="edge"><title>Node1&#45;&gt;Node2</title>
<path fill="none" stroke="midnightblue" d="M154.126,-49.2952C165.626,-50.7545 177.451,-52.2552 188.949,-53.7143"/>
<polygon fill="midnightblue" stroke="midnightblue" points="154.483,-45.8124 144.122,-48.0256 153.601,-52.7568 154.483,-45.8124"/>
</g>
<!-- Node3 -->
<g id="node3" class="node"><title>Node3</title>
<g id="a_node3"><a xlink:href="../../d7/d5b/classdisplay_commands_1_1_set_pen_color.html#aca9cc25cf5669418097f9d8f6509a23c" target="_top" xlink:title="displayCommands.SetPenColor.do\lAction">
<polygon fill="white" stroke="black" points="180,-0 180,-30 362,-30 362,-0 180,-0"/>
<text text-anchor="start" x="188" y="-18" font-family="Helvetica,sans-Serif" font-size="10.00">displayCommands.SetPenColor.do</text>
<text text-anchor="middle" x="271" y="-7" font-family="Helvetica,sans-Serif" font-size="10.00">Action</text>
</a>
</g>
</g>
<!-- Node1&#45;&gt;Node3 -->
<g id="edge2" class="edge"><title>Node1&#45;&gt;Node3</title>
<path fill="none" stroke="midnightblue" d="M154.277,-29.0982C162.687,-28.0737 171.27,-27.0281 179.77,-25.9925"/>
<polygon fill="midnightblue" stroke="midnightblue" points="153.625,-25.6517 144.122,-30.3354 154.471,-32.6003 153.625,-25.6517"/>
</g>
</g>
</svg>
