<?xml version="1.0" encoding="UTF-8" standalone="no"?>
<!DOCTYPE svg PUBLIC "-//W3C//DTD SVG 1.1//EN"
 "http://www.w3.org/Graphics/SVG/1.1/DTD/svg11.dtd">
<!-- Generated by graphviz version 2.36.0 (20140111.2315)
 -->
<!-- Title: frontend.SLogoCanvas.removeObjects Pages: 1 -->
<svg width="394pt" height="38pt"
 viewBox="0.00 0.00 394.00 38.00" xmlns="http://www.w3.org/2000/svg" xmlns:xlink="http://www.w3.org/1999/xlink">
<g id="graph0" class="graph" transform="scale(1 1) rotate(0) translate(4 34)">
<title>frontend.SLogoCanvas.removeObjects</title>
<polygon fill="white" stroke="none" points="-4,4 -4,-34 390,-34 390,4 -4,4"/>
<!-- Node1 -->
<g id="node1" class="node"><title>Node1</title>
<polygon fill="#bfbfbf" stroke="black" points="0.5,-0 0.5,-30 165.5,-30 165.5,-0 0.5,-0"/>
<text text-anchor="start" x="8.5" y="-18" font-family="Helvetica,sans-Serif" font-size="10.00">frontend.SLogoCanvas.remove</text>
<text text-anchor="middle" x="83" y="-7" font-family="Helvetica,sans-Serif" font-size="10.00">Objects</text>
</g>
<!-- Node2 -->
<g id="node2" class="node"><title>Node2</title>
<g id="a_node2"><a xlink:href="../../dd/d33/classdisplay_commands_1_1_clear_objects.html#a21cffe30d5c5ea33afa426d791d827b3" target="_top" xlink:title="displayCommands.ClearObjects.do\lAction">
<polygon fill="white" stroke="black" points="202,-0 202,-30 386,-30 386,-0 202,-0"/>
<text text-anchor="start" x="210" y="-18" font-family="Helvetica,sans-Serif" font-size="10.00">displayCommands.ClearObjects.do</text>
<text text-anchor="middle" x="294" y="-7" font-family="Helvetica,sans-Serif" font-size="10.00">Action</text>
</a>
</g>
</g>
<!-- Node1&#45;&gt;Node2 -->
<g id="edge1" class="edge"><title>Node1&#45;&gt;Node2</title>
<path fill="none" stroke="midnightblue" d="M175.735,-15C184.339,-15 193.06,-15 201.66,-15"/>
<polygon fill="midnightblue" stroke="midnightblue" points="175.703,-11.5001 165.703,-15 175.703,-18.5001 175.703,-11.5001"/>
</g>
</g>
</svg>
