<?xml version="1.0" encoding="UTF-8" standalone="no"?>
<!DOCTYPE svg PUBLIC "-//W3C//DTD SVG 1.1//EN"
 "http://www.w3.org/Graphics/SVG/1.1/DTD/svg11.dtd">
<!-- Generated by graphviz version 2.36.0 (20140111.2315)
 -->
<!-- Title: frontend.SLogoCanvas.getHolder Pages: 1 -->
<svg width="574pt" height="87pt"
 viewBox="0.00 0.00 574.00 87.00" xmlns="http://www.w3.org/2000/svg" xmlns:xlink="http://www.w3.org/1999/xlink">
<g id="graph0" class="graph" transform="scale(1 1) rotate(0) translate(4 83)">
<title>frontend.SLogoCanvas.getHolder</title>
<polygon fill="white" stroke="none" points="-4,4 -4,-83 570,-83 570,4 -4,4"/>
<!-- Node1 -->
<g id="node1" class="node"><title>Node1</title>
<polygon fill="#bfbfbf" stroke="black" points="0,-24 0,-54 144,-54 144,-24 0,-24"/>
<text text-anchor="start" x="8" y="-42" font-family="Helvetica,sans-Serif" font-size="10.00">frontend.SLogoCanvas.get</text>
<text text-anchor="middle" x="72" y="-31" font-family="Helvetica,sans-Serif" font-size="10.00">Holder</text>
</g>
<!-- Node2 -->
<g id="node2" class="node"><title>Node2</title>
<g id="a_node2"><a xlink:href="../../d1/d07/classfrontend_1_1_s_logo_canvas.html#ab568d13de0b72b80b87728b7c3c73b20" target="_top" xlink:title="frontend.SLogoCanvas.remove\lObjects">
<polygon fill="white" stroke="black" points="180.5,-49 180.5,-79 345.5,-79 345.5,-49 180.5,-49"/>
<text text-anchor="start" x="188.5" y="-67" font-family="Helvetica,sans-Serif" font-size="10.00">frontend.SLogoCanvas.remove</text>
<text text-anchor="middle" x="263" y="-56" font-family="Helvetica,sans-Serif" font-size="10.00">Objects</text>
</a>
</g>
</g>
<!-- Node1&#45;&gt;Node2 -->
<g id="edge1" class="edge"><title>Node1&#45;&gt;Node2</title>
<path fill="none" stroke="midnightblue" d="M154.266,-49.7494C162.929,-50.8953 171.743,-52.0612 180.41,-53.2076"/>
<polygon fill="midnightblue" stroke="midnightblue" points="154.556,-46.2574 144.183,-48.4158 153.638,-53.197 154.556,-46.2574"/>
</g>
<!-- Node4 -->
<g id="node4" class="node"><title>Node4</title>
<g id="a_node4"><a xlink:href="../../df/de4/classfrontend_1_1_s_logo_workspace.html#afdbe19fcd31fb74f31efbea44ac0c24c" target="_top" xlink:title="frontend.SLogoWorkspace.\lSLogoWorkspace">
<polygon fill="white" stroke="black" points="191,-0 191,-30 335,-30 335,-0 191,-0"/>
<text text-anchor="start" x="199" y="-18" font-family="Helvetica,sans-Serif" font-size="10.00">frontend.SLogoWorkspace.</text>
<text text-anchor="middle" x="263" y="-7" font-family="Helvetica,sans-Serif" font-size="10.00">SLogoWorkspace</text>
</a>
</g>
</g>
<!-- Node1&#45;&gt;Node4 -->
<g id="edge3" class="edge"><title>Node1&#45;&gt;Node4</title>
<path fill="none" stroke="midnightblue" d="M154.316,-28.6742C166.483,-27.1292 178.947,-25.5464 190.881,-24.031"/>
<polygon fill="midnightblue" stroke="midnightblue" points="153.663,-25.2289 144.183,-29.9608 154.545,-32.1731 153.663,-25.2289"/>
</g>
<!-- Node3 -->
<g id="node3" class="node"><title>Node3</title>
<g id="a_node3"><a xlink:href="../../dd/d33/classdisplay_commands_1_1_clear_objects.html#a21cffe30d5c5ea33afa426d791d827b3" target="_top" xlink:title="displayCommands.ClearObjects.do\lAction">
<polygon fill="white" stroke="black" points="382,-49 382,-79 566,-79 566,-49 382,-49"/>
<text text-anchor="start" x="390" y="-67" font-family="Helvetica,sans-Serif" font-size="10.00">displayCommands.ClearObjects.do</text>
<text text-anchor="middle" x="474" y="-56" font-family="Helvetica,sans-Serif" font-size="10.00">Action</text>
</a>
</g>
</g>
<!-- Node2&#45;&gt;Node3 -->
<g id="edge2" class="edge"><title>Node2&#45;&gt;Node3</title>
<path fill="none" stroke="midnightblue" d="M355.735,-64C364.339,-64 373.06,-64 381.66,-64"/>
<polygon fill="midnightblue" stroke="midnightblue" points="355.703,-60.5001 345.703,-64 355.703,-67.5001 355.703,-60.5001"/>
</g>
<!-- Node5 -->
<g id="node5" class="node"><title>Node5</title>
<g id="a_node5"><a xlink:href="../../dc/dae/classfrontend_1_1_s_logo_workspace_1_1_add_workspace_button.html#a156aecbf6509dec903bb35c7ada6257e" target="_top" xlink:title="frontend.SLogoWorkspace.\lAddWorkspaceButton.action">
<polygon fill="white" stroke="black" points="398.5,-0 398.5,-30 549.5,-30 549.5,-0 398.5,-0"/>
<text text-anchor="start" x="406.5" y="-18" font-family="Helvetica,sans-Serif" font-size="10.00">frontend.SLogoWorkspace.</text>
<text text-anchor="middle" x="474" y="-7" font-family="Helvetica,sans-Serif" font-size="10.00">AddWorkspaceButton.action</text>
</a>
</g>
</g>
<!-- Node4&#45;&gt;Node5 -->
<g id="edge4" class="edge"><title>Node4&#45;&gt;Node5</title>
<path fill="none" stroke="midnightblue" d="M345.205,-15C362.658,-15 381.026,-15 398.222,-15"/>
<polygon fill="midnightblue" stroke="midnightblue" points="345.05,-11.5001 335.049,-15 345.049,-18.5001 345.05,-11.5001"/>
</g>
</g>
</svg>
