<?xml version="1.0" encoding="UTF-8" standalone="no"?>
<!DOCTYPE svg PUBLIC "-//W3C//DTD SVG 1.1//EN"
 "http://www.w3.org/Graphics/SVG/1.1/DTD/svg11.dtd">
<!-- Generated by graphviz version 2.36.0 (20140111.2315)
 -->
<!-- Title: frontend.ConcreteFeatures.SetLineColor Pages: 1 -->
<!--zoomable 204 -->
<svg id="main" version="1.1" xmlns="http://www.w3.org/2000/svg" xmlns:xlink="http://www.w3.org/1999/xlink" xml:space="preserve" onload="init(evt)">
<style type="text/css"><![CDATA[
.edge:hover path { stroke: red; }
.edge:hover polygon { stroke: red; fill: red; }
]]></style>
<script type="text/javascript"><![CDATA[
var edges = document.getElementsByTagName('g');
if (edges && edges.length) {
  for (var i=0;i<edges.length;i++) {
    if (edges[i].id.substr(0,4)=='edge') {
      edges[i].setAttribute('class','edge');
    }
  }
}
]]></script>
        <defs>
                <circle id="rim" cx="0" cy="0" r="7"/>
                <circle id="rim2" cx="0" cy="0" r="3.5"/>
                <g id="zoomPlus">
                        <use xlink:href="#rim" fill="#404040">
                                <set attributeName="fill" to="#808080" begin="zoomplus.mouseover" end="zoomplus.mouseout"/>
                        </use>
                        <path d="M-4,0h8M0,-4v8" fill="none" stroke="white" stroke-width="1.5" pointer-events="none"/>
                </g>
                <g id="zoomMin">
                        <use xlink:href="#rim" fill="#404040">
                                <set attributeName="fill" to="#808080" begin="zoomminus.mouseover" end="zoomminus.mouseout"/>
                        </use>
                        <path d="M-4,0h8" fill="none" stroke="white" stroke-width="1.5" pointer-events="none"/>
                </g>
                <g id="dirArrow">
                        <path fill="none" stroke="white" stroke-width="1.5" d="M0,-3.0v7 M-2.5,-0.5L0,-3.0L2.5,-0.5"/>
                </g>
               <g id="resetDef">
                       <use xlink:href="#rim2" fill="#404040">
                               <set attributeName="fill" to="#808080" begin="reset.mouseover" end="reset.mouseout"/>
                       </use>
               </g>
        </defs>

<script type="text/javascript">
var viewWidth = 708;
var viewHeight = 204;
var sectionId = 'dynsection-1';
</script>
<script xlink:href="../../svgpan.js"/>
<svg id="graph" class="graph">
<g id="viewport">
<title>frontend.ConcreteFeatures.SetLineColor</title>
<polygon fill="white" stroke="none" points="-4,4 -4,-200 704,-200 704,4 -4,4"/>
<!-- Node1 -->
<g id="node1" class="node"><title>Node1</title>
<polygon fill="#bfbfbf" stroke="black" points="552,-77 552,-107 700,-107 700,-77 552,-77"/>
<text text-anchor="start" x="560" y="-95" font-family="Helvetica,sans-Serif" font-size="10.00">frontend.ConcreteFeatures.</text>
<text text-anchor="middle" x="626" y="-84" font-family="Helvetica,sans-Serif" font-size="10.00">SetLineColor</text>
</g>
<!-- Node2 -->
<g id="node2" class="node"><title>Node2</title>
<g id="a_node2"><a xlink:href="../../d1/d84/classfrontend_1_1_abstract_features_1_1_s_logo_button.html" target="_top" xlink:title="frontend.AbstractFeatures.\lSLogoButton">
<polygon fill="white" stroke="black" points="274.5,-143 274.5,-173 419.5,-173 419.5,-143 274.5,-143"/>
<text text-anchor="start" x="282.5" y="-161" font-family="Helvetica,sans-Serif" font-size="10.00">frontend.AbstractFeatures.</text>
<text text-anchor="middle" x="347" y="-150" font-family="Helvetica,sans-Serif" font-size="10.00">SLogoButton</text>
</a>
</g>
</g>
<!-- Node2&#45;&gt;Node1 -->
<g id="edge1" class="edge"><title>Node2&#45;&gt;Node1</title>
<path fill="none" stroke="midnightblue" d="M421.192,-140.561C464.864,-130.155 519.773,-117.072 561.59,-107.108"/>
<polygon fill="midnightblue" stroke="midnightblue" points="420.119,-137.218 411.202,-142.941 421.741,-144.028 420.119,-137.218"/>
</g>
<!-- Node3 -->
<g id="node3" class="node"><title>Node3</title>
<g id="a_node3"><a xlink:href="../../dc/db4/classfrontend_1_1_abstract_features_1_1_g_u_i_feature.html" target="_top" xlink:title="frontend.AbstractFeatures.\lGUIFeature">
<polygon fill="white" stroke="black" points="4.5,-165 4.5,-195 149.5,-195 149.5,-165 4.5,-165"/>
<text text-anchor="start" x="12.5" y="-183" font-family="Helvetica,sans-Serif" font-size="10.00">frontend.AbstractFeatures.</text>
<text text-anchor="middle" x="77" y="-172" font-family="Helvetica,sans-Serif" font-size="10.00">GUIFeature</text>
</a>
</g>
</g>
<!-- Node3&#45;&gt;Node2 -->
<g id="edge2" class="edge"><title>Node3&#45;&gt;Node2</title>
<path fill="none" stroke="midnightblue" d="M159.957,-173.272C196.517,-170.271 239.196,-166.768 274.448,-163.874"/>
<polygon fill="midnightblue" stroke="midnightblue" points="159.499,-169.798 149.819,-174.104 160.072,-176.774 159.499,-169.798"/>
</g>
<!-- Node4 -->
<g id="node4" class="node"><title>Node4</title>
<g id="a_node4"><a xlink:href="../../d4/d7e/classturtle_classes_1_1_turtle_collection.html" target="_top" xlink:title="turtleClasses.TurtleCollection">
<polygon fill="white" stroke="black" points="270,-82.5 270,-101.5 424,-101.5 424,-82.5 270,-82.5"/>
<text text-anchor="middle" x="347" y="-89.5" font-family="Helvetica,sans-Serif" font-size="10.00">turtleClasses.TurtleCollection</text>
</a>
</g>
</g>
<!-- Node4&#45;&gt;Node1 -->
<g id="edge3" class="edge"><title>Node4&#45;&gt;Node1</title>
<path fill="none" stroke="#9a32cd" stroke-dasharray="5,2" d="M434.522,-92C472.226,-92 515.942,-92 551.977,-92"/>
<polygon fill="#9a32cd" stroke="#9a32cd" points="434.058,-88.5001 424.058,-92 434.058,-95.5001 434.058,-88.5001"/>
<text text-anchor="middle" x="488" y="-95" font-family="Helvetica,sans-Serif" font-size="10.00"> myTurtleCollection</text>
</g>
<!-- Node5 -->
<g id="node5" class="node"><title>Node5</title>
<polygon fill="white" stroke="#bfbfbf" points="26.5,-126.5 26.5,-145.5 127.5,-145.5 127.5,-126.5 26.5,-126.5"/>
<text text-anchor="middle" x="77" y="-133.5" font-family="Helvetica,sans-Serif" font-size="10.00">Iterable&lt; Turtle &gt;</text>
</g>
<!-- Node5&#45;&gt;Node4 -->
<g id="edge4" class="edge"><title>Node5&#45;&gt;Node4</title>
<path fill="none" stroke="midnightblue" d="M137.667,-126.204C182.535,-118.837 243.668,-108.801 288.101,-101.506"/>
<polygon fill="midnightblue" stroke="midnightblue" points="137.081,-122.753 127.781,-127.827 138.216,-129.661 137.081,-122.753"/>
</g>
<!-- Node6 -->
<g id="node6" class="node"><title>Node6</title>
<polygon fill="white" stroke="#bfbfbf" points="0.5,-77 0.5,-107 153.5,-107 153.5,-77 0.5,-77"/>
<text text-anchor="start" x="8.5" y="-95" font-family="Helvetica,sans-Serif" font-size="10.00">Map&lt; Integer, turtleClasses.</text>
<text text-anchor="middle" x="77" y="-84" font-family="Helvetica,sans-Serif" font-size="10.00">Turtle &gt;</text>
</g>
<!-- Node6&#45;&gt;Node4 -->
<g id="edge5" class="edge"><title>Node6&#45;&gt;Node4</title>
<path fill="none" stroke="#9a32cd" stroke-dasharray="5,2" d="M164.13,-92C198.19,-92 237.002,-92 269.999,-92"/>
<polygon fill="#9a32cd" stroke="#9a32cd" points="163.723,-88.5001 153.723,-92 163.723,-95.5001 163.723,-88.5001"/>
<text text-anchor="middle" x="212" y="-95" font-family="Helvetica,sans-Serif" font-size="10.00"> myTurtles</text>
</g>
<!-- Node7 -->
<g id="node7" class="node"><title>Node7</title>
<polygon fill="white" stroke="#bfbfbf" points="4,-38.5 4,-57.5 150,-57.5 150,-38.5 4,-38.5"/>
<text text-anchor="middle" x="77" y="-45.5" font-family="Helvetica,sans-Serif" font-size="10.00">List&lt; turtleClasses.Turtle &gt;</text>
</g>
<!-- Node7&#45;&gt;Node4 -->
<g id="edge6" class="edge"><title>Node7&#45;&gt;Node4</title>
<path fill="none" stroke="#9a32cd" stroke-dasharray="5,2" d="M146.151,-59.1889C189.967,-66.3826 246.284,-75.6287 287.961,-82.4713"/>
<polygon fill="#9a32cd" stroke="#9a32cd" points="146.587,-55.7138 136.152,-57.5473 145.453,-62.6213 146.587,-55.7138"/>
<text text-anchor="middle" x="212" y="-80" font-family="Helvetica,sans-Serif" font-size="10.00"> myActiveTurtles</text>
</g>
<!-- Node8 -->
<g id="node8" class="node"><title>Node8</title>
<polygon fill="white" stroke="#bfbfbf" points="51,-0.5 51,-19.5 103,-19.5 103,-0.5 51,-0.5"/>
<text text-anchor="middle" x="77" y="-7.5" font-family="Helvetica,sans-Serif" font-size="10.00">Canvas</text>
</g>
<!-- Node8&#45;&gt;Node4 -->
<g id="edge7" class="edge"><title>Node8&#45;&gt;Node4</title>
<path fill="none" stroke="#9a32cd" stroke-dasharray="5,2" d="M113.484,-10.8584C150.728,-13.2926 209.644,-21.618 252,-49 263.197,-56.2388 258.892,-65.6247 270,-73 275.892,-76.912 282.526,-80.0187 289.357,-82.4858"/>
<polygon fill="#9a32cd" stroke="#9a32cd" points="113.3,-7.3434 103.125,-10.2971 112.921,-14.3331 113.3,-7.3434"/>
<text text-anchor="middle" x="212" y="-52" font-family="Helvetica,sans-Serif" font-size="10.00"> myCanvas</text>
</g>
<!-- Node9 -->
<g id="node9" class="node"><title>Node9</title>
<polygon fill="white" stroke="#bfbfbf" points="312,-44.5 312,-63.5 382,-63.5 382,-44.5 312,-44.5"/>
<text text-anchor="middle" x="347" y="-51.5" font-family="Helvetica,sans-Serif" font-size="10.00">ColorPicker</text>
</g>
<!-- Node9&#45;&gt;Node1 -->
<g id="edge8" class="edge"><title>Node9&#45;&gt;Node1</title>
<path fill="none" stroke="#9a32cd" stroke-dasharray="5,2" d="M392.484,-58.99C430.207,-63.3439 485.723,-70.0392 534,-77 539.705,-77.8226 545.605,-78.7105 551.533,-79.629"/>
<polygon fill="#9a32cd" stroke="#9a32cd" points="392.67,-55.4886 382.337,-57.8258 391.873,-62.4429 392.67,-55.4886"/>
<text text-anchor="middle" x="488" y="-80" font-family="Helvetica,sans-Serif" font-size="10.00"> myColorPicker</text>
</g>
</g>
</svg>
        <g id="navigator" transform="translate(0 0)" fill="#404254">
                <rect fill="#f2f5e9" fill-opacity="0.5" stroke="#606060" stroke-width=".5" x="0" y="0" width="60" height="60"/>
                <use id="zoomplus" xlink:href="#zoomPlus" x="17" y="9" onmousedown="handleZoom(evt,'in')"/>
                <use id="zoomminus" xlink:href="#zoomMin" x="42" y="9" onmousedown="handleZoom(evt,'out')"/>
                <use id="reset" xlink:href="#resetDef" x="30" y="36" onmousedown="handleReset()"/>
                <g id="arrowUp" xlink:href="#dirArrow" transform="translate(30 24)" onmousedown="handlePan(0,-1)">
                  <use xlink:href="#rim" fill="#404040">
                        <set attributeName="fill" to="#808080" begin="arrowUp.mouseover" end="arrowUp.mouseout"/>
                  </use>
                  <path fill="none" stroke="white" stroke-width="1.5" d="M0,-3.0v7 M-2.5,-0.5L0,-3.0L2.5,-0.5"/>
                </g>
                <g id="arrowRight" xlink:href="#dirArrow" transform="rotate(90) translate(36 -43)" onmousedown="handlePan(1,0)">
                  <use xlink:href="#rim" fill="#404040">
                        <set attributeName="fill" to="#808080" begin="arrowRight.mouseover" end="arrowRight.mouseout"/>
                  </use>
                  <path fill="none" stroke="white" stroke-width="1.5" d="M0,-3.0v7 M-2.5,-0.5L0,-3.0L2.5,-0.5"/>
                </g>
                <g id="arrowDown" xlink:href="#dirArrow" transform="rotate(180) translate(-30 -48)" onmousedown="handlePan(0,1)">
                  <use xlink:href="#rim" fill="#404040">
                        <set attributeName="fill" to="#808080" begin="arrowDown.mouseover" end="arrowDown.mouseout"/>
                  </use>
                  <path fill="none" stroke="white" stroke-width="1.5" d="M0,-3.0v7 M-2.5,-0.5L0,-3.0L2.5,-0.5"/>
                </g>
                <g id="arrowLeft" xlink:href="#dirArrow" transform="rotate(270) translate(-36 17)" onmousedown="handlePan(-1,0)">
                  <use xlink:href="#rim" fill="#404040">
                        <set attributeName="fill" to="#808080" begin="arrowLeft.mouseover" end="arrowLeft.mouseout"/>
                  </use>
                  <path fill="none" stroke="white" stroke-width="1.5" d="M0,-3.0v7 M-2.5,-0.5L0,-3.0L2.5,-0.5"/>
                </g>
        </g>
        <svg viewBox="0 0 15 15" width="100%" height="30px" preserveAspectRatio="xMaxYMin meet">
         <g id="arrow_out" transform="scale(0.3 0.3)">
          <a xlink:href="classfrontend_1_1_concrete_features_1_1_set_line_color__coll__graph_org.svg" target="_base">
           <rect id="button" ry="5" rx="5" y="6" x="6" height="38" width="38"
                fill="#f2f5e9" fill-opacity="0.5" stroke="#606060" stroke-width="1.0"/>
           <path id="arrow"
             d="M 11.500037,31.436501 C 11.940474,20.09759 22.043105,11.32322 32.158766,21.979434 L 37.068811,17.246167 C 37.068811,17.246167 37.088388,32 37.088388,32 L 22.160133,31.978069 C 22.160133,31.978069 26.997745,27.140456 26.997745,27.140456 C 18.528582,18.264221 13.291696,25.230495 11.500037,31.436501 z"
             style="fill:#404040;"/>
          </a>
         </g>
        </svg>
</svg>
