<?xml version="1.0" encoding="UTF-8" standalone="no"?>
<!DOCTYPE svg PUBLIC "-//W3C//DTD SVG 1.1//EN"
 "http://www.w3.org/Graphics/SVG/1.1/DTD/svg11.dtd">
<!-- Generated by graphviz version 2.36.0 (20140111.2315)
 -->
<!-- Title: displayCommands.ClearStamps Pages: 1 -->
<svg width="235pt" height="284pt"
 viewBox="0.00 0.00 235.00 284.00" xmlns="http://www.w3.org/2000/svg" xmlns:xlink="http://www.w3.org/1999/xlink">
<g id="graph0" class="graph" transform="scale(1 1) rotate(0) translate(4 280)">
<title>displayCommands.ClearStamps</title>
<polygon fill="white" stroke="none" points="-4,4 -4,-280 231,-280 231,4 -4,4"/>
<!-- Node1 -->
<g id="node1" class="node"><title>Node1</title>
<polygon fill="#bfbfbf" stroke="black" points="0,-0.5 0,-19.5 170,-19.5 170,-0.5 0,-0.5"/>
<text text-anchor="middle" x="85" y="-7.5" font-family="Helvetica,sans-Serif" font-size="10.00">displayCommands.ClearStamps</text>
</g>
<!-- Node2 -->
<g id="node2" class="node"><title>Node2</title>
<g id="a_node2"><a xlink:href="../../dd/d33/classdisplay_commands_1_1_clear_objects.html" target="_top" xlink:title="displayCommands.ClearObjects">
<polygon fill="white" stroke="black" points="0.5,-58.5 0.5,-77.5 169.5,-77.5 169.5,-58.5 0.5,-58.5"/>
<text text-anchor="middle" x="85" y="-65.5" font-family="Helvetica,sans-Serif" font-size="10.00">displayCommands.ClearObjects</text>
</a>
</g>
</g>
<!-- Node2&#45;&gt;Node1 -->
<g id="edge1" class="edge"><title>Node2&#45;&gt;Node1</title>
<path fill="none" stroke="midnightblue" d="M85,-47.953C85,-38.2875 85,-27.0312 85,-19.5052"/>
<polygon fill="midnightblue" stroke="midnightblue" points="81.5001,-48.25 85,-58.25 88.5001,-48.25 81.5001,-48.25"/>
</g>
<!-- Node3 -->
<g id="node3" class="node"><title>Node3</title>
<g id="a_node3"><a xlink:href="../../d6/d49/classdisplay_commands_1_1_display_node.html" target="_top" xlink:title="displayCommands.DisplayNode">
<polygon fill="white" stroke="black" points="1,-116.5 1,-135.5 169,-135.5 169,-116.5 1,-116.5"/>
<text text-anchor="middle" x="85" y="-123.5" font-family="Helvetica,sans-Serif" font-size="10.00">displayCommands.DisplayNode</text>
</a>
</g>
</g>
<!-- Node3&#45;&gt;Node2 -->
<g id="edge2" class="edge"><title>Node3&#45;&gt;Node2</title>
<path fill="none" stroke="midnightblue" d="M85,-105.953C85,-96.2875 85,-85.0312 85,-77.5052"/>
<polygon fill="midnightblue" stroke="midnightblue" points="81.5001,-106.25 85,-116.25 88.5001,-106.25 81.5001,-106.25"/>
</g>
<!-- Node4 -->
<g id="node4" class="node"><title>Node4</title>
<g id="a_node4"><a xlink:href="../../db/da5/classexpression_tree_1_1_expression_node.html" target="_top" xlink:title="expressionTree.ExpressionNode">
<polygon fill="white" stroke="black" points="1,-175.5 1,-194.5 169,-194.5 169,-175.5 1,-175.5"/>
<text text-anchor="middle" x="85" y="-182.5" font-family="Helvetica,sans-Serif" font-size="10.00">expressionTree.ExpressionNode</text>
</a>
</g>
</g>
<!-- Node4&#45;&gt;Node3 -->
<g id="edge3" class="edge"><title>Node4&#45;&gt;Node3</title>
<path fill="none" stroke="midnightblue" d="M85,-164.933C85,-155.024 85,-143.401 85,-135.657"/>
<polygon fill="midnightblue" stroke="midnightblue" points="81.5001,-165.094 85,-175.094 88.5001,-165.094 81.5001,-165.094"/>
</g>
<!-- Node4&#45;&gt;Node4 -->
<g id="edge5" class="edge"><title>Node4&#45;&gt;Node4</title>
<path fill="none" stroke="#9a32cd" stroke-dasharray="5,2" d="M179.372,-188.469C183.558,-187.584 186,-186.428 186,-185 186,-182.656 179.424,-181.045 169.356,-180.166"/>
<polygon fill="#9a32cd" stroke="#9a32cd" points="178.791,-185.015 169.356,-189.834 179.737,-191.951 178.791,-185.015"/>
<text text-anchor="middle" x="206" y="-188" font-family="Helvetica,sans-Serif" font-size="10.00"> myLeft</text>
<text text-anchor="middle" x="206" y="-177" font-family="Helvetica,sans-Serif" font-size="10.00">myRight</text>
</g>
<!-- Node5 -->
<g id="node5" class="node"><title>Node5</title>
<polygon fill="white" stroke="#bfbfbf" points="0,-245 0,-275 170,-275 170,-245 0,-245"/>
<text text-anchor="start" x="8" y="-263" font-family="Helvetica,sans-Serif" font-size="10.00">List&lt; displayCommands.Display</text>
<text text-anchor="middle" x="85" y="-252" font-family="Helvetica,sans-Serif" font-size="10.00">Node &gt;</text>
</g>
<!-- Node5&#45;&gt;Node4 -->
<g id="edge4" class="edge"><title>Node5&#45;&gt;Node4</title>
<path fill="none" stroke="#9a32cd" stroke-dasharray="5,2" d="M85,-234.574C85,-220.751 85,-204.325 85,-194.553"/>
<polygon fill="#9a32cd" stroke="#9a32cd" points="81.5001,-234.925 85,-244.925 88.5001,-234.925 81.5001,-234.925"/>
<text text-anchor="middle" x="120" y="-217.5" font-family="Helvetica,sans-Serif" font-size="10.00"> instructionList</text>
</g>
</g>
</svg>
