<?xml version="1.0" encoding="UTF-8" standalone="no"?>
<!DOCTYPE svg PUBLIC "-//W3C//DTD SVG 1.1//EN"
 "http://www.w3.org/Graphics/SVG/1.1/DTD/svg11.dtd">
<!-- Generated by graphviz version 2.36.0 (20140111.2315)
 -->
<!-- Title: displayCommands.SetPalette Pages: 1 -->
<svg width="337pt" height="228pt"
 viewBox="0.00 0.00 337.00 228.00" xmlns="http://www.w3.org/2000/svg" xmlns:xlink="http://www.w3.org/1999/xlink">
<g id="graph0" class="graph" transform="scale(1 1) rotate(0) translate(4 224)">
<title>displayCommands.SetPalette</title>
<polygon fill="white" stroke="none" points="-4,4 -4,-224 333,-224 333,4 -4,4"/>
<!-- Node1 -->
<g id="node1" class="node"><title>Node1</title>
<polygon fill="#bfbfbf" stroke="black" points="43,-0.5 43,-19.5 201,-19.5 201,-0.5 43,-0.5"/>
<text text-anchor="middle" x="122" y="-7.5" font-family="Helvetica,sans-Serif" font-size="10.00">displayCommands.SetPalette</text>
</g>
<!-- Node2 -->
<g id="node2" class="node"><title>Node2</title>
<g id="a_node2"><a xlink:href="../../d6/d49/classdisplay_commands_1_1_display_node.html" target="_top" xlink:title="displayCommands.DisplayNode">
<polygon fill="white" stroke="black" points="161,-59.5 161,-78.5 329,-78.5 329,-59.5 161,-59.5"/>
<text text-anchor="middle" x="245" y="-66.5" font-family="Helvetica,sans-Serif" font-size="10.00">displayCommands.DisplayNode</text>
</a>
</g>
</g>
<!-- Node2&#45;&gt;Node1 -->
<g id="edge1" class="edge"><title>Node2&#45;&gt;Node1</title>
<path fill="none" stroke="midnightblue" d="M217.498,-55.255C194.045,-44.3865 160.972,-29.0604 140.54,-19.5918"/>
<polygon fill="midnightblue" stroke="midnightblue" points="216.041,-58.4374 226.586,-59.4665 218.984,-52.0863 216.041,-58.4374"/>
</g>
<!-- Node3 -->
<g id="node3" class="node"><title>Node3</title>
<g id="a_node3"><a xlink:href="../../db/da5/classexpression_tree_1_1_expression_node.html" target="_top" xlink:title="expressionTree.ExpressionNode">
<polygon fill="white" stroke="black" points="1,-119.5 1,-138.5 169,-138.5 169,-119.5 1,-119.5"/>
<text text-anchor="middle" x="85" y="-126.5" font-family="Helvetica,sans-Serif" font-size="10.00">expressionTree.ExpressionNode</text>
</a>
</g>
</g>
<!-- Node3&#45;&gt;Node1 -->
<g id="edge5" class="edge"><title>Node3&#45;&gt;Node1</title>
<path fill="none" stroke="#9a32cd" stroke-dasharray="5,2" d="M80.3725,-109.324C77.6857,-94.864 75.9019,-74.5743 82,-58 87.7717,-42.313 101.363,-28.2917 111.1,-19.7311"/>
<polygon fill="#9a32cd" stroke="#9a32cd" points="77.0385,-110.463 82.5876,-119.488 83.8779,-108.972 77.0385,-110.463"/>
<text text-anchor="middle" x="117" y="-72" font-family="Helvetica,sans-Serif" font-size="10.00"> myIndexNode</text>
<text text-anchor="middle" x="117" y="-61" font-family="Helvetica,sans-Serif" font-size="10.00">myBlueNode</text>
</g>
<!-- Node3&#45;&gt;Node2 -->
<g id="edge2" class="edge"><title>Node3&#45;&gt;Node2</title>
<path fill="none" stroke="midnightblue" d="M118.057,-116.017C148.834,-104.86 193.956,-88.5034 221.295,-78.5932"/>
<polygon fill="midnightblue" stroke="midnightblue" points="116.817,-112.743 108.609,-119.442 119.203,-119.324 116.817,-112.743"/>
</g>
<!-- Node3&#45;&gt;Node3 -->
<g id="edge4" class="edge"><title>Node3&#45;&gt;Node3</title>
<path fill="none" stroke="#9a32cd" stroke-dasharray="5,2" d="M179.372,-132.469C183.558,-131.584 186,-130.428 186,-129 186,-126.656 179.424,-125.045 169.356,-124.166"/>
<polygon fill="#9a32cd" stroke="#9a32cd" points="178.791,-129.015 169.356,-133.834 179.737,-135.951 178.791,-129.015"/>
<text text-anchor="middle" x="206" y="-132" font-family="Helvetica,sans-Serif" font-size="10.00"> myLeft</text>
<text text-anchor="middle" x="206" y="-121" font-family="Helvetica,sans-Serif" font-size="10.00">myRight</text>
</g>
<!-- Node4 -->
<g id="node4" class="node"><title>Node4</title>
<polygon fill="white" stroke="#bfbfbf" points="0,-189 0,-219 170,-219 170,-189 0,-189"/>
<text text-anchor="start" x="8" y="-207" font-family="Helvetica,sans-Serif" font-size="10.00">List&lt; displayCommands.Display</text>
<text text-anchor="middle" x="85" y="-196" font-family="Helvetica,sans-Serif" font-size="10.00">Node &gt;</text>
</g>
<!-- Node4&#45;&gt;Node3 -->
<g id="edge3" class="edge"><title>Node4&#45;&gt;Node3</title>
<path fill="none" stroke="#9a32cd" stroke-dasharray="5,2" d="M85,-178.574C85,-164.751 85,-148.325 85,-138.553"/>
<polygon fill="#9a32cd" stroke="#9a32cd" points="81.5001,-178.925 85,-188.925 88.5001,-178.925 81.5001,-178.925"/>
<text text-anchor="middle" x="120" y="-161.5" font-family="Helvetica,sans-Serif" font-size="10.00"> instructionList</text>
</g>
</g>
</svg>
