<?xml version="1.0" encoding="UTF-8" standalone="no"?>
<!DOCTYPE svg PUBLIC "-//W3C//DTD SVG 1.1//EN"
 "http://www.w3.org/Graphics/SVG/1.1/DTD/svg11.dtd">
<!-- Generated by graphviz version 2.36.0 (20140111.2315)
 -->
<!-- Title: turtleClasses.TurtleSnapshot.update Pages: 1 -->
<svg width="628pt" height="126pt"
 viewBox="0.00 0.00 628.00 126.00" xmlns="http://www.w3.org/2000/svg" xmlns:xlink="http://www.w3.org/1999/xlink">
<g id="graph0" class="graph" transform="scale(1 1) rotate(0) translate(4 122)">
<title>turtleClasses.TurtleSnapshot.update</title>
<polygon fill="white" stroke="none" points="-4,4 -4,-122 624,-122 624,4 -4,4"/>
<!-- Node1 -->
<g id="node1" class="node"><title>Node1</title>
<polygon fill="#bfbfbf" stroke="black" points="0,-44.5 0,-63.5 190,-63.5 190,-44.5 0,-44.5"/>
<text text-anchor="middle" x="95" y="-51.5" font-family="Helvetica,sans-Serif" font-size="10.00">turtleClasses.TurtleSnapshot.update</text>
</g>
<!-- Node2 -->
<g id="node2" class="node"><title>Node2</title>
<g id="a_node2"><a xlink:href="../../d3/d17/classturtle_classes_1_1_turtle_mover.html#a955db4be8fe596975332813b98a0cecf" target="_top" xlink:title="turtleClasses.TurtleMover.start\lDrawing">
<polygon fill="white" stroke="black" points="226.5,-39 226.5,-69 387.5,-69 387.5,-39 226.5,-39"/>
<text text-anchor="start" x="234.5" y="-57" font-family="Helvetica,sans-Serif" font-size="10.00">turtleClasses.TurtleMover.start</text>
<text text-anchor="middle" x="307" y="-46" font-family="Helvetica,sans-Serif" font-size="10.00">Drawing</text>
</a>
</g>
</g>
<!-- Node1&#45;&gt;Node2 -->
<g id="edge1" class="edge"><title>Node1&#45;&gt;Node2</title>
<path fill="none" stroke="midnightblue" d="M200.493,-54C209.233,-54 217.978,-54 226.485,-54"/>
<polygon fill="midnightblue" stroke="midnightblue" points="200.25,-50.5001 190.25,-54 200.25,-57.5001 200.25,-50.5001"/>
</g>
<!-- Node3 -->
<g id="node3" class="node"><title>Node3</title>
<g id="a_node3"><a xlink:href="../../d8/dc1/classfrontend_1_1_concrete_features_1_1_command_executer.html#a14b9b724db30e6cc89f62304f7bf40b2" target="_top" xlink:title="frontend.ConcreteFeatures.\lCommandExecuter.action">
<polygon fill="white" stroke="black" points="448,-88 448,-118 596,-118 596,-88 448,-88"/>
<text text-anchor="start" x="456" y="-106" font-family="Helvetica,sans-Serif" font-size="10.00">frontend.ConcreteFeatures.</text>
<text text-anchor="middle" x="522" y="-95" font-family="Helvetica,sans-Serif" font-size="10.00">CommandExecuter.action</text>
</a>
</g>
</g>
<!-- Node2&#45;&gt;Node3 -->
<g id="edge2" class="edge"><title>Node2&#45;&gt;Node3</title>
<path fill="none" stroke="midnightblue" d="M383.337,-71.3309C406.985,-76.7712 432.881,-82.7285 455.769,-87.9938"/>
<polygon fill="midnightblue" stroke="midnightblue" points="383.885,-67.8657 373.355,-69.0346 382.315,-74.6875 383.885,-67.8657"/>
</g>
<!-- Node4 -->
<g id="node4" class="node"><title>Node4</title>
<g id="a_node4"><a xlink:href="../../de/d9f/classfrontend_1_1_concrete_features_1_1_load_s_logo_file.html#aa491ddd476ad22ed21a358b21c01605f" target="_top" xlink:title="frontend.ConcreteFeatures.\lLoadSLogoFile.action">
<polygon fill="white" stroke="black" points="448,-39 448,-69 596,-69 596,-39 448,-39"/>
<text text-anchor="start" x="456" y="-57" font-family="Helvetica,sans-Serif" font-size="10.00">frontend.ConcreteFeatures.</text>
<text text-anchor="middle" x="522" y="-46" font-family="Helvetica,sans-Serif" font-size="10.00">LoadSLogoFile.action</text>
</a>
</g>
</g>
<!-- Node2&#45;&gt;Node4 -->
<g id="edge3" class="edge"><title>Node2&#45;&gt;Node4</title>
<path fill="none" stroke="midnightblue" d="M397.893,-54C414.537,-54 431.736,-54 447.81,-54"/>
<polygon fill="midnightblue" stroke="midnightblue" points="397.616,-50.5001 387.616,-54 397.616,-57.5001 397.616,-50.5001"/>
</g>
<!-- Node5 -->
<g id="node5" class="node"><title>Node5</title>
<g id="a_node5"><a xlink:href="../../d7/d78/classturtle_classes_1_1_turtle_key_handler.html#a7dfe582e767f31105e84278d26dbc4c1" target="_top" xlink:title="turtleClasses.TurtleKeyHandler.handle">
<polygon fill="white" stroke="black" points="424,-0.5 424,-19.5 620,-19.5 620,-0.5 424,-0.5"/>
<text text-anchor="middle" x="522" y="-7.5" font-family="Helvetica,sans-Serif" font-size="10.00">turtleClasses.TurtleKeyHandler.handle</text>
</a>
</g>
</g>
<!-- Node2&#45;&gt;Node5 -->
<g id="edge4" class="edge"><title>Node2&#45;&gt;Node5</title>
<path fill="none" stroke="midnightblue" d="M390.533,-36.9169C401.78,-34.5912 413.174,-32.2361 424,-30 440.502,-26.5916 458.585,-22.8618 474.62,-19.5563"/>
<polygon fill="midnightblue" stroke="midnightblue" points="389.79,-33.4965 380.706,-38.9494 391.208,-40.3514 389.79,-33.4965"/>
</g>
</g>
</svg>
