<?xml version="1.0" encoding="UTF-8" standalone="no"?>
<!DOCTYPE svg PUBLIC "-//W3C//DTD SVG 1.1//EN"
 "http://www.w3.org/Graphics/SVG/1.1/DTD/svg11.dtd">
<!-- Generated by graphviz version 2.36.0 (20140111.2315)
 -->
<!-- Title: turtleClasses.TurtleSnapshot.update Pages: 1 -->
<svg width="392pt" height="267pt"
 viewBox="0.00 0.00 392.00 267.00" xmlns="http://www.w3.org/2000/svg" xmlns:xlink="http://www.w3.org/1999/xlink">
<g id="graph0" class="graph" transform="scale(1 1) rotate(0) translate(4 263)">
<title>turtleClasses.TurtleSnapshot.update</title>
<polygon fill="white" stroke="none" points="-4,4 -4,-263 388,-263 388,4 -4,4"/>
<!-- Node1 -->
<g id="node1" class="node"><title>Node1</title>
<polygon fill="#bfbfbf" stroke="black" points="0,-114.5 0,-133.5 190,-133.5 190,-114.5 0,-114.5"/>
<text text-anchor="middle" x="95" y="-121.5" font-family="Helvetica,sans-Serif" font-size="10.00">turtleClasses.TurtleSnapshot.update</text>
</g>
<!-- Node2 -->
<g id="node2" class="node"><title>Node2</title>
<g id="a_node2"><a xlink:href="../../d8/d89/classturtle_classes_1_1_turtle.html#a83d46277ec7258a57d8b69797ffb42d8" target="_top" xlink:title="turtleClasses.Turtle.get\lDirection">
<polygon fill="white" stroke="black" points="242,-229 242,-259 368,-259 368,-229 242,-229"/>
<text text-anchor="start" x="250" y="-247" font-family="Helvetica,sans-Serif" font-size="10.00">turtleClasses.Turtle.get</text>
<text text-anchor="middle" x="305" y="-236" font-family="Helvetica,sans-Serif" font-size="10.00">Direction</text>
</a>
</g>
</g>
<!-- Node1&#45;&gt;Node2 -->
<g id="edge1" class="edge"><title>Node1&#45;&gt;Node2</title>
<path fill="none" stroke="midnightblue" d="M106.677,-133.691C127.932,-152.533 177.666,-194.41 226,-219 230.48,-221.279 235.209,-223.405 240.034,-225.377"/>
<polygon fill="midnightblue" stroke="midnightblue" points="238.8,-228.653 249.39,-228.98 241.315,-222.12 238.8,-228.653"/>
</g>
<!-- Node3 -->
<g id="node3" class="node"><title>Node3</title>
<g id="a_node3"><a xlink:href="../../d8/d89/classturtle_classes_1_1_turtle.html#aff48aa8a8ca4bb8a7aa40743a1a944c4" target="_top" xlink:title="turtleClasses.Turtle.getID">
<polygon fill="white" stroke="black" points="237,-190.5 237,-209.5 373,-209.5 373,-190.5 237,-190.5"/>
<text text-anchor="middle" x="305" y="-197.5" font-family="Helvetica,sans-Serif" font-size="10.00">turtleClasses.Turtle.getID</text>
</a>
</g>
</g>
<!-- Node1&#45;&gt;Node3 -->
<g id="edge2" class="edge"><title>Node1&#45;&gt;Node3</title>
<path fill="none" stroke="midnightblue" d="M114.966,-133.57C139.921,-145.868 185.38,-167.264 226,-181 233.427,-183.511 241.356,-185.836 249.207,-187.936"/>
<polygon fill="midnightblue" stroke="midnightblue" points="248.512,-191.371 259.068,-190.471 250.255,-184.591 248.512,-191.371"/>
</g>
<!-- Node4 -->
<g id="node4" class="node"><title>Node4</title>
<g id="a_node4"><a xlink:href="../../d8/d89/classturtle_classes_1_1_turtle.html#aebccf7c8d3ea7b21ea040ec199df9524" target="_top" xlink:title="turtleClasses.Turtle.getPen">
<polygon fill="white" stroke="black" points="233,-152.5 233,-171.5 377,-171.5 377,-152.5 233,-152.5"/>
<text text-anchor="middle" x="305" y="-159.5" font-family="Helvetica,sans-Serif" font-size="10.00">turtleClasses.Turtle.getPen</text>
</a>
</g>
</g>
<!-- Node1&#45;&gt;Node4 -->
<g id="edge3" class="edge"><title>Node1&#45;&gt;Node4</title>
<path fill="none" stroke="midnightblue" d="M148.219,-133.54C176.654,-138.735 212.022,-145.196 241.868,-150.649"/>
<polygon fill="midnightblue" stroke="midnightblue" points="241.294,-154.102 251.76,-152.456 242.552,-147.216 241.294,-154.102"/>
</g>
<!-- Node5 -->
<g id="node5" class="node"><title>Node5</title>
<g id="a_node5"><a xlink:href="../../d8/d89/classturtle_classes_1_1_turtle.html#a56503fbcf1cf444dc2dba7a7f07b891e" target="_top" xlink:title="turtleClasses.Turtle.getX">
<polygon fill="white" stroke="black" points="239,-114.5 239,-133.5 371,-133.5 371,-114.5 239,-114.5"/>
<text text-anchor="middle" x="305" y="-121.5" font-family="Helvetica,sans-Serif" font-size="10.00">turtleClasses.Turtle.getX</text>
</a>
</g>
</g>
<!-- Node1&#45;&gt;Node5 -->
<g id="edge4" class="edge"><title>Node1&#45;&gt;Node5</title>
<path fill="none" stroke="midnightblue" d="M190.263,-124C203.111,-124 216.159,-124 228.614,-124"/>
<polygon fill="midnightblue" stroke="midnightblue" points="228.919,-127.5 238.918,-124 228.918,-120.5 228.919,-127.5"/>
</g>
<!-- Node6 -->
<g id="node6" class="node"><title>Node6</title>
<g id="a_node6"><a xlink:href="../../d8/d89/classturtle_classes_1_1_turtle.html#a603a81ffb444aa19cecef6fc7f356e1f" target="_top" xlink:title="turtleClasses.Turtle.getY">
<polygon fill="white" stroke="black" points="239.5,-76.5 239.5,-95.5 370.5,-95.5 370.5,-76.5 239.5,-76.5"/>
<text text-anchor="middle" x="305" y="-83.5" font-family="Helvetica,sans-Serif" font-size="10.00">turtleClasses.Turtle.getY</text>
</a>
</g>
</g>
<!-- Node1&#45;&gt;Node6 -->
<g id="edge5" class="edge"><title>Node1&#45;&gt;Node6</title>
<path fill="none" stroke="midnightblue" d="M148.219,-114.46C176.654,-109.265 212.022,-102.804 241.868,-97.3511"/>
<polygon fill="midnightblue" stroke="midnightblue" points="242.552,-100.784 251.76,-95.5439 241.294,-93.8981 242.552,-100.784"/>
</g>
<!-- Node7 -->
<g id="node7" class="node"><title>Node7</title>
<g id="a_node7"><a xlink:href="../../d3/d0e/classfrontend_1_1_pen.html#a17318755b237586d312171984cbcc550" target="_top" xlink:title="frontend.Pen.isPenDown">
<polygon fill="white" stroke="black" points="238.5,-38.5 238.5,-57.5 371.5,-57.5 371.5,-38.5 238.5,-38.5"/>
<text text-anchor="middle" x="305" y="-45.5" font-family="Helvetica,sans-Serif" font-size="10.00">frontend.Pen.isPenDown</text>
</a>
</g>
</g>
<!-- Node1&#45;&gt;Node7 -->
<g id="edge6" class="edge"><title>Node1&#45;&gt;Node7</title>
<path fill="none" stroke="midnightblue" d="M114.966,-114.43C139.921,-102.132 185.38,-80.7357 226,-67 233.427,-64.4886 241.356,-62.1636 249.207,-60.0642"/>
<polygon fill="midnightblue" stroke="midnightblue" points="250.255,-63.4088 259.068,-57.5287 248.512,-56.6294 250.255,-63.4088"/>
</g>
<!-- Node8 -->
<g id="node8" class="node"><title>Node8</title>
<g id="a_node8"><a xlink:href="../../d8/d89/classturtle_classes_1_1_turtle.html#ab9f4167fbd3300aef49f2221457509af" target="_top" xlink:title="turtleClasses.Turtle.isShowing">
<polygon fill="white" stroke="black" points="226,-0.5 226,-19.5 384,-19.5 384,-0.5 226,-0.5"/>
<text text-anchor="middle" x="305" y="-7.5" font-family="Helvetica,sans-Serif" font-size="10.00">turtleClasses.Turtle.isShowing</text>
</a>
</g>
</g>
<!-- Node1&#45;&gt;Node8 -->
<g id="edge7" class="edge"><title>Node1&#45;&gt;Node8</title>
<path fill="none" stroke="midnightblue" d="M106.206,-114.302C127.014,-95.0677 176.567,-51.9712 226,-29 231.263,-26.5542 236.878,-24.4014 242.59,-22.5109"/>
<polygon fill="midnightblue" stroke="midnightblue" points="243.704,-25.8307 252.252,-19.5717 241.666,-19.1338 243.704,-25.8307"/>
</g>
</g>
</svg>
