<?xml version="1.0" encoding="UTF-8" standalone="no"?>
<!DOCTYPE svg PUBLIC "-//W3C//DTD SVG 1.1//EN"
 "http://www.w3.org/Graphics/SVG/1.1/DTD/svg11.dtd">
<!-- Generated by graphviz version 2.36.0 (20140111.2315)
 -->
<!-- Title: turtleClasses.TurtleSnapshot.getTurtleSnapshot Pages: 1 -->
<!--zoomable 306 -->
<svg id="main" version="1.1" xmlns="http://www.w3.org/2000/svg" xmlns:xlink="http://www.w3.org/1999/xlink" xml:space="preserve" onload="init(evt)">
<style type="text/css"><![CDATA[
.edge:hover path { stroke: red; }
.edge:hover polygon { stroke: red; fill: red; }
]]></style>
<script type="text/javascript"><![CDATA[
var edges = document.getElementsByTagName('g');
if (edges && edges.length) {
  for (var i=0;i<edges.length;i++) {
    if (edges[i].id.substr(0,4)=='edge') {
      edges[i].setAttribute('class','edge');
    }
  }
}
]]></script>
        <defs>
                <circle id="rim" cx="0" cy="0" r="7"/>
                <circle id="rim2" cx="0" cy="0" r="3.5"/>
                <g id="zoomPlus">
                        <use xlink:href="#rim" fill="#404040">
                                <set attributeName="fill" to="#808080" begin="zoomplus.mouseover" end="zoomplus.mouseout"/>
                        </use>
                        <path d="M-4,0h8M0,-4v8" fill="none" stroke="white" stroke-width="1.5" pointer-events="none"/>
                </g>
                <g id="zoomMin">
                        <use xlink:href="#rim" fill="#404040">
                                <set attributeName="fill" to="#808080" begin="zoomminus.mouseover" end="zoomminus.mouseout"/>
                        </use>
                        <path d="M-4,0h8" fill="none" stroke="white" stroke-width="1.5" pointer-events="none"/>
                </g>
                <g id="dirArrow">
                        <path fill="none" stroke="white" stroke-width="1.5" d="M0,-3.0v7 M-2.5,-0.5L0,-3.0L2.5,-0.5"/>
                </g>
               <g id="resetDef">
                       <use xlink:href="#rim2" fill="#404040">
                               <set attributeName="fill" to="#808080" begin="reset.mouseover" end="reset.mouseout"/>
                       </use>
               </g>
        </defs>

<script type="text/javascript">
var viewWidth = 632;
var viewHeight = 306;
var sectionId = 'dynsection-1';
</script>
<script xlink:href="../../svgpan.js"/>
<svg id="graph" class="graph">
<g id="viewport">
<title>turtleClasses.TurtleSnapshot.getTurtleSnapshot</title>
<polygon fill="white" stroke="none" points="-4,4 -4,-302 628,-302 628,4 -4,4"/>
<!-- Node1 -->
<g id="node1" class="node"><title>Node1</title>
<polygon fill="#bfbfbf" stroke="black" points="0,-159 0,-189 172,-189 172,-159 0,-159"/>
<text text-anchor="start" x="8" y="-177" font-family="Helvetica,sans-Serif" font-size="10.00">turtleClasses.TurtleSnapshot.get</text>
<text text-anchor="middle" x="86" y="-166" font-family="Helvetica,sans-Serif" font-size="10.00">TurtleSnapshot</text>
</g>
<!-- Node2 -->
<g id="node2" class="node"><title>Node2</title>
<g id="a_node2"><a xlink:href="../../de/d5c/classturtle_queries_1_1_i_d.html#aa6b4cc7779724021820ca7739aeefbd0" target="_top" xlink:title="turtleQueries.ID.evaluate">
<polygon fill="white" stroke="black" points="232,-278.5 232,-297.5 368,-297.5 368,-278.5 232,-278.5"/>
<text text-anchor="middle" x="300" y="-285.5" font-family="Helvetica,sans-Serif" font-size="10.00">turtleQueries.ID.evaluate</text>
</a>
</g>
</g>
<!-- Node1&#45;&gt;Node2 -->
<g id="edge1" class="edge"><title>Node1&#45;&gt;Node2</title>
<path fill="none" stroke="midnightblue" d="M108.89,-196.4C131.622,-218.314 169.231,-250.95 208,-269 216.34,-272.883 225.477,-275.978 234.644,-278.445"/>
<polygon fill="midnightblue" stroke="midnightblue" points="111.08,-193.645 101.492,-189.137 106.176,-198.64 111.08,-193.645"/>
</g>
<!-- Node3 -->
<g id="node3" class="node"><title>Node3</title>
<g id="a_node3"><a xlink:href="../../db/dff/classturtle_queries_1_1_y_coordinate.html#a70c892565ea4f8ed3da178fda1c7e32c" target="_top" xlink:title="turtleQueries.YCoordinate.evaluate">
<polygon fill="white" stroke="black" points="208.5,-240.5 208.5,-259.5 391.5,-259.5 391.5,-240.5 208.5,-240.5"/>
<text text-anchor="middle" x="300" y="-247.5" font-family="Helvetica,sans-Serif" font-size="10.00">turtleQueries.YCoordinate.evaluate</text>
</a>
</g>
</g>
<!-- Node1&#45;&gt;Node3 -->
<g id="edge2" class="edge"><title>Node1&#45;&gt;Node3</title>
<path fill="none" stroke="midnightblue" d="M123.046,-193.716C146.635,-205.926 178.452,-221.108 208,-231 219.172,-234.74 231.372,-237.892 243.106,-240.487"/>
<polygon fill="midnightblue" stroke="midnightblue" points="124.594,-190.576 114.112,-189.031 121.342,-196.775 124.594,-190.576"/>
</g>
<!-- Node4 -->
<g id="node4" class="node"><title>Node4</title>
<g id="a_node4"><a xlink:href="../../dd/dc8/classturtle_queries_1_1_is_pen_down.html#a4b06744ee6848a4633e573aa7505d9f9" target="_top" xlink:title="turtleQueries.IsPenDown.evaluate">
<polygon fill="white" stroke="black" points="211,-202.5 211,-221.5 389,-221.5 389,-202.5 211,-202.5"/>
<text text-anchor="middle" x="300" y="-209.5" font-family="Helvetica,sans-Serif" font-size="10.00">turtleQueries.IsPenDown.evaluate</text>
</a>
</g>
</g>
<!-- Node1&#45;&gt;Node4 -->
<g id="edge3" class="edge"><title>Node1&#45;&gt;Node4</title>
<path fill="none" stroke="midnightblue" d="M180.665,-190.789C203.054,-194.802 226.186,-198.949 245.995,-202.499"/>
<polygon fill="midnightblue" stroke="midnightblue" points="181.249,-187.338 170.788,-189.019 180.014,-194.228 181.249,-187.338"/>
</g>
<!-- Node5 -->
<g id="node5" class="node"><title>Node5</title>
<g id="a_node5"><a xlink:href="../../d9/d12/classturtle_queries_1_1_heading.html#aa0e95fea13c414b8bf4cdc10f4ba6134" target="_top" xlink:title="turtleQueries.Heading.evaluate">
<polygon fill="white" stroke="black" points="217,-164.5 217,-183.5 383,-183.5 383,-164.5 217,-164.5"/>
<text text-anchor="middle" x="300" y="-171.5" font-family="Helvetica,sans-Serif" font-size="10.00">turtleQueries.Heading.evaluate</text>
</a>
</g>
</g>
<!-- Node1&#45;&gt;Node5 -->
<g id="edge4" class="edge"><title>Node1&#45;&gt;Node5</title>
<path fill="none" stroke="midnightblue" d="M182.102,-174C193.656,-174 205.385,-174 216.732,-174"/>
<polygon fill="midnightblue" stroke="midnightblue" points="182.007,-170.5 172.007,-174 182.007,-177.5 182.007,-170.5"/>
</g>
<!-- Node6 -->
<g id="node6" class="node"><title>Node6</title>
<g id="a_node6"><a xlink:href="../../de/dc6/classturtle_queries_1_1_x_coordinate.html#afffa54d3bdc77f15330788b8de016198" target="_top" xlink:title="turtleQueries.XCoordinate.evaluate">
<polygon fill="white" stroke="black" points="208,-126.5 208,-145.5 392,-145.5 392,-126.5 208,-126.5"/>
<text text-anchor="middle" x="300" y="-133.5" font-family="Helvetica,sans-Serif" font-size="10.00">turtleQueries.XCoordinate.evaluate</text>
</a>
</g>
</g>
<!-- Node1&#45;&gt;Node6 -->
<g id="edge5" class="edge"><title>Node1&#45;&gt;Node6</title>
<path fill="none" stroke="midnightblue" d="M180.665,-157.211C203.054,-153.198 226.186,-149.051 245.995,-145.501"/>
<polygon fill="midnightblue" stroke="midnightblue" points="180.014,-153.772 170.788,-158.981 181.249,-160.662 180.014,-153.772"/>
</g>
<!-- Node7 -->
<g id="node7" class="node"><title>Node7</title>
<g id="a_node7"><a xlink:href="../../da/dc2/classturtle_queries_1_1_is_showing.html#ae07f20b5292e17a48ec71737dbcad192" target="_top" xlink:title="turtleQueries.IsShowing.evaluate">
<polygon fill="white" stroke="black" points="213.5,-88.5 213.5,-107.5 386.5,-107.5 386.5,-88.5 213.5,-88.5"/>
<text text-anchor="middle" x="300" y="-95.5" font-family="Helvetica,sans-Serif" font-size="10.00">turtleQueries.IsShowing.evaluate</text>
</a>
</g>
</g>
<!-- Node1&#45;&gt;Node7 -->
<g id="edge6" class="edge"><title>Node1&#45;&gt;Node7</title>
<path fill="none" stroke="midnightblue" d="M123.046,-154.284C146.635,-142.074 178.452,-126.892 208,-117 219.172,-113.26 231.372,-110.108 243.106,-107.513"/>
<polygon fill="midnightblue" stroke="midnightblue" points="121.342,-151.225 114.112,-158.969 124.594,-157.424 121.342,-151.225"/>
</g>
<!-- Node8 -->
<g id="node8" class="node"><title>Node8</title>
<g id="a_node8"><a xlink:href="../../d3/d17/classturtle_classes_1_1_turtle_mover.html#a955db4be8fe596975332813b98a0cecf" target="_top" xlink:title="turtleClasses.TurtleMover.start\lDrawing">
<polygon fill="white" stroke="black" points="219.5,-39 219.5,-69 380.5,-69 380.5,-39 219.5,-39"/>
<text text-anchor="start" x="227.5" y="-57" font-family="Helvetica,sans-Serif" font-size="10.00">turtleClasses.TurtleMover.start</text>
<text text-anchor="middle" x="300" y="-46" font-family="Helvetica,sans-Serif" font-size="10.00">Drawing</text>
</a>
</g>
</g>
<!-- Node1&#45;&gt;Node8 -->
<g id="edge7" class="edge"><title>Node1&#45;&gt;Node8</title>
<path fill="none" stroke="midnightblue" d="M109.52,-151.743C132.479,-130.222 170.025,-98.1402 208,-79 215.608,-75.1655 223.88,-71.8572 232.232,-69.0196"/>
<polygon fill="midnightblue" stroke="midnightblue" points="106.858,-149.444 102.031,-158.876 111.686,-154.513 106.858,-149.444"/>
</g>
<!-- Node9 -->
<g id="node9" class="node"><title>Node9</title>
<g id="a_node9"><a xlink:href="../../d8/dc1/classfrontend_1_1_concrete_features_1_1_command_executer.html#a14b9b724db30e6cc89f62304f7bf40b2" target="_top" xlink:title="frontend.ConcreteFeatures.\lCommandExecuter.action">
<polygon fill="white" stroke="black" points="452,-88 452,-118 600,-118 600,-88 452,-88"/>
<text text-anchor="start" x="460" y="-106" font-family="Helvetica,sans-Serif" font-size="10.00">frontend.ConcreteFeatures.</text>
<text text-anchor="middle" x="526" y="-95" font-family="Helvetica,sans-Serif" font-size="10.00">CommandExecuter.action</text>
</a>
</g>
</g>
<!-- Node8&#45;&gt;Node9 -->
<g id="edge8" class="edge"><title>Node8&#45;&gt;Node9</title>
<path fill="none" stroke="midnightblue" d="M379.562,-71.1854C404.61,-76.6647 432.115,-82.6815 456.4,-87.9938"/>
<polygon fill="midnightblue" stroke="midnightblue" points="380.247,-67.7525 369.73,-69.0346 378.751,-74.5908 380.247,-67.7525"/>
</g>
<!-- Node10 -->
<g id="node10" class="node"><title>Node10</title>
<g id="a_node10"><a xlink:href="../../de/d9f/classfrontend_1_1_concrete_features_1_1_load_s_logo_file.html#aa491ddd476ad22ed21a358b21c01605f" target="_top" xlink:title="frontend.ConcreteFeatures.\lLoadSLogoFile.action">
<polygon fill="white" stroke="black" points="452,-39 452,-69 600,-69 600,-39 452,-39"/>
<text text-anchor="start" x="460" y="-57" font-family="Helvetica,sans-Serif" font-size="10.00">frontend.ConcreteFeatures.</text>
<text text-anchor="middle" x="526" y="-46" font-family="Helvetica,sans-Serif" font-size="10.00">LoadSLogoFile.action</text>
</a>
</g>
</g>
<!-- Node8&#45;&gt;Node10 -->
<g id="edge9" class="edge"><title>Node8&#45;&gt;Node10</title>
<path fill="none" stroke="midnightblue" d="M390.75,-54C410.964,-54 432.185,-54 451.635,-54"/>
<polygon fill="midnightblue" stroke="midnightblue" points="390.605,-50.5001 380.605,-54 390.605,-57.5001 390.605,-50.5001"/>
</g>
<!-- Node11 -->
<g id="node11" class="node"><title>Node11</title>
<g id="a_node11"><a xlink:href="../../d7/d78/classturtle_classes_1_1_turtle_key_handler.html#a7dfe582e767f31105e84278d26dbc4c1" target="_top" xlink:title="turtleClasses.TurtleKeyHandler.handle">
<polygon fill="white" stroke="black" points="428,-0.5 428,-19.5 624,-19.5 624,-0.5 428,-0.5"/>
<text text-anchor="middle" x="526" y="-7.5" font-family="Helvetica,sans-Serif" font-size="10.00">turtleClasses.TurtleKeyHandler.handle</text>
</a>
</g>
</g>
<!-- Node8&#45;&gt;Node11 -->
<g id="edge10" class="edge"><title>Node8&#45;&gt;Node11</title>
<path fill="none" stroke="midnightblue" d="M387.59,-36.9912C417.791,-31.0589 450.594,-24.6155 476.573,-19.5124"/>
<polygon fill="midnightblue" stroke="midnightblue" points="386.599,-33.6189 377.462,-38.9808 387.949,-40.4876 386.599,-33.6189"/>
</g>
</g>
</svg>
        <g id="navigator" transform="translate(0 0)" fill="#404254">
                <rect fill="#f2f5e9" fill-opacity="0.5" stroke="#606060" stroke-width=".5" x="0" y="0" width="60" height="60"/>
                <use id="zoomplus" xlink:href="#zoomPlus" x="17" y="9" onmousedown="handleZoom(evt,'in')"/>
                <use id="zoomminus" xlink:href="#zoomMin" x="42" y="9" onmousedown="handleZoom(evt,'out')"/>
                <use id="reset" xlink:href="#resetDef" x="30" y="36" onmousedown="handleReset()"/>
                <g id="arrowUp" xlink:href="#dirArrow" transform="translate(30 24)" onmousedown="handlePan(0,-1)">
                  <use xlink:href="#rim" fill="#404040">
                        <set attributeName="fill" to="#808080" begin="arrowUp.mouseover" end="arrowUp.mouseout"/>
                  </use>
                  <path fill="none" stroke="white" stroke-width="1.5" d="M0,-3.0v7 M-2.5,-0.5L0,-3.0L2.5,-0.5"/>
                </g>
                <g id="arrowRight" xlink:href="#dirArrow" transform="rotate(90) translate(36 -43)" onmousedown="handlePan(1,0)">
                  <use xlink:href="#rim" fill="#404040">
                        <set attributeName="fill" to="#808080" begin="arrowRight.mouseover" end="arrowRight.mouseout"/>
                  </use>
                  <path fill="none" stroke="white" stroke-width="1.5" d="M0,-3.0v7 M-2.5,-0.5L0,-3.0L2.5,-0.5"/>
                </g>
                <g id="arrowDown" xlink:href="#dirArrow" transform="rotate(180) translate(-30 -48)" onmousedown="handlePan(0,1)">
                  <use xlink:href="#rim" fill="#404040">
                        <set attributeName="fill" to="#808080" begin="arrowDown.mouseover" end="arrowDown.mouseout"/>
                  </use>
                  <path fill="none" stroke="white" stroke-width="1.5" d="M0,-3.0v7 M-2.5,-0.5L0,-3.0L2.5,-0.5"/>
                </g>
                <g id="arrowLeft" xlink:href="#dirArrow" transform="rotate(270) translate(-36 17)" onmousedown="handlePan(-1,0)">
                  <use xlink:href="#rim" fill="#404040">
                        <set attributeName="fill" to="#808080" begin="arrowLeft.mouseover" end="arrowLeft.mouseout"/>
                  </use>
                  <path fill="none" stroke="white" stroke-width="1.5" d="M0,-3.0v7 M-2.5,-0.5L0,-3.0L2.5,-0.5"/>
                </g>
        </g>
        <svg viewBox="0 0 15 15" width="100%" height="30px" preserveAspectRatio="xMaxYMin meet">
         <g id="arrow_out" transform="scale(0.3 0.3)">
          <a xlink:href="classturtle_classes_1_1_turtle_snapshot_a40b94c5cc09d2877090e9ced16447e03_icgraph_org.svg" target="_base">
           <rect id="button" ry="5" rx="5" y="6" x="6" height="38" width="38"
                fill="#f2f5e9" fill-opacity="0.5" stroke="#606060" stroke-width="1.0"/>
           <path id="arrow"
             d="M 11.500037,31.436501 C 11.940474,20.09759 22.043105,11.32322 32.158766,21.979434 L 37.068811,17.246167 C 37.068811,17.246167 37.088388,32 37.088388,32 L 22.160133,31.978069 C 22.160133,31.978069 26.997745,27.140456 26.997745,27.140456 C 18.528582,18.264221 13.291696,25.230495 11.500037,31.436501 z"
             style="fill:#404040;"/>
          </a>
         </g>
        </svg>
</svg>
