<?xml version="1.0" encoding="UTF-8" standalone="no"?>
<!DOCTYPE svg PUBLIC "-//W3C//DTD SVG 1.1//EN"
 "http://www.w3.org/Graphics/SVG/1.1/DTD/svg11.dtd">
<!-- Generated by graphviz version 2.36.0 (20140111.2315)
 -->
<!-- Title: expressionTree.VariableNodeMap Pages: 1 -->
<svg width="317pt" height="108pt"
 viewBox="0.00 0.00 317.00 108.00" xmlns="http://www.w3.org/2000/svg" xmlns:xlink="http://www.w3.org/1999/xlink">
<g id="graph0" class="graph" transform="scale(1 1) rotate(0) translate(4 104)">
<title>expressionTree.VariableNodeMap</title>
<polygon fill="white" stroke="none" points="-4,4 -4,-104 313,-104 313,4 -4,4"/>
<!-- Node1 -->
<g id="node1" class="node"><title>Node1</title>
<polygon fill="#bfbfbf" stroke="black" points="13.5,-0.5 13.5,-19.5 188.5,-19.5 188.5,-0.5 13.5,-0.5"/>
<text text-anchor="middle" x="101" y="-7.5" font-family="Helvetica,sans-Serif" font-size="10.00">expressionTree.VariableNodeMap</text>
</g>
<!-- Node1&#45;&gt;Node1 -->
<g id="edge3" class="edge"><title>Node1&#45;&gt;Node1</title>
<path fill="none" stroke="#9a32cd" stroke-dasharray="5,2" d="M198.771,-14.0077C203.33,-12.9961 206,-11.6602 206,-10 206,-7.34375 199.164,-5.51758 188.697,-4.52148"/>
<polygon fill="#9a32cd" stroke="#9a32cd" points="198.086,-10.5706 188.697,-15.4785 199.097,-17.4972 198.086,-10.5706"/>
<text text-anchor="middle" x="257.5" y="-7.5" font-family="Helvetica,sans-Serif" font-size="10.00"> myVariableNodeMap</text>
</g>
<!-- Node2 -->
<g id="node2" class="node"><title>Node2</title>
<polygon fill="white" stroke="#bfbfbf" points="-0.5,-74.5 -0.5,-93.5 70.5,-93.5 70.5,-74.5 -0.5,-74.5"/>
<text text-anchor="middle" x="35" y="-81.5" font-family="Helvetica,sans-Serif" font-size="10.00">Serializable</text>
</g>
<!-- Node2&#45;&gt;Node1 -->
<g id="edge1" class="edge"><title>Node2&#45;&gt;Node1</title>
<path fill="none" stroke="midnightblue" d="M49.5881,-67.0857C63.0307,-52.421 82.4679,-31.2168 93.1799,-19.531"/>
<polygon fill="midnightblue" stroke="midnightblue" points="47.0075,-64.7213 42.8302,-74.4579 52.1676,-69.4514 47.0075,-64.7213"/>
</g>
<!-- Node3 -->
<g id="node3" class="node"><title>Node3</title>
<polygon fill="white" stroke="#bfbfbf" points="88.5,-69 88.5,-99 245.5,-99 245.5,-69 88.5,-69"/>
<text text-anchor="start" x="96.5" y="-87" font-family="Helvetica,sans-Serif" font-size="10.00">Map&lt; String, expressionTree.</text>
<text text-anchor="middle" x="167" y="-76" font-family="Helvetica,sans-Serif" font-size="10.00">VariableNode &gt;</text>
</g>
<!-- Node3&#45;&gt;Node1 -->
<g id="edge2" class="edge"><title>Node3&#45;&gt;Node1</title>
<path fill="none" stroke="#9a32cd" stroke-dasharray="5,2" d="M146.884,-61.0551C134.147,-47.1605 118.373,-29.952 109.029,-19.7589"/>
<polygon fill="#9a32cd" stroke="#9a32cd" points="144.623,-63.7686 153.961,-68.7751 149.783,-59.0385 144.623,-63.7686"/>
<text text-anchor="middle" x="165.5" y="-41.5" font-family="Helvetica,sans-Serif" font-size="10.00"> variableMap</text>
</g>
</g>
</svg>
