<?xml version="1.0" encoding="UTF-8" standalone="no"?>
<!DOCTYPE svg PUBLIC "-//W3C//DTD SVG 1.1//EN"
 "http://www.w3.org/Graphics/SVG/1.1/DTD/svg11.dtd">
<!-- Generated by graphviz version 2.36.0 (20140111.2315)
 -->
<!-- Title: frontend.SLogoCanvas Pages: 1 -->
<svg width="480pt" height="96pt"
 viewBox="0.00 0.00 480.00 96.00" xmlns="http://www.w3.org/2000/svg" xmlns:xlink="http://www.w3.org/1999/xlink">
<g id="graph0" class="graph" transform="scale(1 1) rotate(0) translate(4 92)">
<title>frontend.SLogoCanvas</title>
<polygon fill="white" stroke="none" points="-4,4 -4,-92 476,-92 476,4 -4,4"/>
<!-- Node1 -->
<g id="node1" class="node"><title>Node1</title>
<polygon fill="#bfbfbf" stroke="black" points="159.5,-0.5 159.5,-19.5 284.5,-19.5 284.5,-0.5 159.5,-0.5"/>
<text text-anchor="middle" x="222" y="-7.5" font-family="Helvetica,sans-Serif" font-size="10.00">frontend.SLogoCanvas</text>
</g>
<!-- Node2 -->
<g id="node2" class="node"><title>Node2</title>
<polygon fill="white" stroke="#bfbfbf" points="0,-68.5 0,-87.5 52,-87.5 52,-68.5 0,-68.5"/>
<text text-anchor="middle" x="26" y="-75.5" font-family="Helvetica,sans-Serif" font-size="10.00">Canvas</text>
</g>
<!-- Node2&#45;&gt;Node1 -->
<g id="edge1" class="edge"><title>Node2&#45;&gt;Node1</title>
<path fill="none" stroke="midnightblue" d="M53.3682,-64.1468C71.453,-55.9668 95.8247,-45.5332 118,-38 139.372,-30.7397 163.775,-24.3108 183.569,-19.5493"/>
<polygon fill="midnightblue" stroke="midnightblue" points="51.6566,-61.081 44.0217,-68.4267 54.571,-67.4455 51.6566,-61.081"/>
</g>
<!-- Node3 -->
<g id="node3" class="node"><title>Node3</title>
<polygon fill="white" stroke="#bfbfbf" points="70,-68.5 70,-87.5 150,-87.5 150,-68.5 70,-68.5"/>
<text text-anchor="middle" x="110" y="-75.5" font-family="Helvetica,sans-Serif" font-size="10.00">List&lt; Color &gt;</text>
</g>
<!-- Node3&#45;&gt;Node1 -->
<g id="edge2" class="edge"><title>Node3&#45;&gt;Node1</title>
<path fill="none" stroke="#9a32cd" stroke-dasharray="5,2" d="M116.656,-58.8983C120.194,-51.4897 125.237,-43.4058 132,-38 142.704,-29.4443 156.073,-23.5963 169.206,-19.6003"/>
<polygon fill="#9a32cd" stroke="#9a32cd" points="113.367,-57.6909 112.741,-68.2672 119.826,-60.3894 113.367,-57.6909"/>
<text text-anchor="middle" x="156.5" y="-41.5" font-family="Helvetica,sans-Serif" font-size="10.00"> myColors</text>
</g>
<!-- Node4 -->
<g id="node4" class="node"><title>Node4</title>
<polygon fill="white" stroke="#bfbfbf" points="168,-68.5 168,-87.5 208,-87.5 208,-68.5 168,-68.5"/>
<text text-anchor="middle" x="188" y="-75.5" font-family="Helvetica,sans-Serif" font-size="10.00">Pane</text>
</g>
<!-- Node4&#45;&gt;Node1 -->
<g id="edge3" class="edge"><title>Node4&#45;&gt;Node1</title>
<path fill="none" stroke="#9a32cd" stroke-dasharray="5,2" d="M184.029,-58.2167C183.499,-51.5367 183.976,-44.1525 187,-38 190.792,-30.2863 197.965,-24.1541 204.835,-19.6961"/>
<polygon fill="#9a32cd" stroke="#9a32cd" points="180.623,-59.0977 185.597,-68.4522 187.542,-58.0374 180.623,-59.0977"/>
<text text-anchor="middle" x="212" y="-41.5" font-family="Helvetica,sans-Serif" font-size="10.00"> myHolder</text>
</g>
<!-- Node5 -->
<g id="node5" class="node"><title>Node5</title>
<polygon fill="white" stroke="#bfbfbf" points="228.5,-68.5 228.5,-87.5 287.5,-87.5 287.5,-68.5 228.5,-68.5"/>
<text text-anchor="middle" x="258" y="-75.5" font-family="Helvetica,sans-Serif" font-size="10.00">GridPane</text>
</g>
<!-- Node5&#45;&gt;Node1 -->
<g id="edge4" class="edge"><title>Node5&#45;&gt;Node1</title>
<path fill="none" stroke="#9a32cd" stroke-dasharray="5,2" d="M248.585,-59.3975C244.981,-52.6895 240.818,-44.9807 237,-38 233.706,-31.9782 229.956,-25.2282 227.03,-19.9837"/>
<polygon fill="#9a32cd" stroke="#9a32cd" points="245.552,-61.1482 253.362,-68.308 251.722,-57.8408 245.552,-61.1482"/>
<text text-anchor="middle" x="263" y="-41.5" font-family="Helvetica,sans-Serif" font-size="10.00"> myGrid</text>
</g>
<!-- Node6 -->
<g id="node6" class="node"><title>Node6</title>
<polygon fill="white" stroke="#bfbfbf" points="305.5,-68.5 305.5,-87.5 368.5,-87.5 368.5,-68.5 305.5,-68.5"/>
<text text-anchor="middle" x="337" y="-75.5" font-family="Helvetica,sans-Serif" font-size="10.00">Rectangle</text>
</g>
<!-- Node6&#45;&gt;Node1 -->
<g id="edge5" class="edge"><title>Node6&#45;&gt;Node1</title>
<path fill="none" stroke="#9a32cd" stroke-dasharray="5,2" d="M319.491,-61.8372C309.993,-54.0806 297.808,-44.8559 286,-38 273.485,-30.7339 258.64,-24.3471 246.4,-19.6119"/>
<polygon fill="#9a32cd" stroke="#9a32cd" points="317.457,-64.6989 327.37,-68.4379 321.952,-59.333 317.457,-64.6989"/>
<text text-anchor="middle" x="342" y="-41.5" font-family="Helvetica,sans-Serif" font-size="10.00"> myBackground</text>
</g>
<!-- Node7 -->
<g id="node7" class="node"><title>Node7</title>
<polygon fill="white" stroke="#bfbfbf" points="407.5,-68.5 407.5,-87.5 448.5,-87.5 448.5,-68.5 407.5,-68.5"/>
<text text-anchor="middle" x="428" y="-75.5" font-family="Helvetica,sans-Serif" font-size="10.00">Color</text>
</g>
<!-- Node7&#45;&gt;Node1 -->
<g id="edge6" class="edge"><title>Node7&#45;&gt;Node1</title>
<path fill="none" stroke="#9a32cd" stroke-dasharray="5,2" d="M413.887,-60.736C405.932,-52.6211 395.332,-43.4067 384,-38 353.248,-23.3272 315.906,-16.4696 284.828,-13.3281"/>
<polygon fill="#9a32cd" stroke="#9a32cd" points="411.529,-63.3411 420.89,-68.3028 416.667,-58.5863 411.529,-63.3411"/>
<text text-anchor="middle" x="437" y="-41.5" font-family="Helvetica,sans-Serif" font-size="10.00"> START_COLOR</text>
</g>
</g>
</svg>
