<?xml version="1.0" encoding="UTF-8" standalone="no"?>
<!DOCTYPE svg PUBLIC "-//W3C//DTD SVG 1.1//EN"
 "http://www.w3.org/Graphics/SVG/1.1/DTD/svg11.dtd">
<!-- Generated by graphviz version 2.36.0 (20140111.2315)
 -->
<!-- Title: displayCommands.Right.doAction Pages: 1 -->
<svg width="512pt" height="38pt"
 viewBox="0.00 0.00 512.00 38.00" xmlns="http://www.w3.org/2000/svg" xmlns:xlink="http://www.w3.org/1999/xlink">
<g id="graph0" class="graph" transform="scale(1 1) rotate(0) translate(4 34)">
<title>displayCommands.Right.doAction</title>
<polygon fill="white" stroke="none" points="-4,4 -4,-34 508,-34 508,4 -4,4"/>
<!-- Node1 -->
<g id="node1" class="node"><title>Node1</title>
<polygon fill="#bfbfbf" stroke="black" points="0.5,-0 0.5,-30 147.5,-30 147.5,-0 0.5,-0"/>
<text text-anchor="start" x="8.5" y="-18" font-family="Helvetica,sans-Serif" font-size="10.00">displayCommands.Right.do</text>
<text text-anchor="middle" x="74" y="-7" font-family="Helvetica,sans-Serif" font-size="10.00">Action</text>
</g>
<!-- Node2 -->
<g id="node2" class="node"><title>Node2</title>
<g id="a_node2"><a xlink:href="../../d8/d89/classturtle_classes_1_1_turtle.html#abe6e640dc9ac91a8dc2d88e24a4337cc" target="_top" xlink:title="turtleClasses.Turtle.rotate">
<polygon fill="white" stroke="black" points="184,-5.5 184,-24.5 324,-24.5 324,-5.5 184,-5.5"/>
<text text-anchor="middle" x="254" y="-12.5" font-family="Helvetica,sans-Serif" font-size="10.00">turtleClasses.Turtle.rotate</text>
</a>
</g>
</g>
<!-- Node1&#45;&gt;Node2 -->
<g id="edge1" class="edge"><title>Node1&#45;&gt;Node2</title>
<path fill="none" stroke="midnightblue" d="M147.656,-15C156.224,-15 165.001,-15 173.654,-15"/>
<polygon fill="midnightblue" stroke="midnightblue" points="173.737,-18.5001 183.737,-15 173.737,-11.5001 173.737,-18.5001"/>
</g>
<!-- Node3 -->
<g id="node3" class="node"><title>Node3</title>
<g id="a_node3"><a xlink:href="../../d8/d89/classturtle_classes_1_1_turtle.html#a8c96196b22f46d637b9551fa1b4f4ef7" target="_top" xlink:title="turtleClasses.Turtle.handle\lDirection">
<polygon fill="white" stroke="black" points="360.5,-0 360.5,-30 503.5,-30 503.5,-0 360.5,-0"/>
<text text-anchor="start" x="368.5" y="-18" font-family="Helvetica,sans-Serif" font-size="10.00">turtleClasses.Turtle.handle</text>
<text text-anchor="middle" x="432" y="-7" font-family="Helvetica,sans-Serif" font-size="10.00">Direction</text>
</a>
</g>
</g>
<!-- Node2&#45;&gt;Node3 -->
<g id="edge2" class="edge"><title>Node2&#45;&gt;Node3</title>
<path fill="none" stroke="midnightblue" d="M324.055,-15C332.638,-15 341.473,-15 350.213,-15"/>
<polygon fill="midnightblue" stroke="midnightblue" points="350.408,-18.5001 360.408,-15 350.408,-11.5001 350.408,-18.5001"/>
</g>
</g>
</svg>
