<?xml version="1.0" encoding="UTF-8" standalone="no"?>
<!DOCTYPE svg PUBLIC "-//W3C//DTD SVG 1.1//EN"
 "http://www.w3.org/Graphics/SVG/1.1/DTD/svg11.dtd">
<!-- Generated by graphviz version 2.36.0 (20140111.2315)
 -->
<!-- Title: controlStructures.MakeUserInstruction Pages: 1 -->
<svg width="1536pt" height="235pt"
 viewBox="0.00 0.00 1536.00 235.00" xmlns="http://www.w3.org/2000/svg" xmlns:xlink="http://www.w3.org/1999/xlink">
<g id="graph0" class="graph" transform="scale(1 1) rotate(0) translate(4 231)">
<title>controlStructures.MakeUserInstruction</title>
<polygon fill="white" stroke="none" points="-4,4 -4,-231 1532,-231 1532,4 -4,4"/>
<!-- Node1 -->
<g id="node1" class="node"><title>Node1</title>
<polygon fill="#bfbfbf" stroke="black" points="1376.5,-156 1376.5,-186 1527.5,-186 1527.5,-156 1376.5,-156"/>
<text text-anchor="start" x="1384.5" y="-174" font-family="Helvetica,sans-Serif" font-size="10.00">controlStructures.MakeUser</text>
<text text-anchor="middle" x="1452" y="-163" font-family="Helvetica,sans-Serif" font-size="10.00">Instruction</text>
</g>
<!-- Node2 -->
<g id="node2" class="node"><title>Node2</title>
<g id="a_node2"><a xlink:href="../../db/da5/classexpression_tree_1_1_expression_node.html" target="_top" xlink:title="expressionTree.ExpressionNode">
<polygon fill="white" stroke="black" points="854,-167.5 854,-186.5 1022,-186.5 1022,-167.5 854,-167.5"/>
<text text-anchor="middle" x="938" y="-174.5" font-family="Helvetica,sans-Serif" font-size="10.00">expressionTree.ExpressionNode</text>
</a>
</g>
</g>
<!-- Node2&#45;&gt;Node1 -->
<g id="edge1" class="edge"><title>Node2&#45;&gt;Node1</title>
<path fill="none" stroke="midnightblue" d="M1032.3,-187.24C1034.9,-187.5 1037.47,-187.753 1040,-188 1180.67,-201.687 1217.75,-203.521 1358,-186 1364,-185.25 1370.22,-184.403 1376.45,-183.504"/>
<polygon fill="midnightblue" stroke="midnightblue" points="1032.51,-183.744 1022.21,-186.216 1031.81,-190.708 1032.51,-183.744"/>
</g>
<!-- Node2&#45;&gt;Node2 -->
<g id="edge3" class="edge"><title>Node2&#45;&gt;Node2</title>
<path fill="none" stroke="#9a32cd" stroke-dasharray="5,2" d="M914.191,-196.029C915.489,-201.128 923.426,-205 938,-205 960.75,-205 967.326,-195.565 957.729,-186.757"/>
<polygon fill="#9a32cd" stroke="#9a32cd" points="917.447,-197.32 918.271,-186.757 911.04,-194.5 917.447,-197.32"/>
<text text-anchor="middle" x="938" y="-219" font-family="Helvetica,sans-Serif" font-size="10.00"> myLeft</text>
<text text-anchor="middle" x="938" y="-208" font-family="Helvetica,sans-Serif" font-size="10.00">myRight</text>
</g>
<!-- Node4 -->
<g id="node4" class="node"><title>Node4</title>
<g id="a_node4"><a xlink:href="../../d9/de6/classexpression_tree_1_1_list_node.html" target="_top" xlink:title="expressionTree.ListNode">
<polygon fill="white" stroke="black" points="1122.5,-116.5 1122.5,-135.5 1255.5,-135.5 1255.5,-116.5 1122.5,-116.5"/>
<text text-anchor="middle" x="1189" y="-123.5" font-family="Helvetica,sans-Serif" font-size="10.00">expressionTree.ListNode</text>
</a>
</g>
</g>
<!-- Node2&#45;&gt;Node4 -->
<g id="edge5" class="edge"><title>Node2&#45;&gt;Node4</title>
<path fill="none" stroke="midnightblue" d="M995.517,-165.424C1039.55,-156.406 1099.94,-144.037 1141.26,-135.573"/>
<polygon fill="midnightblue" stroke="midnightblue" points="994.637,-162.032 985.543,-167.467 996.042,-168.889 994.637,-162.032"/>
</g>
<!-- Node13 -->
<g id="node13" class="node"><title>Node13</title>
<g id="a_node13"><a xlink:href="../../d1/db7/classexpression_tree_1_1_unrecognized_function.html" target="_top" xlink:title="expressionTree.Unrecognized\lFunction">
<polygon fill="white" stroke="black" points="1110.5,-155 1110.5,-185 1267.5,-185 1267.5,-155 1110.5,-155"/>
<text text-anchor="start" x="1118.5" y="-173" font-family="Helvetica,sans-Serif" font-size="10.00">expressionTree.Unrecognized</text>
<text text-anchor="middle" x="1189" y="-162" font-family="Helvetica,sans-Serif" font-size="10.00">Function</text>
</a>
</g>
</g>
<!-- Node2&#45;&gt;Node13 -->
<g id="edge21" class="edge"><title>Node2&#45;&gt;Node13</title>
<path fill="none" stroke="midnightblue" d="M1032.37,-174.375C1058.04,-173.653 1085.6,-172.879 1110.29,-172.185"/>
<polygon fill="midnightblue" stroke="midnightblue" points="1032.16,-170.88 1022.26,-174.659 1032.35,-177.877 1032.16,-170.88"/>
</g>
<!-- Node3 -->
<g id="node3" class="node"><title>Node3</title>
<polygon fill="white" stroke="#bfbfbf" points="578,-118 578,-148 748,-148 748,-118 578,-118"/>
<text text-anchor="start" x="586" y="-136" font-family="Helvetica,sans-Serif" font-size="10.00">List&lt; displayCommands.Display</text>
<text text-anchor="middle" x="663" y="-125" font-family="Helvetica,sans-Serif" font-size="10.00">Node &gt;</text>
</g>
<!-- Node3&#45;&gt;Node2 -->
<g id="edge2" class="edge"><title>Node3&#45;&gt;Node2</title>
<path fill="none" stroke="#9a32cd" stroke-dasharray="5,2" d="M758.111,-148.168C797.829,-154.569 842.863,-161.828 877.81,-167.46"/>
<polygon fill="#9a32cd" stroke="#9a32cd" points="758.566,-144.696 748.137,-146.56 757.452,-151.607 758.566,-144.696"/>
<text text-anchor="middle" x="801" y="-164" font-family="Helvetica,sans-Serif" font-size="10.00"> instructionList</text>
</g>
<!-- Node3&#45;&gt;Node4 -->
<g id="edge19" class="edge"><title>Node3&#45;&gt;Node4</title>
<path fill="none" stroke="#9a32cd" stroke-dasharray="5,2" d="M758.475,-131.738C863.542,-130.334 1030.52,-128.104 1122.26,-126.878"/>
<polygon fill="#9a32cd" stroke="#9a32cd" points="758.142,-128.242 748.19,-131.875 758.236,-135.241 758.142,-128.242"/>
<text text-anchor="middle" x="938" y="-134" font-family="Helvetica,sans-Serif" font-size="10.00"> myFundamentals</text>
</g>
<!-- Node5 -->
<g id="node5" class="node"><title>Node5</title>
<g id="a_node5"><a xlink:href="../../d3/dfb/classexpression_tree_1_1_expression_tree_builder.html" target="_top" xlink:title="expressionTree.Expression\lTreeBuilder">
<polygon fill="white" stroke="black" points="866.5,-62 866.5,-92 1009.5,-92 1009.5,-62 866.5,-62"/>
<text text-anchor="start" x="874.5" y="-80" font-family="Helvetica,sans-Serif" font-size="10.00">expressionTree.Expression</text>
<text text-anchor="middle" x="938" y="-69" font-family="Helvetica,sans-Serif" font-size="10.00">TreeBuilder</text>
</a>
</g>
</g>
<!-- Node3&#45;&gt;Node5 -->
<g id="edge17" class="edge"><title>Node3&#45;&gt;Node5</title>
<path fill="none" stroke="#9a32cd" stroke-dasharray="5,2" d="M732.396,-115.628C743.599,-112.958 755.104,-110.321 766,-108 798.756,-101.024 835.255,-94.2689 866.092,-88.8553"/>
<polygon fill="#9a32cd" stroke="#9a32cd" points="731.553,-112.231 722.651,-117.976 733.193,-119.036 731.553,-112.231"/>
<text text-anchor="middle" x="801" y="-111" font-family="Helvetica,sans-Serif" font-size="10.00"> outputList</text>
</g>
<!-- Node4&#45;&gt;Node1 -->
<g id="edge4" class="edge"><title>Node4&#45;&gt;Node1</title>
<path fill="none" stroke="#9a32cd" stroke-dasharray="5,2" d="M1265.86,-131.98C1294.84,-134.944 1328.11,-139.17 1358,-145 1372.64,-147.856 1388.35,-151.869 1402.6,-155.889"/>
<polygon fill="#9a32cd" stroke="#9a32cd" points="1266.09,-128.486 1255.79,-130.984 1265.4,-135.452 1266.09,-128.486"/>
<text text-anchor="middle" x="1322" y="-159" font-family="Helvetica,sans-Serif" font-size="10.00"> myVariables</text>
<text text-anchor="middle" x="1322" y="-148" font-family="Helvetica,sans-Serif" font-size="10.00">myCommands</text>
</g>
<!-- Node5&#45;&gt;Node4 -->
<g id="edge6" class="edge"><title>Node5&#45;&gt;Node4</title>
<path fill="none" stroke="#9a32cd" stroke-dasharray="5,2" d="M1019.6,-92.8602C1059.19,-100.652 1105.58,-109.781 1139.64,-116.482"/>
<polygon fill="#9a32cd" stroke="#9a32cd" points="1020.18,-89.4071 1009.69,-90.9104 1018.82,-96.2754 1020.18,-89.4071"/>
<text text-anchor="middle" x="1066" y="-109" font-family="Helvetica,sans-Serif" font-size="10.00"> myBuilder</text>
</g>
<!-- Node6 -->
<g id="node6" class="node"><title>Node6</title>
<g id="a_node6"><a xlink:href="../../d9/d55/classexpression_tree_1_1_expression_node_factory.html" target="_top" xlink:title="expressionTree.Expression\lNodeFactory">
<polygon fill="white" stroke="black" points="591.5,-58 591.5,-88 734.5,-88 734.5,-58 591.5,-58"/>
<text text-anchor="start" x="599.5" y="-76" font-family="Helvetica,sans-Serif" font-size="10.00">expressionTree.Expression</text>
<text text-anchor="middle" x="663" y="-65" font-family="Helvetica,sans-Serif" font-size="10.00">NodeFactory</text>
</a>
</g>
</g>
<!-- Node6&#45;&gt;Node5 -->
<g id="edge7" class="edge"><title>Node6&#45;&gt;Node5</title>
<path fill="none" stroke="#9a32cd" stroke-dasharray="5,2" d="M744.733,-73.0719C773.537,-73.2027 806.221,-73.4712 836,-74 845.822,-74.1744 856.18,-74.4161 866.37,-74.6872"/>
<polygon fill="#9a32cd" stroke="#9a32cd" points="744.731,-69.5719 734.717,-73.0312 744.703,-76.5719 744.731,-69.5719"/>
<text text-anchor="middle" x="801" y="-77" font-family="Helvetica,sans-Serif" font-size="10.00"> nodeGetter</text>
</g>
<!-- Node7 -->
<g id="node7" class="node"><title>Node7</title>
<g id="a_node7"><a xlink:href="../../d8/d36/classexpression_tree_1_1_user_function_map.html" target="_top" xlink:title="expressionTree.UserFunctionMap">
<polygon fill="white" stroke="black" points="281.5,-105.5 281.5,-124.5 454.5,-124.5 454.5,-105.5 281.5,-105.5"/>
<text text-anchor="middle" x="368" y="-112.5" font-family="Helvetica,sans-Serif" font-size="10.00">expressionTree.UserFunctionMap</text>
</a>
</g>
</g>
<!-- Node7&#45;&gt;Node6 -->
<g id="edge8" class="edge"><title>Node7&#45;&gt;Node6</title>
<path fill="none" stroke="#9a32cd" stroke-dasharray="5,2" d="M445.518,-104.032C490.654,-97.5615 547.375,-89.4309 591.433,-83.1154"/>
<polygon fill="#9a32cd" stroke="#9a32cd" points="444.888,-100.586 435.486,-105.47 445.882,-107.515 444.888,-100.586"/>
<text text-anchor="middle" x="517" y="-102" font-family="Helvetica,sans-Serif" font-size="10.00"> myUserFunctions</text>
</g>
<!-- Node7&#45;&gt;Node7 -->
<g id="edge10" class="edge"><title>Node7&#45;&gt;Node7</title>
<path fill="none" stroke="#9a32cd" stroke-dasharray="5,2" d="M340.374,-133.654C341.529,-138.937 350.738,-143 368,-143 394.305,-143 401.908,-133.565 390.811,-124.757"/>
<polygon fill="#9a32cd" stroke="#9a32cd" points="343.508,-135.218 345.189,-124.757 337.351,-131.886 343.508,-135.218"/>
<text text-anchor="middle" x="368" y="-146" font-family="Helvetica,sans-Serif" font-size="10.00"> myUserFunctionMap</text>
</g>
<!-- Node8 -->
<g id="node8" class="node"><title>Node8</title>
<polygon fill="white" stroke="#bfbfbf" points="43.5,-72.5 43.5,-91.5 114.5,-91.5 114.5,-72.5 43.5,-72.5"/>
<text text-anchor="middle" x="79" y="-79.5" font-family="Helvetica,sans-Serif" font-size="10.00">Serializable</text>
</g>
<!-- Node8&#45;&gt;Node7 -->
<g id="edge9" class="edge"><title>Node8&#45;&gt;Node7</title>
<path fill="none" stroke="midnightblue" d="M124.657,-87.1348C167.178,-92.0239 232.218,-99.5024 284.216,-105.481"/>
<polygon fill="midnightblue" stroke="midnightblue" points="124.953,-83.6459 114.619,-85.9806 124.154,-90.6 124.953,-83.6459"/>
</g>
<!-- Node10 -->
<g id="node10" class="node"><title>Node10</title>
<g id="a_node10"><a xlink:href="../../de/d4e/classexpression_tree_1_1_variable_node_map.html" target="_top" xlink:title="expressionTree.VariableNodeMap">
<polygon fill="white" stroke="black" points="280.5,-38.5 280.5,-57.5 455.5,-57.5 455.5,-38.5 280.5,-38.5"/>
<text text-anchor="middle" x="368" y="-45.5" font-family="Helvetica,sans-Serif" font-size="10.00">expressionTree.VariableNodeMap</text>
</a>
</g>
</g>
<!-- Node8&#45;&gt;Node10 -->
<g id="edge13" class="edge"><title>Node8&#45;&gt;Node10</title>
<path fill="none" stroke="midnightblue" d="M124.808,-76.6918C167.989,-71.5762 234.295,-63.7211 286.619,-57.5225"/>
<polygon fill="midnightblue" stroke="midnightblue" points="124.138,-73.2466 114.619,-77.8988 124.961,-80.198 124.138,-73.2466"/>
</g>
<!-- Node9 -->
<g id="node9" class="node"><title>Node9</title>
<polygon fill="white" stroke="#bfbfbf" points="0.5,-111 0.5,-141 157.5,-141 157.5,-111 0.5,-111"/>
<text text-anchor="start" x="8.5" y="-129" font-family="Helvetica,sans-Serif" font-size="10.00">Map&lt; String, expressionTree.</text>
<text text-anchor="middle" x="79" y="-118" font-family="Helvetica,sans-Serif" font-size="10.00">ListNode &gt;</text>
</g>
<!-- Node9&#45;&gt;Node7 -->
<g id="edge11" class="edge"><title>Node9&#45;&gt;Node7</title>
<path fill="none" stroke="#9a32cd" stroke-dasharray="5,2" d="M167.699,-122.639C203.827,-121.254 245.545,-119.655 281.447,-118.279"/>
<polygon fill="#9a32cd" stroke="#9a32cd" points="167.525,-119.143 157.666,-123.023 167.793,-126.138 167.525,-119.143"/>
<text text-anchor="middle" x="219" y="-126" font-family="Helvetica,sans-Serif" font-size="10.00"> userFunctionMap</text>
</g>
<!-- Node10&#45;&gt;Node6 -->
<g id="edge12" class="edge"><title>Node10&#45;&gt;Node6</title>
<path fill="none" stroke="#9a32cd" stroke-dasharray="5,2" d="M465.729,-56.2534C506.713,-59.7503 553.595,-63.7504 591.26,-66.9641"/>
<polygon fill="#9a32cd" stroke="#9a32cd" points="465.982,-52.7623 455.72,-55.3994 465.387,-59.7369 465.982,-52.7623"/>
<text text-anchor="middle" x="517" y="-68" font-family="Helvetica,sans-Serif" font-size="10.00"> myVariables</text>
</g>
<!-- Node10&#45;&gt;Node10 -->
<g id="edge15" class="edge"><title>Node10&#45;&gt;Node10</title>
<path fill="none" stroke="#9a32cd" stroke-dasharray="5,2" d="M340.374,-66.6539C341.529,-71.9368 350.738,-76 368,-76 394.305,-76 401.908,-66.5653 390.811,-57.7571"/>
<polygon fill="#9a32cd" stroke="#9a32cd" points="343.508,-68.2176 345.189,-57.7571 337.351,-64.886 343.508,-68.2176"/>
<text text-anchor="middle" x="368" y="-79" font-family="Helvetica,sans-Serif" font-size="10.00"> myVariableNodeMap</text>
</g>
<!-- Node11 -->
<g id="node11" class="node"><title>Node11</title>
<polygon fill="white" stroke="#bfbfbf" points="0.5,-23 0.5,-53 157.5,-53 157.5,-23 0.5,-23"/>
<text text-anchor="start" x="8.5" y="-41" font-family="Helvetica,sans-Serif" font-size="10.00">Map&lt; String, expressionTree.</text>
<text text-anchor="middle" x="79" y="-30" font-family="Helvetica,sans-Serif" font-size="10.00">VariableNode &gt;</text>
</g>
<!-- Node11&#45;&gt;Node10 -->
<g id="edge14" class="edge"><title>Node11&#45;&gt;Node10</title>
<path fill="none" stroke="#9a32cd" stroke-dasharray="5,2" d="M167.531,-37.8095C197.499,-38.0505 231.226,-38.66 262,-40 267.936,-40.2585 274.057,-40.5803 280.221,-40.9451"/>
<polygon fill="#9a32cd" stroke="#9a32cd" points="167.545,-34.3096 157.521,-37.7414 167.497,-41.3094 167.545,-34.3096"/>
<text text-anchor="middle" x="219" y="-43" font-family="Helvetica,sans-Serif" font-size="10.00"> variableMap</text>
</g>
<!-- Node12 -->
<g id="node12" class="node"><title>Node12</title>
<polygon fill="white" stroke="#bfbfbf" points="578,-0 578,-30 748,-30 748,-0 578,-0"/>
<text text-anchor="start" x="586" y="-18" font-family="Helvetica,sans-Serif" font-size="10.00">List&lt; expressionTree.Expression</text>
<text text-anchor="middle" x="663" y="-7" font-family="Helvetica,sans-Serif" font-size="10.00">Node &gt;</text>
</g>
<!-- Node12&#45;&gt;Node4 -->
<g id="edge18" class="edge"><title>Node12&#45;&gt;Node4</title>
<path fill="none" stroke="#9a32cd" stroke-dasharray="5,2" d="M758.211,-11.6915C831.444,-11.5296 934.881,-16.6198 1022,-41 1082.49,-57.9278 1146.63,-98.0132 1174.15,-116.437"/>
<polygon fill="#9a32cd" stroke="#9a32cd" points="758.064,-8.19221 748.083,-11.7478 758.103,-15.1921 758.064,-8.19221"/>
<text text-anchor="middle" x="938" y="-44" font-family="Helvetica,sans-Serif" font-size="10.00"> allMyChildren</text>
</g>
<!-- Node12&#45;&gt;Node5 -->
<g id="edge16" class="edge"><title>Node12&#45;&gt;Node5</title>
<path fill="none" stroke="#9a32cd" stroke-dasharray="5,2" d="M740.03,-32.267C781.031,-41.5784 831.154,-52.9617 870.577,-61.9149"/>
<polygon fill="#9a32cd" stroke="#9a32cd" points="740.613,-28.8101 730.086,-30.0085 739.062,-35.6363 740.613,-28.8101"/>
<text text-anchor="middle" x="801" y="-57" font-family="Helvetica,sans-Serif" font-size="10.00"> nodeList</text>
</g>
<!-- Node13&#45;&gt;Node1 -->
<g id="edge20" class="edge"><title>Node13&#45;&gt;Node1</title>
<path fill="none" stroke="#9a32cd" stroke-dasharray="5,2" d="M1277.84,-170.337C1309.83,-170.459 1345.66,-170.596 1376.39,-170.714"/>
<polygon fill="#9a32cd" stroke="#9a32cd" points="1277.62,-166.836 1267.6,-170.297 1277.59,-173.836 1277.62,-166.836"/>
<text text-anchor="middle" x="1322" y="-174" font-family="Helvetica,sans-Serif" font-size="10.00"> myFunction</text>
</g>
</g>
</svg>
