<?xml version="1.0" encoding="UTF-8" standalone="no"?>
<!DOCTYPE svg PUBLIC "-//W3C//DTD SVG 1.1//EN"
 "http://www.w3.org/Graphics/SVG/1.1/DTD/svg11.dtd">
<!-- Generated by graphviz version 2.36.0 (20140111.2315)
 -->
<!-- Title: frontend.AbstractFeatures.SLogoScrollPane Pages: 1 -->
<svg width="520pt" height="185pt"
 viewBox="0.00 0.00 520.00 185.00" xmlns="http://www.w3.org/2000/svg" xmlns:xlink="http://www.w3.org/1999/xlink">
<g id="graph0" class="graph" transform="scale(1 1) rotate(0) translate(4 181)">
<title>frontend.AbstractFeatures.SLogoScrollPane</title>
<polygon fill="white" stroke="none" points="-4,4 -4,-181 516,-181 516,4 -4,4"/>
<!-- Node1 -->
<g id="node1" class="node"><title>Node1</title>
<polygon fill="#bfbfbf" stroke="black" points="182.5,-73 182.5,-103 327.5,-103 327.5,-73 182.5,-73"/>
<text text-anchor="start" x="190.5" y="-91" font-family="Helvetica,sans-Serif" font-size="10.00">frontend.AbstractFeatures.</text>
<text text-anchor="middle" x="255" y="-80" font-family="Helvetica,sans-Serif" font-size="10.00">SLogoScrollPane</text>
</g>
<!-- Node3 -->
<g id="node3" class="node"><title>Node3</title>
<g id="a_node3"><a xlink:href="../../dc/df7/classfrontend_1_1_concrete_features_1_1_commands_window.html" target="_top" xlink:title="frontend.ConcreteFeatures.\lCommandsWindow">
<polygon fill="white" stroke="black" points="364,-147 364,-177 512,-177 512,-147 364,-147"/>
<text text-anchor="start" x="372" y="-165" font-family="Helvetica,sans-Serif" font-size="10.00">frontend.ConcreteFeatures.</text>
<text text-anchor="middle" x="438" y="-154" font-family="Helvetica,sans-Serif" font-size="10.00">CommandsWindow</text>
</a>
</g>
</g>
<!-- Node1&#45;&gt;Node3 -->
<g id="edge2" class="edge"><title>Node1&#45;&gt;Node3</title>
<path fill="none" stroke="midnightblue" d="M296.492,-107.485C316.596,-116.873 341.367,-128.014 364,-137 372.591,-140.411 381.854,-143.799 390.803,-146.929"/>
<polygon fill="midnightblue" stroke="midnightblue" points="297.858,-104.26 287.319,-103.173 294.88,-110.595 297.858,-104.26"/>
</g>
<!-- Node4 -->
<g id="node4" class="node"><title>Node4</title>
<g id="a_node4"><a xlink:href="../../d3/d3b/classfrontend_1_1_concrete_features_1_1_current_variables_window.html" target="_top" xlink:title="frontend.ConcreteFeatures.\lCurrentVariablesWindow">
<polygon fill="white" stroke="black" points="364,-98 364,-128 512,-128 512,-98 364,-98"/>
<text text-anchor="start" x="372" y="-116" font-family="Helvetica,sans-Serif" font-size="10.00">frontend.ConcreteFeatures.</text>
<text text-anchor="middle" x="438" y="-105" font-family="Helvetica,sans-Serif" font-size="10.00">CurrentVariablesWindow</text>
</a>
</g>
</g>
<!-- Node1&#45;&gt;Node4 -->
<g id="edge3" class="edge"><title>Node1&#45;&gt;Node4</title>
<path fill="none" stroke="midnightblue" d="M337.714,-99.2865C346.445,-100.492 355.285,-101.713 363.906,-102.904"/>
<polygon fill="midnightblue" stroke="midnightblue" points="337.921,-95.7819 327.536,-97.8807 336.963,-102.716 337.921,-95.7819"/>
</g>
<!-- Node5 -->
<g id="node5" class="node"><title>Node5</title>
<g id="a_node5"><a xlink:href="../../db/d2c/classfrontend_1_1_concrete_features_1_1_history_window.html" target="_top" xlink:title="frontend.ConcreteFeatures.\lHistoryWindow">
<polygon fill="white" stroke="black" points="364,-49 364,-79 512,-79 512,-49 364,-49"/>
<text text-anchor="start" x="372" y="-67" font-family="Helvetica,sans-Serif" font-size="10.00">frontend.ConcreteFeatures.</text>
<text text-anchor="middle" x="438" y="-56" font-family="Helvetica,sans-Serif" font-size="10.00">HistoryWindow</text>
</a>
</g>
</g>
<!-- Node1&#45;&gt;Node5 -->
<g id="edge4" class="edge"><title>Node1&#45;&gt;Node5</title>
<path fill="none" stroke="midnightblue" d="M337.714,-77.165C346.445,-76.0074 355.285,-74.8352 363.906,-73.692"/>
<polygon fill="midnightblue" stroke="midnightblue" points="336.989,-73.7304 327.536,-78.5146 337.909,-80.6696 336.989,-73.7304"/>
</g>
<!-- Node6 -->
<g id="node6" class="node"><title>Node6</title>
<g id="a_node6"><a xlink:href="../../d3/dc9/classfrontend_1_1_concrete_features_1_1_turtle_stats_window.html" target="_top" xlink:title="frontend.ConcreteFeatures.\lTurtleStatsWindow">
<polygon fill="white" stroke="black" points="364,-0 364,-30 512,-30 512,-0 364,-0"/>
<text text-anchor="start" x="372" y="-18" font-family="Helvetica,sans-Serif" font-size="10.00">frontend.ConcreteFeatures.</text>
<text text-anchor="middle" x="438" y="-7" font-family="Helvetica,sans-Serif" font-size="10.00">TurtleStatsWindow</text>
</a>
</g>
</g>
<!-- Node1&#45;&gt;Node6 -->
<g id="edge5" class="edge"><title>Node1&#45;&gt;Node6</title>
<path fill="none" stroke="midnightblue" d="M296.005,-68.5993C316.175,-59.1396 341.147,-47.9108 364,-39 371.955,-35.8983 380.495,-32.8474 388.83,-30.0158"/>
<polygon fill="midnightblue" stroke="midnightblue" points="294.357,-65.5071 286.811,-72.9444 297.348,-71.8359 294.357,-65.5071"/>
</g>
<!-- Node2 -->
<g id="node2" class="node"><title>Node2</title>
<g id="a_node2"><a xlink:href="../../dc/db4/classfrontend_1_1_abstract_features_1_1_g_u_i_feature.html" target="_top" xlink:title="frontend.AbstractFeatures.\lGUIFeature">
<polygon fill="white" stroke="black" points="0.5,-73 0.5,-103 145.5,-103 145.5,-73 0.5,-73"/>
<text text-anchor="start" x="8.5" y="-91" font-family="Helvetica,sans-Serif" font-size="10.00">frontend.AbstractFeatures.</text>
<text text-anchor="middle" x="73" y="-80" font-family="Helvetica,sans-Serif" font-size="10.00">GUIFeature</text>
</a>
</g>
</g>
<!-- Node2&#45;&gt;Node1 -->
<g id="edge1" class="edge"><title>Node2&#45;&gt;Node1</title>
<path fill="none" stroke="midnightblue" d="M155.921,-88C164.722,-88 173.626,-88 182.295,-88"/>
<polygon fill="midnightblue" stroke="midnightblue" points="155.658,-84.5001 145.658,-88 155.658,-91.5001 155.658,-84.5001"/>
</g>
</g>
</svg>
