<?xml version="1.0" encoding="UTF-8" standalone="no"?>
<!DOCTYPE svg PUBLIC "-//W3C//DTD SVG 1.1//EN"
 "http://www.w3.org/Graphics/SVG/1.1/DTD/svg11.dtd">
<!-- Generated by graphviz version 2.36.0 (20140111.2315)
 -->
<!-- Title: frontend.ConcreteFeatures.CurrentVariablesWindow Pages: 1 -->
<svg width="237pt" height="190pt"
 viewBox="0.00 0.00 237.00 190.00" xmlns="http://www.w3.org/2000/svg" xmlns:xlink="http://www.w3.org/1999/xlink">
<g id="graph0" class="graph" transform="scale(1 1) rotate(0) translate(4 186)">
<title>frontend.ConcreteFeatures.CurrentVariablesWindow</title>
<polygon fill="white" stroke="none" points="-4,4 -4,-186 233,-186 233,4 -4,4"/>
<!-- Node1 -->
<g id="node1" class="node"><title>Node1</title>
<polygon fill="#bfbfbf" stroke="black" points="60,-1 60,-31 208,-31 208,-1 60,-1"/>
<text text-anchor="start" x="68" y="-19" font-family="Helvetica,sans-Serif" font-size="10.00">frontend.ConcreteFeatures.</text>
<text text-anchor="middle" x="134" y="-8" font-family="Helvetica,sans-Serif" font-size="10.00">CurrentVariablesWindow</text>
</g>
<!-- Node2 -->
<g id="node2" class="node"><title>Node2</title>
<g id="a_node2"><a xlink:href="../../de/daa/classfrontend_1_1_abstract_features_1_1_s_logo_scroll_pane.html" target="_top" xlink:title="frontend.AbstractFeatures.\lSLogoScrollPane">
<polygon fill="white" stroke="black" points="61.5,-71 61.5,-101 206.5,-101 206.5,-71 61.5,-71"/>
<text text-anchor="start" x="69.5" y="-89" font-family="Helvetica,sans-Serif" font-size="10.00">frontend.AbstractFeatures.</text>
<text text-anchor="middle" x="134" y="-78" font-family="Helvetica,sans-Serif" font-size="10.00">SLogoScrollPane</text>
</a>
</g>
</g>
<!-- Node2&#45;&gt;Node1 -->
<g id="edge1" class="edge"><title>Node2&#45;&gt;Node1</title>
<path fill="none" stroke="midnightblue" d="M134,-60.7688C134,-50.8141 134,-39.6384 134,-31.0716"/>
<polygon fill="midnightblue" stroke="midnightblue" points="130.5,-60.9103 134,-70.9104 137.5,-60.9104 130.5,-60.9103"/>
</g>
<!-- Node3 -->
<g id="node3" class="node"><title>Node3</title>
<g id="a_node3"><a xlink:href="../../dc/db4/classfrontend_1_1_abstract_features_1_1_g_u_i_feature.html" target="_top" xlink:title="frontend.AbstractFeatures.\lGUIFeature">
<polygon fill="white" stroke="black" points="-0.5,-151 -0.5,-181 144.5,-181 144.5,-151 -0.5,-151"/>
<text text-anchor="start" x="7.5" y="-169" font-family="Helvetica,sans-Serif" font-size="10.00">frontend.AbstractFeatures.</text>
<text text-anchor="middle" x="72" y="-158" font-family="Helvetica,sans-Serif" font-size="10.00">GUIFeature</text>
</a>
</g>
</g>
<!-- Node3&#45;&gt;Node2 -->
<g id="edge2" class="edge"><title>Node3&#45;&gt;Node2</title>
<path fill="none" stroke="midnightblue" d="M89.5944,-142.865C100.224,-129.493 113.457,-112.844 122.7,-101.216"/>
<polygon fill="midnightblue" stroke="midnightblue" points="86.8543,-140.687 83.3718,-150.694 92.3341,-145.043 86.8543,-140.687"/>
</g>
<!-- Node4 -->
<g id="node4" class="node"><title>Node4</title>
<polygon fill="white" stroke="#bfbfbf" points="163,-156.5 163,-175.5 229,-175.5 229,-156.5 163,-156.5"/>
<text text-anchor="middle" x="196" y="-163.5" font-family="Helvetica,sans-Serif" font-size="10.00">ScrollPane</text>
</g>
<!-- Node4&#45;&gt;Node2 -->
<g id="edge3" class="edge"><title>Node4&#45;&gt;Node2</title>
<path fill="none" stroke="#9a32cd" stroke-dasharray="5,2" d="M182.883,-148.498C171.737,-134.475 155.904,-114.557 145.309,-101.227"/>
<polygon fill="#9a32cd" stroke="#9a32cd" points="180.166,-150.704 189.128,-156.355 185.645,-146.348 180.166,-150.704"/>
<text text-anchor="middle" x="196" y="-123.5" font-family="Helvetica,sans-Serif" font-size="10.00"> myWindow</text>
</g>
</g>
</svg>
