<?xml version="1.0" encoding="UTF-8" standalone="no"?>
<!DOCTYPE svg PUBLIC "-//W3C//DTD SVG 1.1//EN"
 "http://www.w3.org/Graphics/SVG/1.1/DTD/svg11.dtd">
<!-- Generated by graphviz version 2.36.0 (20140111.2315)
 -->
<!-- Title: expressionTree.ExpressionTreeBuilder Pages: 1 -->
<svg width="994pt" height="202pt"
 viewBox="0.00 0.00 994.00 202.00" xmlns="http://www.w3.org/2000/svg" xmlns:xlink="http://www.w3.org/1999/xlink">
<g id="graph0" class="graph" transform="scale(1 1) rotate(0) translate(4 198)">
<title>expressionTree.ExpressionTreeBuilder</title>
<polygon fill="white" stroke="none" points="-4,4 -4,-198 990,-198 990,4 -4,4"/>
<!-- Node1 -->
<g id="node1" class="node"><title>Node1</title>
<polygon fill="#bfbfbf" stroke="black" points="842.5,-49 842.5,-79 985.5,-79 985.5,-49 842.5,-49"/>
<text text-anchor="start" x="850.5" y="-67" font-family="Helvetica,sans-Serif" font-size="10.00">expressionTree.Expression</text>
<text text-anchor="middle" x="914" y="-56" font-family="Helvetica,sans-Serif" font-size="10.00">TreeBuilder</text>
</g>
<!-- Node2 -->
<g id="node2" class="node"><title>Node2</title>
<g id="a_node2"><a xlink:href="../../d9/d55/classexpression_tree_1_1_expression_node_factory.html" target="_top" xlink:title="expressionTree.Expression\lNodeFactory">
<polygon fill="white" stroke="black" points="591.5,-98 591.5,-128 734.5,-128 734.5,-98 591.5,-98"/>
<text text-anchor="start" x="599.5" y="-116" font-family="Helvetica,sans-Serif" font-size="10.00">expressionTree.Expression</text>
<text text-anchor="middle" x="663" y="-105" font-family="Helvetica,sans-Serif" font-size="10.00">NodeFactory</text>
</a>
</g>
</g>
<!-- Node2&#45;&gt;Node1 -->
<g id="edge1" class="edge"><title>Node2&#45;&gt;Node1</title>
<path fill="none" stroke="#9a32cd" stroke-dasharray="5,2" d="M744.718,-97.1158C776.109,-90.9383 811.757,-83.9234 842.136,-77.9451"/>
<polygon fill="#9a32cd" stroke="#9a32cd" points="743.823,-93.7246 734.687,-99.0896 745.175,-100.593 743.823,-93.7246"/>
<text text-anchor="middle" x="795" y="-96" font-family="Helvetica,sans-Serif" font-size="10.00"> nodeGetter</text>
</g>
<!-- Node3 -->
<g id="node3" class="node"><title>Node3</title>
<g id="a_node3"><a xlink:href="../../d8/d36/classexpression_tree_1_1_user_function_map.html" target="_top" xlink:title="expressionTree.UserFunctionMap">
<polygon fill="white" stroke="black" points="281.5,-145.5 281.5,-164.5 454.5,-164.5 454.5,-145.5 281.5,-145.5"/>
<text text-anchor="middle" x="368" y="-152.5" font-family="Helvetica,sans-Serif" font-size="10.00">expressionTree.UserFunctionMap</text>
</a>
</g>
</g>
<!-- Node3&#45;&gt;Node2 -->
<g id="edge2" class="edge"><title>Node3&#45;&gt;Node2</title>
<path fill="none" stroke="#9a32cd" stroke-dasharray="5,2" d="M445.518,-144.032C490.654,-137.561 547.375,-129.431 591.433,-123.115"/>
<polygon fill="#9a32cd" stroke="#9a32cd" points="444.888,-140.586 435.486,-145.47 445.882,-147.515 444.888,-140.586"/>
<text text-anchor="middle" x="517" y="-142" font-family="Helvetica,sans-Serif" font-size="10.00"> myUserFunctions</text>
</g>
<!-- Node3&#45;&gt;Node3 -->
<g id="edge4" class="edge"><title>Node3&#45;&gt;Node3</title>
<path fill="none" stroke="#9a32cd" stroke-dasharray="5,2" d="M340.374,-173.654C341.529,-178.937 350.738,-183 368,-183 394.305,-183 401.908,-173.565 390.811,-164.757"/>
<polygon fill="#9a32cd" stroke="#9a32cd" points="343.508,-175.218 345.189,-164.757 337.351,-171.886 343.508,-175.218"/>
<text text-anchor="middle" x="368" y="-186" font-family="Helvetica,sans-Serif" font-size="10.00"> myUserFunctionMap</text>
</g>
<!-- Node4 -->
<g id="node4" class="node"><title>Node4</title>
<polygon fill="white" stroke="#bfbfbf" points="43.5,-112.5 43.5,-131.5 114.5,-131.5 114.5,-112.5 43.5,-112.5"/>
<text text-anchor="middle" x="79" y="-119.5" font-family="Helvetica,sans-Serif" font-size="10.00">Serializable</text>
</g>
<!-- Node4&#45;&gt;Node3 -->
<g id="edge3" class="edge"><title>Node4&#45;&gt;Node3</title>
<path fill="none" stroke="midnightblue" d="M124.657,-127.135C167.178,-132.024 232.218,-139.502 284.216,-145.481"/>
<polygon fill="midnightblue" stroke="midnightblue" points="124.953,-123.646 114.619,-125.981 124.154,-130.6 124.953,-123.646"/>
</g>
<!-- Node6 -->
<g id="node6" class="node"><title>Node6</title>
<g id="a_node6"><a xlink:href="../../de/d4e/classexpression_tree_1_1_variable_node_map.html" target="_top" xlink:title="expressionTree.VariableNodeMap">
<polygon fill="white" stroke="black" points="280.5,-78.5 280.5,-97.5 455.5,-97.5 455.5,-78.5 280.5,-78.5"/>
<text text-anchor="middle" x="368" y="-85.5" font-family="Helvetica,sans-Serif" font-size="10.00">expressionTree.VariableNodeMap</text>
</a>
</g>
</g>
<!-- Node4&#45;&gt;Node6 -->
<g id="edge7" class="edge"><title>Node4&#45;&gt;Node6</title>
<path fill="none" stroke="midnightblue" d="M124.808,-116.692C167.989,-111.576 234.295,-103.721 286.619,-97.5225"/>
<polygon fill="midnightblue" stroke="midnightblue" points="124.138,-113.247 114.619,-117.899 124.961,-120.198 124.138,-113.247"/>
</g>
<!-- Node5 -->
<g id="node5" class="node"><title>Node5</title>
<polygon fill="white" stroke="#bfbfbf" points="0.5,-151 0.5,-181 157.5,-181 157.5,-151 0.5,-151"/>
<text text-anchor="start" x="8.5" y="-169" font-family="Helvetica,sans-Serif" font-size="10.00">Map&lt; String, expressionTree.</text>
<text text-anchor="middle" x="79" y="-158" font-family="Helvetica,sans-Serif" font-size="10.00">ListNode &gt;</text>
</g>
<!-- Node5&#45;&gt;Node3 -->
<g id="edge5" class="edge"><title>Node5&#45;&gt;Node3</title>
<path fill="none" stroke="#9a32cd" stroke-dasharray="5,2" d="M167.699,-162.639C203.827,-161.254 245.545,-159.655 281.447,-158.279"/>
<polygon fill="#9a32cd" stroke="#9a32cd" points="167.525,-159.143 157.666,-163.023 167.793,-166.138 167.525,-159.143"/>
<text text-anchor="middle" x="219" y="-166" font-family="Helvetica,sans-Serif" font-size="10.00"> userFunctionMap</text>
</g>
<!-- Node6&#45;&gt;Node2 -->
<g id="edge6" class="edge"><title>Node6&#45;&gt;Node2</title>
<path fill="none" stroke="#9a32cd" stroke-dasharray="5,2" d="M465.729,-96.2534C506.713,-99.7503 553.595,-103.75 591.26,-106.964"/>
<polygon fill="#9a32cd" stroke="#9a32cd" points="465.982,-92.7623 455.72,-95.3994 465.387,-99.7369 465.982,-92.7623"/>
<text text-anchor="middle" x="517" y="-108" font-family="Helvetica,sans-Serif" font-size="10.00"> myVariables</text>
</g>
<!-- Node6&#45;&gt;Node6 -->
<g id="edge9" class="edge"><title>Node6&#45;&gt;Node6</title>
<path fill="none" stroke="#9a32cd" stroke-dasharray="5,2" d="M340.374,-106.654C341.529,-111.937 350.738,-116 368,-116 394.305,-116 401.908,-106.565 390.811,-97.7571"/>
<polygon fill="#9a32cd" stroke="#9a32cd" points="343.508,-108.218 345.189,-97.7571 337.351,-104.886 343.508,-108.218"/>
<text text-anchor="middle" x="368" y="-119" font-family="Helvetica,sans-Serif" font-size="10.00"> myVariableNodeMap</text>
</g>
<!-- Node7 -->
<g id="node7" class="node"><title>Node7</title>
<polygon fill="white" stroke="#bfbfbf" points="0.5,-63 0.5,-93 157.5,-93 157.5,-63 0.5,-63"/>
<text text-anchor="start" x="8.5" y="-81" font-family="Helvetica,sans-Serif" font-size="10.00">Map&lt; String, expressionTree.</text>
<text text-anchor="middle" x="79" y="-70" font-family="Helvetica,sans-Serif" font-size="10.00">VariableNode &gt;</text>
</g>
<!-- Node7&#45;&gt;Node6 -->
<g id="edge8" class="edge"><title>Node7&#45;&gt;Node6</title>
<path fill="none" stroke="#9a32cd" stroke-dasharray="5,2" d="M167.531,-77.8095C197.499,-78.0505 231.226,-78.66 262,-80 267.936,-80.2585 274.057,-80.5803 280.221,-80.9451"/>
<polygon fill="#9a32cd" stroke="#9a32cd" points="167.545,-74.3096 157.521,-77.7414 167.497,-81.3094 167.545,-74.3096"/>
<text text-anchor="middle" x="219" y="-83" font-family="Helvetica,sans-Serif" font-size="10.00"> variableMap</text>
</g>
<!-- Node8 -->
<g id="node8" class="node"><title>Node8</title>
<polygon fill="white" stroke="#bfbfbf" points="578,-49 578,-79 748,-79 748,-49 578,-49"/>
<text text-anchor="start" x="586" y="-67" font-family="Helvetica,sans-Serif" font-size="10.00">List&lt; expressionTree.Expression</text>
<text text-anchor="middle" x="663" y="-56" font-family="Helvetica,sans-Serif" font-size="10.00">Node &gt;</text>
</g>
<!-- Node8&#45;&gt;Node1 -->
<g id="edge10" class="edge"><title>Node8&#45;&gt;Node1</title>
<path fill="none" stroke="#9a32cd" stroke-dasharray="5,2" d="M758.465,-64C786.349,-64 816.37,-64 842.468,-64"/>
<polygon fill="#9a32cd" stroke="#9a32cd" points="758.3,-60.5001 748.3,-64 758.3,-67.5001 758.3,-60.5001"/>
<text text-anchor="middle" x="795" y="-67" font-family="Helvetica,sans-Serif" font-size="10.00"> nodeList</text>
</g>
<!-- Node9 -->
<g id="node9" class="node"><title>Node9</title>
<polygon fill="white" stroke="#bfbfbf" points="578,-0 578,-30 748,-30 748,-0 578,-0"/>
<text text-anchor="start" x="586" y="-18" font-family="Helvetica,sans-Serif" font-size="10.00">List&lt; displayCommands.Display</text>
<text text-anchor="middle" x="663" y="-7" font-family="Helvetica,sans-Serif" font-size="10.00">Node &gt;</text>
</g>
<!-- Node9&#45;&gt;Node1 -->
<g id="edge11" class="edge"><title>Node9&#45;&gt;Node1</title>
<path fill="none" stroke="#9a32cd" stroke-dasharray="5,2" d="M750.436,-32.0095C780.43,-37.912 813.686,-44.4563 842.264,-50.08"/>
<polygon fill="#9a32cd" stroke="#9a32cd" points="750.888,-28.5314 740.4,-30.0346 749.536,-35.3997 750.888,-28.5314"/>
<text text-anchor="middle" x="795" y="-49" font-family="Helvetica,sans-Serif" font-size="10.00"> outputList</text>
</g>
</g>
</svg>
