<?xml version="1.0" encoding="UTF-8" standalone="no"?>
<!DOCTYPE svg PUBLIC "-//W3C//DTD SVG 1.1//EN"
 "http://www.w3.org/Graphics/SVG/1.1/DTD/svg11.dtd">
<!-- Generated by graphviz version 2.36.0 (20140111.2315)
 -->
<!-- Title: displayCommands.Ask.doAction Pages: 1 -->
<svg width="738pt" height="77pt"
 viewBox="0.00 0.00 738.00 77.00" xmlns="http://www.w3.org/2000/svg" xmlns:xlink="http://www.w3.org/1999/xlink">
<g id="graph0" class="graph" transform="scale(1 1) rotate(0) translate(4 73)">
<title>displayCommands.Ask.doAction</title>
<polygon fill="white" stroke="none" points="-4,4 -4,-73 734,-73 734,4 -4,4"/>
<!-- Node1 -->
<g id="node1" class="node"><title>Node1</title>
<polygon fill="#bfbfbf" stroke="black" points="0,-22.5 0,-41.5 170,-41.5 170,-22.5 0,-22.5"/>
<text text-anchor="middle" x="85" y="-29.5" font-family="Helvetica,sans-Serif" font-size="10.00">displayCommands.Ask.doAction</text>
</g>
<!-- Node2 -->
<g id="node2" class="node"><title>Node2</title>
<g id="a_node2"><a xlink:href="../../d4/d7e/classturtle_classes_1_1_turtle_collection.html#a61f007615f0fd523dae94957f8022100" target="_top" xlink:title="turtleClasses.TurtleCollection.set\lActiveTurtles">
<polygon fill="white" stroke="black" points="206,-17 206,-47 378,-47 378,-17 206,-17"/>
<text text-anchor="start" x="214" y="-35" font-family="Helvetica,sans-Serif" font-size="10.00">turtleClasses.TurtleCollection.set</text>
<text text-anchor="middle" x="292" y="-24" font-family="Helvetica,sans-Serif" font-size="10.00">ActiveTurtles</text>
</a>
</g>
</g>
<!-- Node1&#45;&gt;Node2 -->
<g id="edge1" class="edge"><title>Node1&#45;&gt;Node2</title>
<path fill="none" stroke="midnightblue" d="M170.269,-32C178.591,-32 187.079,-32 195.503,-32"/>
<polygon fill="midnightblue" stroke="midnightblue" points="195.733,-35.5001 205.732,-32 195.732,-28.5001 195.733,-35.5001"/>
</g>
<!-- Node3 -->
<g id="node3" class="node"><title>Node3</title>
<g id="a_node3"><a xlink:href="../../d8/d89/classturtle_classes_1_1_turtle.html#a2d3828dbca854624cc75fca5aa65b4c5" target="_top" xlink:title="turtleClasses.Turtle.set\lActive">
<polygon fill="white" stroke="black" points="419.5,-39 419.5,-69 544.5,-69 544.5,-39 419.5,-39"/>
<text text-anchor="start" x="427.5" y="-57" font-family="Helvetica,sans-Serif" font-size="10.00">turtleClasses.Turtle.set</text>
<text text-anchor="middle" x="482" y="-46" font-family="Helvetica,sans-Serif" font-size="10.00">Active</text>
</a>
</g>
</g>
<!-- Node2&#45;&gt;Node3 -->
<g id="edge2" class="edge"><title>Node2&#45;&gt;Node3</title>
<path fill="none" stroke="midnightblue" d="M378.199,-41.9701C388.619,-43.1894 399.184,-44.4258 409.376,-45.6185"/>
<polygon fill="midnightblue" stroke="midnightblue" points="409.086,-49.1084 419.426,-46.7945 409.9,-42.1558 409.086,-49.1084"/>
</g>
<!-- Node5 -->
<g id="node5" class="node"><title>Node5</title>
<g id="a_node5"><a xlink:href="../../d8/d89/classturtle_classes_1_1_turtle.html#aff48aa8a8ca4bb8a7aa40743a1a944c4" target="_top" xlink:title="turtleClasses.Turtle.getID">
<polygon fill="white" stroke="black" points="414,-0.5 414,-19.5 550,-19.5 550,-0.5 414,-0.5"/>
<text text-anchor="middle" x="482" y="-7.5" font-family="Helvetica,sans-Serif" font-size="10.00">turtleClasses.Turtle.getID</text>
</a>
</g>
</g>
<!-- Node2&#45;&gt;Node5 -->
<g id="edge4" class="edge"><title>Node2&#45;&gt;Node5</title>
<path fill="none" stroke="midnightblue" d="M378.199,-22.0299C386.695,-21.0357 395.287,-20.0303 403.695,-19.0463"/>
<polygon fill="midnightblue" stroke="midnightblue" points="404.316,-22.4977 413.841,-17.859 403.502,-15.5451 404.316,-22.4977"/>
</g>
<!-- Node4 -->
<g id="node4" class="node"><title>Node4</title>
<g id="a_node4"><a xlink:href="../../d8/d89/classturtle_classes_1_1_turtle.html#abd769212afc56f042db3d4b5ee33790e" target="_top" xlink:title="turtleClasses.Turtle.handle\lActiveOutline">
<polygon fill="white" stroke="black" points="586.5,-39 586.5,-69 729.5,-69 729.5,-39 586.5,-39"/>
<text text-anchor="start" x="594.5" y="-57" font-family="Helvetica,sans-Serif" font-size="10.00">turtleClasses.Turtle.handle</text>
<text text-anchor="middle" x="658" y="-46" font-family="Helvetica,sans-Serif" font-size="10.00">ActiveOutline</text>
</a>
</g>
</g>
<!-- Node3&#45;&gt;Node4 -->
<g id="edge3" class="edge"><title>Node3&#45;&gt;Node4</title>
<path fill="none" stroke="midnightblue" d="M544.836,-54C555.051,-54 565.773,-54 576.368,-54"/>
<polygon fill="midnightblue" stroke="midnightblue" points="576.467,-57.5001 586.467,-54 576.467,-50.5001 576.467,-57.5001"/>
</g>
</g>
</svg>
