<?xml version="1.0" encoding="UTF-8" standalone="no"?>
<!DOCTYPE svg PUBLIC "-//W3C//DTD SVG 1.1//EN"
 "http://www.w3.org/Graphics/SVG/1.1/DTD/svg11.dtd">
<!-- Generated by graphviz version 2.36.0 (20140111.2315)
 -->
<!-- Title: displayCommands.Ask.evaluate Pages: 1 -->
<svg width="366pt" height="136pt"
 viewBox="0.00 0.00 366.00 136.00" xmlns="http://www.w3.org/2000/svg" xmlns:xlink="http://www.w3.org/1999/xlink">
<g id="graph0" class="graph" transform="scale(1 1) rotate(0) translate(4 132)">
<title>displayCommands.Ask.evaluate</title>
<polygon fill="white" stroke="none" points="-4,4 -4,-132 362,-132 362,4 -4,4"/>
<!-- Node1 -->
<g id="node1" class="node"><title>Node1</title>
<polygon fill="#bfbfbf" stroke="black" points="0,-54.5 0,-73.5 170,-73.5 170,-54.5 0,-54.5"/>
<text text-anchor="middle" x="85" y="-61.5" font-family="Helvetica,sans-Serif" font-size="10.00">displayCommands.Ask.evaluate</text>
</g>
<!-- Node2 -->
<g id="node2" class="node"><title>Node2</title>
<g id="a_node2"><a xlink:href="../../db/da5/classexpression_tree_1_1_expression_node.html#a189034630678dbe1dbb8805adbda2a96" target="_top" xlink:title="expressionTree.Expression\lNode.evaluate">
<polygon fill="white" stroke="black" points="210.5,-98 210.5,-128 353.5,-128 353.5,-98 210.5,-98"/>
<text text-anchor="start" x="218.5" y="-116" font-family="Helvetica,sans-Serif" font-size="10.00">expressionTree.Expression</text>
<text text-anchor="middle" x="282" y="-105" font-family="Helvetica,sans-Serif" font-size="10.00">Node.evaluate</text>
</a>
</g>
</g>
<!-- Node1&#45;&gt;Node2 -->
<g id="edge1" class="edge"><title>Node1&#45;&gt;Node2</title>
<path fill="none" stroke="midnightblue" d="M124.061,-73.564C148.856,-79.7947 181.945,-88.1094 211.347,-95.4974"/>
<polygon fill="midnightblue" stroke="midnightblue" points="210.608,-98.9204 221.159,-97.963 212.314,-92.1314 210.608,-98.9204"/>
</g>
<!-- Node3 -->
<g id="node3" class="node"><title>Node3</title>
<g id="a_node3"><a xlink:href="../../d9/de6/classexpression_tree_1_1_list_node.html#ad2a28e016675c9338d563c246f998513" target="_top" xlink:title="expressionTree.ListNode.get\lListContents">
<polygon fill="white" stroke="black" points="206,-49 206,-79 358,-79 358,-49 206,-49"/>
<text text-anchor="start" x="214" y="-67" font-family="Helvetica,sans-Serif" font-size="10.00">expressionTree.ListNode.get</text>
<text text-anchor="middle" x="282" y="-56" font-family="Helvetica,sans-Serif" font-size="10.00">ListContents</text>
</a>
</g>
</g>
<!-- Node1&#45;&gt;Node3 -->
<g id="edge2" class="edge"><title>Node1&#45;&gt;Node3</title>
<path fill="none" stroke="midnightblue" d="M170.112,-64C178.54,-64 187.104,-64 195.545,-64"/>
<polygon fill="midnightblue" stroke="midnightblue" points="195.763,-67.5001 205.763,-64 195.763,-60.5001 195.763,-67.5001"/>
</g>
<!-- Node4 -->
<g id="node4" class="node"><title>Node4</title>
<g id="a_node4"><a xlink:href="../../db/da5/classexpression_tree_1_1_expression_node.html#a45c96c848aa110f95246819c3e1e1639" target="_top" xlink:title="expressionTree.Expression\lNode.getValue">
<polygon fill="white" stroke="black" points="210.5,-0 210.5,-30 353.5,-30 353.5,-0 210.5,-0"/>
<text text-anchor="start" x="218.5" y="-18" font-family="Helvetica,sans-Serif" font-size="10.00">expressionTree.Expression</text>
<text text-anchor="middle" x="282" y="-7" font-family="Helvetica,sans-Serif" font-size="10.00">Node.getValue</text>
</a>
</g>
</g>
<!-- Node1&#45;&gt;Node4 -->
<g id="edge3" class="edge"><title>Node1&#45;&gt;Node4</title>
<path fill="none" stroke="midnightblue" d="M124.061,-54.436C148.856,-48.2053 181.945,-39.8906 211.347,-32.5026"/>
<polygon fill="midnightblue" stroke="midnightblue" points="212.314,-35.8686 221.159,-30.037 210.608,-29.0796 212.314,-35.8686"/>
</g>
</g>
</svg>
