<?xml version="1.0" encoding="UTF-8" standalone="no"?>
<!DOCTYPE svg PUBLIC "-//W3C//DTD SVG 1.1//EN"
 "http://www.w3.org/Graphics/SVG/1.1/DTD/svg11.dtd">
<!-- Generated by graphviz version 2.36.0 (20140111.2315)
 -->
<!-- Title: frontend.ConcreteFeatures.ChangeCodingLanguage.doDropDownClickAction Pages: 1 -->
<svg width="588pt" height="48pt"
 viewBox="0.00 0.00 588.00 48.00" xmlns="http://www.w3.org/2000/svg" xmlns:xlink="http://www.w3.org/1999/xlink">
<g id="graph0" class="graph" transform="scale(1 1) rotate(0) translate(4 44)">
<title>frontend.ConcreteFeatures.ChangeCodingLanguage.doDropDownClickAction</title>
<polygon fill="white" stroke="none" points="-4,4 -4,-44 584,-44 584,4 -4,4"/>
<!-- Node1 -->
<g id="node1" class="node"><title>Node1</title>
<polygon fill="#bfbfbf" stroke="black" points="0,0.5 0,-40.5 198,-40.5 198,0.5 0,0.5"/>
<text text-anchor="start" x="8" y="-28.5" font-family="Helvetica,sans-Serif" font-size="10.00">frontend.ConcreteFeatures.</text>
<text text-anchor="start" x="8" y="-17.5" font-family="Helvetica,sans-Serif" font-size="10.00">ChangeCodingLanguage.doDropDown</text>
<text text-anchor="middle" x="99" y="-6.5" font-family="Helvetica,sans-Serif" font-size="10.00">ClickAction</text>
</g>
<!-- Node2 -->
<g id="node2" class="node"><title>Node2</title>
<g id="a_node2"><a xlink:href="../../d4/dbc/classfrontend_1_1_translator.html#a3f910c6cc50560d39d7419ceda312ae3" target="_top" xlink:title="frontend.Translator.setLanguage">
<polygon fill="white" stroke="black" points="234.5,-10.5 234.5,-29.5 405.5,-29.5 405.5,-10.5 234.5,-10.5"/>
<text text-anchor="middle" x="320" y="-17.5" font-family="Helvetica,sans-Serif" font-size="10.00">frontend.Translator.setLanguage</text>
</a>
</g>
</g>
<!-- Node1&#45;&gt;Node2 -->
<g id="edge1" class="edge"><title>Node1&#45;&gt;Node2</title>
<path fill="none" stroke="midnightblue" d="M198.289,-20C206.953,-20 215.711,-20 224.343,-20"/>
<polygon fill="midnightblue" stroke="midnightblue" points="224.406,-23.5001 234.406,-20 224.406,-16.5001 224.406,-23.5001"/>
</g>
<!-- Node3 -->
<g id="node3" class="node"><title>Node3</title>
<g id="a_node3"><a xlink:href="../../d4/dbc/classfrontend_1_1_translator.html#a4a78b14e87ae1ce726702737d5e5acd7" target="_top" xlink:title="frontend.Translator.setUp\lDictionary">
<polygon fill="white" stroke="black" points="442.5,-5 442.5,-35 579.5,-35 579.5,-5 442.5,-5"/>
<text text-anchor="start" x="450.5" y="-23" font-family="Helvetica,sans-Serif" font-size="10.00">frontend.Translator.setUp</text>
<text text-anchor="middle" x="511" y="-12" font-family="Helvetica,sans-Serif" font-size="10.00">Dictionary</text>
</a>
</g>
</g>
<!-- Node2&#45;&gt;Node3 -->
<g id="edge2" class="edge"><title>Node2&#45;&gt;Node3</title>
<path fill="none" stroke="midnightblue" d="M405.55,-20C414.38,-20 423.328,-20 432.079,-20"/>
<polygon fill="midnightblue" stroke="midnightblue" points="432.244,-23.5001 442.244,-20 432.244,-16.5001 432.244,-23.5001"/>
</g>
</g>
</svg>
