<?xml version="1.0" encoding="UTF-8" standalone="no"?>
<!DOCTYPE svg PUBLIC "-//W3C//DTD SVG 1.1//EN"
 "http://www.w3.org/Graphics/SVG/1.1/DTD/svg11.dtd">
<!-- Generated by graphviz version 2.36.0 (20140111.2315)
 -->
<!-- Title: SLogoControllers.InputController Pages: 1 -->
<svg width="294pt" height="164pt"
 viewBox="0.00 0.00 294.00 164.00" xmlns="http://www.w3.org/2000/svg" xmlns:xlink="http://www.w3.org/1999/xlink">
<g id="graph0" class="graph" transform="scale(1 1) rotate(0) translate(4 160)">
<title>SLogoControllers.InputController</title>
<polygon fill="white" stroke="none" points="-4,4 -4,-160 290,-160 290,4 -4,4"/>
<!-- Node1 -->
<g id="node1" class="node"><title>Node1</title>
<polygon fill="#bfbfbf" stroke="black" points="2,-0.5 2,-19.5 174,-19.5 174,-0.5 2,-0.5"/>
<text text-anchor="middle" x="88" y="-7.5" font-family="Helvetica,sans-Serif" font-size="10.00">SLogoControllers.InputController</text>
</g>
<!-- Node2 -->
<g id="node2" class="node"><title>Node2</title>
<g id="a_node2"><a xlink:href="../../d1/ddd/classbackend_1_1_parser.html" target="_top" xlink:title="backend.Parser">
<polygon fill="white" stroke="black" points="0,-68.5 0,-87.5 90,-87.5 90,-68.5 0,-68.5"/>
<text text-anchor="middle" x="45" y="-75.5" font-family="Helvetica,sans-Serif" font-size="10.00">backend.Parser</text>
</a>
</g>
</g>
<!-- Node2&#45;&gt;Node1 -->
<g id="edge1" class="edge"><title>Node2&#45;&gt;Node1</title>
<path fill="none" stroke="#9a32cd" stroke-dasharray="5,2" d="M56.1163,-59.9377C64.4725,-47.112 75.5827,-30.0591 82.2399,-19.8411"/>
<polygon fill="#9a32cd" stroke="#9a32cd" points="53.1478,-58.0824 50.6215,-68.3717 59.0129,-61.9036 53.1478,-58.0824"/>
<text text-anchor="middle" x="88" y="-41.5" font-family="Helvetica,sans-Serif" font-size="10.00"> parser</text>
</g>
<!-- Node3 -->
<g id="node3" class="node"><title>Node3</title>
<g id="a_node3"><a xlink:href="../../d4/dbc/classfrontend_1_1_translator.html" target="_top" xlink:title="frontend.Translator">
<polygon fill="white" stroke="black" points="108.5,-68.5 108.5,-87.5 215.5,-87.5 215.5,-68.5 108.5,-68.5"/>
<text text-anchor="middle" x="162" y="-75.5" font-family="Helvetica,sans-Serif" font-size="10.00">frontend.Translator</text>
</a>
</g>
</g>
<!-- Node3&#45;&gt;Node1 -->
<g id="edge2" class="edge"><title>Node3&#45;&gt;Node1</title>
<path fill="none" stroke="#9a32cd" stroke-dasharray="5,2" d="M144.523,-61.4122C129.986,-48.4468 109.814,-30.4559 97.9128,-19.8411"/>
<polygon fill="#9a32cd" stroke="#9a32cd" points="142.533,-64.3275 152.326,-68.3717 147.192,-59.1034 142.533,-64.3275"/>
<text text-anchor="middle" x="164.5" y="-41.5" font-family="Helvetica,sans-Serif" font-size="10.00"> myTranslator</text>
</g>
<!-- Node4 -->
<g id="node4" class="node"><title>Node4</title>
<polygon fill="white" stroke="#bfbfbf" points="52.5,-136.5 52.5,-155.5 145.5,-155.5 145.5,-136.5 52.5,-136.5"/>
<text text-anchor="middle" x="99" y="-143.5" font-family="Helvetica,sans-Serif" font-size="10.00">ResourceBundle</text>
</g>
<!-- Node4&#45;&gt;Node3 -->
<g id="edge3" class="edge"><title>Node4&#45;&gt;Node3</title>
<path fill="none" stroke="#9a32cd" stroke-dasharray="5,2" d="M114.227,-129.047C126.576,-116.111 143.523,-98.3567 153.561,-87.8411"/>
<polygon fill="#9a32cd" stroke="#9a32cd" points="111.609,-126.721 107.236,-136.372 116.673,-131.555 111.609,-126.721"/>
<text text-anchor="middle" x="170" y="-109.5" font-family="Helvetica,sans-Serif" font-size="10.00"> myLanguage</text>
</g>
<!-- Node5 -->
<g id="node5" class="node"><title>Node5</title>
<polygon fill="white" stroke="#bfbfbf" points="164,-136.5 164,-155.5 286,-155.5 286,-136.5 164,-136.5"/>
<text text-anchor="middle" x="225" y="-143.5" font-family="Helvetica,sans-Serif" font-size="10.00">Map&lt; String, String &gt;</text>
</g>
<!-- Node5&#45;&gt;Node3 -->
<g id="edge4" class="edge"><title>Node5&#45;&gt;Node3</title>
<path fill="none" stroke="#9a32cd" stroke-dasharray="5,2" d="M217.137,-127.022C213.495,-119.964 208.703,-112.109 203,-106 196.137,-98.6484 186.89,-92.3376 178.915,-87.67"/>
<polygon fill="#9a32cd" stroke="#9a32cd" points="214.179,-128.954 221.62,-136.496 220.506,-125.96 214.179,-128.954"/>
<text text-anchor="middle" x="244.5" y="-109.5" font-family="Helvetica,sans-Serif" font-size="10.00"> myDictionary</text>
</g>
</g>
</svg>
