<?xml version="1.0" encoding="UTF-8" standalone="no"?>
<!DOCTYPE svg PUBLIC "-//W3C//DTD SVG 1.1//EN"
 "http://www.w3.org/Graphics/SVG/1.1/DTD/svg11.dtd">
<!-- Generated by graphviz version 2.36.0 (20140111.2315)
 -->
<!-- Title: displayCommands.ClearObjects.doAction Pages: 1 -->
<svg width="582pt" height="87pt"
 viewBox="0.00 0.00 582.00 87.00" xmlns="http://www.w3.org/2000/svg" xmlns:xlink="http://www.w3.org/1999/xlink">
<g id="graph0" class="graph" transform="scale(1 1) rotate(0) translate(4 83)">
<title>displayCommands.ClearObjects.doAction</title>
<polygon fill="white" stroke="none" points="-4,4 -4,-83 578,-83 578,4 -4,4"/>
<!-- Node1 -->
<g id="node1" class="node"><title>Node1</title>
<polygon fill="#bfbfbf" stroke="black" points="0,-24 0,-54 184,-54 184,-24 0,-24"/>
<text text-anchor="start" x="8" y="-42" font-family="Helvetica,sans-Serif" font-size="10.00">displayCommands.ClearObjects.do</text>
<text text-anchor="middle" x="92" y="-31" font-family="Helvetica,sans-Serif" font-size="10.00">Action</text>
</g>
<!-- Node2 -->
<g id="node2" class="node"><title>Node2</title>
<g id="a_node2"><a xlink:href="../../d4/d7e/classturtle_classes_1_1_turtle_collection.html#a8b89821e45d78b1168249c798c3c5756" target="_top" xlink:title="turtleClasses.TurtleCollection.get\lCanvas">
<polygon fill="white" stroke="black" points="220.5,-49 220.5,-79 393.5,-79 393.5,-49 220.5,-49"/>
<text text-anchor="start" x="228.5" y="-67" font-family="Helvetica,sans-Serif" font-size="10.00">turtleClasses.TurtleCollection.get</text>
<text text-anchor="middle" x="307" y="-56" font-family="Helvetica,sans-Serif" font-size="10.00">Canvas</text>
</a>
</g>
</g>
<!-- Node1&#45;&gt;Node2 -->
<g id="edge1" class="edge"><title>Node1&#45;&gt;Node2</title>
<path fill="none" stroke="midnightblue" d="M184.258,-49.711C192.861,-50.7207 201.599,-51.7463 210.242,-52.7607"/>
<polygon fill="midnightblue" stroke="midnightblue" points="209.99,-56.2552 220.33,-53.9448 210.806,-49.3029 209.99,-56.2552"/>
</g>
<!-- Node3 -->
<g id="node3" class="node"><title>Node3</title>
<g id="a_node3"><a xlink:href="../../d1/d07/classfrontend_1_1_s_logo_canvas.html#ab568d13de0b72b80b87728b7c3c73b20" target="_top" xlink:title="frontend.SLogoCanvas.remove\lObjects">
<polygon fill="white" stroke="black" points="224.5,-0 224.5,-30 389.5,-30 389.5,-0 224.5,-0"/>
<text text-anchor="start" x="232.5" y="-18" font-family="Helvetica,sans-Serif" font-size="10.00">frontend.SLogoCanvas.remove</text>
<text text-anchor="middle" x="307" y="-7" font-family="Helvetica,sans-Serif" font-size="10.00">Objects</text>
</a>
</g>
</g>
<!-- Node1&#45;&gt;Node3 -->
<g id="edge2" class="edge"><title>Node1&#45;&gt;Node3</title>
<path fill="none" stroke="midnightblue" d="M184.258,-28.7174C194.147,-27.6032 204.215,-26.4688 214.111,-25.3537"/>
<polygon fill="midnightblue" stroke="midnightblue" points="214.802,-28.7981 224.347,-24.2003 214.018,-21.8421 214.802,-28.7981"/>
</g>
<!-- Node4 -->
<g id="node4" class="node"><title>Node4</title>
<g id="a_node4"><a xlink:href="../../d1/d07/classfrontend_1_1_s_logo_canvas.html#ab32d1e197727cf9bed0a9c5f634a2cf5" target="_top" xlink:title="frontend.SLogoCanvas.get\lHolder">
<polygon fill="white" stroke="black" points="430,-0 430,-30 574,-30 574,-0 430,-0"/>
<text text-anchor="start" x="438" y="-18" font-family="Helvetica,sans-Serif" font-size="10.00">frontend.SLogoCanvas.get</text>
<text text-anchor="middle" x="502" y="-7" font-family="Helvetica,sans-Serif" font-size="10.00">Holder</text>
</a>
</g>
</g>
<!-- Node3&#45;&gt;Node4 -->
<g id="edge3" class="edge"><title>Node3&#45;&gt;Node4</title>
<path fill="none" stroke="midnightblue" d="M389.57,-15C399.496,-15 409.638,-15 419.562,-15"/>
<polygon fill="midnightblue" stroke="midnightblue" points="419.807,-18.5001 429.807,-15 419.807,-11.5001 419.807,-18.5001"/>
</g>
</g>
</svg>
