<?xml version="1.0" encoding="UTF-8" standalone="no"?>
<!DOCTYPE svg PUBLIC "-//W3C//DTD SVG 1.1//EN"
 "http://www.w3.org/Graphics/SVG/1.1/DTD/svg11.dtd">
<!-- Generated by graphviz version 2.36.0 (20140111.2315)
 -->
<!-- Title: frontend.SLogoWorkspace.SLogoWorkspace Pages: 1 -->
<svg width="748pt" height="87pt"
 viewBox="0.00 0.00 748.00 87.00" xmlns="http://www.w3.org/2000/svg" xmlns:xlink="http://www.w3.org/1999/xlink">
<g id="graph0" class="graph" transform="scale(1 1) rotate(0) translate(4 83)">
<title>frontend.SLogoWorkspace.SLogoWorkspace</title>
<polygon fill="white" stroke="none" points="-4,4 -4,-83 744,-83 744,4 -4,4"/>
<!-- Node1 -->
<g id="node1" class="node"><title>Node1</title>
<polygon fill="#bfbfbf" stroke="black" points="0,-24 0,-54 144,-54 144,-24 0,-24"/>
<text text-anchor="start" x="8" y="-42" font-family="Helvetica,sans-Serif" font-size="10.00">frontend.SLogoWorkspace.</text>
<text text-anchor="middle" x="72" y="-31" font-family="Helvetica,sans-Serif" font-size="10.00">SLogoWorkspace</text>
</g>
<!-- Node2 -->
<g id="node2" class="node"><title>Node2</title>
<g id="a_node2"><a xlink:href="../../d4/d7e/classturtle_classes_1_1_turtle_collection.html#aef78a61da5522d472e6c70b49e8e1b0d" target="_top" xlink:title="turtleClasses.TurtleCollection.add\lTurtle">
<polygon fill="white" stroke="black" points="180.5,-49 180.5,-79 355.5,-79 355.5,-49 180.5,-49"/>
<text text-anchor="start" x="188.5" y="-67" font-family="Helvetica,sans-Serif" font-size="10.00">turtleClasses.TurtleCollection.add</text>
<text text-anchor="middle" x="268" y="-56" font-family="Helvetica,sans-Serif" font-size="10.00">Turtle</text>
</a>
</g>
</g>
<!-- Node1&#45;&gt;Node2 -->
<g id="edge1" class="edge"><title>Node1&#45;&gt;Node2</title>
<path fill="none" stroke="midnightblue" d="M144.137,-48.1671C152.701,-49.2707 161.555,-50.4118 170.405,-51.5522"/>
<polygon fill="midnightblue" stroke="midnightblue" points="170.014,-55.0307 180.379,-52.8375 170.909,-48.0881 170.014,-55.0307"/>
</g>
<!-- Node5 -->
<g id="node5" class="node"><title>Node5</title>
<g id="a_node5"><a xlink:href="../../d1/d07/classfrontend_1_1_s_logo_canvas.html#ab32d1e197727cf9bed0a9c5f634a2cf5" target="_top" xlink:title="frontend.SLogoCanvas.get\lHolder">
<polygon fill="white" stroke="black" points="196,-0 196,-30 340,-30 340,-0 196,-0"/>
<text text-anchor="start" x="204" y="-18" font-family="Helvetica,sans-Serif" font-size="10.00">frontend.SLogoCanvas.get</text>
<text text-anchor="middle" x="268" y="-7" font-family="Helvetica,sans-Serif" font-size="10.00">Holder</text>
</a>
</g>
</g>
<!-- Node1&#45;&gt;Node5 -->
<g id="edge4" class="edge"><title>Node1&#45;&gt;Node5</title>
<path fill="none" stroke="midnightblue" d="M144.137,-30.1996C157.712,-28.5202 172.016,-26.7506 185.875,-25.0361"/>
<polygon fill="midnightblue" stroke="midnightblue" points="186.377,-28.5007 195.872,-23.7994 185.518,-21.5537 186.377,-28.5007"/>
</g>
<!-- Node3 -->
<g id="node3" class="node"><title>Node3</title>
<g id="a_node3"><a xlink:href="../../d4/d7e/classturtle_classes_1_1_turtle_collection.html#a40bfa92a3800e4441e66c3c2964559f0" target="_top" xlink:title="turtleClasses.TurtleCollection.check\lAndAddActiveTurtle">
<polygon fill="white" stroke="black" points="392.5,-49 392.5,-79 577.5,-79 577.5,-49 392.5,-49"/>
<text text-anchor="start" x="400.5" y="-67" font-family="Helvetica,sans-Serif" font-size="10.00">turtleClasses.TurtleCollection.check</text>
<text text-anchor="middle" x="485" y="-56" font-family="Helvetica,sans-Serif" font-size="10.00">AndAddActiveTurtle</text>
</a>
</g>
</g>
<!-- Node2&#45;&gt;Node3 -->
<g id="edge2" class="edge"><title>Node2&#45;&gt;Node3</title>
<path fill="none" stroke="midnightblue" d="M355.519,-64C364.336,-64 373.349,-64 382.308,-64"/>
<polygon fill="midnightblue" stroke="midnightblue" points="382.387,-67.5001 392.387,-64 382.387,-60.5001 382.387,-67.5001"/>
</g>
<!-- Node4 -->
<g id="node4" class="node"><title>Node4</title>
<g id="a_node4"><a xlink:href="../../d8/d89/classturtle_classes_1_1_turtle.html#a2d2fbb81602870ad25869504ebc47a96" target="_top" xlink:title="turtleClasses.Turtle.get\lIsActive">
<polygon fill="white" stroke="black" points="614,-49 614,-79 740,-79 740,-49 614,-49"/>
<text text-anchor="start" x="622" y="-67" font-family="Helvetica,sans-Serif" font-size="10.00">turtleClasses.Turtle.get</text>
<text text-anchor="middle" x="677" y="-56" font-family="Helvetica,sans-Serif" font-size="10.00">IsActive</text>
</a>
</g>
</g>
<!-- Node3&#45;&gt;Node4 -->
<g id="edge3" class="edge"><title>Node3&#45;&gt;Node4</title>
<path fill="none" stroke="midnightblue" d="M577.661,-64C586.364,-64 595.104,-64 603.589,-64"/>
<polygon fill="midnightblue" stroke="midnightblue" points="603.793,-67.5001 613.793,-64 603.793,-60.5001 603.793,-67.5001"/>
</g>
</g>
</svg>
