<?xml version="1.0" encoding="UTF-8" standalone="no"?>
<!DOCTYPE svg PUBLIC "-//W3C//DTD SVG 1.1//EN"
 "http://www.w3.org/Graphics/SVG/1.1/DTD/svg11.dtd">
<!-- Generated by graphviz version 2.36.0 (20140111.2315)
 -->
<!-- Title: frontend.SLogoWorkspace.createWorkspace Pages: 1 -->
<svg width="518pt" height="77pt"
 viewBox="0.00 0.00 518.00 77.00" xmlns="http://www.w3.org/2000/svg" xmlns:xlink="http://www.w3.org/1999/xlink">
<g id="graph0" class="graph" transform="scale(1 1) rotate(0) translate(4 73)">
<title>frontend.SLogoWorkspace.createWorkspace</title>
<polygon fill="white" stroke="none" points="-4,4 -4,-73 514,-73 514,4 -4,4"/>
<!-- Node1 -->
<g id="node1" class="node"><title>Node1</title>
<polygon fill="#bfbfbf" stroke="black" points="0.5,-17 0.5,-47 175.5,-47 175.5,-17 0.5,-17"/>
<text text-anchor="start" x="8.5" y="-35" font-family="Helvetica,sans-Serif" font-size="10.00">frontend.SLogoWorkspace.create</text>
<text text-anchor="middle" x="88" y="-24" font-family="Helvetica,sans-Serif" font-size="10.00">Workspace</text>
</g>
<!-- Node2 -->
<g id="node2" class="node"><title>Node2</title>
<g id="a_node2"><a xlink:href="../../dc/dae/classfrontend_1_1_s_logo_workspace_1_1_add_workspace_button.html#a156aecbf6509dec903bb35c7ada6257e" target="_top" xlink:title="frontend.SLogoWorkspace.\lAddWorkspaceButton.action">
<polygon fill="white" stroke="black" points="212.5,-39 212.5,-69 363.5,-69 363.5,-39 212.5,-39"/>
<text text-anchor="start" x="220.5" y="-57" font-family="Helvetica,sans-Serif" font-size="10.00">frontend.SLogoWorkspace.</text>
<text text-anchor="middle" x="288" y="-46" font-family="Helvetica,sans-Serif" font-size="10.00">AddWorkspaceButton.action</text>
</a>
</g>
</g>
<!-- Node1&#45;&gt;Node2 -->
<g id="edge1" class="edge"><title>Node1&#45;&gt;Node2</title>
<path fill="none" stroke="midnightblue" d="M185.673,-42.7414C194.655,-43.7395 203.664,-44.7404 212.401,-45.7113"/>
<polygon fill="midnightblue" stroke="midnightblue" points="185.883,-39.2433 175.558,-41.6175 185.11,-46.2005 185.883,-39.2433"/>
</g>
<!-- Node3 -->
<g id="node3" class="node"><title>Node3</title>
<g id="a_node3"><a xlink:href="../../d0/dc4/classfrontend_1_1_g_u_i_maker.html#a1472d2be1bf7a2a8e954e2f3c96dee99" target="_top" xlink:title="frontend.GUIMaker.make">
<polygon fill="white" stroke="black" points="220,-0.5 220,-19.5 356,-19.5 356,-0.5 220,-0.5"/>
<text text-anchor="middle" x="288" y="-7.5" font-family="Helvetica,sans-Serif" font-size="10.00">frontend.GUIMaker.make</text>
</a>
</g>
</g>
<!-- Node1&#45;&gt;Node3 -->
<g id="edge2" class="edge"><title>Node1&#45;&gt;Node3</title>
<path fill="none" stroke="midnightblue" d="M185.714,-21.2539C197.303,-19.9664 208.933,-18.6741 219.969,-17.4479"/>
<polygon fill="midnightblue" stroke="midnightblue" points="185.11,-17.7995 175.558,-22.3825 185.883,-24.7567 185.11,-17.7995"/>
</g>
<!-- Node4 -->
<g id="node4" class="node"><title>Node4</title>
<g id="a_node4"><a xlink:href="../../dd/dc6/classmain_1_1_initializer.html#afa646dff30c11e56de63df53f1053b61" target="_top" xlink:title="main.Initializer.start">
<polygon fill="white" stroke="black" points="400,-0.5 400,-19.5 510,-19.5 510,-0.5 400,-0.5"/>
<text text-anchor="middle" x="455" y="-7.5" font-family="Helvetica,sans-Serif" font-size="10.00">main.Initializer.start</text>
</a>
</g>
</g>
<!-- Node3&#45;&gt;Node4 -->
<g id="edge3" class="edge"><title>Node3&#45;&gt;Node4</title>
<path fill="none" stroke="midnightblue" d="M366.422,-10C377.714,-10 389.134,-10 399.83,-10"/>
<polygon fill="midnightblue" stroke="midnightblue" points="366.112,-6.5001 356.112,-10 366.112,-13.5001 366.112,-6.5001"/>
</g>
</g>
</svg>
