<?xml version="1.0" encoding="UTF-8" standalone="no"?>
<!DOCTYPE svg PUBLIC "-//W3C//DTD SVG 1.1//EN"
 "http://www.w3.org/Graphics/SVG/1.1/DTD/svg11.dtd">
<!-- Generated by graphviz version 2.36.0 (20140111.2315)
 -->
<!-- Title: displayCommands.SetPenSize.doAction Pages: 1 -->
<svg width="366pt" height="66pt"
 viewBox="0.00 0.00 366.00 66.00" xmlns="http://www.w3.org/2000/svg" xmlns:xlink="http://www.w3.org/1999/xlink">
<g id="graph0" class="graph" transform="scale(1 1) rotate(0) translate(4 62)">
<title>displayCommands.SetPenSize.doAction</title>
<polygon fill="white" stroke="none" points="-4,4 -4,-62 362,-62 362,4 -4,4"/>
<!-- Node1 -->
<g id="node1" class="node"><title>Node1</title>
<polygon fill="#bfbfbf" stroke="black" points="0,-14 0,-44 178,-44 178,-14 0,-14"/>
<text text-anchor="start" x="8" y="-32" font-family="Helvetica,sans-Serif" font-size="10.00">displayCommands.SetPenSize.do</text>
<text text-anchor="middle" x="89" y="-21" font-family="Helvetica,sans-Serif" font-size="10.00">Action</text>
</g>
<!-- Node2 -->
<g id="node2" class="node"><title>Node2</title>
<g id="a_node2"><a xlink:href="../../d8/d89/classturtle_classes_1_1_turtle.html#aebccf7c8d3ea7b21ea040ec199df9524" target="_top" xlink:title="turtleClasses.Turtle.getPen">
<polygon fill="white" stroke="black" points="214,-38.5 214,-57.5 358,-57.5 358,-38.5 214,-38.5"/>
<text text-anchor="middle" x="286" y="-45.5" font-family="Helvetica,sans-Serif" font-size="10.00">turtleClasses.Turtle.getPen</text>
</a>
</g>
</g>
<!-- Node1&#45;&gt;Node2 -->
<g id="edge1" class="edge"><title>Node1&#45;&gt;Node2</title>
<path fill="none" stroke="midnightblue" d="M178.087,-37.5828C186.626,-38.4148 195.262,-39.2563 203.73,-40.0814"/>
<polygon fill="midnightblue" stroke="midnightblue" points="203.665,-43.5916 213.958,-41.0779 204.344,-36.6246 203.665,-43.5916"/>
</g>
<!-- Node3 -->
<g id="node3" class="node"><title>Node3</title>
<g id="a_node3"><a xlink:href="../../d3/d0e/classfrontend_1_1_pen.html#a8a90b592552fe72196f66c7641bccb35" target="_top" xlink:title="frontend.Pen.setLineWidth">
<polygon fill="white" stroke="black" points="215,-0.5 215,-19.5 357,-19.5 357,-0.5 215,-0.5"/>
<text text-anchor="middle" x="286" y="-7.5" font-family="Helvetica,sans-Serif" font-size="10.00">frontend.Pen.setLineWidth</text>
</a>
</g>
</g>
<!-- Node1&#45;&gt;Node3 -->
<g id="edge2" class="edge"><title>Node1&#45;&gt;Node3</title>
<path fill="none" stroke="midnightblue" d="M178.087,-20.4172C186.937,-19.5548 195.892,-18.6823 204.656,-17.8284"/>
<polygon fill="midnightblue" stroke="midnightblue" points="205.225,-21.2896 214.838,-16.8363 204.546,-14.3226 205.225,-21.2896"/>
</g>
</g>
</svg>
