<?xml version="1.0" encoding="UTF-8" standalone="no"?>
<!DOCTYPE svg PUBLIC "-//W3C//DTD SVG 1.1//EN"
 "http://www.w3.org/Graphics/SVG/1.1/DTD/svg11.dtd">
<!-- Generated by graphviz version 2.36.0 (20140111.2315)
 -->
<!-- Title: main.Initializer Pages: 1 -->
<svg width="296pt" height="244pt"
 viewBox="0.00 0.00 296.00 244.00" xmlns="http://www.w3.org/2000/svg" xmlns:xlink="http://www.w3.org/1999/xlink">
<g id="graph0" class="graph" transform="scale(1 1) rotate(0) translate(4 240)">
<title>main.Initializer</title>
<polygon fill="white" stroke="none" points="-4,4 -4,-240 292,-240 292,4 -4,4"/>
<!-- Node1 -->
<g id="node1" class="node"><title>Node1</title>
<polygon fill="#bfbfbf" stroke="black" points="89,-0.5 89,-19.5 175,-19.5 175,-0.5 89,-0.5"/>
<text text-anchor="middle" x="132" y="-7.5" font-family="Helvetica,sans-Serif" font-size="10.00">main.Initializer</text>
</g>
<!-- Node2 -->
<g id="node2" class="node"><title>Node2</title>
<polygon fill="white" stroke="#bfbfbf" points="63.5,-68.5 63.5,-87.5 132.5,-87.5 132.5,-68.5 63.5,-68.5"/>
<text text-anchor="middle" x="98" y="-75.5" font-family="Helvetica,sans-Serif" font-size="10.00">Application</text>
</g>
<!-- Node2&#45;&gt;Node1 -->
<g id="edge1" class="edge"><title>Node2&#45;&gt;Node1</title>
<path fill="none" stroke="midnightblue" d="M107.177,-59.1859C113.737,-46.4523 122.284,-29.8607 127.445,-19.8411"/>
<polygon fill="midnightblue" stroke="midnightblue" points="103.913,-57.879 102.445,-68.3717 110.136,-61.0848 103.913,-57.879"/>
</g>
<!-- Node3 -->
<g id="node3" class="node"><title>Node3</title>
<g id="a_node3"><a xlink:href="../../d0/dc4/classfrontend_1_1_g_u_i_maker.html" target="_top" xlink:title="frontend.GUIMaker">
<polygon fill="white" stroke="black" points="150.5,-68.5 150.5,-87.5 257.5,-87.5 257.5,-68.5 150.5,-68.5"/>
<text text-anchor="middle" x="204" y="-75.5" font-family="Helvetica,sans-Serif" font-size="10.00">frontend.GUIMaker</text>
</a>
</g>
</g>
<!-- Node3&#45;&gt;Node1 -->
<g id="edge2" class="edge"><title>Node3&#45;&gt;Node1</title>
<path fill="none" stroke="#9a32cd" stroke-dasharray="5,2" d="M186.995,-61.4122C172.851,-48.4468 153.225,-30.4559 141.645,-19.8411"/>
<polygon fill="#9a32cd" stroke="#9a32cd" points="184.851,-64.1944 194.587,-68.3717 189.581,-59.0343 184.851,-64.1944"/>
<text text-anchor="middle" x="198" y="-41.5" font-family="Helvetica,sans-Serif" font-size="10.00"> myMaker</text>
</g>
<!-- Node4 -->
<g id="node4" class="node"><title>Node4</title>
<g id="a_node4"><a xlink:href="../../de/d50/classerrors_and_exceptions_1_1_error_pop_up.html" target="_top" xlink:title="errorsAndExceptions.Error\lPopUp">
<polygon fill="white" stroke="black" points="79,-137 79,-167 221,-167 221,-137 79,-137"/>
<text text-anchor="start" x="87" y="-155" font-family="Helvetica,sans-Serif" font-size="10.00">errorsAndExceptions.Error</text>
<text text-anchor="middle" x="150" y="-144" font-family="Helvetica,sans-Serif" font-size="10.00">PopUp</text>
</a>
</g>
</g>
<!-- Node4&#45;&gt;Node3 -->
<g id="edge3" class="edge"><title>Node4&#45;&gt;Node3</title>
<path fill="none" stroke="#9a32cd" stroke-dasharray="5,2" d="M166.751,-128.665C177.12,-114.839 189.857,-97.8568 197.431,-87.7589"/>
<polygon fill="#9a32cd" stroke="#9a32cd" points="163.869,-126.675 160.669,-136.775 169.469,-130.875 163.869,-126.675"/>
<text text-anchor="middle" x="194.5" y="-109.5" font-family="Helvetica,sans-Serif" font-size="10.00"> EPU</text>
</g>
<!-- Node5 -->
<g id="node5" class="node"><title>Node5</title>
<polygon fill="white" stroke="#bfbfbf" points="-0.5,-216.5 -0.5,-235.5 44.5,-235.5 44.5,-216.5 -0.5,-216.5"/>
<text text-anchor="middle" x="22" y="-223.5" font-family="Helvetica,sans-Serif" font-size="10.00">Stage</text>
</g>
<!-- Node5&#45;&gt;Node4 -->
<g id="edge4" class="edge"><title>Node5&#45;&gt;Node4</title>
<path fill="none" stroke="#9a32cd" stroke-dasharray="5,2" d="M40.3962,-209.905C50.2914,-202.194 62.9157,-192.991 75,-186 87.1905,-178.948 101.169,-172.415 113.729,-167.054"/>
<polygon fill="#9a32cd" stroke="#9a32cd" points="38.1283,-207.237 32.4852,-216.203 42.4885,-212.713 38.1283,-207.237"/>
<text text-anchor="middle" x="107" y="-189.5" font-family="Helvetica,sans-Serif" font-size="10.00"> popUpStage</text>
</g>
<!-- Node6 -->
<g id="node6" class="node"><title>Node6</title>
<polygon fill="white" stroke="#bfbfbf" points="62.5,-216.5 62.5,-235.5 223.5,-235.5 223.5,-216.5 62.5,-216.5"/>
<text text-anchor="middle" x="143" y="-223.5" font-family="Helvetica,sans-Serif" font-size="10.00">EventHandler&lt; ActionEvent &gt;</text>
</g>
<!-- Node6&#45;&gt;Node4 -->
<g id="edge5" class="edge"><title>Node6&#45;&gt;Node4</title>
<path fill="none" stroke="#9a32cd" stroke-dasharray="5,2" d="M142.901,-205.969C143.024,-199.606 143.331,-192.485 144,-186 144.645,-179.744 145.814,-172.893 146.949,-167.063"/>
<polygon fill="#9a32cd" stroke="#9a32cd" points="139.399,-206.281 142.84,-216.301 146.399,-206.322 139.399,-206.281"/>
<text text-anchor="middle" x="174" y="-189.5" font-family="Helvetica,sans-Serif" font-size="10.00"> closePopUp</text>
</g>
<!-- Node7 -->
<g id="node7" class="node"><title>Node7</title>
<polygon fill="white" stroke="#bfbfbf" points="242,-216.5 242,-235.5 288,-235.5 288,-216.5 242,-216.5"/>
<text text-anchor="middle" x="265" y="-223.5" font-family="Helvetica,sans-Serif" font-size="10.00">Group</text>
</g>
<!-- Node7&#45;&gt;Node3 -->
<g id="edge7" class="edge"><title>Node7&#45;&gt;Node3</title>
<path fill="none" stroke="#9a32cd" stroke-dasharray="5,2" d="M258.164,-206.789C251.305,-188.719 240.307,-160.289 230,-136 222.692,-118.778 213.467,-98.9676 208.2,-87.821"/>
<polygon fill="#9a32cd" stroke="#9a32cd" points="254.966,-208.227 261.772,-216.347 261.515,-205.755 254.966,-208.227"/>
<text text-anchor="middle" x="262" y="-149.5" font-family="Helvetica,sans-Serif" font-size="10.00"> myRoot</text>
</g>
<!-- Node7&#45;&gt;Node4 -->
<g id="edge6" class="edge"><title>Node7&#45;&gt;Node4</title>
<path fill="none" stroke="#9a32cd" stroke-dasharray="5,2" d="M242.907,-210.723C231.352,-203.294 216.952,-194.097 204,-186 193.938,-179.71 182.755,-172.854 173.188,-167.029"/>
<polygon fill="#9a32cd" stroke="#9a32cd" points="241.18,-213.774 251.482,-216.247 244.971,-207.889 241.18,-213.774"/>
<text text-anchor="middle" x="233.5" y="-189.5" font-family="Helvetica,sans-Serif" font-size="10.00"> root</text>
</g>
</g>
</svg>
