<?xml version="1.0" encoding="UTF-8" standalone="no"?>
<!DOCTYPE svg PUBLIC "-//W3C//DTD SVG 1.1//EN"
 "http://www.w3.org/Graphics/SVG/1.1/DTD/svg11.dtd">
<!-- Generated by graphviz version 2.36.0 (20140111.2315)
 -->
<!-- Title: save.load.CustomReaderWriter.readFromFile Pages: 1 -->
<svg width="410pt" height="283pt"
 viewBox="0.00 0.00 410.00 283.00" xmlns="http://www.w3.org/2000/svg" xmlns:xlink="http://www.w3.org/1999/xlink">
<g id="graph0" class="graph" transform="scale(1 1) rotate(0) translate(4 279)">
<title>save.load.CustomReaderWriter.readFromFile</title>
<polygon fill="white" stroke="none" points="-4,4 -4,-279 406,-279 406,4 -4,4"/>
<!-- Node1 -->
<g id="node1" class="node"><title>Node1</title>
<polygon fill="#bfbfbf" stroke="black" points="0.5,-122 0.5,-152 187.5,-152 187.5,-122 0.5,-122"/>
<text text-anchor="start" x="8.5" y="-140" font-family="Helvetica,sans-Serif" font-size="10.00">save.load.CustomReaderWriter.read</text>
<text text-anchor="middle" x="94" y="-129" font-family="Helvetica,sans-Serif" font-size="10.00">FromFile</text>
</g>
<!-- Node2 -->
<g id="node2" class="node"><title>Node2</title>
<g id="a_node2"><a xlink:href="../../de/d4e/classexpression_tree_1_1_variable_node_map.html#a7bd9f4565fb7e72c11659a650e428647" target="_top" xlink:title="expressionTree.VariableNode\lMap.applyLoadedMap">
<polygon fill="white" stroke="black" points="235.5,-245 235.5,-275 390.5,-275 390.5,-245 235.5,-245"/>
<text text-anchor="start" x="243.5" y="-263" font-family="Helvetica,sans-Serif" font-size="10.00">expressionTree.VariableNode</text>
<text text-anchor="middle" x="313" y="-252" font-family="Helvetica,sans-Serif" font-size="10.00">Map.applyLoadedMap</text>
</a>
</g>
</g>
<!-- Node1&#45;&gt;Node2 -->
<g id="edge1" class="edge"><title>Node1&#45;&gt;Node2</title>
<path fill="none" stroke="midnightblue" d="M110.767,-152.159C133.837,-173.554 178.961,-212.504 224,-235 228.589,-237.292 233.421,-239.404 238.361,-241.344"/>
<polygon fill="midnightblue" stroke="midnightblue" points="237.366,-244.707 247.959,-244.866 239.777,-238.136 237.366,-244.707"/>
</g>
<!-- Node3 -->
<g id="node3" class="node"><title>Node3</title>
<g id="a_node3"><a xlink:href="../../d8/d36/classexpression_tree_1_1_user_function_map.html#a0104a6b6b189d76ec48f83205111fde9" target="_top" xlink:title="expressionTree.UserFunction\lMap.applyLoadedMap">
<polygon fill="white" stroke="black" points="236.5,-196 236.5,-226 389.5,-226 389.5,-196 236.5,-196"/>
<text text-anchor="start" x="244.5" y="-214" font-family="Helvetica,sans-Serif" font-size="10.00">expressionTree.UserFunction</text>
<text text-anchor="middle" x="313" y="-203" font-family="Helvetica,sans-Serif" font-size="10.00">Map.applyLoadedMap</text>
</a>
</g>
</g>
<!-- Node1&#45;&gt;Node3 -->
<g id="edge2" class="edge"><title>Node1&#45;&gt;Node3</title>
<path fill="none" stroke="midnightblue" d="M131.953,-152.008C157.582,-162.177 192.617,-175.603 224,-186 231.314,-188.423 239.017,-190.826 246.698,-193.129"/>
<polygon fill="midnightblue" stroke="midnightblue" points="245.803,-196.514 256.385,-195.986 247.784,-189.8 245.803,-196.514"/>
</g>
<!-- Node4 -->
<g id="node4" class="node"><title>Node4</title>
<g id="a_node4"><a xlink:href="../../d3/db3/classsave_1_1load_1_1_custom_parameters.html#a6798af3a3e5bb70a541c471077cc04a4" target="_top" xlink:title="save.load.CustomParameters.get\lFunctions">
<polygon fill="white" stroke="black" points="224.5,-147 224.5,-177 401.5,-177 401.5,-147 224.5,-147"/>
<text text-anchor="start" x="232.5" y="-165" font-family="Helvetica,sans-Serif" font-size="10.00">save.load.CustomParameters.get</text>
<text text-anchor="middle" x="313" y="-154" font-family="Helvetica,sans-Serif" font-size="10.00">Functions</text>
</a>
</g>
</g>
<!-- Node1&#45;&gt;Node4 -->
<g id="edge3" class="edge"><title>Node1&#45;&gt;Node4</title>
<path fill="none" stroke="midnightblue" d="M187.657,-147.675C196.529,-148.697 205.545,-149.736 214.462,-150.763"/>
<polygon fill="midnightblue" stroke="midnightblue" points="214.138,-154.249 224.473,-151.916 214.939,-147.295 214.138,-154.249"/>
</g>
<!-- Node5 -->
<g id="node5" class="node"><title>Node5</title>
<g id="a_node5"><a xlink:href="../../d8/d36/classexpression_tree_1_1_user_function_map.html#a8cb80acc8ccf7338f39433c854b9dfb4" target="_top" xlink:title="expressionTree.UserFunction\lMap.getUserFunctionMap">
<polygon fill="white" stroke="black" points="236.5,-98 236.5,-128 389.5,-128 389.5,-98 236.5,-98"/>
<text text-anchor="start" x="244.5" y="-116" font-family="Helvetica,sans-Serif" font-size="10.00">expressionTree.UserFunction</text>
<text text-anchor="middle" x="313" y="-105" font-family="Helvetica,sans-Serif" font-size="10.00">Map.getUserFunctionMap</text>
</a>
</g>
</g>
<!-- Node1&#45;&gt;Node5 -->
<g id="edge4" class="edge"><title>Node1&#45;&gt;Node5</title>
<path fill="none" stroke="midnightblue" d="M187.657,-126.752C200.473,-125.335 213.591,-123.884 226.274,-122.481"/>
<polygon fill="midnightblue" stroke="midnightblue" points="226.784,-125.946 236.338,-121.368 226.014,-118.989 226.784,-125.946"/>
</g>
<!-- Node6 -->
<g id="node6" class="node"><title>Node6</title>
<g id="a_node6"><a xlink:href="../../de/d4e/classexpression_tree_1_1_variable_node_map.html#afa5500d8a01c92260f32d787c802b802" target="_top" xlink:title="expressionTree.VariableNode\lMap.getVariableNodeMap">
<polygon fill="white" stroke="black" points="235.5,-49 235.5,-79 390.5,-79 390.5,-49 235.5,-49"/>
<text text-anchor="start" x="243.5" y="-67" font-family="Helvetica,sans-Serif" font-size="10.00">expressionTree.VariableNode</text>
<text text-anchor="middle" x="313" y="-56" font-family="Helvetica,sans-Serif" font-size="10.00">Map.getVariableNodeMap</text>
</a>
</g>
</g>
<!-- Node1&#45;&gt;Node6 -->
<g id="edge5" class="edge"><title>Node1&#45;&gt;Node6</title>
<path fill="none" stroke="midnightblue" d="M133.103,-121.915C158.639,-112.03 193.116,-99.1152 224,-89 231.323,-86.6017 239.03,-84.2145 246.714,-81.9204"/>
<polygon fill="midnightblue" stroke="midnightblue" points="247.798,-85.2501 256.404,-79.0704 245.822,-78.5345 247.798,-85.2501"/>
</g>
<!-- Node7 -->
<g id="node7" class="node"><title>Node7</title>
<g id="a_node7"><a xlink:href="../../d3/db3/classsave_1_1load_1_1_custom_parameters.html#a0e38de2d65c8aaae2281da79dbd9020b" target="_top" xlink:title="save.load.CustomParameters.get\lVariables">
<polygon fill="white" stroke="black" points="224.5,-0 224.5,-30 401.5,-30 401.5,-0 224.5,-0"/>
<text text-anchor="start" x="232.5" y="-18" font-family="Helvetica,sans-Serif" font-size="10.00">save.load.CustomParameters.get</text>
<text text-anchor="middle" x="313" y="-7" font-family="Helvetica,sans-Serif" font-size="10.00">Variables</text>
</a>
</g>
</g>
<!-- Node1&#45;&gt;Node7 -->
<g id="edge6" class="edge"><title>Node1&#45;&gt;Node7</title>
<path fill="none" stroke="midnightblue" d="M111.187,-121.649C134.41,-100.41 179.325,-62.1772 224,-40 228.801,-37.6166 233.866,-35.4271 239.041,-33.4219"/>
<polygon fill="midnightblue" stroke="midnightblue" points="240.238,-36.7111 248.444,-30.0093 237.85,-30.1312 240.238,-36.7111"/>
</g>
</g>
</svg>
