<?xml version="1.0" encoding="UTF-8" standalone="no"?>
<!DOCTYPE svg PUBLIC "-//W3C//DTD SVG 1.1//EN"
 "http://www.w3.org/Graphics/SVG/1.1/DTD/svg11.dtd">
<!-- Generated by graphviz version 2.36.0 (20140111.2315)
 -->
<!-- Title: save.load.CustomReaderWriter.writeToFile Pages: 1 -->
<svg width="388pt" height="87pt"
 viewBox="0.00 0.00 388.00 87.00" xmlns="http://www.w3.org/2000/svg" xmlns:xlink="http://www.w3.org/1999/xlink">
<g id="graph0" class="graph" transform="scale(1 1) rotate(0) translate(4 83)">
<title>save.load.CustomReaderWriter.writeToFile</title>
<polygon fill="white" stroke="none" points="-4,4 -4,-83 384,-83 384,4 -4,4"/>
<!-- Node1 -->
<g id="node1" class="node"><title>Node1</title>
<polygon fill="#bfbfbf" stroke="black" points="0,-24 0,-54 188,-54 188,-24 0,-24"/>
<text text-anchor="start" x="8" y="-42" font-family="Helvetica,sans-Serif" font-size="10.00">save.load.CustomReaderWriter.write</text>
<text text-anchor="middle" x="94" y="-31" font-family="Helvetica,sans-Serif" font-size="10.00">ToFile</text>
</g>
<!-- Node2 -->
<g id="node2" class="node"><title>Node2</title>
<g id="a_node2"><a xlink:href="../../d8/d36/classexpression_tree_1_1_user_function_map.html#a8cb80acc8ccf7338f39433c854b9dfb4" target="_top" xlink:title="expressionTree.UserFunction\lMap.getUserFunctionMap">
<polygon fill="white" stroke="black" points="225.5,-49 225.5,-79 378.5,-79 378.5,-49 225.5,-49"/>
<text text-anchor="start" x="233.5" y="-67" font-family="Helvetica,sans-Serif" font-size="10.00">expressionTree.UserFunction</text>
<text text-anchor="middle" x="302" y="-56" font-family="Helvetica,sans-Serif" font-size="10.00">Map.getUserFunctionMap</text>
</a>
</g>
</g>
<!-- Node1&#45;&gt;Node2 -->
<g id="edge1" class="edge"><title>Node1&#45;&gt;Node2</title>
<path fill="none" stroke="midnightblue" d="M188.056,-50.2932C197.12,-51.3932 206.287,-52.5057 215.274,-53.5964"/>
<polygon fill="midnightblue" stroke="midnightblue" points="214.98,-57.0863 225.329,-54.8166 215.823,-50.1373 214.98,-57.0863"/>
</g>
<!-- Node3 -->
<g id="node3" class="node"><title>Node3</title>
<g id="a_node3"><a xlink:href="../../de/d4e/classexpression_tree_1_1_variable_node_map.html#afa5500d8a01c92260f32d787c802b802" target="_top" xlink:title="expressionTree.VariableNode\lMap.getVariableNodeMap">
<polygon fill="white" stroke="black" points="224.5,-0 224.5,-30 379.5,-30 379.5,-0 224.5,-0"/>
<text text-anchor="start" x="232.5" y="-18" font-family="Helvetica,sans-Serif" font-size="10.00">expressionTree.VariableNode</text>
<text text-anchor="middle" x="302" y="-7" font-family="Helvetica,sans-Serif" font-size="10.00">Map.getVariableNodeMap</text>
</a>
</g>
</g>
<!-- Node1&#45;&gt;Node3 -->
<g id="edge2" class="edge"><title>Node1&#45;&gt;Node3</title>
<path fill="none" stroke="midnightblue" d="M188.056,-28.1585C196.792,-27.1407 205.625,-26.1116 214.3,-25.101"/>
<polygon fill="midnightblue" stroke="midnightblue" points="214.867,-28.5586 224.395,-23.9249 214.057,-21.6057 214.867,-28.5586"/>
</g>
</g>
</svg>
