<?xml version="1.0" encoding="UTF-8" standalone="no"?>
<!DOCTYPE svg PUBLIC "-//W3C//DTD SVG 1.1//EN"
 "http://www.w3.org/Graphics/SVG/1.1/DTD/svg11.dtd">
<!-- Generated by graphviz version 2.36.0 (20140111.2315)
 -->
<!-- Title: frontend.GUIMaker Pages: 1 -->
<svg width="303pt" height="176pt"
 viewBox="0.00 0.00 303.00 176.00" xmlns="http://www.w3.org/2000/svg" xmlns:xlink="http://www.w3.org/1999/xlink">
<g id="graph0" class="graph" transform="scale(1 1) rotate(0) translate(4 172)">
<title>frontend.GUIMaker</title>
<polygon fill="white" stroke="none" points="-4,4 -4,-172 299,-172 299,4 -4,4"/>
<!-- Node1 -->
<g id="node1" class="node"><title>Node1</title>
<polygon fill="#bfbfbf" stroke="black" points="186.5,-0.5 186.5,-19.5 293.5,-19.5 293.5,-0.5 186.5,-0.5"/>
<text text-anchor="middle" x="240" y="-7.5" font-family="Helvetica,sans-Serif" font-size="10.00">frontend.GUIMaker</text>
</g>
<!-- Node2 -->
<g id="node2" class="node"><title>Node2</title>
<g id="a_node2"><a xlink:href="../../de/d50/classerrors_and_exceptions_1_1_error_pop_up.html" target="_top" xlink:title="errorsAndExceptions.Error\lPopUp">
<polygon fill="white" stroke="black" points="79,-69 79,-99 221,-99 221,-69 79,-69"/>
<text text-anchor="start" x="87" y="-87" font-family="Helvetica,sans-Serif" font-size="10.00">errorsAndExceptions.Error</text>
<text text-anchor="middle" x="150" y="-76" font-family="Helvetica,sans-Serif" font-size="10.00">PopUp</text>
</a>
</g>
</g>
<!-- Node2&#45;&gt;Node1 -->
<g id="edge1" class="edge"><title>Node2&#45;&gt;Node1</title>
<path fill="none" stroke="#9a32cd" stroke-dasharray="5,2" d="M176.029,-62.177C193.743,-48.0059 216.257,-29.9942 229.307,-19.5543"/>
<polygon fill="#9a32cd" stroke="#9a32cd" points="173.403,-59.7951 167.781,-68.7751 177.776,-65.2612 173.403,-59.7951"/>
<text text-anchor="middle" x="217.5" y="-41.5" font-family="Helvetica,sans-Serif" font-size="10.00"> EPU</text>
</g>
<!-- Node3 -->
<g id="node3" class="node"><title>Node3</title>
<polygon fill="white" stroke="#bfbfbf" points="-0.5,-148.5 -0.5,-167.5 44.5,-167.5 44.5,-148.5 -0.5,-148.5"/>
<text text-anchor="middle" x="22" y="-155.5" font-family="Helvetica,sans-Serif" font-size="10.00">Stage</text>
</g>
<!-- Node3&#45;&gt;Node2 -->
<g id="edge2" class="edge"><title>Node3&#45;&gt;Node2</title>
<path fill="none" stroke="#9a32cd" stroke-dasharray="5,2" d="M40.7972,-141.955C50.8939,-134.259 63.7534,-125.052 76,-118 88.19,-110.98 102.148,-104.409 114.633,-99.0076"/>
<polygon fill="#9a32cd" stroke="#9a32cd" points="38.4643,-139.336 32.7204,-148.239 42.7624,-144.861 38.4643,-139.336"/>
<text text-anchor="middle" x="108" y="-121.5" font-family="Helvetica,sans-Serif" font-size="10.00"> popUpStage</text>
</g>
<!-- Node4 -->
<g id="node4" class="node"><title>Node4</title>
<polygon fill="white" stroke="#bfbfbf" points="62.5,-148.5 62.5,-167.5 223.5,-167.5 223.5,-148.5 62.5,-148.5"/>
<text text-anchor="middle" x="143" y="-155.5" font-family="Helvetica,sans-Serif" font-size="10.00">EventHandler&lt; ActionEvent &gt;</text>
</g>
<!-- Node4&#45;&gt;Node2 -->
<g id="edge3" class="edge"><title>Node4&#45;&gt;Node2</title>
<path fill="none" stroke="#9a32cd" stroke-dasharray="5,2" d="M142.901,-137.969C143.024,-131.606 143.331,-124.485 144,-118 144.645,-111.744 145.814,-104.893 146.949,-99.0631"/>
<polygon fill="#9a32cd" stroke="#9a32cd" points="139.399,-138.281 142.84,-148.301 146.399,-138.322 139.399,-138.281"/>
<text text-anchor="middle" x="174" y="-121.5" font-family="Helvetica,sans-Serif" font-size="10.00"> closePopUp</text>
</g>
<!-- Node5 -->
<g id="node5" class="node"><title>Node5</title>
<polygon fill="white" stroke="#bfbfbf" points="242,-148.5 242,-167.5 288,-167.5 288,-148.5 242,-148.5"/>
<text text-anchor="middle" x="265" y="-155.5" font-family="Helvetica,sans-Serif" font-size="10.00">Group</text>
</g>
<!-- Node5&#45;&gt;Node1 -->
<g id="edge5" class="edge"><title>Node5&#45;&gt;Node1</title>
<path fill="none" stroke="#9a32cd" stroke-dasharray="5,2" d="M261.767,-138.121C256.314,-106.272 245.491,-43.0677 241.513,-19.8348"/>
<polygon fill="#9a32cd" stroke="#9a32cd" points="258.373,-139.038 263.511,-148.304 265.273,-137.857 258.373,-139.038"/>
<text text-anchor="middle" x="275" y="-81.5" font-family="Helvetica,sans-Serif" font-size="10.00"> myRoot</text>
</g>
<!-- Node5&#45;&gt;Node2 -->
<g id="edge4" class="edge"><title>Node5&#45;&gt;Node2</title>
<path fill="none" stroke="#9a32cd" stroke-dasharray="5,2" d="M242.907,-142.723C231.352,-135.294 216.952,-126.097 204,-118 193.938,-111.71 182.755,-104.854 173.188,-99.0289"/>
<polygon fill="#9a32cd" stroke="#9a32cd" points="241.18,-145.774 251.482,-148.247 244.971,-139.889 241.18,-145.774"/>
<text text-anchor="middle" x="234.5" y="-121.5" font-family="Helvetica,sans-Serif" font-size="10.00"> root</text>
</g>
</g>
</svg>
