<?xml version="1.0" encoding="UTF-8" standalone="no"?>
<!DOCTYPE svg PUBLIC "-//W3C//DTD SVG 1.1//EN"
 "http://www.w3.org/Graphics/SVG/1.1/DTD/svg11.dtd">
<!-- Generated by graphviz version 2.36.0 (20140111.2315)
 -->
<!-- Title: displayCommands.Forward.doAction Pages: 1 -->
<svg width="876pt" height="38pt"
 viewBox="0.00 0.00 876.00 38.00" xmlns="http://www.w3.org/2000/svg" xmlns:xlink="http://www.w3.org/1999/xlink">
<g id="graph0" class="graph" transform="scale(1 1) rotate(0) translate(4 34)">
<title>displayCommands.Forward.doAction</title>
<polygon fill="white" stroke="none" points="-4,4 -4,-34 872,-34 872,4 -4,4"/>
<!-- Node1 -->
<g id="node1" class="node"><title>Node1</title>
<polygon fill="#bfbfbf" stroke="black" points="0.5,-0 0.5,-30 161.5,-30 161.5,-0 0.5,-0"/>
<text text-anchor="start" x="8.5" y="-18" font-family="Helvetica,sans-Serif" font-size="10.00">displayCommands.Forward.do</text>
<text text-anchor="middle" x="81" y="-7" font-family="Helvetica,sans-Serif" font-size="10.00">Action</text>
</g>
<!-- Node2 -->
<g id="node2" class="node"><title>Node2</title>
<g id="a_node2"><a xlink:href="../../d8/d89/classturtle_classes_1_1_turtle.html#a64e1dd57e46b76e972cc94d829488a5a" target="_top" xlink:title="turtleClasses.Turtle.move">
<polygon fill="white" stroke="black" points="198.5,-5.5 198.5,-24.5 335.5,-24.5 335.5,-5.5 198.5,-5.5"/>
<text text-anchor="middle" x="267" y="-12.5" font-family="Helvetica,sans-Serif" font-size="10.00">turtleClasses.Turtle.move</text>
</a>
</g>
</g>
<!-- Node1&#45;&gt;Node2 -->
<g id="edge1" class="edge"><title>Node1&#45;&gt;Node2</title>
<path fill="none" stroke="midnightblue" d="M161.635,-15C170.431,-15 179.38,-15 188.154,-15"/>
<polygon fill="midnightblue" stroke="midnightblue" points="188.353,-18.5001 198.353,-15 188.353,-11.5001 188.353,-18.5001"/>
</g>
<!-- Node3 -->
<g id="node3" class="node"><title>Node3</title>
<g id="a_node3"><a xlink:href="../../da/deb/classfrontend_1_1_line_drawer.html#a6989f18991010fb1e13d2e451f2464f1" target="_top" xlink:title="frontend.LineDrawer.draw">
<polygon fill="white" stroke="black" points="372,-5.5 372,-24.5 510,-24.5 510,-5.5 372,-5.5"/>
<text text-anchor="middle" x="441" y="-12.5" font-family="Helvetica,sans-Serif" font-size="10.00">frontend.LineDrawer.draw</text>
</a>
</g>
</g>
<!-- Node2&#45;&gt;Node3 -->
<g id="edge2" class="edge"><title>Node2&#45;&gt;Node3</title>
<path fill="none" stroke="midnightblue" d="M335.979,-15C344.483,-15 353.233,-15 361.876,-15"/>
<polygon fill="midnightblue" stroke="midnightblue" points="361.952,-18.5001 371.952,-15 361.952,-11.5001 361.952,-18.5001"/>
</g>
<!-- Node4 -->
<g id="node4" class="node"><title>Node4</title>
<g id="a_node4"><a xlink:href="../../da/deb/classfrontend_1_1_line_drawer.html#a815e10401e7bee5986e490aeb87b6c33" target="_top" xlink:title="frontend.LineDrawer.makeLine">
<polygon fill="white" stroke="black" points="546,-5.5 546,-24.5 708,-24.5 708,-5.5 546,-5.5"/>
<text text-anchor="middle" x="627" y="-12.5" font-family="Helvetica,sans-Serif" font-size="10.00">frontend.LineDrawer.makeLine</text>
</a>
</g>
</g>
<!-- Node3&#45;&gt;Node4 -->
<g id="edge3" class="edge"><title>Node3&#45;&gt;Node4</title>
<path fill="none" stroke="midnightblue" d="M510.253,-15C518.56,-15 527.144,-15 535.708,-15"/>
<polygon fill="midnightblue" stroke="midnightblue" points="535.735,-18.5001 545.735,-15 535.735,-11.5001 535.735,-18.5001"/>
</g>
<!-- Node5 -->
<g id="node5" class="node"><title>Node5</title>
<g id="a_node5"><a xlink:href="../../d3/d0e/classfrontend_1_1_pen.html#a53a8026e193d2ea338c563eaa0abf5ee" target="_top" xlink:title="frontend.Pen.drawLine">
<polygon fill="white" stroke="black" points="744.5,-5.5 744.5,-24.5 867.5,-24.5 867.5,-5.5 744.5,-5.5"/>
<text text-anchor="middle" x="806" y="-12.5" font-family="Helvetica,sans-Serif" font-size="10.00">frontend.Pen.drawLine</text>
</a>
</g>
</g>
<!-- Node4&#45;&gt;Node5 -->
<g id="edge4" class="edge"><title>Node4&#45;&gt;Node5</title>
<path fill="none" stroke="midnightblue" d="M708.214,-15C716.863,-15 725.618,-15 734.145,-15"/>
<polygon fill="midnightblue" stroke="midnightblue" points="734.412,-18.5001 744.412,-15 734.412,-11.5001 734.412,-18.5001"/>
</g>
</g>
</svg>
