<?xml version="1.0" encoding="UTF-8" standalone="no"?>
<!DOCTYPE svg PUBLIC "-//W3C//DTD SVG 1.1//EN"
 "http://www.w3.org/Graphics/SVG/1.1/DTD/svg11.dtd">
<!-- Generated by graphviz version 2.36.0 (20140111.2315)
 -->
<!-- Title: frontend.AbstractFeatures.SLogoTextBox Pages: 1 -->
<svg width="520pt" height="87pt"
 viewBox="0.00 0.00 520.00 87.00" xmlns="http://www.w3.org/2000/svg" xmlns:xlink="http://www.w3.org/1999/xlink">
<g id="graph0" class="graph" transform="scale(1 1) rotate(0) translate(4 83)">
<title>frontend.AbstractFeatures.SLogoTextBox</title>
<polygon fill="white" stroke="none" points="-4,4 -4,-83 516,-83 516,4 -4,4"/>
<!-- Node1 -->
<g id="node1" class="node"><title>Node1</title>
<polygon fill="#bfbfbf" stroke="black" points="182.5,-24 182.5,-54 327.5,-54 327.5,-24 182.5,-24"/>
<text text-anchor="start" x="190.5" y="-42" font-family="Helvetica,sans-Serif" font-size="10.00">frontend.AbstractFeatures.</text>
<text text-anchor="middle" x="255" y="-31" font-family="Helvetica,sans-Serif" font-size="10.00">SLogoTextBox</text>
</g>
<!-- Node3 -->
<g id="node3" class="node"><title>Node3</title>
<g id="a_node3"><a xlink:href="../../d4/d4a/classfrontend_1_1_concrete_features_1_1_change_line_width.html" target="_top" xlink:title="frontend.ConcreteFeatures.\lChangeLineWidth">
<polygon fill="white" stroke="black" points="364,-49 364,-79 512,-79 512,-49 364,-49"/>
<text text-anchor="start" x="372" y="-67" font-family="Helvetica,sans-Serif" font-size="10.00">frontend.ConcreteFeatures.</text>
<text text-anchor="middle" x="438" y="-56" font-family="Helvetica,sans-Serif" font-size="10.00">ChangeLineWidth</text>
</a>
</g>
</g>
<!-- Node1&#45;&gt;Node3 -->
<g id="edge2" class="edge"><title>Node1&#45;&gt;Node3</title>
<path fill="none" stroke="midnightblue" d="M337.714,-50.2865C346.445,-51.4923 355.285,-52.7134 363.906,-53.9042"/>
<polygon fill="midnightblue" stroke="midnightblue" points="337.921,-46.7819 327.536,-48.8807 336.963,-53.7161 337.921,-46.7819"/>
</g>
<!-- Node4 -->
<g id="node4" class="node"><title>Node4</title>
<g id="a_node4"><a xlink:href="../../d8/dc1/classfrontend_1_1_concrete_features_1_1_command_executer.html" target="_top" xlink:title="frontend.ConcreteFeatures.\lCommandExecuter">
<polygon fill="white" stroke="black" points="364,-0 364,-30 512,-30 512,-0 364,-0"/>
<text text-anchor="start" x="372" y="-18" font-family="Helvetica,sans-Serif" font-size="10.00">frontend.ConcreteFeatures.</text>
<text text-anchor="middle" x="438" y="-7" font-family="Helvetica,sans-Serif" font-size="10.00">CommandExecuter</text>
</a>
</g>
</g>
<!-- Node1&#45;&gt;Node4 -->
<g id="edge3" class="edge"><title>Node1&#45;&gt;Node4</title>
<path fill="none" stroke="midnightblue" d="M337.714,-28.165C346.445,-27.0074 355.285,-25.8352 363.906,-24.692"/>
<polygon fill="midnightblue" stroke="midnightblue" points="336.989,-24.7304 327.536,-29.5146 337.909,-31.6696 336.989,-24.7304"/>
</g>
<!-- Node2 -->
<g id="node2" class="node"><title>Node2</title>
<g id="a_node2"><a xlink:href="../../dc/db4/classfrontend_1_1_abstract_features_1_1_g_u_i_feature.html" target="_top" xlink:title="frontend.AbstractFeatures.\lGUIFeature">
<polygon fill="white" stroke="black" points="0.5,-24 0.5,-54 145.5,-54 145.5,-24 0.5,-24"/>
<text text-anchor="start" x="8.5" y="-42" font-family="Helvetica,sans-Serif" font-size="10.00">frontend.AbstractFeatures.</text>
<text text-anchor="middle" x="73" y="-31" font-family="Helvetica,sans-Serif" font-size="10.00">GUIFeature</text>
</a>
</g>
</g>
<!-- Node2&#45;&gt;Node1 -->
<g id="edge1" class="edge"><title>Node2&#45;&gt;Node1</title>
<path fill="none" stroke="midnightblue" d="M155.921,-39C164.722,-39 173.626,-39 182.295,-39"/>
<polygon fill="midnightblue" stroke="midnightblue" points="155.658,-35.5001 145.658,-39 155.658,-42.5001 155.658,-35.5001"/>
</g>
</g>
</svg>
