<?xml version="1.0" encoding="UTF-8" standalone="no"?>
<!DOCTYPE svg PUBLIC "-//W3C//DTD SVG 1.1//EN"
 "http://www.w3.org/Graphics/SVG/1.1/DTD/svg11.dtd">
<!-- Generated by graphviz version 2.36.0 (20140111.2315)
 -->
<!-- Title: comparators.And.evaluate Pages: 1 -->
<svg width="332pt" height="87pt"
 viewBox="0.00 0.00 332.00 87.00" xmlns="http://www.w3.org/2000/svg" xmlns:xlink="http://www.w3.org/1999/xlink">
<g id="graph0" class="graph" transform="scale(1 1) rotate(0) translate(4 83)">
<title>comparators.And.evaluate</title>
<polygon fill="white" stroke="none" points="-4,4 -4,-83 328,-83 328,4 -4,4"/>
<!-- Node1 -->
<g id="node1" class="node"><title>Node1</title>
<polygon fill="#bfbfbf" stroke="black" points="0,-29.5 0,-48.5 144,-48.5 144,-29.5 0,-29.5"/>
<text text-anchor="middle" x="72" y="-36.5" font-family="Helvetica,sans-Serif" font-size="10.00">comparators.And.evaluate</text>
</g>
<!-- Node2 -->
<g id="node2" class="node"><title>Node2</title>
<g id="a_node2"><a xlink:href="../../db/da5/classexpression_tree_1_1_expression_node.html#a76dbf0eda9446dbbe98827fb6ef33356" target="_top" xlink:title="expressionTree.Expression\lNode.getLeft">
<polygon fill="white" stroke="black" points="180.5,-49 180.5,-79 323.5,-79 323.5,-49 180.5,-49"/>
<text text-anchor="start" x="188.5" y="-67" font-family="Helvetica,sans-Serif" font-size="10.00">expressionTree.Expression</text>
<text text-anchor="middle" x="252" y="-56" font-family="Helvetica,sans-Serif" font-size="10.00">Node.getLeft</text>
</a>
</g>
</g>
<!-- Node1&#45;&gt;Node2 -->
<g id="edge1" class="edge"><title>Node1&#45;&gt;Node2</title>
<path fill="none" stroke="midnightblue" d="M140.802,-48.5227C150.427,-49.8746 160.404,-51.2758 170.244,-52.6579"/>
<polygon fill="midnightblue" stroke="midnightblue" points="170.04,-56.1635 180.43,-54.0885 171.014,-49.2316 170.04,-56.1635"/>
</g>
<!-- Node3 -->
<g id="node3" class="node"><title>Node3</title>
<g id="a_node3"><a xlink:href="../../db/da5/classexpression_tree_1_1_expression_node.html#a154ef8394f8f1a4f41d4842e72f0681e" target="_top" xlink:title="expressionTree.Expression\lNode.getRight">
<polygon fill="white" stroke="black" points="180.5,-0 180.5,-30 323.5,-30 323.5,-0 180.5,-0"/>
<text text-anchor="start" x="188.5" y="-18" font-family="Helvetica,sans-Serif" font-size="10.00">expressionTree.Expression</text>
<text text-anchor="middle" x="252" y="-7" font-family="Helvetica,sans-Serif" font-size="10.00">Node.getRight</text>
</a>
</g>
</g>
<!-- Node1&#45;&gt;Node3 -->
<g id="edge2" class="edge"><title>Node1&#45;&gt;Node3</title>
<path fill="none" stroke="midnightblue" d="M143.606,-29.4801C152.421,-28.2915 161.488,-27.069 170.441,-25.8619"/>
<polygon fill="midnightblue" stroke="midnightblue" points="171.037,-29.3133 180.479,-24.5084 170.101,-22.3761 171.037,-29.3133"/>
</g>
</g>
</svg>
