<?xml version="1.0" encoding="UTF-8" standalone="no"?>
<!DOCTYPE svg PUBLIC "-//W3C//DTD SVG 1.1//EN"
 "http://www.w3.org/Graphics/SVG/1.1/DTD/svg11.dtd">
<!-- Generated by graphviz version 2.36.0 (20140111.2315)
 -->
<!-- Title: frontend.ConcreteFeatures.ChooseLineStyle.doAction Pages: 1 -->
<svg width="336pt" height="66pt"
 viewBox="0.00 0.00 336.00 66.00" xmlns="http://www.w3.org/2000/svg" xmlns:xlink="http://www.w3.org/1999/xlink">
<g id="graph0" class="graph" transform="scale(1 1) rotate(0) translate(4 62)">
<title>frontend.ConcreteFeatures.ChooseLineStyle.doAction</title>
<polygon fill="white" stroke="none" points="-4,4 -4,-62 332,-62 332,4 -4,4"/>
<!-- Node1 -->
<g id="node1" class="node"><title>Node1</title>
<polygon fill="#bfbfbf" stroke="black" points="0,-14 0,-44 148,-44 148,-14 0,-14"/>
<text text-anchor="start" x="8" y="-32" font-family="Helvetica,sans-Serif" font-size="10.00">frontend.ConcreteFeatures.</text>
<text text-anchor="middle" x="74" y="-21" font-family="Helvetica,sans-Serif" font-size="10.00">ChooseLineStyle.doAction</text>
</g>
<!-- Node2 -->
<g id="node2" class="node"><title>Node2</title>
<g id="a_node2"><a xlink:href="../../d8/d89/classturtle_classes_1_1_turtle.html#aebccf7c8d3ea7b21ea040ec199df9524" target="_top" xlink:title="turtleClasses.Turtle.getPen">
<polygon fill="white" stroke="black" points="184,-38.5 184,-57.5 328,-57.5 328,-38.5 184,-38.5"/>
<text text-anchor="middle" x="256" y="-45.5" font-family="Helvetica,sans-Serif" font-size="10.00">turtleClasses.Turtle.getPen</text>
</a>
</g>
</g>
<!-- Node1&#45;&gt;Node2 -->
<g id="edge1" class="edge"><title>Node1&#45;&gt;Node2</title>
<path fill="none" stroke="midnightblue" d="M148.213,-36.728C156.678,-37.6215 165.348,-38.5367 173.91,-39.4405"/>
<polygon fill="midnightblue" stroke="midnightblue" points="173.579,-42.925 183.892,-40.4941 174.314,-35.9636 173.579,-42.925"/>
</g>
<!-- Node3 -->
<g id="node3" class="node"><title>Node3</title>
<g id="a_node3"><a xlink:href="../../d3/d0e/classfrontend_1_1_pen.html#ab49e5bce4b3a5c7532a395f9ce669944" target="_top" xlink:title="frontend.Pen.setLineStyle">
<polygon fill="white" stroke="black" points="186,-0.5 186,-19.5 326,-19.5 326,-0.5 186,-0.5"/>
<text text-anchor="middle" x="256" y="-7.5" font-family="Helvetica,sans-Serif" font-size="10.00">frontend.Pen.setLineStyle</text>
</a>
</g>
</g>
<!-- Node1&#45;&gt;Node3 -->
<g id="edge2" class="edge"><title>Node1&#45;&gt;Node3</title>
<path fill="none" stroke="midnightblue" d="M148.213,-21.272C157.265,-20.3165 166.552,-19.3362 175.689,-18.3717"/>
<polygon fill="midnightblue" stroke="midnightblue" points="176.345,-21.822 185.922,-17.2916 175.61,-14.8607 176.345,-21.822"/>
</g>
</g>
</svg>
