<?xml version="1.0" encoding="UTF-8" standalone="no"?>
<!DOCTYPE svg PUBLIC "-//W3C//DTD SVG 1.1//EN"
 "http://www.w3.org/Graphics/SVG/1.1/DTD/svg11.dtd">
<!-- Generated by graphviz version 2.36.0 (20140111.2315)
 -->
<!-- Title: displayCommands.PenDown.doAction Pages: 1 -->
<svg width="356pt" height="66pt"
 viewBox="0.00 0.00 356.00 66.00" xmlns="http://www.w3.org/2000/svg" xmlns:xlink="http://www.w3.org/1999/xlink">
<g id="graph0" class="graph" transform="scale(1 1) rotate(0) translate(4 62)">
<title>displayCommands.PenDown.doAction</title>
<polygon fill="white" stroke="none" points="-4,4 -4,-62 352,-62 352,4 -4,4"/>
<!-- Node1 -->
<g id="node1" class="node"><title>Node1</title>
<polygon fill="#bfbfbf" stroke="black" points="0.5,-14 0.5,-44 167.5,-44 167.5,-14 0.5,-14"/>
<text text-anchor="start" x="8.5" y="-32" font-family="Helvetica,sans-Serif" font-size="10.00">displayCommands.PenDown.do</text>
<text text-anchor="middle" x="84" y="-21" font-family="Helvetica,sans-Serif" font-size="10.00">Action</text>
</g>
<!-- Node2 -->
<g id="node2" class="node"><title>Node2</title>
<g id="a_node2"><a xlink:href="../../d8/d89/classturtle_classes_1_1_turtle.html#aebccf7c8d3ea7b21ea040ec199df9524" target="_top" xlink:title="turtleClasses.Turtle.getPen">
<polygon fill="white" stroke="black" points="204,-38.5 204,-57.5 348,-57.5 348,-38.5 204,-38.5"/>
<text text-anchor="middle" x="276" y="-45.5" font-family="Helvetica,sans-Serif" font-size="10.00">turtleClasses.Turtle.getPen</text>
</a>
</g>
</g>
<!-- Node1&#45;&gt;Node2 -->
<g id="edge1" class="edge"><title>Node1&#45;&gt;Node2</title>
<path fill="none" stroke="midnightblue" d="M167.508,-37.2508C176.218,-38.1218 185.07,-39.007 193.765,-39.8765"/>
<polygon fill="midnightblue" stroke="midnightblue" points="193.583,-43.3757 203.882,-40.8882 194.28,-36.4105 193.583,-43.3757"/>
</g>
<!-- Node3 -->
<g id="node3" class="node"><title>Node3</title>
<g id="a_node3"><a xlink:href="../../d3/d0e/classfrontend_1_1_pen.html#a7f37745441a786f8afb95df5811f9e48" target="_top" xlink:title="frontend.Pen.penDown">
<polygon fill="white" stroke="black" points="213.5,-0.5 213.5,-19.5 338.5,-19.5 338.5,-0.5 213.5,-0.5"/>
<text text-anchor="middle" x="276" y="-7.5" font-family="Helvetica,sans-Serif" font-size="10.00">frontend.Pen.penDown</text>
</a>
</g>
</g>
<!-- Node1&#45;&gt;Node3 -->
<g id="edge2" class="edge"><title>Node1&#45;&gt;Node3</title>
<path fill="none" stroke="midnightblue" d="M167.508,-20.7492C179.436,-19.5564 191.632,-18.3368 203.326,-17.1674"/>
<polygon fill="midnightblue" stroke="midnightblue" points="203.851,-20.6325 213.453,-16.1547 203.154,-13.6672 203.851,-20.6325"/>
</g>
</g>
</svg>
