<?xml version="1.0" encoding="UTF-8" standalone="no"?>
<!DOCTYPE svg PUBLIC "-//W3C//DTD SVG 1.1//EN"
 "http://www.w3.org/Graphics/SVG/1.1/DTD/svg11.dtd">
<!-- Generated by graphviz version 2.36.0 (20140111.2315)
 -->
<!-- Title: frontend.ConcreteFeatures.HistoryWindow Pages: 1 -->
<svg width="478pt" height="200pt"
 viewBox="0.00 0.00 478.00 200.00" xmlns="http://www.w3.org/2000/svg" xmlns:xlink="http://www.w3.org/1999/xlink">
<g id="graph0" class="graph" transform="scale(1 1) rotate(0) translate(4 196)">
<title>frontend.ConcreteFeatures.HistoryWindow</title>
<polygon fill="white" stroke="none" points="-4,4 -4,-196 474,-196 474,4 -4,4"/>
<!-- Node1 -->
<g id="node1" class="node"><title>Node1</title>
<polygon fill="#bfbfbf" stroke="black" points="191,-1 191,-31 339,-31 339,-1 191,-1"/>
<text text-anchor="start" x="199" y="-19" font-family="Helvetica,sans-Serif" font-size="10.00">frontend.ConcreteFeatures.</text>
<text text-anchor="middle" x="265" y="-8" font-family="Helvetica,sans-Serif" font-size="10.00">HistoryWindow</text>
</g>
<!-- Node2 -->
<g id="node2" class="node"><title>Node2</title>
<g id="a_node2"><a xlink:href="../../de/daa/classfrontend_1_1_abstract_features_1_1_s_logo_scroll_pane.html" target="_top" xlink:title="frontend.AbstractFeatures.\lSLogoScrollPane">
<polygon fill="white" stroke="black" points="87.5,-81 87.5,-111 232.5,-111 232.5,-81 87.5,-81"/>
<text text-anchor="start" x="95.5" y="-99" font-family="Helvetica,sans-Serif" font-size="10.00">frontend.AbstractFeatures.</text>
<text text-anchor="middle" x="160" y="-88" font-family="Helvetica,sans-Serif" font-size="10.00">SLogoScrollPane</text>
</a>
</g>
</g>
<!-- Node2&#45;&gt;Node1 -->
<g id="edge1" class="edge"><title>Node2&#45;&gt;Node1</title>
<path fill="none" stroke="midnightblue" d="M187.779,-74.3645C206.097,-60.7566 229.619,-43.2833 245.863,-31.2157"/>
<polygon fill="midnightblue" stroke="midnightblue" points="185.199,-71.9207 179.259,-80.6936 189.373,-77.5399 185.199,-71.9207"/>
</g>
<!-- Node3 -->
<g id="node3" class="node"><title>Node3</title>
<g id="a_node3"><a xlink:href="../../dc/db4/classfrontend_1_1_abstract_features_1_1_g_u_i_feature.html" target="_top" xlink:title="frontend.AbstractFeatures.\lGUIFeature">
<polygon fill="white" stroke="black" points="-0.5,-161 -0.5,-191 144.5,-191 144.5,-161 -0.5,-161"/>
<text text-anchor="start" x="7.5" y="-179" font-family="Helvetica,sans-Serif" font-size="10.00">frontend.AbstractFeatures.</text>
<text text-anchor="middle" x="72" y="-168" font-family="Helvetica,sans-Serif" font-size="10.00">GUIFeature</text>
</a>
</g>
</g>
<!-- Node3&#45;&gt;Node2 -->
<g id="edge2" class="edge"><title>Node3&#45;&gt;Node2</title>
<path fill="none" stroke="midnightblue" d="M95.7009,-153.992C110.991,-140.439 130.471,-123.174 143.962,-111.216"/>
<polygon fill="midnightblue" stroke="midnightblue" points="93.3025,-151.441 88.1406,-160.694 97.9456,-156.68 93.3025,-151.441"/>
</g>
<!-- Node4 -->
<g id="node4" class="node"><title>Node4</title>
<polygon fill="white" stroke="#bfbfbf" points="163,-166.5 163,-185.5 229,-185.5 229,-166.5 163,-166.5"/>
<text text-anchor="middle" x="196" y="-173.5" font-family="Helvetica,sans-Serif" font-size="10.00">ScrollPane</text>
</g>
<!-- Node4&#45;&gt;Node2 -->
<g id="edge3" class="edge"><title>Node4&#45;&gt;Node2</title>
<path fill="none" stroke="#9a32cd" stroke-dasharray="5,2" d="M187.64,-156.886C181.222,-142.982 172.486,-124.054 166.566,-111.227"/>
<polygon fill="#9a32cd" stroke="#9a32cd" points="184.641,-158.742 192.01,-166.355 190.997,-155.808 184.641,-158.742"/>
<text text-anchor="middle" x="208" y="-133.5" font-family="Helvetica,sans-Serif" font-size="10.00"> myWindow</text>
</g>
<!-- Node5 -->
<g id="node5" class="node"><title>Node5</title>
<g id="a_node5"><a xlink:href="../../d1/ded/classexpression_tree_1_1_history_collection.html" target="_top" xlink:title="expressionTree.HistoryCollection">
<polygon fill="white" stroke="black" points="250.5,-86.5 250.5,-105.5 421.5,-105.5 421.5,-86.5 250.5,-86.5"/>
<text text-anchor="middle" x="336" y="-93.5" font-family="Helvetica,sans-Serif" font-size="10.00">expressionTree.HistoryCollection</text>
</a>
</g>
</g>
<!-- Node5&#45;&gt;Node1 -->
<g id="edge4" class="edge"><title>Node5&#45;&gt;Node1</title>
<path fill="none" stroke="#9a32cd" stroke-dasharray="5,2" d="M321.338,-78.8928C308.557,-64.8519 290.198,-44.6827 277.95,-31.227"/>
<polygon fill="#9a32cd" stroke="#9a32cd" points="318.811,-81.3155 328.13,-86.3546 323.987,-76.6035 318.811,-81.3155"/>
<text text-anchor="middle" x="354.5" y="-53.5" font-family="Helvetica,sans-Serif" font-size="10.00"> myHistoryCollection</text>
</g>
<!-- Node6 -->
<g id="node6" class="node"><title>Node6</title>
<polygon fill="white" stroke="#bfbfbf" points="265,-166.5 265,-185.5 369,-185.5 369,-166.5 265,-166.5"/>
<text text-anchor="middle" x="317" y="-173.5" font-family="Helvetica,sans-Serif" font-size="10.00">Iterable&lt; String &gt;</text>
</g>
<!-- Node6&#45;&gt;Node5 -->
<g id="edge5" class="edge"><title>Node6&#45;&gt;Node5</title>
<path fill="none" stroke="midnightblue" d="M321.498,-156.534C325.386,-140.574 330.837,-118.196 333.826,-105.924"/>
<polygon fill="midnightblue" stroke="midnightblue" points="318.072,-155.81 319.106,-166.355 324.873,-157.467 318.072,-155.81"/>
</g>
<!-- Node7 -->
<g id="node7" class="node"><title>Node7</title>
<polygon fill="white" stroke="#bfbfbf" points="387,-166.5 387,-185.5 471,-185.5 471,-166.5 387,-166.5"/>
<text text-anchor="middle" x="429" y="-173.5" font-family="Helvetica,sans-Serif" font-size="10.00">List&lt; String &gt;</text>
</g>
<!-- Node7&#45;&gt;Node5 -->
<g id="edge6" class="edge"><title>Node7&#45;&gt;Node5</title>
<path fill="none" stroke="#9a32cd" stroke-dasharray="5,2" d="M410.928,-159.843C391.702,-143.717 361.954,-118.768 346.354,-105.684"/>
<polygon fill="#9a32cd" stroke="#9a32cd" points="408.781,-162.61 418.692,-166.355 413.279,-157.247 408.781,-162.61"/>
<text text-anchor="middle" x="415" y="-133.5" font-family="Helvetica,sans-Serif" font-size="10.00"> myHistory</text>
</g>
</g>
</svg>
