<?xml version="1.0" encoding="UTF-8" standalone="no"?>
<!DOCTYPE svg PUBLIC "-//W3C//DTD SVG 1.1//EN"
 "http://www.w3.org/Graphics/SVG/1.1/DTD/svg11.dtd">
<!-- Generated by graphviz version 2.36.0 (20140111.2315)
 -->
<!-- Title: turtleClasses.TurtleCollection Pages: 1 -->
<svg width="432pt" height="154pt"
 viewBox="0.00 0.00 432.00 154.00" xmlns="http://www.w3.org/2000/svg" xmlns:xlink="http://www.w3.org/1999/xlink">
<g id="graph0" class="graph" transform="scale(1 1) rotate(0) translate(4 150)">
<title>turtleClasses.TurtleCollection</title>
<polygon fill="white" stroke="none" points="-4,4 -4,-150 428,-150 428,4 -4,4"/>
<!-- Node1 -->
<g id="node1" class="node"><title>Node1</title>
<polygon fill="#bfbfbf" stroke="black" points="270,-60.5 270,-79.5 424,-79.5 424,-60.5 270,-60.5"/>
<text text-anchor="middle" x="347" y="-67.5" font-family="Helvetica,sans-Serif" font-size="10.00">turtleClasses.TurtleCollection</text>
</g>
<!-- Node2 -->
<g id="node2" class="node"><title>Node2</title>
<polygon fill="white" stroke="#bfbfbf" points="26.5,-126.5 26.5,-145.5 127.5,-145.5 127.5,-126.5 26.5,-126.5"/>
<text text-anchor="middle" x="77" y="-133.5" font-family="Helvetica,sans-Serif" font-size="10.00">Iterable&lt; Turtle &gt;</text>
</g>
<!-- Node2&#45;&gt;Node1 -->
<g id="edge1" class="edge"><title>Node2&#45;&gt;Node1</title>
<path fill="none" stroke="midnightblue" d="M137.978,-125.201C171.685,-118.73 214.412,-109.857 252,-100 274.701,-94.0467 300.026,-85.8735 318.665,-79.5614"/>
<polygon fill="midnightblue" stroke="midnightblue" points="136.993,-121.826 127.822,-127.131 138.3,-128.703 136.993,-121.826"/>
</g>
<!-- Node3 -->
<g id="node3" class="node"><title>Node3</title>
<polygon fill="white" stroke="#bfbfbf" points="0.5,-77 0.5,-107 153.5,-107 153.5,-77 0.5,-77"/>
<text text-anchor="start" x="8.5" y="-95" font-family="Helvetica,sans-Serif" font-size="10.00">Map&lt; Integer, turtleClasses.</text>
<text text-anchor="middle" x="77" y="-84" font-family="Helvetica,sans-Serif" font-size="10.00">Turtle &gt;</text>
</g>
<!-- Node3&#45;&gt;Node1 -->
<g id="edge2" class="edge"><title>Node3&#45;&gt;Node1</title>
<path fill="none" stroke="#9a32cd" stroke-dasharray="5,2" d="M164.13,-84.9296C198.19,-82.1336 237.002,-78.9476 269.999,-76.2389"/>
<polygon fill="#9a32cd" stroke="#9a32cd" points="163.404,-81.4774 153.723,-85.7839 163.976,-88.4539 163.404,-81.4774"/>
<text text-anchor="middle" x="212" y="-88" font-family="Helvetica,sans-Serif" font-size="10.00"> myTurtles</text>
</g>
<!-- Node4 -->
<g id="node4" class="node"><title>Node4</title>
<polygon fill="white" stroke="#bfbfbf" points="4,-38.5 4,-57.5 150,-57.5 150,-38.5 4,-38.5"/>
<text text-anchor="middle" x="77" y="-45.5" font-family="Helvetica,sans-Serif" font-size="10.00">List&lt; turtleClasses.Turtle &gt;</text>
</g>
<!-- Node4&#45;&gt;Node1 -->
<g id="edge3" class="edge"><title>Node4&#45;&gt;Node1</title>
<path fill="none" stroke="#9a32cd" stroke-dasharray="5,2" d="M160.343,-54.7595C195.274,-57.6269 235.734,-60.9483 269.95,-63.7571"/>
<polygon fill="#9a32cd" stroke="#9a32cd" points="160.424,-51.2545 150.172,-53.9245 159.852,-58.231 160.424,-51.2545"/>
<text text-anchor="middle" x="212" y="-66" font-family="Helvetica,sans-Serif" font-size="10.00"> myActiveTurtles</text>
</g>
<!-- Node5 -->
<g id="node5" class="node"><title>Node5</title>
<polygon fill="white" stroke="#bfbfbf" points="51,-0.5 51,-19.5 103,-19.5 103,-0.5 51,-0.5"/>
<text text-anchor="middle" x="77" y="-7.5" font-family="Helvetica,sans-Serif" font-size="10.00">Canvas</text>
</g>
<!-- Node5&#45;&gt;Node1 -->
<g id="edge4" class="edge"><title>Node5&#45;&gt;Node1</title>
<path fill="none" stroke="#9a32cd" stroke-dasharray="5,2" d="M113.559,-15.025C148.914,-20.3276 204.571,-29.505 252,-41 274.573,-46.4709 299.692,-54.3135 318.28,-60.4639"/>
<polygon fill="#9a32cd" stroke="#9a32cd" points="113.674,-11.5041 103.27,-13.5055 112.652,-18.429 113.674,-11.5041"/>
<text text-anchor="middle" x="212" y="-44" font-family="Helvetica,sans-Serif" font-size="10.00"> myCanvas</text>
</g>
</g>
</svg>
