<?xml version="1.0" encoding="UTF-8" standalone="no"?>
<!DOCTYPE svg PUBLIC "-//W3C//DTD SVG 1.1//EN"
 "http://www.w3.org/Graphics/SVG/1.1/DTD/svg11.dtd">
<!-- Generated by graphviz version 2.36.0 (20140111.2315)
 -->
<!-- Title: frontend.Translator.setUpDictionary Pages: 1 -->
<svg width="588pt" height="77pt"
 viewBox="0.00 0.00 588.00 77.00" xmlns="http://www.w3.org/2000/svg" xmlns:xlink="http://www.w3.org/1999/xlink">
<g id="graph0" class="graph" transform="scale(1 1) rotate(0) translate(4 73)">
<title>frontend.Translator.setUpDictionary</title>
<polygon fill="white" stroke="none" points="-4,4 -4,-73 584,-73 584,4 -4,4"/>
<!-- Node1 -->
<g id="node1" class="node"><title>Node1</title>
<polygon fill="#bfbfbf" stroke="black" points="0.5,-14 0.5,-44 137.5,-44 137.5,-14 0.5,-14"/>
<text text-anchor="start" x="8.5" y="-32" font-family="Helvetica,sans-Serif" font-size="10.00">frontend.Translator.setUp</text>
<text text-anchor="middle" x="69" y="-21" font-family="Helvetica,sans-Serif" font-size="10.00">Dictionary</text>
</g>
<!-- Node2 -->
<g id="node2" class="node"><title>Node2</title>
<g id="a_node2"><a xlink:href="../../d4/dbc/classfrontend_1_1_translator.html#a3f910c6cc50560d39d7419ceda312ae3" target="_top" xlink:title="frontend.Translator.setLanguage">
<polygon fill="white" stroke="black" points="174.5,-38.5 174.5,-57.5 345.5,-57.5 345.5,-38.5 174.5,-38.5"/>
<text text-anchor="middle" x="260" y="-45.5" font-family="Helvetica,sans-Serif" font-size="10.00">frontend.Translator.setLanguage</text>
</a>
</g>
</g>
<!-- Node1&#45;&gt;Node2 -->
<g id="edge1" class="edge"><title>Node1&#45;&gt;Node2</title>
<path fill="none" stroke="midnightblue" d="M147.836,-36.8248C156.564,-37.7022 165.487,-38.5992 174.295,-39.4847"/>
<polygon fill="midnightblue" stroke="midnightblue" points="147.999,-33.3237 137.7,-35.8058 147.299,-40.2886 147.999,-33.3237"/>
</g>
<!-- Node4 -->
<g id="node4" class="node"><title>Node4</title>
<g id="a_node4"><a xlink:href="../../d4/dbc/classfrontend_1_1_translator.html#aa47c586fde6c519f3108830819e7603f" target="_top" xlink:title="frontend.Translator.Translator">
<polygon fill="white" stroke="black" points="182.5,-0.5 182.5,-19.5 337.5,-19.5 337.5,-0.5 182.5,-0.5"/>
<text text-anchor="middle" x="260" y="-7.5" font-family="Helvetica,sans-Serif" font-size="10.00">frontend.Translator.Translator</text>
</a>
</g>
</g>
<!-- Node1&#45;&gt;Node4 -->
<g id="edge3" class="edge"><title>Node1&#45;&gt;Node4</title>
<path fill="none" stroke="midnightblue" d="M147.686,-21.1903C159.171,-20.0357 170.998,-18.8467 182.46,-17.6945"/>
<polygon fill="midnightblue" stroke="midnightblue" points="147.299,-17.7114 137.7,-22.1942 147.999,-24.6763 147.299,-17.7114"/>
</g>
<!-- Node3 -->
<g id="node3" class="node"><title>Node3</title>
<g id="a_node3"><a xlink:href="../../dc/d4d/classfrontend_1_1_concrete_features_1_1_change_coding_language.html#a46c332fc9231115504d8c3444ecc81ab" target="_top" xlink:title="frontend.ConcreteFeatures.\lChangeCodingLanguage.doDropDown\lClickAction">
<polygon fill="white" stroke="black" points="382,-27.5 382,-68.5 580,-68.5 580,-27.5 382,-27.5"/>
<text text-anchor="start" x="390" y="-56.5" font-family="Helvetica,sans-Serif" font-size="10.00">frontend.ConcreteFeatures.</text>
<text text-anchor="start" x="390" y="-45.5" font-family="Helvetica,sans-Serif" font-size="10.00">ChangeCodingLanguage.doDropDown</text>
<text text-anchor="middle" x="481" y="-34.5" font-family="Helvetica,sans-Serif" font-size="10.00">ClickAction</text>
</a>
</g>
</g>
<!-- Node2&#45;&gt;Node3 -->
<g id="edge2" class="edge"><title>Node2&#45;&gt;Node3</title>
<path fill="none" stroke="midnightblue" d="M355.707,-48C364.316,-48 373.049,-48 381.688,-48"/>
<polygon fill="midnightblue" stroke="midnightblue" points="355.671,-44.5001 345.671,-48 355.671,-51.5001 355.671,-44.5001"/>
</g>
</g>
</svg>
