<?xml version="1.0" encoding="UTF-8" standalone="no"?>
<!DOCTYPE svg PUBLIC "-//W3C//DTD SVG 1.1//EN"
 "http://www.w3.org/Graphics/SVG/1.1/DTD/svg11.dtd">
<!-- Generated by graphviz version 2.36.0 (20140111.2315)
 -->
<!-- Title: frontend.Translator.setLanguage Pages: 1 -->
<svg width="414pt" height="48pt"
 viewBox="0.00 0.00 414.00 48.00" xmlns="http://www.w3.org/2000/svg" xmlns:xlink="http://www.w3.org/1999/xlink">
<g id="graph0" class="graph" transform="scale(1 1) rotate(0) translate(4 44)">
<title>frontend.Translator.setLanguage</title>
<polygon fill="white" stroke="none" points="-4,4 -4,-44 410,-44 410,4 -4,4"/>
<!-- Node1 -->
<g id="node1" class="node"><title>Node1</title>
<polygon fill="#bfbfbf" stroke="black" points="0.5,-10.5 0.5,-29.5 171.5,-29.5 171.5,-10.5 0.5,-10.5"/>
<text text-anchor="middle" x="86" y="-17.5" font-family="Helvetica,sans-Serif" font-size="10.00">frontend.Translator.setLanguage</text>
</g>
<!-- Node2 -->
<g id="node2" class="node"><title>Node2</title>
<g id="a_node2"><a xlink:href="../../dc/d4d/classfrontend_1_1_concrete_features_1_1_change_coding_language.html#a46c332fc9231115504d8c3444ecc81ab" target="_top" xlink:title="frontend.ConcreteFeatures.\lChangeCodingLanguage.doDropDown\lClickAction">
<polygon fill="white" stroke="black" points="208,0.5 208,-40.5 406,-40.5 406,0.5 208,0.5"/>
<text text-anchor="start" x="216" y="-28.5" font-family="Helvetica,sans-Serif" font-size="10.00">frontend.ConcreteFeatures.</text>
<text text-anchor="start" x="216" y="-17.5" font-family="Helvetica,sans-Serif" font-size="10.00">ChangeCodingLanguage.doDropDown</text>
<text text-anchor="middle" x="307" y="-6.5" font-family="Helvetica,sans-Serif" font-size="10.00">ClickAction</text>
</a>
</g>
</g>
<!-- Node1&#45;&gt;Node2 -->
<g id="edge1" class="edge"><title>Node1&#45;&gt;Node2</title>
<path fill="none" stroke="midnightblue" d="M181.707,-20C190.316,-20 199.049,-20 207.688,-20"/>
<polygon fill="midnightblue" stroke="midnightblue" points="181.671,-16.5001 171.671,-20 181.671,-23.5001 181.671,-16.5001"/>
</g>
</g>
</svg>
