<?xml version="1.0" encoding="UTF-8" standalone="no"?>
<!DOCTYPE svg PUBLIC "-//W3C//DTD SVG 1.1//EN"
 "http://www.w3.org/Graphics/SVG/1.1/DTD/svg11.dtd">
<!-- Generated by graphviz version 2.36.0 (20140111.2315)
 -->
<!-- Title: frontend.Translator.translateOne Pages: 1 -->
<svg width="830pt" height="126pt"
 viewBox="0.00 0.00 830.00 126.00" xmlns="http://www.w3.org/2000/svg" xmlns:xlink="http://www.w3.org/1999/xlink">
<g id="graph0" class="graph" transform="scale(1 1) rotate(0) translate(4 122)">
<title>frontend.Translator.translateOne</title>
<polygon fill="white" stroke="none" points="-4,4 -4,-122 826,-122 826,4 -4,4"/>
<!-- Node1 -->
<g id="node1" class="node"><title>Node1</title>
<polygon fill="#bfbfbf" stroke="black" points="0.5,-44.5 0.5,-63.5 171.5,-63.5 171.5,-44.5 0.5,-44.5"/>
<text text-anchor="middle" x="86" y="-51.5" font-family="Helvetica,sans-Serif" font-size="10.00">frontend.Translator.translateOne</text>
</g>
<!-- Node2 -->
<g id="node2" class="node"><title>Node2</title>
<g id="a_node2"><a xlink:href="../../d4/dbc/classfrontend_1_1_translator.html#af1bc0cb421e114e275cf9b0185da7092" target="_top" xlink:title="frontend.Translator.translate">
<polygon fill="white" stroke="black" points="208,-44.5 208,-63.5 360,-63.5 360,-44.5 208,-44.5"/>
<text text-anchor="middle" x="284" y="-51.5" font-family="Helvetica,sans-Serif" font-size="10.00">frontend.Translator.translate</text>
</a>
</g>
</g>
<!-- Node1&#45;&gt;Node2 -->
<g id="edge1" class="edge"><title>Node1&#45;&gt;Node2</title>
<path fill="none" stroke="midnightblue" d="M181.821,-54C190.604,-54 199.421,-54 207.989,-54"/>
<polygon fill="midnightblue" stroke="midnightblue" points="181.544,-50.5001 171.544,-54 181.544,-57.5001 181.544,-50.5001"/>
</g>
<!-- Node3 -->
<g id="node3" class="node"><title>Node3</title>
<g id="a_node3"><a xlink:href="../../d2/dea/class_s_logo_controllers_1_1_input_controller.html#a1e1beebe816454b8128ce9222eeb8620" target="_top" xlink:title="SLogoControllers.InputController.give\lInput">
<polygon fill="white" stroke="black" points="396,-39 396,-69 590,-69 590,-39 396,-39"/>
<text text-anchor="start" x="404" y="-57" font-family="Helvetica,sans-Serif" font-size="10.00">SLogoControllers.InputController.give</text>
<text text-anchor="middle" x="493" y="-46" font-family="Helvetica,sans-Serif" font-size="10.00">Input</text>
</a>
</g>
</g>
<!-- Node2&#45;&gt;Node3 -->
<g id="edge2" class="edge"><title>Node2&#45;&gt;Node3</title>
<path fill="none" stroke="midnightblue" d="M370.274,-54C378.759,-54 387.412,-54 395.996,-54"/>
<polygon fill="midnightblue" stroke="midnightblue" points="370.024,-50.5001 360.024,-54 370.024,-57.5001 370.024,-50.5001"/>
</g>
<!-- Node4 -->
<g id="node4" class="node"><title>Node4</title>
<g id="a_node4"><a xlink:href="../../d8/dc1/classfrontend_1_1_concrete_features_1_1_command_executer.html#a14b9b724db30e6cc89f62304f7bf40b2" target="_top" xlink:title="frontend.ConcreteFeatures.\lCommandExecuter.action">
<polygon fill="white" stroke="black" points="650,-88 650,-118 798,-118 798,-88 650,-88"/>
<text text-anchor="start" x="658" y="-106" font-family="Helvetica,sans-Serif" font-size="10.00">frontend.ConcreteFeatures.</text>
<text text-anchor="middle" x="724" y="-95" font-family="Helvetica,sans-Serif" font-size="10.00">CommandExecuter.action</text>
</a>
</g>
</g>
<!-- Node3&#45;&gt;Node4 -->
<g id="edge3" class="edge"><title>Node3&#45;&gt;Node4</title>
<path fill="none" stroke="midnightblue" d="M574.315,-71.1854C599.923,-76.6647 628.042,-82.6815 652.869,-87.9938"/>
<polygon fill="midnightblue" stroke="midnightblue" points="574.775,-67.7045 564.264,-69.0346 573.31,-74.5496 574.775,-67.7045"/>
</g>
<!-- Node5 -->
<g id="node5" class="node"><title>Node5</title>
<g id="a_node5"><a xlink:href="../../de/d9f/classfrontend_1_1_concrete_features_1_1_load_s_logo_file.html#aa491ddd476ad22ed21a358b21c01605f" target="_top" xlink:title="frontend.ConcreteFeatures.\lLoadSLogoFile.action">
<polygon fill="white" stroke="black" points="650,-39 650,-69 798,-69 798,-39 650,-39"/>
<text text-anchor="start" x="658" y="-57" font-family="Helvetica,sans-Serif" font-size="10.00">frontend.ConcreteFeatures.</text>
<text text-anchor="middle" x="724" y="-46" font-family="Helvetica,sans-Serif" font-size="10.00">LoadSLogoFile.action</text>
</a>
</g>
</g>
<!-- Node3&#45;&gt;Node5 -->
<g id="edge4" class="edge"><title>Node3&#45;&gt;Node5</title>
<path fill="none" stroke="midnightblue" d="M600.464,-54C617.142,-54 634.048,-54 649.759,-54"/>
<polygon fill="midnightblue" stroke="midnightblue" points="600.121,-50.5001 590.121,-54 600.121,-57.5001 600.121,-50.5001"/>
</g>
<!-- Node6 -->
<g id="node6" class="node"><title>Node6</title>
<g id="a_node6"><a xlink:href="../../d7/d78/classturtle_classes_1_1_turtle_key_handler.html#a7dfe582e767f31105e84278d26dbc4c1" target="_top" xlink:title="turtleClasses.TurtleKeyHandler.handle">
<polygon fill="white" stroke="black" points="626,-0.5 626,-19.5 822,-19.5 822,-0.5 626,-0.5"/>
<text text-anchor="middle" x="724" y="-7.5" font-family="Helvetica,sans-Serif" font-size="10.00">turtleClasses.TurtleKeyHandler.handle</text>
</a>
</g>
</g>
<!-- Node3&#45;&gt;Node6 -->
<g id="edge5" class="edge"><title>Node3&#45;&gt;Node6</title>
<path fill="none" stroke="midnightblue" d="M582.12,-37.0686C613.106,-31.115 646.817,-24.6377 673.492,-19.5124"/>
<polygon fill="midnightblue" stroke="midnightblue" points="581.328,-33.6567 572.168,-38.9808 582.649,-40.5309 581.328,-33.6567"/>
</g>
</g>
</svg>
