<?xml version="1.0" encoding="UTF-8" standalone="no"?>
<!DOCTYPE svg PUBLIC "-//W3C//DTD SVG 1.1//EN"
 "http://www.w3.org/Graphics/SVG/1.1/DTD/svg11.dtd">
<!-- Generated by graphviz version 2.36.0 (20140111.2315)
 -->
<!-- Title: save.load.CustomParameters.getVariables Pages: 1 -->
<svg width="594pt" height="38pt"
 viewBox="0.00 0.00 594.00 38.00" xmlns="http://www.w3.org/2000/svg" xmlns:xlink="http://www.w3.org/1999/xlink">
<g id="graph0" class="graph" transform="scale(1 1) rotate(0) translate(4 34)">
<title>save.load.CustomParameters.getVariables</title>
<polygon fill="white" stroke="none" points="-4,4 -4,-34 590,-34 590,4 -4,4"/>
<!-- Node1 -->
<g id="node1" class="node"><title>Node1</title>
<polygon fill="#bfbfbf" stroke="black" points="0.5,-0 0.5,-30 177.5,-30 177.5,-0 0.5,-0"/>
<text text-anchor="start" x="8.5" y="-18" font-family="Helvetica,sans-Serif" font-size="10.00">save.load.CustomParameters.get</text>
<text text-anchor="middle" x="89" y="-7" font-family="Helvetica,sans-Serif" font-size="10.00">Variables</text>
</g>
<!-- Node2 -->
<g id="node2" class="node"><title>Node2</title>
<g id="a_node2"><a xlink:href="../../d5/d5c/classsave_1_1load_1_1_custom_reader_writer.html#aa7470e6e6936ac7311b45602d2aca763" target="_top" xlink:title="save.load.CustomReaderWriter.read\lFromFile">
<polygon fill="white" stroke="black" points="214.5,-0 214.5,-30 401.5,-30 401.5,-0 214.5,-0"/>
<text text-anchor="start" x="222.5" y="-18" font-family="Helvetica,sans-Serif" font-size="10.00">save.load.CustomReaderWriter.read</text>
<text text-anchor="middle" x="308" y="-7" font-family="Helvetica,sans-Serif" font-size="10.00">FromFile</text>
</a>
</g>
</g>
<!-- Node1&#45;&gt;Node2 -->
<g id="edge1" class="edge"><title>Node1&#45;&gt;Node2</title>
<path fill="none" stroke="midnightblue" d="M187.643,-15C196.555,-15 205.565,-15 214.43,-15"/>
<polygon fill="midnightblue" stroke="midnightblue" points="187.637,-11.5001 177.637,-15 187.637,-18.5001 187.637,-11.5001"/>
</g>
<!-- Node3 -->
<g id="node3" class="node"><title>Node3</title>
<g id="a_node3"><a xlink:href="../../d9/d35/classfrontend_1_1_concrete_features_1_1_load_variables_button.html#a6c33614e2366ea92f0da2cf0ba06095f" target="_top" xlink:title="frontend.ConcreteFeatures.\lLoadVariablesButton.action">
<polygon fill="white" stroke="black" points="438,-0 438,-30 586,-30 586,-0 438,-0"/>
<text text-anchor="start" x="446" y="-18" font-family="Helvetica,sans-Serif" font-size="10.00">frontend.ConcreteFeatures.</text>
<text text-anchor="middle" x="512" y="-7" font-family="Helvetica,sans-Serif" font-size="10.00">LoadVariablesButton.action</text>
</a>
</g>
</g>
<!-- Node2&#45;&gt;Node3 -->
<g id="edge2" class="edge"><title>Node2&#45;&gt;Node3</title>
<path fill="none" stroke="midnightblue" d="M411.984,-15C420.731,-15 429.457,-15 437.902,-15"/>
<polygon fill="midnightblue" stroke="midnightblue" points="411.723,-11.5001 401.723,-15 411.723,-18.5001 411.723,-11.5001"/>
</g>
</g>
</svg>
