<?xml version="1.0" encoding="UTF-8" standalone="no"?>
<!DOCTYPE svg PUBLIC "-//W3C//DTD SVG 1.1//EN"
 "http://www.w3.org/Graphics/SVG/1.1/DTD/svg11.dtd">
<!-- Generated by graphviz version 2.36.0 (20140111.2315)
 -->
<!-- Title: expressionTree.HistoryCollection Pages: 1 -->
<svg width="214pt" height="96pt"
 viewBox="0.00 0.00 214.00 96.00" xmlns="http://www.w3.org/2000/svg" xmlns:xlink="http://www.w3.org/1999/xlink">
<g id="graph0" class="graph" transform="scale(1 1) rotate(0) translate(4 92)">
<title>expressionTree.HistoryCollection</title>
<polygon fill="white" stroke="none" points="-4,4 -4,-92 210,-92 210,4 -4,4"/>
<!-- Node1 -->
<g id="node1" class="node"><title>Node1</title>
<polygon fill="#bfbfbf" stroke="black" points="22.5,-0.5 22.5,-19.5 193.5,-19.5 193.5,-0.5 22.5,-0.5"/>
<text text-anchor="middle" x="108" y="-7.5" font-family="Helvetica,sans-Serif" font-size="10.00">expressionTree.HistoryCollection</text>
</g>
<!-- Node2 -->
<g id="node2" class="node"><title>Node2</title>
<polygon fill="white" stroke="#bfbfbf" points="0,-68.5 0,-87.5 104,-87.5 104,-68.5 0,-68.5"/>
<text text-anchor="middle" x="52" y="-75.5" font-family="Helvetica,sans-Serif" font-size="10.00">Iterable&lt; String &gt;</text>
</g>
<!-- Node2&#45;&gt;Node1 -->
<g id="edge1" class="edge"><title>Node2&#45;&gt;Node1</title>
<path fill="none" stroke="midnightblue" d="M65.8473,-60.68C76.7955,-47.7768 91.6603,-30.2575 100.498,-19.8411"/>
<polygon fill="midnightblue" stroke="midnightblue" points="63.122,-58.4821 59.321,-68.3717 68.4596,-63.011 63.122,-58.4821"/>
</g>
<!-- Node3 -->
<g id="node3" class="node"><title>Node3</title>
<polygon fill="white" stroke="#bfbfbf" points="122,-68.5 122,-87.5 206,-87.5 206,-68.5 122,-68.5"/>
<text text-anchor="middle" x="164" y="-75.5" font-family="Helvetica,sans-Serif" font-size="10.00">List&lt; String &gt;</text>
</g>
<!-- Node3&#45;&gt;Node1 -->
<g id="edge2" class="edge"><title>Node3&#45;&gt;Node1</title>
<path fill="none" stroke="#9a32cd" stroke-dasharray="5,2" d="M150.153,-60.68C139.205,-47.7768 124.34,-30.2575 115.502,-19.8411"/>
<polygon fill="#9a32cd" stroke="#9a32cd" points="147.54,-63.011 156.679,-68.3717 152.878,-58.4821 147.54,-63.011"/>
<text text-anchor="middle" x="167" y="-41.5" font-family="Helvetica,sans-Serif" font-size="10.00"> myHistory</text>
</g>
</g>
</svg>
