<?xml version="1.0" encoding="UTF-8" standalone="no"?>
<!DOCTYPE svg PUBLIC "-//W3C//DTD SVG 1.1//EN"
 "http://www.w3.org/Graphics/SVG/1.1/DTD/svg11.dtd">
<!-- Generated by graphviz version 2.36.0 (20140111.2315)
 -->
<!-- Title: turtleClasses.TurtleMover.startDrawing Pages: 1 -->
<svg width="770pt" height="371pt"
 viewBox="0.00 0.00 770.00 371.00" xmlns="http://www.w3.org/2000/svg" xmlns:xlink="http://www.w3.org/1999/xlink">
<g id="graph0" class="graph" transform="scale(1 1) rotate(0) translate(4 367)">
<title>turtleClasses.TurtleMover.startDrawing</title>
<polygon fill="white" stroke="none" points="-4,4 -4,-367 766,-367 766,4 -4,4"/>
<!-- Node1 -->
<g id="node1" class="node"><title>Node1</title>
<polygon fill="#bfbfbf" stroke="black" points="0.5,-259 0.5,-289 161.5,-289 161.5,-259 0.5,-259"/>
<text text-anchor="start" x="8.5" y="-277" font-family="Helvetica,sans-Serif" font-size="10.00">turtleClasses.TurtleMover.start</text>
<text text-anchor="middle" x="81" y="-266" font-family="Helvetica,sans-Serif" font-size="10.00">Drawing</text>
</g>
<!-- Node2 -->
<g id="node2" class="node"><title>Node2</title>
<g id="a_node2"><a xlink:href="../../d4/d7e/classturtle_classes_1_1_turtle_collection.html#ad8dcff2e2a1b9234392977c700bd76ed" target="_top" xlink:title="turtleClasses.TurtleCollection.get\lLastActiveTurtle">
<polygon fill="white" stroke="black" points="206.5,-333 206.5,-363 379.5,-363 379.5,-333 206.5,-333"/>
<text text-anchor="start" x="214.5" y="-351" font-family="Helvetica,sans-Serif" font-size="10.00">turtleClasses.TurtleCollection.get</text>
<text text-anchor="middle" x="293" y="-340" font-family="Helvetica,sans-Serif" font-size="10.00">LastActiveTurtle</text>
</a>
</g>
</g>
<!-- Node1&#45;&gt;Node2 -->
<g id="edge1" class="edge"><title>Node1&#45;&gt;Node2</title>
<path fill="none" stroke="midnightblue" d="M114.526,-289.183C137.522,-299.558 169.25,-313.158 198,-323 205.302,-325.499 212.992,-327.903 220.7,-330.166"/>
<polygon fill="midnightblue" stroke="midnightblue" points="219.868,-333.568 230.445,-332.953 221.793,-326.838 219.868,-333.568"/>
</g>
<!-- Node3 -->
<g id="node3" class="node"><title>Node3</title>
<g id="a_node3"><a xlink:href="../../dc/d69/classturtle_classes_1_1_turtle_snapshot.html#a40b94c5cc09d2877090e9ced16447e03" target="_top" xlink:title="turtleClasses.TurtleSnapshot.get\lTurtleSnapshot">
<polygon fill="white" stroke="black" points="207,-284 207,-314 379,-314 379,-284 207,-284"/>
<text text-anchor="start" x="215" y="-302" font-family="Helvetica,sans-Serif" font-size="10.00">turtleClasses.TurtleSnapshot.get</text>
<text text-anchor="middle" x="293" y="-291" font-family="Helvetica,sans-Serif" font-size="10.00">TurtleSnapshot</text>
</a>
</g>
</g>
<!-- Node1&#45;&gt;Node3 -->
<g id="edge2" class="edge"><title>Node1&#45;&gt;Node3</title>
<path fill="none" stroke="midnightblue" d="M161.691,-283.487C173.089,-284.844 184.909,-286.251 196.57,-287.639"/>
<polygon fill="midnightblue" stroke="midnightblue" points="196.419,-291.146 206.763,-288.853 197.247,-284.195 196.419,-291.146"/>
</g>
<!-- Node4 -->
<g id="node4" class="node"><title>Node4</title>
<g id="a_node4"><a xlink:href="../../d4/d7e/classturtle_classes_1_1_turtle_collection.html#a61f007615f0fd523dae94957f8022100" target="_top" xlink:title="turtleClasses.TurtleCollection.set\lActiveTurtles">
<polygon fill="white" stroke="black" points="207,-235 207,-265 379,-265 379,-235 207,-235"/>
<text text-anchor="start" x="215" y="-253" font-family="Helvetica,sans-Serif" font-size="10.00">turtleClasses.TurtleCollection.set</text>
<text text-anchor="middle" x="293" y="-242" font-family="Helvetica,sans-Serif" font-size="10.00">ActiveTurtles</text>
</a>
</g>
</g>
<!-- Node1&#45;&gt;Node4 -->
<g id="edge3" class="edge"><title>Node1&#45;&gt;Node4</title>
<path fill="none" stroke="midnightblue" d="M161.691,-264.892C173.089,-263.59 184.909,-262.239 196.57,-260.906"/>
<polygon fill="midnightblue" stroke="midnightblue" points="197.225,-264.354 206.763,-259.741 196.43,-257.4 197.225,-264.354"/>
</g>
<!-- Node8 -->
<g id="node8" class="node"><title>Node8</title>
<g id="a_node8"><a xlink:href="../../dc/d69/classturtle_classes_1_1_turtle_snapshot.html#a15dec792db9c32413964d88bae094216" target="_top" xlink:title="turtleClasses.TurtleSnapshot.update">
<polygon fill="white" stroke="black" points="198,-142.5 198,-161.5 388,-161.5 388,-142.5 198,-142.5"/>
<text text-anchor="middle" x="293" y="-149.5" font-family="Helvetica,sans-Serif" font-size="10.00">turtleClasses.TurtleSnapshot.update</text>
</a>
</g>
</g>
<!-- Node1&#45;&gt;Node8 -->
<g id="edge7" class="edge"><title>Node1&#45;&gt;Node8</title>
<path fill="none" stroke="midnightblue" d="M108.172,-258.795C148.786,-235.201 226.48,-190.064 266.611,-166.75"/>
<polygon fill="midnightblue" stroke="midnightblue" points="268.612,-169.635 275.5,-161.585 265.096,-163.582 268.612,-169.635"/>
</g>
<!-- Node5 -->
<g id="node5" class="node"><title>Node5</title>
<g id="a_node5"><a xlink:href="../../d8/d89/classturtle_classes_1_1_turtle.html#aff48aa8a8ca4bb8a7aa40743a1a944c4" target="_top" xlink:title="turtleClasses.Turtle.getID">
<polygon fill="white" stroke="black" points="435,-240.5 435,-259.5 571,-259.5 571,-240.5 435,-240.5"/>
<text text-anchor="middle" x="503" y="-247.5" font-family="Helvetica,sans-Serif" font-size="10.00">turtleClasses.Turtle.getID</text>
</a>
</g>
</g>
<!-- Node4&#45;&gt;Node5 -->
<g id="edge4" class="edge"><title>Node4&#45;&gt;Node5</title>
<path fill="none" stroke="midnightblue" d="M379.202,-250C394.242,-250 409.826,-250 424.636,-250"/>
<polygon fill="midnightblue" stroke="midnightblue" points="424.75,-253.5 434.75,-250 424.75,-246.5 424.75,-253.5"/>
</g>
<!-- Node6 -->
<g id="node6" class="node"><title>Node6</title>
<g id="a_node6"><a xlink:href="../../d8/d89/classturtle_classes_1_1_turtle.html#a2d3828dbca854624cc75fca5aa65b4c5" target="_top" xlink:title="turtleClasses.Turtle.set\lActive">
<polygon fill="white" stroke="black" points="440.5,-279 440.5,-309 565.5,-309 565.5,-279 440.5,-279"/>
<text text-anchor="start" x="448.5" y="-297" font-family="Helvetica,sans-Serif" font-size="10.00">turtleClasses.Turtle.set</text>
<text text-anchor="middle" x="503" y="-286" font-family="Helvetica,sans-Serif" font-size="10.00">Active</text>
</a>
</g>
</g>
<!-- Node4&#45;&gt;Node6 -->
<g id="edge5" class="edge"><title>Node4&#45;&gt;Node6</title>
<path fill="none" stroke="midnightblue" d="M365,-265.019C386.132,-269.49 409.293,-274.389 430.459,-278.866"/>
<polygon fill="midnightblue" stroke="midnightblue" points="429.842,-282.313 440.35,-280.959 431.29,-275.465 429.842,-282.313"/>
</g>
<!-- Node7 -->
<g id="node7" class="node"><title>Node7</title>
<g id="a_node7"><a xlink:href="../../d8/d89/classturtle_classes_1_1_turtle.html#abd769212afc56f042db3d4b5ee33790e" target="_top" xlink:title="turtleClasses.Turtle.handle\lActiveOutline">
<polygon fill="white" stroke="black" points="618.5,-279 618.5,-309 761.5,-309 761.5,-279 618.5,-279"/>
<text text-anchor="start" x="626.5" y="-297" font-family="Helvetica,sans-Serif" font-size="10.00">turtleClasses.Turtle.handle</text>
<text text-anchor="middle" x="690" y="-286" font-family="Helvetica,sans-Serif" font-size="10.00">ActiveOutline</text>
</a>
</g>
</g>
<!-- Node6&#45;&gt;Node7 -->
<g id="edge6" class="edge"><title>Node6&#45;&gt;Node7</title>
<path fill="none" stroke="midnightblue" d="M565.602,-294C579.22,-294 593.847,-294 608.1,-294"/>
<polygon fill="midnightblue" stroke="midnightblue" points="608.393,-297.5 618.393,-294 608.393,-290.5 608.393,-297.5"/>
</g>
<!-- Node8&#45;&gt;Node5 -->
<g id="edge14" class="edge"><title>Node8&#45;&gt;Node5</title>
<path fill="none" stroke="midnightblue" d="M306.934,-161.741C329.519,-178.306 378.125,-212.009 424,-231 429.916,-233.449 436.22,-235.631 442.583,-237.563"/>
<polygon fill="midnightblue" stroke="midnightblue" points="442.007,-241.037 452.582,-240.395 443.915,-234.302 442.007,-241.037"/>
</g>
<!-- Node9 -->
<g id="node9" class="node"><title>Node9</title>
<g id="a_node9"><a xlink:href="../../d8/d89/classturtle_classes_1_1_turtle.html#a56503fbcf1cf444dc2dba7a7f07b891e" target="_top" xlink:title="turtleClasses.Turtle.getX">
<polygon fill="white" stroke="black" points="437,-202.5 437,-221.5 569,-221.5 569,-202.5 437,-202.5"/>
<text text-anchor="middle" x="503" y="-209.5" font-family="Helvetica,sans-Serif" font-size="10.00">turtleClasses.Turtle.getX</text>
</a>
</g>
</g>
<!-- Node8&#45;&gt;Node9 -->
<g id="edge8" class="edge"><title>Node8&#45;&gt;Node9</title>
<path fill="none" stroke="midnightblue" d="M322.241,-161.504C348.465,-170.187 388.67,-183.137 424,-193 432.583,-195.396 441.744,-197.78 450.66,-200.009"/>
<polygon fill="midnightblue" stroke="midnightblue" points="450.03,-203.459 460.577,-202.453 451.704,-196.662 450.03,-203.459"/>
</g>
<!-- Node10 -->
<g id="node10" class="node"><title>Node10</title>
<g id="a_node10"><a xlink:href="../../d8/d89/classturtle_classes_1_1_turtle.html#a603a81ffb444aa19cecef6fc7f356e1f" target="_top" xlink:title="turtleClasses.Turtle.getY">
<polygon fill="white" stroke="black" points="437.5,-164.5 437.5,-183.5 568.5,-183.5 568.5,-164.5 437.5,-164.5"/>
<text text-anchor="middle" x="503" y="-171.5" font-family="Helvetica,sans-Serif" font-size="10.00">turtleClasses.Turtle.getY</text>
</a>
</g>
</g>
<!-- Node8&#45;&gt;Node10 -->
<g id="edge9" class="edge"><title>Node8&#45;&gt;Node10</title>
<path fill="none" stroke="midnightblue" d="M384.022,-161.522C398.423,-163.045 413.188,-164.606 427.186,-166.087"/>
<polygon fill="midnightblue" stroke="midnightblue" points="426.914,-169.578 437.227,-167.149 427.65,-162.616 426.914,-169.578"/>
</g>
<!-- Node11 -->
<g id="node11" class="node"><title>Node11</title>
<g id="a_node11"><a xlink:href="../../d8/d89/classturtle_classes_1_1_turtle.html#a83d46277ec7258a57d8b69797ffb42d8" target="_top" xlink:title="turtleClasses.Turtle.get\lDirection">
<polygon fill="white" stroke="black" points="440,-115 440,-145 566,-145 566,-115 440,-115"/>
<text text-anchor="start" x="448" y="-133" font-family="Helvetica,sans-Serif" font-size="10.00">turtleClasses.Turtle.get</text>
<text text-anchor="middle" x="503" y="-122" font-family="Helvetica,sans-Serif" font-size="10.00">Direction</text>
</a>
</g>
</g>
<!-- Node8&#45;&gt;Node11 -->
<g id="edge10" class="edge"><title>Node8&#45;&gt;Node11</title>
<path fill="none" stroke="midnightblue" d="M384.022,-142.478C399.277,-140.865 414.94,-139.208 429.666,-137.651"/>
<polygon fill="midnightblue" stroke="midnightblue" points="430.119,-141.122 439.696,-136.59 429.383,-134.161 430.119,-141.122"/>
</g>
<!-- Node12 -->
<g id="node12" class="node"><title>Node12</title>
<g id="a_node12"><a xlink:href="../../d8/d89/classturtle_classes_1_1_turtle.html#aebccf7c8d3ea7b21ea040ec199df9524" target="_top" xlink:title="turtleClasses.Turtle.getPen">
<polygon fill="white" stroke="black" points="431,-76.5 431,-95.5 575,-95.5 575,-76.5 431,-76.5"/>
<text text-anchor="middle" x="503" y="-83.5" font-family="Helvetica,sans-Serif" font-size="10.00">turtleClasses.Turtle.getPen</text>
</a>
</g>
</g>
<!-- Node8&#45;&gt;Node12 -->
<g id="edge11" class="edge"><title>Node8&#45;&gt;Node12</title>
<path fill="none" stroke="midnightblue" d="M319.187,-142.336C345.215,-132.526 387.127,-117.227 424,-106 432.937,-103.279 442.524,-100.616 451.812,-98.1652"/>
<polygon fill="midnightblue" stroke="midnightblue" points="452.925,-101.493 461.728,-95.5973 451.17,-94.7161 452.925,-101.493"/>
</g>
<!-- Node13 -->
<g id="node13" class="node"><title>Node13</title>
<g id="a_node13"><a xlink:href="../../d3/d0e/classfrontend_1_1_pen.html#a17318755b237586d312171984cbcc550" target="_top" xlink:title="frontend.Pen.isPenDown">
<polygon fill="white" stroke="black" points="436.5,-38.5 436.5,-57.5 569.5,-57.5 569.5,-38.5 436.5,-38.5"/>
<text text-anchor="middle" x="503" y="-45.5" font-family="Helvetica,sans-Serif" font-size="10.00">frontend.Pen.isPenDown</text>
</a>
</g>
</g>
<!-- Node8&#45;&gt;Node13 -->
<g id="edge12" class="edge"><title>Node8&#45;&gt;Node13</title>
<path fill="none" stroke="midnightblue" d="M305.747,-142.305C327.637,-124.717 376.744,-87.4832 424,-67 429.707,-64.5265 435.794,-62.3379 441.956,-60.4102"/>
<polygon fill="midnightblue" stroke="midnightblue" points="443.029,-63.7431 451.656,-57.5922 441.076,-57.021 443.029,-63.7431"/>
</g>
<!-- Node14 -->
<g id="node14" class="node"><title>Node14</title>
<g id="a_node14"><a xlink:href="../../d8/d89/classturtle_classes_1_1_turtle.html#ab9f4167fbd3300aef49f2221457509af" target="_top" xlink:title="turtleClasses.Turtle.isShowing">
<polygon fill="white" stroke="black" points="424,-0.5 424,-19.5 582,-19.5 582,-0.5 424,-0.5"/>
<text text-anchor="middle" x="503" y="-7.5" font-family="Helvetica,sans-Serif" font-size="10.00">turtleClasses.Turtle.isShowing</text>
</a>
</g>
</g>
<!-- Node8&#45;&gt;Node14 -->
<g id="edge13" class="edge"><title>Node8&#45;&gt;Node14</title>
<path fill="none" stroke="midnightblue" d="M301.285,-142.243C319.316,-118.825 368.598,-59.1468 424,-29 428.216,-26.7059 432.709,-24.6851 437.329,-22.9058"/>
<polygon fill="midnightblue" stroke="midnightblue" points="438.633,-26.1581 446.94,-19.5821 436.345,-19.5425 438.633,-26.1581"/>
</g>
</g>
</svg>
