<?xml version="1.0" encoding="UTF-8" standalone="no"?>
<!DOCTYPE svg PUBLIC "-//W3C//DTD SVG 1.1//EN"
 "http://www.w3.org/Graphics/SVG/1.1/DTD/svg11.dtd">
<!-- Generated by graphviz version 2.36.0 (20140111.2315)
 -->
<!-- Title: expressionTree.UserFunctionMap.getFunction Pages: 1 -->
<svg width="1164pt" height="48pt"
 viewBox="0.00 0.00 1164.00 48.00" xmlns="http://www.w3.org/2000/svg" xmlns:xlink="http://www.w3.org/1999/xlink">
<g id="graph0" class="graph" transform="scale(1 1) rotate(0) translate(4 44)">
<title>expressionTree.UserFunctionMap.getFunction</title>
<polygon fill="white" stroke="none" points="-4,4 -4,-44 1160,-44 1160,4 -4,4"/>
<!-- Node1 -->
<g id="node1" class="node"><title>Node1</title>
<polygon fill="#bfbfbf" stroke="black" points="0.5,-5 0.5,-35 153.5,-35 153.5,-5 0.5,-5"/>
<text text-anchor="start" x="8.5" y="-23" font-family="Helvetica,sans-Serif" font-size="10.00">expressionTree.UserFunction</text>
<text text-anchor="middle" x="77" y="-12" font-family="Helvetica,sans-Serif" font-size="10.00">Map.getFunction</text>
</g>
<!-- Node2 -->
<g id="node2" class="node"><title>Node2</title>
<g id="a_node2"><a xlink:href="../../d9/d55/classexpression_tree_1_1_expression_node_factory.html#a0d40846816e28787c5fbf6d6ef21a534" target="_top" xlink:title="expressionTree.Expression\lNodeFactory.unrecognizedCommand\lHandler">
<polygon fill="white" stroke="black" points="190.5,0.5 190.5,-40.5 383.5,-40.5 383.5,0.5 190.5,0.5"/>
<text text-anchor="start" x="198.5" y="-28.5" font-family="Helvetica,sans-Serif" font-size="10.00">expressionTree.Expression</text>
<text text-anchor="start" x="198.5" y="-17.5" font-family="Helvetica,sans-Serif" font-size="10.00">NodeFactory.unrecognizedCommand</text>
<text text-anchor="middle" x="287" y="-6.5" font-family="Helvetica,sans-Serif" font-size="10.00">Handler</text>
</a>
</g>
</g>
<!-- Node1&#45;&gt;Node2 -->
<g id="edge1" class="edge"><title>Node1&#45;&gt;Node2</title>
<path fill="none" stroke="midnightblue" d="M163.889,-20C172.667,-20 181.623,-20 190.495,-20"/>
<polygon fill="midnightblue" stroke="midnightblue" points="163.681,-16.5001 153.681,-20 163.681,-23.5001 163.681,-16.5001"/>
</g>
<!-- Node3 -->
<g id="node3" class="node"><title>Node3</title>
<g id="a_node3"><a xlink:href="../../d9/d55/classexpression_tree_1_1_expression_node_factory.html#ae3e414f8f49e18daa55822e37ea3bb54" target="_top" xlink:title="expressionTree.Expression\lNodeFactory.commandHandler">
<polygon fill="white" stroke="black" points="420,-5 420,-35 584,-35 584,-5 420,-5"/>
<text text-anchor="start" x="428" y="-23" font-family="Helvetica,sans-Serif" font-size="10.00">expressionTree.Expression</text>
<text text-anchor="middle" x="502" y="-12" font-family="Helvetica,sans-Serif" font-size="10.00">NodeFactory.commandHandler</text>
</a>
</g>
</g>
<!-- Node2&#45;&gt;Node3 -->
<g id="edge2" class="edge"><title>Node2&#45;&gt;Node3</title>
<path fill="none" stroke="midnightblue" d="M393.799,-20C402.503,-20 411.215,-20 419.699,-20"/>
<polygon fill="midnightblue" stroke="midnightblue" points="393.597,-16.5001 383.597,-20 393.597,-23.5001 393.597,-16.5001"/>
</g>
<!-- Node4 -->
<g id="node4" class="node"><title>Node4</title>
<g id="a_node4"><a xlink:href="../../d9/d55/classexpression_tree_1_1_expression_node_factory.html#a73b0e0bd339ff858fcb0c2daf891cc59" target="_top" xlink:title="expressionTree.Expression\lNodeFactory.getNode">
<polygon fill="white" stroke="black" points="620.5,-5 620.5,-35 763.5,-35 763.5,-5 620.5,-5"/>
<text text-anchor="start" x="628.5" y="-23" font-family="Helvetica,sans-Serif" font-size="10.00">expressionTree.Expression</text>
<text text-anchor="middle" x="692" y="-12" font-family="Helvetica,sans-Serif" font-size="10.00">NodeFactory.getNode</text>
</a>
</g>
</g>
<!-- Node3&#45;&gt;Node4 -->
<g id="edge3" class="edge"><title>Node3&#45;&gt;Node4</title>
<path fill="none" stroke="midnightblue" d="M594.289,-20C603.002,-20 611.746,-20 620.222,-20"/>
<polygon fill="midnightblue" stroke="midnightblue" points="594.093,-16.5001 584.093,-20 594.093,-23.5001 594.093,-16.5001"/>
</g>
<!-- Node5 -->
<g id="node5" class="node"><title>Node5</title>
<g id="a_node5"><a xlink:href="../../d9/d55/classexpression_tree_1_1_expression_node_factory.html#ac3b2de675f1754dfd61694de51553631" target="_top" xlink:title="expressionTree.Expression\lNodeFactory.getAllNodes">
<polygon fill="white" stroke="black" points="800.5,-5 800.5,-35 943.5,-35 943.5,-5 800.5,-5"/>
<text text-anchor="start" x="808.5" y="-23" font-family="Helvetica,sans-Serif" font-size="10.00">expressionTree.Expression</text>
<text text-anchor="middle" x="872" y="-12" font-family="Helvetica,sans-Serif" font-size="10.00">NodeFactory.getAllNodes</text>
</a>
</g>
</g>
<!-- Node4&#45;&gt;Node5 -->
<g id="edge4" class="edge"><title>Node4&#45;&gt;Node5</title>
<path fill="none" stroke="midnightblue" d="M773.646,-20C782.599,-20 791.666,-20 800.479,-20"/>
<polygon fill="midnightblue" stroke="midnightblue" points="773.606,-16.5001 763.606,-20 773.606,-23.5001 773.606,-16.5001"/>
</g>
<!-- Node6 -->
<g id="node6" class="node"><title>Node6</title>
<g id="a_node6"><a xlink:href="../../d3/dfb/classexpression_tree_1_1_expression_tree_builder.html#ab3c3bc68ab96d1cd026bc68a7b329f92" target="_top" xlink:title="expressionTree.Expression\lTreeBuilder.ExpressionTreeBuilder">
<polygon fill="white" stroke="black" points="980,-5 980,-35 1156,-35 1156,-5 980,-5"/>
<text text-anchor="start" x="988" y="-23" font-family="Helvetica,sans-Serif" font-size="10.00">expressionTree.Expression</text>
<text text-anchor="middle" x="1068" y="-12" font-family="Helvetica,sans-Serif" font-size="10.00">TreeBuilder.ExpressionTreeBuilder</text>
</a>
</g>
</g>
<!-- Node5&#45;&gt;Node6 -->
<g id="edge5" class="edge"><title>Node5&#45;&gt;Node6</title>
<path fill="none" stroke="midnightblue" d="M953.668,-20C962.34,-20 971.191,-20 979.934,-20"/>
<polygon fill="midnightblue" stroke="midnightblue" points="953.587,-16.5001 943.587,-20 953.587,-23.5001 953.587,-16.5001"/>
</g>
</g>
</svg>
