<?xml version="1.0" encoding="UTF-8" standalone="no"?>
<!DOCTYPE svg PUBLIC "-//W3C//DTD SVG 1.1//EN"
 "http://www.w3.org/Graphics/SVG/1.1/DTD/svg11.dtd">
<!-- Generated by graphviz version 2.36.0 (20140111.2315)
 -->
<!-- Title: expressionTree.UserFunctionMap.applyLoadedMap Pages: 1 -->
<svg width="570pt" height="38pt"
 viewBox="0.00 0.00 570.00 38.00" xmlns="http://www.w3.org/2000/svg" xmlns:xlink="http://www.w3.org/1999/xlink">
<g id="graph0" class="graph" transform="scale(1 1) rotate(0) translate(4 34)">
<title>expressionTree.UserFunctionMap.applyLoadedMap</title>
<polygon fill="white" stroke="none" points="-4,4 -4,-34 566,-34 566,4 -4,4"/>
<!-- Node1 -->
<g id="node1" class="node"><title>Node1</title>
<polygon fill="#bfbfbf" stroke="black" points="0.5,-0 0.5,-30 153.5,-30 153.5,-0 0.5,-0"/>
<text text-anchor="start" x="8.5" y="-18" font-family="Helvetica,sans-Serif" font-size="10.00">expressionTree.UserFunction</text>
<text text-anchor="middle" x="77" y="-7" font-family="Helvetica,sans-Serif" font-size="10.00">Map.applyLoadedMap</text>
</g>
<!-- Node2 -->
<g id="node2" class="node"><title>Node2</title>
<g id="a_node2"><a xlink:href="../../d5/d5c/classsave_1_1load_1_1_custom_reader_writer.html#aa7470e6e6936ac7311b45602d2aca763" target="_top" xlink:title="save.load.CustomReaderWriter.read\lFromFile">
<polygon fill="white" stroke="black" points="190.5,-0 190.5,-30 377.5,-30 377.5,-0 190.5,-0"/>
<text text-anchor="start" x="198.5" y="-18" font-family="Helvetica,sans-Serif" font-size="10.00">save.load.CustomReaderWriter.read</text>
<text text-anchor="middle" x="284" y="-7" font-family="Helvetica,sans-Serif" font-size="10.00">FromFile</text>
</a>
</g>
</g>
<!-- Node1&#45;&gt;Node2 -->
<g id="edge1" class="edge"><title>Node1&#45;&gt;Node2</title>
<path fill="none" stroke="midnightblue" d="M163.867,-15C172.561,-15 181.418,-15 190.181,-15"/>
<polygon fill="midnightblue" stroke="midnightblue" points="163.752,-11.5001 153.752,-15 163.752,-18.5001 163.752,-11.5001"/>
</g>
<!-- Node3 -->
<g id="node3" class="node"><title>Node3</title>
<g id="a_node3"><a xlink:href="../../d9/d35/classfrontend_1_1_concrete_features_1_1_load_variables_button.html#a6c33614e2366ea92f0da2cf0ba06095f" target="_top" xlink:title="frontend.ConcreteFeatures.\lLoadVariablesButton.action">
<polygon fill="white" stroke="black" points="414,-0 414,-30 562,-30 562,-0 414,-0"/>
<text text-anchor="start" x="422" y="-18" font-family="Helvetica,sans-Serif" font-size="10.00">frontend.ConcreteFeatures.</text>
<text text-anchor="middle" x="488" y="-7" font-family="Helvetica,sans-Serif" font-size="10.00">LoadVariablesButton.action</text>
</a>
</g>
</g>
<!-- Node2&#45;&gt;Node3 -->
<g id="edge2" class="edge"><title>Node2&#45;&gt;Node3</title>
<path fill="none" stroke="midnightblue" d="M387.984,-15C396.731,-15 405.457,-15 413.902,-15"/>
<polygon fill="midnightblue" stroke="midnightblue" points="387.723,-11.5001 377.723,-15 387.723,-18.5001 387.723,-11.5001"/>
</g>
</g>
</svg>
