<?xml version="1.0" encoding="UTF-8" standalone="no"?>
<!DOCTYPE svg PUBLIC "-//W3C//DTD SVG 1.1//EN"
 "http://www.w3.org/Graphics/SVG/1.1/DTD/svg11.dtd">
<!-- Generated by graphviz version 2.36.0 (20140111.2315)
 -->
<!-- Title: expressionTree.UserFunctionMap.addFunction Pages: 1 -->
<svg width="350pt" height="38pt"
 viewBox="0.00 0.00 350.00 38.00" xmlns="http://www.w3.org/2000/svg" xmlns:xlink="http://www.w3.org/1999/xlink">
<g id="graph0" class="graph" transform="scale(1 1) rotate(0) translate(4 34)">
<title>expressionTree.UserFunctionMap.addFunction</title>
<polygon fill="white" stroke="none" points="-4,4 -4,-34 346,-34 346,4 -4,4"/>
<!-- Node1 -->
<g id="node1" class="node"><title>Node1</title>
<polygon fill="#bfbfbf" stroke="black" points="0.5,-0 0.5,-30 153.5,-30 153.5,-0 0.5,-0"/>
<text text-anchor="start" x="8.5" y="-18" font-family="Helvetica,sans-Serif" font-size="10.00">expressionTree.UserFunction</text>
<text text-anchor="middle" x="77" y="-7" font-family="Helvetica,sans-Serif" font-size="10.00">Map.addFunction</text>
</g>
<!-- Node2 -->
<g id="node2" class="node"><title>Node2</title>
<g id="a_node2"><a xlink:href="../../da/d37/classcontrol_structures_1_1_make_user_instruction.html#a387ccf786006ecbd9db98104be98c56c" target="_top" xlink:title="controlStructures.MakeUser\lInstruction.evaluate">
<polygon fill="white" stroke="black" points="190.5,-0 190.5,-30 341.5,-30 341.5,-0 190.5,-0"/>
<text text-anchor="start" x="198.5" y="-18" font-family="Helvetica,sans-Serif" font-size="10.00">controlStructures.MakeUser</text>
<text text-anchor="middle" x="266" y="-7" font-family="Helvetica,sans-Serif" font-size="10.00">Instruction.evaluate</text>
</a>
</g>
</g>
<!-- Node1&#45;&gt;Node2 -->
<g id="edge1" class="edge"><title>Node1&#45;&gt;Node2</title>
<path fill="none" stroke="midnightblue" d="M163.576,-15C172.535,-15 181.591,-15 190.413,-15"/>
<polygon fill="midnightblue" stroke="midnightblue" points="163.521,-11.5001 153.521,-15 163.521,-18.5001 163.521,-11.5001"/>
</g>
</g>
</svg>
