<?xml version="1.0" encoding="UTF-8" standalone="no"?>
<!DOCTYPE svg PUBLIC "-//W3C//DTD SVG 1.1//EN"
 "http://www.w3.org/Graphics/SVG/1.1/DTD/svg11.dtd">
<!-- Generated by graphviz version 2.36.0 (20140111.2315)
 -->
<!-- Title: expressionTree.UserFunctionMap.getUserFunctionMap Pages: 1 -->
<svg width="572pt" height="185pt"
 viewBox="0.00 0.00 572.00 185.00" xmlns="http://www.w3.org/2000/svg" xmlns:xlink="http://www.w3.org/1999/xlink">
<g id="graph0" class="graph" transform="scale(1 1) rotate(0) translate(4 181)">
<title>expressionTree.UserFunctionMap.getUserFunctionMap</title>
<polygon fill="white" stroke="none" points="-4,4 -4,-181 568,-181 568,4 -4,4"/>
<!-- Node1 -->
<g id="node1" class="node"><title>Node1</title>
<polygon fill="#bfbfbf" stroke="black" points="0.5,-73 0.5,-103 153.5,-103 153.5,-73 0.5,-73"/>
<text text-anchor="start" x="8.5" y="-91" font-family="Helvetica,sans-Serif" font-size="10.00">expressionTree.UserFunction</text>
<text text-anchor="middle" x="77" y="-80" font-family="Helvetica,sans-Serif" font-size="10.00">Map.getUserFunctionMap</text>
</g>
<!-- Node2 -->
<g id="node2" class="node"><title>Node2</title>
<g id="a_node2"><a xlink:href="../../da/d37/classcontrol_structures_1_1_make_user_instruction.html#a387ccf786006ecbd9db98104be98c56c" target="_top" xlink:title="controlStructures.MakeUser\lInstruction.evaluate">
<polygon fill="white" stroke="black" points="208.5,-147 208.5,-177 359.5,-177 359.5,-147 208.5,-147"/>
<text text-anchor="start" x="216.5" y="-165" font-family="Helvetica,sans-Serif" font-size="10.00">controlStructures.MakeUser</text>
<text text-anchor="middle" x="284" y="-154" font-family="Helvetica,sans-Serif" font-size="10.00">Instruction.evaluate</text>
</a>
</g>
</g>
<!-- Node1&#45;&gt;Node2 -->
<g id="edge1" class="edge"><title>Node1&#45;&gt;Node2</title>
<path fill="none" stroke="midnightblue" d="M118.161,-107.316C139.245,-117.008 165.687,-128.468 190,-137 200.096,-140.543 210.957,-143.877 221.569,-146.885"/>
<polygon fill="midnightblue" stroke="midnightblue" points="119.422,-104.042 108.878,-103.004 116.473,-110.391 119.422,-104.042"/>
</g>
<!-- Node3 -->
<g id="node3" class="node"><title>Node3</title>
<g id="a_node3"><a xlink:href="../../d5/d5c/classsave_1_1load_1_1_custom_reader_writer.html#aa7470e6e6936ac7311b45602d2aca763" target="_top" xlink:title="save.load.CustomReaderWriter.read\lFromFile">
<polygon fill="white" stroke="black" points="190.5,-98 190.5,-128 377.5,-128 377.5,-98 190.5,-98"/>
<text text-anchor="start" x="198.5" y="-116" font-family="Helvetica,sans-Serif" font-size="10.00">save.load.CustomReaderWriter.read</text>
<text text-anchor="middle" x="284" y="-105" font-family="Helvetica,sans-Serif" font-size="10.00">FromFile</text>
</a>
</g>
</g>
<!-- Node1&#45;&gt;Node3 -->
<g id="edge2" class="edge"><title>Node1&#45;&gt;Node3</title>
<path fill="none" stroke="midnightblue" d="M163.867,-98.4716C172.561,-99.5318 181.418,-100.612 190.181,-101.681"/>
<polygon fill="midnightblue" stroke="midnightblue" points="164.102,-94.9744 153.752,-97.238 163.255,-101.923 164.102,-94.9744"/>
</g>
<!-- Node5 -->
<g id="node5" class="node"><title>Node5</title>
<g id="a_node5"><a xlink:href="../../dc/df7/classfrontend_1_1_concrete_features_1_1_commands_window.html#a5fac4ad27dec7b9f0af001152e331121" target="_top" xlink:title="frontend.ConcreteFeatures.\lCommandsWindow.updatePane">
<polygon fill="white" stroke="black" points="200.5,-49 200.5,-79 367.5,-79 367.5,-49 200.5,-49"/>
<text text-anchor="start" x="208.5" y="-67" font-family="Helvetica,sans-Serif" font-size="10.00">frontend.ConcreteFeatures.</text>
<text text-anchor="middle" x="284" y="-56" font-family="Helvetica,sans-Serif" font-size="10.00">CommandsWindow.updatePane</text>
</a>
</g>
</g>
<!-- Node1&#45;&gt;Node5 -->
<g id="edge4" class="edge"><title>Node1&#45;&gt;Node5</title>
<path fill="none" stroke="midnightblue" d="M163.812,-77.9537C175.896,-76.539 188.298,-75.0871 200.321,-73.6794"/>
<polygon fill="midnightblue" stroke="midnightblue" points="163.277,-74.4923 153.752,-79.1315 164.091,-81.4449 163.277,-74.4923"/>
</g>
<!-- Node6 -->
<g id="node6" class="node"><title>Node6</title>
<g id="a_node6"><a xlink:href="../../d5/d5c/classsave_1_1load_1_1_custom_reader_writer.html#ad71853d99efbc2b4eb909d2b1811ec56" target="_top" xlink:title="save.load.CustomReaderWriter.write\lToFile">
<polygon fill="white" stroke="black" points="190,-0 190,-30 378,-30 378,-0 190,-0"/>
<text text-anchor="start" x="198" y="-18" font-family="Helvetica,sans-Serif" font-size="10.00">save.load.CustomReaderWriter.write</text>
<text text-anchor="middle" x="284" y="-7" font-family="Helvetica,sans-Serif" font-size="10.00">ToFile</text>
</a>
</g>
</g>
<!-- Node1&#45;&gt;Node6 -->
<g id="edge5" class="edge"><title>Node1&#45;&gt;Node6</title>
<path fill="none" stroke="midnightblue" d="M119.108,-68.7168C140.049,-59.3223 166.08,-48.2934 190,-40 200.268,-36.44 211.317,-33.0761 222.089,-30.0382"/>
<polygon fill="midnightblue" stroke="midnightblue" points="117.534,-65.5873 109.87,-72.9025 120.423,-71.9633 117.534,-65.5873"/>
</g>
<!-- Node4 -->
<g id="node4" class="node"><title>Node4</title>
<g id="a_node4"><a xlink:href="../../d9/d35/classfrontend_1_1_concrete_features_1_1_load_variables_button.html#a6c33614e2366ea92f0da2cf0ba06095f" target="_top" xlink:title="frontend.ConcreteFeatures.\lLoadVariablesButton.action">
<polygon fill="white" stroke="black" points="415,-98 415,-128 563,-128 563,-98 415,-98"/>
<text text-anchor="start" x="423" y="-116" font-family="Helvetica,sans-Serif" font-size="10.00">frontend.ConcreteFeatures.</text>
<text text-anchor="middle" x="489" y="-105" font-family="Helvetica,sans-Serif" font-size="10.00">LoadVariablesButton.action</text>
</a>
</g>
</g>
<!-- Node3&#45;&gt;Node4 -->
<g id="edge3" class="edge"><title>Node3&#45;&gt;Node4</title>
<path fill="none" stroke="midnightblue" d="M387.822,-113C396.894,-113 405.951,-113 414.704,-113"/>
<polygon fill="midnightblue" stroke="midnightblue" points="387.589,-109.5 377.589,-113 387.589,-116.5 387.589,-109.5"/>
</g>
<!-- Node7 -->
<g id="node7" class="node"><title>Node7</title>
<g id="a_node7"><a xlink:href="../../da/dc2/classfrontend_1_1_concrete_features_1_1_save_variables_button.html#abf3b7e14025dae885127328774c2eb2c" target="_top" xlink:title="frontend.ConcreteFeatures.\lSaveVariablesButton.action">
<polygon fill="white" stroke="black" points="414.5,-0 414.5,-30 563.5,-30 563.5,-0 414.5,-0"/>
<text text-anchor="start" x="422.5" y="-18" font-family="Helvetica,sans-Serif" font-size="10.00">frontend.ConcreteFeatures.</text>
<text text-anchor="middle" x="489" y="-7" font-family="Helvetica,sans-Serif" font-size="10.00">SaveVariablesButton.action</text>
</a>
</g>
</g>
<!-- Node6&#45;&gt;Node7 -->
<g id="edge6" class="edge"><title>Node6&#45;&gt;Node7</title>
<path fill="none" stroke="midnightblue" d="M388.406,-15C397.121,-15 405.817,-15 414.237,-15"/>
<polygon fill="midnightblue" stroke="midnightblue" points="388.182,-11.5001 378.182,-15 388.182,-18.5001 388.182,-11.5001"/>
</g>
</g>
</svg>
