<?xml version="1.0" encoding="UTF-8" standalone="no"?>
<!DOCTYPE svg PUBLIC "-//W3C//DTD SVG 1.1//EN"
 "http://www.w3.org/Graphics/SVG/1.1/DTD/svg11.dtd">
<!-- Generated by graphviz version 2.36.0 (20140111.2315)
 -->
<!-- Title: frontend.AbstractFeatures.SLogoButton Pages: 1 -->
<!--zoomable 509 -->
<svg id="main" version="1.1" xmlns="http://www.w3.org/2000/svg" xmlns:xlink="http://www.w3.org/1999/xlink" xml:space="preserve" onload="init(evt)">
<style type="text/css"><![CDATA[
.edge:hover path { stroke: red; }
.edge:hover polygon { stroke: red; fill: red; }
]]></style>
<script type="text/javascript"><![CDATA[
var edges = document.getElementsByTagName('g');
if (edges && edges.length) {
  for (var i=0;i<edges.length;i++) {
    if (edges[i].id.substr(0,4)=='edge') {
      edges[i].setAttribute('class','edge');
    }
  }
}
]]></script>
        <defs>
                <circle id="rim" cx="0" cy="0" r="7"/>
                <circle id="rim2" cx="0" cy="0" r="3.5"/>
                <g id="zoomPlus">
                        <use xlink:href="#rim" fill="#404040">
                                <set attributeName="fill" to="#808080" begin="zoomplus.mouseover" end="zoomplus.mouseout"/>
                        </use>
                        <path d="M-4,0h8M0,-4v8" fill="none" stroke="white" stroke-width="1.5" pointer-events="none"/>
                </g>
                <g id="zoomMin">
                        <use xlink:href="#rim" fill="#404040">
                                <set attributeName="fill" to="#808080" begin="zoomminus.mouseover" end="zoomminus.mouseout"/>
                        </use>
                        <path d="M-4,0h8" fill="none" stroke="white" stroke-width="1.5" pointer-events="none"/>
                </g>
                <g id="dirArrow">
                        <path fill="none" stroke="white" stroke-width="1.5" d="M0,-3.0v7 M-2.5,-0.5L0,-3.0L2.5,-0.5"/>
                </g>
               <g id="resetDef">
                       <use xlink:href="#rim2" fill="#404040">
                               <set attributeName="fill" to="#808080" begin="reset.mouseover" end="reset.mouseout"/>
                       </use>
               </g>
        </defs>

<script type="text/javascript">
var viewWidth = 726;
var viewHeight = 509;
var sectionId = 'dynsection-0';
</script>
<script xlink:href="../../svgpan.js"/>
<svg id="graph" class="graph">
<g id="viewport">
<title>frontend.AbstractFeatures.SLogoButton</title>
<polygon fill="white" stroke="none" points="-4,4 -4,-505 722,-505 722,4 -4,4"/>
<!-- Node1 -->
<g id="node1" class="node"><title>Node1</title>
<polygon fill="#bfbfbf" stroke="black" points="182.5,-235 182.5,-265 327.5,-265 327.5,-235 182.5,-235"/>
<text text-anchor="start" x="190.5" y="-253" font-family="Helvetica,sans-Serif" font-size="10.00">frontend.AbstractFeatures.</text>
<text text-anchor="middle" x="255" y="-242" font-family="Helvetica,sans-Serif" font-size="10.00">SLogoButton</text>
</g>
<!-- Node3 -->
<g id="node3" class="node"><title>Node3</title>
<g id="a_node3"><a xlink:href="../../d5/de3/classfrontend_1_1_concrete_features_1_1_change_background.html" target="_top" xlink:title="frontend.ConcreteFeatures.\lChangeBackground">
<polygon fill="white" stroke="black" points="375,-470 375,-500 523,-500 523,-470 375,-470"/>
<text text-anchor="start" x="383" y="-488" font-family="Helvetica,sans-Serif" font-size="10.00">frontend.ConcreteFeatures.</text>
<text text-anchor="middle" x="449" y="-477" font-family="Helvetica,sans-Serif" font-size="10.00">ChangeBackground</text>
</a>
</g>
</g>
<!-- Node1&#45;&gt;Node3 -->
<g id="edge2" class="edge"><title>Node1&#45;&gt;Node3</title>
<path fill="none" stroke="midnightblue" d="M261.908,-274.866C273.646,-318.826 304.098,-410.306 364,-460 368.684,-463.886 373.955,-467.168 379.516,-469.94"/>
<polygon fill="midnightblue" stroke="midnightblue" points="265.255,-273.829 259.38,-265.012 258.475,-275.568 265.255,-273.829"/>
</g>
<!-- Node4 -->
<g id="node4" class="node"><title>Node4</title>
<g id="a_node4"><a xlink:href="../../d4/d78/classfrontend_1_1_concrete_features_1_1_clear_canvas.html" target="_top" xlink:title="frontend.ConcreteFeatures.\lClearCanvas">
<polygon fill="white" stroke="black" points="375,-421 375,-451 523,-451 523,-421 375,-421"/>
<text text-anchor="start" x="383" y="-439" font-family="Helvetica,sans-Serif" font-size="10.00">frontend.ConcreteFeatures.</text>
<text text-anchor="middle" x="449" y="-428" font-family="Helvetica,sans-Serif" font-size="10.00">ClearCanvas</text>
</a>
</g>
</g>
<!-- Node1&#45;&gt;Node4 -->
<g id="edge3" class="edge"><title>Node1&#45;&gt;Node4</title>
<path fill="none" stroke="midnightblue" d="M266.187,-275.061C281.899,-310.583 315.401,-375.222 364,-411 369.269,-414.879 375.138,-418.16 381.256,-420.935"/>
<polygon fill="midnightblue" stroke="midnightblue" points="269.22,-273.255 262.057,-265.449 262.789,-276.019 269.22,-273.255"/>
</g>
<!-- Node6 -->
<g id="node6" class="node"><title>Node6</title>
<g id="a_node6"><a xlink:href="../../d8/d23/classfrontend_1_1_concrete_features_1_1_enable_arrows.html" target="_top" xlink:title="frontend.ConcreteFeatures.\lEnableArrows">
<polygon fill="white" stroke="black" points="375,-372 375,-402 523,-402 523,-372 375,-372"/>
<text text-anchor="start" x="383" y="-390" font-family="Helvetica,sans-Serif" font-size="10.00">frontend.ConcreteFeatures.</text>
<text text-anchor="middle" x="449" y="-379" font-family="Helvetica,sans-Serif" font-size="10.00">EnableArrows</text>
</a>
</g>
</g>
<!-- Node1&#45;&gt;Node6 -->
<g id="edge5" class="edge"><title>Node1&#45;&gt;Node6</title>
<path fill="none" stroke="midnightblue" d="M272.632,-273.391C291.862,-298.772 325.807,-338.771 364,-362 370.37,-365.874 377.379,-369.181 384.549,-371.996"/>
<polygon fill="midnightblue" stroke="midnightblue" points="275.231,-271.019 266.462,-265.074 269.61,-275.191 275.231,-271.019"/>
</g>
<!-- Node7 -->
<g id="node7" class="node"><title>Node7</title>
<g id="a_node7"><a xlink:href="../../dc/d90/classfrontend_1_1_concrete_features_1_1_help.html" target="_top" xlink:title="frontend.ConcreteFeatures.Help">
<polygon fill="white" stroke="black" points="364,-333.5 364,-352.5 534,-352.5 534,-333.5 364,-333.5"/>
<text text-anchor="middle" x="449" y="-340.5" font-family="Helvetica,sans-Serif" font-size="10.00">frontend.ConcreteFeatures.Help</text>
</a>
</g>
</g>
<!-- Node1&#45;&gt;Node7 -->
<g id="edge6" class="edge"><title>Node1&#45;&gt;Node7</title>
<path fill="none" stroke="midnightblue" d="M281.973,-271.522C302.919,-287.862 333.771,-309.715 364,-323 373.744,-327.282 384.545,-330.728 395.066,-333.471"/>
<polygon fill="midnightblue" stroke="midnightblue" points="283.915,-268.595 273.907,-265.119 279.563,-274.078 283.915,-268.595"/>
</g>
<!-- Node8 -->
<g id="node8" class="node"><title>Node8</title>
<g id="a_node8"><a xlink:href="../../de/d9f/classfrontend_1_1_concrete_features_1_1_load_s_logo_file.html" target="_top" xlink:title="frontend.ConcreteFeatures.\lLoadSLogoFile">
<polygon fill="white" stroke="black" points="375,-284 375,-314 523,-314 523,-284 375,-284"/>
<text text-anchor="start" x="383" y="-302" font-family="Helvetica,sans-Serif" font-size="10.00">frontend.ConcreteFeatures.</text>
<text text-anchor="middle" x="449" y="-291" font-family="Helvetica,sans-Serif" font-size="10.00">LoadSLogoFile</text>
</a>
</g>
</g>
<!-- Node1&#45;&gt;Node8 -->
<g id="edge7" class="edge"><title>Node1&#45;&gt;Node8</title>
<path fill="none" stroke="midnightblue" d="M324.767,-267.55C345.851,-272.931 368.845,-278.799 389.2,-283.994"/>
<polygon fill="midnightblue" stroke="midnightblue" points="325.466,-264.116 314.911,-265.035 323.735,-270.899 325.466,-264.116"/>
</g>
<!-- Node9 -->
<g id="node9" class="node"><title>Node9</title>
<g id="a_node9"><a xlink:href="../../d9/d35/classfrontend_1_1_concrete_features_1_1_load_variables_button.html" target="_top" xlink:title="frontend.ConcreteFeatures.\lLoadVariablesButton">
<polygon fill="white" stroke="black" points="375,-235 375,-265 523,-265 523,-235 375,-235"/>
<text text-anchor="start" x="383" y="-253" font-family="Helvetica,sans-Serif" font-size="10.00">frontend.ConcreteFeatures.</text>
<text text-anchor="middle" x="449" y="-242" font-family="Helvetica,sans-Serif" font-size="10.00">LoadVariablesButton</text>
</a>
</g>
</g>
<!-- Node1&#45;&gt;Node9 -->
<g id="edge8" class="edge"><title>Node1&#45;&gt;Node9</title>
<path fill="none" stroke="midnightblue" d="M337.941,-250C350.162,-250 362.693,-250 374.72,-250"/>
<polygon fill="midnightblue" stroke="midnightblue" points="337.767,-246.5 327.767,-250 337.767,-253.5 337.767,-246.5"/>
</g>
<!-- Node10 -->
<g id="node10" class="node"><title>Node10</title>
<g id="a_node10"><a xlink:href="../../da/d39/classfrontend_1_1_concrete_features_1_1_quit.html" target="_top" xlink:title="frontend.ConcreteFeatures.Quit">
<polygon fill="white" stroke="black" points="365.5,-196.5 365.5,-215.5 532.5,-215.5 532.5,-196.5 365.5,-196.5"/>
<text text-anchor="middle" x="449" y="-203.5" font-family="Helvetica,sans-Serif" font-size="10.00">frontend.ConcreteFeatures.Quit</text>
</a>
</g>
</g>
<!-- Node1&#45;&gt;Node10 -->
<g id="edge9" class="edge"><title>Node1&#45;&gt;Node10</title>
<path fill="none" stroke="midnightblue" d="M330.574,-232.686C341.774,-230.1 353.19,-227.474 364,-225 377.555,-221.898 392.347,-218.543 405.688,-215.527"/>
<polygon fill="midnightblue" stroke="midnightblue" points="329.763,-229.281 320.807,-234.943 331.338,-236.101 329.763,-229.281"/>
</g>
<!-- Node11 -->
<g id="node11" class="node"><title>Node11</title>
<g id="a_node11"><a xlink:href="../../da/dc2/classfrontend_1_1_concrete_features_1_1_save_variables_button.html" target="_top" xlink:title="frontend.ConcreteFeatures.\lSaveVariablesButton">
<polygon fill="white" stroke="black" points="375,-147 375,-177 523,-177 523,-147 375,-147"/>
<text text-anchor="start" x="383" y="-165" font-family="Helvetica,sans-Serif" font-size="10.00">frontend.ConcreteFeatures.</text>
<text text-anchor="middle" x="449" y="-154" font-family="Helvetica,sans-Serif" font-size="10.00">SaveVariablesButton</text>
</a>
</g>
</g>
<!-- Node1&#45;&gt;Node11 -->
<g id="edge10" class="edge"><title>Node1&#45;&gt;Node11</title>
<path fill="none" stroke="midnightblue" d="M286.855,-229.33C307.911,-215.904 336.81,-198.775 364,-187 372.377,-183.372 381.442,-180.071 390.412,-177.144"/>
<polygon fill="midnightblue" stroke="midnightblue" points="284.84,-226.465 278.339,-234.831 288.638,-232.345 284.84,-226.465"/>
</g>
<!-- Node12 -->
<g id="node12" class="node"><title>Node12</title>
<g id="a_node12"><a xlink:href="../../d6/d89/classfrontend_1_1_concrete_features_1_1_set_line_color.html" target="_top" xlink:title="frontend.ConcreteFeatures.\lSetLineColor">
<polygon fill="white" stroke="black" points="375,-98 375,-128 523,-128 523,-98 375,-98"/>
<text text-anchor="start" x="383" y="-116" font-family="Helvetica,sans-Serif" font-size="10.00">frontend.ConcreteFeatures.</text>
<text text-anchor="middle" x="449" y="-105" font-family="Helvetica,sans-Serif" font-size="10.00">SetLineColor</text>
</a>
</g>
</g>
<!-- Node1&#45;&gt;Node12 -->
<g id="edge11" class="edge"><title>Node1&#45;&gt;Node12</title>
<path fill="none" stroke="midnightblue" d="M272.287,-226.652C291.387,-200.987 325.386,-160.312 364,-137 369.713,-133.551 375.944,-130.578 382.345,-128.021"/>
<polygon fill="midnightblue" stroke="midnightblue" points="269.459,-224.591 266.396,-234.733 275.115,-228.714 269.459,-224.591"/>
</g>
<!-- Node13 -->
<g id="node13" class="node"><title>Node13</title>
<g id="a_node13"><a xlink:href="../../d2/d8e/classfrontend_1_1_concrete_features_1_1_toggle_grid_lines.html" target="_top" xlink:title="frontend.ConcreteFeatures.\lToggleGridLines">
<polygon fill="white" stroke="black" points="375,-49 375,-79 523,-79 523,-49 375,-49"/>
<text text-anchor="start" x="383" y="-67" font-family="Helvetica,sans-Serif" font-size="10.00">frontend.ConcreteFeatures.</text>
<text text-anchor="middle" x="449" y="-56" font-family="Helvetica,sans-Serif" font-size="10.00">ToggleGridLines</text>
</a>
</g>
</g>
<!-- Node1&#45;&gt;Node13 -->
<g id="edge12" class="edge"><title>Node1&#45;&gt;Node13</title>
<path fill="none" stroke="midnightblue" d="M265.856,-225.254C281.349,-189.543 314.799,-123.915 364,-88 368.655,-84.602 373.779,-81.6839 379.13,-79.1782"/>
<polygon fill="midnightblue" stroke="midnightblue" points="262.45,-224.323 261.795,-234.898 268.901,-227.04 262.45,-224.323"/>
</g>
<!-- Node14 -->
<g id="node14" class="node"><title>Node14</title>
<g id="a_node14"><a xlink:href="../../dc/dae/classfrontend_1_1_s_logo_workspace_1_1_add_workspace_button.html" target="_top" xlink:title="frontend.SLogoWorkspace.\lAddWorkspaceButton">
<polygon fill="white" stroke="black" points="377,-0 377,-30 521,-30 521,-0 377,-0"/>
<text text-anchor="start" x="385" y="-18" font-family="Helvetica,sans-Serif" font-size="10.00">frontend.SLogoWorkspace.</text>
<text text-anchor="middle" x="449" y="-7" font-family="Helvetica,sans-Serif" font-size="10.00">AddWorkspaceButton</text>
</a>
</g>
</g>
<!-- Node1&#45;&gt;Node14 -->
<g id="edge13" class="edge"><title>Node1&#45;&gt;Node14</title>
<path fill="none" stroke="midnightblue" d="M261.818,-224.951C273.413,-180.679 303.647,-88.6094 364,-39 368.218,-35.5329 372.911,-32.5662 377.861,-30.0279"/>
<polygon fill="midnightblue" stroke="midnightblue" points="258.367,-224.324 259.323,-234.876 265.155,-226.031 258.367,-224.324"/>
</g>
<!-- Node2 -->
<g id="node2" class="node"><title>Node2</title>
<g id="a_node2"><a xlink:href="../../dc/db4/classfrontend_1_1_abstract_features_1_1_g_u_i_feature.html" target="_top" xlink:title="frontend.AbstractFeatures.\lGUIFeature">
<polygon fill="white" stroke="black" points="0.5,-235 0.5,-265 145.5,-265 145.5,-235 0.5,-235"/>
<text text-anchor="start" x="8.5" y="-253" font-family="Helvetica,sans-Serif" font-size="10.00">frontend.AbstractFeatures.</text>
<text text-anchor="middle" x="73" y="-242" font-family="Helvetica,sans-Serif" font-size="10.00">GUIFeature</text>
</a>
</g>
</g>
<!-- Node2&#45;&gt;Node1 -->
<g id="edge1" class="edge"><title>Node2&#45;&gt;Node1</title>
<path fill="none" stroke="midnightblue" d="M155.921,-250C164.722,-250 173.626,-250 182.295,-250"/>
<polygon fill="midnightblue" stroke="midnightblue" points="155.658,-246.5 145.658,-250 155.658,-253.5 155.658,-246.5"/>
</g>
<!-- Node5 -->
<g id="node5" class="node"><title>Node5</title>
<g id="a_node5"><a xlink:href="../../d0/d72/classfrontend_1_1_concrete_features_1_1_reset.html" target="_top" xlink:title="frontend.ConcreteFeatures.\lReset">
<polygon fill="white" stroke="black" points="570,-421 570,-451 718,-451 718,-421 570,-421"/>
<text text-anchor="start" x="578" y="-439" font-family="Helvetica,sans-Serif" font-size="10.00">frontend.ConcreteFeatures.</text>
<text text-anchor="middle" x="644" y="-428" font-family="Helvetica,sans-Serif" font-size="10.00">Reset</text>
</a>
</g>
</g>
<!-- Node4&#45;&gt;Node5 -->
<g id="edge4" class="edge"><title>Node4&#45;&gt;Node5</title>
<path fill="none" stroke="midnightblue" d="M533.348,-436C545.482,-436 557.898,-436 569.81,-436"/>
<polygon fill="midnightblue" stroke="midnightblue" points="533.24,-432.5 523.24,-436 533.24,-439.5 533.24,-432.5"/>
</g>
</g>
</svg>
        <g id="navigator" transform="translate(0 0)" fill="#404254">
                <rect fill="#f2f5e9" fill-opacity="0.5" stroke="#606060" stroke-width=".5" x="0" y="0" width="60" height="60"/>
                <use id="zoomplus" xlink:href="#zoomPlus" x="17" y="9" onmousedown="handleZoom(evt,'in')"/>
                <use id="zoomminus" xlink:href="#zoomMin" x="42" y="9" onmousedown="handleZoom(evt,'out')"/>
                <use id="reset" xlink:href="#resetDef" x="30" y="36" onmousedown="handleReset()"/>
                <g id="arrowUp" xlink:href="#dirArrow" transform="translate(30 24)" onmousedown="handlePan(0,-1)">
                  <use xlink:href="#rim" fill="#404040">
                        <set attributeName="fill" to="#808080" begin="arrowUp.mouseover" end="arrowUp.mouseout"/>
                  </use>
                  <path fill="none" stroke="white" stroke-width="1.5" d="M0,-3.0v7 M-2.5,-0.5L0,-3.0L2.5,-0.5"/>
                </g>
                <g id="arrowRight" xlink:href="#dirArrow" transform="rotate(90) translate(36 -43)" onmousedown="handlePan(1,0)">
                  <use xlink:href="#rim" fill="#404040">
                        <set attributeName="fill" to="#808080" begin="arrowRight.mouseover" end="arrowRight.mouseout"/>
                  </use>
                  <path fill="none" stroke="white" stroke-width="1.5" d="M0,-3.0v7 M-2.5,-0.5L0,-3.0L2.5,-0.5"/>
                </g>
                <g id="arrowDown" xlink:href="#dirArrow" transform="rotate(180) translate(-30 -48)" onmousedown="handlePan(0,1)">
                  <use xlink:href="#rim" fill="#404040">
                        <set attributeName="fill" to="#808080" begin="arrowDown.mouseover" end="arrowDown.mouseout"/>
                  </use>
                  <path fill="none" stroke="white" stroke-width="1.5" d="M0,-3.0v7 M-2.5,-0.5L0,-3.0L2.5,-0.5"/>
                </g>
                <g id="arrowLeft" xlink:href="#dirArrow" transform="rotate(270) translate(-36 17)" onmousedown="handlePan(-1,0)">
                  <use xlink:href="#rim" fill="#404040">
                        <set attributeName="fill" to="#808080" begin="arrowLeft.mouseover" end="arrowLeft.mouseout"/>
                  </use>
                  <path fill="none" stroke="white" stroke-width="1.5" d="M0,-3.0v7 M-2.5,-0.5L0,-3.0L2.5,-0.5"/>
                </g>
        </g>
        <svg viewBox="0 0 15 15" width="100%" height="30px" preserveAspectRatio="xMaxYMin meet">
         <g id="arrow_out" transform="scale(0.3 0.3)">
          <a xlink:href="classfrontend_1_1_abstract_features_1_1_s_logo_button__inherit__graph_org.svg" target="_base">
           <rect id="button" ry="5" rx="5" y="6" x="6" height="38" width="38"
                fill="#f2f5e9" fill-opacity="0.5" stroke="#606060" stroke-width="1.0"/>
           <path id="arrow"
             d="M 11.500037,31.436501 C 11.940474,20.09759 22.043105,11.32322 32.158766,21.979434 L 37.068811,17.246167 C 37.068811,17.246167 37.088388,32 37.088388,32 L 22.160133,31.978069 C 22.160133,31.978069 26.997745,27.140456 26.997745,27.140456 C 18.528582,18.264221 13.291696,25.230495 11.500037,31.436501 z"
             style="fill:#404040;"/>
          </a>
         </g>
        </svg>
</svg>
