<?xml version="1.0" encoding="UTF-8" standalone="no"?>
<!DOCTYPE svg PUBLIC "-//W3C//DTD SVG 1.1//EN"
 "http://www.w3.org/Graphics/SVG/1.1/DTD/svg11.dtd">
<!-- Generated by graphviz version 2.36.0 (20140111.2315)
 -->
<!-- Title: frontend.AbstractFeatures.SLogoDropDown Pages: 1 -->
<svg width="704pt" height="111pt"
 viewBox="0.00 0.00 704.00 111.00" xmlns="http://www.w3.org/2000/svg" xmlns:xlink="http://www.w3.org/1999/xlink">
<g id="graph0" class="graph" transform="scale(1 1) rotate(0) translate(4 107)">
<title>frontend.AbstractFeatures.SLogoDropDown</title>
<polygon fill="white" stroke="none" points="-4,4 -4,-107 700,-107 700,4 -4,4"/>
<!-- Node1 -->
<g id="node1" class="node"><title>Node1</title>
<polygon fill="#bfbfbf" stroke="black" points="182.5,-48 182.5,-78 327.5,-78 327.5,-48 182.5,-48"/>
<text text-anchor="start" x="190.5" y="-66" font-family="Helvetica,sans-Serif" font-size="10.00">frontend.AbstractFeatures.</text>
<text text-anchor="middle" x="255" y="-55" font-family="Helvetica,sans-Serif" font-size="10.00">SLogoDropDown</text>
</g>
<!-- Node3 -->
<g id="node3" class="node"><title>Node3</title>
<g id="a_node3"><a xlink:href="../../dc/d4d/classfrontend_1_1_concrete_features_1_1_change_coding_language.html" target="_top" xlink:title="frontend.ConcreteFeatures.\lChangeCodingLanguage">
<polygon fill="white" stroke="black" points="364,-73 364,-103 512,-103 512,-73 364,-73"/>
<text text-anchor="start" x="372" y="-91" font-family="Helvetica,sans-Serif" font-size="10.00">frontend.ConcreteFeatures.</text>
<text text-anchor="middle" x="438" y="-80" font-family="Helvetica,sans-Serif" font-size="10.00">ChangeCodingLanguage</text>
</a>
</g>
</g>
<!-- Node1&#45;&gt;Node3 -->
<g id="edge2" class="edge"><title>Node1&#45;&gt;Node3</title>
<path fill="none" stroke="midnightblue" d="M337.714,-74.2865C346.445,-75.4923 355.285,-76.7134 363.906,-77.9042"/>
<polygon fill="midnightblue" stroke="midnightblue" points="337.921,-70.7819 327.536,-72.8807 336.963,-77.7161 337.921,-70.7819"/>
</g>
<!-- Node4 -->
<g id="node4" class="node"><title>Node4</title>
<g id="a_node4"><a xlink:href="../../d0/d3e/classfrontend_1_1_concrete_features_1_1_turtle_changer.html" target="_top" xlink:title="frontend.ConcreteFeatures.\lTurtleChanger">
<polygon fill="white" stroke="black" points="364,-24 364,-54 512,-54 512,-24 364,-24"/>
<text text-anchor="start" x="372" y="-42" font-family="Helvetica,sans-Serif" font-size="10.00">frontend.ConcreteFeatures.</text>
<text text-anchor="middle" x="438" y="-31" font-family="Helvetica,sans-Serif" font-size="10.00">TurtleChanger</text>
</a>
</g>
</g>
<!-- Node1&#45;&gt;Node4 -->
<g id="edge3" class="edge"><title>Node1&#45;&gt;Node4</title>
<path fill="none" stroke="midnightblue" d="M337.714,-52.165C346.445,-51.0074 355.285,-49.8352 363.906,-48.692"/>
<polygon fill="midnightblue" stroke="midnightblue" points="336.989,-48.7304 327.536,-53.5146 337.909,-55.6696 336.989,-48.7304"/>
</g>
<!-- Node2 -->
<g id="node2" class="node"><title>Node2</title>
<g id="a_node2"><a xlink:href="../../dc/db4/classfrontend_1_1_abstract_features_1_1_g_u_i_feature.html" target="_top" xlink:title="frontend.AbstractFeatures.\lGUIFeature">
<polygon fill="white" stroke="black" points="0.5,-48 0.5,-78 145.5,-78 145.5,-48 0.5,-48"/>
<text text-anchor="start" x="8.5" y="-66" font-family="Helvetica,sans-Serif" font-size="10.00">frontend.AbstractFeatures.</text>
<text text-anchor="middle" x="73" y="-55" font-family="Helvetica,sans-Serif" font-size="10.00">GUIFeature</text>
</a>
</g>
</g>
<!-- Node2&#45;&gt;Node1 -->
<g id="edge1" class="edge"><title>Node2&#45;&gt;Node1</title>
<path fill="none" stroke="midnightblue" d="M155.921,-63C164.722,-63 173.626,-63 182.295,-63"/>
<polygon fill="midnightblue" stroke="midnightblue" points="155.658,-59.5001 145.658,-63 155.658,-66.5001 155.658,-59.5001"/>
</g>
<!-- Node5 -->
<g id="node5" class="node"><title>Node5</title>
<g id="a_node5"><a xlink:href="../../dc/d0b/classfrontend_1_1_concrete_features_1_1_choose_image.html" target="_top" xlink:title="frontend.ConcreteFeatures.\lChooseImage">
<polygon fill="white" stroke="black" points="548,-49 548,-79 696,-79 696,-49 548,-49"/>
<text text-anchor="start" x="556" y="-67" font-family="Helvetica,sans-Serif" font-size="10.00">frontend.ConcreteFeatures.</text>
<text text-anchor="middle" x="622" y="-56" font-family="Helvetica,sans-Serif" font-size="10.00">ChooseImage</text>
</a>
</g>
</g>
<!-- Node4&#45;&gt;Node5 -->
<g id="edge4" class="edge"><title>Node4&#45;&gt;Node5</title>
<path fill="none" stroke="midnightblue" d="M522.237,-50.4336C530.804,-51.6105 539.464,-52.8001 547.91,-53.9602"/>
<polygon fill="midnightblue" stroke="midnightblue" points="522.623,-46.9539 512.24,-49.0604 521.67,-53.8888 522.623,-46.9539"/>
</g>
<!-- Node6 -->
<g id="node6" class="node"><title>Node6</title>
<g id="a_node6"><a xlink:href="../../db/d1c/classfrontend_1_1_concrete_features_1_1_choose_line_style.html" target="_top" xlink:title="frontend.ConcreteFeatures.\lChooseLineStyle">
<polygon fill="white" stroke="black" points="548,-0 548,-30 696,-30 696,-0 548,-0"/>
<text text-anchor="start" x="556" y="-18" font-family="Helvetica,sans-Serif" font-size="10.00">frontend.ConcreteFeatures.</text>
<text text-anchor="middle" x="622" y="-7" font-family="Helvetica,sans-Serif" font-size="10.00">ChooseLineStyle</text>
</a>
</g>
</g>
<!-- Node4&#45;&gt;Node6 -->
<g id="edge5" class="edge"><title>Node4&#45;&gt;Node6</title>
<path fill="none" stroke="midnightblue" d="M522.237,-28.0238C530.804,-26.8939 539.464,-25.7519 547.91,-24.6382"/>
<polygon fill="midnightblue" stroke="midnightblue" points="521.696,-24.5646 512.24,-29.342 522.611,-31.5045 521.696,-24.5646"/>
</g>
</g>
</svg>
