<?xml version="1.0" encoding="UTF-8" standalone="no"?>
<!DOCTYPE svg PUBLIC "-//W3C//DTD SVG 1.1//EN"
 "http://www.w3.org/Graphics/SVG/1.1/DTD/svg11.dtd">
<!-- Generated by graphviz version 2.36.0 (20140111.2315)
 -->
<!-- Title: expressionTree.VariableNode Pages: 1 -->
<svg width="324pt" height="168pt"
 viewBox="0.00 0.00 324.00 168.00" xmlns="http://www.w3.org/2000/svg" xmlns:xlink="http://www.w3.org/1999/xlink">
<g id="graph0" class="graph" transform="scale(1 1) rotate(0) translate(4 164)">
<title>expressionTree.VariableNode</title>
<polygon fill="white" stroke="none" points="-4,4 -4,-164 320,-164 320,4 -4,4"/>
<!-- Node1 -->
<g id="node1" class="node"><title>Node1</title>
<polygon fill="#bfbfbf" stroke="black" points="154.5,-0.5 154.5,-19.5 309.5,-19.5 309.5,-0.5 154.5,-0.5"/>
<text text-anchor="middle" x="232" y="-7.5" font-family="Helvetica,sans-Serif" font-size="10.00">expressionTree.VariableNode</text>
</g>
<!-- Node2 -->
<g id="node2" class="node"><title>Node2</title>
<g id="a_node2"><a xlink:href="../../db/da5/classexpression_tree_1_1_expression_node.html" target="_top" xlink:title="expressionTree.ExpressionNode">
<polygon fill="white" stroke="black" points="1,-59.5 1,-78.5 169,-78.5 169,-59.5 1,-59.5"/>
<text text-anchor="middle" x="85" y="-66.5" font-family="Helvetica,sans-Serif" font-size="10.00">expressionTree.ExpressionNode</text>
</a>
</g>
</g>
<!-- Node2&#45;&gt;Node1 -->
<g id="edge1" class="edge"><title>Node2&#45;&gt;Node1</title>
<path fill="none" stroke="midnightblue" d="M116.385,-55.8304C144.488,-44.9333 184.989,-29.2287 209.842,-19.5918"/>
<polygon fill="midnightblue" stroke="midnightblue" points="115.066,-52.5879 107.007,-59.4665 117.596,-59.1144 115.066,-52.5879"/>
</g>
<!-- Node2&#45;&gt;Node2 -->
<g id="edge3" class="edge"><title>Node2&#45;&gt;Node2</title>
<path fill="none" stroke="#9a32cd" stroke-dasharray="5,2" d="M179.372,-72.4687C183.558,-71.5845 186,-70.4282 186,-69 186,-66.6562 179.424,-65.0449 169.356,-64.166"/>
<polygon fill="#9a32cd" stroke="#9a32cd" points="178.791,-69.0155 169.356,-73.834 179.737,-75.9513 178.791,-69.0155"/>
<text text-anchor="middle" x="206" y="-72" font-family="Helvetica,sans-Serif" font-size="10.00"> myLeft</text>
<text text-anchor="middle" x="206" y="-61" font-family="Helvetica,sans-Serif" font-size="10.00">myRight</text>
</g>
<!-- Node3 -->
<g id="node3" class="node"><title>Node3</title>
<polygon fill="white" stroke="#bfbfbf" points="0,-129 0,-159 170,-159 170,-129 0,-129"/>
<text text-anchor="start" x="8" y="-147" font-family="Helvetica,sans-Serif" font-size="10.00">List&lt; displayCommands.Display</text>
<text text-anchor="middle" x="85" y="-136" font-family="Helvetica,sans-Serif" font-size="10.00">Node &gt;</text>
</g>
<!-- Node3&#45;&gt;Node2 -->
<g id="edge2" class="edge"><title>Node3&#45;&gt;Node2</title>
<path fill="none" stroke="#9a32cd" stroke-dasharray="5,2" d="M85,-118.574C85,-104.751 85,-88.325 85,-78.5528"/>
<polygon fill="#9a32cd" stroke="#9a32cd" points="81.5001,-118.925 85,-128.925 88.5001,-118.925 81.5001,-118.925"/>
<text text-anchor="middle" x="120" y="-101.5" font-family="Helvetica,sans-Serif" font-size="10.00"> instructionList</text>
</g>
<!-- Node4 -->
<g id="node4" class="node"><title>Node4</title>
<polygon fill="white" stroke="#bfbfbf" points="245.5,-59.5 245.5,-78.5 316.5,-78.5 316.5,-59.5 245.5,-59.5"/>
<text text-anchor="middle" x="281" y="-66.5" font-family="Helvetica,sans-Serif" font-size="10.00">Serializable</text>
</g>
<!-- Node4&#45;&gt;Node1 -->
<g id="edge4" class="edge"><title>Node4&#45;&gt;Node1</title>
<path fill="none" stroke="midnightblue" d="M266.772,-51.4486C257.835,-41.0528 246.671,-28.0668 239.442,-19.6571"/>
<polygon fill="midnightblue" stroke="midnightblue" points="264.171,-53.7922 273.344,-59.0938 269.479,-49.2289 264.171,-53.7922"/>
</g>
</g>
</svg>
