<?xml version="1.0" encoding="UTF-8" standalone="no"?>
<!DOCTYPE svg PUBLIC "-//W3C//DTD SVG 1.1//EN"
 "http://www.w3.org/Graphics/SVG/1.1/DTD/svg11.dtd">
<!-- Generated by graphviz version 2.36.0 (20140111.2315)
 -->
<!-- Title: frontend.Pen.setLineWidth Pages: 1 -->
<svg width="364pt" height="87pt"
 viewBox="0.00 0.00 364.00 87.00" xmlns="http://www.w3.org/2000/svg" xmlns:xlink="http://www.w3.org/1999/xlink">
<g id="graph0" class="graph" transform="scale(1 1) rotate(0) translate(4 83)">
<title>frontend.Pen.setLineWidth</title>
<polygon fill="white" stroke="none" points="-4,4 -4,-83 360,-83 360,4 -4,4"/>
<!-- Node1 -->
<g id="node1" class="node"><title>Node1</title>
<polygon fill="#bfbfbf" stroke="black" points="0,-29.5 0,-48.5 142,-48.5 142,-29.5 0,-29.5"/>
<text text-anchor="middle" x="71" y="-36.5" font-family="Helvetica,sans-Serif" font-size="10.00">frontend.Pen.setLineWidth</text>
</g>
<!-- Node2 -->
<g id="node2" class="node"><title>Node2</title>
<g id="a_node2"><a xlink:href="../../d0/d72/classfrontend_1_1_concrete_features_1_1_reset.html#ab7b13b161309fd31ad8c3faeacec0986" target="_top" xlink:title="frontend.ConcreteFeatures.\lReset.action">
<polygon fill="white" stroke="black" points="193,-49 193,-79 341,-79 341,-49 193,-49"/>
<text text-anchor="start" x="201" y="-67" font-family="Helvetica,sans-Serif" font-size="10.00">frontend.ConcreteFeatures.</text>
<text text-anchor="middle" x="267" y="-56" font-family="Helvetica,sans-Serif" font-size="10.00">Reset.action</text>
</a>
</g>
</g>
<!-- Node1&#45;&gt;Node2 -->
<g id="edge1" class="edge"><title>Node1&#45;&gt;Node2</title>
<path fill="none" stroke="midnightblue" d="M152.213,-49.3368C165.656,-51.069 179.541,-52.8584 192.795,-54.5664"/>
<polygon fill="midnightblue" stroke="midnightblue" points="152.404,-45.8325 142.038,-48.0256 151.509,-52.775 152.404,-45.8325"/>
</g>
<!-- Node3 -->
<g id="node3" class="node"><title>Node3</title>
<g id="a_node3"><a xlink:href="../../dc/df4/classdisplay_commands_1_1_set_pen_size.html#af612c2ba19d026f02a56380edf37686a" target="_top" xlink:title="displayCommands.SetPenSize.do\lAction">
<polygon fill="white" stroke="black" points="178,-0 178,-30 356,-30 356,-0 178,-0"/>
<text text-anchor="start" x="186" y="-18" font-family="Helvetica,sans-Serif" font-size="10.00">displayCommands.SetPenSize.do</text>
<text text-anchor="middle" x="267" y="-7" font-family="Helvetica,sans-Serif" font-size="10.00">Action</text>
</a>
</g>
</g>
<!-- Node1&#45;&gt;Node3 -->
<g id="edge2" class="edge"><title>Node1&#45;&gt;Node3</title>
<path fill="none" stroke="midnightblue" d="M152.232,-29.0744C160.674,-28.03 169.291,-26.964 177.817,-25.9093"/>
<polygon fill="midnightblue" stroke="midnightblue" points="151.533,-25.6341 142.038,-30.3354 152.393,-32.5811 151.533,-25.6341"/>
</g>
</g>
</svg>
