<?xml version="1.0" encoding="UTF-8" standalone="no"?>
<!DOCTYPE svg PUBLIC "-//W3C//DTD SVG 1.1//EN"
 "http://www.w3.org/Graphics/SVG/1.1/DTD/svg11.dtd">
<!-- Generated by graphviz version 2.36.0 (20140111.2315)
 -->
<!-- Title: frontend.Pen.drawLine Pages: 1 -->
<svg width="884pt" height="87pt"
 viewBox="0.00 0.00 884.00 87.00" xmlns="http://www.w3.org/2000/svg" xmlns:xlink="http://www.w3.org/1999/xlink">
<g id="graph0" class="graph" transform="scale(1 1) rotate(0) translate(4 83)">
<title>frontend.Pen.drawLine</title>
<polygon fill="white" stroke="none" points="-4,4 -4,-83 880,-83 880,4 -4,4"/>
<!-- Node1 -->
<g id="node1" class="node"><title>Node1</title>
<polygon fill="#bfbfbf" stroke="black" points="0.5,-29.5 0.5,-48.5 123.5,-48.5 123.5,-29.5 0.5,-29.5"/>
<text text-anchor="middle" x="62" y="-36.5" font-family="Helvetica,sans-Serif" font-size="10.00">frontend.Pen.drawLine</text>
</g>
<!-- Node2 -->
<g id="node2" class="node"><title>Node2</title>
<g id="a_node2"><a xlink:href="../../da/deb/classfrontend_1_1_line_drawer.html#a815e10401e7bee5986e490aeb87b6c33" target="_top" xlink:title="frontend.LineDrawer.makeLine">
<polygon fill="white" stroke="black" points="160,-29.5 160,-48.5 322,-48.5 322,-29.5 160,-29.5"/>
<text text-anchor="middle" x="241" y="-36.5" font-family="Helvetica,sans-Serif" font-size="10.00">frontend.LineDrawer.makeLine</text>
</a>
</g>
</g>
<!-- Node1&#45;&gt;Node2 -->
<g id="edge1" class="edge"><title>Node1&#45;&gt;Node2</title>
<path fill="none" stroke="midnightblue" d="M134.127,-39C142.608,-39 151.311,-39 159.907,-39"/>
<polygon fill="midnightblue" stroke="midnightblue" points="133.913,-35.5001 123.913,-39 133.913,-42.5001 133.913,-35.5001"/>
</g>
<!-- Node3 -->
<g id="node3" class="node"><title>Node3</title>
<g id="a_node3"><a xlink:href="../../da/deb/classfrontend_1_1_line_drawer.html#a6989f18991010fb1e13d2e451f2464f1" target="_top" xlink:title="frontend.LineDrawer.draw">
<polygon fill="white" stroke="black" points="358,-29.5 358,-48.5 496,-48.5 496,-29.5 358,-29.5"/>
<text text-anchor="middle" x="427" y="-36.5" font-family="Helvetica,sans-Serif" font-size="10.00">frontend.LineDrawer.draw</text>
</a>
</g>
</g>
<!-- Node2&#45;&gt;Node3 -->
<g id="edge2" class="edge"><title>Node2&#45;&gt;Node3</title>
<path fill="none" stroke="midnightblue" d="M332.266,-39C340.89,-39 349.534,-39 357.896,-39"/>
<polygon fill="midnightblue" stroke="midnightblue" points="332.17,-35.5001 322.17,-39 332.17,-42.5001 332.17,-35.5001"/>
</g>
<!-- Node4 -->
<g id="node4" class="node"><title>Node4</title>
<g id="a_node4"><a xlink:href="../../d8/d89/classturtle_classes_1_1_turtle.html#a64e1dd57e46b76e972cc94d829488a5a" target="_top" xlink:title="turtleClasses.Turtle.move">
<polygon fill="white" stroke="black" points="532.5,-29.5 532.5,-48.5 669.5,-48.5 669.5,-29.5 532.5,-29.5"/>
<text text-anchor="middle" x="601" y="-36.5" font-family="Helvetica,sans-Serif" font-size="10.00">turtleClasses.Turtle.move</text>
</a>
</g>
</g>
<!-- Node3&#45;&gt;Node4 -->
<g id="edge3" class="edge"><title>Node3&#45;&gt;Node4</title>
<path fill="none" stroke="midnightblue" d="M506.521,-39C515.138,-39 523.855,-39 532.324,-39"/>
<polygon fill="midnightblue" stroke="midnightblue" points="506.473,-35.5001 496.473,-39 506.473,-42.5001 506.473,-35.5001"/>
</g>
<!-- Node5 -->
<g id="node5" class="node"><title>Node5</title>
<g id="a_node5"><a xlink:href="../../de/dfe/classdisplay_commands_1_1_backward.html#a5c77f9bf5029c0bca76b78a8941aeaf0" target="_top" xlink:title="displayCommands.Backward.do\lAction">
<polygon fill="white" stroke="black" points="706.5,-49 706.5,-79 875.5,-79 875.5,-49 706.5,-49"/>
<text text-anchor="start" x="714.5" y="-67" font-family="Helvetica,sans-Serif" font-size="10.00">displayCommands.Backward.do</text>
<text text-anchor="middle" x="791" y="-56" font-family="Helvetica,sans-Serif" font-size="10.00">Action</text>
</a>
</g>
</g>
<!-- Node4&#45;&gt;Node5 -->
<g id="edge4" class="edge"><title>Node4&#45;&gt;Node5</title>
<path fill="none" stroke="midnightblue" d="M679.77,-49.3418C688.52,-50.5053 697.463,-51.6945 706.284,-52.8675"/>
<polygon fill="midnightblue" stroke="midnightblue" points="679.981,-45.8391 669.607,-47.9903 679.058,-52.778 679.981,-45.8391"/>
</g>
<!-- Node6 -->
<g id="node6" class="node"><title>Node6</title>
<g id="a_node6"><a xlink:href="../../d2/dcc/classdisplay_commands_1_1_forward.html#a937e7ee9094507de85d63357c80a4f5d" target="_top" xlink:title="displayCommands.Forward.do\lAction">
<polygon fill="white" stroke="black" points="710.5,-0 710.5,-30 871.5,-30 871.5,-0 710.5,-0"/>
<text text-anchor="start" x="718.5" y="-18" font-family="Helvetica,sans-Serif" font-size="10.00">displayCommands.Forward.do</text>
<text text-anchor="middle" x="791" y="-7" font-family="Helvetica,sans-Serif" font-size="10.00">Action</text>
</a>
</g>
</g>
<!-- Node4&#45;&gt;Node6 -->
<g id="edge5" class="edge"><title>Node4&#45;&gt;Node6</title>
<path fill="none" stroke="midnightblue" d="M679.598,-29.0938C689.695,-27.8049 700.052,-26.4827 710.184,-25.1892"/>
<polygon fill="midnightblue" stroke="midnightblue" points="679.083,-25.6311 669.607,-30.3694 679.969,-32.5748 679.083,-25.6311"/>
</g>
</g>
</svg>
