<?xml version="1.0" encoding="UTF-8" standalone="no"?>
<!DOCTYPE svg PUBLIC "-//W3C//DTD SVG 1.1//EN"
 "http://www.w3.org/Graphics/SVG/1.1/DTD/svg11.dtd">
<!-- Generated by graphviz version 2.36.0 (20140111.2315)
 -->
<!-- Title: frontend.Pen.setLineColor Pages: 1 -->
<svg width="366pt" height="87pt"
 viewBox="0.00 0.00 366.00 87.00" xmlns="http://www.w3.org/2000/svg" xmlns:xlink="http://www.w3.org/1999/xlink">
<g id="graph0" class="graph" transform="scale(1 1) rotate(0) translate(4 83)">
<title>frontend.Pen.setLineColor</title>
<polygon fill="white" stroke="none" points="-4,4 -4,-83 362,-83 362,4 -4,4"/>
<!-- Node1 -->
<g id="node1" class="node"><title>Node1</title>
<polygon fill="#bfbfbf" stroke="black" points="0,-29.5 0,-48.5 140,-48.5 140,-29.5 0,-29.5"/>
<text text-anchor="middle" x="70" y="-36.5" font-family="Helvetica,sans-Serif" font-size="10.00">frontend.Pen.setLineColor</text>
</g>
<!-- Node2 -->
<g id="node2" class="node"><title>Node2</title>
<g id="a_node2"><a xlink:href="../../d0/d72/classfrontend_1_1_concrete_features_1_1_reset.html#ab7b13b161309fd31ad8c3faeacec0986" target="_top" xlink:title="frontend.ConcreteFeatures.\lReset.action">
<polygon fill="white" stroke="black" points="193,-49 193,-79 341,-79 341,-49 193,-49"/>
<text text-anchor="start" x="201" y="-67" font-family="Helvetica,sans-Serif" font-size="10.00">frontend.ConcreteFeatures.</text>
<text text-anchor="middle" x="267" y="-56" font-family="Helvetica,sans-Serif" font-size="10.00">Reset.action</text>
</a>
</g>
</g>
<!-- Node1&#45;&gt;Node2 -->
<g id="edge1" class="edge"><title>Node1&#45;&gt;Node2</title>
<path fill="none" stroke="midnightblue" d="M150.168,-49.1497C164.251,-50.9552 178.863,-52.8286 192.772,-54.6117"/>
<polygon fill="midnightblue" stroke="midnightblue" points="150.388,-45.6494 140.024,-47.8492 149.498,-52.5926 150.388,-45.6494"/>
</g>
<!-- Node3 -->
<g id="node3" class="node"><title>Node3</title>
<g id="a_node3"><a xlink:href="../../d7/d5b/classdisplay_commands_1_1_set_pen_color.html#adebba7ec6180d3c1e9a40088aebbd4bc" target="_top" xlink:title="displayCommands.SetPenColor.do\lAction">
<polygon fill="white" stroke="black" points="176,-0 176,-30 358,-30 358,-0 176,-0"/>
<text text-anchor="start" x="184" y="-18" font-family="Helvetica,sans-Serif" font-size="10.00">displayCommands.SetPenColor.do</text>
<text text-anchor="middle" x="267" y="-7" font-family="Helvetica,sans-Serif" font-size="10.00">Action</text>
</a>
</g>
</g>
<!-- Node1&#45;&gt;Node3 -->
<g id="edge2" class="edge"><title>Node1&#45;&gt;Node3</title>
<path fill="none" stroke="midnightblue" d="M150.225,-29.2492C158.681,-28.2085 167.326,-27.1445 175.895,-26.0899"/>
<polygon fill="midnightblue" stroke="midnightblue" points="149.522,-25.8093 140.024,-30.5047 150.377,-32.7569 149.522,-25.8093"/>
</g>
</g>
</svg>
