<?xml version="1.0" encoding="UTF-8" standalone="no"?>
<!DOCTYPE svg PUBLIC "-//W3C//DTD SVG 1.1//EN"
 "http://www.w3.org/Graphics/SVG/1.1/DTD/svg11.dtd">
<!-- Generated by graphviz version 2.36.0 (20140111.2315)
 -->
<!-- Title: frontend.ConcreteFeatures.CommandExecuter Pages: 1 -->
<svg width="1018pt" height="317pt"
 viewBox="0.00 0.00 1018.00 317.00" xmlns="http://www.w3.org/2000/svg" xmlns:xlink="http://www.w3.org/1999/xlink">
<g id="graph0" class="graph" transform="scale(1 1) rotate(0) translate(4 313)">
<title>frontend.ConcreteFeatures.CommandExecuter</title>
<polygon fill="white" stroke="none" points="-4,4 -4,-313 1014,-313 1014,4 -4,4"/>
<!-- Node1 -->
<g id="node1" class="node"><title>Node1</title>
<polygon fill="#bfbfbf" stroke="black" points="862,-138 862,-168 1010,-168 1010,-138 862,-138"/>
<text text-anchor="start" x="870" y="-156" font-family="Helvetica,sans-Serif" font-size="10.00">frontend.ConcreteFeatures.</text>
<text text-anchor="middle" x="936" y="-145" font-family="Helvetica,sans-Serif" font-size="10.00">CommandExecuter</text>
</g>
<!-- Node2 -->
<g id="node2" class="node"><title>Node2</title>
<g id="a_node2"><a xlink:href="../../d8/d40/classfrontend_1_1_abstract_features_1_1_s_logo_text_box.html" target="_top" xlink:title="frontend.AbstractFeatures.\lSLogoTextBox">
<polygon fill="white" stroke="black" points="585.5,-235 585.5,-265 730.5,-265 730.5,-235 585.5,-235"/>
<text text-anchor="start" x="593.5" y="-253" font-family="Helvetica,sans-Serif" font-size="10.00">frontend.AbstractFeatures.</text>
<text text-anchor="middle" x="658" y="-242" font-family="Helvetica,sans-Serif" font-size="10.00">SLogoTextBox</text>
</a>
</g>
</g>
<!-- Node2&#45;&gt;Node1 -->
<g id="edge1" class="edge"><title>Node2&#45;&gt;Node1</title>
<path fill="none" stroke="midnightblue" d="M731.539,-232.305C766.057,-223.106 807.637,-210.882 844,-197 865.641,-188.738 889.158,-177.298 906.864,-168.154"/>
<polygon fill="midnightblue" stroke="midnightblue" points="730.315,-229.008 721.536,-234.94 732.097,-235.777 730.315,-229.008"/>
</g>
<!-- Node3 -->
<g id="node3" class="node"><title>Node3</title>
<g id="a_node3"><a xlink:href="../../dc/db4/classfrontend_1_1_abstract_features_1_1_g_u_i_feature.html" target="_top" xlink:title="frontend.AbstractFeatures.\lGUIFeature">
<polygon fill="white" stroke="black" points="284.5,-279 284.5,-309 429.5,-309 429.5,-279 284.5,-279"/>
<text text-anchor="start" x="292.5" y="-297" font-family="Helvetica,sans-Serif" font-size="10.00">frontend.AbstractFeatures.</text>
<text text-anchor="middle" x="357" y="-286" font-family="Helvetica,sans-Serif" font-size="10.00">GUIFeature</text>
</a>
</g>
</g>
<!-- Node3&#45;&gt;Node2 -->
<g id="edge2" class="edge"><title>Node3&#45;&gt;Node2</title>
<path fill="none" stroke="midnightblue" d="M439.77,-281.967C485.363,-275.258 541.613,-266.98 585.449,-260.529"/>
<polygon fill="midnightblue" stroke="midnightblue" points="439.002,-278.542 429.618,-283.461 440.021,-285.468 439.002,-278.542"/>
</g>
<!-- Node4 -->
<g id="node4" class="node"><title>Node4</title>
<polygon fill="white" stroke="#bfbfbf" points="310,-240.5 310,-259.5 404,-259.5 404,-240.5 310,-240.5"/>
<text text-anchor="middle" x="357" y="-247.5" font-family="Helvetica,sans-Serif" font-size="10.00">TextInputControl</text>
</g>
<!-- Node4&#45;&gt;Node2 -->
<g id="edge3" class="edge"><title>Node4&#45;&gt;Node2</title>
<path fill="none" stroke="#9a32cd" stroke-dasharray="5,2" d="M414.355,-250C462.767,-250 532.84,-250 585.25,-250"/>
<polygon fill="#9a32cd" stroke="#9a32cd" points="414.064,-246.5 404.063,-250 414.063,-253.5 414.064,-246.5"/>
<text text-anchor="middle" x="508" y="-253" font-family="Helvetica,sans-Serif" font-size="10.00"> inputBox</text>
</g>
<!-- Node5 -->
<g id="node5" class="node"><title>Node5</title>
<g id="a_node5"><a xlink:href="../../df/d0e/classfrontend_1_1_pane_updater.html" target="_top" xlink:title="frontend.PaneUpdater">
<polygon fill="white" stroke="black" points="597,-189.5 597,-208.5 719,-208.5 719,-189.5 597,-189.5"/>
<text text-anchor="middle" x="658" y="-196.5" font-family="Helvetica,sans-Serif" font-size="10.00">frontend.PaneUpdater</text>
</a>
</g>
</g>
<!-- Node5&#45;&gt;Node1 -->
<g id="edge4" class="edge"><title>Node5&#45;&gt;Node1</title>
<path fill="none" stroke="#9a32cd" stroke-dasharray="5,2" d="M726.098,-187.817C767.163,-180.973 819.729,-172.212 861.856,-165.191"/>
<polygon fill="#9a32cd" stroke="#9a32cd" points="725.476,-184.372 716.187,-189.469 726.627,-191.277 725.476,-184.372"/>
<text text-anchor="middle" x="803" y="-185" font-family="Helvetica,sans-Serif" font-size="10.00"> myPaneUpdater</text>
</g>
<!-- Node6 -->
<g id="node6" class="node"><title>Node6</title>
<polygon fill="white" stroke="#bfbfbf" points="270.5,-191 270.5,-221 443.5,-221 443.5,-191 270.5,-191"/>
<text text-anchor="start" x="278.5" y="-209" font-family="Helvetica,sans-Serif" font-size="10.00">List&lt; frontend.AbstractFeatures.</text>
<text text-anchor="middle" x="357" y="-198" font-family="Helvetica,sans-Serif" font-size="10.00">SLogoScrollPane &gt;</text>
</g>
<!-- Node6&#45;&gt;Node5 -->
<g id="edge5" class="edge"><title>Node6&#45;&gt;Node5</title>
<path fill="none" stroke="#9a32cd" stroke-dasharray="5,2" d="M453.881,-203.755C500.854,-202.656 555.969,-201.365 596.926,-200.406"/>
<polygon fill="#9a32cd" stroke="#9a32cd" points="453.597,-200.261 443.681,-203.994 453.761,-207.259 453.597,-200.261"/>
<text text-anchor="middle" x="508" y="-207" font-family="Helvetica,sans-Serif" font-size="10.00"> myUpdateables</text>
</g>
<!-- Node7 -->
<g id="node7" class="node"><title>Node7</title>
<g id="a_node7"><a xlink:href="../../d1/ded/classexpression_tree_1_1_history_collection.html" target="_top" xlink:title="expressionTree.HistoryCollection">
<polygon fill="white" stroke="black" points="572.5,-143.5 572.5,-162.5 743.5,-162.5 743.5,-143.5 572.5,-143.5"/>
<text text-anchor="middle" x="658" y="-150.5" font-family="Helvetica,sans-Serif" font-size="10.00">expressionTree.HistoryCollection</text>
</a>
</g>
</g>
<!-- Node7&#45;&gt;Node1 -->
<g id="edge6" class="edge"><title>Node7&#45;&gt;Node1</title>
<path fill="none" stroke="#9a32cd" stroke-dasharray="5,2" d="M753.992,-153C789.241,-153 828.649,-153 861.673,-153"/>
<polygon fill="#9a32cd" stroke="#9a32cd" points="753.685,-149.5 743.685,-153 753.685,-156.5 753.685,-149.5"/>
<text text-anchor="middle" x="803" y="-156" font-family="Helvetica,sans-Serif" font-size="10.00"> myHistory</text>
</g>
<!-- Node8 -->
<g id="node8" class="node"><title>Node8</title>
<polygon fill="white" stroke="#bfbfbf" points="305,-152.5 305,-171.5 409,-171.5 409,-152.5 305,-152.5"/>
<text text-anchor="middle" x="357" y="-159.5" font-family="Helvetica,sans-Serif" font-size="10.00">Iterable&lt; String &gt;</text>
</g>
<!-- Node8&#45;&gt;Node7 -->
<g id="edge7" class="edge"><title>Node8&#45;&gt;Node7</title>
<path fill="none" stroke="midnightblue" d="M419.089,-160.161C463.313,-158.83 523.648,-157.014 572.491,-155.544"/>
<polygon fill="midnightblue" stroke="midnightblue" points="418.95,-156.664 409.06,-160.463 419.161,-163.661 418.95,-156.664"/>
</g>
<!-- Node9 -->
<g id="node9" class="node"><title>Node9</title>
<polygon fill="white" stroke="#bfbfbf" points="315,-114.5 315,-133.5 399,-133.5 399,-114.5 315,-114.5"/>
<text text-anchor="middle" x="357" y="-121.5" font-family="Helvetica,sans-Serif" font-size="10.00">List&lt; String &gt;</text>
</g>
<!-- Node9&#45;&gt;Node7 -->
<g id="edge8" class="edge"><title>Node9&#45;&gt;Node7</title>
<path fill="none" stroke="#9a32cd" stroke-dasharray="5,2" d="M409.504,-128.52C449.046,-132.041 504.993,-137.133 554,-142 559.995,-142.595 566.185,-143.223 572.416,-143.865"/>
<polygon fill="#9a32cd" stroke="#9a32cd" points="409.584,-125.013 399.313,-127.615 408.965,-131.986 409.584,-125.013"/>
<text text-anchor="middle" x="508" y="-145" font-family="Helvetica,sans-Serif" font-size="10.00"> myHistory</text>
</g>
<!-- Node10 -->
<g id="node10" class="node"><title>Node10</title>
<g id="a_node10"><a xlink:href="../../d3/d17/classturtle_classes_1_1_turtle_mover.html" target="_top" xlink:title="turtleClasses.TurtleMover">
<polygon fill="white" stroke="black" points="589.5,-97.5 589.5,-116.5 726.5,-116.5 726.5,-97.5 589.5,-97.5"/>
<text text-anchor="middle" x="658" y="-104.5" font-family="Helvetica,sans-Serif" font-size="10.00">turtleClasses.TurtleMover</text>
</a>
</g>
</g>
<!-- Node10&#45;&gt;Node1 -->
<g id="edge9" class="edge"><title>Node10&#45;&gt;Node1</title>
<path fill="none" stroke="#9a32cd" stroke-dasharray="5,2" d="M726.098,-118.183C767.163,-125.027 819.729,-133.788 861.856,-140.809"/>
<polygon fill="#9a32cd" stroke="#9a32cd" points="726.627,-114.723 716.187,-116.531 725.476,-121.628 726.627,-114.723"/>
<text text-anchor="middle" x="803" y="-140" font-family="Helvetica,sans-Serif" font-size="10.00"> myMover</text>
</g>
<!-- Node11 -->
<g id="node11" class="node"><title>Node11</title>
<g id="a_node11"><a xlink:href="../../d4/d7e/classturtle_classes_1_1_turtle_collection.html" target="_top" xlink:title="turtleClasses.TurtleCollection">
<polygon fill="white" stroke="black" points="280,-76.5 280,-95.5 434,-95.5 434,-76.5 280,-76.5"/>
<text text-anchor="middle" x="357" y="-83.5" font-family="Helvetica,sans-Serif" font-size="10.00">turtleClasses.TurtleCollection</text>
</a>
</g>
</g>
<!-- Node11&#45;&gt;Node10 -->
<g id="edge10" class="edge"><title>Node11&#45;&gt;Node10</title>
<path fill="none" stroke="#9a32cd" stroke-dasharray="5,2" d="M444.854,-85.8189C478.94,-86.3741 518.361,-87.7907 554,-91 570.401,-92.4769 588.157,-94.9256 604.232,-97.4685"/>
<polygon fill="#9a32cd" stroke="#9a32cd" points="444.505,-82.3138 434.457,-85.6733 444.407,-89.3131 444.505,-82.3138"/>
<text text-anchor="middle" x="508" y="-94" font-family="Helvetica,sans-Serif" font-size="10.00"> myTurtleCollection</text>
</g>
<!-- Node12 -->
<g id="node12" class="node"><title>Node12</title>
<polygon fill="white" stroke="#bfbfbf" points="26.5,-142.5 26.5,-161.5 127.5,-161.5 127.5,-142.5 26.5,-142.5"/>
<text text-anchor="middle" x="77" y="-149.5" font-family="Helvetica,sans-Serif" font-size="10.00">Iterable&lt; Turtle &gt;</text>
</g>
<!-- Node12&#45;&gt;Node11 -->
<g id="edge11" class="edge"><title>Node12&#45;&gt;Node11</title>
<path fill="none" stroke="midnightblue" d="M137.999,-144.797C172.233,-139.415 215.47,-130.433 252,-116 260.72,-112.555 261.304,-108.504 270,-105 279.502,-101.172 289.922,-98.0456 300.127,-95.5167"/>
<polygon fill="midnightblue" stroke="midnightblue" points="137.047,-141.401 127.681,-146.354 138.091,-148.323 137.047,-141.401"/>
</g>
<!-- Node13 -->
<g id="node13" class="node"><title>Node13</title>
<polygon fill="white" stroke="#bfbfbf" points="0.5,-93 0.5,-123 153.5,-123 153.5,-93 0.5,-93"/>
<text text-anchor="start" x="8.5" y="-111" font-family="Helvetica,sans-Serif" font-size="10.00">Map&lt; Integer, turtleClasses.</text>
<text text-anchor="middle" x="77" y="-100" font-family="Helvetica,sans-Serif" font-size="10.00">Turtle &gt;</text>
</g>
<!-- Node13&#45;&gt;Node11 -->
<g id="edge12" class="edge"><title>Node13&#45;&gt;Node11</title>
<path fill="none" stroke="#9a32cd" stroke-dasharray="5,2" d="M163.891,-101.203C200.983,-98.2676 244.013,-94.8623 279.935,-92.0195"/>
<polygon fill="#9a32cd" stroke="#9a32cd" points="163.29,-97.7394 153.598,-102.017 163.842,-104.718 163.29,-97.7394"/>
<text text-anchor="middle" x="212" y="-104" font-family="Helvetica,sans-Serif" font-size="10.00"> myTurtles</text>
</g>
<!-- Node14 -->
<g id="node14" class="node"><title>Node14</title>
<polygon fill="white" stroke="#bfbfbf" points="4,-54.5 4,-73.5 150,-73.5 150,-54.5 4,-54.5"/>
<text text-anchor="middle" x="77" y="-61.5" font-family="Helvetica,sans-Serif" font-size="10.00">List&lt; turtleClasses.Turtle &gt;</text>
</g>
<!-- Node14&#45;&gt;Node11 -->
<g id="edge13" class="edge"><title>Node14&#45;&gt;Node11</title>
<path fill="none" stroke="#9a32cd" stroke-dasharray="5,2" d="M160.76,-70.5493C198.454,-73.5324 242.787,-77.0407 279.672,-79.9596"/>
<polygon fill="#9a32cd" stroke="#9a32cd" points="160.56,-67.0227 150.316,-69.7228 160.008,-74.0009 160.56,-67.0227"/>
<text text-anchor="middle" x="212" y="-81" font-family="Helvetica,sans-Serif" font-size="10.00"> myActiveTurtles</text>
</g>
<!-- Node15 -->
<g id="node15" class="node"><title>Node15</title>
<polygon fill="white" stroke="#bfbfbf" points="51,-16.5 51,-35.5 103,-35.5 103,-16.5 51,-16.5"/>
<text text-anchor="middle" x="77" y="-23.5" font-family="Helvetica,sans-Serif" font-size="10.00">Canvas</text>
</g>
<!-- Node15&#45;&gt;Node11 -->
<g id="edge14" class="edge"><title>Node15&#45;&gt;Node11</title>
<path fill="none" stroke="#9a32cd" stroke-dasharray="5,2" d="M113.11,-28.8241C148.886,-32.4881 205.558,-40.4827 252,-57 260.623,-60.0667 261.442,-63.7567 270,-67 280.009,-70.7932 290.974,-73.9327 301.624,-76.4922"/>
<polygon fill="#9a32cd" stroke="#9a32cd" points="113.447,-25.3404 103.156,-27.8615 112.773,-32.3079 113.447,-25.3404"/>
<text text-anchor="middle" x="212" y="-60" font-family="Helvetica,sans-Serif" font-size="10.00"> myCanvas</text>
</g>
<!-- Node16 -->
<g id="node16" class="node"><title>Node16</title>
<g id="a_node16"><a xlink:href="../../d4/dbc/classfrontend_1_1_translator.html" target="_top" xlink:title="frontend.Translator">
<polygon fill="white" stroke="black" points="604.5,-38.5 604.5,-57.5 711.5,-57.5 711.5,-38.5 604.5,-38.5"/>
<text text-anchor="middle" x="658" y="-45.5" font-family="Helvetica,sans-Serif" font-size="10.00">frontend.Translator</text>
</a>
</g>
</g>
<!-- Node16&#45;&gt;Node1 -->
<g id="edge15" class="edge"><title>Node16&#45;&gt;Node1</title>
<path fill="none" stroke="#9a32cd" stroke-dasharray="5,2" d="M700.831,-60.4685C738.664,-72.1097 795.678,-90.5649 844,-110 864.913,-118.411 887.856,-129.264 905.474,-137.962"/>
<polygon fill="#9a32cd" stroke="#9a32cd" points="701.755,-57.091 691.169,-57.5151 699.709,-63.7853 701.755,-57.091"/>
<text text-anchor="middle" x="803" y="-113" font-family="Helvetica,sans-Serif" font-size="10.00"> myTranslator</text>
</g>
<!-- Node17 -->
<g id="node17" class="node"><title>Node17</title>
<polygon fill="white" stroke="#bfbfbf" points="310.5,-38.5 310.5,-57.5 403.5,-57.5 403.5,-38.5 310.5,-38.5"/>
<text text-anchor="middle" x="357" y="-45.5" font-family="Helvetica,sans-Serif" font-size="10.00">ResourceBundle</text>
</g>
<!-- Node17&#45;&gt;Node16 -->
<g id="edge16" class="edge"><title>Node17&#45;&gt;Node16</title>
<path fill="none" stroke="#9a32cd" stroke-dasharray="5,2" d="M413.936,-48C468.557,-48 551.043,-48 604.469,-48"/>
<polygon fill="#9a32cd" stroke="#9a32cd" points="413.737,-44.5001 403.737,-48 413.737,-51.5001 413.737,-44.5001"/>
<text text-anchor="middle" x="508" y="-51" font-family="Helvetica,sans-Serif" font-size="10.00"> myLanguage</text>
</g>
<!-- Node18 -->
<g id="node18" class="node"><title>Node18</title>
<polygon fill="white" stroke="#bfbfbf" points="296,-0.5 296,-19.5 418,-19.5 418,-0.5 296,-0.5"/>
<text text-anchor="middle" x="357" y="-7.5" font-family="Helvetica,sans-Serif" font-size="10.00">Map&lt; String, String &gt;</text>
</g>
<!-- Node18&#45;&gt;Node16 -->
<g id="edge17" class="edge"><title>Node18&#45;&gt;Node16</title>
<path fill="none" stroke="#9a32cd" stroke-dasharray="5,2" d="M428.378,-17.7794C465.732,-22.0294 512.393,-27.5303 554,-33 570.394,-35.1551 588.227,-37.686 604.376,-40.0486"/>
<polygon fill="#9a32cd" stroke="#9a32cd" points="428.432,-14.2631 418.101,-16.6149 427.643,-21.2186 428.432,-14.2631"/>
<text text-anchor="middle" x="508" y="-36" font-family="Helvetica,sans-Serif" font-size="10.00"> myDictionary</text>
</g>
</g>
</svg>
