<?xml version="1.0" encoding="UTF-8" standalone="no"?>
<!DOCTYPE svg PUBLIC "-//W3C//DTD SVG 1.1//EN"
 "http://www.w3.org/Graphics/SVG/1.1/DTD/svg11.dtd">
<!-- Generated by graphviz version 2.36.0 (20140111.2315)
 -->
<!-- Title: displayCommands.SetPenColor.doAction Pages: 1 -->
<svg width="400pt" height="87pt"
 viewBox="0.00 0.00 400.00 87.00" xmlns="http://www.w3.org/2000/svg" xmlns:xlink="http://www.w3.org/1999/xlink">
<g id="graph0" class="graph" transform="scale(1 1) rotate(0) translate(4 83)">
<title>displayCommands.SetPenColor.doAction</title>
<polygon fill="white" stroke="none" points="-4,4 -4,-83 396,-83 396,4 -4,4"/>
<!-- Node1 -->
<g id="node1" class="node"><title>Node1</title>
<polygon fill="#bfbfbf" stroke="black" points="0,-24 0,-54 182,-54 182,-24 0,-24"/>
<text text-anchor="start" x="8" y="-42" font-family="Helvetica,sans-Serif" font-size="10.00">displayCommands.SetPenColor.do</text>
<text text-anchor="middle" x="91" y="-31" font-family="Helvetica,sans-Serif" font-size="10.00">Action</text>
</g>
<!-- Node2 -->
<g id="node2" class="node"><title>Node2</title>
<g id="a_node2"><a xlink:href="../../d4/d7e/classturtle_classes_1_1_turtle_collection.html#a8b89821e45d78b1168249c798c3c5756" target="_top" xlink:title="turtleClasses.TurtleCollection.get\lCanvas">
<polygon fill="white" stroke="black" points="218.5,-49 218.5,-79 391.5,-79 391.5,-49 218.5,-49"/>
<text text-anchor="start" x="226.5" y="-67" font-family="Helvetica,sans-Serif" font-size="10.00">turtleClasses.TurtleCollection.get</text>
<text text-anchor="middle" x="305" y="-56" font-family="Helvetica,sans-Serif" font-size="10.00">Canvas</text>
</a>
</g>
</g>
<!-- Node1&#45;&gt;Node2 -->
<g id="edge1" class="edge"><title>Node1&#45;&gt;Node2</title>
<path fill="none" stroke="midnightblue" d="M182.214,-49.6385C190.801,-50.651 199.528,-51.6802 208.165,-52.6987"/>
<polygon fill="midnightblue" stroke="midnightblue" points="207.907,-56.1924 218.248,-53.8877 208.726,-49.2406 207.907,-56.1924"/>
</g>
<!-- Node3 -->
<g id="node3" class="node"><title>Node3</title>
<g id="a_node3"><a xlink:href="../../d1/d07/classfrontend_1_1_s_logo_canvas.html#a9452cb3c9d01d7e2e63f06705a49e14e" target="_top" xlink:title="frontend.SLogoCanvas.get\lColor">
<polygon fill="white" stroke="black" points="233,-0 233,-30 377,-30 377,-0 233,-0"/>
<text text-anchor="start" x="241" y="-18" font-family="Helvetica,sans-Serif" font-size="10.00">frontend.SLogoCanvas.get</text>
<text text-anchor="middle" x="305" y="-7" font-family="Helvetica,sans-Serif" font-size="10.00">Color</text>
</a>
</g>
</g>
<!-- Node1&#45;&gt;Node3 -->
<g id="edge2" class="edge"><title>Node1&#45;&gt;Node3</title>
<path fill="none" stroke="midnightblue" d="M182.214,-28.787C195.685,-27.262 209.504,-25.6976 222.774,-24.1954"/>
<polygon fill="midnightblue" stroke="midnightblue" points="223.257,-27.6631 232.8,-23.0604 222.47,-20.7076 223.257,-27.6631"/>
</g>
</g>
</svg>
