<?xml version="1.0" encoding="UTF-8" standalone="no"?>
<!DOCTYPE svg PUBLIC "-//W3C//DTD SVG 1.1//EN"
 "http://www.w3.org/Graphics/SVG/1.1/DTD/svg11.dtd">
<!-- Generated by graphviz version 2.36.0 (20140111.2315)
 -->
<!-- Title: expressionTree.ListNode Pages: 1 -->
<svg width="1252pt" height="196pt"
 viewBox="0.00 0.00 1252.00 196.00" xmlns="http://www.w3.org/2000/svg" xmlns:xlink="http://www.w3.org/1999/xlink">
<g id="graph0" class="graph" transform="scale(1 1) rotate(0) translate(4 192)">
<title>expressionTree.ListNode</title>
<polygon fill="white" stroke="none" points="-4,4 -4,-192 1248,-192 1248,4 -4,4"/>
<!-- Node1 -->
<g id="node1" class="node"><title>Node1</title>
<polygon fill="#bfbfbf" stroke="black" points="1110.5,-71.5 1110.5,-90.5 1243.5,-90.5 1243.5,-71.5 1110.5,-71.5"/>
<text text-anchor="middle" x="1177" y="-78.5" font-family="Helvetica,sans-Serif" font-size="10.00">expressionTree.ListNode</text>
</g>
<!-- Node2 -->
<g id="node2" class="node"><title>Node2</title>
<g id="a_node2"><a xlink:href="../../db/da5/classexpression_tree_1_1_expression_node.html" target="_top" xlink:title="expressionTree.ExpressionNode">
<polygon fill="white" stroke="black" points="854,-96.5 854,-115.5 1022,-115.5 1022,-96.5 854,-96.5"/>
<text text-anchor="middle" x="938" y="-103.5" font-family="Helvetica,sans-Serif" font-size="10.00">expressionTree.ExpressionNode</text>
</a>
</g>
</g>
<!-- Node2&#45;&gt;Node1 -->
<g id="edge1" class="edge"><title>Node2&#45;&gt;Node1</title>
<path fill="none" stroke="midnightblue" d="M1032.47,-96.1407C1058.44,-93.4009 1086.09,-90.4838 1110.12,-87.9488"/>
<polygon fill="midnightblue" stroke="midnightblue" points="1031.8,-92.6913 1022.22,-97.2211 1032.54,-99.6527 1031.8,-92.6913"/>
</g>
<!-- Node2&#45;&gt;Node2 -->
<g id="edge3" class="edge"><title>Node2&#45;&gt;Node2</title>
<path fill="none" stroke="#9a32cd" stroke-dasharray="5,2" d="M914.191,-125.029C915.489,-130.128 923.426,-134 938,-134 960.75,-134 967.326,-124.565 957.729,-115.757"/>
<polygon fill="#9a32cd" stroke="#9a32cd" points="917.447,-126.32 918.271,-115.757 911.04,-123.5 917.447,-126.32"/>
<text text-anchor="middle" x="938" y="-148" font-family="Helvetica,sans-Serif" font-size="10.00"> myLeft</text>
<text text-anchor="middle" x="938" y="-137" font-family="Helvetica,sans-Serif" font-size="10.00">myRight</text>
</g>
<!-- Node3 -->
<g id="node3" class="node"><title>Node3</title>
<polygon fill="white" stroke="#bfbfbf" points="578,-126 578,-156 748,-156 748,-126 578,-126"/>
<text text-anchor="start" x="586" y="-144" font-family="Helvetica,sans-Serif" font-size="10.00">List&lt; displayCommands.Display</text>
<text text-anchor="middle" x="663" y="-133" font-family="Helvetica,sans-Serif" font-size="10.00">Node &gt;</text>
</g>
<!-- Node3&#45;&gt;Node1 -->
<g id="edge17" class="edge"><title>Node3&#45;&gt;Node1</title>
<path fill="none" stroke="#9a32cd" stroke-dasharray="5,2" d="M732.672,-158.179C805.609,-173.531 923.708,-190.064 1022,-165 1079.55,-150.326 1138.78,-109.269 1163.74,-90.5357"/>
<polygon fill="#9a32cd" stroke="#9a32cd" points="733.2,-154.712 722.687,-156.025 731.724,-161.555 733.2,-154.712"/>
<text text-anchor="middle" x="938" y="-180" font-family="Helvetica,sans-Serif" font-size="10.00"> myFundamentals</text>
</g>
<!-- Node3&#45;&gt;Node2 -->
<g id="edge2" class="edge"><title>Node3&#45;&gt;Node2</title>
<path fill="none" stroke="#9a32cd" stroke-dasharray="5,2" d="M758.353,-128.945C783.578,-125.719 810.826,-122.23 836,-119 844.768,-117.875 853.964,-116.694 863.086,-115.521"/>
<polygon fill="#9a32cd" stroke="#9a32cd" points="757.899,-125.475 748.424,-130.215 758.787,-132.418 757.899,-125.475"/>
<text text-anchor="middle" x="801" y="-131" font-family="Helvetica,sans-Serif" font-size="10.00"> instructionList</text>
</g>
<!-- Node4 -->
<g id="node4" class="node"><title>Node4</title>
<g id="a_node4"><a xlink:href="../../d3/dfb/classexpression_tree_1_1_expression_tree_builder.html" target="_top" xlink:title="expressionTree.Expression\lTreeBuilder">
<polygon fill="white" stroke="black" points="866.5,-47 866.5,-77 1009.5,-77 1009.5,-47 866.5,-47"/>
<text text-anchor="start" x="874.5" y="-65" font-family="Helvetica,sans-Serif" font-size="10.00">expressionTree.Expression</text>
<text text-anchor="middle" x="938" y="-54" font-family="Helvetica,sans-Serif" font-size="10.00">TreeBuilder</text>
</a>
</g>
</g>
<!-- Node3&#45;&gt;Node4 -->
<g id="edge15" class="edge"><title>Node3&#45;&gt;Node4</title>
<path fill="none" stroke="#9a32cd" stroke-dasharray="5,2" d="M715.243,-122.536C731.397,-116.953 749.367,-110.985 766,-106 801.384,-95.3949 841.344,-85.0248 873.733,-77.0182"/>
<polygon fill="#9a32cd" stroke="#9a32cd" points="713.738,-119.354 705.447,-125.95 716.042,-125.964 713.738,-119.354"/>
<text text-anchor="middle" x="801" y="-109" font-family="Helvetica,sans-Serif" font-size="10.00"> outputList</text>
</g>
<!-- Node4&#45;&gt;Node1 -->
<g id="edge4" class="edge"><title>Node4&#45;&gt;Node1</title>
<path fill="none" stroke="#9a32cd" stroke-dasharray="5,2" d="M1019.71,-66.6465C1043.05,-68.1604 1068.55,-69.9784 1092,-72 1097.99,-72.5165 1104.22,-73.0984 1110.45,-73.7116"/>
<polygon fill="#9a32cd" stroke="#9a32cd" points="1019.71,-63.1392 1009.5,-65.9947 1019.26,-70.125 1019.71,-63.1392"/>
<text text-anchor="middle" x="1066" y="-75" font-family="Helvetica,sans-Serif" font-size="10.00"> myBuilder</text>
</g>
<!-- Node5 -->
<g id="node5" class="node"><title>Node5</title>
<g id="a_node5"><a xlink:href="../../d9/d55/classexpression_tree_1_1_expression_node_factory.html" target="_top" xlink:title="expressionTree.Expression\lNodeFactory">
<polygon fill="white" stroke="black" points="591.5,-58 591.5,-88 734.5,-88 734.5,-58 591.5,-58"/>
<text text-anchor="start" x="599.5" y="-76" font-family="Helvetica,sans-Serif" font-size="10.00">expressionTree.Expression</text>
<text text-anchor="middle" x="663" y="-65" font-family="Helvetica,sans-Serif" font-size="10.00">NodeFactory</text>
</a>
</g>
</g>
<!-- Node5&#45;&gt;Node4 -->
<g id="edge5" class="edge"><title>Node5&#45;&gt;Node4</title>
<path fill="none" stroke="#9a32cd" stroke-dasharray="5,2" d="M744.806,-69.7441C783.335,-68.1916 829.009,-66.3513 866.163,-64.8542"/>
<polygon fill="#9a32cd" stroke="#9a32cd" points="744.51,-66.2531 734.659,-70.1529 744.792,-73.2474 744.51,-66.2531"/>
<text text-anchor="middle" x="801" y="-72" font-family="Helvetica,sans-Serif" font-size="10.00"> nodeGetter</text>
</g>
<!-- Node6 -->
<g id="node6" class="node"><title>Node6</title>
<g id="a_node6"><a xlink:href="../../d8/d36/classexpression_tree_1_1_user_function_map.html" target="_top" xlink:title="expressionTree.UserFunctionMap">
<polygon fill="white" stroke="black" points="281.5,-105.5 281.5,-124.5 454.5,-124.5 454.5,-105.5 281.5,-105.5"/>
<text text-anchor="middle" x="368" y="-112.5" font-family="Helvetica,sans-Serif" font-size="10.00">expressionTree.UserFunctionMap</text>
</a>
</g>
</g>
<!-- Node6&#45;&gt;Node5 -->
<g id="edge6" class="edge"><title>Node6&#45;&gt;Node5</title>
<path fill="none" stroke="#9a32cd" stroke-dasharray="5,2" d="M445.518,-104.032C490.654,-97.5615 547.375,-89.4309 591.433,-83.1154"/>
<polygon fill="#9a32cd" stroke="#9a32cd" points="444.888,-100.586 435.486,-105.47 445.882,-107.515 444.888,-100.586"/>
<text text-anchor="middle" x="517" y="-102" font-family="Helvetica,sans-Serif" font-size="10.00"> myUserFunctions</text>
</g>
<!-- Node6&#45;&gt;Node6 -->
<g id="edge8" class="edge"><title>Node6&#45;&gt;Node6</title>
<path fill="none" stroke="#9a32cd" stroke-dasharray="5,2" d="M340.374,-133.654C341.529,-138.937 350.738,-143 368,-143 394.305,-143 401.908,-133.565 390.811,-124.757"/>
<polygon fill="#9a32cd" stroke="#9a32cd" points="343.508,-135.218 345.189,-124.757 337.351,-131.886 343.508,-135.218"/>
<text text-anchor="middle" x="368" y="-146" font-family="Helvetica,sans-Serif" font-size="10.00"> myUserFunctionMap</text>
</g>
<!-- Node7 -->
<g id="node7" class="node"><title>Node7</title>
<polygon fill="white" stroke="#bfbfbf" points="43.5,-72.5 43.5,-91.5 114.5,-91.5 114.5,-72.5 43.5,-72.5"/>
<text text-anchor="middle" x="79" y="-79.5" font-family="Helvetica,sans-Serif" font-size="10.00">Serializable</text>
</g>
<!-- Node7&#45;&gt;Node6 -->
<g id="edge7" class="edge"><title>Node7&#45;&gt;Node6</title>
<path fill="none" stroke="midnightblue" d="M124.657,-87.1348C167.178,-92.0239 232.218,-99.5024 284.216,-105.481"/>
<polygon fill="midnightblue" stroke="midnightblue" points="124.953,-83.6459 114.619,-85.9806 124.154,-90.6 124.953,-83.6459"/>
</g>
<!-- Node9 -->
<g id="node9" class="node"><title>Node9</title>
<g id="a_node9"><a xlink:href="../../de/d4e/classexpression_tree_1_1_variable_node_map.html" target="_top" xlink:title="expressionTree.VariableNodeMap">
<polygon fill="white" stroke="black" points="280.5,-38.5 280.5,-57.5 455.5,-57.5 455.5,-38.5 280.5,-38.5"/>
<text text-anchor="middle" x="368" y="-45.5" font-family="Helvetica,sans-Serif" font-size="10.00">expressionTree.VariableNodeMap</text>
</a>
</g>
</g>
<!-- Node7&#45;&gt;Node9 -->
<g id="edge11" class="edge"><title>Node7&#45;&gt;Node9</title>
<path fill="none" stroke="midnightblue" d="M124.808,-76.6918C167.989,-71.5762 234.295,-63.7211 286.619,-57.5225"/>
<polygon fill="midnightblue" stroke="midnightblue" points="124.138,-73.2466 114.619,-77.8988 124.961,-80.198 124.138,-73.2466"/>
</g>
<!-- Node8 -->
<g id="node8" class="node"><title>Node8</title>
<polygon fill="white" stroke="#bfbfbf" points="0.5,-111 0.5,-141 157.5,-141 157.5,-111 0.5,-111"/>
<text text-anchor="start" x="8.5" y="-129" font-family="Helvetica,sans-Serif" font-size="10.00">Map&lt; String, expressionTree.</text>
<text text-anchor="middle" x="79" y="-118" font-family="Helvetica,sans-Serif" font-size="10.00">ListNode &gt;</text>
</g>
<!-- Node8&#45;&gt;Node6 -->
<g id="edge9" class="edge"><title>Node8&#45;&gt;Node6</title>
<path fill="none" stroke="#9a32cd" stroke-dasharray="5,2" d="M167.699,-122.639C203.827,-121.254 245.545,-119.655 281.447,-118.279"/>
<polygon fill="#9a32cd" stroke="#9a32cd" points="167.525,-119.143 157.666,-123.023 167.793,-126.138 167.525,-119.143"/>
<text text-anchor="middle" x="219" y="-126" font-family="Helvetica,sans-Serif" font-size="10.00"> userFunctionMap</text>
</g>
<!-- Node9&#45;&gt;Node5 -->
<g id="edge10" class="edge"><title>Node9&#45;&gt;Node5</title>
<path fill="none" stroke="#9a32cd" stroke-dasharray="5,2" d="M465.729,-56.2534C506.713,-59.7503 553.595,-63.7504 591.26,-66.9641"/>
<polygon fill="#9a32cd" stroke="#9a32cd" points="465.982,-52.7623 455.72,-55.3994 465.387,-59.7369 465.982,-52.7623"/>
<text text-anchor="middle" x="517" y="-68" font-family="Helvetica,sans-Serif" font-size="10.00"> myVariables</text>
</g>
<!-- Node9&#45;&gt;Node9 -->
<g id="edge13" class="edge"><title>Node9&#45;&gt;Node9</title>
<path fill="none" stroke="#9a32cd" stroke-dasharray="5,2" d="M340.374,-66.6539C341.529,-71.9368 350.738,-76 368,-76 394.305,-76 401.908,-66.5653 390.811,-57.7571"/>
<polygon fill="#9a32cd" stroke="#9a32cd" points="343.508,-68.2176 345.189,-57.7571 337.351,-64.886 343.508,-68.2176"/>
<text text-anchor="middle" x="368" y="-79" font-family="Helvetica,sans-Serif" font-size="10.00"> myVariableNodeMap</text>
</g>
<!-- Node10 -->
<g id="node10" class="node"><title>Node10</title>
<polygon fill="white" stroke="#bfbfbf" points="0.5,-23 0.5,-53 157.5,-53 157.5,-23 0.5,-23"/>
<text text-anchor="start" x="8.5" y="-41" font-family="Helvetica,sans-Serif" font-size="10.00">Map&lt; String, expressionTree.</text>
<text text-anchor="middle" x="79" y="-30" font-family="Helvetica,sans-Serif" font-size="10.00">VariableNode &gt;</text>
</g>
<!-- Node10&#45;&gt;Node9 -->
<g id="edge12" class="edge"><title>Node10&#45;&gt;Node9</title>
<path fill="none" stroke="#9a32cd" stroke-dasharray="5,2" d="M167.531,-37.8095C197.499,-38.0505 231.226,-38.66 262,-40 267.936,-40.2585 274.057,-40.5803 280.221,-40.9451"/>
<polygon fill="#9a32cd" stroke="#9a32cd" points="167.545,-34.3096 157.521,-37.7414 167.497,-41.3094 167.545,-34.3096"/>
<text text-anchor="middle" x="219" y="-43" font-family="Helvetica,sans-Serif" font-size="10.00"> variableMap</text>
</g>
<!-- Node11 -->
<g id="node11" class="node"><title>Node11</title>
<polygon fill="white" stroke="#bfbfbf" points="578,-0 578,-30 748,-30 748,-0 578,-0"/>
<text text-anchor="start" x="586" y="-18" font-family="Helvetica,sans-Serif" font-size="10.00">List&lt; expressionTree.Expression</text>
<text text-anchor="middle" x="663" y="-7" font-family="Helvetica,sans-Serif" font-size="10.00">Node &gt;</text>
</g>
<!-- Node11&#45;&gt;Node1 -->
<g id="edge16" class="edge"><title>Node11&#45;&gt;Node1</title>
<path fill="none" stroke="#9a32cd" stroke-dasharray="5,2" d="M758.402,-9.94035C831.094,-7.9547 933.738,-9.31181 1022,-26 1071.65,-35.3885 1126.71,-58.3114 1155.65,-71.4084"/>
<polygon fill="#9a32cd" stroke="#9a32cd" points="758.239,-6.44357 748.348,-10.2415 758.449,-13.4404 758.239,-6.44357"/>
<text text-anchor="middle" x="938" y="-29" font-family="Helvetica,sans-Serif" font-size="10.00"> allMyChildren</text>
</g>
<!-- Node11&#45;&gt;Node4 -->
<g id="edge14" class="edge"><title>Node11&#45;&gt;Node4</title>
<path fill="none" stroke="#9a32cd" stroke-dasharray="5,2" d="M758.043,-31.1905C793.598,-37.3118 833.423,-44.168 866.46,-49.8558"/>
<polygon fill="#9a32cd" stroke="#9a32cd" points="758.585,-27.7325 748.137,-29.4851 757.398,-34.631 758.585,-27.7325"/>
<text text-anchor="middle" x="801" y="-48" font-family="Helvetica,sans-Serif" font-size="10.00"> nodeList</text>
</g>
</g>
</svg>
