<?xml version="1.0" encoding="UTF-8" standalone="no"?>
<!DOCTYPE svg PUBLIC "-//W3C//DTD SVG 1.1//EN"
 "http://www.w3.org/Graphics/SVG/1.1/DTD/svg11.dtd">
<!-- Generated by graphviz version 2.36.0 (20140111.2315)
 -->
<!-- Title: controlStructures.MakeUserInstruction.evaluate Pages: 1 -->
<svg width="554pt" height="175pt"
 viewBox="0.00 0.00 554.00 175.00" xmlns="http://www.w3.org/2000/svg" xmlns:xlink="http://www.w3.org/1999/xlink">
<g id="graph0" class="graph" transform="scale(1 1) rotate(0) translate(4 171)">
<title>controlStructures.MakeUserInstruction.evaluate</title>
<polygon fill="white" stroke="none" points="-4,4 -4,-171 550,-171 550,4 -4,4"/>
<!-- Node1 -->
<g id="node1" class="node"><title>Node1</title>
<polygon fill="#bfbfbf" stroke="black" points="0.5,-71 0.5,-101 151.5,-101 151.5,-71 0.5,-71"/>
<text text-anchor="start" x="8.5" y="-89" font-family="Helvetica,sans-Serif" font-size="10.00">controlStructures.MakeUser</text>
<text text-anchor="middle" x="76" y="-78" font-family="Helvetica,sans-Serif" font-size="10.00">Instruction.evaluate</text>
</g>
<!-- Node2 -->
<g id="node2" class="node"><title>Node2</title>
<g id="a_node2"><a xlink:href="../../d8/d36/classexpression_tree_1_1_user_function_map.html#abeb42dc4e109c5a166dd61ac4b754ef5" target="_top" xlink:title="expressionTree.UserFunction\lMap.addFunction">
<polygon fill="white" stroke="black" points="200.5,-137 200.5,-167 353.5,-167 353.5,-137 200.5,-137"/>
<text text-anchor="start" x="208.5" y="-155" font-family="Helvetica,sans-Serif" font-size="10.00">expressionTree.UserFunction</text>
<text text-anchor="middle" x="277" y="-144" font-family="Helvetica,sans-Serif" font-size="10.00">Map.addFunction</text>
</a>
</g>
</g>
<!-- Node1&#45;&gt;Node2 -->
<g id="edge1" class="edge"><title>Node1&#45;&gt;Node2</title>
<path fill="none" stroke="midnightblue" d="M115.528,-101.062C136.766,-109.154 163.684,-119.068 188,-127 195.326,-129.39 203.035,-131.771 210.72,-134.062"/>
<polygon fill="midnightblue" stroke="midnightblue" points="209.829,-137.448 220.41,-136.91 211.802,-130.732 209.829,-137.448"/>
</g>
<!-- Node3 -->
<g id="node3" class="node"><title>Node3</title>
<g id="a_node3"><a xlink:href="../../d9/de6/classexpression_tree_1_1_list_node.html#a4b1a3926b297628a686967e6ca515289" target="_top" xlink:title="expressionTree.ListNode.evaluate">
<polygon fill="white" stroke="black" points="188.5,-98.5 188.5,-117.5 365.5,-117.5 365.5,-98.5 188.5,-98.5"/>
<text text-anchor="middle" x="277" y="-105.5" font-family="Helvetica,sans-Serif" font-size="10.00">expressionTree.ListNode.evaluate</text>
</a>
</g>
</g>
<!-- Node1&#45;&gt;Node3 -->
<g id="edge2" class="edge"><title>Node1&#45;&gt;Node3</title>
<path fill="none" stroke="midnightblue" d="M151.666,-94.2546C160.819,-95.2664 170.27,-96.3113 179.684,-97.352"/>
<polygon fill="midnightblue" stroke="midnightblue" points="179.543,-100.858 189.867,-98.4778 180.313,-93.9001 179.543,-100.858"/>
</g>
<!-- Node6 -->
<g id="node6" class="node"><title>Node6</title>
<g id="a_node6"><a xlink:href="../../d1/db7/classexpression_tree_1_1_unrecognized_function.html#a53245bbff7790ba537c1c36837b787d3" target="_top" xlink:title="expressionTree.Unrecognized\lFunction.getIdentifier">
<polygon fill="white" stroke="black" points="198.5,-49 198.5,-79 355.5,-79 355.5,-49 198.5,-49"/>
<text text-anchor="start" x="206.5" y="-67" font-family="Helvetica,sans-Serif" font-size="10.00">expressionTree.Unrecognized</text>
<text text-anchor="middle" x="277" y="-56" font-family="Helvetica,sans-Serif" font-size="10.00">Function.getIdentifier</text>
</a>
</g>
</g>
<!-- Node1&#45;&gt;Node6 -->
<g id="edge5" class="edge"><title>Node1&#45;&gt;Node6</title>
<path fill="none" stroke="midnightblue" d="M151.666,-77.7454C163.557,-76.4309 175.953,-75.0605 188.114,-73.7161"/>
<polygon fill="midnightblue" stroke="midnightblue" points="188.703,-77.1724 198.258,-72.5946 187.934,-70.2147 188.703,-77.1724"/>
</g>
<!-- Node7 -->
<g id="node7" class="node"><title>Node7</title>
<g id="a_node7"><a xlink:href="../../d8/d36/classexpression_tree_1_1_user_function_map.html#a8cb80acc8ccf7338f39433c854b9dfb4" target="_top" xlink:title="expressionTree.UserFunction\lMap.getUserFunctionMap">
<polygon fill="white" stroke="black" points="200.5,-0 200.5,-30 353.5,-30 353.5,-0 200.5,-0"/>
<text text-anchor="start" x="208.5" y="-18" font-family="Helvetica,sans-Serif" font-size="10.00">expressionTree.UserFunction</text>
<text text-anchor="middle" x="277" y="-7" font-family="Helvetica,sans-Serif" font-size="10.00">Map.getUserFunctionMap</text>
</a>
</g>
</g>
<!-- Node1&#45;&gt;Node7 -->
<g id="edge6" class="edge"><title>Node1&#45;&gt;Node7</title>
<path fill="none" stroke="midnightblue" d="M110.613,-70.8744C132.425,-61.3584 161.6,-49.1855 188,-40 194.91,-37.5959 202.182,-35.2476 209.462,-33.0128"/>
<polygon fill="midnightblue" stroke="midnightblue" points="210.79,-36.2685 219.362,-30.0412 208.778,-29.564 210.79,-36.2685"/>
</g>
<!-- Node4 -->
<g id="node4" class="node"><title>Node4</title>
<g id="a_node4"><a xlink:href="../../d3/dfb/classexpression_tree_1_1_expression_tree_builder.html#aa6681548d74fc2f813e9496a163716be" target="_top" xlink:title="expressionTree.Expression\lTreeBuilder.getOutputList">
<polygon fill="white" stroke="black" points="402.5,-117 402.5,-147 545.5,-147 545.5,-117 402.5,-117"/>
<text text-anchor="start" x="410.5" y="-135" font-family="Helvetica,sans-Serif" font-size="10.00">expressionTree.Expression</text>
<text text-anchor="middle" x="474" y="-124" font-family="Helvetica,sans-Serif" font-size="10.00">TreeBuilder.getOutputList</text>
</a>
</g>
</g>
<!-- Node3&#45;&gt;Node4 -->
<g id="edge3" class="edge"><title>Node3&#45;&gt;Node4</title>
<path fill="none" stroke="midnightblue" d="M355.349,-117.52C367.478,-119.013 380.042,-120.559 392.245,-122.061"/>
<polygon fill="midnightblue" stroke="midnightblue" points="392.04,-125.562 402.393,-123.31 392.895,-118.614 392.04,-125.562"/>
</g>
<!-- Node5 -->
<g id="node5" class="node"><title>Node5</title>
<g id="a_node5"><a xlink:href="../../d3/dfb/classexpression_tree_1_1_expression_tree_builder.html#a0ceb2f5400c5050731e190f45847ff3b" target="_top" xlink:title="expressionTree.Expression\lTreeBuilder.getAllNodes">
<polygon fill="white" stroke="black" points="402.5,-68 402.5,-98 545.5,-98 545.5,-68 402.5,-68"/>
<text text-anchor="start" x="410.5" y="-86" font-family="Helvetica,sans-Serif" font-size="10.00">expressionTree.Expression</text>
<text text-anchor="middle" x="474" y="-75" font-family="Helvetica,sans-Serif" font-size="10.00">TreeBuilder.getAllNodes</text>
</a>
</g>
</g>
<!-- Node3&#45;&gt;Node5 -->
<g id="edge4" class="edge"><title>Node3&#45;&gt;Node5</title>
<path fill="none" stroke="midnightblue" d="M352.277,-98.4773C365.4,-96.7949 379.118,-95.0361 392.405,-93.3327"/>
<polygon fill="midnightblue" stroke="midnightblue" points="392.99,-96.7864 402.464,-92.0431 392.1,-89.8432 392.99,-96.7864"/>
</g>
</g>
</svg>
