<?xml version="1.0" encoding="UTF-8" standalone="no"?>
<!DOCTYPE svg PUBLIC "-//W3C//DTD SVG 1.1//EN"
 "http://www.w3.org/Graphics/SVG/1.1/DTD/svg11.dtd">
<!-- Generated by graphviz version 2.36.0 (20140111.2315)
 -->
<!-- Title: frontend.ConcreteFeatures.LoadSLogoFile Pages: 1 -->
<svg width="992pt" height="202pt"
 viewBox="0.00 0.00 992.00 202.00" xmlns="http://www.w3.org/2000/svg" xmlns:xlink="http://www.w3.org/1999/xlink">
<g id="graph0" class="graph" transform="scale(1 1) rotate(0) translate(4 198)">
<title>frontend.ConcreteFeatures.LoadSLogoFile</title>
<polygon fill="white" stroke="none" points="-4,4 -4,-198 988,-198 988,4 -4,4"/>
<!-- Node1 -->
<g id="node1" class="node"><title>Node1</title>
<polygon fill="#bfbfbf" stroke="black" points="836,-92 836,-122 984,-122 984,-92 836,-92"/>
<text text-anchor="start" x="844" y="-110" font-family="Helvetica,sans-Serif" font-size="10.00">frontend.ConcreteFeatures.</text>
<text text-anchor="middle" x="910" y="-99" font-family="Helvetica,sans-Serif" font-size="10.00">LoadSLogoFile</text>
</g>
<!-- Node2 -->
<g id="node2" class="node"><title>Node2</title>
<g id="a_node2"><a xlink:href="../../d1/d84/classfrontend_1_1_abstract_features_1_1_s_logo_button.html" target="_top" xlink:title="frontend.AbstractFeatures.\lSLogoButton">
<polygon fill="white" stroke="black" points="572.5,-160 572.5,-190 717.5,-190 717.5,-160 572.5,-160"/>
<text text-anchor="start" x="580.5" y="-178" font-family="Helvetica,sans-Serif" font-size="10.00">frontend.AbstractFeatures.</text>
<text text-anchor="middle" x="645" y="-167" font-family="Helvetica,sans-Serif" font-size="10.00">SLogoButton</text>
</a>
</g>
</g>
<!-- Node2&#45;&gt;Node1 -->
<g id="edge1" class="edge"><title>Node2&#45;&gt;Node1</title>
<path fill="none" stroke="midnightblue" d="M725.858,-157.652C754.972,-151.005 788.08,-143.072 818,-135 832.523,-131.082 848.219,-126.412 862.42,-122.019"/>
<polygon fill="midnightblue" stroke="midnightblue" points="724.716,-154.322 715.738,-159.947 726.265,-161.148 724.716,-154.322"/>
</g>
<!-- Node3 -->
<g id="node3" class="node"><title>Node3</title>
<g id="a_node3"><a xlink:href="../../dc/db4/classfrontend_1_1_abstract_features_1_1_g_u_i_feature.html" target="_top" xlink:title="frontend.AbstractFeatures.\lGUIFeature">
<polygon fill="white" stroke="black" points="284.5,-164 284.5,-194 429.5,-194 429.5,-164 284.5,-164"/>
<text text-anchor="start" x="292.5" y="-182" font-family="Helvetica,sans-Serif" font-size="10.00">frontend.AbstractFeatures.</text>
<text text-anchor="middle" x="357" y="-171" font-family="Helvetica,sans-Serif" font-size="10.00">GUIFeature</text>
</a>
</g>
</g>
<!-- Node3&#45;&gt;Node2 -->
<g id="edge2" class="edge"><title>Node3&#45;&gt;Node2</title>
<path fill="none" stroke="midnightblue" d="M439.94,-177.854C481.679,-177.27 531.962,-176.567 572.17,-176.005"/>
<polygon fill="midnightblue" stroke="midnightblue" points="439.751,-174.356 429.801,-177.996 439.849,-181.356 439.751,-174.356"/>
</g>
<!-- Node4 -->
<g id="node4" class="node"><title>Node4</title>
<g id="a_node4"><a xlink:href="../../df/d0e/classfrontend_1_1_pane_updater.html" target="_top" xlink:title="frontend.PaneUpdater">
<polygon fill="white" stroke="black" points="584,-117.5 584,-136.5 706,-136.5 706,-117.5 584,-117.5"/>
<text text-anchor="middle" x="645" y="-124.5" font-family="Helvetica,sans-Serif" font-size="10.00">frontend.PaneUpdater</text>
</a>
</g>
</g>
<!-- Node4&#45;&gt;Node1 -->
<g id="edge3" class="edge"><title>Node4&#45;&gt;Node1</title>
<path fill="none" stroke="#9a32cd" stroke-dasharray="5,2" d="M716.183,-121.663C753.085,-118.857 798.287,-115.419 835.648,-112.578"/>
<polygon fill="#9a32cd" stroke="#9a32cd" points="715.714,-118.188 706.008,-122.437 716.244,-125.168 715.714,-118.188"/>
<text text-anchor="middle" x="777" y="-123" font-family="Helvetica,sans-Serif" font-size="10.00"> myPaneUpdater</text>
</g>
<!-- Node5 -->
<g id="node5" class="node"><title>Node5</title>
<polygon fill="white" stroke="#bfbfbf" points="270.5,-115 270.5,-145 443.5,-145 443.5,-115 270.5,-115"/>
<text text-anchor="start" x="278.5" y="-133" font-family="Helvetica,sans-Serif" font-size="10.00">List&lt; frontend.AbstractFeatures.</text>
<text text-anchor="middle" x="357" y="-122" font-family="Helvetica,sans-Serif" font-size="10.00">SLogoScrollPane &gt;</text>
</g>
<!-- Node5&#45;&gt;Node4 -->
<g id="edge4" class="edge"><title>Node5&#45;&gt;Node4</title>
<path fill="none" stroke="#9a32cd" stroke-dasharray="5,2" d="M453.988,-128.993C496.858,-128.543 546.07,-128.027 583.669,-127.633"/>
<polygon fill="#9a32cd" stroke="#9a32cd" points="453.772,-125.495 443.809,-129.1 453.846,-132.495 453.772,-125.495"/>
<text text-anchor="middle" x="508" y="-132" font-family="Helvetica,sans-Serif" font-size="10.00"> myUpdateables</text>
</g>
<!-- Node6 -->
<g id="node6" class="node"><title>Node6</title>
<g id="a_node6"><a xlink:href="../../d3/d17/classturtle_classes_1_1_turtle_mover.html" target="_top" xlink:title="turtleClasses.TurtleMover">
<polygon fill="white" stroke="black" points="576.5,-78.5 576.5,-97.5 713.5,-97.5 713.5,-78.5 576.5,-78.5"/>
<text text-anchor="middle" x="645" y="-85.5" font-family="Helvetica,sans-Serif" font-size="10.00">turtleClasses.TurtleMover</text>
</a>
</g>
</g>
<!-- Node6&#45;&gt;Node1 -->
<g id="edge5" class="edge"><title>Node6&#45;&gt;Node1</title>
<path fill="none" stroke="#9a32cd" stroke-dasharray="5,2" d="M723.778,-87.5029C753.333,-87.9187 787.274,-89.1246 818,-92 823.739,-92.5371 829.664,-93.2197 835.608,-93.9964"/>
<polygon fill="#9a32cd" stroke="#9a32cd" points="723.558,-84.0003 713.519,-87.3874 723.479,-90.9999 723.558,-84.0003"/>
<text text-anchor="middle" x="777" y="-95" font-family="Helvetica,sans-Serif" font-size="10.00"> myMover</text>
</g>
<!-- Node7 -->
<g id="node7" class="node"><title>Node7</title>
<g id="a_node7"><a xlink:href="../../d4/d7e/classturtle_classes_1_1_turtle_collection.html" target="_top" xlink:title="turtleClasses.TurtleCollection">
<polygon fill="white" stroke="black" points="280,-76.5 280,-95.5 434,-95.5 434,-76.5 280,-76.5"/>
<text text-anchor="middle" x="357" y="-83.5" font-family="Helvetica,sans-Serif" font-size="10.00">turtleClasses.TurtleCollection</text>
</a>
</g>
</g>
<!-- Node7&#45;&gt;Node6 -->
<g id="edge6" class="edge"><title>Node7&#45;&gt;Node6</title>
<path fill="none" stroke="#9a32cd" stroke-dasharray="5,2" d="M444.276,-86.6033C486.565,-86.8991 536.752,-87.25 576.238,-87.5261"/>
<polygon fill="#9a32cd" stroke="#9a32cd" points="444.291,-83.1034 434.267,-86.5333 444.242,-90.1033 444.291,-83.1034"/>
<text text-anchor="middle" x="508" y="-91" font-family="Helvetica,sans-Serif" font-size="10.00"> myTurtleCollection</text>
</g>
<!-- Node8 -->
<g id="node8" class="node"><title>Node8</title>
<polygon fill="white" stroke="#bfbfbf" points="26.5,-142.5 26.5,-161.5 127.5,-161.5 127.5,-142.5 26.5,-142.5"/>
<text text-anchor="middle" x="77" y="-149.5" font-family="Helvetica,sans-Serif" font-size="10.00">Iterable&lt; Turtle &gt;</text>
</g>
<!-- Node8&#45;&gt;Node7 -->
<g id="edge7" class="edge"><title>Node8&#45;&gt;Node7</title>
<path fill="none" stroke="midnightblue" d="M137.999,-144.797C172.233,-139.415 215.47,-130.433 252,-116 260.72,-112.555 261.304,-108.504 270,-105 279.502,-101.172 289.922,-98.0456 300.127,-95.5167"/>
<polygon fill="midnightblue" stroke="midnightblue" points="137.047,-141.401 127.681,-146.354 138.091,-148.323 137.047,-141.401"/>
</g>
<!-- Node9 -->
<g id="node9" class="node"><title>Node9</title>
<polygon fill="white" stroke="#bfbfbf" points="0.5,-93 0.5,-123 153.5,-123 153.5,-93 0.5,-93"/>
<text text-anchor="start" x="8.5" y="-111" font-family="Helvetica,sans-Serif" font-size="10.00">Map&lt; Integer, turtleClasses.</text>
<text text-anchor="middle" x="77" y="-100" font-family="Helvetica,sans-Serif" font-size="10.00">Turtle &gt;</text>
</g>
<!-- Node9&#45;&gt;Node7 -->
<g id="edge8" class="edge"><title>Node9&#45;&gt;Node7</title>
<path fill="none" stroke="#9a32cd" stroke-dasharray="5,2" d="M163.891,-101.203C200.983,-98.2676 244.013,-94.8623 279.935,-92.0195"/>
<polygon fill="#9a32cd" stroke="#9a32cd" points="163.29,-97.7394 153.598,-102.017 163.842,-104.718 163.29,-97.7394"/>
<text text-anchor="middle" x="212" y="-104" font-family="Helvetica,sans-Serif" font-size="10.00"> myTurtles</text>
</g>
<!-- Node10 -->
<g id="node10" class="node"><title>Node10</title>
<polygon fill="white" stroke="#bfbfbf" points="4,-54.5 4,-73.5 150,-73.5 150,-54.5 4,-54.5"/>
<text text-anchor="middle" x="77" y="-61.5" font-family="Helvetica,sans-Serif" font-size="10.00">List&lt; turtleClasses.Turtle &gt;</text>
</g>
<!-- Node10&#45;&gt;Node7 -->
<g id="edge9" class="edge"><title>Node10&#45;&gt;Node7</title>
<path fill="none" stroke="#9a32cd" stroke-dasharray="5,2" d="M160.76,-70.5493C198.454,-73.5324 242.787,-77.0407 279.672,-79.9596"/>
<polygon fill="#9a32cd" stroke="#9a32cd" points="160.56,-67.0227 150.316,-69.7228 160.008,-74.0009 160.56,-67.0227"/>
<text text-anchor="middle" x="212" y="-81" font-family="Helvetica,sans-Serif" font-size="10.00"> myActiveTurtles</text>
</g>
<!-- Node11 -->
<g id="node11" class="node"><title>Node11</title>
<polygon fill="white" stroke="#bfbfbf" points="51,-16.5 51,-35.5 103,-35.5 103,-16.5 51,-16.5"/>
<text text-anchor="middle" x="77" y="-23.5" font-family="Helvetica,sans-Serif" font-size="10.00">Canvas</text>
</g>
<!-- Node11&#45;&gt;Node7 -->
<g id="edge10" class="edge"><title>Node11&#45;&gt;Node7</title>
<path fill="none" stroke="#9a32cd" stroke-dasharray="5,2" d="M113.11,-28.8241C148.886,-32.4881 205.558,-40.4827 252,-57 260.623,-60.0667 261.442,-63.7567 270,-67 280.009,-70.7932 290.974,-73.9327 301.624,-76.4922"/>
<polygon fill="#9a32cd" stroke="#9a32cd" points="113.447,-25.3404 103.156,-27.8615 112.773,-32.3079 113.447,-25.3404"/>
<text text-anchor="middle" x="212" y="-60" font-family="Helvetica,sans-Serif" font-size="10.00"> myCanvas</text>
</g>
<!-- Node12 -->
<g id="node12" class="node"><title>Node12</title>
<g id="a_node12"><a xlink:href="../../d4/dbc/classfrontend_1_1_translator.html" target="_top" xlink:title="frontend.Translator">
<polygon fill="white" stroke="black" points="591.5,-38.5 591.5,-57.5 698.5,-57.5 698.5,-38.5 591.5,-38.5"/>
<text text-anchor="middle" x="645" y="-45.5" font-family="Helvetica,sans-Serif" font-size="10.00">frontend.Translator</text>
</a>
</g>
</g>
<!-- Node12&#45;&gt;Node1 -->
<g id="edge11" class="edge"><title>Node12&#45;&gt;Node1</title>
<path fill="none" stroke="#9a32cd" stroke-dasharray="5,2" d="M708.453,-53.8313C741.375,-57.7176 782.239,-63.8325 818,-73 836.951,-77.8582 857.412,-85.2946 874.123,-91.9752"/>
<polygon fill="#9a32cd" stroke="#9a32cd" points="708.838,-50.3526 698.506,-52.6959 708.044,-57.3074 708.838,-50.3526"/>
<text text-anchor="middle" x="777" y="-76" font-family="Helvetica,sans-Serif" font-size="10.00"> myTranslator</text>
</g>
<!-- Node13 -->
<g id="node13" class="node"><title>Node13</title>
<polygon fill="white" stroke="#bfbfbf" points="310.5,-38.5 310.5,-57.5 403.5,-57.5 403.5,-38.5 310.5,-38.5"/>
<text text-anchor="middle" x="357" y="-45.5" font-family="Helvetica,sans-Serif" font-size="10.00">ResourceBundle</text>
</g>
<!-- Node13&#45;&gt;Node12 -->
<g id="edge12" class="edge"><title>Node13&#45;&gt;Node12</title>
<path fill="none" stroke="#9a32cd" stroke-dasharray="5,2" d="M413.891,-48C465.269,-48 540.883,-48 591.244,-48"/>
<polygon fill="#9a32cd" stroke="#9a32cd" points="413.634,-44.5001 403.634,-48 413.634,-51.5001 413.634,-44.5001"/>
<text text-anchor="middle" x="508" y="-51" font-family="Helvetica,sans-Serif" font-size="10.00"> myLanguage</text>
</g>
<!-- Node14 -->
<g id="node14" class="node"><title>Node14</title>
<polygon fill="white" stroke="#bfbfbf" points="296,-0.5 296,-19.5 418,-19.5 418,-0.5 296,-0.5"/>
<text text-anchor="middle" x="357" y="-7.5" font-family="Helvetica,sans-Serif" font-size="10.00">Map&lt; String, String &gt;</text>
</g>
<!-- Node14&#45;&gt;Node12 -->
<g id="edge13" class="edge"><title>Node14&#45;&gt;Node12</title>
<path fill="none" stroke="#9a32cd" stroke-dasharray="5,2" d="M428.426,-17.431C465.793,-21.5841 512.452,-27.1034 554,-33 566.076,-34.7139 579.03,-36.7538 591.241,-38.7686"/>
<polygon fill="#9a32cd" stroke="#9a32cd" points="428.468,-13.9146 418.145,-16.2967 427.7,-20.8723 428.468,-13.9146"/>
<text text-anchor="middle" x="508" y="-36" font-family="Helvetica,sans-Serif" font-size="10.00"> myDictionary</text>
</g>
</g>
</svg>
