<?xml version="1.0" encoding="UTF-8" standalone="no"?>
<!DOCTYPE svg PUBLIC "-//W3C//DTD SVG 1.1//EN"
 "http://www.w3.org/Graphics/SVG/1.1/DTD/svg11.dtd">
<!-- Generated by graphviz version 2.36.0 (20140111.2315)
 -->
<!-- Title: expressionTree.ExpressionTreeBuilder.getAllNodes Pages: 1 -->
<svg width="554pt" height="38pt"
 viewBox="0.00 0.00 554.00 38.00" xmlns="http://www.w3.org/2000/svg" xmlns:xlink="http://www.w3.org/1999/xlink">
<g id="graph0" class="graph" transform="scale(1 1) rotate(0) translate(4 34)">
<title>expressionTree.ExpressionTreeBuilder.getAllNodes</title>
<polygon fill="white" stroke="none" points="-4,4 -4,-34 550,-34 550,4 -4,4"/>
<!-- Node1 -->
<g id="node1" class="node"><title>Node1</title>
<polygon fill="#bfbfbf" stroke="black" points="0.5,-0 0.5,-30 143.5,-30 143.5,-0 0.5,-0"/>
<text text-anchor="start" x="8.5" y="-18" font-family="Helvetica,sans-Serif" font-size="10.00">expressionTree.Expression</text>
<text text-anchor="middle" x="72" y="-7" font-family="Helvetica,sans-Serif" font-size="10.00">TreeBuilder.getAllNodes</text>
</g>
<!-- Node2 -->
<g id="node2" class="node"><title>Node2</title>
<g id="a_node2"><a xlink:href="../../d9/de6/classexpression_tree_1_1_list_node.html#a4b1a3926b297628a686967e6ca515289" target="_top" xlink:title="expressionTree.ListNode.evaluate">
<polygon fill="white" stroke="black" points="180.5,-5.5 180.5,-24.5 357.5,-24.5 357.5,-5.5 180.5,-5.5"/>
<text text-anchor="middle" x="269" y="-12.5" font-family="Helvetica,sans-Serif" font-size="10.00">expressionTree.ListNode.evaluate</text>
</a>
</g>
</g>
<!-- Node1&#45;&gt;Node2 -->
<g id="edge1" class="edge"><title>Node1&#45;&gt;Node2</title>
<path fill="none" stroke="midnightblue" d="M153.819,-15C162.546,-15 171.457,-15 180.262,-15"/>
<polygon fill="midnightblue" stroke="midnightblue" points="153.675,-11.5001 143.675,-15 153.675,-18.5001 153.675,-11.5001"/>
</g>
<!-- Node3 -->
<g id="node3" class="node"><title>Node3</title>
<g id="a_node3"><a xlink:href="../../da/d37/classcontrol_structures_1_1_make_user_instruction.html#a387ccf786006ecbd9db98104be98c56c" target="_top" xlink:title="controlStructures.MakeUser\lInstruction.evaluate">
<polygon fill="white" stroke="black" points="394.5,-0 394.5,-30 545.5,-30 545.5,-0 394.5,-0"/>
<text text-anchor="start" x="402.5" y="-18" font-family="Helvetica,sans-Serif" font-size="10.00">controlStructures.MakeUser</text>
<text text-anchor="middle" x="470" y="-7" font-family="Helvetica,sans-Serif" font-size="10.00">Instruction.evaluate</text>
</a>
</g>
</g>
<!-- Node2&#45;&gt;Node3 -->
<g id="edge2" class="edge"><title>Node2&#45;&gt;Node3</title>
<path fill="none" stroke="midnightblue" d="M367.707,-15C376.704,-15 385.72,-15 394.461,-15"/>
<polygon fill="midnightblue" stroke="midnightblue" points="367.574,-11.5001 357.574,-15 367.574,-18.5001 367.574,-11.5001"/>
</g>
</g>
</svg>
