<?xml version="1.0" encoding="UTF-8" standalone="no"?>
<!DOCTYPE svg PUBLIC "-//W3C//DTD SVG 1.1//EN"
 "http://www.w3.org/Graphics/SVG/1.1/DTD/svg11.dtd">
<!-- Generated by graphviz version 2.36.0 (20140111.2315)
 -->
<!-- Title: expressionTree.ExpressionTreeBuilder.getTree Pages: 1 -->
<svg width="512pt" height="136pt"
 viewBox="0.00 0.00 512.00 136.00" xmlns="http://www.w3.org/2000/svg" xmlns:xlink="http://www.w3.org/1999/xlink">
<g id="graph0" class="graph" transform="scale(1 1) rotate(0) translate(4 132)">
<title>expressionTree.ExpressionTreeBuilder.getTree</title>
<polygon fill="white" stroke="none" points="-4,4 -4,-132 508,-132 508,4 -4,4"/>
<!-- Node1 -->
<g id="node1" class="node"><title>Node1</title>
<polygon fill="#bfbfbf" stroke="black" points="0.5,-73 0.5,-103 143.5,-103 143.5,-73 0.5,-73"/>
<text text-anchor="start" x="8.5" y="-91" font-family="Helvetica,sans-Serif" font-size="10.00">expressionTree.Expression</text>
<text text-anchor="middle" x="72" y="-80" font-family="Helvetica,sans-Serif" font-size="10.00">TreeBuilder.getTree</text>
</g>
<!-- Node2 -->
<g id="node2" class="node"><title>Node2</title>
<g id="a_node2"><a xlink:href="../../db/da5/classexpression_tree_1_1_expression_node.html#a189034630678dbe1dbb8805adbda2a96" target="_top" xlink:title="expressionTree.Expression\lNode.evaluate">
<polygon fill="white" stroke="black" points="180.5,-98 180.5,-128 323.5,-128 323.5,-98 180.5,-98"/>
<text text-anchor="start" x="188.5" y="-116" font-family="Helvetica,sans-Serif" font-size="10.00">expressionTree.Expression</text>
<text text-anchor="middle" x="252" y="-105" font-family="Helvetica,sans-Serif" font-size="10.00">Node.evaluate</text>
</a>
</g>
</g>
<!-- Node1&#45;&gt;Node2 -->
<g id="edge1" class="edge"><title>Node1&#45;&gt;Node2</title>
<path fill="none" stroke="midnightblue" d="M143.606,-97.9166C152.421,-99.1547 161.488,-100.428 170.441,-101.685"/>
<polygon fill="midnightblue" stroke="midnightblue" points="170.09,-105.17 180.479,-103.095 171.063,-98.2385 170.09,-105.17"/>
</g>
<!-- Node3 -->
<g id="node3" class="node"><title>Node3</title>
<g id="a_node3"><a xlink:href="../../db/da5/classexpression_tree_1_1_expression_node.html#abeb93d13a54bef927167b01aabcec922" target="_top" xlink:title="expressionTree.Expression\lNode.setChildren">
<polygon fill="white" stroke="black" points="180.5,-49 180.5,-79 323.5,-79 323.5,-49 180.5,-49"/>
<text text-anchor="start" x="188.5" y="-67" font-family="Helvetica,sans-Serif" font-size="10.00">expressionTree.Expression</text>
<text text-anchor="middle" x="252" y="-56" font-family="Helvetica,sans-Serif" font-size="10.00">Node.setChildren</text>
</a>
</g>
</g>
<!-- Node1&#45;&gt;Node3 -->
<g id="edge2" class="edge"><title>Node1&#45;&gt;Node3</title>
<path fill="none" stroke="midnightblue" d="M143.606,-78.4801C152.421,-77.2915 161.488,-76.069 170.441,-74.8619"/>
<polygon fill="midnightblue" stroke="midnightblue" points="171.037,-78.3133 180.479,-73.5084 170.101,-71.3761 171.037,-78.3133"/>
</g>
<!-- Node4 -->
<g id="node4" class="node"><title>Node4</title>
<g id="a_node4"><a xlink:href="../../db/da5/classexpression_tree_1_1_expression_node.html#aee1e0e9f9ef99059439c9ffd5e08bed6" target="_top" xlink:title="expressionTree.Expression\lNode.getNumChildren">
<polygon fill="white" stroke="black" points="360.5,-98 360.5,-128 503.5,-128 503.5,-98 360.5,-98"/>
<text text-anchor="start" x="368.5" y="-116" font-family="Helvetica,sans-Serif" font-size="10.00">expressionTree.Expression</text>
<text text-anchor="middle" x="432" y="-105" font-family="Helvetica,sans-Serif" font-size="10.00">Node.getNumChildren</text>
</a>
</g>
</g>
<!-- Node3&#45;&gt;Node4 -->
<g id="edge3" class="edge"><title>Node3&#45;&gt;Node4</title>
<path fill="none" stroke="midnightblue" d="M307.858,-79.1014C326.386,-84.2019 347.242,-89.9429 366.45,-95.2305"/>
<polygon fill="midnightblue" stroke="midnightblue" points="365.753,-98.6687 376.323,-97.9484 367.61,-91.9198 365.753,-98.6687"/>
</g>
<!-- Node5 -->
<g id="node5" class="node"><title>Node5</title>
<g id="a_node5"><a xlink:href="../../db/da5/classexpression_tree_1_1_expression_node.html#a2fa33101014b85248cd335238da0b74a" target="_top" xlink:title="expressionTree.Expression\lNode.setLeft">
<polygon fill="white" stroke="black" points="360.5,-49 360.5,-79 503.5,-79 503.5,-49 360.5,-49"/>
<text text-anchor="start" x="368.5" y="-67" font-family="Helvetica,sans-Serif" font-size="10.00">expressionTree.Expression</text>
<text text-anchor="middle" x="432" y="-56" font-family="Helvetica,sans-Serif" font-size="10.00">Node.setLeft</text>
</a>
</g>
</g>
<!-- Node3&#45;&gt;Node5 -->
<g id="edge4" class="edge"><title>Node3&#45;&gt;Node5</title>
<path fill="none" stroke="midnightblue" d="M323.606,-64C332.421,-64 341.488,-64 350.441,-64"/>
<polygon fill="midnightblue" stroke="midnightblue" points="350.479,-67.5001 360.479,-64 350.479,-60.5001 350.479,-67.5001"/>
</g>
<!-- Node6 -->
<g id="node6" class="node"><title>Node6</title>
<g id="a_node6"><a xlink:href="../../db/da5/classexpression_tree_1_1_expression_node.html#a25229591e36f2ce78394dff938a3ef54" target="_top" xlink:title="expressionTree.Expression\lNode.setRight">
<polygon fill="white" stroke="black" points="360.5,-0 360.5,-30 503.5,-30 503.5,-0 360.5,-0"/>
<text text-anchor="start" x="368.5" y="-18" font-family="Helvetica,sans-Serif" font-size="10.00">expressionTree.Expression</text>
<text text-anchor="middle" x="432" y="-7" font-family="Helvetica,sans-Serif" font-size="10.00">Node.setRight</text>
</a>
</g>
</g>
<!-- Node3&#45;&gt;Node6 -->
<g id="edge5" class="edge"><title>Node3&#45;&gt;Node6</title>
<path fill="none" stroke="midnightblue" d="M307.858,-48.8986C326.386,-43.7981 347.242,-38.0571 366.45,-32.7695"/>
<polygon fill="midnightblue" stroke="midnightblue" points="367.61,-36.0802 376.323,-30.0516 365.753,-29.3313 367.61,-36.0802"/>
</g>
</g>
</svg>
