<?xml version="1.0" encoding="UTF-8" standalone="no"?>
<!DOCTYPE svg PUBLIC "-//W3C//DTD SVG 1.1//EN"
 "http://www.w3.org/Graphics/SVG/1.1/DTD/svg11.dtd">
<!-- Generated by graphviz version 2.36.0 (20140111.2315)
 -->
<!-- Title: expressionTree.ExpressionTreeBuilder.ExpressionTreeBuilder Pages: 1 -->
<svg width="1176pt" height="307pt"
 viewBox="0.00 0.00 1176.00 307.00" xmlns="http://www.w3.org/2000/svg" xmlns:xlink="http://www.w3.org/1999/xlink">
<g id="graph0" class="graph" transform="scale(1 1) rotate(0) translate(4 303)">
<title>expressionTree.ExpressionTreeBuilder.ExpressionTreeBuilder</title>
<polygon fill="white" stroke="none" points="-4,4 -4,-303 1172,-303 1172,4 -4,4"/>
<!-- Node1 -->
<g id="node1" class="node"><title>Node1</title>
<polygon fill="#bfbfbf" stroke="black" points="0,-134 0,-164 176,-164 176,-134 0,-134"/>
<text text-anchor="start" x="8" y="-152" font-family="Helvetica,sans-Serif" font-size="10.00">expressionTree.Expression</text>
<text text-anchor="middle" x="88" y="-141" font-family="Helvetica,sans-Serif" font-size="10.00">TreeBuilder.ExpressionTreeBuilder</text>
</g>
<!-- Node2 -->
<g id="node2" class="node"><title>Node2</title>
<g id="a_node2"><a xlink:href="../../d9/d55/classexpression_tree_1_1_expression_node_factory.html#ac3b2de675f1754dfd61694de51553631" target="_top" xlink:title="expressionTree.Expression\lNodeFactory.getAllNodes">
<polygon fill="white" stroke="black" points="212.5,-171 212.5,-201 355.5,-201 355.5,-171 212.5,-171"/>
<text text-anchor="start" x="220.5" y="-189" font-family="Helvetica,sans-Serif" font-size="10.00">expressionTree.Expression</text>
<text text-anchor="middle" x="284" y="-178" font-family="Helvetica,sans-Serif" font-size="10.00">NodeFactory.getAllNodes</text>
</a>
</g>
</g>
<!-- Node1&#45;&gt;Node2 -->
<g id="edge1" class="edge"><title>Node1&#45;&gt;Node2</title>
<path fill="none" stroke="midnightblue" d="M167.907,-164.049C179.266,-166.216 190.968,-168.448 202.36,-170.62"/>
<polygon fill="midnightblue" stroke="midnightblue" points="201.797,-174.076 212.275,-172.511 203.108,-167.2 201.797,-174.076"/>
</g>
<!-- Node13 -->
<g id="node13" class="node"><title>Node13</title>
<g id="a_node13"><a xlink:href="../../d3/dfb/classexpression_tree_1_1_expression_tree_builder.html#ad720a1e94a9d9256422a4492358c5dba" target="_top" xlink:title="expressionTree.Expression\lTreeBuilder.getTree">
<polygon fill="white" stroke="black" points="212.5,-73 212.5,-103 355.5,-103 355.5,-73 212.5,-73"/>
<text text-anchor="start" x="220.5" y="-91" font-family="Helvetica,sans-Serif" font-size="10.00">expressionTree.Expression</text>
<text text-anchor="middle" x="284" y="-80" font-family="Helvetica,sans-Serif" font-size="10.00">TreeBuilder.getTree</text>
</a>
</g>
</g>
<!-- Node1&#45;&gt;Node13 -->
<g id="edge12" class="edge"><title>Node1&#45;&gt;Node13</title>
<path fill="none" stroke="midnightblue" d="M136.955,-133.921C163.754,-125.495 197.331,-114.937 225.53,-106.07"/>
<polygon fill="midnightblue" stroke="midnightblue" points="226.771,-109.349 235.261,-103.011 224.671,-102.672 226.771,-109.349"/>
</g>
<!-- Node3 -->
<g id="node3" class="node"><title>Node3</title>
<g id="a_node3"><a xlink:href="../../d9/de6/classexpression_tree_1_1_list_node.html#a2370fd631bd484e0178fc759df927b46" target="_top" xlink:title="expressionTree.ListNode.add">
<polygon fill="white" stroke="black" points="392,-220.5 392,-239.5 546,-239.5 546,-220.5 392,-220.5"/>
<text text-anchor="middle" x="469" y="-227.5" font-family="Helvetica,sans-Serif" font-size="10.00">expressionTree.ListNode.add</text>
</a>
</g>
</g>
<!-- Node2&#45;&gt;Node3 -->
<g id="edge2" class="edge"><title>Node2&#45;&gt;Node3</title>
<path fill="none" stroke="midnightblue" d="M347.466,-201.019C370.722,-206.611 396.769,-212.874 418.684,-218.143"/>
<polygon fill="midnightblue" stroke="midnightblue" points="417.896,-221.553 428.437,-220.488 419.532,-214.747 417.896,-221.553"/>
</g>
<!-- Node4 -->
<g id="node4" class="node"><title>Node4</title>
<g id="a_node4"><a xlink:href="../../d9/d55/classexpression_tree_1_1_expression_node_factory.html#a73b0e0bd339ff858fcb0c2daf891cc59" target="_top" xlink:title="expressionTree.Expression\lNodeFactory.getNode">
<polygon fill="white" stroke="black" points="397.5,-171 397.5,-201 540.5,-201 540.5,-171 397.5,-171"/>
<text text-anchor="start" x="405.5" y="-189" font-family="Helvetica,sans-Serif" font-size="10.00">expressionTree.Expression</text>
<text text-anchor="middle" x="469" y="-178" font-family="Helvetica,sans-Serif" font-size="10.00">NodeFactory.getNode</text>
</a>
</g>
</g>
<!-- Node2&#45;&gt;Node4 -->
<g id="edge3" class="edge"><title>Node2&#45;&gt;Node4</title>
<path fill="none" stroke="midnightblue" d="M355.753,-186C366.118,-186 376.859,-186 387.404,-186"/>
<polygon fill="midnightblue" stroke="midnightblue" points="387.436,-189.5 397.436,-186 387.436,-182.5 387.436,-189.5"/>
</g>
<!-- Node5 -->
<g id="node5" class="node"><title>Node5</title>
<g id="a_node5"><a xlink:href="../../d9/d55/classexpression_tree_1_1_expression_node_factory.html#ae3e414f8f49e18daa55822e37ea3bb54" target="_top" xlink:title="expressionTree.Expression\lNodeFactory.commandHandler">
<polygon fill="white" stroke="black" points="582,-245 582,-275 746,-275 746,-245 582,-245"/>
<text text-anchor="start" x="590" y="-263" font-family="Helvetica,sans-Serif" font-size="10.00">expressionTree.Expression</text>
<text text-anchor="middle" x="664" y="-252" font-family="Helvetica,sans-Serif" font-size="10.00">NodeFactory.commandHandler</text>
</a>
</g>
</g>
<!-- Node4&#45;&gt;Node5 -->
<g id="edge4" class="edge"><title>Node4&#45;&gt;Node5</title>
<path fill="none" stroke="midnightblue" d="M522.254,-201.111C530.35,-204.043 538.506,-207.353 546,-211 563.291,-219.414 564.632,-226.745 582,-235 586.901,-237.33 592.072,-239.507 597.331,-241.527"/>
<polygon fill="midnightblue" stroke="midnightblue" points="596.262,-244.863 606.856,-244.993 598.656,-238.285 596.262,-244.863"/>
</g>
<!-- Node9 -->
<g id="node9" class="node"><title>Node9</title>
<g id="a_node9"><a xlink:href="../../db/da5/classexpression_tree_1_1_expression_node.html#af54cab1e99fb9ffaa4c0a45dab10c8eb" target="_top" xlink:title="expressionTree.Expression\lNode.setValue">
<polygon fill="white" stroke="black" points="592.5,-196 592.5,-226 735.5,-226 735.5,-196 592.5,-196"/>
<text text-anchor="start" x="600.5" y="-214" font-family="Helvetica,sans-Serif" font-size="10.00">expressionTree.Expression</text>
<text text-anchor="middle" x="664" y="-203" font-family="Helvetica,sans-Serif" font-size="10.00">Node.setValue</text>
</a>
</g>
</g>
<!-- Node4&#45;&gt;Node9 -->
<g id="edge8" class="edge"><title>Node4&#45;&gt;Node9</title>
<path fill="none" stroke="midnightblue" d="M540.77,-195.167C554.275,-196.916 568.505,-198.76 582.293,-200.546"/>
<polygon fill="midnightblue" stroke="midnightblue" points="581.872,-204.02 592.238,-201.834 582.771,-197.078 581.872,-204.02"/>
</g>
<!-- Node10 -->
<g id="node10" class="node"><title>Node10</title>
<g id="a_node10"><a xlink:href="../../d9/d55/classexpression_tree_1_1_expression_node_factory.html#a86a92afa63db312f07027af114f3d663" target="_top" xlink:title="expressionTree.Expression\lNodeFactory.variableHandler">
<polygon fill="white" stroke="black" points="587.5,-147 587.5,-177 740.5,-177 740.5,-147 587.5,-147"/>
<text text-anchor="start" x="595.5" y="-165" font-family="Helvetica,sans-Serif" font-size="10.00">expressionTree.Expression</text>
<text text-anchor="middle" x="664" y="-154" font-family="Helvetica,sans-Serif" font-size="10.00">NodeFactory.variableHandler</text>
</a>
</g>
</g>
<!-- Node4&#45;&gt;Node10 -->
<g id="edge9" class="edge"><title>Node4&#45;&gt;Node10</title>
<path fill="none" stroke="midnightblue" d="M540.77,-177.2C552.621,-175.726 565.03,-174.183 577.209,-172.668"/>
<polygon fill="midnightblue" stroke="midnightblue" points="577.877,-176.112 587.368,-171.405 577.013,-169.166 577.877,-176.112"/>
</g>
<!-- Node6 -->
<g id="node6" class="node"><title>Node6</title>
<g id="a_node6"><a xlink:href="../../d9/d55/classexpression_tree_1_1_expression_node_factory.html#a0d40846816e28787c5fbf6d6ef21a534" target="_top" xlink:title="expressionTree.Expression\lNodeFactory.unrecognizedCommand\lHandler">
<polygon fill="white" stroke="black" points="782.5,-239.5 782.5,-280.5 975.5,-280.5 975.5,-239.5 782.5,-239.5"/>
<text text-anchor="start" x="790.5" y="-268.5" font-family="Helvetica,sans-Serif" font-size="10.00">expressionTree.Expression</text>
<text text-anchor="start" x="790.5" y="-257.5" font-family="Helvetica,sans-Serif" font-size="10.00">NodeFactory.unrecognizedCommand</text>
<text text-anchor="middle" x="879" y="-246.5" font-family="Helvetica,sans-Serif" font-size="10.00">Handler</text>
</a>
</g>
</g>
<!-- Node5&#45;&gt;Node6 -->
<g id="edge5" class="edge"><title>Node5&#45;&gt;Node6</title>
<path fill="none" stroke="midnightblue" d="M746.134,-260C754.668,-260 763.434,-260 772.193,-260"/>
<polygon fill="midnightblue" stroke="midnightblue" points="772.458,-263.5 782.458,-260 772.458,-256.5 772.458,-263.5"/>
</g>
<!-- Node7 -->
<g id="node7" class="node"><title>Node7</title>
<g id="a_node7"><a xlink:href="../../d8/d36/classexpression_tree_1_1_user_function_map.html#a8a31726e8de991ba254e91fdee171e5b" target="_top" xlink:title="expressionTree.UserFunction\lMap.contains">
<polygon fill="white" stroke="black" points="1013.5,-269 1013.5,-299 1166.5,-299 1166.5,-269 1013.5,-269"/>
<text text-anchor="start" x="1021.5" y="-287" font-family="Helvetica,sans-Serif" font-size="10.00">expressionTree.UserFunction</text>
<text text-anchor="middle" x="1090" y="-276" font-family="Helvetica,sans-Serif" font-size="10.00">Map.contains</text>
</a>
</g>
</g>
<!-- Node6&#45;&gt;Node7 -->
<g id="edge6" class="edge"><title>Node6&#45;&gt;Node7</title>
<path fill="none" stroke="midnightblue" d="M975.631,-270.982C984.846,-272.04 994.154,-273.109 1003.27,-274.155"/>
<polygon fill="midnightblue" stroke="midnightblue" points="1003.12,-277.661 1013.45,-275.325 1003.92,-270.707 1003.12,-277.661"/>
</g>
<!-- Node8 -->
<g id="node8" class="node"><title>Node8</title>
<g id="a_node8"><a xlink:href="../../d8/d36/classexpression_tree_1_1_user_function_map.html#a6ce2341adbcd5596710a90f96fd9e8dc" target="_top" xlink:title="expressionTree.UserFunction\lMap.getFunction">
<polygon fill="white" stroke="black" points="1013.5,-220 1013.5,-250 1166.5,-250 1166.5,-220 1013.5,-220"/>
<text text-anchor="start" x="1021.5" y="-238" font-family="Helvetica,sans-Serif" font-size="10.00">expressionTree.UserFunction</text>
<text text-anchor="middle" x="1090" y="-227" font-family="Helvetica,sans-Serif" font-size="10.00">Map.getFunction</text>
</a>
</g>
</g>
<!-- Node6&#45;&gt;Node8 -->
<g id="edge7" class="edge"><title>Node6&#45;&gt;Node8</title>
<path fill="none" stroke="midnightblue" d="M975.631,-248.561C984.846,-247.459 994.154,-246.345 1003.27,-245.255"/>
<polygon fill="midnightblue" stroke="midnightblue" points="1003.94,-248.7 1013.45,-244.037 1003.11,-241.749 1003.94,-248.7"/>
</g>
<!-- Node11 -->
<g id="node11" class="node"><title>Node11</title>
<g id="a_node11"><a xlink:href="../../de/d4e/classexpression_tree_1_1_variable_node_map.html#a4855134d1fd875836c2c9944ec2079f4" target="_top" xlink:title="expressionTree.VariableNode\lMap.getVariable">
<polygon fill="white" stroke="black" points="801.5,-147 801.5,-177 956.5,-177 956.5,-147 801.5,-147"/>
<text text-anchor="start" x="809.5" y="-165" font-family="Helvetica,sans-Serif" font-size="10.00">expressionTree.VariableNode</text>
<text text-anchor="middle" x="879" y="-154" font-family="Helvetica,sans-Serif" font-size="10.00">Map.getVariable</text>
</a>
</g>
</g>
<!-- Node10&#45;&gt;Node11 -->
<g id="edge10" class="edge"><title>Node10&#45;&gt;Node11</title>
<path fill="none" stroke="midnightblue" d="M740.696,-162C757.034,-162 774.431,-162 791.158,-162"/>
<polygon fill="midnightblue" stroke="midnightblue" points="791.471,-165.5 801.471,-162 791.471,-158.5 791.471,-165.5"/>
</g>
<!-- Node12 -->
<g id="node12" class="node"><title>Node12</title>
<g id="a_node12"><a xlink:href="../../de/d4e/classexpression_tree_1_1_variable_node_map.html#aa39aa781cc2fe52784af8657407974ce" target="_top" xlink:title="expressionTree.VariableNode\lMap.addVariable">
<polygon fill="white" stroke="black" points="1012.5,-147 1012.5,-177 1167.5,-177 1167.5,-147 1012.5,-147"/>
<text text-anchor="start" x="1020.5" y="-165" font-family="Helvetica,sans-Serif" font-size="10.00">expressionTree.VariableNode</text>
<text text-anchor="middle" x="1090" y="-154" font-family="Helvetica,sans-Serif" font-size="10.00">Map.addVariable</text>
</a>
</g>
</g>
<!-- Node11&#45;&gt;Node12 -->
<g id="edge11" class="edge"><title>Node11&#45;&gt;Node12</title>
<path fill="none" stroke="midnightblue" d="M956.637,-162C971.404,-162 986.971,-162 1002.04,-162"/>
<polygon fill="midnightblue" stroke="midnightblue" points="1002.37,-165.5 1012.37,-162 1002.37,-158.5 1002.37,-165.5"/>
</g>
<!-- Node14 -->
<g id="node14" class="node"><title>Node14</title>
<g id="a_node14"><a xlink:href="../../db/da5/classexpression_tree_1_1_expression_node.html#abeb93d13a54bef927167b01aabcec922" target="_top" xlink:title="expressionTree.Expression\lNode.setChildren">
<polygon fill="white" stroke="black" points="397.5,-73 397.5,-103 540.5,-103 540.5,-73 397.5,-73"/>
<text text-anchor="start" x="405.5" y="-91" font-family="Helvetica,sans-Serif" font-size="10.00">expressionTree.Expression</text>
<text text-anchor="middle" x="469" y="-80" font-family="Helvetica,sans-Serif" font-size="10.00">Node.setChildren</text>
</a>
</g>
</g>
<!-- Node13&#45;&gt;Node14 -->
<g id="edge13" class="edge"><title>Node13&#45;&gt;Node14</title>
<path fill="none" stroke="midnightblue" d="M355.753,-88C366.118,-88 376.859,-88 387.404,-88"/>
<polygon fill="midnightblue" stroke="midnightblue" points="387.436,-91.5001 397.436,-88 387.436,-84.5001 387.436,-91.5001"/>
</g>
<!-- Node18 -->
<g id="node18" class="node"><title>Node18</title>
<g id="a_node18"><a xlink:href="../../db/da5/classexpression_tree_1_1_expression_node.html#a189034630678dbe1dbb8805adbda2a96" target="_top" xlink:title="expressionTree.Expression\lNode.evaluate">
<polygon fill="white" stroke="black" points="397.5,-24 397.5,-54 540.5,-54 540.5,-24 397.5,-24"/>
<text text-anchor="start" x="405.5" y="-42" font-family="Helvetica,sans-Serif" font-size="10.00">expressionTree.Expression</text>
<text text-anchor="middle" x="469" y="-31" font-family="Helvetica,sans-Serif" font-size="10.00">Node.evaluate</text>
</a>
</g>
</g>
<!-- Node13&#45;&gt;Node18 -->
<g id="edge17" class="edge"><title>Node13&#45;&gt;Node18</title>
<path fill="none" stroke="midnightblue" d="M341.399,-72.8986C360.535,-67.7747 382.086,-62.0044 401.908,-56.6968"/>
<polygon fill="midnightblue" stroke="midnightblue" points="403.033,-60.019 411.787,-54.0516 401.222,-53.2572 403.033,-60.019"/>
</g>
<!-- Node15 -->
<g id="node15" class="node"><title>Node15</title>
<g id="a_node15"><a xlink:href="../../db/da5/classexpression_tree_1_1_expression_node.html#aee1e0e9f9ef99059439c9ffd5e08bed6" target="_top" xlink:title="expressionTree.Expression\lNode.getNumChildren">
<polygon fill="white" stroke="black" points="592.5,-98 592.5,-128 735.5,-128 735.5,-98 592.5,-98"/>
<text text-anchor="start" x="600.5" y="-116" font-family="Helvetica,sans-Serif" font-size="10.00">expressionTree.Expression</text>
<text text-anchor="middle" x="664" y="-105" font-family="Helvetica,sans-Serif" font-size="10.00">Node.getNumChildren</text>
</a>
</g>
</g>
<!-- Node14&#45;&gt;Node15 -->
<g id="edge14" class="edge"><title>Node14&#45;&gt;Node15</title>
<path fill="none" stroke="midnightblue" d="M540.77,-97.1671C554.275,-98.9165 568.505,-100.76 582.293,-102.546"/>
<polygon fill="midnightblue" stroke="midnightblue" points="581.872,-106.02 592.238,-103.834 582.771,-99.0783 581.872,-106.02"/>
</g>
<!-- Node16 -->
<g id="node16" class="node"><title>Node16</title>
<g id="a_node16"><a xlink:href="../../db/da5/classexpression_tree_1_1_expression_node.html#a2fa33101014b85248cd335238da0b74a" target="_top" xlink:title="expressionTree.Expression\lNode.setLeft">
<polygon fill="white" stroke="black" points="592.5,-49 592.5,-79 735.5,-79 735.5,-49 592.5,-49"/>
<text text-anchor="start" x="600.5" y="-67" font-family="Helvetica,sans-Serif" font-size="10.00">expressionTree.Expression</text>
<text text-anchor="middle" x="664" y="-56" font-family="Helvetica,sans-Serif" font-size="10.00">Node.setLeft</text>
</a>
</g>
</g>
<!-- Node14&#45;&gt;Node16 -->
<g id="edge15" class="edge"><title>Node14&#45;&gt;Node16</title>
<path fill="none" stroke="midnightblue" d="M540.77,-79.1996C554.275,-77.5202 568.505,-75.7506 582.293,-74.0361"/>
<polygon fill="midnightblue" stroke="midnightblue" points="582.747,-77.5067 592.238,-72.7994 581.883,-70.5602 582.747,-77.5067"/>
</g>
<!-- Node17 -->
<g id="node17" class="node"><title>Node17</title>
<g id="a_node17"><a xlink:href="../../db/da5/classexpression_tree_1_1_expression_node.html#a25229591e36f2ce78394dff938a3ef54" target="_top" xlink:title="expressionTree.Expression\lNode.setRight">
<polygon fill="white" stroke="black" points="592.5,-0 592.5,-30 735.5,-30 735.5,-0 592.5,-0"/>
<text text-anchor="start" x="600.5" y="-18" font-family="Helvetica,sans-Serif" font-size="10.00">expressionTree.Expression</text>
<text text-anchor="middle" x="664" y="-7" font-family="Helvetica,sans-Serif" font-size="10.00">Node.setRight</text>
</a>
</g>
</g>
<!-- Node14&#45;&gt;Node17 -->
<g id="edge16" class="edge"><title>Node14&#45;&gt;Node17</title>
<path fill="none" stroke="midnightblue" d="M522.254,-72.8891C530.35,-69.9574 538.506,-66.6467 546,-63 563.291,-54.5856 564.586,-47.1563 582,-39 586.07,-37.0938 590.326,-35.3002 594.665,-33.6194"/>
<polygon fill="midnightblue" stroke="midnightblue" points="596.062,-36.8353 604.257,-30.1202 593.663,-30.2591 596.062,-36.8353"/>
</g>
</g>
</svg>
