<?xml version="1.0" encoding="UTF-8" standalone="no"?>
<!DOCTYPE svg PUBLIC "-//W3C//DTD SVG 1.1//EN"
 "http://www.w3.org/Graphics/SVG/1.1/DTD/svg11.dtd">
<!-- Generated by graphviz version 2.36.0 (20140111.2315)
 -->
<!-- Title: expressionTree.ExpressionTreeBuilder.getOutputList Pages: 1 -->
<svg width="824pt" height="126pt"
 viewBox="0.00 0.00 824.00 126.00" xmlns="http://www.w3.org/2000/svg" xmlns:xlink="http://www.w3.org/1999/xlink">
<g id="graph0" class="graph" transform="scale(1 1) rotate(0) translate(4 122)">
<title>expressionTree.ExpressionTreeBuilder.getOutputList</title>
<polygon fill="white" stroke="none" points="-4,4 -4,-122 820,-122 820,4 -4,4"/>
<!-- Node1 -->
<g id="node1" class="node"><title>Node1</title>
<polygon fill="#bfbfbf" stroke="black" points="0.5,-64 0.5,-94 143.5,-94 143.5,-64 0.5,-64"/>
<text text-anchor="start" x="8.5" y="-82" font-family="Helvetica,sans-Serif" font-size="10.00">expressionTree.Expression</text>
<text text-anchor="middle" x="72" y="-71" font-family="Helvetica,sans-Serif" font-size="10.00">TreeBuilder.getOutputList</text>
</g>
<!-- Node2 -->
<g id="node2" class="node"><title>Node2</title>
<g id="a_node2"><a xlink:href="../../d9/de6/classexpression_tree_1_1_list_node.html#a4b1a3926b297628a686967e6ca515289" target="_top" xlink:title="expressionTree.ListNode.evaluate">
<polygon fill="white" stroke="black" points="180.5,-90.5 180.5,-109.5 357.5,-109.5 357.5,-90.5 180.5,-90.5"/>
<text text-anchor="middle" x="269" y="-97.5" font-family="Helvetica,sans-Serif" font-size="10.00">expressionTree.ListNode.evaluate</text>
</a>
</g>
</g>
<!-- Node1&#45;&gt;Node2 -->
<g id="edge1" class="edge"><title>Node1&#45;&gt;Node2</title>
<path fill="none" stroke="midnightblue" d="M153.819,-87.7035C162.546,-88.6434 171.457,-89.6031 180.262,-90.5512"/>
<polygon fill="midnightblue" stroke="midnightblue" points="153.992,-84.2021 143.675,-86.6112 153.243,-91.1619 153.992,-84.2021"/>
</g>
<!-- Node4 -->
<g id="node4" class="node"><title>Node4</title>
<g id="a_node4"><a xlink:href="../../d1/ddd/classbackend_1_1_parser.html#a8b57ca47f899f9682d7e7b8f19857933" target="_top" xlink:title="backend.Parser.parse">
<polygon fill="white" stroke="black" points="209.5,-49.5 209.5,-68.5 328.5,-68.5 328.5,-49.5 209.5,-49.5"/>
<text text-anchor="middle" x="269" y="-56.5" font-family="Helvetica,sans-Serif" font-size="10.00">backend.Parser.parse</text>
</a>
</g>
</g>
<!-- Node1&#45;&gt;Node4 -->
<g id="edge3" class="edge"><title>Node1&#45;&gt;Node4</title>
<path fill="none" stroke="midnightblue" d="M153.654,-70.7278C172.346,-68.8106 191.89,-66.8062 209.424,-65.0078"/>
<polygon fill="midnightblue" stroke="midnightblue" points="153.266,-67.2492 143.675,-71.7513 153.98,-74.2126 153.266,-67.2492"/>
</g>
<!-- Node3 -->
<g id="node3" class="node"><title>Node3</title>
<g id="a_node3"><a xlink:href="../../da/d37/classcontrol_structures_1_1_make_user_instruction.html#a387ccf786006ecbd9db98104be98c56c" target="_top" xlink:title="controlStructures.MakeUser\lInstruction.evaluate">
<polygon fill="white" stroke="black" points="413.5,-88 413.5,-118 564.5,-118 564.5,-88 413.5,-88"/>
<text text-anchor="start" x="421.5" y="-106" font-family="Helvetica,sans-Serif" font-size="10.00">controlStructures.MakeUser</text>
<text text-anchor="middle" x="489" y="-95" font-family="Helvetica,sans-Serif" font-size="10.00">Instruction.evaluate</text>
</a>
</g>
</g>
<!-- Node2&#45;&gt;Node3 -->
<g id="edge2" class="edge"><title>Node2&#45;&gt;Node3</title>
<path fill="none" stroke="midnightblue" d="M367.745,-101.345C383.076,-101.556 398.707,-101.771 413.408,-101.974"/>
<polygon fill="midnightblue" stroke="midnightblue" points="367.774,-97.8453 357.727,-101.207 367.677,-104.845 367.774,-97.8453"/>
</g>
<!-- Node5 -->
<g id="node5" class="node"><title>Node5</title>
<g id="a_node5"><a xlink:href="../../d2/dea/class_s_logo_controllers_1_1_input_controller.html#a7ce411d6699e0b45d54f63e43995c6a0" target="_top" xlink:title="SLogoControllers.InputController.get\lInstructions">
<polygon fill="white" stroke="black" points="394,-39 394,-69 584,-69 584,-39 394,-39"/>
<text text-anchor="start" x="402" y="-57" font-family="Helvetica,sans-Serif" font-size="10.00">SLogoControllers.InputController.get</text>
<text text-anchor="middle" x="489" y="-46" font-family="Helvetica,sans-Serif" font-size="10.00">Instructions</text>
</a>
</g>
</g>
<!-- Node4&#45;&gt;Node5 -->
<g id="edge4" class="edge"><title>Node4&#45;&gt;Node5</title>
<path fill="none" stroke="midnightblue" d="M338.794,-57.4222C356.27,-57.0213 375.348,-56.5838 393.846,-56.1595"/>
<polygon fill="midnightblue" stroke="midnightblue" points="338.624,-53.925 328.707,-57.6535 338.784,-60.9232 338.624,-53.925"/>
</g>
<!-- Node6 -->
<g id="node6" class="node"><title>Node6</title>
<g id="a_node6"><a xlink:href="../../d8/dc1/classfrontend_1_1_concrete_features_1_1_command_executer.html#a14b9b724db30e6cc89f62304f7bf40b2" target="_top" xlink:title="frontend.ConcreteFeatures.\lCommandExecuter.action">
<polygon fill="white" stroke="black" points="644,-88 644,-118 792,-118 792,-88 644,-88"/>
<text text-anchor="start" x="652" y="-106" font-family="Helvetica,sans-Serif" font-size="10.00">frontend.ConcreteFeatures.</text>
<text text-anchor="middle" x="718" y="-95" font-family="Helvetica,sans-Serif" font-size="10.00">CommandExecuter.action</text>
</a>
</g>
</g>
<!-- Node5&#45;&gt;Node6 -->
<g id="edge5" class="edge"><title>Node5&#45;&gt;Node6</title>
<path fill="none" stroke="midnightblue" d="M569.614,-71.1854C594.998,-76.6647 622.871,-82.6815 647.482,-87.9938"/>
<polygon fill="midnightblue" stroke="midnightblue" points="570.164,-67.7235 559.65,-69.0346 568.687,-74.5659 570.164,-67.7235"/>
</g>
<!-- Node7 -->
<g id="node7" class="node"><title>Node7</title>
<g id="a_node7"><a xlink:href="../../de/d9f/classfrontend_1_1_concrete_features_1_1_load_s_logo_file.html#aa491ddd476ad22ed21a358b21c01605f" target="_top" xlink:title="frontend.ConcreteFeatures.\lLoadSLogoFile.action">
<polygon fill="white" stroke="black" points="644,-39 644,-69 792,-69 792,-39 644,-39"/>
<text text-anchor="start" x="652" y="-57" font-family="Helvetica,sans-Serif" font-size="10.00">frontend.ConcreteFeatures.</text>
<text text-anchor="middle" x="718" y="-46" font-family="Helvetica,sans-Serif" font-size="10.00">LoadSLogoFile.action</text>
</a>
</g>
</g>
<!-- Node5&#45;&gt;Node7 -->
<g id="edge6" class="edge"><title>Node5&#45;&gt;Node7</title>
<path fill="none" stroke="midnightblue" d="M594.593,-54C611.204,-54 628.071,-54 643.759,-54"/>
<polygon fill="midnightblue" stroke="midnightblue" points="594.296,-50.5001 584.296,-54 594.296,-57.5001 594.296,-50.5001"/>
</g>
<!-- Node8 -->
<g id="node8" class="node"><title>Node8</title>
<g id="a_node8"><a xlink:href="../../d7/d78/classturtle_classes_1_1_turtle_key_handler.html#a7dfe582e767f31105e84278d26dbc4c1" target="_top" xlink:title="turtleClasses.TurtleKeyHandler.handle">
<polygon fill="white" stroke="black" points="620,-0.5 620,-19.5 816,-19.5 816,-0.5 620,-0.5"/>
<text text-anchor="middle" x="718" y="-7.5" font-family="Helvetica,sans-Serif" font-size="10.00">turtleClasses.TurtleKeyHandler.handle</text>
</a>
</g>
</g>
<!-- Node5&#45;&gt;Node8 -->
<g id="edge7" class="edge"><title>Node5&#45;&gt;Node8</title>
<path fill="none" stroke="midnightblue" d="M577.351,-37.0686C608.066,-31.115 641.483,-24.6377 667.925,-19.5124"/>
<polygon fill="midnightblue" stroke="midnightblue" points="576.637,-33.6417 567.486,-38.9808 577.969,-40.5138 576.637,-33.6417"/>
</g>
</g>
</svg>
