<?xml version="1.0" encoding="UTF-8" standalone="no"?>
<!DOCTYPE svg PUBLIC "-//W3C//DTD SVG 1.1//EN"
 "http://www.w3.org/Graphics/SVG/1.1/DTD/svg11.dtd">
<!-- Generated by graphviz version 2.36.0 (20140111.2315)
 -->
<!-- Title: frontend.ConcreteFeatures.ClearCanvas Pages: 1 -->
<svg width="156pt" height="244pt"
 viewBox="0.00 0.00 156.00 244.00" xmlns="http://www.w3.org/2000/svg" xmlns:xlink="http://www.w3.org/1999/xlink">
<g id="graph0" class="graph" transform="scale(1 1) rotate(0) translate(4 240)">
<title>frontend.ConcreteFeatures.ClearCanvas</title>
<polygon fill="white" stroke="none" points="-4,4 -4,-240 152,-240 152,4 -4,4"/>
<!-- Node1 -->
<g id="node1" class="node"><title>Node1</title>
<polygon fill="#bfbfbf" stroke="black" points="0,-69 0,-99 148,-99 148,-69 0,-69"/>
<text text-anchor="start" x="8" y="-87" font-family="Helvetica,sans-Serif" font-size="10.00">frontend.ConcreteFeatures.</text>
<text text-anchor="middle" x="74" y="-76" font-family="Helvetica,sans-Serif" font-size="10.00">ClearCanvas</text>
</g>
<!-- Node4 -->
<g id="node4" class="node"><title>Node4</title>
<g id="a_node4"><a xlink:href="../../d0/d72/classfrontend_1_1_concrete_features_1_1_reset.html" target="_top" xlink:title="frontend.ConcreteFeatures.\lReset">
<polygon fill="white" stroke="black" points="0,-1 0,-31 148,-31 148,-1 0,-1"/>
<text text-anchor="start" x="8" y="-19" font-family="Helvetica,sans-Serif" font-size="10.00">frontend.ConcreteFeatures.</text>
<text text-anchor="middle" x="74" y="-8" font-family="Helvetica,sans-Serif" font-size="10.00">Reset</text>
</a>
</g>
</g>
<!-- Node1&#45;&gt;Node4 -->
<g id="edge3" class="edge"><title>Node1&#45;&gt;Node4</title>
<path fill="none" stroke="midnightblue" d="M74,-58.5322C74,-49.3606 74,-39.2449 74,-31.2931"/>
<polygon fill="midnightblue" stroke="midnightblue" points="70.5001,-58.6789 74,-68.679 77.5001,-58.679 70.5001,-58.6789"/>
</g>
<!-- Node2 -->
<g id="node2" class="node"><title>Node2</title>
<g id="a_node2"><a xlink:href="../../d1/d84/classfrontend_1_1_abstract_features_1_1_s_logo_button.html" target="_top" xlink:title="frontend.AbstractFeatures.\lSLogoButton">
<polygon fill="white" stroke="black" points="1.5,-137 1.5,-167 146.5,-167 146.5,-137 1.5,-137"/>
<text text-anchor="start" x="9.5" y="-155" font-family="Helvetica,sans-Serif" font-size="10.00">frontend.AbstractFeatures.</text>
<text text-anchor="middle" x="74" y="-144" font-family="Helvetica,sans-Serif" font-size="10.00">SLogoButton</text>
</a>
</g>
</g>
<!-- Node2&#45;&gt;Node1 -->
<g id="edge1" class="edge"><title>Node2&#45;&gt;Node1</title>
<path fill="none" stroke="midnightblue" d="M74,-126.532C74,-117.361 74,-107.245 74,-99.2931"/>
<polygon fill="midnightblue" stroke="midnightblue" points="70.5001,-126.679 74,-136.679 77.5001,-126.679 70.5001,-126.679"/>
</g>
<!-- Node3 -->
<g id="node3" class="node"><title>Node3</title>
<g id="a_node3"><a xlink:href="../../dc/db4/classfrontend_1_1_abstract_features_1_1_g_u_i_feature.html" target="_top" xlink:title="frontend.AbstractFeatures.\lGUIFeature">
<polygon fill="white" stroke="black" points="1.5,-205 1.5,-235 146.5,-235 146.5,-205 1.5,-205"/>
<text text-anchor="start" x="9.5" y="-223" font-family="Helvetica,sans-Serif" font-size="10.00">frontend.AbstractFeatures.</text>
<text text-anchor="middle" x="74" y="-212" font-family="Helvetica,sans-Serif" font-size="10.00">GUIFeature</text>
</a>
</g>
</g>
<!-- Node3&#45;&gt;Node2 -->
<g id="edge2" class="edge"><title>Node3&#45;&gt;Node2</title>
<path fill="none" stroke="midnightblue" d="M74,-194.532C74,-185.361 74,-175.245 74,-167.293"/>
<polygon fill="midnightblue" stroke="midnightblue" points="70.5001,-194.679 74,-204.679 77.5001,-194.679 70.5001,-194.679"/>
</g>
</g>
</svg>
