<?xml version="1.0" encoding="UTF-8" standalone="no"?>
<!DOCTYPE svg PUBLIC "-//W3C//DTD SVG 1.1//EN"
 "http://www.w3.org/Graphics/SVG/1.1/DTD/svg11.dtd">
<!-- Generated by graphviz version 2.36.0 (20140111.2315)
 -->
<!-- Title: displayCommands.AskWith.evaluate Pages: 1 -->
<svg width="386pt" height="136pt"
 viewBox="0.00 0.00 386.00 136.00" xmlns="http://www.w3.org/2000/svg" xmlns:xlink="http://www.w3.org/1999/xlink">
<g id="graph0" class="graph" transform="scale(1 1) rotate(0) translate(4 132)">
<title>displayCommands.AskWith.evaluate</title>
<polygon fill="white" stroke="none" points="-4,4 -4,-132 382,-132 382,4 -4,4"/>
<!-- Node1 -->
<g id="node1" class="node"><title>Node1</title>
<polygon fill="#bfbfbf" stroke="black" points="0,-54.5 0,-73.5 190,-73.5 190,-54.5 0,-54.5"/>
<text text-anchor="middle" x="95" y="-61.5" font-family="Helvetica,sans-Serif" font-size="10.00">displayCommands.AskWith.evaluate</text>
</g>
<!-- Node2 -->
<g id="node2" class="node"><title>Node2</title>
<g id="a_node2"><a xlink:href="../../db/da5/classexpression_tree_1_1_expression_node.html#a189034630678dbe1dbb8805adbda2a96" target="_top" xlink:title="expressionTree.Expression\lNode.evaluate">
<polygon fill="white" stroke="black" points="230.5,-98 230.5,-128 373.5,-128 373.5,-98 230.5,-98"/>
<text text-anchor="start" x="238.5" y="-116" font-family="Helvetica,sans-Serif" font-size="10.00">expressionTree.Expression</text>
<text text-anchor="middle" x="302" y="-105" font-family="Helvetica,sans-Serif" font-size="10.00">Node.evaluate</text>
</a>
</g>
</g>
<!-- Node1&#45;&gt;Node2 -->
<g id="edge1" class="edge"><title>Node1&#45;&gt;Node2</title>
<path fill="none" stroke="midnightblue" d="M136.013,-73.564C162.193,-79.8218 197.168,-88.1817 228.178,-95.5937"/>
<polygon fill="midnightblue" stroke="midnightblue" points="227.551,-99.0423 238.09,-97.963 229.178,-92.2341 227.551,-99.0423"/>
</g>
<!-- Node3 -->
<g id="node3" class="node"><title>Node3</title>
<g id="a_node3"><a xlink:href="../../d9/de6/classexpression_tree_1_1_list_node.html#ad2a28e016675c9338d563c246f998513" target="_top" xlink:title="expressionTree.ListNode.get\lListContents">
<polygon fill="white" stroke="black" points="226,-49 226,-79 378,-79 378,-49 226,-49"/>
<text text-anchor="start" x="234" y="-67" font-family="Helvetica,sans-Serif" font-size="10.00">expressionTree.ListNode.get</text>
<text text-anchor="middle" x="302" y="-56" font-family="Helvetica,sans-Serif" font-size="10.00">ListContents</text>
</a>
</g>
</g>
<!-- Node1&#45;&gt;Node3 -->
<g id="edge2" class="edge"><title>Node1&#45;&gt;Node3</title>
<path fill="none" stroke="midnightblue" d="M190.1,-64C198.631,-64 207.24,-64 215.688,-64"/>
<polygon fill="midnightblue" stroke="midnightblue" points="215.898,-67.5001 225.898,-64 215.898,-60.5001 215.898,-67.5001"/>
</g>
<!-- Node4 -->
<g id="node4" class="node"><title>Node4</title>
<g id="a_node4"><a xlink:href="../../db/da5/classexpression_tree_1_1_expression_node.html#a45c96c848aa110f95246819c3e1e1639" target="_top" xlink:title="expressionTree.Expression\lNode.getValue">
<polygon fill="white" stroke="black" points="230.5,-0 230.5,-30 373.5,-30 373.5,-0 230.5,-0"/>
<text text-anchor="start" x="238.5" y="-18" font-family="Helvetica,sans-Serif" font-size="10.00">expressionTree.Expression</text>
<text text-anchor="middle" x="302" y="-7" font-family="Helvetica,sans-Serif" font-size="10.00">Node.getValue</text>
</a>
</g>
</g>
<!-- Node1&#45;&gt;Node4 -->
<g id="edge3" class="edge"><title>Node1&#45;&gt;Node4</title>
<path fill="none" stroke="midnightblue" d="M136.013,-54.436C162.193,-48.1782 197.168,-39.8183 228.178,-32.4063"/>
<polygon fill="midnightblue" stroke="midnightblue" points="229.178,-35.7659 238.09,-30.037 227.551,-28.9577 229.178,-35.7659"/>
</g>
</g>
</svg>
