<?xml version="1.0" encoding="UTF-8" standalone="no"?>
<!DOCTYPE svg PUBLIC "-//W3C//DTD SVG 1.1//EN"
 "http://www.w3.org/Graphics/SVG/1.1/DTD/svg11.dtd">
<!-- Generated by graphviz version 2.36.0 (20140111.2315)
 -->
<!-- Title: displayCommands.HideTurtle.doAction Pages: 1 -->
<svg width="346pt" height="38pt"
 viewBox="0.00 0.00 346.00 38.00" xmlns="http://www.w3.org/2000/svg" xmlns:xlink="http://www.w3.org/1999/xlink">
<g id="graph0" class="graph" transform="scale(1 1) rotate(0) translate(4 34)">
<title>displayCommands.HideTurtle.doAction</title>
<polygon fill="white" stroke="none" points="-4,4 -4,-34 342,-34 342,4 -4,4"/>
<!-- Node1 -->
<g id="node1" class="node"><title>Node1</title>
<polygon fill="#bfbfbf" stroke="black" points="0,-0 0,-30 170,-30 170,-0 0,-0"/>
<text text-anchor="start" x="8" y="-18" font-family="Helvetica,sans-Serif" font-size="10.00">displayCommands.HideTurtle.do</text>
<text text-anchor="middle" x="85" y="-7" font-family="Helvetica,sans-Serif" font-size="10.00">Action</text>
</g>
<!-- Node2 -->
<g id="node2" class="node"><title>Node2</title>
<g id="a_node2"><a xlink:href="../../d8/d89/classturtle_classes_1_1_turtle.html#ae0cf70e9be8d671a3f7a47fb2b445be5" target="_top" xlink:title="turtleClasses.Turtle.hide\lTurtle">
<polygon fill="white" stroke="black" points="206.5,-0 206.5,-30 337.5,-30 337.5,-0 206.5,-0"/>
<text text-anchor="start" x="214.5" y="-18" font-family="Helvetica,sans-Serif" font-size="10.00">turtleClasses.Turtle.hide</text>
<text text-anchor="middle" x="272" y="-7" font-family="Helvetica,sans-Serif" font-size="10.00">Turtle</text>
</a>
</g>
</g>
<!-- Node1&#45;&gt;Node2 -->
<g id="edge1" class="edge"><title>Node1&#45;&gt;Node2</title>
<path fill="none" stroke="midnightblue" d="M170.109,-15C178.891,-15 187.774,-15 196.439,-15"/>
<polygon fill="midnightblue" stroke="midnightblue" points="196.491,-18.5001 206.491,-15 196.491,-11.5001 196.491,-18.5001"/>
</g>
</g>
</svg>
