<?xml version="1.0" encoding="UTF-8" standalone="no"?>
<!DOCTYPE svg PUBLIC "-//W3C//DTD SVG 1.1//EN"
 "http://www.w3.org/Graphics/SVG/1.1/DTD/svg11.dtd">
<!-- Generated by graphviz version 2.36.0 (20140111.2315)
 -->
<!-- Title: turtleClasses.Turtle.move Pages: 1 -->
<svg width="678pt" height="28pt"
 viewBox="0.00 0.00 678.00 28.00" xmlns="http://www.w3.org/2000/svg" xmlns:xlink="http://www.w3.org/1999/xlink">
<g id="graph0" class="graph" transform="scale(1 1) rotate(0) translate(4 24)">
<title>turtleClasses.Turtle.move</title>
<polygon fill="white" stroke="none" points="-4,4 -4,-24 674,-24 674,4 -4,4"/>
<!-- Node1 -->
<g id="node1" class="node"><title>Node1</title>
<polygon fill="#bfbfbf" stroke="black" points="0.5,-0.5 0.5,-19.5 137.5,-19.5 137.5,-0.5 0.5,-0.5"/>
<text text-anchor="middle" x="69" y="-7.5" font-family="Helvetica,sans-Serif" font-size="10.00">turtleClasses.Turtle.move</text>
</g>
<!-- Node2 -->
<g id="node2" class="node"><title>Node2</title>
<g id="a_node2"><a xlink:href="../../da/deb/classfrontend_1_1_line_drawer.html#a6989f18991010fb1e13d2e451f2464f1" target="_top" xlink:title="frontend.LineDrawer.draw">
<polygon fill="white" stroke="black" points="174,-0.5 174,-19.5 312,-19.5 312,-0.5 174,-0.5"/>
<text text-anchor="middle" x="243" y="-7.5" font-family="Helvetica,sans-Serif" font-size="10.00">frontend.LineDrawer.draw</text>
</a>
</g>
</g>
<!-- Node1&#45;&gt;Node2 -->
<g id="edge1" class="edge"><title>Node1&#45;&gt;Node2</title>
<path fill="none" stroke="midnightblue" d="M137.979,-10C146.483,-10 155.233,-10 163.876,-10"/>
<polygon fill="midnightblue" stroke="midnightblue" points="163.952,-13.5001 173.952,-10 163.952,-6.5001 163.952,-13.5001"/>
</g>
<!-- Node3 -->
<g id="node3" class="node"><title>Node3</title>
<g id="a_node3"><a xlink:href="../../da/deb/classfrontend_1_1_line_drawer.html#a815e10401e7bee5986e490aeb87b6c33" target="_top" xlink:title="frontend.LineDrawer.makeLine">
<polygon fill="white" stroke="black" points="348,-0.5 348,-19.5 510,-19.5 510,-0.5 348,-0.5"/>
<text text-anchor="middle" x="429" y="-7.5" font-family="Helvetica,sans-Serif" font-size="10.00">frontend.LineDrawer.makeLine</text>
</a>
</g>
</g>
<!-- Node2&#45;&gt;Node3 -->
<g id="edge2" class="edge"><title>Node2&#45;&gt;Node3</title>
<path fill="none" stroke="midnightblue" d="M312.253,-10C320.56,-10 329.144,-10 337.708,-10"/>
<polygon fill="midnightblue" stroke="midnightblue" points="337.735,-13.5001 347.735,-10 337.735,-6.5001 337.735,-13.5001"/>
</g>
<!-- Node4 -->
<g id="node4" class="node"><title>Node4</title>
<g id="a_node4"><a xlink:href="../../d3/d0e/classfrontend_1_1_pen.html#a53a8026e193d2ea338c563eaa0abf5ee" target="_top" xlink:title="frontend.Pen.drawLine">
<polygon fill="white" stroke="black" points="546.5,-0.5 546.5,-19.5 669.5,-19.5 669.5,-0.5 546.5,-0.5"/>
<text text-anchor="middle" x="608" y="-7.5" font-family="Helvetica,sans-Serif" font-size="10.00">frontend.Pen.drawLine</text>
</a>
</g>
</g>
<!-- Node3&#45;&gt;Node4 -->
<g id="edge3" class="edge"><title>Node3&#45;&gt;Node4</title>
<path fill="none" stroke="midnightblue" d="M510.214,-10C518.863,-10 527.618,-10 536.145,-10"/>
<polygon fill="midnightblue" stroke="midnightblue" points="536.412,-13.5001 546.412,-10 536.412,-6.5001 536.412,-13.5001"/>
</g>
</g>
</svg>
