<?xml version="1.0" encoding="UTF-8" standalone="no"?>
<!DOCTYPE svg PUBLIC "-//W3C//DTD SVG 1.1//EN"
 "http://www.w3.org/Graphics/SVG/1.1/DTD/svg11.dtd">
<!-- Generated by graphviz version 2.36.0 (20140111.2315)
 -->
<!-- Title: turtleClasses.Turtle.getID Pages: 1 -->
<svg width="836pt" height="399pt"
 viewBox="0.00 0.00 836.00 399.00" xmlns="http://www.w3.org/2000/svg" xmlns:xlink="http://www.w3.org/1999/xlink">
<g id="graph0" class="graph" transform="scale(1 1) rotate(0) translate(4 395)">
<title>turtleClasses.Turtle.getID</title>
<polygon fill="white" stroke="none" points="-4,4 -4,-395 832,-395 832,4 -4,4"/>
<!-- Node1 -->
<g id="node1" class="node"><title>Node1</title>
<polygon fill="#bfbfbf" stroke="black" points="0,-129.5 0,-148.5 136,-148.5 136,-129.5 0,-129.5"/>
<text text-anchor="middle" x="68" y="-136.5" font-family="Helvetica,sans-Serif" font-size="10.00">turtleClasses.Turtle.getID</text>
</g>
<!-- Node2 -->
<g id="node2" class="node"><title>Node2</title>
<g id="a_node2"><a xlink:href="../../d4/d7e/classturtle_classes_1_1_turtle_collection.html#a61f007615f0fd523dae94957f8022100" target="_top" xlink:title="turtleClasses.TurtleCollection.set\lActiveTurtles">
<polygon fill="white" stroke="black" points="181,-186 181,-216 353,-216 353,-186 181,-186"/>
<text text-anchor="start" x="189" y="-204" font-family="Helvetica,sans-Serif" font-size="10.00">turtleClasses.TurtleCollection.set</text>
<text text-anchor="middle" x="267" y="-193" font-family="Helvetica,sans-Serif" font-size="10.00">ActiveTurtles</text>
</a>
</g>
</g>
<!-- Node1&#45;&gt;Node2 -->
<g id="edge1" class="edge"><title>Node1&#45;&gt;Node2</title>
<path fill="none" stroke="midnightblue" d="M109.111,-151.624C140.616,-161.539 184.591,-175.379 217.971,-185.884"/>
<polygon fill="midnightblue" stroke="midnightblue" points="109.939,-148.215 99.3495,-148.552 107.838,-154.892 109.939,-148.215"/>
</g>
<!-- Node14 -->
<g id="node14" class="node"><title>Node14</title>
<g id="a_node14"><a xlink:href="../../d4/d7e/classturtle_classes_1_1_turtle_collection.html#a2c198e889660227ad13e0835fb5c9b7f" target="_top" xlink:title="turtleClasses.TurtleCollection.\lTurtleCollection">
<polygon fill="white" stroke="black" points="188.5,-124 188.5,-154 345.5,-154 345.5,-124 188.5,-124"/>
<text text-anchor="start" x="196.5" y="-142" font-family="Helvetica,sans-Serif" font-size="10.00">turtleClasses.TurtleCollection.</text>
<text text-anchor="middle" x="267" y="-131" font-family="Helvetica,sans-Serif" font-size="10.00">TurtleCollection</text>
</a>
</g>
</g>
<!-- Node1&#45;&gt;Node14 -->
<g id="edge13" class="edge"><title>Node1&#45;&gt;Node14</title>
<path fill="none" stroke="midnightblue" d="M146.581,-139C160.265,-139 174.514,-139 188.204,-139"/>
<polygon fill="midnightblue" stroke="midnightblue" points="146.245,-135.5 136.245,-139 146.245,-142.5 146.245,-135.5"/>
</g>
<!-- Node15 -->
<g id="node15" class="node"><title>Node15</title>
<g id="a_node15"><a xlink:href="../../dc/d69/classturtle_classes_1_1_turtle_snapshot.html#a15dec792db9c32413964d88bae094216" target="_top" xlink:title="turtleClasses.TurtleSnapshot.update">
<polygon fill="white" stroke="black" points="172,-58.5 172,-77.5 362,-77.5 362,-58.5 172,-58.5"/>
<text text-anchor="middle" x="267" y="-65.5" font-family="Helvetica,sans-Serif" font-size="10.00">turtleClasses.TurtleSnapshot.update</text>
</a>
</g>
</g>
<!-- Node1&#45;&gt;Node15 -->
<g id="edge14" class="edge"><title>Node1&#45;&gt;Node15</title>
<path fill="none" stroke="midnightblue" d="M105.437,-125.868C144.322,-111.854 204.982,-89.9914 239.539,-77.5368"/>
<polygon fill="midnightblue" stroke="midnightblue" points="103.789,-122.741 95.5683,-129.425 106.163,-129.327 103.789,-122.741"/>
</g>
<!-- Node3 -->
<g id="node3" class="node"><title>Node3</title>
<g id="a_node3"><a xlink:href="../../dc/d9a/classdisplay_commands_1_1_ask.html#a8b9d7e789a2cd29220b440ae03c70432" target="_top" xlink:title="displayCommands.Ask.doAction">
<polygon fill="white" stroke="black" points="412,-371.5 412,-390.5 582,-390.5 582,-371.5 412,-371.5"/>
<text text-anchor="middle" x="497" y="-378.5" font-family="Helvetica,sans-Serif" font-size="10.00">displayCommands.Ask.doAction</text>
</a>
</g>
</g>
<!-- Node2&#45;&gt;Node3 -->
<g id="edge2" class="edge"><title>Node2&#45;&gt;Node3</title>
<path fill="none" stroke="midnightblue" d="M280.341,-225.277C300.013,-261.32 342.044,-328.343 398,-362 404.46,-365.886 411.555,-369 418.881,-371.492"/>
<polygon fill="midnightblue" stroke="midnightblue" points="283.402,-223.579 275.609,-216.402 277.225,-226.873 283.402,-223.579"/>
</g>
<!-- Node4 -->
<g id="node4" class="node"><title>Node4</title>
<g id="a_node4"><a xlink:href="../../d9/d2b/classdisplay_commands_1_1_tell.html#a47e19aa9c97125a95f06c67dc189fc53" target="_top" xlink:title="displayCommands.Tell.doAction">
<polygon fill="white" stroke="black" points="413.5,-333.5 413.5,-352.5 580.5,-352.5 580.5,-333.5 413.5,-333.5"/>
<text text-anchor="middle" x="497" y="-340.5" font-family="Helvetica,sans-Serif" font-size="10.00">displayCommands.Tell.doAction</text>
</a>
</g>
</g>
<!-- Node2&#45;&gt;Node4 -->
<g id="edge3" class="edge"><title>Node2&#45;&gt;Node4</title>
<path fill="none" stroke="midnightblue" d="M285.819,-224.235C308.642,-252.262 350.915,-298.637 398,-323 406.482,-327.389 415.843,-330.815 425.314,-333.49"/>
<polygon fill="midnightblue" stroke="midnightblue" points="288.353,-221.8 279.376,-216.171 282.884,-226.169 288.353,-221.8"/>
</g>
<!-- Node5 -->
<g id="node5" class="node"><title>Node5</title>
<g id="a_node5"><a xlink:href="../../d4/d4a/classfrontend_1_1_concrete_features_1_1_change_line_width.html#adde04d20814309d03954f834f7bc9af0" target="_top" xlink:title="frontend.ConcreteFeatures.\lChangeLineWidth.action">
<polygon fill="white" stroke="black" points="423,-284 423,-314 571,-314 571,-284 423,-284"/>
<text text-anchor="start" x="431" y="-302" font-family="Helvetica,sans-Serif" font-size="10.00">frontend.ConcreteFeatures.</text>
<text text-anchor="middle" x="497" y="-291" font-family="Helvetica,sans-Serif" font-size="10.00">ChangeLineWidth.action</text>
</a>
</g>
</g>
<!-- Node2&#45;&gt;Node5 -->
<g id="edge4" class="edge"><title>Node2&#45;&gt;Node5</title>
<path fill="none" stroke="midnightblue" d="M299.109,-221.546C324.748,-237.711 362.531,-259.804 398,-274 407.373,-277.752 417.48,-281.079 427.518,-283.984"/>
<polygon fill="midnightblue" stroke="midnightblue" points="300.884,-218.527 290.571,-216.099 297.118,-224.428 300.884,-218.527"/>
</g>
<!-- Node6 -->
<g id="node6" class="node"><title>Node6</title>
<g id="a_node6"><a xlink:href="../../d0/d72/classfrontend_1_1_concrete_features_1_1_reset.html#ab7b13b161309fd31ad8c3faeacec0986" target="_top" xlink:title="frontend.ConcreteFeatures.\lReset.action">
<polygon fill="white" stroke="black" points="423,-235 423,-265 571,-265 571,-235 423,-235"/>
<text text-anchor="start" x="431" y="-253" font-family="Helvetica,sans-Serif" font-size="10.00">frontend.ConcreteFeatures.</text>
<text text-anchor="middle" x="497" y="-242" font-family="Helvetica,sans-Serif" font-size="10.00">Reset.action</text>
</a>
</g>
</g>
<!-- Node2&#45;&gt;Node6 -->
<g id="edge5" class="edge"><title>Node2&#45;&gt;Node6</title>
<path fill="none" stroke="midnightblue" d="M347.965,-218.185C373.46,-223.665 401.457,-229.682 426.175,-234.994"/>
<polygon fill="midnightblue" stroke="midnightblue" points="348.469,-214.714 337.957,-216.035 346.998,-221.558 348.469,-214.714"/>
</g>
<!-- Node7 -->
<g id="node7" class="node"><title>Node7</title>
<g id="a_node7"><a xlink:href="../../d6/d89/classfrontend_1_1_concrete_features_1_1_set_line_color.html#add708f64c58cef9f6a09b1eaa9431253" target="_top" xlink:title="frontend.ConcreteFeatures.\lSetLineColor.action">
<polygon fill="white" stroke="black" points="423,-186 423,-216 571,-216 571,-186 423,-186"/>
<text text-anchor="start" x="431" y="-204" font-family="Helvetica,sans-Serif" font-size="10.00">frontend.ConcreteFeatures.</text>
<text text-anchor="middle" x="497" y="-193" font-family="Helvetica,sans-Serif" font-size="10.00">SetLineColor.action</text>
</a>
</g>
</g>
<!-- Node2&#45;&gt;Node7 -->
<g id="edge6" class="edge"><title>Node2&#45;&gt;Node7</title>
<path fill="none" stroke="midnightblue" d="M363.241,-201C383.164,-201 403.872,-201 422.842,-201"/>
<polygon fill="midnightblue" stroke="midnightblue" points="363.223,-197.5 353.223,-201 363.223,-204.5 363.223,-197.5"/>
</g>
<!-- Node8 -->
<g id="node8" class="node"><title>Node8</title>
<g id="a_node8"><a xlink:href="../../d0/d3e/classfrontend_1_1_concrete_features_1_1_turtle_changer.html#a61a656e67b68f3aff1d55cad3cd823d6" target="_top" xlink:title="frontend.ConcreteFeatures.\lTurtleChanger.doDropDownClickAction">
<polygon fill="white" stroke="black" points="398,-137 398,-167 596,-167 596,-137 398,-137"/>
<text text-anchor="start" x="406" y="-155" font-family="Helvetica,sans-Serif" font-size="10.00">frontend.ConcreteFeatures.</text>
<text text-anchor="middle" x="497" y="-144" font-family="Helvetica,sans-Serif" font-size="10.00">TurtleChanger.doDropDownClickAction</text>
</a>
</g>
</g>
<!-- Node2&#45;&gt;Node8 -->
<g id="edge7" class="edge"><title>Node2&#45;&gt;Node8</title>
<path fill="none" stroke="midnightblue" d="M347.965,-183.815C373.46,-178.335 401.457,-172.318 426.175,-167.006"/>
<polygon fill="midnightblue" stroke="midnightblue" points="346.998,-180.442 337.957,-185.965 348.469,-187.286 346.998,-180.442"/>
</g>
<!-- Node9 -->
<g id="node9" class="node"><title>Node9</title>
<g id="a_node9"><a xlink:href="../../d3/dc9/classfrontend_1_1_concrete_features_1_1_turtle_stats_window.html#ac10aeedb8611acaf30a7eab04d2a59db" target="_top" xlink:title="frontend.ConcreteFeatures.\lTurtleStatsWindow.updatePane">
<polygon fill="white" stroke="black" points="416,-88 416,-118 578,-118 578,-88 416,-88"/>
<text text-anchor="start" x="424" y="-106" font-family="Helvetica,sans-Serif" font-size="10.00">frontend.ConcreteFeatures.</text>
<text text-anchor="middle" x="497" y="-95" font-family="Helvetica,sans-Serif" font-size="10.00">TurtleStatsWindow.updatePane</text>
</a>
</g>
</g>
<!-- Node2&#45;&gt;Node9 -->
<g id="edge8" class="edge"><title>Node2&#45;&gt;Node9</title>
<path fill="none" stroke="midnightblue" d="M325.274,-182.116C337.86,-176.818 350.772,-170.433 362,-163 380.867,-150.509 378.283,-138.101 398,-127 404.105,-123.562 410.696,-120.613 417.47,-118.084"/>
<polygon fill="midnightblue" stroke="midnightblue" points="323.713,-178.971 315.746,-185.955 326.329,-185.464 323.713,-178.971"/>
</g>
<!-- Node10 -->
<g id="node10" class="node"><title>Node10</title>
<g id="a_node10"><a xlink:href="../../d3/d17/classturtle_classes_1_1_turtle_mover.html#a955db4be8fe596975332813b98a0cecf" target="_top" xlink:title="turtleClasses.TurtleMover.start\lDrawing">
<polygon fill="white" stroke="black" points="416.5,-39 416.5,-69 577.5,-69 577.5,-39 416.5,-39"/>
<text text-anchor="start" x="424.5" y="-57" font-family="Helvetica,sans-Serif" font-size="10.00">turtleClasses.TurtleMover.start</text>
<text text-anchor="middle" x="497" y="-46" font-family="Helvetica,sans-Serif" font-size="10.00">Drawing</text>
</a>
</g>
</g>
<!-- Node2&#45;&gt;Node10 -->
<g id="edge9" class="edge"><title>Node2&#45;&gt;Node10</title>
<path fill="none" stroke="midnightblue" d="M335.087,-181.612C344.925,-176.679 354.314,-170.561 362,-163 391.248,-134.23 366.758,-104.592 398,-78 403.469,-73.345 409.7,-69.5654 416.308,-66.5003"/>
<polygon fill="midnightblue" stroke="midnightblue" points="333.581,-178.452 325.963,-185.816 336.51,-184.81 333.581,-178.452"/>
</g>
<!-- Node11 -->
<g id="node11" class="node"><title>Node11</title>
<g id="a_node11"><a xlink:href="../../d8/dc1/classfrontend_1_1_concrete_features_1_1_command_executer.html#a14b9b724db30e6cc89f62304f7bf40b2" target="_top" xlink:title="frontend.ConcreteFeatures.\lCommandExecuter.action">
<polygon fill="white" stroke="black" points="656,-88 656,-118 804,-118 804,-88 656,-88"/>
<text text-anchor="start" x="664" y="-106" font-family="Helvetica,sans-Serif" font-size="10.00">frontend.ConcreteFeatures.</text>
<text text-anchor="middle" x="730" y="-95" font-family="Helvetica,sans-Serif" font-size="10.00">CommandExecuter.action</text>
</a>
</g>
</g>
<!-- Node10&#45;&gt;Node11 -->
<g id="edge10" class="edge"><title>Node10&#45;&gt;Node11</title>
<path fill="none" stroke="midnightblue" d="M578.674,-71.1127C604.597,-76.6115 633.102,-82.658 658.257,-87.9938"/>
<polygon fill="midnightblue" stroke="midnightblue" points="579.386,-67.6859 568.877,-69.0346 577.934,-74.5336 579.386,-67.6859"/>
</g>
<!-- Node12 -->
<g id="node12" class="node"><title>Node12</title>
<g id="a_node12"><a xlink:href="../../de/d9f/classfrontend_1_1_concrete_features_1_1_load_s_logo_file.html#aa491ddd476ad22ed21a358b21c01605f" target="_top" xlink:title="frontend.ConcreteFeatures.\lLoadSLogoFile.action">
<polygon fill="white" stroke="black" points="656,-39 656,-69 804,-69 804,-39 656,-39"/>
<text text-anchor="start" x="664" y="-57" font-family="Helvetica,sans-Serif" font-size="10.00">frontend.ConcreteFeatures.</text>
<text text-anchor="middle" x="730" y="-46" font-family="Helvetica,sans-Serif" font-size="10.00">LoadSLogoFile.action</text>
</a>
</g>
</g>
<!-- Node10&#45;&gt;Node12 -->
<g id="edge11" class="edge"><title>Node10&#45;&gt;Node12</title>
<path fill="none" stroke="midnightblue" d="M588.022,-54C610.46,-54 634.247,-54 655.765,-54"/>
<polygon fill="midnightblue" stroke="midnightblue" points="587.821,-50.5001 577.821,-54 587.821,-57.5001 587.821,-50.5001"/>
</g>
<!-- Node13 -->
<g id="node13" class="node"><title>Node13</title>
<g id="a_node13"><a xlink:href="../../d7/d78/classturtle_classes_1_1_turtle_key_handler.html#a7dfe582e767f31105e84278d26dbc4c1" target="_top" xlink:title="turtleClasses.TurtleKeyHandler.handle">
<polygon fill="white" stroke="black" points="632,-0.5 632,-19.5 828,-19.5 828,-0.5 632,-0.5"/>
<text text-anchor="middle" x="730" y="-7.5" font-family="Helvetica,sans-Serif" font-size="10.00">turtleClasses.TurtleKeyHandler.handle</text>
</a>
</g>
</g>
<!-- Node10&#45;&gt;Node13 -->
<g id="edge12" class="edge"><title>Node10&#45;&gt;Node13</title>
<path fill="none" stroke="midnightblue" d="M586.89,-37.0686C618.146,-31.115 652.152,-24.6377 679.06,-19.5124"/>
<polygon fill="midnightblue" stroke="midnightblue" points="586.019,-33.6714 576.851,-38.9808 587.329,-40.5477 586.019,-33.6714"/>
</g>
<!-- Node15&#45;&gt;Node10 -->
<g id="edge15" class="edge"><title>Node15&#45;&gt;Node10</title>
<path fill="none" stroke="midnightblue" d="M372.256,-61.5983C387.062,-60.6892 402.09,-59.7664 416.329,-58.8921"/>
<polygon fill="midnightblue" stroke="midnightblue" points="371.819,-58.1184 362.053,-62.2248 372.248,-65.1053 371.819,-58.1184"/>
</g>
</g>
</svg>
