<?xml version="1.0" encoding="UTF-8" standalone="no"?>
<!DOCTYPE svg PUBLIC "-//W3C//DTD SVG 1.1//EN"
 "http://www.w3.org/Graphics/SVG/1.1/DTD/svg11.dtd">
<!-- Generated by graphviz version 2.36.0 (20140111.2315)
 -->
<!-- Title: turtleClasses.Turtle.setDirection Pages: 1 -->
<svg width="348pt" height="38pt"
 viewBox="0.00 0.00 348.00 38.00" xmlns="http://www.w3.org/2000/svg" xmlns:xlink="http://www.w3.org/1999/xlink">
<g id="graph0" class="graph" transform="scale(1 1) rotate(0) translate(4 34)">
<title>turtleClasses.Turtle.setDirection</title>
<polygon fill="white" stroke="none" points="-4,4 -4,-34 344,-34 344,4 -4,4"/>
<!-- Node1 -->
<g id="node1" class="node"><title>Node1</title>
<polygon fill="#bfbfbf" stroke="black" points="0.5,-0 0.5,-30 125.5,-30 125.5,-0 0.5,-0"/>
<text text-anchor="start" x="8.5" y="-18" font-family="Helvetica,sans-Serif" font-size="10.00">turtleClasses.Turtle.set</text>
<text text-anchor="middle" x="63" y="-7" font-family="Helvetica,sans-Serif" font-size="10.00">Direction</text>
</g>
<!-- Node2 -->
<g id="node2" class="node"><title>Node2</title>
<g id="a_node2"><a xlink:href="../../d6/d8f/classdisplay_commands_1_1_set_towards.html#a91f4f9fee7d7ad51b938afa3d8013611" target="_top" xlink:title="displayCommands.SetTowards.do\lAction">
<polygon fill="white" stroke="black" points="162.5,-0 162.5,-30 339.5,-30 339.5,-0 162.5,-0"/>
<text text-anchor="start" x="170.5" y="-18" font-family="Helvetica,sans-Serif" font-size="10.00">displayCommands.SetTowards.do</text>
<text text-anchor="middle" x="251" y="-7" font-family="Helvetica,sans-Serif" font-size="10.00">Action</text>
</a>
</g>
</g>
<!-- Node1&#45;&gt;Node2 -->
<g id="edge1" class="edge"><title>Node1&#45;&gt;Node2</title>
<path fill="none" stroke="midnightblue" d="M135.74,-15C144.432,-15 153.385,-15 162.274,-15"/>
<polygon fill="midnightblue" stroke="midnightblue" points="135.677,-11.5001 125.677,-15 135.677,-18.5001 135.677,-11.5001"/>
</g>
</g>
</svg>
