<?xml version="1.0" encoding="UTF-8" standalone="no"?>
<!DOCTYPE svg PUBLIC "-//W3C//DTD SVG 1.1//EN"
 "http://www.w3.org/Graphics/SVG/1.1/DTD/svg11.dtd">
<!-- Generated by graphviz version 2.36.0 (20140111.2315)
 -->
<!-- Title: turtleClasses.Turtle.handleActiveOutline Pages: 1 -->
<!--zoomable 437 -->
<svg id="main" version="1.1" xmlns="http://www.w3.org/2000/svg" xmlns:xlink="http://www.w3.org/1999/xlink" xml:space="preserve" onload="init(evt)">
<style type="text/css"><![CDATA[
.edge:hover path { stroke: red; }
.edge:hover polygon { stroke: red; fill: red; }
]]></style>
<script type="text/javascript"><![CDATA[
var edges = document.getElementsByTagName('g');
if (edges && edges.length) {
  for (var i=0;i<edges.length;i++) {
    if (edges[i].id.substr(0,4)=='edge') {
      edges[i].setAttribute('class','edge');
    }
  }
}
]]></script>
        <defs>
                <circle id="rim" cx="0" cy="0" r="7"/>
                <circle id="rim2" cx="0" cy="0" r="3.5"/>
                <g id="zoomPlus">
                        <use xlink:href="#rim" fill="#404040">
                                <set attributeName="fill" to="#808080" begin="zoomplus.mouseover" end="zoomplus.mouseout"/>
                        </use>
                        <path d="M-4,0h8M0,-4v8" fill="none" stroke="white" stroke-width="1.5" pointer-events="none"/>
                </g>
                <g id="zoomMin">
                        <use xlink:href="#rim" fill="#404040">
                                <set attributeName="fill" to="#808080" begin="zoomminus.mouseover" end="zoomminus.mouseout"/>
                        </use>
                        <path d="M-4,0h8" fill="none" stroke="white" stroke-width="1.5" pointer-events="none"/>
                </g>
                <g id="dirArrow">
                        <path fill="none" stroke="white" stroke-width="1.5" d="M0,-3.0v7 M-2.5,-0.5L0,-3.0L2.5,-0.5"/>
                </g>
               <g id="resetDef">
                       <use xlink:href="#rim2" fill="#404040">
                               <set attributeName="fill" to="#808080" begin="reset.mouseover" end="reset.mouseout"/>
                       </use>
               </g>
        </defs>

<script type="text/javascript">
var viewWidth = 988;
var viewHeight = 437;
var sectionId = 'dynsection-10';
</script>
<script xlink:href="../../svgpan.js"/>
<svg id="graph" class="graph">
<g id="viewport">
<title>turtleClasses.Turtle.handleActiveOutline</title>
<polygon fill="white" stroke="none" points="-4,4 -4,-433 984,-433 984,4 -4,4"/>
<!-- Node1 -->
<g id="node1" class="node"><title>Node1</title>
<polygon fill="#bfbfbf" stroke="black" points="0.5,-363 0.5,-393 143.5,-393 143.5,-363 0.5,-363"/>
<text text-anchor="start" x="8.5" y="-381" font-family="Helvetica,sans-Serif" font-size="10.00">turtleClasses.Turtle.handle</text>
<text text-anchor="middle" x="72" y="-370" font-family="Helvetica,sans-Serif" font-size="10.00">ActiveOutline</text>
</g>
<!-- Node2 -->
<g id="node2" class="node"><title>Node2</title>
<g id="a_node2"><a xlink:href="../../d8/d89/classturtle_classes_1_1_turtle.html#a2d3828dbca854624cc75fca5aa65b4c5" target="_top" xlink:title="turtleClasses.Turtle.set\lActive">
<polygon fill="white" stroke="black" points="180.5,-319 180.5,-349 305.5,-349 305.5,-319 180.5,-319"/>
<text text-anchor="start" x="188.5" y="-337" font-family="Helvetica,sans-Serif" font-size="10.00">turtleClasses.Turtle.set</text>
<text text-anchor="middle" x="243" y="-326" font-family="Helvetica,sans-Serif" font-size="10.00">Active</text>
</a>
</g>
</g>
<!-- Node1&#45;&gt;Node2 -->
<g id="edge1" class="edge"><title>Node1&#45;&gt;Node2</title>
<path fill="none" stroke="midnightblue" d="M140.577,-360.406C155.054,-356.637 170.222,-352.688 184.286,-349.026"/>
<polygon fill="midnightblue" stroke="midnightblue" points="139.483,-357.074 130.688,-362.981 141.247,-363.848 139.483,-357.074"/>
</g>
<!-- Node3 -->
<g id="node3" class="node"><title>Node3</title>
<g id="a_node3"><a xlink:href="../../d8/d89/classturtle_classes_1_1_turtle.html#ab95a54f66d8824ececa5f3dd2394ac3a" target="_top" xlink:title="turtleClasses.Turtle.toggle\lActive">
<polygon fill="white" stroke="black" points="358,-360 358,-390 498,-390 498,-360 358,-360"/>
<text text-anchor="start" x="366" y="-378" font-family="Helvetica,sans-Serif" font-size="10.00">turtleClasses.Turtle.toggle</text>
<text text-anchor="middle" x="428" y="-367" font-family="Helvetica,sans-Serif" font-size="10.00">Active</text>
</a>
</g>
</g>
<!-- Node1&#45;&gt;Node3 -->
<g id="edge16" class="edge"><title>Node1&#45;&gt;Node3</title>
<path fill="none" stroke="midnightblue" d="M153.858,-377.315C215.452,-376.793 299.345,-376.082 357.843,-375.586"/>
<polygon fill="midnightblue" stroke="midnightblue" points="153.756,-373.815 143.786,-377.4 153.816,-380.815 153.756,-373.815"/>
</g>
<!-- Node4 -->
<g id="node4" class="node"><title>Node4</title>
<g id="a_node4"><a xlink:href="../../d8/d89/classturtle_classes_1_1_turtle.html#a1e1a7a5fffde6f8c7ce5cee72ad927b1" target="_top" xlink:title="turtleClasses.Turtle.Turtle">
<polygon fill="white" stroke="black" points="581,-409.5 581,-428.5 717,-428.5 717,-409.5 581,-409.5"/>
<text text-anchor="middle" x="649" y="-416.5" font-family="Helvetica,sans-Serif" font-size="10.00">turtleClasses.Turtle.Turtle</text>
</a>
</g>
</g>
<!-- Node1&#45;&gt;Node4 -->
<g id="edge17" class="edge"><title>Node1&#45;&gt;Node4</title>
<path fill="none" stroke="midnightblue" d="M153.716,-387.486C162.579,-388.398 171.476,-389.258 180,-390 322.532,-402.401 489.936,-411.443 580.884,-415.893"/>
<polygon fill="midnightblue" stroke="midnightblue" points="154.056,-384.002 143.744,-386.437 153.323,-390.964 154.056,-384.002"/>
</g>
<!-- Node2&#45;&gt;Node3 -->
<g id="edge2" class="edge"><title>Node2&#45;&gt;Node3</title>
<path fill="none" stroke="midnightblue" d="M315.657,-350.054C330.231,-353.319 345.51,-356.743 359.917,-359.97"/>
<polygon fill="midnightblue" stroke="midnightblue" points="316.224,-346.595 305.7,-347.824 314.693,-353.425 316.224,-346.595"/>
</g>
<!-- Node5 -->
<g id="node5" class="node"><title>Node5</title>
<g id="a_node5"><a xlink:href="../../d4/d7e/classturtle_classes_1_1_turtle_collection.html#a61f007615f0fd523dae94957f8022100" target="_top" xlink:title="turtleClasses.TurtleCollection.set\lActiveTurtles">
<polygon fill="white" stroke="black" points="342,-235 342,-265 514,-265 514,-235 342,-235"/>
<text text-anchor="start" x="350" y="-253" font-family="Helvetica,sans-Serif" font-size="10.00">turtleClasses.TurtleCollection.set</text>
<text text-anchor="middle" x="428" y="-242" font-family="Helvetica,sans-Serif" font-size="10.00">ActiveTurtles</text>
</a>
</g>
</g>
<!-- Node2&#45;&gt;Node5 -->
<g id="edge4" class="edge"><title>Node2&#45;&gt;Node5</title>
<path fill="none" stroke="midnightblue" d="M286.075,-314.687C318.964,-299.59 364.027,-278.906 394.259,-265.029"/>
<polygon fill="midnightblue" stroke="midnightblue" points="284.345,-311.63 276.717,-318.982 287.265,-317.992 284.345,-311.63"/>
</g>
<!-- Node3&#45;&gt;Node4 -->
<g id="edge3" class="edge"><title>Node3&#45;&gt;Node4</title>
<path fill="none" stroke="midnightblue" d="M508.134,-391.495C522.078,-394.36 536.46,-397.289 550,-400 565.634,-403.13 582.688,-406.465 598.122,-409.452"/>
<polygon fill="midnightblue" stroke="midnightblue" points="508.577,-388.013 498.077,-389.424 507.165,-394.869 508.577,-388.013"/>
</g>
<!-- Node6 -->
<g id="node6" class="node"><title>Node6</title>
<g id="a_node6"><a xlink:href="../../dc/d9a/classdisplay_commands_1_1_ask.html#a8b9d7e789a2cd29220b440ae03c70432" target="_top" xlink:title="displayCommands.Ask.doAction">
<polygon fill="white" stroke="black" points="564,-371.5 564,-390.5 734,-390.5 734,-371.5 564,-371.5"/>
<text text-anchor="middle" x="649" y="-378.5" font-family="Helvetica,sans-Serif" font-size="10.00">displayCommands.Ask.doAction</text>
</a>
</g>
</g>
<!-- Node5&#45;&gt;Node6 -->
<g id="edge5" class="edge"><title>Node5&#45;&gt;Node6</title>
<path fill="none" stroke="midnightblue" d="M446.921,-272.973C468.476,-298.899 507.148,-340.279 550,-362 557.652,-365.879 566.009,-368.968 574.511,-371.428"/>
<polygon fill="midnightblue" stroke="midnightblue" points="449.571,-270.684 440.541,-265.143 444.145,-275.106 449.571,-270.684"/>
</g>
<!-- Node7 -->
<g id="node7" class="node"><title>Node7</title>
<g id="a_node7"><a xlink:href="../../d9/d2b/classdisplay_commands_1_1_tell.html#a47e19aa9c97125a95f06c67dc189fc53" target="_top" xlink:title="displayCommands.Tell.doAction">
<polygon fill="white" stroke="black" points="565.5,-333.5 565.5,-352.5 732.5,-352.5 732.5,-333.5 565.5,-333.5"/>
<text text-anchor="middle" x="649" y="-340.5" font-family="Helvetica,sans-Serif" font-size="10.00">displayCommands.Tell.doAction</text>
</a>
</g>
</g>
<!-- Node5&#45;&gt;Node7 -->
<g id="edge6" class="edge"><title>Node5&#45;&gt;Node7</title>
<path fill="none" stroke="midnightblue" d="M457.45,-271.019C481.092,-287.51 516.21,-309.813 550,-323 561.081,-327.324 573.248,-330.767 585.127,-333.489"/>
<polygon fill="midnightblue" stroke="midnightblue" points="459.466,-268.158 449.283,-265.234 455.42,-273.87 459.466,-268.158"/>
</g>
<!-- Node8 -->
<g id="node8" class="node"><title>Node8</title>
<g id="a_node8"><a xlink:href="../../d4/d4a/classfrontend_1_1_concrete_features_1_1_change_line_width.html#adde04d20814309d03954f834f7bc9af0" target="_top" xlink:title="frontend.ConcreteFeatures.\lChangeLineWidth.action">
<polygon fill="white" stroke="black" points="575,-284 575,-314 723,-314 723,-284 575,-284"/>
<text text-anchor="start" x="583" y="-302" font-family="Helvetica,sans-Serif" font-size="10.00">frontend.ConcreteFeatures.</text>
<text text-anchor="middle" x="649" y="-291" font-family="Helvetica,sans-Serif" font-size="10.00">ChangeLineWidth.action</text>
</a>
</g>
</g>
<!-- Node5&#45;&gt;Node8 -->
<g id="edge7" class="edge"><title>Node5&#45;&gt;Node8</title>
<path fill="none" stroke="midnightblue" d="M506.133,-267.258C530.535,-272.718 557.294,-278.705 580.932,-283.994"/>
<polygon fill="midnightblue" stroke="midnightblue" points="506.718,-263.803 496.196,-265.035 505.19,-270.634 506.718,-263.803"/>
</g>
<!-- Node9 -->
<g id="node9" class="node"><title>Node9</title>
<g id="a_node9"><a xlink:href="../../d0/d72/classfrontend_1_1_concrete_features_1_1_reset.html#ab7b13b161309fd31ad8c3faeacec0986" target="_top" xlink:title="frontend.ConcreteFeatures.\lReset.action">
<polygon fill="white" stroke="black" points="575,-235 575,-265 723,-265 723,-235 575,-235"/>
<text text-anchor="start" x="583" y="-253" font-family="Helvetica,sans-Serif" font-size="10.00">frontend.ConcreteFeatures.</text>
<text text-anchor="middle" x="649" y="-242" font-family="Helvetica,sans-Serif" font-size="10.00">Reset.action</text>
</a>
</g>
</g>
<!-- Node5&#45;&gt;Node9 -->
<g id="edge8" class="edge"><title>Node5&#45;&gt;Node9</title>
<path fill="none" stroke="midnightblue" d="M524.664,-250C541.425,-250 558.627,-250 574.662,-250"/>
<polygon fill="midnightblue" stroke="midnightblue" points="524.298,-246.5 514.298,-250 524.298,-253.5 524.298,-246.5"/>
</g>
<!-- Node10 -->
<g id="node10" class="node"><title>Node10</title>
<g id="a_node10"><a xlink:href="../../d6/d89/classfrontend_1_1_concrete_features_1_1_set_line_color.html#add708f64c58cef9f6a09b1eaa9431253" target="_top" xlink:title="frontend.ConcreteFeatures.\lSetLineColor.action">
<polygon fill="white" stroke="black" points="575,-186 575,-216 723,-216 723,-186 575,-186"/>
<text text-anchor="start" x="583" y="-204" font-family="Helvetica,sans-Serif" font-size="10.00">frontend.ConcreteFeatures.</text>
<text text-anchor="middle" x="649" y="-193" font-family="Helvetica,sans-Serif" font-size="10.00">SetLineColor.action</text>
</a>
</g>
</g>
<!-- Node5&#45;&gt;Node10 -->
<g id="edge9" class="edge"><title>Node5&#45;&gt;Node10</title>
<path fill="none" stroke="midnightblue" d="M506.133,-232.742C530.535,-227.282 557.294,-221.295 580.932,-216.006"/>
<polygon fill="midnightblue" stroke="midnightblue" points="505.19,-229.366 496.196,-234.965 506.718,-236.197 505.19,-229.366"/>
</g>
<!-- Node11 -->
<g id="node11" class="node"><title>Node11</title>
<g id="a_node11"><a xlink:href="../../d0/d3e/classfrontend_1_1_concrete_features_1_1_turtle_changer.html#a61a656e67b68f3aff1d55cad3cd823d6" target="_top" xlink:title="frontend.ConcreteFeatures.\lTurtleChanger.doDropDownClickAction">
<polygon fill="white" stroke="black" points="550,-137 550,-167 748,-167 748,-137 550,-137"/>
<text text-anchor="start" x="558" y="-155" font-family="Helvetica,sans-Serif" font-size="10.00">frontend.ConcreteFeatures.</text>
<text text-anchor="middle" x="649" y="-144" font-family="Helvetica,sans-Serif" font-size="10.00">TurtleChanger.doDropDownClickAction</text>
</a>
</g>
</g>
<!-- Node5&#45;&gt;Node11 -->
<g id="edge10" class="edge"><title>Node5&#45;&gt;Node11</title>
<path fill="none" stroke="midnightblue" d="M458.37,-228.91C482.101,-212.718 516.887,-190.856 550,-177 558.99,-173.238 568.688,-169.932 578.364,-167.062"/>
<polygon fill="midnightblue" stroke="midnightblue" points="456.075,-226.241 449.842,-234.809 460.057,-231.998 456.075,-226.241"/>
</g>
<!-- Node12 -->
<g id="node12" class="node"><title>Node12</title>
<g id="a_node12"><a xlink:href="../../d3/dc9/classfrontend_1_1_concrete_features_1_1_turtle_stats_window.html#ac10aeedb8611acaf30a7eab04d2a59db" target="_top" xlink:title="frontend.ConcreteFeatures.\lTurtleStatsWindow.updatePane">
<polygon fill="white" stroke="black" points="568,-88 568,-118 730,-118 730,-88 568,-88"/>
<text text-anchor="start" x="576" y="-106" font-family="Helvetica,sans-Serif" font-size="10.00">frontend.ConcreteFeatures.</text>
<text text-anchor="middle" x="649" y="-95" font-family="Helvetica,sans-Serif" font-size="10.00">TurtleStatsWindow.updatePane</text>
</a>
</g>
</g>
<!-- Node5&#45;&gt;Node12 -->
<g id="edge11" class="edge"><title>Node5&#45;&gt;Node12</title>
<path fill="none" stroke="midnightblue" d="M446.023,-226.296C467.231,-198.527 506.074,-153.13 550,-128 556.782,-124.12 564.168,-120.833 571.742,-118.051"/>
<polygon fill="midnightblue" stroke="midnightblue" points="442.964,-224.541 439.773,-234.644 448.568,-228.737 442.964,-224.541"/>
</g>
<!-- Node13 -->
<g id="node13" class="node"><title>Node13</title>
<g id="a_node13"><a xlink:href="../../d3/d17/classturtle_classes_1_1_turtle_mover.html#a955db4be8fe596975332813b98a0cecf" target="_top" xlink:title="turtleClasses.TurtleMover.start\lDrawing">
<polygon fill="white" stroke="black" points="568.5,-39 568.5,-69 729.5,-69 729.5,-39 568.5,-39"/>
<text text-anchor="start" x="576.5" y="-57" font-family="Helvetica,sans-Serif" font-size="10.00">turtleClasses.TurtleMover.start</text>
<text text-anchor="middle" x="649" y="-46" font-family="Helvetica,sans-Serif" font-size="10.00">Drawing</text>
</a>
</g>
</g>
<!-- Node5&#45;&gt;Node13 -->
<g id="edge12" class="edge"><title>Node5&#45;&gt;Node13</title>
<path fill="none" stroke="midnightblue" d="M439.277,-225.574C456.45,-187.84 494.638,-115.79 550,-78 555.642,-74.1486 561.84,-70.9136 568.293,-68.1967"/>
<polygon fill="midnightblue" stroke="midnightblue" points="436.032,-224.259 435.179,-234.819 442.431,-227.095 436.032,-224.259"/>
</g>
<!-- Node14 -->
<g id="node14" class="node"><title>Node14</title>
<g id="a_node14"><a xlink:href="../../d8/dc1/classfrontend_1_1_concrete_features_1_1_command_executer.html#a14b9b724db30e6cc89f62304f7bf40b2" target="_top" xlink:title="frontend.ConcreteFeatures.\lCommandExecuter.action">
<polygon fill="white" stroke="black" points="808,-88 808,-118 956,-118 956,-88 808,-88"/>
<text text-anchor="start" x="816" y="-106" font-family="Helvetica,sans-Serif" font-size="10.00">frontend.ConcreteFeatures.</text>
<text text-anchor="middle" x="882" y="-95" font-family="Helvetica,sans-Serif" font-size="10.00">CommandExecuter.action</text>
</a>
</g>
</g>
<!-- Node13&#45;&gt;Node14 -->
<g id="edge13" class="edge"><title>Node13&#45;&gt;Node14</title>
<path fill="none" stroke="midnightblue" d="M730.674,-71.1127C756.597,-76.6115 785.102,-82.658 810.257,-87.9938"/>
<polygon fill="midnightblue" stroke="midnightblue" points="731.386,-67.6859 720.877,-69.0346 729.934,-74.5336 731.386,-67.6859"/>
</g>
<!-- Node15 -->
<g id="node15" class="node"><title>Node15</title>
<g id="a_node15"><a xlink:href="../../de/d9f/classfrontend_1_1_concrete_features_1_1_load_s_logo_file.html#aa491ddd476ad22ed21a358b21c01605f" target="_top" xlink:title="frontend.ConcreteFeatures.\lLoadSLogoFile.action">
<polygon fill="white" stroke="black" points="808,-39 808,-69 956,-69 956,-39 808,-39"/>
<text text-anchor="start" x="816" y="-57" font-family="Helvetica,sans-Serif" font-size="10.00">frontend.ConcreteFeatures.</text>
<text text-anchor="middle" x="882" y="-46" font-family="Helvetica,sans-Serif" font-size="10.00">LoadSLogoFile.action</text>
</a>
</g>
</g>
<!-- Node13&#45;&gt;Node15 -->
<g id="edge14" class="edge"><title>Node13&#45;&gt;Node15</title>
<path fill="none" stroke="midnightblue" d="M740.022,-54C762.46,-54 786.247,-54 807.765,-54"/>
<polygon fill="midnightblue" stroke="midnightblue" points="739.821,-50.5001 729.821,-54 739.821,-57.5001 739.821,-50.5001"/>
</g>
<!-- Node16 -->
<g id="node16" class="node"><title>Node16</title>
<g id="a_node16"><a xlink:href="../../d7/d78/classturtle_classes_1_1_turtle_key_handler.html#a7dfe582e767f31105e84278d26dbc4c1" target="_top" xlink:title="turtleClasses.TurtleKeyHandler.handle">
<polygon fill="white" stroke="black" points="784,-0.5 784,-19.5 980,-19.5 980,-0.5 784,-0.5"/>
<text text-anchor="middle" x="882" y="-7.5" font-family="Helvetica,sans-Serif" font-size="10.00">turtleClasses.TurtleKeyHandler.handle</text>
</a>
</g>
</g>
<!-- Node13&#45;&gt;Node16 -->
<g id="edge15" class="edge"><title>Node13&#45;&gt;Node16</title>
<path fill="none" stroke="midnightblue" d="M738.89,-37.0686C770.146,-31.115 804.152,-24.6377 831.06,-19.5124"/>
<polygon fill="midnightblue" stroke="midnightblue" points="738.019,-33.6714 728.851,-38.9808 739.329,-40.5477 738.019,-33.6714"/>
</g>
</g>
</svg>
        <g id="navigator" transform="translate(0 0)" fill="#404254">
                <rect fill="#f2f5e9" fill-opacity="0.5" stroke="#606060" stroke-width=".5" x="0" y="0" width="60" height="60"/>
                <use id="zoomplus" xlink:href="#zoomPlus" x="17" y="9" onmousedown="handleZoom(evt,'in')"/>
                <use id="zoomminus" xlink:href="#zoomMin" x="42" y="9" onmousedown="handleZoom(evt,'out')"/>
                <use id="reset" xlink:href="#resetDef" x="30" y="36" onmousedown="handleReset()"/>
                <g id="arrowUp" xlink:href="#dirArrow" transform="translate(30 24)" onmousedown="handlePan(0,-1)">
                  <use xlink:href="#rim" fill="#404040">
                        <set attributeName="fill" to="#808080" begin="arrowUp.mouseover" end="arrowUp.mouseout"/>
                  </use>
                  <path fill="none" stroke="white" stroke-width="1.5" d="M0,-3.0v7 M-2.5,-0.5L0,-3.0L2.5,-0.5"/>
                </g>
                <g id="arrowRight" xlink:href="#dirArrow" transform="rotate(90) translate(36 -43)" onmousedown="handlePan(1,0)">
                  <use xlink:href="#rim" fill="#404040">
                        <set attributeName="fill" to="#808080" begin="arrowRight.mouseover" end="arrowRight.mouseout"/>
                  </use>
                  <path fill="none" stroke="white" stroke-width="1.5" d="M0,-3.0v7 M-2.5,-0.5L0,-3.0L2.5,-0.5"/>
                </g>
                <g id="arrowDown" xlink:href="#dirArrow" transform="rotate(180) translate(-30 -48)" onmousedown="handlePan(0,1)">
                  <use xlink:href="#rim" fill="#404040">
                        <set attributeName="fill" to="#808080" begin="arrowDown.mouseover" end="arrowDown.mouseout"/>
                  </use>
                  <path fill="none" stroke="white" stroke-width="1.5" d="M0,-3.0v7 M-2.5,-0.5L0,-3.0L2.5,-0.5"/>
                </g>
                <g id="arrowLeft" xlink:href="#dirArrow" transform="rotate(270) translate(-36 17)" onmousedown="handlePan(-1,0)">
                  <use xlink:href="#rim" fill="#404040">
                        <set attributeName="fill" to="#808080" begin="arrowLeft.mouseover" end="arrowLeft.mouseout"/>
                  </use>
                  <path fill="none" stroke="white" stroke-width="1.5" d="M0,-3.0v7 M-2.5,-0.5L0,-3.0L2.5,-0.5"/>
                </g>
        </g>
        <svg viewBox="0 0 15 15" width="100%" height="30px" preserveAspectRatio="xMaxYMin meet">
         <g id="arrow_out" transform="scale(0.3 0.3)">
          <a xlink:href="classturtle_classes_1_1_turtle_abd769212afc56f042db3d4b5ee33790e_icgraph_org.svg" target="_base">
           <rect id="button" ry="5" rx="5" y="6" x="6" height="38" width="38"
                fill="#f2f5e9" fill-opacity="0.5" stroke="#606060" stroke-width="1.0"/>
           <path id="arrow"
             d="M 11.500037,31.436501 C 11.940474,20.09759 22.043105,11.32322 32.158766,21.979434 L 37.068811,17.246167 C 37.068811,17.246167 37.088388,32 37.088388,32 L 22.160133,31.978069 C 22.160133,31.978069 26.997745,27.140456 26.997745,27.140456 C 18.528582,18.264221 13.291696,25.230495 11.500037,31.436501 z"
             style="fill:#404040;"/>
          </a>
         </g>
        </svg>
</svg>
