<?xml version="1.0" encoding="UTF-8" standalone="no"?>
<!DOCTYPE svg PUBLIC "-//W3C//DTD SVG 1.1//EN"
 "http://www.w3.org/Graphics/SVG/1.1/DTD/svg11.dtd">
<!-- Generated by graphviz version 2.36.0 (20140111.2315)
 -->
<!-- Title: turtleClasses.Turtle.goToCoord Pages: 1 -->
<svg width="530pt" height="77pt"
 viewBox="0.00 0.00 530.00 77.00" xmlns="http://www.w3.org/2000/svg" xmlns:xlink="http://www.w3.org/1999/xlink">
<g id="graph0" class="graph" transform="scale(1 1) rotate(0) translate(4 73)">
<title>turtleClasses.Turtle.goToCoord</title>
<polygon fill="white" stroke="none" points="-4,4 -4,-73 526,-73 526,4 -4,4"/>
<!-- Node1 -->
<g id="node1" class="node"><title>Node1</title>
<polygon fill="#bfbfbf" stroke="black" points="0,-17 0,-47 132,-47 132,-17 0,-17"/>
<text text-anchor="start" x="8" y="-35" font-family="Helvetica,sans-Serif" font-size="10.00">turtleClasses.Turtle.goTo</text>
<text text-anchor="middle" x="66" y="-24" font-family="Helvetica,sans-Serif" font-size="10.00">Coord</text>
</g>
<!-- Node2 -->
<g id="node2" class="node"><title>Node2</title>
<g id="a_node2"><a xlink:href="../../d8/d89/classturtle_classes_1_1_turtle.html#a53d9176187343ac218a61f6fac465311" target="_top" xlink:title="turtleClasses.Turtle.reset\lPosition">
<polygon fill="white" stroke="black" points="168.5,-17 168.5,-47 303.5,-47 303.5,-17 168.5,-17"/>
<text text-anchor="start" x="176.5" y="-35" font-family="Helvetica,sans-Serif" font-size="10.00">turtleClasses.Turtle.reset</text>
<text text-anchor="middle" x="236" y="-24" font-family="Helvetica,sans-Serif" font-size="10.00">Position</text>
</a>
</g>
</g>
<!-- Node1&#45;&gt;Node2 -->
<g id="edge1" class="edge"><title>Node1&#45;&gt;Node2</title>
<path fill="none" stroke="midnightblue" d="M142.484,-32C151.112,-32 159.86,-32 168.361,-32"/>
<polygon fill="midnightblue" stroke="midnightblue" points="142.434,-28.5001 132.434,-32 142.434,-35.5001 142.434,-28.5001"/>
</g>
<!-- Node3 -->
<g id="node3" class="node"><title>Node3</title>
<g id="a_node3"><a xlink:href="../../d6/dc6/classdisplay_commands_1_1_clear_screen.html#a16dad5bd8da6feccf5189f224fa90ca8" target="_top" xlink:title="displayCommands.ClearScreen.do\lAction">
<polygon fill="white" stroke="black" points="340,-39 340,-69 522,-69 522,-39 340,-39"/>
<text text-anchor="start" x="348" y="-57" font-family="Helvetica,sans-Serif" font-size="10.00">displayCommands.ClearScreen.do</text>
<text text-anchor="middle" x="431" y="-46" font-family="Helvetica,sans-Serif" font-size="10.00">Action</text>
</a>
</g>
</g>
<!-- Node2&#45;&gt;Node3 -->
<g id="edge2" class="edge"><title>Node2&#45;&gt;Node3</title>
<path fill="none" stroke="midnightblue" d="M313.662,-40.7387C322.258,-41.7185 331.072,-42.7233 339.818,-43.7202"/>
<polygon fill="midnightblue" stroke="midnightblue" points="314.022,-37.2571 303.69,-39.602 313.229,-44.2121 314.022,-37.2571"/>
</g>
<!-- Node4 -->
<g id="node4" class="node"><title>Node4</title>
<g id="a_node4"><a xlink:href="../../d7/d1e/classdisplay_commands_1_1_home.html#af60bb4a9108d53104f7974dd6a6a2529" target="_top" xlink:title="displayCommands.Home.doAction">
<polygon fill="white" stroke="black" points="340,-0.5 340,-19.5 522,-19.5 522,-0.5 340,-0.5"/>
<text text-anchor="middle" x="431" y="-7.5" font-family="Helvetica,sans-Serif" font-size="10.00">displayCommands.Home.doAction</text>
</a>
</g>
</g>
<!-- Node2&#45;&gt;Node4 -->
<g id="edge3" class="edge"><title>Node2&#45;&gt;Node4</title>
<path fill="none" stroke="midnightblue" d="M313.885,-23.2359C324.646,-22.0093 335.747,-20.7439 346.622,-19.5043"/>
<polygon fill="midnightblue" stroke="midnightblue" points="313.229,-19.7879 303.69,-24.398 314.022,-26.7429 313.229,-19.7879"/>
</g>
</g>
</svg>
