<?xml version="1.0" encoding="UTF-8" standalone="no"?>
<!DOCTYPE svg PUBLIC "-//W3C//DTD SVG 1.1//EN"
 "http://www.w3.org/Graphics/SVG/1.1/DTD/svg11.dtd">
<!-- Generated by graphviz version 2.36.0 (20140111.2315)
 -->
<!-- Title: turtleClasses.Turtle.handleDirection Pages: 1 -->
<svg width="542pt" height="126pt"
 viewBox="0.00 0.00 542.00 126.00" xmlns="http://www.w3.org/2000/svg" xmlns:xlink="http://www.w3.org/1999/xlink">
<g id="graph0" class="graph" transform="scale(1 1) rotate(0) translate(4 122)">
<title>turtleClasses.Turtle.handleDirection</title>
<polygon fill="white" stroke="none" points="-4,4 -4,-122 538,-122 538,4 -4,4"/>
<!-- Node1 -->
<g id="node1" class="node"><title>Node1</title>
<polygon fill="#bfbfbf" stroke="black" points="0.5,-26 0.5,-56 143.5,-56 143.5,-26 0.5,-26"/>
<text text-anchor="start" x="8.5" y="-44" font-family="Helvetica,sans-Serif" font-size="10.00">turtleClasses.Turtle.handle</text>
<text text-anchor="middle" x="72" y="-33" font-family="Helvetica,sans-Serif" font-size="10.00">Direction</text>
</g>
<!-- Node2 -->
<g id="node2" class="node"><title>Node2</title>
<g id="a_node2"><a xlink:href="../../d8/d89/classturtle_classes_1_1_turtle.html#abe6e640dc9ac91a8dc2d88e24a4337cc" target="_top" xlink:title="turtleClasses.Turtle.rotate">
<polygon fill="white" stroke="black" points="180,-54.5 180,-73.5 320,-73.5 320,-54.5 180,-54.5"/>
<text text-anchor="middle" x="250" y="-61.5" font-family="Helvetica,sans-Serif" font-size="10.00">turtleClasses.Turtle.rotate</text>
</a>
</g>
</g>
<!-- Node1&#45;&gt;Node2 -->
<g id="edge1" class="edge"><title>Node1&#45;&gt;Node2</title>
<path fill="none" stroke="midnightblue" d="M153.744,-51.5517C162.463,-52.6913 171.279,-53.8433 179.845,-54.9627"/>
<polygon fill="midnightblue" stroke="midnightblue" points="153.941,-48.0478 143.572,-50.2225 153.034,-54.9888 153.941,-48.0478"/>
</g>
<!-- Node5 -->
<g id="node5" class="node"><title>Node5</title>
<g id="a_node5"><a xlink:href="../../d8/d89/classturtle_classes_1_1_turtle.html#aa759f24ff87f3272314528e985ada496" target="_top" xlink:title="turtleClasses.Turtle.set\lDirection">
<polygon fill="white" stroke="black" points="187.5,-3 187.5,-33 312.5,-33 312.5,-3 187.5,-3"/>
<text text-anchor="start" x="195.5" y="-21" font-family="Helvetica,sans-Serif" font-size="10.00">turtleClasses.Turtle.set</text>
<text text-anchor="middle" x="250" y="-10" font-family="Helvetica,sans-Serif" font-size="10.00">Direction</text>
</a>
</g>
</g>
<!-- Node1&#45;&gt;Node5 -->
<g id="edge4" class="edge"><title>Node1&#45;&gt;Node5</title>
<path fill="none" stroke="midnightblue" d="M153.534,-30.4756C164.942,-28.9848 176.519,-27.4719 187.49,-26.0382"/>
<polygon fill="midnightblue" stroke="midnightblue" points="153.034,-27.0112 143.572,-31.7775 153.941,-33.9521 153.034,-27.0112"/>
</g>
<!-- Node3 -->
<g id="node3" class="node"><title>Node3</title>
<g id="a_node3"><a xlink:href="../../d3/d7b/classdisplay_commands_1_1_left.html#aead3279c90c12d534b3e7bc065fdfe0c" target="_top" xlink:title="displayCommands.Left.doAction">
<polygon fill="white" stroke="black" points="359.5,-98.5 359.5,-117.5 530.5,-117.5 530.5,-98.5 359.5,-98.5"/>
<text text-anchor="middle" x="445" y="-105.5" font-family="Helvetica,sans-Serif" font-size="10.00">displayCommands.Left.doAction</text>
</a>
</g>
</g>
<!-- Node2&#45;&gt;Node3 -->
<g id="edge2" class="edge"><title>Node2&#45;&gt;Node3</title>
<path fill="none" stroke="midnightblue" d="M302.419,-75.7662C319.47,-79.6645 338.55,-84.0227 356,-88 370.97,-91.412 387.375,-95.1426 401.922,-98.4479"/>
<polygon fill="midnightblue" stroke="midnightblue" points="303.17,-72.3478 292.642,-73.5305 301.61,-79.1716 303.17,-72.3478"/>
</g>
<!-- Node4 -->
<g id="node4" class="node"><title>Node4</title>
<g id="a_node4"><a xlink:href="../../d6/d3d/classdisplay_commands_1_1_right.html#aa446276b20f723f51c31f70e28c93445" target="_top" xlink:title="displayCommands.Right.do\lAction">
<polygon fill="white" stroke="black" points="371.5,-49 371.5,-79 518.5,-79 518.5,-49 371.5,-49"/>
<text text-anchor="start" x="379.5" y="-67" font-family="Helvetica,sans-Serif" font-size="10.00">displayCommands.Right.do</text>
<text text-anchor="middle" x="445" y="-56" font-family="Helvetica,sans-Serif" font-size="10.00">Action</text>
</a>
</g>
</g>
<!-- Node2&#45;&gt;Node4 -->
<g id="edge3" class="edge"><title>Node2&#45;&gt;Node4</title>
<path fill="none" stroke="midnightblue" d="M330.411,-64C343.995,-64 358.047,-64 371.441,-64"/>
<polygon fill="midnightblue" stroke="midnightblue" points="330.132,-60.5001 320.132,-64 330.132,-67.5001 330.132,-60.5001"/>
</g>
<!-- Node6 -->
<g id="node6" class="node"><title>Node6</title>
<g id="a_node6"><a xlink:href="../../d6/d8f/classdisplay_commands_1_1_set_towards.html#a91f4f9fee7d7ad51b938afa3d8013611" target="_top" xlink:title="displayCommands.SetTowards.do\lAction">
<polygon fill="white" stroke="black" points="356.5,-0 356.5,-30 533.5,-30 533.5,-0 356.5,-0"/>
<text text-anchor="start" x="364.5" y="-18" font-family="Helvetica,sans-Serif" font-size="10.00">displayCommands.SetTowards.do</text>
<text text-anchor="middle" x="445" y="-7" font-family="Helvetica,sans-Serif" font-size="10.00">Action</text>
</a>
</g>
</g>
<!-- Node5&#45;&gt;Node6 -->
<g id="edge5" class="edge"><title>Node5&#45;&gt;Node6</title>
<path fill="none" stroke="midnightblue" d="M322.873,-16.8828C333.755,-16.7137 345.084,-16.5376 356.256,-16.3639"/>
<polygon fill="midnightblue" stroke="midnightblue" points="322.541,-13.3874 312.597,-17.0425 322.65,-20.3866 322.541,-13.3874"/>
</g>
</g>
</svg>
