<?xml version="1.0" encoding="UTF-8" standalone="no"?>
<!DOCTYPE svg PUBLIC "-//W3C//DTD SVG 1.1//EN"
 "http://www.w3.org/Graphics/SVG/1.1/DTD/svg11.dtd">
<!-- Generated by graphviz version 2.36.0 (20140111.2315)
 -->
<!-- Title: turtleClasses.Turtle.getPen Pages: 1 -->
<svg width="808pt" height="366pt"
 viewBox="0.00 0.00 808.00 366.00" xmlns="http://www.w3.org/2000/svg" xmlns:xlink="http://www.w3.org/1999/xlink">
<g id="graph0" class="graph" transform="scale(1 1) rotate(0) translate(4 362)">
<title>turtleClasses.Turtle.getPen</title>
<polygon fill="white" stroke="none" points="-4,4 -4,-362 804,-362 804,4 -4,4"/>
<!-- Node1 -->
<g id="node1" class="node"><title>Node1</title>
<polygon fill="#bfbfbf" stroke="black" points="0,-186.5 0,-205.5 144,-205.5 144,-186.5 0,-186.5"/>
<text text-anchor="middle" x="72" y="-193.5" font-family="Helvetica,sans-Serif" font-size="10.00">turtleClasses.Turtle.getPen</text>
</g>
<!-- Node2 -->
<g id="node2" class="node"><title>Node2</title>
<g id="a_node2"><a xlink:href="../../dc/df4/classdisplay_commands_1_1_set_pen_size.html#af612c2ba19d026f02a56380edf37686a" target="_top" xlink:title="displayCommands.SetPenSize.do\lAction">
<polygon fill="white" stroke="black" points="186,-328 186,-358 364,-358 364,-328 186,-328"/>
<text text-anchor="start" x="194" y="-346" font-family="Helvetica,sans-Serif" font-size="10.00">displayCommands.SetPenSize.do</text>
<text text-anchor="middle" x="275" y="-335" font-family="Helvetica,sans-Serif" font-size="10.00">Action</text>
</a>
</g>
</g>
<!-- Node1&#45;&gt;Node2 -->
<g id="edge1" class="edge"><title>Node1&#45;&gt;Node2</title>
<path fill="none" stroke="midnightblue" d="M84.0714,-214.446C101.203,-241.371 136.72,-291.144 180,-318 186.17,-321.829 192.919,-325.076 199.879,-327.83"/>
<polygon fill="midnightblue" stroke="midnightblue" points="86.8571,-212.297 78.6111,-205.645 80.9089,-215.988 86.8571,-212.297"/>
</g>
<!-- Node3 -->
<g id="node3" class="node"><title>Node3</title>
<g id="a_node3"><a xlink:href="../../d5/d95/classdisplay_commands_1_1_pen_up.html#ae5d81636996c2438d4951fedb81b0404" target="_top" xlink:title="displayCommands.PenUp.do\lAction">
<polygon fill="white" stroke="black" points="197.5,-279 197.5,-309 352.5,-309 352.5,-279 197.5,-279"/>
<text text-anchor="start" x="205.5" y="-297" font-family="Helvetica,sans-Serif" font-size="10.00">displayCommands.PenUp.do</text>
<text text-anchor="middle" x="275" y="-286" font-family="Helvetica,sans-Serif" font-size="10.00">Action</text>
</a>
</g>
</g>
<!-- Node1&#45;&gt;Node3 -->
<g id="edge2" class="edge"><title>Node1&#45;&gt;Node3</title>
<path fill="none" stroke="midnightblue" d="M92.3345,-212.204C112.879,-228.67 146.901,-253.847 180,-269 188.291,-272.796 197.267,-276.103 206.27,-278.958"/>
<polygon fill="midnightblue" stroke="midnightblue" points="94.3599,-209.339 84.397,-205.735 89.9376,-214.765 94.3599,-209.339"/>
</g>
<!-- Node4 -->
<g id="node4" class="node"><title>Node4</title>
<g id="a_node4"><a xlink:href="../../d7/d5b/classdisplay_commands_1_1_set_pen_color.html#adebba7ec6180d3c1e9a40088aebbd4bc" target="_top" xlink:title="displayCommands.SetPenColor.do\lAction">
<polygon fill="white" stroke="black" points="184,-230 184,-260 366,-260 366,-230 184,-230"/>
<text text-anchor="start" x="192" y="-248" font-family="Helvetica,sans-Serif" font-size="10.00">displayCommands.SetPenColor.do</text>
<text text-anchor="middle" x="275" y="-237" font-family="Helvetica,sans-Serif" font-size="10.00">Action</text>
</a>
</g>
</g>
<!-- Node1&#45;&gt;Node4 -->
<g id="edge3" class="edge"><title>Node1&#45;&gt;Node4</title>
<path fill="none" stroke="midnightblue" d="M122.283,-208.014C149.442,-214.635 183.411,-222.916 212.318,-229.963"/>
<polygon fill="midnightblue" stroke="midnightblue" points="122.776,-204.532 112.232,-205.564 121.118,-211.333 122.776,-204.532"/>
</g>
<!-- Node5 -->
<g id="node5" class="node"><title>Node5</title>
<g id="a_node5"><a xlink:href="../../d6/dc9/classdisplay_commands_1_1_pen_down.html#aa2e7411c283573f5fbc3c1e3815e4c62" target="_top" xlink:title="displayCommands.PenDown.do\lAction">
<polygon fill="white" stroke="black" points="191.5,-181 191.5,-211 358.5,-211 358.5,-181 191.5,-181"/>
<text text-anchor="start" x="199.5" y="-199" font-family="Helvetica,sans-Serif" font-size="10.00">displayCommands.PenDown.do</text>
<text text-anchor="middle" x="275" y="-188" font-family="Helvetica,sans-Serif" font-size="10.00">Action</text>
</a>
</g>
</g>
<!-- Node1&#45;&gt;Node5 -->
<g id="edge4" class="edge"><title>Node1&#45;&gt;Node5</title>
<path fill="none" stroke="midnightblue" d="M154.278,-196C166.468,-196 179.049,-196 191.268,-196"/>
<polygon fill="midnightblue" stroke="midnightblue" points="154.148,-192.5 144.148,-196 154.148,-199.5 154.148,-192.5"/>
</g>
<!-- Node6 -->
<g id="node6" class="node"><title>Node6</title>
<g id="a_node6"><a xlink:href="../../db/d1c/classfrontend_1_1_concrete_features_1_1_choose_line_style.html#ad358a27add1b656c5dd89713108fc39c" target="_top" xlink:title="frontend.ConcreteFeatures.\lChooseLineStyle.doAction">
<polygon fill="white" stroke="black" points="201,-132 201,-162 349,-162 349,-132 201,-132"/>
<text text-anchor="start" x="209" y="-150" font-family="Helvetica,sans-Serif" font-size="10.00">frontend.ConcreteFeatures.</text>
<text text-anchor="middle" x="275" y="-139" font-family="Helvetica,sans-Serif" font-size="10.00">ChooseLineStyle.doAction</text>
</a>
</g>
</g>
<!-- Node1&#45;&gt;Node6 -->
<g id="edge5" class="edge"><title>Node1&#45;&gt;Node6</title>
<path fill="none" stroke="midnightblue" d="M122.283,-183.986C149.442,-177.365 183.411,-169.084 212.318,-162.037"/>
<polygon fill="midnightblue" stroke="midnightblue" points="121.118,-180.667 112.232,-186.436 122.776,-187.468 121.118,-180.667"/>
</g>
<!-- Node7 -->
<g id="node7" class="node"><title>Node7</title>
<g id="a_node7"><a xlink:href="../../da/deb/classfrontend_1_1_line_drawer.html#a2810dbf0c438f8b25e458ffdd631eeb0" target="_top" xlink:title="frontend.LineDrawer.Line\lDrawer">
<polygon fill="white" stroke="black" points="207.5,-83 207.5,-113 342.5,-113 342.5,-83 207.5,-83"/>
<text text-anchor="start" x="215.5" y="-101" font-family="Helvetica,sans-Serif" font-size="10.00">frontend.LineDrawer.Line</text>
<text text-anchor="middle" x="275" y="-90" font-family="Helvetica,sans-Serif" font-size="10.00">Drawer</text>
</a>
</g>
</g>
<!-- Node1&#45;&gt;Node7 -->
<g id="edge6" class="edge"><title>Node1&#45;&gt;Node7</title>
<path fill="none" stroke="midnightblue" d="M92.3345,-179.796C112.879,-163.33 146.901,-138.153 180,-123 188.598,-119.064 197.933,-115.653 207.27,-112.727"/>
<polygon fill="midnightblue" stroke="midnightblue" points="89.9376,-177.235 84.397,-186.265 94.3599,-182.661 89.9376,-177.235"/>
</g>
<!-- Node8 -->
<g id="node8" class="node"><title>Node8</title>
<g id="a_node8"><a xlink:href="../../dc/d69/classturtle_classes_1_1_turtle_snapshot.html#a15dec792db9c32413964d88bae094216" target="_top" xlink:title="turtleClasses.TurtleSnapshot.update">
<polygon fill="white" stroke="black" points="180,-44.5 180,-63.5 370,-63.5 370,-44.5 180,-44.5"/>
<text text-anchor="middle" x="275" y="-51.5" font-family="Helvetica,sans-Serif" font-size="10.00">turtleClasses.TurtleSnapshot.update</text>
</a>
</g>
</g>
<!-- Node1&#45;&gt;Node8 -->
<g id="edge7" class="edge"><title>Node1&#45;&gt;Node8</title>
<path fill="none" stroke="midnightblue" d="M83.6786,-177.628C100.506,-150.425 135.866,-99.8723 180,-74 187.485,-69.6123 195.807,-66.1819 204.318,-63.5009"/>
<polygon fill="midnightblue" stroke="midnightblue" points="80.6785,-175.825 78.5155,-186.197 86.6743,-179.438 80.6785,-175.825"/>
</g>
<!-- Node9 -->
<g id="node9" class="node"><title>Node9</title>
<g id="a_node9"><a xlink:href="../../d3/d17/classturtle_classes_1_1_turtle_mover.html#a955db4be8fe596975332813b98a0cecf" target="_top" xlink:title="turtleClasses.TurtleMover.start\lDrawing">
<polygon fill="white" stroke="black" points="406.5,-39 406.5,-69 567.5,-69 567.5,-39 406.5,-39"/>
<text text-anchor="start" x="414.5" y="-57" font-family="Helvetica,sans-Serif" font-size="10.00">turtleClasses.TurtleMover.start</text>
<text text-anchor="middle" x="487" y="-46" font-family="Helvetica,sans-Serif" font-size="10.00">Drawing</text>
</a>
</g>
</g>
<!-- Node8&#45;&gt;Node9 -->
<g id="edge8" class="edge"><title>Node8&#45;&gt;Node9</title>
<path fill="none" stroke="midnightblue" d="M380.493,-54C389.233,-54 397.978,-54 406.485,-54"/>
<polygon fill="midnightblue" stroke="midnightblue" points="380.25,-50.5001 370.25,-54 380.25,-57.5001 380.25,-50.5001"/>
</g>
<!-- Node10 -->
<g id="node10" class="node"><title>Node10</title>
<g id="a_node10"><a xlink:href="../../d8/dc1/classfrontend_1_1_concrete_features_1_1_command_executer.html#a14b9b724db30e6cc89f62304f7bf40b2" target="_top" xlink:title="frontend.ConcreteFeatures.\lCommandExecuter.action">
<polygon fill="white" stroke="black" points="628,-88 628,-118 776,-118 776,-88 628,-88"/>
<text text-anchor="start" x="636" y="-106" font-family="Helvetica,sans-Serif" font-size="10.00">frontend.ConcreteFeatures.</text>
<text text-anchor="middle" x="702" y="-95" font-family="Helvetica,sans-Serif" font-size="10.00">CommandExecuter.action</text>
</a>
</g>
</g>
<!-- Node9&#45;&gt;Node10 -->
<g id="edge9" class="edge"><title>Node9&#45;&gt;Node10</title>
<path fill="none" stroke="midnightblue" d="M563.337,-71.3309C586.985,-76.7712 612.881,-82.7285 635.769,-87.9938"/>
<polygon fill="midnightblue" stroke="midnightblue" points="563.885,-67.8657 553.355,-69.0346 562.315,-74.6875 563.885,-67.8657"/>
</g>
<!-- Node11 -->
<g id="node11" class="node"><title>Node11</title>
<g id="a_node11"><a xlink:href="../../de/d9f/classfrontend_1_1_concrete_features_1_1_load_s_logo_file.html#aa491ddd476ad22ed21a358b21c01605f" target="_top" xlink:title="frontend.ConcreteFeatures.\lLoadSLogoFile.action">
<polygon fill="white" stroke="black" points="628,-39 628,-69 776,-69 776,-39 628,-39"/>
<text text-anchor="start" x="636" y="-57" font-family="Helvetica,sans-Serif" font-size="10.00">frontend.ConcreteFeatures.</text>
<text text-anchor="middle" x="702" y="-46" font-family="Helvetica,sans-Serif" font-size="10.00">LoadSLogoFile.action</text>
</a>
</g>
</g>
<!-- Node9&#45;&gt;Node11 -->
<g id="edge10" class="edge"><title>Node9&#45;&gt;Node11</title>
<path fill="none" stroke="midnightblue" d="M577.893,-54C594.537,-54 611.736,-54 627.81,-54"/>
<polygon fill="midnightblue" stroke="midnightblue" points="577.616,-50.5001 567.616,-54 577.616,-57.5001 577.616,-50.5001"/>
</g>
<!-- Node12 -->
<g id="node12" class="node"><title>Node12</title>
<g id="a_node12"><a xlink:href="../../d7/d78/classturtle_classes_1_1_turtle_key_handler.html#a7dfe582e767f31105e84278d26dbc4c1" target="_top" xlink:title="turtleClasses.TurtleKeyHandler.handle">
<polygon fill="white" stroke="black" points="604,-0.5 604,-19.5 800,-19.5 800,-0.5 604,-0.5"/>
<text text-anchor="middle" x="702" y="-7.5" font-family="Helvetica,sans-Serif" font-size="10.00">turtleClasses.TurtleKeyHandler.handle</text>
</a>
</g>
</g>
<!-- Node9&#45;&gt;Node12 -->
<g id="edge11" class="edge"><title>Node9&#45;&gt;Node12</title>
<path fill="none" stroke="midnightblue" d="M570.533,-36.9169C581.78,-34.5912 593.174,-32.2361 604,-30 620.502,-26.5916 638.585,-22.8618 654.62,-19.5563"/>
<polygon fill="midnightblue" stroke="midnightblue" points="569.79,-33.4965 560.706,-38.9494 571.208,-40.3514 569.79,-33.4965"/>
</g>
</g>
</svg>
