<?xml version="1.0" encoding="UTF-8" standalone="no"?>
<!DOCTYPE svg PUBLIC "-//W3C//DTD SVG 1.1//EN"
 "http://www.w3.org/Graphics/SVG/1.1/DTD/svg11.dtd">
<!-- Generated by graphviz version 2.36.0 (20140111.2315)
 -->
<!-- Title: turtleClasses.Turtle.getIsActive Pages: 1 -->
<svg width="936pt" height="175pt"
 viewBox="0.00 0.00 936.00 175.00" xmlns="http://www.w3.org/2000/svg" xmlns:xlink="http://www.w3.org/1999/xlink">
<g id="graph0" class="graph" transform="scale(1 1) rotate(0) translate(4 171)">
<title>turtleClasses.Turtle.getIsActive</title>
<polygon fill="white" stroke="none" points="-4,4 -4,-171 932,-171 932,4 -4,4"/>
<!-- Node1 -->
<g id="node1" class="node"><title>Node1</title>
<polygon fill="#bfbfbf" stroke="black" points="0,-47 0,-77 126,-77 126,-47 0,-47"/>
<text text-anchor="start" x="8" y="-65" font-family="Helvetica,sans-Serif" font-size="10.00">turtleClasses.Turtle.get</text>
<text text-anchor="middle" x="63" y="-54" font-family="Helvetica,sans-Serif" font-size="10.00">IsActive</text>
</g>
<!-- Node2 -->
<g id="node2" class="node"><title>Node2</title>
<g id="a_node2"><a xlink:href="../../d4/d7e/classturtle_classes_1_1_turtle_collection.html#a40bfa92a3800e4441e66c3c2964559f0" target="_top" xlink:title="turtleClasses.TurtleCollection.check\lAndAddActiveTurtle">
<polygon fill="white" stroke="black" points="162.5,-77 162.5,-107 347.5,-107 347.5,-77 162.5,-77"/>
<text text-anchor="start" x="170.5" y="-95" font-family="Helvetica,sans-Serif" font-size="10.00">turtleClasses.TurtleCollection.check</text>
<text text-anchor="middle" x="255" y="-84" font-family="Helvetica,sans-Serif" font-size="10.00">AndAddActiveTurtle</text>
</a>
</g>
</g>
<!-- Node1&#45;&gt;Node2 -->
<g id="edge1" class="edge"><title>Node1&#45;&gt;Node2</title>
<path fill="none" stroke="midnightblue" d="M136.142,-73.3908C144.718,-74.745 153.559,-76.1409 162.361,-77.5307"/>
<polygon fill="midnightblue" stroke="midnightblue" points="136.637,-69.9257 126.213,-71.8231 135.545,-76.84 136.637,-69.9257"/>
</g>
<!-- Node8 -->
<g id="node8" class="node"><title>Node8</title>
<g id="a_node8"><a xlink:href="../../d8/d89/classturtle_classes_1_1_turtle.html#ab95a54f66d8824ececa5f3dd2394ac3a" target="_top" xlink:title="turtleClasses.Turtle.toggle\lActive">
<polygon fill="white" stroke="black" points="185,-17 185,-47 325,-47 325,-17 185,-17"/>
<text text-anchor="start" x="193" y="-35" font-family="Helvetica,sans-Serif" font-size="10.00">turtleClasses.Turtle.toggle</text>
<text text-anchor="middle" x="255" y="-24" font-family="Helvetica,sans-Serif" font-size="10.00">Active</text>
</a>
</g>
</g>
<!-- Node1&#45;&gt;Node8 -->
<g id="edge7" class="edge"><title>Node1&#45;&gt;Node8</title>
<path fill="none" stroke="midnightblue" d="M136.474,-50.5568C152.312,-48.056 169.037,-45.4152 184.746,-42.9348"/>
<polygon fill="midnightblue" stroke="midnightblue" points="135.545,-47.16 126.213,-52.1769 136.637,-54.0743 135.545,-47.16"/>
</g>
<!-- Node3 -->
<g id="node3" class="node"><title>Node3</title>
<g id="a_node3"><a xlink:href="../../d4/d7e/classturtle_classes_1_1_turtle_collection.html#a2c198e889660227ad13e0835fb5c9b7f" target="_top" xlink:title="turtleClasses.TurtleCollection.\lTurtleCollection">
<polygon fill="white" stroke="black" points="393.5,-137 393.5,-167 550.5,-167 550.5,-137 393.5,-137"/>
<text text-anchor="start" x="401.5" y="-155" font-family="Helvetica,sans-Serif" font-size="10.00">turtleClasses.TurtleCollection.</text>
<text text-anchor="middle" x="472" y="-144" font-family="Helvetica,sans-Serif" font-size="10.00">TurtleCollection</text>
</a>
</g>
</g>
<!-- Node2&#45;&gt;Node3 -->
<g id="edge2" class="edge"><title>Node2&#45;&gt;Node3</title>
<path fill="none" stroke="midnightblue" d="M319.798,-109.804C350.729,-118.436 387.479,-128.692 417.002,-136.931"/>
<polygon fill="midnightblue" stroke="midnightblue" points="320.549,-106.38 309.976,-107.063 318.667,-113.122 320.549,-106.38"/>
</g>
<!-- Node4 -->
<g id="node4" class="node"><title>Node4</title>
<g id="a_node4"><a xlink:href="../../d4/d7e/classturtle_classes_1_1_turtle_collection.html#aef78a61da5522d472e6c70b49e8e1b0d" target="_top" xlink:title="turtleClasses.TurtleCollection.add\lTurtle">
<polygon fill="white" stroke="black" points="384.5,-88 384.5,-118 559.5,-118 559.5,-88 384.5,-88"/>
<text text-anchor="start" x="392.5" y="-106" font-family="Helvetica,sans-Serif" font-size="10.00">turtleClasses.TurtleCollection.add</text>
<text text-anchor="middle" x="472" y="-95" font-family="Helvetica,sans-Serif" font-size="10.00">Turtle</text>
</a>
</g>
</g>
<!-- Node2&#45;&gt;Node4 -->
<g id="edge3" class="edge"><title>Node2&#45;&gt;Node4</title>
<path fill="none" stroke="midnightblue" d="M358.061,-97.2217C366.83,-97.6704 375.648,-98.1215 384.28,-98.5632"/>
<polygon fill="midnightblue" stroke="midnightblue" points="357.969,-93.7125 347.803,-96.6969 357.611,-100.703 357.969,-93.7125"/>
</g>
<!-- Node7 -->
<g id="node7" class="node"><title>Node7</title>
<g id="a_node7"><a xlink:href="../../d4/d7e/classturtle_classes_1_1_turtle_collection.html#a000c6119bd8a814df55fe31d990a1b6f" target="_top" xlink:title="turtleClasses.TurtleCollection.set\lActiveTurtles">
<polygon fill="white" stroke="black" points="386,-39 386,-69 558,-69 558,-39 386,-39"/>
<text text-anchor="start" x="394" y="-57" font-family="Helvetica,sans-Serif" font-size="10.00">turtleClasses.TurtleCollection.set</text>
<text text-anchor="middle" x="472" y="-46" font-family="Helvetica,sans-Serif" font-size="10.00">ActiveTurtles</text>
</a>
</g>
</g>
<!-- Node2&#45;&gt;Node7 -->
<g id="edge6" class="edge"><title>Node2&#45;&gt;Node7</title>
<path fill="none" stroke="midnightblue" d="M351.104,-75.191C362.704,-73.1407 374.499,-71.056 385.939,-69.034"/>
<polygon fill="midnightblue" stroke="midnightblue" points="350.212,-71.7943 340.974,-76.9814 351.43,-78.6874 350.212,-71.7943"/>
</g>
<!-- Node5 -->
<g id="node5" class="node"><title>Node5</title>
<g id="a_node5"><a xlink:href="../../df/de4/classfrontend_1_1_s_logo_workspace.html#afdbe19fcd31fb74f31efbea44ac0c24c" target="_top" xlink:title="frontend.SLogoWorkspace.\lSLogoWorkspace">
<polygon fill="white" stroke="black" points="596,-88 596,-118 740,-118 740,-88 596,-88"/>
<text text-anchor="start" x="604" y="-106" font-family="Helvetica,sans-Serif" font-size="10.00">frontend.SLogoWorkspace.</text>
<text text-anchor="middle" x="668" y="-95" font-family="Helvetica,sans-Serif" font-size="10.00">SLogoWorkspace</text>
</a>
</g>
</g>
<!-- Node4&#45;&gt;Node5 -->
<g id="edge4" class="edge"><title>Node4&#45;&gt;Node5</title>
<path fill="none" stroke="midnightblue" d="M569.77,-103C578.53,-103 587.293,-103 595.773,-103"/>
<polygon fill="midnightblue" stroke="midnightblue" points="569.504,-99.5001 559.504,-103 569.504,-106.5 569.504,-99.5001"/>
</g>
<!-- Node6 -->
<g id="node6" class="node"><title>Node6</title>
<g id="a_node6"><a xlink:href="../../dc/dae/classfrontend_1_1_s_logo_workspace_1_1_add_workspace_button.html#a156aecbf6509dec903bb35c7ada6257e" target="_top" xlink:title="frontend.SLogoWorkspace.\lAddWorkspaceButton.action">
<polygon fill="white" stroke="black" points="776.5,-88 776.5,-118 927.5,-118 927.5,-88 776.5,-88"/>
<text text-anchor="start" x="784.5" y="-106" font-family="Helvetica,sans-Serif" font-size="10.00">frontend.SLogoWorkspace.</text>
<text text-anchor="middle" x="852" y="-95" font-family="Helvetica,sans-Serif" font-size="10.00">AddWorkspaceButton.action</text>
</a>
</g>
</g>
<!-- Node5&#45;&gt;Node6 -->
<g id="edge5" class="edge"><title>Node5&#45;&gt;Node6</title>
<path fill="none" stroke="midnightblue" d="M750.251,-103C758.921,-103 767.71,-103 776.299,-103"/>
<polygon fill="midnightblue" stroke="midnightblue" points="750.148,-99.5001 740.148,-103 750.148,-106.5 750.148,-99.5001"/>
</g>
<!-- Node9 -->
<g id="node9" class="node"><title>Node9</title>
<g id="a_node9"><a xlink:href="../../d8/d89/classturtle_classes_1_1_turtle.html#a1e1a7a5fffde6f8c7ce5cee72ad927b1" target="_top" xlink:title="turtleClasses.Turtle.Turtle">
<polygon fill="white" stroke="black" points="404,-0.5 404,-19.5 540,-19.5 540,-0.5 404,-0.5"/>
<text text-anchor="middle" x="472" y="-7.5" font-family="Helvetica,sans-Serif" font-size="10.00">turtleClasses.Turtle.Turtle</text>
</a>
</g>
</g>
<!-- Node8&#45;&gt;Node9 -->
<g id="edge8" class="edge"><title>Node8&#45;&gt;Node9</title>
<path fill="none" stroke="midnightblue" d="M335.392,-23.8761C357.856,-21.5775 382.08,-19.0987 403.754,-16.881"/>
<polygon fill="midnightblue" stroke="midnightblue" points="334.803,-20.4181 325.211,-24.918 335.515,-27.3818 334.803,-20.4181"/>
</g>
</g>
</svg>
