<?xml version="1.0" encoding="UTF-8" standalone="no"?>
<!DOCTYPE svg PUBLIC "-//W3C//DTD SVG 1.1//EN"
 "http://www.w3.org/Graphics/SVG/1.1/DTD/svg11.dtd">
<!-- Generated by graphviz version 2.36.0 (20140111.2315)
 -->
<!-- Title: turtleClasses.Turtle.resetPosition Pages: 1 -->
<svg width="362pt" height="77pt"
 viewBox="0.00 0.00 362.00 77.00" xmlns="http://www.w3.org/2000/svg" xmlns:xlink="http://www.w3.org/1999/xlink">
<g id="graph0" class="graph" transform="scale(1 1) rotate(0) translate(4 73)">
<title>turtleClasses.Turtle.resetPosition</title>
<polygon fill="white" stroke="none" points="-4,4 -4,-73 358,-73 358,4 -4,4"/>
<!-- Node1 -->
<g id="node1" class="node"><title>Node1</title>
<polygon fill="#bfbfbf" stroke="black" points="0.5,-22 0.5,-52 135.5,-52 135.5,-22 0.5,-22"/>
<text text-anchor="start" x="8.5" y="-40" font-family="Helvetica,sans-Serif" font-size="10.00">turtleClasses.Turtle.reset</text>
<text text-anchor="middle" x="68" y="-29" font-family="Helvetica,sans-Serif" font-size="10.00">Position</text>
</g>
<!-- Node2 -->
<g id="node2" class="node"><title>Node2</title>
<g id="a_node2"><a xlink:href="../../d7/d1e/classdisplay_commands_1_1_home.html#af60bb4a9108d53104f7974dd6a6a2529" target="_top" xlink:title="displayCommands.Home.doAction">
<polygon fill="white" stroke="black" points="172,-49.5 172,-68.5 354,-68.5 354,-49.5 172,-49.5"/>
<text text-anchor="middle" x="263" y="-56.5" font-family="Helvetica,sans-Serif" font-size="10.00">displayCommands.Home.doAction</text>
</a>
</g>
</g>
<!-- Node1&#45;&gt;Node2 -->
<g id="edge1" class="edge"><title>Node1&#45;&gt;Node2</title>
<path fill="none" stroke="midnightblue" d="M145.885,-45.7641C156.646,-46.9907 167.747,-48.2561 178.622,-49.4957"/>
<polygon fill="midnightblue" stroke="midnightblue" points="146.022,-42.2571 135.69,-44.602 145.229,-49.2121 146.022,-42.2571"/>
</g>
<!-- Node3 -->
<g id="node3" class="node"><title>Node3</title>
<g id="a_node3"><a xlink:href="../../d6/dc6/classdisplay_commands_1_1_clear_screen.html#a16dad5bd8da6feccf5189f224fa90ca8" target="_top" xlink:title="displayCommands.ClearScreen.do\lAction">
<polygon fill="white" stroke="black" points="172,-0 172,-30 354,-30 354,-0 172,-0"/>
<text text-anchor="start" x="180" y="-18" font-family="Helvetica,sans-Serif" font-size="10.00">displayCommands.ClearScreen.do</text>
<text text-anchor="middle" x="263" y="-7" font-family="Helvetica,sans-Serif" font-size="10.00">Action</text>
</a>
</g>
</g>
<!-- Node1&#45;&gt;Node3 -->
<g id="edge2" class="edge"><title>Node1&#45;&gt;Node3</title>
<path fill="none" stroke="midnightblue" d="M145.662,-28.2613C154.258,-27.2815 163.072,-26.2767 171.818,-25.2798"/>
<polygon fill="midnightblue" stroke="midnightblue" points="145.229,-24.7879 135.69,-29.398 146.022,-31.7429 145.229,-24.7879"/>
</g>
</g>
</svg>
