<?xml version="1.0" encoding="UTF-8" standalone="no"?>
<!DOCTYPE svg PUBLIC "-//W3C//DTD SVG 1.1//EN"
 "http://www.w3.org/Graphics/SVG/1.1/DTD/svg11.dtd">
<!-- Generated by graphviz version 2.36.0 (20140111.2315)
 -->
<!-- Title: turtleClasses.Turtle.toggleActive Pages: 1 -->
<svg width="490pt" height="126pt"
 viewBox="0.00 0.00 490.00 126.00" xmlns="http://www.w3.org/2000/svg" xmlns:xlink="http://www.w3.org/1999/xlink">
<g id="graph0" class="graph" transform="scale(1 1) rotate(0) translate(4 122)">
<title>turtleClasses.Turtle.toggleActive</title>
<polygon fill="white" stroke="none" points="-4,4 -4,-122 486,-122 486,4 -4,4"/>
<!-- Node1 -->
<g id="node1" class="node"><title>Node1</title>
<polygon fill="#bfbfbf" stroke="black" points="0,-44 0,-74 140,-74 140,-44 0,-44"/>
<text text-anchor="start" x="8" y="-62" font-family="Helvetica,sans-Serif" font-size="10.00">turtleClasses.Turtle.toggle</text>
<text text-anchor="middle" x="70" y="-51" font-family="Helvetica,sans-Serif" font-size="10.00">Active</text>
</g>
<!-- Node2 -->
<g id="node2" class="node"><title>Node2</title>
<g id="a_node2"><a xlink:href="../../d8/d89/classturtle_classes_1_1_turtle.html#a2d2fbb81602870ad25869504ebc47a96" target="_top" xlink:title="turtleClasses.Turtle.get\lIsActive">
<polygon fill="white" stroke="black" points="176,-88 176,-118 302,-118 302,-88 176,-88"/>
<text text-anchor="start" x="184" y="-106" font-family="Helvetica,sans-Serif" font-size="10.00">turtleClasses.Turtle.get</text>
<text text-anchor="middle" x="239" y="-95" font-family="Helvetica,sans-Serif" font-size="10.00">IsActive</text>
</a>
</g>
</g>
<!-- Node1&#45;&gt;Node2 -->
<g id="edge1" class="edge"><title>Node1&#45;&gt;Node2</title>
<path fill="none" stroke="midnightblue" d="M128.005,-74.0192C141.901,-77.6804 156.889,-81.6294 171.195,-85.3987"/>
<polygon fill="midnightblue" stroke="midnightblue" points="170.407,-88.8104 180.969,-87.9738 172.19,-82.0414 170.407,-88.8104"/>
</g>
<!-- Node3 -->
<g id="node3" class="node"><title>Node3</title>
<g id="a_node3"><a xlink:href="../../d8/d89/classturtle_classes_1_1_turtle.html#abd769212afc56f042db3d4b5ee33790e" target="_top" xlink:title="turtleClasses.Turtle.handle\lActiveOutline">
<polygon fill="white" stroke="black" points="338.5,-22 338.5,-52 481.5,-52 481.5,-22 338.5,-22"/>
<text text-anchor="start" x="346.5" y="-40" font-family="Helvetica,sans-Serif" font-size="10.00">turtleClasses.Turtle.handle</text>
<text text-anchor="middle" x="410" y="-29" font-family="Helvetica,sans-Serif" font-size="10.00">ActiveOutline</text>
</a>
</g>
</g>
<!-- Node1&#45;&gt;Node3 -->
<g id="edge2" class="edge"><title>Node1&#45;&gt;Node3</title>
<path fill="none" stroke="midnightblue" d="M140.215,-54.4949C194.783,-50.9431 270.976,-45.9838 328.31,-42.252"/>
<polygon fill="midnightblue" stroke="midnightblue" points="328.673,-45.7359 338.425,-41.5937 328.218,-38.7507 328.673,-45.7359"/>
</g>
<!-- Node4 -->
<g id="node4" class="node"><title>Node4</title>
<g id="a_node4"><a xlink:href="../../d8/d89/classturtle_classes_1_1_turtle.html#a2d3828dbca854624cc75fca5aa65b4c5" target="_top" xlink:title="turtleClasses.Turtle.set\lActive">
<polygon fill="white" stroke="black" points="176.5,-0 176.5,-30 301.5,-30 301.5,-0 176.5,-0"/>
<text text-anchor="start" x="184.5" y="-18" font-family="Helvetica,sans-Serif" font-size="10.00">turtleClasses.Turtle.set</text>
<text text-anchor="middle" x="239" y="-7" font-family="Helvetica,sans-Serif" font-size="10.00">Active</text>
</a>
</g>
</g>
<!-- Node1&#45;&gt;Node4 -->
<g id="edge3" class="edge"><title>Node1&#45;&gt;Node4</title>
<path fill="none" stroke="midnightblue" d="M128.005,-43.9808C141.901,-40.3196 156.889,-36.3706 171.195,-32.6013"/>
<polygon fill="midnightblue" stroke="midnightblue" points="172.19,-35.9586 180.969,-30.0262 170.407,-29.1896 172.19,-35.9586"/>
</g>
<!-- Node4&#45;&gt;Node3 -->
<g id="edge4" class="edge"><title>Node4&#45;&gt;Node3</title>
<path fill="none" stroke="midnightblue" d="M301.97,-23.0671C310.594,-24.1897 319.556,-25.3564 328.459,-26.5154"/>
<polygon fill="midnightblue" stroke="midnightblue" points="328.097,-29.9976 338.465,-27.8179 329,-23.0562 328.097,-29.9976"/>
</g>
</g>
</svg>
