<?xml version="1.0" encoding="UTF-8" standalone="no"?>
<!DOCTYPE svg PUBLIC "-//W3C//DTD SVG 1.1//EN"
 "http://www.w3.org/Graphics/SVG/1.1/DTD/svg11.dtd">
<!-- Generated by graphviz version 2.36.0 (20140111.2315)
 -->
<!-- Title: turtleClasses.Turtle.changeImage Pages: 1 -->
<svg width="360pt" height="136pt"
 viewBox="0.00 0.00 360.00 136.00" xmlns="http://www.w3.org/2000/svg" xmlns:xlink="http://www.w3.org/1999/xlink">
<g id="graph0" class="graph" transform="scale(1 1) rotate(0) translate(4 132)">
<title>turtleClasses.Turtle.changeImage</title>
<polygon fill="white" stroke="none" points="-4,4 -4,-132 356,-132 356,4 -4,4"/>
<!-- Node1 -->
<g id="node1" class="node"><title>Node1</title>
<polygon fill="#bfbfbf" stroke="black" points="0,-49 0,-79 146,-79 146,-49 0,-49"/>
<text text-anchor="start" x="8" y="-67" font-family="Helvetica,sans-Serif" font-size="10.00">turtleClasses.Turtle.change</text>
<text text-anchor="middle" x="73" y="-56" font-family="Helvetica,sans-Serif" font-size="10.00">Image</text>
</g>
<!-- Node2 -->
<g id="node2" class="node"><title>Node2</title>
<g id="a_node2"><a xlink:href="../../da/d72/classdisplay_commands_1_1_set_shape.html#a3b6ba10639b5442c50a582b8aea76770" target="_top" xlink:title="displayCommands.SetShape.do\lAction">
<polygon fill="white" stroke="black" points="182,-98 182,-128 352,-128 352,-98 182,-98"/>
<text text-anchor="start" x="190" y="-116" font-family="Helvetica,sans-Serif" font-size="10.00">displayCommands.SetShape.do</text>
<text text-anchor="middle" x="267" y="-105" font-family="Helvetica,sans-Serif" font-size="10.00">Action</text>
</a>
</g>
</g>
<!-- Node1&#45;&gt;Node2 -->
<g id="edge1" class="edge"><title>Node1&#45;&gt;Node2</title>
<path fill="none" stroke="midnightblue" d="M142.767,-81.5498C163.851,-86.9306 186.845,-92.799 207.2,-97.9938"/>
<polygon fill="midnightblue" stroke="midnightblue" points="143.466,-78.1162 132.911,-79.0346 141.735,-84.8988 143.466,-78.1162"/>
</g>
<!-- Node3 -->
<g id="node3" class="node"><title>Node3</title>
<g id="a_node3"><a xlink:href="../../dc/d0b/classfrontend_1_1_concrete_features_1_1_choose_image.html#a1bf565a5c25190432e98ea73c63a7d3b" target="_top" xlink:title="frontend.ConcreteFeatures.\lChooseImage.doAction">
<polygon fill="white" stroke="black" points="193,-49 193,-79 341,-79 341,-49 193,-49"/>
<text text-anchor="start" x="201" y="-67" font-family="Helvetica,sans-Serif" font-size="10.00">frontend.ConcreteFeatures.</text>
<text text-anchor="middle" x="267" y="-56" font-family="Helvetica,sans-Serif" font-size="10.00">ChooseImage.doAction</text>
</a>
</g>
</g>
<!-- Node1&#45;&gt;Node3 -->
<g id="edge2" class="edge"><title>Node1&#45;&gt;Node3</title>
<path fill="none" stroke="midnightblue" d="M156.203,-64C168.407,-64 180.916,-64 192.917,-64"/>
<polygon fill="midnightblue" stroke="midnightblue" points="156.04,-60.5001 146.04,-64 156.04,-67.5001 156.04,-60.5001"/>
</g>
<!-- Node4 -->
<g id="node4" class="node"><title>Node4</title>
<g id="a_node4"><a xlink:href="../../d8/d89/classturtle_classes_1_1_turtle.html#ab7c5a000ffbe99644c2ed77db5d781cf" target="_top" xlink:title="turtleClasses.Turtle.reset\lImage">
<polygon fill="white" stroke="black" points="199.5,-0 199.5,-30 334.5,-30 334.5,-0 199.5,-0"/>
<text text-anchor="start" x="207.5" y="-18" font-family="Helvetica,sans-Serif" font-size="10.00">turtleClasses.Turtle.reset</text>
<text text-anchor="middle" x="267" y="-7" font-family="Helvetica,sans-Serif" font-size="10.00">Image</text>
</a>
</g>
</g>
<!-- Node1&#45;&gt;Node4 -->
<g id="edge3" class="edge"><title>Node1&#45;&gt;Node4</title>
<path fill="none" stroke="midnightblue" d="M142.767,-46.4502C163.851,-41.0694 186.845,-35.201 207.2,-30.0062"/>
<polygon fill="midnightblue" stroke="midnightblue" points="141.735,-43.1012 132.911,-48.9654 143.466,-49.8838 141.735,-43.1012"/>
</g>
</g>
</svg>
