<?xml version="1.0" encoding="UTF-8" standalone="no"?>
<!DOCTYPE svg PUBLIC "-//W3C//DTD SVG 1.1//EN"
 "http://www.w3.org/Graphics/SVG/1.1/DTD/svg11.dtd">
<!-- Generated by graphviz version 2.36.0 (20140111.2315)
 -->
<!-- Title: turtleClasses.Turtle.getY Pages: 1 -->
<svg width="796pt" height="126pt"
 viewBox="0.00 0.00 796.00 126.00" xmlns="http://www.w3.org/2000/svg" xmlns:xlink="http://www.w3.org/1999/xlink">
<g id="graph0" class="graph" transform="scale(1 1) rotate(0) translate(4 122)">
<title>turtleClasses.Turtle.getY</title>
<polygon fill="white" stroke="none" points="-4,4 -4,-122 792,-122 792,4 -4,4"/>
<!-- Node1 -->
<g id="node1" class="node"><title>Node1</title>
<polygon fill="#bfbfbf" stroke="black" points="0.5,-66.5 0.5,-85.5 131.5,-85.5 131.5,-66.5 0.5,-66.5"/>
<text text-anchor="middle" x="66" y="-73.5" font-family="Helvetica,sans-Serif" font-size="10.00">turtleClasses.Turtle.getY</text>
</g>
<!-- Node2 -->
<g id="node2" class="node"><title>Node2</title>
<g id="a_node2"><a xlink:href="../../da/deb/classfrontend_1_1_line_drawer.html#a2810dbf0c438f8b25e458ffdd631eeb0" target="_top" xlink:title="frontend.LineDrawer.Line\lDrawer">
<polygon fill="white" stroke="black" points="195.5,-83 195.5,-113 330.5,-113 330.5,-83 195.5,-83"/>
<text text-anchor="start" x="203.5" y="-101" font-family="Helvetica,sans-Serif" font-size="10.00">frontend.LineDrawer.Line</text>
<text text-anchor="middle" x="263" y="-90" font-family="Helvetica,sans-Serif" font-size="10.00">Drawer</text>
</a>
</g>
</g>
<!-- Node1&#45;&gt;Node2 -->
<g id="edge1" class="edge"><title>Node1&#45;&gt;Node2</title>
<path fill="none" stroke="midnightblue" d="M141.858,-84.4456C159.412,-86.426 178.002,-88.5233 195.178,-90.4611"/>
<polygon fill="midnightblue" stroke="midnightblue" points="141.991,-80.9384 131.661,-83.2951 141.206,-87.8942 141.991,-80.9384"/>
</g>
<!-- Node3 -->
<g id="node3" class="node"><title>Node3</title>
<g id="a_node3"><a xlink:href="../../dc/d69/classturtle_classes_1_1_turtle_snapshot.html#a15dec792db9c32413964d88bae094216" target="_top" xlink:title="turtleClasses.TurtleSnapshot.update">
<polygon fill="white" stroke="black" points="168,-44.5 168,-63.5 358,-63.5 358,-44.5 168,-44.5"/>
<text text-anchor="middle" x="263" y="-51.5" font-family="Helvetica,sans-Serif" font-size="10.00">turtleClasses.TurtleSnapshot.update</text>
</a>
</g>
</g>
<!-- Node1&#45;&gt;Node3 -->
<g id="edge2" class="edge"><title>Node1&#45;&gt;Node3</title>
<path fill="none" stroke="midnightblue" d="M141.84,-67.5566C153.579,-66.2322 165.782,-64.8554 177.716,-63.509"/>
<polygon fill="midnightblue" stroke="midnightblue" points="141.206,-64.1058 131.661,-68.7049 141.991,-71.0616 141.206,-64.1058"/>
</g>
<!-- Node4 -->
<g id="node4" class="node"><title>Node4</title>
<g id="a_node4"><a xlink:href="../../d3/d17/classturtle_classes_1_1_turtle_mover.html#a955db4be8fe596975332813b98a0cecf" target="_top" xlink:title="turtleClasses.TurtleMover.start\lDrawing">
<polygon fill="white" stroke="black" points="394.5,-39 394.5,-69 555.5,-69 555.5,-39 394.5,-39"/>
<text text-anchor="start" x="402.5" y="-57" font-family="Helvetica,sans-Serif" font-size="10.00">turtleClasses.TurtleMover.start</text>
<text text-anchor="middle" x="475" y="-46" font-family="Helvetica,sans-Serif" font-size="10.00">Drawing</text>
</a>
</g>
</g>
<!-- Node3&#45;&gt;Node4 -->
<g id="edge3" class="edge"><title>Node3&#45;&gt;Node4</title>
<path fill="none" stroke="midnightblue" d="M368.493,-54C377.233,-54 385.978,-54 394.485,-54"/>
<polygon fill="midnightblue" stroke="midnightblue" points="368.25,-50.5001 358.25,-54 368.25,-57.5001 368.25,-50.5001"/>
</g>
<!-- Node5 -->
<g id="node5" class="node"><title>Node5</title>
<g id="a_node5"><a xlink:href="../../d8/dc1/classfrontend_1_1_concrete_features_1_1_command_executer.html#a14b9b724db30e6cc89f62304f7bf40b2" target="_top" xlink:title="frontend.ConcreteFeatures.\lCommandExecuter.action">
<polygon fill="white" stroke="black" points="616,-88 616,-118 764,-118 764,-88 616,-88"/>
<text text-anchor="start" x="624" y="-106" font-family="Helvetica,sans-Serif" font-size="10.00">frontend.ConcreteFeatures.</text>
<text text-anchor="middle" x="690" y="-95" font-family="Helvetica,sans-Serif" font-size="10.00">CommandExecuter.action</text>
</a>
</g>
</g>
<!-- Node4&#45;&gt;Node5 -->
<g id="edge4" class="edge"><title>Node4&#45;&gt;Node5</title>
<path fill="none" stroke="midnightblue" d="M551.337,-71.3309C574.985,-76.7712 600.881,-82.7285 623.769,-87.9938"/>
<polygon fill="midnightblue" stroke="midnightblue" points="551.885,-67.8657 541.355,-69.0346 550.315,-74.6875 551.885,-67.8657"/>
</g>
<!-- Node6 -->
<g id="node6" class="node"><title>Node6</title>
<g id="a_node6"><a xlink:href="../../de/d9f/classfrontend_1_1_concrete_features_1_1_load_s_logo_file.html#aa491ddd476ad22ed21a358b21c01605f" target="_top" xlink:title="frontend.ConcreteFeatures.\lLoadSLogoFile.action">
<polygon fill="white" stroke="black" points="616,-39 616,-69 764,-69 764,-39 616,-39"/>
<text text-anchor="start" x="624" y="-57" font-family="Helvetica,sans-Serif" font-size="10.00">frontend.ConcreteFeatures.</text>
<text text-anchor="middle" x="690" y="-46" font-family="Helvetica,sans-Serif" font-size="10.00">LoadSLogoFile.action</text>
</a>
</g>
</g>
<!-- Node4&#45;&gt;Node6 -->
<g id="edge5" class="edge"><title>Node4&#45;&gt;Node6</title>
<path fill="none" stroke="midnightblue" d="M565.893,-54C582.537,-54 599.736,-54 615.81,-54"/>
<polygon fill="midnightblue" stroke="midnightblue" points="565.616,-50.5001 555.616,-54 565.616,-57.5001 565.616,-50.5001"/>
</g>
<!-- Node7 -->
<g id="node7" class="node"><title>Node7</title>
<g id="a_node7"><a xlink:href="../../d7/d78/classturtle_classes_1_1_turtle_key_handler.html#a7dfe582e767f31105e84278d26dbc4c1" target="_top" xlink:title="turtleClasses.TurtleKeyHandler.handle">
<polygon fill="white" stroke="black" points="592,-0.5 592,-19.5 788,-19.5 788,-0.5 592,-0.5"/>
<text text-anchor="middle" x="690" y="-7.5" font-family="Helvetica,sans-Serif" font-size="10.00">turtleClasses.TurtleKeyHandler.handle</text>
</a>
</g>
</g>
<!-- Node4&#45;&gt;Node7 -->
<g id="edge6" class="edge"><title>Node4&#45;&gt;Node7</title>
<path fill="none" stroke="midnightblue" d="M558.533,-36.9169C569.78,-34.5912 581.174,-32.2361 592,-30 608.502,-26.5916 626.585,-22.8618 642.62,-19.5563"/>
<polygon fill="midnightblue" stroke="midnightblue" points="557.79,-33.4965 548.706,-38.9494 559.208,-40.3514 557.79,-33.4965"/>
</g>
</g>
</svg>
