<?xml version="1.0" encoding="UTF-8" standalone="no"?>
<!DOCTYPE svg PUBLIC "-//W3C//DTD SVG 1.1//EN"
 "http://www.w3.org/Graphics/SVG/1.1/DTD/svg11.dtd">
<!-- Generated by graphviz version 2.36.0 (20140111.2315)
 -->
<!-- Title: turtleClasses.Turtle.Turtle Pages: 1 -->
<svg width="662pt" height="142pt"
 viewBox="0.00 0.00 662.00 142.00" xmlns="http://www.w3.org/2000/svg" xmlns:xlink="http://www.w3.org/1999/xlink">
<g id="graph0" class="graph" transform="scale(1 1) rotate(0) translate(4 138)">
<title>turtleClasses.Turtle.Turtle</title>
<polygon fill="white" stroke="none" points="-4,4 -4,-138 658,-138 658,4 -4,4"/>
<!-- Node1 -->
<g id="node1" class="node"><title>Node1</title>
<polygon fill="#bfbfbf" stroke="black" points="0,-114.5 0,-133.5 136,-133.5 136,-114.5 0,-114.5"/>
<text text-anchor="middle" x="68" y="-121.5" font-family="Helvetica,sans-Serif" font-size="10.00">turtleClasses.Turtle.Turtle</text>
</g>
<!-- Node2 -->
<g id="node2" class="node"><title>Node2</title>
<g id="a_node2"><a xlink:href="../../d8/d89/classturtle_classes_1_1_turtle.html#abd769212afc56f042db3d4b5ee33790e" target="_top" xlink:title="turtleClasses.Turtle.handle\lActiveOutline">
<polygon fill="white" stroke="black" points="510.5,-93 510.5,-123 653.5,-123 653.5,-93 510.5,-93"/>
<text text-anchor="start" x="518.5" y="-111" font-family="Helvetica,sans-Serif" font-size="10.00">turtleClasses.Turtle.handle</text>
<text text-anchor="middle" x="582" y="-100" font-family="Helvetica,sans-Serif" font-size="10.00">ActiveOutline</text>
</a>
</g>
</g>
<!-- Node1&#45;&gt;Node2 -->
<g id="edge1" class="edge"><title>Node1&#45;&gt;Node2</title>
<path fill="none" stroke="midnightblue" d="M136.198,-121.9C229.969,-118.97 399.836,-113.661 500.329,-110.521"/>
<polygon fill="midnightblue" stroke="midnightblue" points="500.546,-114.016 510.431,-110.205 500.327,-107.019 500.546,-114.016"/>
</g>
<!-- Node3 -->
<g id="node3" class="node"><title>Node3</title>
<g id="a_node3"><a xlink:href="../../d8/d89/classturtle_classes_1_1_turtle.html#ab95a54f66d8824ececa5f3dd2394ac3a" target="_top" xlink:title="turtleClasses.Turtle.toggle\lActive">
<polygon fill="white" stroke="black" points="172,-68 172,-98 312,-98 312,-68 172,-68"/>
<text text-anchor="start" x="180" y="-86" font-family="Helvetica,sans-Serif" font-size="10.00">turtleClasses.Turtle.toggle</text>
<text text-anchor="middle" x="242" y="-75" font-family="Helvetica,sans-Serif" font-size="10.00">Active</text>
</a>
</g>
</g>
<!-- Node1&#45;&gt;Node3 -->
<g id="edge2" class="edge"><title>Node1&#45;&gt;Node3</title>
<path fill="none" stroke="midnightblue" d="M108.893,-114.491C126.461,-110.303 147.674,-105.246 167.911,-100.422"/>
<polygon fill="midnightblue" stroke="midnightblue" points="168.831,-103.801 177.747,-98.0777 167.208,-96.9919 168.831,-103.801"/>
</g>
<!-- Node3&#45;&gt;Node2 -->
<g id="edge6" class="edge"><title>Node3&#45;&gt;Node2</title>
<path fill="none" stroke="midnightblue" d="M312.215,-88.1195C366.783,-92.1556 442.976,-97.7911 500.31,-102.032"/>
<polygon fill="midnightblue" stroke="midnightblue" points="500.194,-105.533 510.425,-102.78 500.71,-98.5517 500.194,-105.533"/>
</g>
<!-- Node4 -->
<g id="node4" class="node"><title>Node4</title>
<g id="a_node4"><a xlink:href="../../d8/d89/classturtle_classes_1_1_turtle.html#a2d3828dbca854624cc75fca5aa65b4c5" target="_top" xlink:title="turtleClasses.Turtle.set\lActive">
<polygon fill="white" stroke="black" points="348.5,-49 348.5,-79 473.5,-79 473.5,-49 348.5,-49"/>
<text text-anchor="start" x="356.5" y="-67" font-family="Helvetica,sans-Serif" font-size="10.00">turtleClasses.Turtle.set</text>
<text text-anchor="middle" x="411" y="-56" font-family="Helvetica,sans-Serif" font-size="10.00">Active</text>
</a>
</g>
</g>
<!-- Node3&#45;&gt;Node4 -->
<g id="edge3" class="edge"><title>Node3&#45;&gt;Node4</title>
<path fill="none" stroke="midnightblue" d="M312.372,-75.1074C320.939,-74.1327 329.71,-73.1348 338.31,-72.1563"/>
<polygon fill="midnightblue" stroke="midnightblue" points="338.765,-75.6272 348.306,-71.0191 337.974,-68.6721 338.765,-75.6272"/>
</g>
<!-- Node5 -->
<g id="node5" class="node"><title>Node5</title>
<g id="a_node5"><a xlink:href="../../d8/d89/classturtle_classes_1_1_turtle.html#a2d2fbb81602870ad25869504ebc47a96" target="_top" xlink:title="turtleClasses.Turtle.get\lIsActive">
<polygon fill="white" stroke="black" points="348,-0 348,-30 474,-30 474,-0 348,-0"/>
<text text-anchor="start" x="356" y="-18" font-family="Helvetica,sans-Serif" font-size="10.00">turtleClasses.Turtle.get</text>
<text text-anchor="middle" x="411" y="-7" font-family="Helvetica,sans-Serif" font-size="10.00">IsActive</text>
</a>
</g>
</g>
<!-- Node3&#45;&gt;Node5 -->
<g id="edge5" class="edge"><title>Node3&#45;&gt;Node5</title>
<path fill="none" stroke="midnightblue" d="M278.38,-67.8893C298.694,-59.2844 324.718,-48.3823 348,-39 352.209,-37.304 356.587,-35.5629 360.983,-33.8306"/>
<polygon fill="midnightblue" stroke="midnightblue" points="362.543,-36.9787 370.578,-30.0731 359.99,-30.4607 362.543,-36.9787"/>
</g>
<!-- Node4&#45;&gt;Node2 -->
<g id="edge4" class="edge"><title>Node4&#45;&gt;Node2</title>
<path fill="none" stroke="midnightblue" d="M469.688,-79.0192C483.75,-82.6804 498.917,-86.6294 513.395,-90.3987"/>
<polygon fill="midnightblue" stroke="midnightblue" points="512.726,-93.8413 523.286,-92.9738 514.49,-87.0671 512.726,-93.8413"/>
</g>
</g>
</svg>
