<?xml version="1.0" encoding="UTF-8" standalone="no"?>
<!DOCTYPE svg PUBLIC "-//W3C//DTD SVG 1.1//EN"
 "http://www.w3.org/Graphics/SVG/1.1/DTD/svg11.dtd">
<!-- Generated by graphviz version 2.36.0 (20140111.2315)
 -->
<!-- Title: turtleClasses.Turtle.setActive Pages: 1 -->
<!--zoomable 399 -->
<svg id="main" version="1.1" xmlns="http://www.w3.org/2000/svg" xmlns:xlink="http://www.w3.org/1999/xlink" xml:space="preserve" onload="init(evt)">
<style type="text/css"><![CDATA[
.edge:hover path { stroke: red; }
.edge:hover polygon { stroke: red; fill: red; }
]]></style>
<script type="text/javascript"><![CDATA[
var edges = document.getElementsByTagName('g');
if (edges && edges.length) {
  for (var i=0;i<edges.length;i++) {
    if (edges[i].id.substr(0,4)=='edge') {
      edges[i].setAttribute('class','edge');
    }
  }
}
]]></script>
        <defs>
                <circle id="rim" cx="0" cy="0" r="7"/>
                <circle id="rim2" cx="0" cy="0" r="3.5"/>
                <g id="zoomPlus">
                        <use xlink:href="#rim" fill="#404040">
                                <set attributeName="fill" to="#808080" begin="zoomplus.mouseover" end="zoomplus.mouseout"/>
                        </use>
                        <path d="M-4,0h8M0,-4v8" fill="none" stroke="white" stroke-width="1.5" pointer-events="none"/>
                </g>
                <g id="zoomMin">
                        <use xlink:href="#rim" fill="#404040">
                                <set attributeName="fill" to="#808080" begin="zoomminus.mouseover" end="zoomminus.mouseout"/>
                        </use>
                        <path d="M-4,0h8" fill="none" stroke="white" stroke-width="1.5" pointer-events="none"/>
                </g>
                <g id="dirArrow">
                        <path fill="none" stroke="white" stroke-width="1.5" d="M0,-3.0v7 M-2.5,-0.5L0,-3.0L2.5,-0.5"/>
                </g>
               <g id="resetDef">
                       <use xlink:href="#rim2" fill="#404040">
                               <set attributeName="fill" to="#808080" begin="reset.mouseover" end="reset.mouseout"/>
                       </use>
               </g>
        </defs>

<script type="text/javascript">
var viewWidth = 808;
var viewHeight = 399;
var sectionId = 'dynsection-22';
</script>
<script xlink:href="../../svgpan.js"/>
<svg id="graph" class="graph">
<g id="viewport">
<title>turtleClasses.Turtle.setActive</title>
<polygon fill="white" stroke="none" points="-4,4 -4,-395 804,-395 804,4 -4,4"/>
<!-- Node1 -->
<g id="node1" class="node"><title>Node1</title>
<polygon fill="#bfbfbf" stroke="black" points="0.5,-126 0.5,-156 125.5,-156 125.5,-126 0.5,-126"/>
<text text-anchor="start" x="8.5" y="-144" font-family="Helvetica,sans-Serif" font-size="10.00">turtleClasses.Turtle.set</text>
<text text-anchor="middle" x="63" y="-133" font-family="Helvetica,sans-Serif" font-size="10.00">Active</text>
</g>
<!-- Node2 -->
<g id="node2" class="node"><title>Node2</title>
<g id="a_node2"><a xlink:href="../../d4/d7e/classturtle_classes_1_1_turtle_collection.html#a61f007615f0fd523dae94957f8022100" target="_top" xlink:title="turtleClasses.TurtleCollection.set\lActiveTurtles">
<polygon fill="white" stroke="black" points="162,-186 162,-216 334,-216 334,-186 162,-186"/>
<text text-anchor="start" x="170" y="-204" font-family="Helvetica,sans-Serif" font-size="10.00">turtleClasses.TurtleCollection.set</text>
<text text-anchor="middle" x="248" y="-193" font-family="Helvetica,sans-Serif" font-size="10.00">ActiveTurtles</text>
</a>
</g>
</g>
<!-- Node1&#45;&gt;Node2 -->
<g id="edge1" class="edge"><title>Node1&#45;&gt;Node2</title>
<path fill="none" stroke="midnightblue" d="M119.909,-159.331C145.936,-167.864 176.514,-177.89 201.153,-185.968"/>
<polygon fill="midnightblue" stroke="midnightblue" points="120.771,-155.93 110.179,-156.141 118.59,-162.582 120.771,-155.93"/>
</g>
<!-- Node14 -->
<g id="node14" class="node"><title>Node14</title>
<g id="a_node14"><a xlink:href="../../d8/d89/classturtle_classes_1_1_turtle.html#ab95a54f66d8824ececa5f3dd2394ac3a" target="_top" xlink:title="turtleClasses.Turtle.toggle\lActive">
<polygon fill="white" stroke="black" points="178,-66 178,-96 318,-96 318,-66 178,-66"/>
<text text-anchor="start" x="186" y="-84" font-family="Helvetica,sans-Serif" font-size="10.00">turtleClasses.Turtle.toggle</text>
<text text-anchor="middle" x="248" y="-73" font-family="Helvetica,sans-Serif" font-size="10.00">Active</text>
</a>
</g>
</g>
<!-- Node1&#45;&gt;Node14 -->
<g id="edge13" class="edge"><title>Node1&#45;&gt;Node14</title>
<path fill="none" stroke="midnightblue" d="M119.909,-122.669C145.936,-114.136 176.514,-104.11 201.153,-96.0317"/>
<polygon fill="midnightblue" stroke="midnightblue" points="118.59,-119.418 110.179,-125.859 120.771,-126.07 118.59,-119.418"/>
</g>
<!-- Node3 -->
<g id="node3" class="node"><title>Node3</title>
<g id="a_node3"><a xlink:href="../../dc/d9a/classdisplay_commands_1_1_ask.html#a8b9d7e789a2cd29220b440ae03c70432" target="_top" xlink:title="displayCommands.Ask.doAction">
<polygon fill="white" stroke="black" points="384,-371.5 384,-390.5 554,-390.5 554,-371.5 384,-371.5"/>
<text text-anchor="middle" x="469" y="-378.5" font-family="Helvetica,sans-Serif" font-size="10.00">displayCommands.Ask.doAction</text>
</a>
</g>
</g>
<!-- Node2&#45;&gt;Node3 -->
<g id="edge2" class="edge"><title>Node2&#45;&gt;Node3</title>
<path fill="none" stroke="midnightblue" d="M260.26,-225.728C278.08,-261.866 316.347,-328.445 370,-362 376.171,-365.86 382.955,-368.964 389.985,-371.458"/>
<polygon fill="midnightblue" stroke="midnightblue" points="263.263,-223.896 255.78,-216.395 256.952,-226.925 263.263,-223.896"/>
</g>
<!-- Node4 -->
<g id="node4" class="node"><title>Node4</title>
<g id="a_node4"><a xlink:href="../../d9/d2b/classdisplay_commands_1_1_tell.html#a47e19aa9c97125a95f06c67dc189fc53" target="_top" xlink:title="displayCommands.Tell.doAction">
<polygon fill="white" stroke="black" points="385.5,-333.5 385.5,-352.5 552.5,-352.5 552.5,-333.5 385.5,-333.5"/>
<text text-anchor="middle" x="469" y="-340.5" font-family="Helvetica,sans-Serif" font-size="10.00">displayCommands.Tell.doAction</text>
</a>
</g>
</g>
<!-- Node2&#45;&gt;Node4 -->
<g id="edge3" class="edge"><title>Node2&#45;&gt;Node4</title>
<path fill="none" stroke="midnightblue" d="M265.486,-224.623C286.418,-252.709 325.241,-298.814 370,-323 378.097,-327.375 387.041,-330.796 396.136,-333.47"/>
<polygon fill="midnightblue" stroke="midnightblue" points="268.054,-222.205 259.333,-216.188 262.398,-226.33 268.054,-222.205"/>
</g>
<!-- Node5 -->
<g id="node5" class="node"><title>Node5</title>
<g id="a_node5"><a xlink:href="../../d4/d4a/classfrontend_1_1_concrete_features_1_1_change_line_width.html#adde04d20814309d03954f834f7bc9af0" target="_top" xlink:title="frontend.ConcreteFeatures.\lChangeLineWidth.action">
<polygon fill="white" stroke="black" points="395,-284 395,-314 543,-314 543,-284 395,-284"/>
<text text-anchor="start" x="403" y="-302" font-family="Helvetica,sans-Serif" font-size="10.00">frontend.ConcreteFeatures.</text>
<text text-anchor="middle" x="469" y="-291" font-family="Helvetica,sans-Serif" font-size="10.00">ChangeLineWidth.action</text>
</a>
</g>
</g>
<!-- Node2&#45;&gt;Node5 -->
<g id="edge4" class="edge"><title>Node2&#45;&gt;Node5</title>
<path fill="none" stroke="midnightblue" d="M278.37,-222.09C302.101,-238.282 336.887,-260.144 370,-274 378.99,-277.762 388.688,-281.068 398.364,-283.938"/>
<polygon fill="midnightblue" stroke="midnightblue" points="280.057,-219.002 269.842,-216.191 276.075,-224.759 280.057,-219.002"/>
</g>
<!-- Node6 -->
<g id="node6" class="node"><title>Node6</title>
<g id="a_node6"><a xlink:href="../../d0/d72/classfrontend_1_1_concrete_features_1_1_reset.html#ab7b13b161309fd31ad8c3faeacec0986" target="_top" xlink:title="frontend.ConcreteFeatures.\lReset.action">
<polygon fill="white" stroke="black" points="395,-235 395,-265 543,-265 543,-235 395,-235"/>
<text text-anchor="start" x="403" y="-253" font-family="Helvetica,sans-Serif" font-size="10.00">frontend.ConcreteFeatures.</text>
<text text-anchor="middle" x="469" y="-242" font-family="Helvetica,sans-Serif" font-size="10.00">Reset.action</text>
</a>
</g>
</g>
<!-- Node2&#45;&gt;Node6 -->
<g id="edge5" class="edge"><title>Node2&#45;&gt;Node6</title>
<path fill="none" stroke="midnightblue" d="M326.133,-218.258C350.535,-223.718 377.294,-229.705 400.932,-234.994"/>
<polygon fill="midnightblue" stroke="midnightblue" points="326.718,-214.803 316.196,-216.035 325.19,-221.634 326.718,-214.803"/>
</g>
<!-- Node7 -->
<g id="node7" class="node"><title>Node7</title>
<g id="a_node7"><a xlink:href="../../d6/d89/classfrontend_1_1_concrete_features_1_1_set_line_color.html#add708f64c58cef9f6a09b1eaa9431253" target="_top" xlink:title="frontend.ConcreteFeatures.\lSetLineColor.action">
<polygon fill="white" stroke="black" points="395,-186 395,-216 543,-216 543,-186 395,-186"/>
<text text-anchor="start" x="403" y="-204" font-family="Helvetica,sans-Serif" font-size="10.00">frontend.ConcreteFeatures.</text>
<text text-anchor="middle" x="469" y="-193" font-family="Helvetica,sans-Serif" font-size="10.00">SetLineColor.action</text>
</a>
</g>
</g>
<!-- Node2&#45;&gt;Node7 -->
<g id="edge6" class="edge"><title>Node2&#45;&gt;Node7</title>
<path fill="none" stroke="midnightblue" d="M344.664,-201C361.425,-201 378.627,-201 394.662,-201"/>
<polygon fill="midnightblue" stroke="midnightblue" points="344.298,-197.5 334.298,-201 344.298,-204.5 344.298,-197.5"/>
</g>
<!-- Node8 -->
<g id="node8" class="node"><title>Node8</title>
<g id="a_node8"><a xlink:href="../../d0/d3e/classfrontend_1_1_concrete_features_1_1_turtle_changer.html#a61a656e67b68f3aff1d55cad3cd823d6" target="_top" xlink:title="frontend.ConcreteFeatures.\lTurtleChanger.doDropDownClickAction">
<polygon fill="white" stroke="black" points="370,-137 370,-167 568,-167 568,-137 370,-137"/>
<text text-anchor="start" x="378" y="-155" font-family="Helvetica,sans-Serif" font-size="10.00">frontend.ConcreteFeatures.</text>
<text text-anchor="middle" x="469" y="-144" font-family="Helvetica,sans-Serif" font-size="10.00">TurtleChanger.doDropDownClickAction</text>
</a>
</g>
</g>
<!-- Node2&#45;&gt;Node8 -->
<g id="edge7" class="edge"><title>Node2&#45;&gt;Node8</title>
<path fill="none" stroke="midnightblue" d="M326.133,-183.742C350.535,-178.282 377.294,-172.295 400.932,-167.006"/>
<polygon fill="midnightblue" stroke="midnightblue" points="325.19,-180.366 316.196,-185.965 326.718,-187.197 325.19,-180.366"/>
</g>
<!-- Node9 -->
<g id="node9" class="node"><title>Node9</title>
<g id="a_node9"><a xlink:href="../../d3/dc9/classfrontend_1_1_concrete_features_1_1_turtle_stats_window.html#ac10aeedb8611acaf30a7eab04d2a59db" target="_top" xlink:title="frontend.ConcreteFeatures.\lTurtleStatsWindow.updatePane">
<polygon fill="white" stroke="black" points="388,-88 388,-118 550,-118 550,-88 388,-88"/>
<text text-anchor="start" x="396" y="-106" font-family="Helvetica,sans-Serif" font-size="10.00">frontend.ConcreteFeatures.</text>
<text text-anchor="middle" x="469" y="-95" font-family="Helvetica,sans-Serif" font-size="10.00">TurtleStatsWindow.updatePane</text>
</a>
</g>
</g>
<!-- Node2&#45;&gt;Node9 -->
<g id="edge8" class="edge"><title>Node2&#45;&gt;Node9</title>
<path fill="none" stroke="midnightblue" d="M278.37,-179.91C302.101,-163.718 336.887,-141.856 370,-128 378.99,-124.238 388.688,-120.932 398.364,-118.062"/>
<polygon fill="midnightblue" stroke="midnightblue" points="276.075,-177.241 269.842,-185.809 280.057,-182.998 276.075,-177.241"/>
</g>
<!-- Node10 -->
<g id="node10" class="node"><title>Node10</title>
<g id="a_node10"><a xlink:href="../../d3/d17/classturtle_classes_1_1_turtle_mover.html#a955db4be8fe596975332813b98a0cecf" target="_top" xlink:title="turtleClasses.TurtleMover.start\lDrawing">
<polygon fill="white" stroke="black" points="388.5,-39 388.5,-69 549.5,-69 549.5,-39 388.5,-39"/>
<text text-anchor="start" x="396.5" y="-57" font-family="Helvetica,sans-Serif" font-size="10.00">turtleClasses.TurtleMover.start</text>
<text text-anchor="middle" x="469" y="-46" font-family="Helvetica,sans-Serif" font-size="10.00">Drawing</text>
</a>
</g>
</g>
<!-- Node2&#45;&gt;Node10 -->
<g id="edge9" class="edge"><title>Node2&#45;&gt;Node10</title>
<path fill="none" stroke="midnightblue" d="M268.964,-178.128C296.899,-146.625 346.825,-92.2583 370,-79 376.782,-75.12 384.168,-71.8334 391.742,-69.0513"/>
<polygon fill="midnightblue" stroke="midnightblue" points="266.027,-176.166 262.036,-185.981 271.276,-180.797 266.027,-176.166"/>
</g>
<!-- Node11 -->
<g id="node11" class="node"><title>Node11</title>
<g id="a_node11"><a xlink:href="../../d8/dc1/classfrontend_1_1_concrete_features_1_1_command_executer.html#a14b9b724db30e6cc89f62304f7bf40b2" target="_top" xlink:title="frontend.ConcreteFeatures.\lCommandExecuter.action">
<polygon fill="white" stroke="black" points="628,-88 628,-118 776,-118 776,-88 628,-88"/>
<text text-anchor="start" x="636" y="-106" font-family="Helvetica,sans-Serif" font-size="10.00">frontend.ConcreteFeatures.</text>
<text text-anchor="middle" x="702" y="-95" font-family="Helvetica,sans-Serif" font-size="10.00">CommandExecuter.action</text>
</a>
</g>
</g>
<!-- Node10&#45;&gt;Node11 -->
<g id="edge10" class="edge"><title>Node10&#45;&gt;Node11</title>
<path fill="none" stroke="midnightblue" d="M550.674,-71.1127C576.597,-76.6115 605.102,-82.658 630.257,-87.9938"/>
<polygon fill="midnightblue" stroke="midnightblue" points="551.386,-67.6859 540.877,-69.0346 549.934,-74.5336 551.386,-67.6859"/>
</g>
<!-- Node12 -->
<g id="node12" class="node"><title>Node12</title>
<g id="a_node12"><a xlink:href="../../de/d9f/classfrontend_1_1_concrete_features_1_1_load_s_logo_file.html#aa491ddd476ad22ed21a358b21c01605f" target="_top" xlink:title="frontend.ConcreteFeatures.\lLoadSLogoFile.action">
<polygon fill="white" stroke="black" points="628,-39 628,-69 776,-69 776,-39 628,-39"/>
<text text-anchor="start" x="636" y="-57" font-family="Helvetica,sans-Serif" font-size="10.00">frontend.ConcreteFeatures.</text>
<text text-anchor="middle" x="702" y="-46" font-family="Helvetica,sans-Serif" font-size="10.00">LoadSLogoFile.action</text>
</a>
</g>
</g>
<!-- Node10&#45;&gt;Node12 -->
<g id="edge11" class="edge"><title>Node10&#45;&gt;Node12</title>
<path fill="none" stroke="midnightblue" d="M560.022,-54C582.46,-54 606.247,-54 627.765,-54"/>
<polygon fill="midnightblue" stroke="midnightblue" points="559.821,-50.5001 549.821,-54 559.821,-57.5001 559.821,-50.5001"/>
</g>
<!-- Node13 -->
<g id="node13" class="node"><title>Node13</title>
<g id="a_node13"><a xlink:href="../../d7/d78/classturtle_classes_1_1_turtle_key_handler.html#a7dfe582e767f31105e84278d26dbc4c1" target="_top" xlink:title="turtleClasses.TurtleKeyHandler.handle">
<polygon fill="white" stroke="black" points="604,-0.5 604,-19.5 800,-19.5 800,-0.5 604,-0.5"/>
<text text-anchor="middle" x="702" y="-7.5" font-family="Helvetica,sans-Serif" font-size="10.00">turtleClasses.TurtleKeyHandler.handle</text>
</a>
</g>
</g>
<!-- Node10&#45;&gt;Node13 -->
<g id="edge12" class="edge"><title>Node10&#45;&gt;Node13</title>
<path fill="none" stroke="midnightblue" d="M558.89,-37.0686C590.146,-31.115 624.152,-24.6377 651.06,-19.5124"/>
<polygon fill="midnightblue" stroke="midnightblue" points="558.019,-33.6714 548.851,-38.9808 559.329,-40.5477 558.019,-33.6714"/>
</g>
<!-- Node15 -->
<g id="node15" class="node"><title>Node15</title>
<g id="a_node15"><a xlink:href="../../d8/d89/classturtle_classes_1_1_turtle.html#a1e1a7a5fffde6f8c7ce5cee72ad927b1" target="_top" xlink:title="turtleClasses.Turtle.Turtle">
<polygon fill="white" stroke="black" points="401,-0.5 401,-19.5 537,-19.5 537,-0.5 401,-0.5"/>
<text text-anchor="middle" x="469" y="-7.5" font-family="Helvetica,sans-Serif" font-size="10.00">turtleClasses.Turtle.Turtle</text>
</a>
</g>
</g>
<!-- Node14&#45;&gt;Node15 -->
<g id="edge14" class="edge"><title>Node14&#45;&gt;Node15</title>
<path fill="none" stroke="midnightblue" d="M288.347,-61.5407C311.628,-50.6775 341.959,-37.634 370,-29 382.091,-25.277 395.255,-22.1323 407.898,-19.5389"/>
<polygon fill="midnightblue" stroke="midnightblue" points="286.695,-58.4505 279.151,-65.8894 289.687,-64.7787 286.695,-58.4505"/>
</g>
</g>
</svg>
        <g id="navigator" transform="translate(0 0)" fill="#404254">
                <rect fill="#f2f5e9" fill-opacity="0.5" stroke="#606060" stroke-width=".5" x="0" y="0" width="60" height="60"/>
                <use id="zoomplus" xlink:href="#zoomPlus" x="17" y="9" onmousedown="handleZoom(evt,'in')"/>
                <use id="zoomminus" xlink:href="#zoomMin" x="42" y="9" onmousedown="handleZoom(evt,'out')"/>
                <use id="reset" xlink:href="#resetDef" x="30" y="36" onmousedown="handleReset()"/>
                <g id="arrowUp" xlink:href="#dirArrow" transform="translate(30 24)" onmousedown="handlePan(0,-1)">
                  <use xlink:href="#rim" fill="#404040">
                        <set attributeName="fill" to="#808080" begin="arrowUp.mouseover" end="arrowUp.mouseout"/>
                  </use>
                  <path fill="none" stroke="white" stroke-width="1.5" d="M0,-3.0v7 M-2.5,-0.5L0,-3.0L2.5,-0.5"/>
                </g>
                <g id="arrowRight" xlink:href="#dirArrow" transform="rotate(90) translate(36 -43)" onmousedown="handlePan(1,0)">
                  <use xlink:href="#rim" fill="#404040">
                        <set attributeName="fill" to="#808080" begin="arrowRight.mouseover" end="arrowRight.mouseout"/>
                  </use>
                  <path fill="none" stroke="white" stroke-width="1.5" d="M0,-3.0v7 M-2.5,-0.5L0,-3.0L2.5,-0.5"/>
                </g>
                <g id="arrowDown" xlink:href="#dirArrow" transform="rotate(180) translate(-30 -48)" onmousedown="handlePan(0,1)">
                  <use xlink:href="#rim" fill="#404040">
                        <set attributeName="fill" to="#808080" begin="arrowDown.mouseover" end="arrowDown.mouseout"/>
                  </use>
                  <path fill="none" stroke="white" stroke-width="1.5" d="M0,-3.0v7 M-2.5,-0.5L0,-3.0L2.5,-0.5"/>
                </g>
                <g id="arrowLeft" xlink:href="#dirArrow" transform="rotate(270) translate(-36 17)" onmousedown="handlePan(-1,0)">
                  <use xlink:href="#rim" fill="#404040">
                        <set attributeName="fill" to="#808080" begin="arrowLeft.mouseover" end="arrowLeft.mouseout"/>
                  </use>
                  <path fill="none" stroke="white" stroke-width="1.5" d="M0,-3.0v7 M-2.5,-0.5L0,-3.0L2.5,-0.5"/>
                </g>
        </g>
        <svg viewBox="0 0 15 15" width="100%" height="30px" preserveAspectRatio="xMaxYMin meet">
         <g id="arrow_out" transform="scale(0.3 0.3)">
          <a xlink:href="classturtle_classes_1_1_turtle_a2d3828dbca854624cc75fca5aa65b4c5_icgraph_org.svg" target="_base">
           <rect id="button" ry="5" rx="5" y="6" x="6" height="38" width="38"
                fill="#f2f5e9" fill-opacity="0.5" stroke="#606060" stroke-width="1.0"/>
           <path id="arrow"
             d="M 11.500037,31.436501 C 11.940474,20.09759 22.043105,11.32322 32.158766,21.979434 L 37.068811,17.246167 C 37.068811,17.246167 37.088388,32 37.088388,32 L 22.160133,31.978069 C 22.160133,31.978069 26.997745,27.140456 26.997745,27.140456 C 18.528582,18.264221 13.291696,25.230495 11.500037,31.436501 z"
             style="fill:#404040;"/>
          </a>
         </g>
        </svg>
</svg>
