<?xml version="1.0" encoding="UTF-8" standalone="no"?>
<!DOCTYPE svg PUBLIC "-//W3C//DTD SVG 1.1//EN"
 "http://www.w3.org/Graphics/SVG/1.1/DTD/svg11.dtd">
<!-- Generated by graphviz version 2.36.0 (20140111.2315)
 -->
<!-- Title: turtleClasses.Turtle.rotate Pages: 1 -->
<svg width="356pt" height="77pt"
 viewBox="0.00 0.00 356.00 77.00" xmlns="http://www.w3.org/2000/svg" xmlns:xlink="http://www.w3.org/1999/xlink">
<g id="graph0" class="graph" transform="scale(1 1) rotate(0) translate(4 73)">
<title>turtleClasses.Turtle.rotate</title>
<polygon fill="white" stroke="none" points="-4,4 -4,-73 352,-73 352,4 -4,4"/>
<!-- Node1 -->
<g id="node1" class="node"><title>Node1</title>
<polygon fill="#bfbfbf" stroke="black" points="0,-27.5 0,-46.5 140,-46.5 140,-27.5 0,-27.5"/>
<text text-anchor="middle" x="70" y="-34.5" font-family="Helvetica,sans-Serif" font-size="10.00">turtleClasses.Turtle.rotate</text>
</g>
<!-- Node2 -->
<g id="node2" class="node"><title>Node2</title>
<g id="a_node2"><a xlink:href="../../d3/d7b/classdisplay_commands_1_1_left.html#aead3279c90c12d534b3e7bc065fdfe0c" target="_top" xlink:title="displayCommands.Left.doAction">
<polygon fill="white" stroke="black" points="176.5,-49.5 176.5,-68.5 347.5,-68.5 347.5,-49.5 176.5,-49.5"/>
<text text-anchor="middle" x="262" y="-56.5" font-family="Helvetica,sans-Serif" font-size="10.00">displayCommands.Left.doAction</text>
</a>
</g>
</g>
<!-- Node1&#45;&gt;Node2 -->
<g id="edge1" class="edge"><title>Node1&#45;&gt;Node2</title>
<path fill="none" stroke="midnightblue" d="M150.228,-46.1738C159.626,-47.262 169.236,-48.3747 178.676,-49.4677"/>
<polygon fill="midnightblue" stroke="midnightblue" points="150.468,-42.6783 140.132,-45.0047 149.663,-49.6318 150.468,-42.6783"/>
</g>
<!-- Node3 -->
<g id="node3" class="node"><title>Node3</title>
<g id="a_node3"><a xlink:href="../../d6/d3d/classdisplay_commands_1_1_right.html#aa446276b20f723f51c31f70e28c93445" target="_top" xlink:title="displayCommands.Right.do\lAction">
<polygon fill="white" stroke="black" points="188.5,-0 188.5,-30 335.5,-30 335.5,-0 188.5,-0"/>
<text text-anchor="start" x="196.5" y="-18" font-family="Helvetica,sans-Serif" font-size="10.00">displayCommands.Right.do</text>
<text text-anchor="middle" x="262" y="-7" font-family="Helvetica,sans-Serif" font-size="10.00">Action</text>
</a>
</g>
</g>
<!-- Node1&#45;&gt;Node3 -->
<g id="edge2" class="edge"><title>Node1&#45;&gt;Node3</title>
<path fill="none" stroke="midnightblue" d="M150.188,-27.8309C162.852,-26.3645 175.902,-24.8535 188.403,-23.406"/>
<polygon fill="midnightblue" stroke="midnightblue" points="149.663,-24.3682 140.132,-28.9953 150.468,-31.3217 149.663,-24.3682"/>
</g>
</g>
</svg>
