<?xml version="1.0" encoding="UTF-8" standalone="no"?>
<!DOCTYPE svg PUBLIC "-//W3C//DTD SVG 1.1//EN"
 "http://www.w3.org/Graphics/SVG/1.1/DTD/svg11.dtd">
<!-- Generated by graphviz version 2.36.0 (20140111.2315)
 -->
<!-- Title: frontend.ConcreteFeatures.ChangeCodingLanguage Pages: 1 -->
<svg width="654pt" height="156pt"
 viewBox="0.00 0.00 654.00 156.00" xmlns="http://www.w3.org/2000/svg" xmlns:xlink="http://www.w3.org/1999/xlink">
<g id="graph0" class="graph" transform="scale(1 1) rotate(0) translate(4 152)">
<title>frontend.ConcreteFeatures.ChangeCodingLanguage</title>
<polygon fill="white" stroke="none" points="-4,4 -4,-152 650,-152 650,4 -4,4"/>
<!-- Node1 -->
<g id="node1" class="node"><title>Node1</title>
<polygon fill="#bfbfbf" stroke="black" points="498,-55 498,-85 646,-85 646,-55 498,-55"/>
<text text-anchor="start" x="506" y="-73" font-family="Helvetica,sans-Serif" font-size="10.00">frontend.ConcreteFeatures.</text>
<text text-anchor="middle" x="572" y="-62" font-family="Helvetica,sans-Serif" font-size="10.00">ChangeCodingLanguage</text>
</g>
<!-- Node2 -->
<g id="node2" class="node"><title>Node2</title>
<g id="a_node2"><a xlink:href="../../d1/de3/classfrontend_1_1_abstract_features_1_1_s_logo_drop_down.html" target="_top" xlink:title="frontend.AbstractFeatures.\lSLogoDropDown">
<polygon fill="white" stroke="black" points="250.5,-75 250.5,-105 395.5,-105 395.5,-75 250.5,-75"/>
<text text-anchor="start" x="258.5" y="-93" font-family="Helvetica,sans-Serif" font-size="10.00">frontend.AbstractFeatures.</text>
<text text-anchor="middle" x="323" y="-82" font-family="Helvetica,sans-Serif" font-size="10.00">SLogoDropDown</text>
</a>
</g>
</g>
<!-- Node2&#45;&gt;Node1 -->
<g id="edge1" class="edge"><title>Node2&#45;&gt;Node1</title>
<path fill="none" stroke="midnightblue" d="M406.091,-83.353C435.718,-80.954 468.941,-78.2639 497.761,-75.9303"/>
<polygon fill="midnightblue" stroke="midnightblue" points="405.459,-79.8926 395.774,-84.1883 406.024,-86.8697 405.459,-79.8926"/>
</g>
<!-- Node3 -->
<g id="node3" class="node"><title>Node3</title>
<g id="a_node3"><a xlink:href="../../dc/db4/classfrontend_1_1_abstract_features_1_1_g_u_i_feature.html" target="_top" xlink:title="frontend.AbstractFeatures.\lGUIFeature">
<polygon fill="white" stroke="black" points="0.5,-118 0.5,-148 145.5,-148 145.5,-118 0.5,-118"/>
<text text-anchor="start" x="8.5" y="-136" font-family="Helvetica,sans-Serif" font-size="10.00">frontend.AbstractFeatures.</text>
<text text-anchor="middle" x="73" y="-125" font-family="Helvetica,sans-Serif" font-size="10.00">GUIFeature</text>
</a>
</g>
</g>
<!-- Node3&#45;&gt;Node2 -->
<g id="edge2" class="edge"><title>Node3&#45;&gt;Node2</title>
<path fill="none" stroke="midnightblue" d="M155.93,-118.794C186.476,-113.498 220.886,-107.532 250.429,-102.409"/>
<polygon fill="midnightblue" stroke="midnightblue" points="154.987,-115.406 145.732,-120.563 156.183,-122.303 154.987,-115.406"/>
</g>
<!-- Node4 -->
<g id="node4" class="node"><title>Node4</title>
<polygon fill="white" stroke="#bfbfbf" points="31,-79.5 31,-98.5 115,-98.5 115,-79.5 31,-79.5"/>
<text text-anchor="middle" x="73" y="-86.5" font-family="Helvetica,sans-Serif" font-size="10.00">List&lt; String &gt;</text>
</g>
<!-- Node4&#45;&gt;Node2 -->
<g id="edge3" class="edge"><title>Node4&#45;&gt;Node2</title>
<path fill="none" stroke="#9a32cd" stroke-dasharray="5,2" d="M125.515,-89.2077C161.554,-89.353 210.181,-89.5491 250.043,-89.7099"/>
<polygon fill="#9a32cd" stroke="#9a32cd" points="125.245,-85.7067 115.231,-89.1663 125.216,-92.7066 125.245,-85.7067"/>
<text text-anchor="middle" x="198" y="-93" font-family="Helvetica,sans-Serif" font-size="10.00"> myItems</text>
</g>
<!-- Node5 -->
<g id="node5" class="node"><title>Node5</title>
<g id="a_node5"><a xlink:href="../../d4/dbc/classfrontend_1_1_translator.html" target="_top" xlink:title="frontend.Translator">
<polygon fill="white" stroke="black" points="269.5,-36.5 269.5,-55.5 376.5,-55.5 376.5,-36.5 269.5,-36.5"/>
<text text-anchor="middle" x="323" y="-43.5" font-family="Helvetica,sans-Serif" font-size="10.00">frontend.Translator</text>
</a>
</g>
</g>
<!-- Node5&#45;&gt;Node1 -->
<g id="edge4" class="edge"><title>Node5&#45;&gt;Node1</title>
<path fill="none" stroke="#9a32cd" stroke-dasharray="5,2" d="M386.898,-52.1115C420.691,-55.3951 462.533,-59.4607 497.784,-62.8859"/>
<polygon fill="#9a32cd" stroke="#9a32cd" points="386.976,-48.6028 376.685,-51.1192 386.299,-55.57 386.976,-48.6028"/>
<text text-anchor="middle" x="447" y="-64" font-family="Helvetica,sans-Serif" font-size="10.00"> myTranslator</text>
</g>
<!-- Node6 -->
<g id="node6" class="node"><title>Node6</title>
<polygon fill="white" stroke="#bfbfbf" points="26.5,-38.5 26.5,-57.5 119.5,-57.5 119.5,-38.5 26.5,-38.5"/>
<text text-anchor="middle" x="73" y="-45.5" font-family="Helvetica,sans-Serif" font-size="10.00">ResourceBundle</text>
</g>
<!-- Node6&#45;&gt;Node5 -->
<g id="edge5" class="edge"><title>Node6&#45;&gt;Node5</title>
<path fill="none" stroke="#9a32cd" stroke-dasharray="5,2" d="M130.039,-47.5481C171.737,-47.2118 228.272,-46.7559 269.179,-46.426"/>
<polygon fill="#9a32cd" stroke="#9a32cd" points="129.747,-44.0502 119.776,-47.6308 129.804,-51.05 129.747,-44.0502"/>
<text text-anchor="middle" x="198" y="-51" font-family="Helvetica,sans-Serif" font-size="10.00"> myLanguage</text>
</g>
<!-- Node7 -->
<g id="node7" class="node"><title>Node7</title>
<polygon fill="white" stroke="#bfbfbf" points="12,-0.5 12,-19.5 134,-19.5 134,-0.5 12,-0.5"/>
<text text-anchor="middle" x="73" y="-7.5" font-family="Helvetica,sans-Serif" font-size="10.00">Map&lt; String, String &gt;</text>
</g>
<!-- Node7&#45;&gt;Node5 -->
<g id="edge6" class="edge"><title>Node7&#45;&gt;Node5</title>
<path fill="none" stroke="#9a32cd" stroke-dasharray="5,2" d="M143.963,-19.497C171.425,-23.2889 203.205,-27.756 232,-32 244.046,-33.7754 256.988,-35.7494 269.196,-37.6418"/>
<polygon fill="#9a32cd" stroke="#9a32cd" points="144.438,-16.0296 134.054,-18.1323 143.483,-22.9641 144.438,-16.0296"/>
<text text-anchor="middle" x="198" y="-35" font-family="Helvetica,sans-Serif" font-size="10.00"> myDictionary</text>
</g>
</g>
</svg>
