<?xml version="1.0" encoding="UTF-8" standalone="no"?>
<!DOCTYPE svg PUBLIC "-//W3C//DTD SVG 1.1//EN"
 "http://www.w3.org/Graphics/SVG/1.1/DTD/svg11.dtd">
<!-- Generated by graphviz version 2.36.0 (20140111.2315)
 -->
<!-- Title: commandAbstractClasses.Operation Pages: 1 -->
<svg width="330pt" height="178pt"
 viewBox="0.00 0.00 330.00 178.00" xmlns="http://www.w3.org/2000/svg" xmlns:xlink="http://www.w3.org/1999/xlink">
<g id="graph0" class="graph" transform="scale(1 1) rotate(0) translate(4 174)">
<title>commandAbstractClasses.Operation</title>
<polygon fill="white" stroke="none" points="-4,4 -4,-174 326,-174 326,4 -4,4"/>
<!-- Node1 -->
<g id="node1" class="node"><title>Node1</title>
<polygon fill="#bfbfbf" stroke="black" points="129.5,-0.5 129.5,-19.5 322.5,-19.5 322.5,-0.5 129.5,-0.5"/>
<text text-anchor="middle" x="226" y="-7.5" font-family="Helvetica,sans-Serif" font-size="10.00">commandAbstractClasses.Operation</text>
</g>
<!-- Node2 -->
<g id="node2" class="node"><title>Node2</title>
<g id="a_node2"><a xlink:href="../../db/da5/classexpression_tree_1_1_expression_node.html" target="_top" xlink:title="expressionTree.ExpressionNode">
<polygon fill="white" stroke="black" points="1,-69.5 1,-88.5 169,-88.5 169,-69.5 1,-69.5"/>
<text text-anchor="middle" x="85" y="-76.5" font-family="Helvetica,sans-Serif" font-size="10.00">expressionTree.ExpressionNode</text>
</a>
</g>
</g>
<!-- Node2&#45;&gt;Node1 -->
<g id="edge1" class="edge"><title>Node2&#45;&gt;Node1</title>
<path fill="none" stroke="midnightblue" d="M112.443,-64.9597C140.644,-51.5591 183.743,-31.0796 207.925,-19.5888"/>
<polygon fill="midnightblue" stroke="midnightblue" points="110.675,-61.9249 103.145,-69.3781 113.679,-68.2474 110.675,-61.9249"/>
</g>
<!-- Node2&#45;&gt;Node2 -->
<g id="edge3" class="edge"><title>Node2&#45;&gt;Node2</title>
<path fill="none" stroke="#9a32cd" stroke-dasharray="5,2" d="M179.372,-82.9312C183.558,-81.9291 186,-80.6187 186,-79 186,-76.3438 179.424,-74.5176 169.356,-73.5215"/>
<polygon fill="#9a32cd" stroke="#9a32cd" points="178.704,-79.4928 169.356,-84.4785 179.773,-86.4108 178.704,-79.4928"/>
<text text-anchor="middle" x="206" y="-82" font-family="Helvetica,sans-Serif" font-size="10.00"> myLeft</text>
<text text-anchor="middle" x="206" y="-71" font-family="Helvetica,sans-Serif" font-size="10.00">myRight</text>
</g>
<!-- Node3 -->
<g id="node3" class="node"><title>Node3</title>
<polygon fill="white" stroke="#bfbfbf" points="0,-139 0,-169 170,-169 170,-139 0,-139"/>
<text text-anchor="start" x="8" y="-157" font-family="Helvetica,sans-Serif" font-size="10.00">List&lt; displayCommands.Display</text>
<text text-anchor="middle" x="85" y="-146" font-family="Helvetica,sans-Serif" font-size="10.00">Node &gt;</text>
</g>
<!-- Node3&#45;&gt;Node2 -->
<g id="edge2" class="edge"><title>Node3&#45;&gt;Node2</title>
<path fill="none" stroke="#9a32cd" stroke-dasharray="5,2" d="M85,-128.574C85,-114.751 85,-98.325 85,-88.5528"/>
<polygon fill="#9a32cd" stroke="#9a32cd" points="81.5001,-128.925 85,-138.925 88.5001,-128.925 81.5001,-128.925"/>
<text text-anchor="middle" x="120" y="-111.5" font-family="Helvetica,sans-Serif" font-size="10.00"> instructionList</text>
</g>
<!-- Node4 -->
<g id="node4" class="node"><title>Node4</title>
<polygon fill="white" stroke="#bfbfbf" points="245,-69.5 245,-88.5 301,-88.5 301,-69.5 245,-69.5"/>
<text text-anchor="middle" x="273" y="-76.5" font-family="Helvetica,sans-Serif" font-size="10.00">Random</text>
</g>
<!-- Node4&#45;&gt;Node1 -->
<g id="edge4" class="edge"><title>Node4&#45;&gt;Node1</title>
<path fill="none" stroke="#9a32cd" stroke-dasharray="5,2" d="M261.044,-60.9567C251.764,-47.727 239.287,-29.9415 231.997,-19.5494"/>
<polygon fill="#9a32cd" stroke="#9a32cd" points="258.247,-63.0643 266.856,-69.2409 263.978,-59.0443 258.247,-63.0643"/>
<text text-anchor="middle" x="281" y="-41.5" font-family="Helvetica,sans-Serif" font-size="10.00"> randomizer</text>
</g>
</g>
</svg>
