<?xml version="1.0" encoding="UTF-8" standalone="no"?>
<!DOCTYPE svg PUBLIC "-//W3C//DTD SVG 1.1//EN"
 "http://www.w3.org/Graphics/SVG/1.1/DTD/svg11.dtd">
<!-- Generated by graphviz version 2.36.0 (20140111.2315)
 -->
<!-- Title: frontend.AbstractFeatures.SLogoTextBox Pages: 1 -->
<svg width="265pt" height="120pt"
 viewBox="0.00 0.00 265.00 120.00" xmlns="http://www.w3.org/2000/svg" xmlns:xlink="http://www.w3.org/1999/xlink">
<g id="graph0" class="graph" transform="scale(1 1) rotate(0) translate(4 116)">
<title>frontend.AbstractFeatures.SLogoTextBox</title>
<polygon fill="white" stroke="none" points="-4,4 -4,-116 261,-116 261,4 -4,4"/>
<!-- Node1 -->
<g id="node1" class="node"><title>Node1</title>
<polygon fill="#bfbfbf" stroke="black" points="68.5,-1 68.5,-31 213.5,-31 213.5,-1 68.5,-1"/>
<text text-anchor="start" x="76.5" y="-19" font-family="Helvetica,sans-Serif" font-size="10.00">frontend.AbstractFeatures.</text>
<text text-anchor="middle" x="141" y="-8" font-family="Helvetica,sans-Serif" font-size="10.00">SLogoTextBox</text>
</g>
<!-- Node2 -->
<g id="node2" class="node"><title>Node2</title>
<g id="a_node2"><a xlink:href="../../dc/db4/classfrontend_1_1_abstract_features_1_1_g_u_i_feature.html" target="_top" xlink:title="frontend.AbstractFeatures.\lGUIFeature">
<polygon fill="white" stroke="black" points="-0.5,-81 -0.5,-111 144.5,-111 144.5,-81 -0.5,-81"/>
<text text-anchor="start" x="7.5" y="-99" font-family="Helvetica,sans-Serif" font-size="10.00">frontend.AbstractFeatures.</text>
<text text-anchor="middle" x="72" y="-88" font-family="Helvetica,sans-Serif" font-size="10.00">GUIFeature</text>
</a>
</g>
</g>
<!-- Node2&#45;&gt;Node1 -->
<g id="edge1" class="edge"><title>Node2&#45;&gt;Node1</title>
<path fill="none" stroke="midnightblue" d="M91.5809,-72.8651C103.41,-59.493 118.138,-42.8445 128.425,-31.2157"/>
<polygon fill="midnightblue" stroke="midnightblue" points="88.6599,-70.8846 84.6557,-80.6936 93.9029,-75.5226 88.6599,-70.8846"/>
</g>
<!-- Node3 -->
<g id="node3" class="node"><title>Node3</title>
<polygon fill="white" stroke="#bfbfbf" points="163,-86.5 163,-105.5 257,-105.5 257,-86.5 163,-86.5"/>
<text text-anchor="middle" x="210" y="-93.5" font-family="Helvetica,sans-Serif" font-size="10.00">TextInputControl</text>
</g>
<!-- Node3&#45;&gt;Node1 -->
<g id="edge2" class="edge"><title>Node3&#45;&gt;Node1</title>
<path fill="none" stroke="#9a32cd" stroke-dasharray="5,2" d="M195.402,-78.4975C182.998,-64.4755 165.377,-44.557 153.585,-31.227"/>
<polygon fill="#9a32cd" stroke="#9a32cd" points="193.105,-81.1836 202.352,-86.3546 198.348,-76.5456 193.105,-81.1836"/>
<text text-anchor="middle" x="203" y="-53.5" font-family="Helvetica,sans-Serif" font-size="10.00"> inputBox</text>
</g>
</g>
</svg>
