<?xml version="1.0" encoding="UTF-8" standalone="no"?>
<!DOCTYPE svg PUBLIC "-//W3C//DTD SVG 1.1//EN"
 "http://www.w3.org/Graphics/SVG/1.1/DTD/svg11.dtd">
<!-- Generated by graphviz version 2.36.0 (20140111.2315)
 -->
<!-- Title: controlStructures.IfElse Pages: 1 -->
<svg width="235pt" height="178pt"
 viewBox="0.00 0.00 235.00 178.00" xmlns="http://www.w3.org/2000/svg" xmlns:xlink="http://www.w3.org/1999/xlink">
<g id="graph0" class="graph" transform="scale(1 1) rotate(0) translate(4 174)">
<title>controlStructures.IfElse</title>
<polygon fill="white" stroke="none" points="-4,4 -4,-174 231,-174 231,4 -4,4"/>
<!-- Node1 -->
<g id="node1" class="node"><title>Node1</title>
<polygon fill="#bfbfbf" stroke="black" points="21,-0.5 21,-19.5 149,-19.5 149,-0.5 21,-0.5"/>
<text text-anchor="middle" x="85" y="-7.5" font-family="Helvetica,sans-Serif" font-size="10.00">controlStructures.IfElse</text>
</g>
<!-- Node2 -->
<g id="node2" class="node"><title>Node2</title>
<g id="a_node2"><a xlink:href="../../db/da5/classexpression_tree_1_1_expression_node.html" target="_top" xlink:title="expressionTree.ExpressionNode">
<polygon fill="white" stroke="black" points="1,-69.5 1,-88.5 169,-88.5 169,-69.5 1,-69.5"/>
<text text-anchor="middle" x="85" y="-76.5" font-family="Helvetica,sans-Serif" font-size="10.00">expressionTree.ExpressionNode</text>
</a>
</g>
</g>
<!-- Node2&#45;&gt;Node1 -->
<g id="edge1" class="edge"><title>Node2&#45;&gt;Node1</title>
<path fill="none" stroke="midnightblue" d="M83.3901,-59.2702C82.9917,-52.5623 82.7432,-44.944 83,-38 83.2293,-31.7998 83.7539,-24.8151 84.2083,-19.5033"/>
<polygon fill="midnightblue" stroke="midnightblue" points="79.9125,-59.7046 84.1394,-69.4197 86.8935,-59.1892 79.9125,-59.7046"/>
</g>
<!-- Node2&#45;&gt;Node1 -->
<g id="edge4" class="edge"><title>Node2&#45;&gt;Node1</title>
<path fill="none" stroke="#9a32cd" stroke-dasharray="5,2" d="M85,-59.0183C85,-46.034 85,-29.4419 85,-19.5494"/>
<polygon fill="#9a32cd" stroke="#9a32cd" points="81.5001,-59.2409 85,-69.2409 88.5001,-59.241 81.5001,-59.2409"/>
<text text-anchor="middle" x="109.5" y="-41.5" font-family="Helvetica,sans-Serif" font-size="10.00"> myMiddle</text>
</g>
<!-- Node2&#45;&gt;Node2 -->
<g id="edge3" class="edge"><title>Node2&#45;&gt;Node2</title>
<path fill="none" stroke="#9a32cd" stroke-dasharray="5,2" d="M179.372,-82.9312C183.558,-81.9291 186,-80.6187 186,-79 186,-76.3438 179.424,-74.5176 169.356,-73.5215"/>
<polygon fill="#9a32cd" stroke="#9a32cd" points="178.704,-79.4928 169.356,-84.4785 179.773,-86.4108 178.704,-79.4928"/>
<text text-anchor="middle" x="206" y="-82" font-family="Helvetica,sans-Serif" font-size="10.00"> myLeft</text>
<text text-anchor="middle" x="206" y="-71" font-family="Helvetica,sans-Serif" font-size="10.00">myRight</text>
</g>
<!-- Node3 -->
<g id="node3" class="node"><title>Node3</title>
<polygon fill="white" stroke="#bfbfbf" points="0,-139 0,-169 170,-169 170,-139 0,-139"/>
<text text-anchor="start" x="8" y="-157" font-family="Helvetica,sans-Serif" font-size="10.00">List&lt; displayCommands.Display</text>
<text text-anchor="middle" x="85" y="-146" font-family="Helvetica,sans-Serif" font-size="10.00">Node &gt;</text>
</g>
<!-- Node3&#45;&gt;Node2 -->
<g id="edge2" class="edge"><title>Node3&#45;&gt;Node2</title>
<path fill="none" stroke="#9a32cd" stroke-dasharray="5,2" d="M85,-128.574C85,-114.751 85,-98.325 85,-88.5528"/>
<polygon fill="#9a32cd" stroke="#9a32cd" points="81.5001,-128.925 85,-138.925 88.5001,-128.925 81.5001,-128.925"/>
<text text-anchor="middle" x="120" y="-111.5" font-family="Helvetica,sans-Serif" font-size="10.00"> instructionList</text>
</g>
</g>
</svg>
