<?xml version="1.0" encoding="UTF-8" standalone="no"?>
<!DOCTYPE svg PUBLIC "-//W3C//DTD SVG 1.1//EN"
 "http://www.w3.org/Graphics/SVG/1.1/DTD/svg11.dtd">
<!-- Generated by graphviz version 2.36.0 (20140111.2315)
 -->
<!-- Title: displayCommands.Tell.evaluate Pages: 1 -->
<svg width="364pt" height="136pt"
 viewBox="0.00 0.00 364.00 136.00" xmlns="http://www.w3.org/2000/svg" xmlns:xlink="http://www.w3.org/1999/xlink">
<g id="graph0" class="graph" transform="scale(1 1) rotate(0) translate(4 132)">
<title>displayCommands.Tell.evaluate</title>
<polygon fill="white" stroke="none" points="-4,4 -4,-132 360,-132 360,4 -4,4"/>
<!-- Node1 -->
<g id="node1" class="node"><title>Node1</title>
<polygon fill="#bfbfbf" stroke="black" points="0.5,-54.5 0.5,-73.5 167.5,-73.5 167.5,-54.5 0.5,-54.5"/>
<text text-anchor="middle" x="84" y="-61.5" font-family="Helvetica,sans-Serif" font-size="10.00">displayCommands.Tell.evaluate</text>
</g>
<!-- Node2 -->
<g id="node2" class="node"><title>Node2</title>
<g id="a_node2"><a xlink:href="../../db/da5/classexpression_tree_1_1_expression_node.html#a189034630678dbe1dbb8805adbda2a96" target="_top" xlink:title="expressionTree.Expression\lNode.evaluate">
<polygon fill="white" stroke="black" points="208.5,-98 208.5,-128 351.5,-128 351.5,-98 208.5,-98"/>
<text text-anchor="start" x="216.5" y="-116" font-family="Helvetica,sans-Serif" font-size="10.00">expressionTree.Expression</text>
<text text-anchor="middle" x="280" y="-105" font-family="Helvetica,sans-Serif" font-size="10.00">Node.evaluate</text>
</a>
</g>
</g>
<!-- Node1&#45;&gt;Node2 -->
<g id="edge1" class="edge"><title>Node1&#45;&gt;Node2</title>
<path fill="none" stroke="midnightblue" d="M122.866,-73.564C147.534,-79.7947 180.453,-88.1094 209.704,-95.4974"/>
<polygon fill="midnightblue" stroke="midnightblue" points="208.913,-98.9075 219.466,-97.963 210.628,-92.1207 208.913,-98.9075"/>
</g>
<!-- Node3 -->
<g id="node3" class="node"><title>Node3</title>
<g id="a_node3"><a xlink:href="../../db/da5/classexpression_tree_1_1_expression_node.html#a76dbf0eda9446dbbe98827fb6ef33356" target="_top" xlink:title="expressionTree.Expression\lNode.getLeft">
<polygon fill="white" stroke="black" points="208.5,-49 208.5,-79 351.5,-79 351.5,-49 208.5,-49"/>
<text text-anchor="start" x="216.5" y="-67" font-family="Helvetica,sans-Serif" font-size="10.00">expressionTree.Expression</text>
<text text-anchor="middle" x="280" y="-56" font-family="Helvetica,sans-Serif" font-size="10.00">Node.getLeft</text>
</a>
</g>
</g>
<!-- Node1&#45;&gt;Node3 -->
<g id="edge2" class="edge"><title>Node1&#45;&gt;Node3</title>
<path fill="none" stroke="midnightblue" d="M167.555,-64C177.765,-64 188.193,-64 198.373,-64"/>
<polygon fill="midnightblue" stroke="midnightblue" points="198.454,-67.5001 208.454,-64 198.453,-60.5001 198.454,-67.5001"/>
</g>
<!-- Node4 -->
<g id="node4" class="node"><title>Node4</title>
<g id="a_node4"><a xlink:href="../../d9/de6/classexpression_tree_1_1_list_node.html#ad2a28e016675c9338d563c246f998513" target="_top" xlink:title="expressionTree.ListNode.get\lListContents">
<polygon fill="white" stroke="black" points="204,-0 204,-30 356,-30 356,-0 204,-0"/>
<text text-anchor="start" x="212" y="-18" font-family="Helvetica,sans-Serif" font-size="10.00">expressionTree.ListNode.get</text>
<text text-anchor="middle" x="280" y="-7" font-family="Helvetica,sans-Serif" font-size="10.00">ListContents</text>
</a>
</g>
</g>
<!-- Node1&#45;&gt;Node4 -->
<g id="edge3" class="edge"><title>Node1&#45;&gt;Node4</title>
<path fill="none" stroke="midnightblue" d="M122.866,-54.436C147.534,-48.2053 180.453,-39.8906 209.704,-32.5026"/>
<polygon fill="midnightblue" stroke="midnightblue" points="210.628,-35.8793 219.466,-30.037 208.913,-29.0925 210.628,-35.8793"/>
</g>
</g>
</svg>
