<?xml version="1.0" encoding="UTF-8" standalone="no"?>
<!DOCTYPE svg PUBLIC "-//W3C//DTD SVG 1.1//EN"
 "http://www.w3.org/Graphics/SVG/1.1/DTD/svg11.dtd">
<!-- Generated by graphviz version 2.36.0 (20140111.2315)
 -->
<!-- Title: controlStructures.MakeVariable.evaluate Pages: 1 -->
<svg width="400pt" height="87pt"
 viewBox="0.00 0.00 400.00 87.00" xmlns="http://www.w3.org/2000/svg" xmlns:xlink="http://www.w3.org/1999/xlink">
<g id="graph0" class="graph" transform="scale(1 1) rotate(0) translate(4 83)">
<title>controlStructures.MakeVariable.evaluate</title>
<polygon fill="white" stroke="none" points="-4,4 -4,-83 396,-83 396,4 -4,4"/>
<!-- Node1 -->
<g id="node1" class="node"><title>Node1</title>
<polygon fill="#bfbfbf" stroke="black" points="0.5,-29.5 0.5,-48.5 211.5,-48.5 211.5,-29.5 0.5,-29.5"/>
<text text-anchor="middle" x="106" y="-36.5" font-family="Helvetica,sans-Serif" font-size="10.00">controlStructures.MakeVariable.evaluate</text>
</g>
<!-- Node2 -->
<g id="node2" class="node"><title>Node2</title>
<g id="a_node2"><a xlink:href="../../db/da5/classexpression_tree_1_1_expression_node.html#a189034630678dbe1dbb8805adbda2a96" target="_top" xlink:title="expressionTree.Expression\lNode.evaluate">
<polygon fill="white" stroke="black" points="248.5,-49 248.5,-79 391.5,-79 391.5,-49 248.5,-49"/>
<text text-anchor="start" x="256.5" y="-67" font-family="Helvetica,sans-Serif" font-size="10.00">expressionTree.Expression</text>
<text text-anchor="middle" x="320" y="-56" font-family="Helvetica,sans-Serif" font-size="10.00">Node.evaluate</text>
</a>
</g>
</g>
<!-- Node1&#45;&gt;Node2 -->
<g id="edge1" class="edge"><title>Node1&#45;&gt;Node2</title>
<path fill="none" stroke="midnightblue" d="M187.753,-48.5227C204.226,-50.4654 221.563,-52.5098 238.044,-54.4533"/>
<polygon fill="midnightblue" stroke="midnightblue" points="237.838,-57.9532 248.179,-55.6485 238.658,-51.0013 237.838,-57.9532"/>
</g>
<!-- Node3 -->
<g id="node3" class="node"><title>Node3</title>
<g id="a_node3"><a xlink:href="../../db/da5/classexpression_tree_1_1_expression_node.html#af54cab1e99fb9ffaa4c0a45dab10c8eb" target="_top" xlink:title="expressionTree.Expression\lNode.setValue">
<polygon fill="white" stroke="black" points="248.5,-0 248.5,-30 391.5,-30 391.5,-0 248.5,-0"/>
<text text-anchor="start" x="256.5" y="-18" font-family="Helvetica,sans-Serif" font-size="10.00">expressionTree.Expression</text>
<text text-anchor="middle" x="320" y="-7" font-family="Helvetica,sans-Serif" font-size="10.00">Node.setValue</text>
</a>
</g>
</g>
<!-- Node1&#45;&gt;Node3 -->
<g id="edge2" class="edge"><title>Node1&#45;&gt;Node3</title>
<path fill="none" stroke="midnightblue" d="M191.093,-29.4801C206.645,-27.7195 222.855,-25.8843 238.304,-24.1354"/>
<polygon fill="midnightblue" stroke="midnightblue" points="238.788,-27.603 248.331,-23.0003 238.001,-20.6474 238.788,-27.603"/>
</g>
</g>
</svg>
