<?xml version="1.0" encoding="UTF-8" standalone="no"?>
<!DOCTYPE svg PUBLIC "-//W3C//DTD SVG 1.1//EN"
 "http://www.w3.org/Graphics/SVG/1.1/DTD/svg11.dtd">
<!-- Generated by graphviz version 2.36.0 (20140111.2315)
 -->
<!-- Title: commandAbstractClasses.Operation Pages: 1 -->
<!--zoomable 750 -->
<svg id="main" version="1.1" xmlns="http://www.w3.org/2000/svg" xmlns:xlink="http://www.w3.org/1999/xlink" xml:space="preserve" onload="init(evt)">
<style type="text/css"><![CDATA[
.edge:hover path { stroke: red; }
.edge:hover polygon { stroke: red; fill: red; }
]]></style>
<script type="text/javascript"><![CDATA[
var edges = document.getElementsByTagName('g');
if (edges && edges.length) {
  for (var i=0;i<edges.length;i++) {
    if (edges[i].id.substr(0,4)=='edge') {
      edges[i].setAttribute('class','edge');
    }
  }
}
]]></script>
        <defs>
                <circle id="rim" cx="0" cy="0" r="7"/>
                <circle id="rim2" cx="0" cy="0" r="3.5"/>
                <g id="zoomPlus">
                        <use xlink:href="#rim" fill="#404040">
                                <set attributeName="fill" to="#808080" begin="zoomplus.mouseover" end="zoomplus.mouseout"/>
                        </use>
                        <path d="M-4,0h8M0,-4v8" fill="none" stroke="white" stroke-width="1.5" pointer-events="none"/>
                </g>
                <g id="zoomMin">
                        <use xlink:href="#rim" fill="#404040">
                                <set attributeName="fill" to="#808080" begin="zoomminus.mouseover" end="zoomminus.mouseout"/>
                        </use>
                        <path d="M-4,0h8" fill="none" stroke="white" stroke-width="1.5" pointer-events="none"/>
                </g>
                <g id="dirArrow">
                        <path fill="none" stroke="white" stroke-width="1.5" d="M0,-3.0v7 M-2.5,-0.5L0,-3.0L2.5,-0.5"/>
                </g>
               <g id="resetDef">
                       <use xlink:href="#rim2" fill="#404040">
                               <set attributeName="fill" to="#808080" begin="reset.mouseover" end="reset.mouseout"/>
                       </use>
               </g>
        </defs>

<script type="text/javascript">
var viewWidth = 606;
var viewHeight = 750;
var sectionId = 'dynsection-0';
</script>
<script xlink:href="../../svgpan.js"/>
<svg id="graph" class="graph">
<g id="viewport">
<title>commandAbstractClasses.Operation</title>
<polygon fill="white" stroke="none" points="-4,4 -4,-746 602,-746 602,4 -4,4"/>
<!-- Node1 -->
<g id="node1" class="node"><title>Node1</title>
<polygon fill="#bfbfbf" stroke="black" points="204.5,-361.5 204.5,-380.5 397.5,-380.5 397.5,-361.5 204.5,-361.5"/>
<text text-anchor="middle" x="301" y="-368.5" font-family="Helvetica,sans-Serif" font-size="10.00">commandAbstractClasses.Operation</text>
</g>
<!-- Node3 -->
<g id="node3" class="node"><title>Node3</title>
<g id="a_node3"><a xlink:href="../../d4/d95/classcomparators_1_1_and.html" target="_top" xlink:title="comparators.And">
<polygon fill="white" stroke="black" points="466,-722.5 466,-741.5 566,-741.5 566,-722.5 466,-722.5"/>
<text text-anchor="middle" x="516" y="-729.5" font-family="Helvetica,sans-Serif" font-size="10.00">comparators.And</text>
</a>
</g>
</g>
<!-- Node1&#45;&gt;Node3 -->
<g id="edge2" class="edge"><title>Node1&#45;&gt;Node3</title>
<path fill="none" stroke="midnightblue" d="M303.419,-390.865C308.737,-449.768 332.755,-624.84 434,-713 442.932,-720.778 454.453,-725.523 465.988,-728.379"/>
<polygon fill="midnightblue" stroke="midnightblue" points="306.891,-390.375 302.587,-380.694 299.914,-390.946 306.891,-390.375"/>
</g>
<!-- Node4 -->
<g id="node4" class="node"><title>Node4</title>
<g id="a_node4"><a xlink:href="../../dd/d1a/classcomparators_1_1_equal.html" target="_top" xlink:title="comparators.Equal">
<polygon fill="white" stroke="black" points="462.5,-684.5 462.5,-703.5 569.5,-703.5 569.5,-684.5 462.5,-684.5"/>
<text text-anchor="middle" x="516" y="-691.5" font-family="Helvetica,sans-Serif" font-size="10.00">comparators.Equal</text>
</a>
</g>
</g>
<!-- Node1&#45;&gt;Node4 -->
<g id="edge3" class="edge"><title>Node1&#45;&gt;Node4</title>
<path fill="none" stroke="midnightblue" d="M304.471,-390.813C312.357,-445.264 342.054,-598.217 434,-675 442.093,-681.759 452.157,-686.208 462.41,-689.115"/>
<polygon fill="midnightblue" stroke="midnightblue" points="307.919,-390.19 303.105,-380.752 300.983,-391.132 307.919,-390.19"/>
</g>
<!-- Node5 -->
<g id="node5" class="node"><title>Node5</title>
<g id="a_node5"><a xlink:href="../../da/d72/classcomparators_1_1_greater_than.html" target="_top" xlink:title="comparators.GreaterThan">
<polygon fill="white" stroke="black" points="445.5,-646.5 445.5,-665.5 586.5,-665.5 586.5,-646.5 445.5,-646.5"/>
<text text-anchor="middle" x="516" y="-653.5" font-family="Helvetica,sans-Serif" font-size="10.00">comparators.GreaterThan</text>
</a>
</g>
</g>
<!-- Node1&#45;&gt;Node5 -->
<g id="edge4" class="edge"><title>Node1&#45;&gt;Node5</title>
<path fill="none" stroke="midnightblue" d="M305.764,-390.627C316.346,-440.231 351.168,-571.338 434,-637 438.867,-640.858 444.385,-643.957 450.197,-646.441"/>
<polygon fill="midnightblue" stroke="midnightblue" points="309.145,-389.689 303.721,-380.588 302.285,-391.085 309.145,-389.689"/>
</g>
<!-- Node6 -->
<g id="node6" class="node"><title>Node6</title>
<g id="a_node6"><a xlink:href="../../d6/d0f/classcomparators_1_1_less_than.html" target="_top" xlink:title="comparators.LessThan">
<polygon fill="white" stroke="black" points="453,-608.5 453,-627.5 579,-627.5 579,-608.5 453,-608.5"/>
<text text-anchor="middle" x="516" y="-615.5" font-family="Helvetica,sans-Serif" font-size="10.00">comparators.LessThan</text>
</a>
</g>
</g>
<!-- Node1&#45;&gt;Node6 -->
<g id="edge5" class="edge"><title>Node1&#45;&gt;Node6</title>
<path fill="none" stroke="midnightblue" d="M307.442,-390.486C320.91,-434.945 360.173,-544.238 434,-599 439.685,-603.217 446.161,-606.515 452.917,-609.092"/>
<polygon fill="midnightblue" stroke="midnightblue" points="310.733,-389.27 304.568,-380.653 304.014,-391.233 310.733,-389.27"/>
</g>
<!-- Node7 -->
<g id="node7" class="node"><title>Node7</title>
<g id="a_node7"><a xlink:href="../../d0/dd5/classcomparators_1_1_not.html" target="_top" xlink:title="comparators.Not">
<polygon fill="white" stroke="black" points="467,-570.5 467,-589.5 565,-589.5 565,-570.5 467,-570.5"/>
<text text-anchor="middle" x="516" y="-577.5" font-family="Helvetica,sans-Serif" font-size="10.00">comparators.Not</text>
</a>
</g>
</g>
<!-- Node1&#45;&gt;Node7 -->
<g id="edge6" class="edge"><title>Node1&#45;&gt;Node7</title>
<path fill="none" stroke="midnightblue" d="M309.724,-390.358C326.276,-429.23 369.023,-516.832 434,-561 443.676,-567.577 455.338,-571.895 466.761,-574.723"/>
<polygon fill="midnightblue" stroke="midnightblue" points="312.811,-388.664 305.753,-380.762 306.343,-391.341 312.811,-388.664"/>
</g>
<!-- Node8 -->
<g id="node8" class="node"><title>Node8</title>
<g id="a_node8"><a xlink:href="../../de/dad/classcomparators_1_1_not_equal.html" target="_top" xlink:title="comparators.NotEqual">
<polygon fill="white" stroke="black" points="453.5,-532.5 453.5,-551.5 578.5,-551.5 578.5,-532.5 453.5,-532.5"/>
<text text-anchor="middle" x="516" y="-539.5" font-family="Helvetica,sans-Serif" font-size="10.00">comparators.NotEqual</text>
</a>
</g>
</g>
<!-- Node1&#45;&gt;Node8 -->
<g id="edge7" class="edge"><title>Node1&#45;&gt;Node8</title>
<path fill="none" stroke="midnightblue" d="M312.644,-389.561C332.257,-421.997 377.325,-488.792 434,-523 440.43,-526.881 447.591,-529.97 454.919,-532.427"/>
<polygon fill="midnightblue" stroke="midnightblue" points="315.492,-387.5 307.39,-380.672 309.466,-391.062 315.492,-387.5"/>
</g>
<!-- Node9 -->
<g id="node9" class="node"><title>Node9</title>
<g id="a_node9"><a xlink:href="../../d7/da3/classcomparators_1_1_or.html" target="_top" xlink:title="comparators.Or">
<polygon fill="white" stroke="black" points="470,-494.5 470,-513.5 562,-513.5 562,-494.5 470,-494.5"/>
<text text-anchor="middle" x="516" y="-501.5" font-family="Helvetica,sans-Serif" font-size="10.00">comparators.Or</text>
</a>
</g>
</g>
<!-- Node1&#45;&gt;Node9 -->
<g id="edge8" class="edge"><title>Node1&#45;&gt;Node9</title>
<path fill="none" stroke="midnightblue" d="M316.933,-388.386C339.612,-413.642 385.282,-460.168 434,-485 445.067,-490.641 457.84,-494.636 469.923,-497.455"/>
<polygon fill="midnightblue" stroke="midnightblue" points="319.392,-385.882 310.152,-380.698 314.142,-390.512 319.392,-385.882"/>
</g>
<!-- Node10 -->
<g id="node10" class="node"><title>Node10</title>
<g id="a_node10"><a xlink:href="../../d3/d45/classmath_operations_1_1_arc_tangent.html" target="_top" xlink:title="mathOperations.ArcTangent">
<polygon fill="white" stroke="black" points="440.5,-456.5 440.5,-475.5 591.5,-475.5 591.5,-456.5 440.5,-456.5"/>
<text text-anchor="middle" x="516" y="-463.5" font-family="Helvetica,sans-Serif" font-size="10.00">mathOperations.ArcTangent</text>
</a>
</g>
</g>
<!-- Node1&#45;&gt;Node10 -->
<g id="edge9" class="edge"><title>Node1&#45;&gt;Node10</title>
<path fill="none" stroke="midnightblue" d="M324.085,-386.424C349.508,-403.52 393.042,-430.811 434,-447 443.537,-450.77 454.015,-453.91 464.178,-456.48"/>
<polygon fill="midnightblue" stroke="midnightblue" points="325.811,-383.365 315.576,-380.626 321.869,-389.149 325.811,-383.365"/>
</g>
<!-- Node11 -->
<g id="node11" class="node"><title>Node11</title>
<g id="a_node11"><a xlink:href="../../df/d6e/classmath_operations_1_1_cosine.html" target="_top" xlink:title="mathOperations.Cosine">
<polygon fill="white" stroke="black" points="451,-418.5 451,-437.5 581,-437.5 581,-418.5 451,-418.5"/>
<text text-anchor="middle" x="516" y="-425.5" font-family="Helvetica,sans-Serif" font-size="10.00">mathOperations.Cosine</text>
</a>
</g>
</g>
<!-- Node1&#45;&gt;Node11 -->
<g id="edge10" class="edge"><title>Node1&#45;&gt;Node11</title>
<path fill="none" stroke="midnightblue" d="M343.221,-383.44C369.181,-391.131 403.445,-401.024 434,-409 446.438,-412.247 460.018,-415.533 472.443,-418.438"/>
<polygon fill="midnightblue" stroke="midnightblue" points="343.933,-380 333.35,-380.503 341.936,-386.709 343.933,-380"/>
</g>
<!-- Node12 -->
<g id="node12" class="node"><title>Node12</title>
<g id="a_node12"><a xlink:href="../../df/d35/classmath_operations_1_1_difference.html" target="_top" xlink:title="mathOperations.Difference">
<polygon fill="white" stroke="black" points="443,-380.5 443,-399.5 589,-399.5 589,-380.5 443,-380.5"/>
<text text-anchor="middle" x="516" y="-387.5" font-family="Helvetica,sans-Serif" font-size="10.00">mathOperations.Difference</text>
</a>
</g>
</g>
<!-- Node1&#45;&gt;Node12 -->
<g id="edge11" class="edge"><title>Node1&#45;&gt;Node12</title>
<path fill="none" stroke="midnightblue" d="M407.569,-380.417C419.462,-381.478 431.369,-382.54 442.699,-383.551"/>
<polygon fill="midnightblue" stroke="midnightblue" points="407.868,-376.93 397.597,-379.527 407.246,-383.902 407.868,-376.93"/>
</g>
<!-- Node13 -->
<g id="node13" class="node"><title>Node13</title>
<g id="a_node13"><a xlink:href="../../d6/dff/classmath_operations_1_1_log.html" target="_top" xlink:title="mathOperations.Log">
<polygon fill="white" stroke="black" points="458.5,-342.5 458.5,-361.5 573.5,-361.5 573.5,-342.5 458.5,-342.5"/>
<text text-anchor="middle" x="516" y="-349.5" font-family="Helvetica,sans-Serif" font-size="10.00">mathOperations.Log</text>
</a>
</g>
</g>
<!-- Node1&#45;&gt;Node13 -->
<g id="edge12" class="edge"><title>Node1&#45;&gt;Node13</title>
<path fill="none" stroke="midnightblue" d="M407.861,-361.557C425.323,-359.999 442.808,-358.44 458.438,-357.045"/>
<polygon fill="midnightblue" stroke="midnightblue" points="407.246,-358.098 397.597,-362.473 407.868,-365.07 407.246,-358.098"/>
</g>
<!-- Node14 -->
<g id="node14" class="node"><title>Node14</title>
<g id="a_node14"><a xlink:href="../../d0/d97/classmath_operations_1_1_minus.html" target="_top" xlink:title="mathOperations.Minus">
<polygon fill="white" stroke="black" points="453.5,-304.5 453.5,-323.5 578.5,-323.5 578.5,-304.5 453.5,-304.5"/>
<text text-anchor="middle" x="516" y="-311.5" font-family="Helvetica,sans-Serif" font-size="10.00">mathOperations.Minus</text>
</a>
</g>
</g>
<!-- Node1&#45;&gt;Node14 -->
<g id="edge13" class="edge"><title>Node1&#45;&gt;Node14</title>
<path fill="none" stroke="midnightblue" d="M343.221,-358.56C369.181,-350.869 403.445,-340.976 434,-333 446.438,-329.753 460.018,-326.467 472.443,-323.562"/>
<polygon fill="midnightblue" stroke="midnightblue" points="341.936,-355.291 333.35,-361.497 343.933,-362 341.936,-355.291"/>
</g>
<!-- Node15 -->
<g id="node15" class="node"><title>Node15</title>
<g id="a_node15"><a xlink:href="../../d2/dc5/classmath_operations_1_1_power.html" target="_top" xlink:title="mathOperations.Power">
<polygon fill="white" stroke="black" points="453,-266.5 453,-285.5 579,-285.5 579,-266.5 453,-266.5"/>
<text text-anchor="middle" x="516" y="-273.5" font-family="Helvetica,sans-Serif" font-size="10.00">mathOperations.Power</text>
</a>
</g>
</g>
<!-- Node1&#45;&gt;Node15 -->
<g id="edge14" class="edge"><title>Node1&#45;&gt;Node15</title>
<path fill="none" stroke="midnightblue" d="M324.085,-355.576C349.508,-338.48 393.042,-311.189 434,-295 443.537,-291.23 454.015,-288.09 464.178,-285.52"/>
<polygon fill="midnightblue" stroke="midnightblue" points="321.869,-352.851 315.576,-361.374 325.811,-358.635 321.869,-352.851"/>
</g>
<!-- Node16 -->
<g id="node16" class="node"><title>Node16</title>
<g id="a_node16"><a xlink:href="../../d3/d94/classmath_operations_1_1_product.html" target="_top" xlink:title="mathOperations.Product">
<polygon fill="white" stroke="black" points="449,-228.5 449,-247.5 583,-247.5 583,-228.5 449,-228.5"/>
<text text-anchor="middle" x="516" y="-235.5" font-family="Helvetica,sans-Serif" font-size="10.00">mathOperations.Product</text>
</a>
</g>
</g>
<!-- Node1&#45;&gt;Node16 -->
<g id="edge15" class="edge"><title>Node1&#45;&gt;Node16</title>
<path fill="none" stroke="midnightblue" d="M316.933,-353.614C339.612,-328.358 385.282,-281.832 434,-257 441.593,-253.13 449.988,-250.035 458.413,-247.562"/>
<polygon fill="midnightblue" stroke="midnightblue" points="314.142,-351.488 310.152,-361.302 319.392,-356.118 314.142,-351.488"/>
</g>
<!-- Node17 -->
<g id="node17" class="node"><title>Node17</title>
<g id="a_node17"><a xlink:href="../../d0/d5d/classmath_operations_1_1_quotient.html" target="_top" xlink:title="mathOperations.Quotient">
<polygon fill="white" stroke="black" points="446.5,-190.5 446.5,-209.5 585.5,-209.5 585.5,-190.5 446.5,-190.5"/>
<text text-anchor="middle" x="516" y="-197.5" font-family="Helvetica,sans-Serif" font-size="10.00">mathOperations.Quotient</text>
</a>
</g>
</g>
<!-- Node1&#45;&gt;Node17 -->
<g id="edge16" class="edge"><title>Node1&#45;&gt;Node17</title>
<path fill="none" stroke="midnightblue" d="M312.644,-352.439C332.257,-320.003 377.325,-253.208 434,-219 440.43,-215.119 447.591,-212.03 454.919,-209.573"/>
<polygon fill="midnightblue" stroke="midnightblue" points="309.466,-350.938 307.39,-361.328 315.492,-354.5 309.466,-350.938"/>
</g>
<!-- Node18 -->
<g id="node18" class="node"><title>Node18</title>
<g id="a_node18"><a xlink:href="../../d5/d53/classmath_operations_1_1_remainder.html" target="_top" xlink:title="mathOperations.Remainder">
<polygon fill="white" stroke="black" points="441.5,-152.5 441.5,-171.5 590.5,-171.5 590.5,-152.5 441.5,-152.5"/>
<text text-anchor="middle" x="516" y="-159.5" font-family="Helvetica,sans-Serif" font-size="10.00">mathOperations.Remainder</text>
</a>
</g>
</g>
<!-- Node1&#45;&gt;Node18 -->
<g id="edge17" class="edge"><title>Node1&#45;&gt;Node18</title>
<path fill="none" stroke="midnightblue" d="M309.724,-351.642C326.276,-312.77 369.023,-225.168 434,-181 439.734,-177.102 446.165,-173.998 452.831,-171.527"/>
<polygon fill="midnightblue" stroke="midnightblue" points="306.343,-350.659 305.753,-361.238 312.811,-353.336 306.343,-350.659"/>
</g>
<!-- Node19 -->
<g id="node19" class="node"><title>Node19</title>
<g id="a_node19"><a xlink:href="../../da/d58/classmath_operations_1_1_sine.html" target="_top" xlink:title="mathOperations.Sine">
<polygon fill="white" stroke="black" points="456.5,-114.5 456.5,-133.5 575.5,-133.5 575.5,-114.5 456.5,-114.5"/>
<text text-anchor="middle" x="516" y="-121.5" font-family="Helvetica,sans-Serif" font-size="10.00">mathOperations.Sine</text>
</a>
</g>
</g>
<!-- Node1&#45;&gt;Node19 -->
<g id="edge18" class="edge"><title>Node1&#45;&gt;Node19</title>
<path fill="none" stroke="midnightblue" d="M307.442,-351.514C320.91,-307.055 360.173,-197.762 434,-143 440.613,-138.095 448.296,-134.432 456.246,-131.702"/>
<polygon fill="midnightblue" stroke="midnightblue" points="304.014,-350.767 304.568,-361.347 310.733,-352.73 304.014,-350.767"/>
</g>
<!-- Node20 -->
<g id="node20" class="node"><title>Node20</title>
<g id="a_node20"><a xlink:href="../../d2/da8/classmath_operations_1_1_slogo_random.html" target="_top" xlink:title="mathOperations.SlogoRandom">
<polygon fill="white" stroke="black" points="434,-76.5 434,-95.5 598,-95.5 598,-76.5 434,-76.5"/>
<text text-anchor="middle" x="516" y="-83.5" font-family="Helvetica,sans-Serif" font-size="10.00">mathOperations.SlogoRandom</text>
</a>
</g>
</g>
<!-- Node1&#45;&gt;Node20 -->
<g id="edge19" class="edge"><title>Node1&#45;&gt;Node20</title>
<path fill="none" stroke="midnightblue" d="M305.764,-351.373C316.346,-301.769 351.168,-170.662 434,-105 438.867,-101.142 444.385,-98.0435 450.197,-95.5589"/>
<polygon fill="midnightblue" stroke="midnightblue" points="302.285,-350.915 303.721,-361.412 309.145,-352.311 302.285,-350.915"/>
</g>
<!-- Node21 -->
<g id="node21" class="node"><title>Node21</title>
<g id="a_node21"><a xlink:href="../../da/d56/classmath_operations_1_1_sum.html" target="_top" xlink:title="mathOperations.Sum">
<polygon fill="white" stroke="black" points="456,-38.5 456,-57.5 576,-57.5 576,-38.5 456,-38.5"/>
<text text-anchor="middle" x="516" y="-45.5" font-family="Helvetica,sans-Serif" font-size="10.00">mathOperations.Sum</text>
</a>
</g>
</g>
<!-- Node1&#45;&gt;Node21 -->
<g id="edge20" class="edge"><title>Node1&#45;&gt;Node21</title>
<path fill="none" stroke="midnightblue" d="M304.471,-351.187C312.357,-296.736 342.054,-143.783 434,-67 440.319,-61.7227 447.84,-57.8535 455.715,-55.027"/>
<polygon fill="midnightblue" stroke="midnightblue" points="300.983,-350.868 303.105,-361.248 307.919,-351.81 300.983,-350.868"/>
</g>
<!-- Node22 -->
<g id="node22" class="node"><title>Node22</title>
<g id="a_node22"><a xlink:href="../../d6/df7/classmath_operations_1_1_tangent.html" target="_top" xlink:title="mathOperations.Tangent">
<polygon fill="white" stroke="black" points="448.5,-0.5 448.5,-19.5 583.5,-19.5 583.5,-0.5 448.5,-0.5"/>
<text text-anchor="middle" x="516" y="-7.5" font-family="Helvetica,sans-Serif" font-size="10.00">mathOperations.Tangent</text>
</a>
</g>
</g>
<!-- Node1&#45;&gt;Node22 -->
<g id="edge21" class="edge"><title>Node1&#45;&gt;Node22</title>
<path fill="none" stroke="midnightblue" d="M303.419,-351.135C308.737,-292.232 332.755,-117.16 434,-29 438.357,-25.2058 443.33,-22.1335 448.621,-19.65"/>
<polygon fill="midnightblue" stroke="midnightblue" points="299.914,-351.054 302.587,-361.306 306.891,-351.625 299.914,-351.054"/>
</g>
<!-- Node2 -->
<g id="node2" class="node"><title>Node2</title>
<g id="a_node2"><a xlink:href="../../db/da5/classexpression_tree_1_1_expression_node.html" target="_top" xlink:title="expressionTree.ExpressionNode">
<polygon fill="white" stroke="black" points="0,-361.5 0,-380.5 168,-380.5 168,-361.5 0,-361.5"/>
<text text-anchor="middle" x="84" y="-368.5" font-family="Helvetica,sans-Serif" font-size="10.00">expressionTree.ExpressionNode</text>
</a>
</g>
</g>
<!-- Node2&#45;&gt;Node1 -->
<g id="edge1" class="edge"><title>Node2&#45;&gt;Node1</title>
<path fill="none" stroke="midnightblue" d="M178.18,-371C186.806,-371 195.557,-371 204.206,-371"/>
<polygon fill="midnightblue" stroke="midnightblue" points="178.125,-367.5 168.125,-371 178.125,-374.5 178.125,-367.5"/>
</g>
</g>
</svg>
        <g id="navigator" transform="translate(0 0)" fill="#404254">
                <rect fill="#f2f5e9" fill-opacity="0.5" stroke="#606060" stroke-width=".5" x="0" y="0" width="60" height="60"/>
                <use id="zoomplus" xlink:href="#zoomPlus" x="17" y="9" onmousedown="handleZoom(evt,'in')"/>
                <use id="zoomminus" xlink:href="#zoomMin" x="42" y="9" onmousedown="handleZoom(evt,'out')"/>
                <use id="reset" xlink:href="#resetDef" x="30" y="36" onmousedown="handleReset()"/>
                <g id="arrowUp" xlink:href="#dirArrow" transform="translate(30 24)" onmousedown="handlePan(0,-1)">
                  <use xlink:href="#rim" fill="#404040">
                        <set attributeName="fill" to="#808080" begin="arrowUp.mouseover" end="arrowUp.mouseout"/>
                  </use>
                  <path fill="none" stroke="white" stroke-width="1.5" d="M0,-3.0v7 M-2.5,-0.5L0,-3.0L2.5,-0.5"/>
                </g>
                <g id="arrowRight" xlink:href="#dirArrow" transform="rotate(90) translate(36 -43)" onmousedown="handlePan(1,0)">
                  <use xlink:href="#rim" fill="#404040">
                        <set attributeName="fill" to="#808080" begin="arrowRight.mouseover" end="arrowRight.mouseout"/>
                  </use>
                  <path fill="none" stroke="white" stroke-width="1.5" d="M0,-3.0v7 M-2.5,-0.5L0,-3.0L2.5,-0.5"/>
                </g>
                <g id="arrowDown" xlink:href="#dirArrow" transform="rotate(180) translate(-30 -48)" onmousedown="handlePan(0,1)">
                  <use xlink:href="#rim" fill="#404040">
                        <set attributeName="fill" to="#808080" begin="arrowDown.mouseover" end="arrowDown.mouseout"/>
                  </use>
                  <path fill="none" stroke="white" stroke-width="1.5" d="M0,-3.0v7 M-2.5,-0.5L0,-3.0L2.5,-0.5"/>
                </g>
                <g id="arrowLeft" xlink:href="#dirArrow" transform="rotate(270) translate(-36 17)" onmousedown="handlePan(-1,0)">
                  <use xlink:href="#rim" fill="#404040">
                        <set attributeName="fill" to="#808080" begin="arrowLeft.mouseover" end="arrowLeft.mouseout"/>
                  </use>
                  <path fill="none" stroke="white" stroke-width="1.5" d="M0,-3.0v7 M-2.5,-0.5L0,-3.0L2.5,-0.5"/>
                </g>
        </g>
        <svg viewBox="0 0 15 15" width="100%" height="30px" preserveAspectRatio="xMaxYMin meet">
         <g id="arrow_out" transform="scale(0.3 0.3)">
          <a xlink:href="classcommand_abstract_classes_1_1_operation__inherit__graph_org.svg" target="_base">
           <rect id="button" ry="5" rx="5" y="6" x="6" height="38" width="38"
                fill="#f2f5e9" fill-opacity="0.5" stroke="#606060" stroke-width="1.0"/>
           <path id="arrow"
             d="M 11.500037,31.436501 C 11.940474,20.09759 22.043105,11.32322 32.158766,21.979434 L 37.068811,17.246167 C 37.068811,17.246167 37.088388,32 37.088388,32 L 22.160133,31.978069 C 22.160133,31.978069 26.997745,27.140456 26.997745,27.140456 C 18.528582,18.264221 13.291696,25.230495 11.500037,31.436501 z"
             style="fill:#404040;"/>
          </a>
         </g>
        </svg>
</svg>
