<?xml version="1.0" encoding="UTF-8" standalone="no"?>
<!DOCTYPE svg PUBLIC "-//W3C//DTD SVG 1.1//EN"
 "http://www.w3.org/Graphics/SVG/1.1/DTD/svg11.dtd">
<!-- Generated by graphviz version 2.36.0 (20140111.2315)
 -->
<!-- Title: frontend.ConcreteFeatures.ChangeBackground Pages: 1 -->
<svg width="343pt" height="190pt"
 viewBox="0.00 0.00 343.00 190.00" xmlns="http://www.w3.org/2000/svg" xmlns:xlink="http://www.w3.org/1999/xlink">
<g id="graph0" class="graph" transform="scale(1 1) rotate(0) translate(4 186)">
<title>frontend.ConcreteFeatures.ChangeBackground</title>
<polygon fill="white" stroke="none" points="-4,4 -4,-186 339,-186 339,4 -4,4"/>
<!-- Node1 -->
<g id="node1" class="node"><title>Node1</title>
<polygon fill="#bfbfbf" stroke="black" points="124,-1 124,-31 272,-31 272,-1 124,-1"/>
<text text-anchor="start" x="132" y="-19" font-family="Helvetica,sans-Serif" font-size="10.00">frontend.ConcreteFeatures.</text>
<text text-anchor="middle" x="198" y="-8" font-family="Helvetica,sans-Serif" font-size="10.00">ChangeBackground</text>
</g>
<!-- Node2 -->
<g id="node2" class="node"><title>Node2</title>
<g id="a_node2"><a xlink:href="../../d1/d84/classfrontend_1_1_abstract_features_1_1_s_logo_button.html" target="_top" xlink:title="frontend.AbstractFeatures.\lSLogoButton">
<polygon fill="white" stroke="black" points="-0.5,-81 -0.5,-111 144.5,-111 144.5,-81 -0.5,-81"/>
<text text-anchor="start" x="7.5" y="-99" font-family="Helvetica,sans-Serif" font-size="10.00">frontend.AbstractFeatures.</text>
<text text-anchor="middle" x="72" y="-88" font-family="Helvetica,sans-Serif" font-size="10.00">SLogoButton</text>
</a>
</g>
</g>
<!-- Node2&#45;&gt;Node1 -->
<g id="edge1" class="edge"><title>Node2&#45;&gt;Node1</title>
<path fill="none" stroke="midnightblue" d="M103.602,-75.4368C125.933,-61.6129 155.335,-43.4118 175.352,-31.0201"/>
<polygon fill="midnightblue" stroke="midnightblue" points="101.478,-72.6353 94.8176,-80.8748 105.163,-78.5871 101.478,-72.6353"/>
</g>
<!-- Node3 -->
<g id="node3" class="node"><title>Node3</title>
<g id="a_node3"><a xlink:href="../../dc/db4/classfrontend_1_1_abstract_features_1_1_g_u_i_feature.html" target="_top" xlink:title="frontend.AbstractFeatures.\lGUIFeature">
<polygon fill="white" stroke="black" points="-0.5,-151 -0.5,-181 144.5,-181 144.5,-151 -0.5,-151"/>
<text text-anchor="start" x="7.5" y="-169" font-family="Helvetica,sans-Serif" font-size="10.00">frontend.AbstractFeatures.</text>
<text text-anchor="middle" x="72" y="-158" font-family="Helvetica,sans-Serif" font-size="10.00">GUIFeature</text>
</a>
</g>
</g>
<!-- Node3&#45;&gt;Node2 -->
<g id="edge2" class="edge"><title>Node3&#45;&gt;Node2</title>
<path fill="none" stroke="midnightblue" d="M72,-140.769C72,-130.814 72,-119.638 72,-111.072"/>
<polygon fill="midnightblue" stroke="midnightblue" points="68.5001,-140.91 72,-150.91 75.5001,-140.91 68.5001,-140.91"/>
</g>
<!-- Node4 -->
<g id="node4" class="node"><title>Node4</title>
<polygon fill="white" stroke="#bfbfbf" points="163,-86.5 163,-105.5 233,-105.5 233,-86.5 163,-86.5"/>
<text text-anchor="middle" x="198" y="-93.5" font-family="Helvetica,sans-Serif" font-size="10.00">ColorPicker</text>
</g>
<!-- Node4&#45;&gt;Node1 -->
<g id="edge3" class="edge"><title>Node4&#45;&gt;Node1</title>
<path fill="none" stroke="#9a32cd" stroke-dasharray="5,2" d="M198,-76.062C198,-62.2416 198,-43.8024 198,-31.227"/>
<polygon fill="#9a32cd" stroke="#9a32cd" points="194.5,-76.3546 198,-86.3546 201.5,-76.3546 194.5,-76.3546"/>
<text text-anchor="middle" x="234" y="-53.5" font-family="Helvetica,sans-Serif" font-size="10.00"> myColorPicker</text>
</g>
<!-- Node5 -->
<g id="node5" class="node"><title>Node5</title>
<polygon fill="white" stroke="#bfbfbf" points="267,-86.5 267,-105.5 319,-105.5 319,-86.5 267,-86.5"/>
<text text-anchor="middle" x="293" y="-93.5" font-family="Helvetica,sans-Serif" font-size="10.00">Canvas</text>
</g>
<!-- Node5&#45;&gt;Node1 -->
<g id="edge4" class="edge"><title>Node5&#45;&gt;Node1</title>
<path fill="none" stroke="#9a32cd" stroke-dasharray="5,2" d="M287.377,-76.7135C283.858,-67.7381 278.536,-57.3123 271,-50 262.815,-42.058 252.383,-35.8181 241.985,-31.0047"/>
<polygon fill="#9a32cd" stroke="#9a32cd" points="284.122,-78.009 290.705,-86.31 290.735,-75.7152 284.122,-78.009"/>
<text text-anchor="middle" x="308" y="-53.5" font-family="Helvetica,sans-Serif" font-size="10.00"> myCanvas</text>
</g>
</g>
</svg>
