<?xml version="1.0" encoding="UTF-8" standalone="no"?>
<!DOCTYPE svg PUBLIC "-//W3C//DTD SVG 1.1//EN"
 "http://www.w3.org/Graphics/SVG/1.1/DTD/svg11.dtd">
<!-- Generated by graphviz version 2.36.0 (20140111.2315)
 -->
<!-- Title: frontend.AbstractFeatures.GUIFeature Pages: 1 -->
<svg width="728pt" height="900pt"
 viewBox="0.00 0.00 728.00 900.00" xmlns="http://www.w3.org/2000/svg" xmlns:xlink="http://www.w3.org/1999/xlink">
<g id="graph0" class="graph" transform="scale(1 1) rotate(0) translate(4 896)">
<title>frontend.AbstractFeatures.GUIFeature</title>
<polygon fill="white" stroke="none" points="-4,4 -4,-896 724,-896 724,4 -4,4"/>
<!-- Node1 -->
<g id="node1" class="node"><title>Node1</title>
<polygon fill="#bfbfbf" stroke="black" points="0.5,-171 0.5,-201 145.5,-201 145.5,-171 0.5,-171"/>
<text text-anchor="start" x="8.5" y="-189" font-family="Helvetica,sans-Serif" font-size="10.00">frontend.AbstractFeatures.</text>
<text text-anchor="middle" x="73" y="-178" font-family="Helvetica,sans-Serif" font-size="10.00">GUIFeature</text>
</g>
<!-- Node2 -->
<g id="node2" class="node"><title>Node2</title>
<g id="a_node2"><a xlink:href="../../d1/d84/classfrontend_1_1_abstract_features_1_1_s_logo_button.html" target="_top" xlink:title="frontend.AbstractFeatures.\lSLogoButton">
<polygon fill="white" stroke="black" points="183.5,-605 183.5,-635 328.5,-635 328.5,-605 183.5,-605"/>
<text text-anchor="start" x="191.5" y="-623" font-family="Helvetica,sans-Serif" font-size="10.00">frontend.AbstractFeatures.</text>
<text text-anchor="middle" x="256" y="-612" font-family="Helvetica,sans-Serif" font-size="10.00">SLogoButton</text>
</a>
</g>
</g>
<!-- Node1&#45;&gt;Node2 -->
<g id="edge1" class="edge"><title>Node1&#45;&gt;Node2</title>
<path fill="none" stroke="midnightblue" d="M84.191,-210.436C117.372,-289.997 221.719,-540.199 248.622,-604.707"/>
<polygon fill="midnightblue" stroke="midnightblue" points="87.4153,-209.074 80.3358,-201.192 80.9547,-211.769 87.4153,-209.074"/>
</g>
<!-- Node15 -->
<g id="node15" class="node"><title>Node15</title>
<g id="a_node15"><a xlink:href="../../d1/de3/classfrontend_1_1_abstract_features_1_1_s_logo_drop_down.html" target="_top" xlink:title="frontend.AbstractFeatures.\lSLogoDropDown">
<polygon fill="white" stroke="black" points="183.5,-294 183.5,-324 328.5,-324 328.5,-294 183.5,-294"/>
<text text-anchor="start" x="191.5" y="-312" font-family="Helvetica,sans-Serif" font-size="10.00">frontend.AbstractFeatures.</text>
<text text-anchor="middle" x="256" y="-301" font-family="Helvetica,sans-Serif" font-size="10.00">SLogoDropDown</text>
</a>
</g>
</g>
<!-- Node1&#45;&gt;Node15 -->
<g id="edge14" class="edge"><title>Node1&#45;&gt;Node15</title>
<path fill="none" stroke="midnightblue" d="M104.918,-207.011C141.316,-231.745 200.854,-272.205 232.908,-293.987"/>
<polygon fill="midnightblue" stroke="midnightblue" points="106.432,-203.808 96.1942,-201.082 102.498,-209.598 106.432,-203.808"/>
</g>
<!-- Node20 -->
<g id="node20" class="node"><title>Node20</title>
<g id="a_node20"><a xlink:href="../../de/daa/classfrontend_1_1_abstract_features_1_1_s_logo_scroll_pane.html" target="_top" xlink:title="frontend.AbstractFeatures.\lSLogoScrollPane">
<polygon fill="white" stroke="black" points="183.5,-171 183.5,-201 328.5,-201 328.5,-171 183.5,-171"/>
<text text-anchor="start" x="191.5" y="-189" font-family="Helvetica,sans-Serif" font-size="10.00">frontend.AbstractFeatures.</text>
<text text-anchor="middle" x="256" y="-178" font-family="Helvetica,sans-Serif" font-size="10.00">SLogoScrollPane</text>
</a>
</g>
</g>
<!-- Node1&#45;&gt;Node20 -->
<g id="edge19" class="edge"><title>Node1&#45;&gt;Node20</title>
<path fill="none" stroke="midnightblue" d="M155.545,-186C164.832,-186 174.246,-186 183.391,-186"/>
<polygon fill="midnightblue" stroke="midnightblue" points="155.536,-182.5 145.536,-186 155.536,-189.5 155.536,-182.5"/>
</g>
<!-- Node25 -->
<g id="node25" class="node"><title>Node25</title>
<g id="a_node25"><a xlink:href="../../d8/d40/classfrontend_1_1_abstract_features_1_1_s_logo_text_box.html" target="_top" xlink:title="frontend.AbstractFeatures.\lSLogoTextBox">
<polygon fill="white" stroke="black" points="183.5,-98 183.5,-128 328.5,-128 328.5,-98 183.5,-98"/>
<text text-anchor="start" x="191.5" y="-116" font-family="Helvetica,sans-Serif" font-size="10.00">frontend.AbstractFeatures.</text>
<text text-anchor="middle" x="256" y="-105" font-family="Helvetica,sans-Serif" font-size="10.00">SLogoTextBox</text>
</a>
</g>
</g>
<!-- Node1&#45;&gt;Node25 -->
<g id="edge24" class="edge"><title>Node1&#45;&gt;Node25</title>
<path fill="none" stroke="midnightblue" d="M120.948,-167.065C151.024,-154.935 189.526,-139.407 217.545,-128.106"/>
<polygon fill="midnightblue" stroke="midnightblue" points="119.468,-163.888 111.503,-170.874 122.087,-170.38 119.468,-163.888"/>
</g>
<!-- Node28 -->
<g id="node28" class="node"><title>Node28</title>
<g id="a_node28"><a xlink:href="../../de/ded/classfrontend_1_1_concrete_features_1_1_s_logo_color_picker.html" target="_top" xlink:title="frontend.ConcreteFeatures.\lSLogoColorPicker">
<polygon fill="white" stroke="black" points="182,-49 182,-79 330,-79 330,-49 182,-49"/>
<text text-anchor="start" x="190" y="-67" font-family="Helvetica,sans-Serif" font-size="10.00">frontend.ConcreteFeatures.</text>
<text text-anchor="middle" x="256" y="-56" font-family="Helvetica,sans-Serif" font-size="10.00">SLogoColorPicker</text>
</a>
</g>
</g>
<!-- Node1&#45;&gt;Node28 -->
<g id="edge27" class="edge"><title>Node1&#45;&gt;Node28</title>
<path fill="none" stroke="midnightblue" d="M93.6218,-163.352C113.798,-141.329 147.118,-108.31 182,-88 187.765,-84.6436 194.062,-81.6828 200.464,-79.091"/>
<polygon fill="midnightblue" stroke="midnightblue" points="90.8942,-161.151 86.8046,-170.925 96.0966,-165.834 90.8942,-161.151"/>
</g>
<!-- Node3 -->
<g id="node3" class="node"><title>Node3</title>
<g id="a_node3"><a xlink:href="../../d5/de3/classfrontend_1_1_concrete_features_1_1_change_background.html" target="_top" xlink:title="frontend.ConcreteFeatures.\lChangeBackground">
<polygon fill="white" stroke="black" points="377,-862 377,-892 525,-892 525,-862 377,-862"/>
<text text-anchor="start" x="385" y="-880" font-family="Helvetica,sans-Serif" font-size="10.00">frontend.ConcreteFeatures.</text>
<text text-anchor="middle" x="451" y="-869" font-family="Helvetica,sans-Serif" font-size="10.00">ChangeBackground</text>
</a>
</g>
</g>
<!-- Node2&#45;&gt;Node3 -->
<g id="edge2" class="edge"><title>Node2&#45;&gt;Node3</title>
<path fill="none" stroke="midnightblue" d="M261.73,-645.082C272.01,-692.602 300.9,-795.997 366,-852 370.499,-855.87 375.576,-859.141 380.951,-861.906"/>
<polygon fill="midnightblue" stroke="midnightblue" points="265.107,-644.13 259.658,-635.043 258.252,-645.545 265.107,-644.13"/>
</g>
<!-- Node4 -->
<g id="node4" class="node"><title>Node4</title>
<g id="a_node4"><a xlink:href="../../d4/d78/classfrontend_1_1_concrete_features_1_1_clear_canvas.html" target="_top" xlink:title="frontend.ConcreteFeatures.\lClearCanvas">
<polygon fill="white" stroke="black" points="377,-813 377,-843 525,-843 525,-813 377,-813"/>
<text text-anchor="start" x="385" y="-831" font-family="Helvetica,sans-Serif" font-size="10.00">frontend.ConcreteFeatures.</text>
<text text-anchor="middle" x="451" y="-820" font-family="Helvetica,sans-Serif" font-size="10.00">ClearCanvas</text>
</a>
</g>
</g>
<!-- Node2&#45;&gt;Node4 -->
<g id="edge3" class="edge"><title>Node2&#45;&gt;Node4</title>
<path fill="none" stroke="midnightblue" d="M265.051,-644.743C279.142,-684.147 312.024,-760.985 366,-803 370.923,-806.832 376.423,-810.078 382.19,-812.827"/>
<polygon fill="midnightblue" stroke="midnightblue" points="268.301,-643.432 261.722,-635.127 261.687,-645.722 268.301,-643.432"/>
</g>
<!-- Node6 -->
<g id="node6" class="node"><title>Node6</title>
<g id="a_node6"><a xlink:href="../../d8/d23/classfrontend_1_1_concrete_features_1_1_enable_arrows.html" target="_top" xlink:title="frontend.ConcreteFeatures.\lEnableArrows">
<polygon fill="white" stroke="black" points="377,-764 377,-794 525,-794 525,-764 377,-764"/>
<text text-anchor="start" x="385" y="-782" font-family="Helvetica,sans-Serif" font-size="10.00">frontend.ConcreteFeatures.</text>
<text text-anchor="middle" x="451" y="-771" font-family="Helvetica,sans-Serif" font-size="10.00">EnableArrows</text>
</a>
</g>
</g>
<!-- Node2&#45;&gt;Node6 -->
<g id="edge5" class="edge"><title>Node2&#45;&gt;Node6</title>
<path fill="none" stroke="midnightblue" d="M270.54,-644.382C288.503,-674.512 323.013,-725.305 366,-754 371.821,-757.886 378.263,-761.182 384.914,-763.976"/>
<polygon fill="midnightblue" stroke="midnightblue" points="273.355,-642.261 265.299,-635.379 267.305,-645.782 273.355,-642.261"/>
</g>
<!-- Node7 -->
<g id="node7" class="node"><title>Node7</title>
<g id="a_node7"><a xlink:href="../../dc/d90/classfrontend_1_1_concrete_features_1_1_help.html" target="_top" xlink:title="frontend.ConcreteFeatures.Help">
<polygon fill="white" stroke="black" points="366,-725.5 366,-744.5 536,-744.5 536,-725.5 366,-725.5"/>
<text text-anchor="middle" x="451" y="-732.5" font-family="Helvetica,sans-Serif" font-size="10.00">frontend.ConcreteFeatures.Help</text>
</a>
</g>
</g>
<!-- Node2&#45;&gt;Node7 -->
<g id="edge6" class="edge"><title>Node2&#45;&gt;Node7</title>
<path fill="none" stroke="midnightblue" d="M276.642,-642.541C296.881,-664.341 330.418,-696.687 366,-715 374.397,-719.322 383.749,-722.728 393.076,-725.407"/>
<polygon fill="midnightblue" stroke="midnightblue" points="279.128,-640.072 269.808,-635.033 273.951,-644.784 279.128,-640.072"/>
</g>
<!-- Node8 -->
<g id="node8" class="node"><title>Node8</title>
<g id="a_node8"><a xlink:href="../../de/d9f/classfrontend_1_1_concrete_features_1_1_load_s_logo_file.html" target="_top" xlink:title="frontend.ConcreteFeatures.\lLoadSLogoFile">
<polygon fill="white" stroke="black" points="377,-676 377,-706 525,-706 525,-676 377,-676"/>
<text text-anchor="start" x="385" y="-694" font-family="Helvetica,sans-Serif" font-size="10.00">frontend.ConcreteFeatures.</text>
<text text-anchor="middle" x="451" y="-683" font-family="Helvetica,sans-Serif" font-size="10.00">LoadSLogoFile</text>
</a>
</g>
</g>
<!-- Node2&#45;&gt;Node8 -->
<g id="edge7" class="edge"><title>Node2&#45;&gt;Node8</title>
<path fill="none" stroke="midnightblue" d="M299.185,-639.082C319.225,-647.815 343.634,-657.98 366,-666 375.596,-669.441 385.923,-672.793 395.941,-675.868"/>
<polygon fill="midnightblue" stroke="midnightblue" points="300.582,-635.872 290.019,-635.054 297.766,-642.281 300.582,-635.872"/>
</g>
<!-- Node9 -->
<g id="node9" class="node"><title>Node9</title>
<g id="a_node9"><a xlink:href="../../d9/d35/classfrontend_1_1_concrete_features_1_1_load_variables_button.html" target="_top" xlink:title="frontend.ConcreteFeatures.\lLoadVariablesButton">
<polygon fill="white" stroke="black" points="377,-627 377,-657 525,-657 525,-627 377,-627"/>
<text text-anchor="start" x="385" y="-645" font-family="Helvetica,sans-Serif" font-size="10.00">frontend.ConcreteFeatures.</text>
<text text-anchor="middle" x="451" y="-634" font-family="Helvetica,sans-Serif" font-size="10.00">LoadVariablesButton</text>
</a>
</g>
</g>
<!-- Node2&#45;&gt;Node9 -->
<g id="edge8" class="edge"><title>Node2&#45;&gt;Node9</title>
<path fill="none" stroke="midnightblue" d="M338.681,-629.311C351.376,-630.758 364.423,-632.245 376.912,-633.669"/>
<polygon fill="midnightblue" stroke="midnightblue" points="338.924,-625.816 328.592,-628.161 338.131,-632.771 338.924,-625.816"/>
</g>
<!-- Node10 -->
<g id="node10" class="node"><title>Node10</title>
<g id="a_node10"><a xlink:href="../../da/d39/classfrontend_1_1_concrete_features_1_1_quit.html" target="_top" xlink:title="frontend.ConcreteFeatures.Quit">
<polygon fill="white" stroke="black" points="367.5,-588.5 367.5,-607.5 534.5,-607.5 534.5,-588.5 367.5,-588.5"/>
<text text-anchor="middle" x="451" y="-595.5" font-family="Helvetica,sans-Serif" font-size="10.00">frontend.ConcreteFeatures.Quit</text>
</a>
</g>
</g>
<!-- Node2&#45;&gt;Node10 -->
<g id="edge9" class="edge"><title>Node2&#45;&gt;Node10</title>
<path fill="none" stroke="midnightblue" d="M338.791,-610.677C348.277,-609.595 357.958,-608.492 367.454,-607.409"/>
<polygon fill="midnightblue" stroke="midnightblue" points="338.131,-607.229 328.592,-611.839 338.924,-614.184 338.131,-607.229"/>
</g>
<!-- Node11 -->
<g id="node11" class="node"><title>Node11</title>
<g id="a_node11"><a xlink:href="../../da/dc2/classfrontend_1_1_concrete_features_1_1_save_variables_button.html" target="_top" xlink:title="frontend.ConcreteFeatures.\lSaveVariablesButton">
<polygon fill="white" stroke="black" points="377,-539 377,-569 525,-569 525,-539 377,-539"/>
<text text-anchor="start" x="385" y="-557" font-family="Helvetica,sans-Serif" font-size="10.00">frontend.ConcreteFeatures.</text>
<text text-anchor="middle" x="451" y="-546" font-family="Helvetica,sans-Serif" font-size="10.00">SaveVariablesButton</text>
</a>
</g>
</g>
<!-- Node2&#45;&gt;Node11 -->
<g id="edge10" class="edge"><title>Node2&#45;&gt;Node11</title>
<path fill="none" stroke="midnightblue" d="M304.449,-601.321C323.476,-594.049 345.673,-585.839 366,-579 376.095,-575.604 386.95,-572.196 397.394,-569.036"/>
<polygon fill="midnightblue" stroke="midnightblue" points="303.179,-598.06 295.101,-604.915 305.691,-604.593 303.179,-598.06"/>
</g>
<!-- Node12 -->
<g id="node12" class="node"><title>Node12</title>
<g id="a_node12"><a xlink:href="../../d6/d89/classfrontend_1_1_concrete_features_1_1_set_line_color.html" target="_top" xlink:title="frontend.ConcreteFeatures.\lSetLineColor">
<polygon fill="white" stroke="black" points="377,-490 377,-520 525,-520 525,-490 377,-490"/>
<text text-anchor="start" x="385" y="-508" font-family="Helvetica,sans-Serif" font-size="10.00">frontend.ConcreteFeatures.</text>
<text text-anchor="middle" x="451" y="-497" font-family="Helvetica,sans-Serif" font-size="10.00">SetLineColor</text>
</a>
</g>
</g>
<!-- Node2&#45;&gt;Node12 -->
<g id="edge11" class="edge"><title>Node2&#45;&gt;Node12</title>
<path fill="none" stroke="midnightblue" d="M278.767,-597.451C299.481,-577.178 332.395,-547.913 366,-530 373.116,-526.207 380.886,-522.912 388.735,-520.073"/>
<polygon fill="midnightblue" stroke="midnightblue" points="276.065,-595.202 271.449,-604.739 281.005,-600.162 276.065,-595.202"/>
</g>
<!-- Node13 -->
<g id="node13" class="node"><title>Node13</title>
<g id="a_node13"><a xlink:href="../../d2/d8e/classfrontend_1_1_concrete_features_1_1_toggle_grid_lines.html" target="_top" xlink:title="frontend.ConcreteFeatures.\lToggleGridLines">
<polygon fill="white" stroke="black" points="377,-441 377,-471 525,-471 525,-441 377,-441"/>
<text text-anchor="start" x="385" y="-459" font-family="Helvetica,sans-Serif" font-size="10.00">frontend.ConcreteFeatures.</text>
<text text-anchor="middle" x="451" y="-448" font-family="Helvetica,sans-Serif" font-size="10.00">ToggleGridLines</text>
</a>
</g>
</g>
<!-- Node2&#45;&gt;Node13 -->
<g id="edge12" class="edge"><title>Node2&#45;&gt;Node13</title>
<path fill="none" stroke="midnightblue" d="M269.534,-596.077C287.025,-565.004 321.656,-511.177 366,-481 371.661,-477.148 377.927,-473.878 384.41,-471.104"/>
<polygon fill="midnightblue" stroke="midnightblue" points="266.413,-594.489 264.665,-604.939 272.548,-597.86 266.413,-594.489"/>
</g>
<!-- Node14 -->
<g id="node14" class="node"><title>Node14</title>
<g id="a_node14"><a xlink:href="../../dc/dae/classfrontend_1_1_s_logo_workspace_1_1_add_workspace_button.html" target="_top" xlink:title="frontend.SLogoWorkspace.\lAddWorkspaceButton">
<polygon fill="white" stroke="black" points="379,-392 379,-422 523,-422 523,-392 379,-392"/>
<text text-anchor="start" x="387" y="-410" font-family="Helvetica,sans-Serif" font-size="10.00">frontend.SLogoWorkspace.</text>
<text text-anchor="middle" x="451" y="-399" font-family="Helvetica,sans-Serif" font-size="10.00">AddWorkspaceButton</text>
</a>
</g>
</g>
<!-- Node2&#45;&gt;Node14 -->
<g id="edge13" class="edge"><title>Node2&#45;&gt;Node14</title>
<path fill="none" stroke="midnightblue" d="M264.566,-595.444C278.216,-555.238 310.795,-475.496 366,-432 370.9,-428.139 376.385,-424.874 382.142,-422.112"/>
<polygon fill="midnightblue" stroke="midnightblue" points="261.224,-594.402 261.429,-604.995 267.875,-596.586 261.224,-594.402"/>
</g>
<!-- Node5 -->
<g id="node5" class="node"><title>Node5</title>
<g id="a_node5"><a xlink:href="../../d0/d72/classfrontend_1_1_concrete_features_1_1_reset.html" target="_top" xlink:title="frontend.ConcreteFeatures.\lReset">
<polygon fill="white" stroke="black" points="572,-813 572,-843 720,-843 720,-813 572,-813"/>
<text text-anchor="start" x="580" y="-831" font-family="Helvetica,sans-Serif" font-size="10.00">frontend.ConcreteFeatures.</text>
<text text-anchor="middle" x="646" y="-820" font-family="Helvetica,sans-Serif" font-size="10.00">Reset</text>
</a>
</g>
</g>
<!-- Node4&#45;&gt;Node5 -->
<g id="edge4" class="edge"><title>Node4&#45;&gt;Node5</title>
<path fill="none" stroke="midnightblue" d="M535.348,-828C547.482,-828 559.898,-828 571.81,-828"/>
<polygon fill="midnightblue" stroke="midnightblue" points="535.24,-824.5 525.24,-828 535.24,-831.5 535.24,-824.5"/>
</g>
<!-- Node16 -->
<g id="node16" class="node"><title>Node16</title>
<g id="a_node16"><a xlink:href="../../dc/d4d/classfrontend_1_1_concrete_features_1_1_change_coding_language.html" target="_top" xlink:title="frontend.ConcreteFeatures.\lChangeCodingLanguage">
<polygon fill="white" stroke="black" points="377,-343 377,-373 525,-373 525,-343 377,-343"/>
<text text-anchor="start" x="385" y="-361" font-family="Helvetica,sans-Serif" font-size="10.00">frontend.ConcreteFeatures.</text>
<text text-anchor="middle" x="451" y="-350" font-family="Helvetica,sans-Serif" font-size="10.00">ChangeCodingLanguage</text>
</a>
</g>
</g>
<!-- Node15&#45;&gt;Node16 -->
<g id="edge15" class="edge"><title>Node15&#45;&gt;Node16</title>
<path fill="none" stroke="midnightblue" d="M326.125,-326.55C347.319,-331.931 370.433,-337.799 390.894,-342.994"/>
<polygon fill="midnightblue" stroke="midnightblue" points="326.772,-323.103 316.218,-324.035 325.049,-329.888 326.772,-323.103"/>
</g>
<!-- Node17 -->
<g id="node17" class="node"><title>Node17</title>
<g id="a_node17"><a xlink:href="../../d0/d3e/classfrontend_1_1_concrete_features_1_1_turtle_changer.html" target="_top" xlink:title="frontend.ConcreteFeatures.\lTurtleChanger">
<polygon fill="white" stroke="black" points="377,-294 377,-324 525,-324 525,-294 377,-294"/>
<text text-anchor="start" x="385" y="-312" font-family="Helvetica,sans-Serif" font-size="10.00">frontend.ConcreteFeatures.</text>
<text text-anchor="middle" x="451" y="-301" font-family="Helvetica,sans-Serif" font-size="10.00">TurtleChanger</text>
</a>
</g>
</g>
<!-- Node15&#45;&gt;Node17 -->
<g id="edge16" class="edge"><title>Node15&#45;&gt;Node17</title>
<path fill="none" stroke="midnightblue" d="M338.681,-309C351.376,-309 364.423,-309 376.912,-309"/>
<polygon fill="midnightblue" stroke="midnightblue" points="338.592,-305.5 328.592,-309 338.592,-312.5 338.592,-305.5"/>
</g>
<!-- Node18 -->
<g id="node18" class="node"><title>Node18</title>
<g id="a_node18"><a xlink:href="../../dc/d0b/classfrontend_1_1_concrete_features_1_1_choose_image.html" target="_top" xlink:title="frontend.ConcreteFeatures.\lChooseImage">
<polygon fill="white" stroke="black" points="572,-319 572,-349 720,-349 720,-319 572,-319"/>
<text text-anchor="start" x="580" y="-337" font-family="Helvetica,sans-Serif" font-size="10.00">frontend.ConcreteFeatures.</text>
<text text-anchor="middle" x="646" y="-326" font-family="Helvetica,sans-Serif" font-size="10.00">ChooseImage</text>
</a>
</g>
</g>
<!-- Node17&#45;&gt;Node18 -->
<g id="edge17" class="edge"><title>Node17&#45;&gt;Node18</title>
<path fill="none" stroke="midnightblue" d="M535.348,-319.796C547.482,-321.368 559.898,-322.976 571.81,-324.519"/>
<polygon fill="midnightblue" stroke="midnightblue" points="535.607,-316.301 525.24,-318.487 534.708,-323.243 535.607,-316.301"/>
</g>
<!-- Node19 -->
<g id="node19" class="node"><title>Node19</title>
<g id="a_node19"><a xlink:href="../../db/d1c/classfrontend_1_1_concrete_features_1_1_choose_line_style.html" target="_top" xlink:title="frontend.ConcreteFeatures.\lChooseLineStyle">
<polygon fill="white" stroke="black" points="572,-270 572,-300 720,-300 720,-270 572,-270"/>
<text text-anchor="start" x="580" y="-288" font-family="Helvetica,sans-Serif" font-size="10.00">frontend.ConcreteFeatures.</text>
<text text-anchor="middle" x="646" y="-277" font-family="Helvetica,sans-Serif" font-size="10.00">ChooseLineStyle</text>
</a>
</g>
</g>
<!-- Node17&#45;&gt;Node19 -->
<g id="edge18" class="edge"><title>Node17&#45;&gt;Node19</title>
<path fill="none" stroke="midnightblue" d="M535.348,-298.635C547.482,-297.127 559.898,-295.583 571.81,-294.101"/>
<polygon fill="midnightblue" stroke="midnightblue" points="534.732,-295.185 525.24,-299.892 535.596,-302.132 534.732,-295.185"/>
</g>
<!-- Node21 -->
<g id="node21" class="node"><title>Node21</title>
<g id="a_node21"><a xlink:href="../../dc/df7/classfrontend_1_1_concrete_features_1_1_commands_window.html" target="_top" xlink:title="frontend.ConcreteFeatures.\lCommandsWindow">
<polygon fill="white" stroke="black" points="377,-245 377,-275 525,-275 525,-245 377,-245"/>
<text text-anchor="start" x="385" y="-263" font-family="Helvetica,sans-Serif" font-size="10.00">frontend.ConcreteFeatures.</text>
<text text-anchor="middle" x="451" y="-252" font-family="Helvetica,sans-Serif" font-size="10.00">CommandsWindow</text>
</a>
</g>
</g>
<!-- Node20&#45;&gt;Node21 -->
<g id="edge20" class="edge"><title>Node20&#45;&gt;Node21</title>
<path fill="none" stroke="midnightblue" d="M296.845,-205.45C317.256,-215.018 342.663,-226.326 366,-235 375.413,-238.499 385.556,-241.855 395.426,-244.91"/>
<polygon fill="midnightblue" stroke="midnightblue" points="298.089,-202.167 287.552,-201.053 295.095,-208.494 298.089,-202.167"/>
</g>
<!-- Node22 -->
<g id="node22" class="node"><title>Node22</title>
<g id="a_node22"><a xlink:href="../../d3/d3b/classfrontend_1_1_concrete_features_1_1_current_variables_window.html" target="_top" xlink:title="frontend.ConcreteFeatures.\lCurrentVariablesWindow">
<polygon fill="white" stroke="black" points="377,-196 377,-226 525,-226 525,-196 377,-196"/>
<text text-anchor="start" x="385" y="-214" font-family="Helvetica,sans-Serif" font-size="10.00">frontend.ConcreteFeatures.</text>
<text text-anchor="middle" x="451" y="-203" font-family="Helvetica,sans-Serif" font-size="10.00">CurrentVariablesWindow</text>
</a>
</g>
</g>
<!-- Node20&#45;&gt;Node22 -->
<g id="edge21" class="edge"><title>Node20&#45;&gt;Node22</title>
<path fill="none" stroke="midnightblue" d="M338.681,-196.58C351.376,-198.225 364.423,-199.915 376.912,-201.533"/>
<polygon fill="midnightblue" stroke="midnightblue" points="338.959,-193.087 328.592,-195.274 338.059,-200.029 338.959,-193.087"/>
</g>
<!-- Node23 -->
<g id="node23" class="node"><title>Node23</title>
<g id="a_node23"><a xlink:href="../../db/d2c/classfrontend_1_1_concrete_features_1_1_history_window.html" target="_top" xlink:title="frontend.ConcreteFeatures.\lHistoryWindow">
<polygon fill="white" stroke="black" points="377,-147 377,-177 525,-177 525,-147 377,-147"/>
<text text-anchor="start" x="385" y="-165" font-family="Helvetica,sans-Serif" font-size="10.00">frontend.ConcreteFeatures.</text>
<text text-anchor="middle" x="451" y="-154" font-family="Helvetica,sans-Serif" font-size="10.00">HistoryWindow</text>
</a>
</g>
</g>
<!-- Node20&#45;&gt;Node23 -->
<g id="edge22" class="edge"><title>Node20&#45;&gt;Node23</title>
<path fill="none" stroke="midnightblue" d="M338.681,-175.843C351.376,-174.264 364.423,-172.642 376.912,-171.089"/>
<polygon fill="midnightblue" stroke="midnightblue" points="338.083,-172.39 328.592,-177.097 338.947,-179.337 338.083,-172.39"/>
</g>
<!-- Node24 -->
<g id="node24" class="node"><title>Node24</title>
<g id="a_node24"><a xlink:href="../../d3/dc9/classfrontend_1_1_concrete_features_1_1_turtle_stats_window.html" target="_top" xlink:title="frontend.ConcreteFeatures.\lTurtleStatsWindow">
<polygon fill="white" stroke="black" points="377,-98 377,-128 525,-128 525,-98 377,-98"/>
<text text-anchor="start" x="385" y="-116" font-family="Helvetica,sans-Serif" font-size="10.00">frontend.ConcreteFeatures.</text>
<text text-anchor="middle" x="451" y="-105" font-family="Helvetica,sans-Serif" font-size="10.00">TurtleStatsWindow</text>
</a>
</g>
</g>
<!-- Node20&#45;&gt;Node24 -->
<g id="edge23" class="edge"><title>Node20&#45;&gt;Node24</title>
<path fill="none" stroke="midnightblue" d="M296.805,-166.441C317.205,-156.846 342.616,-145.546 366,-137 374.69,-133.824 384.008,-130.799 393.161,-128.033"/>
<polygon fill="midnightblue" stroke="midnightblue" points="295.049,-163.401 287.518,-170.854 298.053,-169.724 295.049,-163.401"/>
</g>
<!-- Node26 -->
<g id="node26" class="node"><title>Node26</title>
<g id="a_node26"><a xlink:href="../../d4/d4a/classfrontend_1_1_concrete_features_1_1_change_line_width.html" target="_top" xlink:title="frontend.ConcreteFeatures.\lChangeLineWidth">
<polygon fill="white" stroke="black" points="377,-49 377,-79 525,-79 525,-49 377,-49"/>
<text text-anchor="start" x="385" y="-67" font-family="Helvetica,sans-Serif" font-size="10.00">frontend.ConcreteFeatures.</text>
<text text-anchor="middle" x="451" y="-56" font-family="Helvetica,sans-Serif" font-size="10.00">ChangeLineWidth</text>
</a>
</g>
</g>
<!-- Node25&#45;&gt;Node26 -->
<g id="edge25" class="edge"><title>Node25&#45;&gt;Node26</title>
<path fill="none" stroke="midnightblue" d="M326.125,-95.4502C347.319,-90.0694 370.433,-84.201 390.894,-79.0062"/>
<polygon fill="midnightblue" stroke="midnightblue" points="325.049,-92.1121 316.218,-97.9654 326.772,-98.8969 325.049,-92.1121"/>
</g>
<!-- Node27 -->
<g id="node27" class="node"><title>Node27</title>
<g id="a_node27"><a xlink:href="../../d8/dc1/classfrontend_1_1_concrete_features_1_1_command_executer.html" target="_top" xlink:title="frontend.ConcreteFeatures.\lCommandExecuter">
<polygon fill="white" stroke="black" points="377,-0 377,-30 525,-30 525,-0 377,-0"/>
<text text-anchor="start" x="385" y="-18" font-family="Helvetica,sans-Serif" font-size="10.00">frontend.ConcreteFeatures.</text>
<text text-anchor="middle" x="451" y="-7" font-family="Helvetica,sans-Serif" font-size="10.00">CommandExecuter</text>
</a>
</g>
</g>
<!-- Node25&#45;&gt;Node27 -->
<g id="edge26" class="edge"><title>Node25&#45;&gt;Node27</title>
<path fill="none" stroke="midnightblue" d="M322.078,-93.1537C324.834,-91.5591 327.49,-89.8439 330,-88 351.779,-72.0017 343.815,-54.4306 366,-39 370.98,-35.5358 376.455,-32.5683 382.148,-30.0267"/>
<polygon fill="midnightblue" stroke="midnightblue" points="320.276,-90.1452 313,-97.8463 323.49,-96.3636 320.276,-90.1452"/>
</g>
</g>
</svg>
