<?xml version="1.0" encoding="UTF-8" standalone="no"?>
<!DOCTYPE svg PUBLIC "-//W3C//DTD SVG 1.1//EN"
 "http://www.w3.org/Graphics/SVG/1.1/DTD/svg11.dtd">
<!-- Generated by graphviz version 2.36.0 (20140111.2315)
 -->
<!-- Title: frontend.LineDrawer Pages: 1 -->
<svg width="521pt" height="242pt"
 viewBox="0.00 0.00 521.00 242.00" xmlns="http://www.w3.org/2000/svg" xmlns:xlink="http://www.w3.org/1999/xlink">
<g id="graph0" class="graph" transform="scale(1 1) rotate(0) translate(4 238)">
<title>frontend.LineDrawer</title>
<polygon fill="white" stroke="none" points="-4,4 -4,-238 517,-238 517,4 -4,4"/>
<!-- Node1 -->
<g id="node1" class="node"><title>Node1</title>
<polygon fill="#bfbfbf" stroke="black" points="153.5,-68.5 153.5,-87.5 266.5,-87.5 266.5,-68.5 153.5,-68.5"/>
<text text-anchor="middle" x="210" y="-75.5" font-family="Helvetica,sans-Serif" font-size="10.00">frontend.LineDrawer</text>
</g>
<!-- Node6 -->
<g id="node6" class="node"><title>Node6</title>
<g id="a_node6"><a xlink:href="../../d8/d89/classturtle_classes_1_1_turtle.html" target="_top" xlink:title="turtleClasses.Turtle">
<polygon fill="white" stroke="black" points="231.5,-0.5 231.5,-19.5 338.5,-19.5 338.5,-0.5 231.5,-0.5"/>
<text text-anchor="middle" x="285" y="-7.5" font-family="Helvetica,sans-Serif" font-size="10.00">turtleClasses.Turtle</text>
</a>
</g>
</g>
<!-- Node1&#45;&gt;Node6 -->
<g id="edge8" class="edge"><title>Node1&#45;&gt;Node6</title>
<path fill="none" stroke="#9a32cd" stroke-dasharray="5,2" d="M189.566,-61.7454C182.258,-54.4375 177.123,-45.6351 183,-38 189.341,-29.7622 210.109,-23.5217 231.265,-19.1267"/>
<polygon fill="#9a32cd" stroke="#9a32cd" points="187.432,-64.5282 197.272,-68.4565 192.03,-59.2495 187.432,-64.5282"/>
<text text-anchor="middle" x="209" y="-41.5" font-family="Helvetica,sans-Serif" font-size="10.00"> myDrawer</text>
</g>
<!-- Node2 -->
<g id="node2" class="node"><title>Node2</title>
<g id="a_node2"><a xlink:href="../../d3/d0e/classfrontend_1_1_pen.html" target="_top" xlink:title="frontend.Pen">
<polygon fill="white" stroke="black" points="76,-136.5 76,-155.5 154,-155.5 154,-136.5 76,-136.5"/>
<text text-anchor="middle" x="115" y="-143.5" font-family="Helvetica,sans-Serif" font-size="10.00">frontend.Pen</text>
</a>
</g>
</g>
<!-- Node2&#45;&gt;Node1 -->
<g id="edge1" class="edge"><title>Node2&#45;&gt;Node1</title>
<path fill="none" stroke="#9a32cd" stroke-dasharray="5,2" d="M134.691,-130.468C144.861,-123.042 157.515,-113.924 169,-106 178.12,-99.7081 188.55,-92.8438 196.608,-87.611"/>
<polygon fill="#9a32cd" stroke="#9a32cd" points="132.478,-127.75 126.484,-136.486 136.618,-133.394 132.478,-127.75"/>
<text text-anchor="middle" x="187.5" y="-109.5" font-family="Helvetica,sans-Serif" font-size="10.00"> myPen</text>
</g>
<!-- Node2&#45;&gt;Node6 -->
<g id="edge6" class="edge"><title>Node2&#45;&gt;Node6</title>
<path fill="none" stroke="#9a32cd" stroke-dasharray="5,2" d="M106.801,-126.369C100.83,-109.703 95.59,-85.3038 107,-68 133.526,-27.7723 189.173,-15.035 231.23,-11.4313"/>
<polygon fill="#9a32cd" stroke="#9a32cd" points="103.707,-128.06 110.662,-136.053 110.209,-125.467 103.707,-128.06"/>
<text text-anchor="middle" x="125.5" y="-75.5" font-family="Helvetica,sans-Serif" font-size="10.00"> myPen</text>
</g>
<!-- Node3 -->
<g id="node3" class="node"><title>Node3</title>
<polygon fill="white" stroke="#bfbfbf" points="0,-214.5 0,-233.5 128,-233.5 128,-214.5 0,-214.5"/>
<text text-anchor="middle" x="64" y="-221.5" font-family="Helvetica,sans-Serif" font-size="10.00">Map&lt; String, Double &gt;</text>
</g>
<!-- Node3&#45;&gt;Node2 -->
<g id="edge2" class="edge"><title>Node3&#45;&gt;Node2</title>
<path fill="none" stroke="#9a32cd" stroke-dasharray="5,2" d="M67.2986,-204.469C69.6777,-194.753 73.6256,-183.03 80,-174 85.2223,-166.602 93.0665,-160.287 100.006,-155.629"/>
<polygon fill="#9a32cd" stroke="#9a32cd" points="63.8568,-203.829 65.2335,-214.334 70.7083,-205.263 63.8568,-203.829"/>
<text text-anchor="middle" x="112.5" y="-182.5" font-family="Helvetica,sans-Serif" font-size="10.00"> LINE_STYLES</text>
</g>
<!-- Node4 -->
<g id="node4" class="node"><title>Node4</title>
<polygon fill="white" stroke="#bfbfbf" points="146.5,-214.5 146.5,-233.5 187.5,-233.5 187.5,-214.5 146.5,-214.5"/>
<text text-anchor="middle" x="167" y="-221.5" font-family="Helvetica,sans-Serif" font-size="10.00">Color</text>
</g>
<!-- Node4&#45;&gt;Node2 -->
<g id="edge3" class="edge"><title>Node4&#45;&gt;Node2</title>
<path fill="none" stroke="#9a32cd" stroke-dasharray="5,2" d="M160.994,-205.001C157.26,-195.292 151.859,-183.407 145,-174 139.881,-166.979 132.683,-160.425 126.62,-155.533"/>
<polygon fill="#9a32cd" stroke="#9a32cd" points="157.715,-206.228 164.382,-214.463 164.306,-203.868 157.715,-206.228"/>
<text text-anchor="middle" x="212.5" y="-188" font-family="Helvetica,sans-Serif" font-size="10.00"> DEFAULT_LINE_COLOR</text>
<text text-anchor="middle" x="212.5" y="-177" font-family="Helvetica,sans-Serif" font-size="10.00">myLineColor</text>
</g>
<!-- Node5 -->
<g id="node5" class="node"><title>Node5</title>
<polygon fill="white" stroke="#bfbfbf" points="190,-136.5 190,-155.5 230,-155.5 230,-136.5 190,-136.5"/>
<text text-anchor="middle" x="210" y="-143.5" font-family="Helvetica,sans-Serif" font-size="10.00">Pane</text>
</g>
<!-- Node5&#45;&gt;Node1 -->
<g id="edge4" class="edge"><title>Node5&#45;&gt;Node1</title>
<path fill="none" stroke="#9a32cd" stroke-dasharray="5,2" d="M210,-126.041C210,-113.472 210,-97.5631 210,-87.8411"/>
<polygon fill="#9a32cd" stroke="#9a32cd" points="206.5,-126.372 210,-136.372 213.5,-126.372 206.5,-126.372"/>
<text text-anchor="middle" x="231" y="-109.5" font-family="Helvetica,sans-Serif" font-size="10.00"> myPane</text>
</g>
<!-- Node6&#45;&gt;Node1 -->
<g id="edge5" class="edge"><title>Node6&#45;&gt;Node1</title>
<path fill="none" stroke="#9a32cd" stroke-dasharray="5,2" d="M265.561,-25.9493C260.734,-29.7937 255.621,-33.9812 251,-38 239.436,-48.0566 226.74,-60.3389 218.587,-68.3999"/>
<polygon fill="#9a32cd" stroke="#9a32cd" points="268.062,-28.4354 273.772,-19.5106 263.743,-22.9269 268.062,-28.4354"/>
<text text-anchor="middle" x="273" y="-41.5" font-family="Helvetica,sans-Serif" font-size="10.00"> myTurtle</text>
</g>
<!-- Node7 -->
<g id="node7" class="node"><title>Node7</title>
<polygon fill="white" stroke="#bfbfbf" points="285,-68.5 285,-87.5 353,-87.5 353,-68.5 285,-68.5"/>
<text text-anchor="middle" x="319" y="-75.5" font-family="Helvetica,sans-Serif" font-size="10.00">ImageView</text>
</g>
<!-- Node7&#45;&gt;Node6 -->
<g id="edge7" class="edge"><title>Node7&#45;&gt;Node6</title>
<path fill="none" stroke="#9a32cd" stroke-dasharray="5,2" d="M309.823,-59.1859C303.263,-46.4523 294.716,-29.8607 289.555,-19.8411"/>
<polygon fill="#9a32cd" stroke="#9a32cd" points="306.864,-61.0848 314.555,-68.3717 313.087,-57.879 306.864,-61.0848"/>
<text text-anchor="middle" x="330.5" y="-41.5" font-family="Helvetica,sans-Serif" font-size="10.00"> myImage</text>
</g>
<!-- Node8 -->
<g id="node8" class="node"><title>Node8</title>
<polygon fill="white" stroke="#bfbfbf" points="371,-68.5 371,-87.5 423,-87.5 423,-68.5 371,-68.5"/>
<text text-anchor="middle" x="397" y="-75.5" font-family="Helvetica,sans-Serif" font-size="10.00">Canvas</text>
</g>
<!-- Node8&#45;&gt;Node6 -->
<g id="edge9" class="edge"><title>Node8&#45;&gt;Node6</title>
<path fill="none" stroke="#9a32cd" stroke-dasharray="5,2" d="M384.11,-60.6899C377.316,-52.9616 368.443,-44.108 359,-38 346.598,-29.9786 331.49,-23.9199 318.166,-19.5954"/>
<polygon fill="#9a32cd" stroke="#9a32cd" points="381.496,-63.0206 390.594,-68.451 386.868,-58.5327 381.496,-63.0206"/>
<text text-anchor="middle" x="400" y="-41.5" font-family="Helvetica,sans-Serif" font-size="10.00"> myCanvas</text>
</g>
<!-- Node9 -->
<g id="node9" class="node"><title>Node9</title>
<polygon fill="white" stroke="#bfbfbf" points="450,-68.5 450,-87.5 492,-87.5 492,-68.5 450,-68.5"/>
<text text-anchor="middle" x="471" y="-75.5" font-family="Helvetica,sans-Serif" font-size="10.00">HBox</text>
</g>
<!-- Node9&#45;&gt;Node6 -->
<g id="edge10" class="edge"><title>Node9&#45;&gt;Node6</title>
<path fill="none" stroke="#9a32cd" stroke-dasharray="5,2" d="M458.182,-60.5465C451.04,-52.5114 441.483,-43.4285 431,-38 402.616,-23.3022 367.475,-16.5082 338.782,-13.4096"/>
<polygon fill="#9a32cd" stroke="#9a32cd" points="455.594,-62.9076 464.688,-68.3435 460.969,-58.4229 455.594,-62.9076"/>
<text text-anchor="middle" x="480.5" y="-41.5" font-family="Helvetica,sans-Serif" font-size="10.00"> myContainer</text>
</g>
</g>
</svg>
