<?xml version="1.0" encoding="UTF-8" standalone="no"?>
<!DOCTYPE svg PUBLIC "-//W3C//DTD SVG 1.1//EN"
 "http://www.w3.org/Graphics/SVG/1.1/DTD/svg11.dtd">
<!-- Generated by graphviz version 2.36.0 (20140111.2315)
 -->
<!-- Title: /tmp/duke&#45;compsci308&#45;fall2014/slogo_team07/repository/src Pages: 1 -->
<svg width="1568pt" height="111pt"
 viewBox="0.00 0.00 1568.00 111.00" xmlns="http://www.w3.org/2000/svg" xmlns:xlink="http://www.w3.org/1999/xlink">
<g id="graph0" class="graph" transform="scale(1 1) rotate(0) translate(4 107)">
<title>/tmp/duke&#45;compsci308&#45;fall2014/slogo_team07/repository/src</title>
<polygon fill="white" stroke="none" points="-4,4 -4,-107 1564,-107 1564,4 -4,4"/>
<g id="clust1" class="cluster"><title>clusterdir_713fc26dc3c86c8befa14e14b9347855</title>
<g id="a_clust1"><a xlink:href="dir_713fc26dc3c86c8befa14e14b9347855.html" target="_top" xlink:title="repository">
<polygon fill="#ddddee" stroke="black" points="8,-8 8,-95 1552,-95 1552,-8 8,-8"/>
<text text-anchor="middle" x="780" y="-83" font-family="Helvetica,sans-Serif" font-size="10.00">repository</text>
</a>
</g>
</g>
<g id="clust2" class="cluster"><title>clusterdir_50af759fb700e456a492a6f85df7205e</title>
<g id="a_clust2"><a xlink:href="dir_50af759fb700e456a492a6f85df7205e.html" target="_top">
<polygon fill="#eeeeff" stroke="black" points="16,-16 16,-68 1544,-68 1544,-16 16,-16"/>
</a>
</g>
</g>
<!-- dir_50af759fb700e456a492a6f85df7205e -->
<g id="node1" class="node"><title>dir_50af759fb700e456a492a6f85df7205e</title>
<text text-anchor="middle" x="1509" y="-39.5" font-family="Helvetica,sans-Serif" font-size="10.00">src</text>
</g>
<!-- dir_b0cc53f05459b8fb2ae78056d03ebeb7 -->
<g id="node2" class="node"><title>dir_b0cc53f05459b8fb2ae78056d03ebeb7</title>
<g id="a_node2"><a xlink:href="dir_b0cc53f05459b8fb2ae78056d03ebeb7.html" target="_top" xlink:title="backend">
<polygon fill="white" stroke="black" points="1463.25,-60 1406.75,-60 1406.75,-24 1463.25,-24 1463.25,-60"/>
<text text-anchor="middle" x="1435" y="-39.5" font-family="Helvetica,sans-Serif" font-size="10.00">backend</text>
</a>
</g>
</g>
<!-- dir_5c588bbe182062805a100127eb63992d -->
<g id="node3" class="node"><title>dir_5c588bbe182062805a100127eb63992d</title>
<g id="a_node3"><a xlink:href="dir_5c588bbe182062805a100127eb63992d.html" target="_top" xlink:title="commandAbstractClasses">
<polygon fill="white" stroke="black" points="1388.25,-60 1245.75,-60 1245.75,-24 1388.25,-24 1388.25,-60"/>
<text text-anchor="middle" x="1317" y="-39.5" font-family="Helvetica,sans-Serif" font-size="10.00">commandAbstractClasses</text>
</a>
</g>
</g>
<!-- dir_ec503f7f243ce0083c01597f12f7bdb8 -->
<g id="node4" class="node"><title>dir_ec503f7f243ce0083c01597f12f7bdb8</title>
<g id="a_node4"><a xlink:href="dir_ec503f7f243ce0083c01597f12f7bdb8.html" target="_top" xlink:title="comparators">
<polygon fill="white" stroke="black" points="1227,-60 1149,-60 1149,-24 1227,-24 1227,-60"/>
<text text-anchor="middle" x="1188" y="-39.5" font-family="Helvetica,sans-Serif" font-size="10.00">comparators</text>
</a>
</g>
</g>
<!-- dir_eb116d4d244837db3360b8c00eed75cb -->
<g id="node5" class="node"><title>dir_eb116d4d244837db3360b8c00eed75cb</title>
<g id="a_node5"><a xlink:href="dir_eb116d4d244837db3360b8c00eed75cb.html" target="_top" xlink:title="controlStructures">
<polygon fill="white" stroke="black" points="1131,-60 1031,-60 1031,-24 1131,-24 1131,-60"/>
<text text-anchor="middle" x="1081" y="-39.5" font-family="Helvetica,sans-Serif" font-size="10.00">controlStructures</text>
</a>
</g>
</g>
<!-- dir_0e9182a378882696f6ad941a80f831e9 -->
<g id="node6" class="node"><title>dir_0e9182a378882696f6ad941a80f831e9</title>
<g id="a_node6"><a xlink:href="dir_0e9182a378882696f6ad941a80f831e9.html" target="_top" xlink:title="displayCommands">
<polygon fill="white" stroke="black" points="1012.25,-60 907.75,-60 907.75,-24 1012.25,-24 1012.25,-60"/>
<text text-anchor="middle" x="960" y="-39.5" font-family="Helvetica,sans-Serif" font-size="10.00">displayCommands</text>
</a>
</g>
</g>
<!-- dir_2801621a7eff3c1003f4743239692059 -->
<g id="node7" class="node"><title>dir_2801621a7eff3c1003f4743239692059</title>
<g id="a_node7"><a xlink:href="dir_2801621a7eff3c1003f4743239692059.html" target="_top" xlink:title="errorsAndExceptions">
<polygon fill="white" stroke="black" points="888.5,-60 773.5,-60 773.5,-24 888.5,-24 888.5,-60"/>
<text text-anchor="middle" x="831" y="-39.5" font-family="Helvetica,sans-Serif" font-size="10.00">errorsAndExceptions</text>
</a>
</g>
</g>
<!-- dir_4fe2ef7e5df6baa964024e6b77c1dbee -->
<g id="node8" class="node"><title>dir_4fe2ef7e5df6baa964024e6b77c1dbee</title>
<g id="a_node8"><a xlink:href="dir_4fe2ef7e5df6baa964024e6b77c1dbee.html" target="_top" xlink:title="expressionTree">
<polygon fill="white" stroke="black" points="754.5,-60 667.5,-60 667.5,-24 754.5,-24 754.5,-60"/>
<text text-anchor="middle" x="711" y="-39.5" font-family="Helvetica,sans-Serif" font-size="10.00">expressionTree</text>
</a>
</g>
</g>
<!-- dir_53d31cf825800ecdf3de5951bea68905 -->
<g id="node9" class="node"><title>dir_53d31cf825800ecdf3de5951bea68905</title>
<g id="a_node9"><a xlink:href="dir_53d31cf825800ecdf3de5951bea68905.html" target="_top" xlink:title="frontend">
<polygon fill="white" stroke="red" points="648.25,-60 591.75,-60 591.75,-24 648.25,-24 648.25,-60"/>
<text text-anchor="middle" x="620" y="-39.5" font-family="Helvetica,sans-Serif" font-size="10.00">frontend</text>
</a>
</g>
</g>
<!-- dir_913dc0b15f889e3376fd4ea007939a7f -->
<g id="node10" class="node"><title>dir_913dc0b15f889e3376fd4ea007939a7f</title>
<g id="a_node10"><a xlink:href="dir_913dc0b15f889e3376fd4ea007939a7f.html" target="_top" xlink:title="main">
<polygon fill="white" stroke="black" points="573,-60 519,-60 519,-24 573,-24 573,-60"/>
<text text-anchor="middle" x="546" y="-39.5" font-family="Helvetica,sans-Serif" font-size="10.00">main</text>
</a>
</g>
</g>
<!-- dir_df092d321495ef79d1e734ad5cc485d2 -->
<g id="node11" class="node"><title>dir_df092d321495ef79d1e734ad5cc485d2</title>
<g id="a_node11"><a xlink:href="dir_df092d321495ef79d1e734ad5cc485d2.html" target="_top" xlink:title="mathOperations">
<polygon fill="white" stroke="black" points="500.25,-60 405.75,-60 405.75,-24 500.25,-24 500.25,-60"/>
<text text-anchor="middle" x="453" y="-39.5" font-family="Helvetica,sans-Serif" font-size="10.00">mathOperations</text>
</a>
</g>
</g>
<!-- dir_e6ed7e4fa93551dd75c38143afc1a29b -->
<g id="node12" class="node"><title>dir_e6ed7e4fa93551dd75c38143afc1a29b</title>
<g id="a_node12"><a xlink:href="dir_e6ed7e4fa93551dd75c38143afc1a29b.html" target="_top" xlink:title="save">
<polygon fill="white" stroke="red" points="387,-60 333,-60 333,-24 387,-24 387,-60"/>
<text text-anchor="middle" x="360" y="-39.5" font-family="Helvetica,sans-Serif" font-size="10.00">save</text>
</a>
</g>
</g>
<!-- dir_16a47a784ebb31f93635a94fdf718542 -->
<g id="node13" class="node"><title>dir_16a47a784ebb31f93635a94fdf718542</title>
<g id="a_node13"><a xlink:href="dir_16a47a784ebb31f93635a94fdf718542.html" target="_top" xlink:title="SLogoControllers">
<polygon fill="white" stroke="black" points="314.5,-60 217.5,-60 217.5,-24 314.5,-24 314.5,-60"/>
<text text-anchor="middle" x="266" y="-39.5" font-family="Helvetica,sans-Serif" font-size="10.00">SLogoControllers</text>
</a>
</g>
</g>
<!-- dir_07929c1f7532c45bd06bf45c9ce9dd79 -->
<g id="node14" class="node"><title>dir_07929c1f7532c45bd06bf45c9ce9dd79</title>
<g id="a_node14"><a xlink:href="dir_07929c1f7532c45bd06bf45c9ce9dd79.html" target="_top" xlink:title="turtleClasses">
<polygon fill="white" stroke="black" points="199.25,-60 120.75,-60 120.75,-24 199.25,-24 199.25,-60"/>
<text text-anchor="middle" x="160" y="-39.5" font-family="Helvetica,sans-Serif" font-size="10.00">turtleClasses</text>
</a>
</g>
</g>
<!-- dir_26b364b14327a4cfcae93e0baa632ad9 -->
<g id="node15" class="node"><title>dir_26b364b14327a4cfcae93e0baa632ad9</title>
<g id="a_node15"><a xlink:href="dir_26b364b14327a4cfcae93e0baa632ad9.html" target="_top" xlink:title="turtleQueries">
<polygon fill="white" stroke="black" points="102.25,-60 23.75,-60 23.75,-24 102.25,-24 102.25,-60"/>
<text text-anchor="middle" x="63" y="-39.5" font-family="Helvetica,sans-Serif" font-size="10.00">turtleQueries</text>
</a>
</g>
</g>
</g>
</svg>
