<?xml version="1.0" encoding="UTF-8" standalone="no"?>
<!DOCTYPE svg PUBLIC "-//W3C//DTD SVG 1.1//EN"
 "http://www.w3.org/Graphics/SVG/1.1/DTD/svg11.dtd">
<!-- Generated by graphviz version 2.36.0 (20140111.2315)
 -->
<!-- Title: Graphical Class Hierarchy Pages: 1 -->
<svg width="270pt" height="66pt"
 viewBox="0.00 0.00 270.00 66.00" xmlns="http://www.w3.org/2000/svg" xmlns:xlink="http://www.w3.org/1999/xlink">
<g id="graph0" class="graph" transform="scale(1 1) rotate(0) translate(4 62)">
<title>Graphical Class Hierarchy</title>
<polygon fill="white" stroke="none" points="-4,4 -4,-62 266,-62 266,4 -4,4"/>
<!-- Node1 -->
<g id="node1" class="node"><title>Node1</title>
<polygon fill="white" stroke="#bfbfbf" points="0.5,-19.5 0.5,-38.5 53.5,-38.5 53.5,-19.5 0.5,-19.5"/>
<text text-anchor="middle" x="27" y="-26.5" font-family="Helvetica,sans-Serif" font-size="10.00">Iterable</text>
</g>
<!-- Node2 -->
<g id="node2" class="node"><title>Node2</title>
<g id="a_node2"><a xlink:href="d1/ded/classexpression_tree_1_1_history_collection.html" target="_top" xlink:title="expressionTree.HistoryCollection">
<polygon fill="white" stroke="black" points="90.5,-38.5 90.5,-57.5 261.5,-57.5 261.5,-38.5 90.5,-38.5"/>
<text text-anchor="middle" x="176" y="-45.5" font-family="Helvetica,sans-Serif" font-size="10.00">expressionTree.HistoryCollection</text>
</a>
</g>
</g>
<!-- Node1&#45;&gt;Node2 -->
<g id="edge1" class="edge"><title>Node1&#45;&gt;Node2</title>
<path fill="none" stroke="midnightblue" d="M63.6054,-33.6021C75.0647,-35.0832 88.2157,-36.783 101.372,-38.4835"/>
<polygon fill="midnightblue" stroke="midnightblue" points="63.9716,-30.1204 53.6054,-32.3095 63.0743,-37.0626 63.9716,-30.1204"/>
</g>
<!-- Node3 -->
<g id="node3" class="node"><title>Node3</title>
<g id="a_node3"><a xlink:href="d4/d7e/classturtle_classes_1_1_turtle_collection.html" target="_top" xlink:title="turtleClasses.TurtleCollection">
<polygon fill="white" stroke="black" points="99,-0.5 99,-19.5 253,-19.5 253,-0.5 99,-0.5"/>
<text text-anchor="middle" x="176" y="-7.5" font-family="Helvetica,sans-Serif" font-size="10.00">turtleClasses.TurtleCollection</text>
</a>
</g>
</g>
<!-- Node1&#45;&gt;Node3 -->
<g id="edge2" class="edge"><title>Node1&#45;&gt;Node3</title>
<path fill="none" stroke="midnightblue" d="M63.6054,-24.3979C75.0647,-22.9168 88.2157,-21.217 101.372,-19.5165"/>
<polygon fill="midnightblue" stroke="midnightblue" points="63.0743,-20.9374 53.6054,-25.6905 63.9716,-27.8796 63.0743,-20.9374"/>
</g>
</g>
</svg>
