<?xml version="1.0" encoding="UTF-8" standalone="no"?>
<!DOCTYPE svg PUBLIC "-//W3C//DTD SVG 1.1//EN"
 "http://www.w3.org/Graphics/SVG/1.1/DTD/svg11.dtd">
<!-- Generated by graphviz version 2.36.0 (20140111.2315)
 -->
<!-- Title: frontend.Pen Pages: 1 -->
<svg width="275pt" height="106pt"
 viewBox="0.00 0.00 275.00 106.00" xmlns="http://www.w3.org/2000/svg" xmlns:xlink="http://www.w3.org/1999/xlink">
<g id="graph0" class="graph" transform="scale(1 1) rotate(0) translate(4 102)">
<title>frontend.Pen</title>
<polygon fill="white" stroke="none" points="-4,4 -4,-102 271,-102 271,4 -4,4"/>
<!-- Node1 -->
<g id="node1" class="node"><title>Node1</title>
<polygon fill="#bfbfbf" stroke="black" points="76,-0.5 76,-19.5 154,-19.5 154,-0.5 76,-0.5"/>
<text text-anchor="middle" x="115" y="-7.5" font-family="Helvetica,sans-Serif" font-size="10.00">frontend.Pen</text>
</g>
<!-- Node2 -->
<g id="node2" class="node"><title>Node2</title>
<polygon fill="white" stroke="#bfbfbf" points="0,-78.5 0,-97.5 128,-97.5 128,-78.5 0,-78.5"/>
<text text-anchor="middle" x="64" y="-85.5" font-family="Helvetica,sans-Serif" font-size="10.00">Map&lt; String, Double &gt;</text>
</g>
<!-- Node2&#45;&gt;Node1 -->
<g id="edge1" class="edge"><title>Node2&#45;&gt;Node1</title>
<path fill="none" stroke="#9a32cd" stroke-dasharray="5,2" d="M67.2986,-68.4686C69.6777,-58.7533 73.6256,-47.0302 80,-38 85.2223,-30.6018 93.0665,-24.2873 100.006,-19.6293"/>
<polygon fill="#9a32cd" stroke="#9a32cd" points="63.8568,-67.8287 65.2335,-78.3337 70.7083,-69.263 63.8568,-67.8287"/>
<text text-anchor="middle" x="112.5" y="-46.5" font-family="Helvetica,sans-Serif" font-size="10.00"> LINE_STYLES</text>
</g>
<!-- Node3 -->
<g id="node3" class="node"><title>Node3</title>
<polygon fill="white" stroke="#bfbfbf" points="146.5,-78.5 146.5,-97.5 187.5,-97.5 187.5,-78.5 146.5,-78.5"/>
<text text-anchor="middle" x="167" y="-85.5" font-family="Helvetica,sans-Serif" font-size="10.00">Color</text>
</g>
<!-- Node3&#45;&gt;Node1 -->
<g id="edge2" class="edge"><title>Node3&#45;&gt;Node1</title>
<path fill="none" stroke="#9a32cd" stroke-dasharray="5,2" d="M160.994,-69.0014C157.26,-59.2922 151.859,-47.4069 145,-38 139.881,-30.9792 132.683,-24.4251 126.62,-19.5327"/>
<polygon fill="#9a32cd" stroke="#9a32cd" points="157.715,-70.2278 164.382,-78.4626 164.306,-67.868 157.715,-70.2278"/>
<text text-anchor="middle" x="212.5" y="-52" font-family="Helvetica,sans-Serif" font-size="10.00"> DEFAULT_LINE_COLOR</text>
<text text-anchor="middle" x="212.5" y="-41" font-family="Helvetica,sans-Serif" font-size="10.00">myLineColor</text>
</g>
</g>
</svg>
