<?xml version="1.0" encoding="UTF-8" standalone="no"?>
<!DOCTYPE svg PUBLIC "-//W3C//DTD SVG 1.1//EN"
 "http://www.w3.org/Graphics/SVG/1.1/DTD/svg11.dtd">
<!-- Generated by graphviz version 2.36.0 (20140111.2315)
 -->
<!-- Title: frontend.ConcreteFeatures.LoadVariablesButton.action Pages: 1 -->
<svg width="594pt" height="283pt"
 viewBox="0.00 0.00 594.00 283.00" xmlns="http://www.w3.org/2000/svg" xmlns:xlink="http://www.w3.org/1999/xlink">
<g id="graph0" class="graph" transform="scale(1 1) rotate(0) translate(4 279)">
<title>frontend.ConcreteFeatures.LoadVariablesButton.action</title>
<polygon fill="white" stroke="none" points="-4,4 -4,-279 590,-279 590,4 -4,4"/>
<!-- Node1 -->
<g id="node1" class="node"><title>Node1</title>
<polygon fill="#bfbfbf" stroke="black" points="0,-122 0,-152 148,-152 148,-122 0,-122"/>
<text text-anchor="start" x="8" y="-140" font-family="Helvetica,sans-Serif" font-size="10.00">frontend.ConcreteFeatures.</text>
<text text-anchor="middle" x="74" y="-129" font-family="Helvetica,sans-Serif" font-size="10.00">LoadVariablesButton.action</text>
</g>
<!-- Node2 -->
<g id="node2" class="node"><title>Node2</title>
<g id="a_node2"><a xlink:href="../../d5/d5c/classsave_1_1load_1_1_custom_reader_writer.html#aa7470e6e6936ac7311b45602d2aca763" target="_top" xlink:title="save.load.CustomReaderWriter.read\lFromFile">
<polygon fill="white" stroke="black" points="184.5,-122 184.5,-152 371.5,-152 371.5,-122 184.5,-122"/>
<text text-anchor="start" x="192.5" y="-140" font-family="Helvetica,sans-Serif" font-size="10.00">save.load.CustomReaderWriter.read</text>
<text text-anchor="middle" x="278" y="-129" font-family="Helvetica,sans-Serif" font-size="10.00">FromFile</text>
</a>
</g>
</g>
<!-- Node1&#45;&gt;Node2 -->
<g id="edge1" class="edge"><title>Node1&#45;&gt;Node2</title>
<path fill="none" stroke="midnightblue" d="M148.212,-137C156.652,-137 165.373,-137 174.112,-137"/>
<polygon fill="midnightblue" stroke="midnightblue" points="174.365,-140.5 184.364,-137 174.364,-133.5 174.365,-140.5"/>
</g>
<!-- Node3 -->
<g id="node3" class="node"><title>Node3</title>
<g id="a_node3"><a xlink:href="../../de/d4e/classexpression_tree_1_1_variable_node_map.html#afa5500d8a01c92260f32d787c802b802" target="_top" xlink:title="expressionTree.VariableNode\lMap.getVariableNodeMap">
<polygon fill="white" stroke="black" points="419.5,-245 419.5,-275 574.5,-275 574.5,-245 419.5,-245"/>
<text text-anchor="start" x="427.5" y="-263" font-family="Helvetica,sans-Serif" font-size="10.00">expressionTree.VariableNode</text>
<text text-anchor="middle" x="497" y="-252" font-family="Helvetica,sans-Serif" font-size="10.00">Map.getVariableNodeMap</text>
</a>
</g>
</g>
<!-- Node2&#45;&gt;Node3 -->
<g id="edge2" class="edge"><title>Node2&#45;&gt;Node3</title>
<path fill="none" stroke="midnightblue" d="M294.767,-152.159C317.837,-173.554 362.961,-212.504 408,-235 412.589,-237.292 417.421,-239.404 422.361,-241.344"/>
<polygon fill="midnightblue" stroke="midnightblue" points="421.366,-244.707 431.959,-244.866 423.777,-238.136 421.366,-244.707"/>
</g>
<!-- Node4 -->
<g id="node4" class="node"><title>Node4</title>
<g id="a_node4"><a xlink:href="../../d8/d36/classexpression_tree_1_1_user_function_map.html#a8cb80acc8ccf7338f39433c854b9dfb4" target="_top" xlink:title="expressionTree.UserFunction\lMap.getUserFunctionMap">
<polygon fill="white" stroke="black" points="420.5,-196 420.5,-226 573.5,-226 573.5,-196 420.5,-196"/>
<text text-anchor="start" x="428.5" y="-214" font-family="Helvetica,sans-Serif" font-size="10.00">expressionTree.UserFunction</text>
<text text-anchor="middle" x="497" y="-203" font-family="Helvetica,sans-Serif" font-size="10.00">Map.getUserFunctionMap</text>
</a>
</g>
</g>
<!-- Node2&#45;&gt;Node4 -->
<g id="edge3" class="edge"><title>Node2&#45;&gt;Node4</title>
<path fill="none" stroke="midnightblue" d="M315.953,-152.008C341.582,-162.177 376.617,-175.603 408,-186 415.314,-188.423 423.017,-190.826 430.698,-193.129"/>
<polygon fill="midnightblue" stroke="midnightblue" points="429.803,-196.514 440.385,-195.986 431.784,-189.8 429.803,-196.514"/>
</g>
<!-- Node5 -->
<g id="node5" class="node"><title>Node5</title>
<g id="a_node5"><a xlink:href="../../de/d4e/classexpression_tree_1_1_variable_node_map.html#a7bd9f4565fb7e72c11659a650e428647" target="_top" xlink:title="expressionTree.VariableNode\lMap.applyLoadedMap">
<polygon fill="white" stroke="black" points="419.5,-147 419.5,-177 574.5,-177 574.5,-147 419.5,-147"/>
<text text-anchor="start" x="427.5" y="-165" font-family="Helvetica,sans-Serif" font-size="10.00">expressionTree.VariableNode</text>
<text text-anchor="middle" x="497" y="-154" font-family="Helvetica,sans-Serif" font-size="10.00">Map.applyLoadedMap</text>
</a>
</g>
</g>
<!-- Node2&#45;&gt;Node5 -->
<g id="edge4" class="edge"><title>Node2&#45;&gt;Node5</title>
<path fill="none" stroke="midnightblue" d="M371.657,-147.675C384.076,-149.106 396.779,-150.569 409.095,-151.988"/>
<polygon fill="midnightblue" stroke="midnightblue" points="408.999,-155.5 419.334,-153.168 409.8,-148.546 408.999,-155.5"/>
</g>
<!-- Node6 -->
<g id="node6" class="node"><title>Node6</title>
<g id="a_node6"><a xlink:href="../../d3/db3/classsave_1_1load_1_1_custom_parameters.html#a0e38de2d65c8aaae2281da79dbd9020b" target="_top" xlink:title="save.load.CustomParameters.get\lVariables">
<polygon fill="white" stroke="black" points="408.5,-98 408.5,-128 585.5,-128 585.5,-98 408.5,-98"/>
<text text-anchor="start" x="416.5" y="-116" font-family="Helvetica,sans-Serif" font-size="10.00">save.load.CustomParameters.get</text>
<text text-anchor="middle" x="497" y="-105" font-family="Helvetica,sans-Serif" font-size="10.00">Variables</text>
</a>
</g>
</g>
<!-- Node2&#45;&gt;Node6 -->
<g id="edge5" class="edge"><title>Node2&#45;&gt;Node6</title>
<path fill="none" stroke="midnightblue" d="M371.657,-126.752C380.529,-125.771 389.545,-124.774 398.462,-123.788"/>
<polygon fill="midnightblue" stroke="midnightblue" points="398.919,-127.259 408.473,-122.68 398.149,-120.301 398.919,-127.259"/>
</g>
<!-- Node7 -->
<g id="node7" class="node"><title>Node7</title>
<g id="a_node7"><a xlink:href="../../d8/d36/classexpression_tree_1_1_user_function_map.html#a0104a6b6b189d76ec48f83205111fde9" target="_top" xlink:title="expressionTree.UserFunction\lMap.applyLoadedMap">
<polygon fill="white" stroke="black" points="420.5,-49 420.5,-79 573.5,-79 573.5,-49 420.5,-49"/>
<text text-anchor="start" x="428.5" y="-67" font-family="Helvetica,sans-Serif" font-size="10.00">expressionTree.UserFunction</text>
<text text-anchor="middle" x="497" y="-56" font-family="Helvetica,sans-Serif" font-size="10.00">Map.applyLoadedMap</text>
</a>
</g>
</g>
<!-- Node2&#45;&gt;Node7 -->
<g id="edge6" class="edge"><title>Node2&#45;&gt;Node7</title>
<path fill="none" stroke="midnightblue" d="M317.103,-121.915C342.639,-112.03 377.116,-99.1152 408,-89 415.323,-86.6017 423.03,-84.2145 430.714,-81.9204"/>
<polygon fill="midnightblue" stroke="midnightblue" points="431.798,-85.2501 440.404,-79.0704 429.822,-78.5345 431.798,-85.2501"/>
</g>
<!-- Node8 -->
<g id="node8" class="node"><title>Node8</title>
<g id="a_node8"><a xlink:href="../../d3/db3/classsave_1_1load_1_1_custom_parameters.html#a6798af3a3e5bb70a541c471077cc04a4" target="_top" xlink:title="save.load.CustomParameters.get\lFunctions">
<polygon fill="white" stroke="black" points="408.5,-0 408.5,-30 585.5,-30 585.5,-0 408.5,-0"/>
<text text-anchor="start" x="416.5" y="-18" font-family="Helvetica,sans-Serif" font-size="10.00">save.load.CustomParameters.get</text>
<text text-anchor="middle" x="497" y="-7" font-family="Helvetica,sans-Serif" font-size="10.00">Functions</text>
</a>
</g>
</g>
<!-- Node2&#45;&gt;Node8 -->
<g id="edge7" class="edge"><title>Node2&#45;&gt;Node8</title>
<path fill="none" stroke="midnightblue" d="M295.187,-121.649C318.41,-100.41 363.325,-62.1772 408,-40 412.801,-37.6166 417.866,-35.4271 423.041,-33.4219"/>
<polygon fill="midnightblue" stroke="midnightblue" points="424.238,-36.7111 432.444,-30.0093 421.85,-30.1312 424.238,-36.7111"/>
</g>
</g>
</svg>
