<?xml version="1.0" encoding="UTF-8" standalone="no"?>
<!DOCTYPE svg PUBLIC "-//W3C//DTD SVG 1.1//EN"
 "http://www.w3.org/Graphics/SVG/1.1/DTD/svg11.dtd">
<!-- Generated by graphviz version 2.36.0 (20140111.2315)
 -->
<!-- Title: frontend.ConcreteFeatures.Reset.action Pages: 1 -->
<svg width="716pt" height="213pt"
 viewBox="0.00 0.00 716.00 213.00" xmlns="http://www.w3.org/2000/svg" xmlns:xlink="http://www.w3.org/1999/xlink">
<g id="graph0" class="graph" transform="scale(1 1) rotate(0) translate(4 209)">
<title>frontend.ConcreteFeatures.Reset.action</title>
<polygon fill="white" stroke="none" points="-4,4 -4,-209 712,-209 712,4 -4,4"/>
<!-- Node1 -->
<g id="node1" class="node"><title>Node1</title>
<polygon fill="#bfbfbf" stroke="black" points="0,-71 0,-101 148,-101 148,-71 0,-71"/>
<text text-anchor="start" x="8" y="-89" font-family="Helvetica,sans-Serif" font-size="10.00">frontend.ConcreteFeatures.</text>
<text text-anchor="middle" x="74" y="-78" font-family="Helvetica,sans-Serif" font-size="10.00">Reset.action</text>
</g>
<!-- Node2 -->
<g id="node2" class="node"><title>Node2</title>
<g id="a_node2"><a xlink:href="../../d4/d7e/classturtle_classes_1_1_turtle_collection.html#a61f007615f0fd523dae94957f8022100" target="_top" xlink:title="turtleClasses.TurtleCollection.set\lActiveTurtles">
<polygon fill="white" stroke="black" points="184,-153 184,-183 356,-183 356,-153 184,-153"/>
<text text-anchor="start" x="192" y="-171" font-family="Helvetica,sans-Serif" font-size="10.00">turtleClasses.TurtleCollection.set</text>
<text text-anchor="middle" x="270" y="-160" font-family="Helvetica,sans-Serif" font-size="10.00">ActiveTurtles</text>
</a>
</g>
</g>
<!-- Node1&#45;&gt;Node2 -->
<g id="edge1" class="edge"><title>Node1&#45;&gt;Node2</title>
<path fill="none" stroke="midnightblue" d="M100.311,-101.053C121.982,-113.494 154.3,-131.001 184,-143 189.896,-145.382 196.105,-147.647 202.372,-149.77"/>
<polygon fill="midnightblue" stroke="midnightblue" points="201.638,-153.212 212.23,-152.986 203.809,-146.557 201.638,-153.212"/>
</g>
<!-- Node6 -->
<g id="node6" class="node"><title>Node6</title>
<g id="a_node6"><a xlink:href="../../d3/d0e/classfrontend_1_1_pen.html#a7b51bb8c3fd5081a403b802169cf3914" target="_top" xlink:title="frontend.Pen.setLineColor">
<polygon fill="white" stroke="black" points="200,-114.5 200,-133.5 340,-133.5 340,-114.5 200,-114.5"/>
<text text-anchor="middle" x="270" y="-121.5" font-family="Helvetica,sans-Serif" font-size="10.00">frontend.Pen.setLineColor</text>
</a>
</g>
</g>
<!-- Node1&#45;&gt;Node6 -->
<g id="edge5" class="edge"><title>Node1&#45;&gt;Node6</title>
<path fill="none" stroke="midnightblue" d="M148.067,-100.312C168.646,-104.343 190.759,-108.674 210.375,-112.517"/>
<polygon fill="midnightblue" stroke="midnightblue" points="209.898,-115.99 220.384,-114.477 211.244,-109.12 209.898,-115.99"/>
</g>
<!-- Node7 -->
<g id="node7" class="node"><title>Node7</title>
<g id="a_node7"><a xlink:href="../../d3/d0e/classfrontend_1_1_pen.html#ab49e5bce4b3a5c7532a395f9ce669944" target="_top" xlink:title="frontend.Pen.setLineStyle">
<polygon fill="white" stroke="black" points="200,-76.5 200,-95.5 340,-95.5 340,-76.5 200,-76.5"/>
<text text-anchor="middle" x="270" y="-83.5" font-family="Helvetica,sans-Serif" font-size="10.00">frontend.Pen.setLineStyle</text>
</a>
</g>
</g>
<!-- Node1&#45;&gt;Node7 -->
<g id="edge6" class="edge"><title>Node1&#45;&gt;Node7</title>
<path fill="none" stroke="midnightblue" d="M148.067,-86C161.59,-86 175.775,-86 189.479,-86"/>
<polygon fill="midnightblue" stroke="midnightblue" points="189.846,-89.5001 199.846,-86 189.846,-82.5001 189.846,-89.5001"/>
</g>
<!-- Node8 -->
<g id="node8" class="node"><title>Node8</title>
<g id="a_node8"><a xlink:href="../../d3/d0e/classfrontend_1_1_pen.html#a8a90b592552fe72196f66c7641bccb35" target="_top" xlink:title="frontend.Pen.setLineWidth">
<polygon fill="white" stroke="black" points="199,-38.5 199,-57.5 341,-57.5 341,-38.5 199,-38.5"/>
<text text-anchor="middle" x="270" y="-45.5" font-family="Helvetica,sans-Serif" font-size="10.00">frontend.Pen.setLineWidth</text>
</a>
</g>
</g>
<!-- Node1&#45;&gt;Node8 -->
<g id="edge7" class="edge"><title>Node1&#45;&gt;Node8</title>
<path fill="none" stroke="midnightblue" d="M148.067,-71.688C168.646,-67.6569 190.759,-63.3256 210.375,-59.4832"/>
<polygon fill="midnightblue" stroke="midnightblue" points="211.244,-62.8797 220.384,-57.5226 209.898,-56.0102 211.244,-62.8797"/>
</g>
<!-- Node9 -->
<g id="node9" class="node"><title>Node9</title>
<g id="a_node9"><a xlink:href="../../df/d0e/classfrontend_1_1_pane_updater.html#a5fcda115228f65df7abd8ec164ca67f9" target="_top" xlink:title="frontend.PaneUpdater.updateAll">
<polygon fill="white" stroke="black" points="185,-0.5 185,-19.5 355,-19.5 355,-0.5 185,-0.5"/>
<text text-anchor="middle" x="270" y="-7.5" font-family="Helvetica,sans-Serif" font-size="10.00">frontend.PaneUpdater.updateAll</text>
</a>
</g>
</g>
<!-- Node1&#45;&gt;Node9 -->
<g id="edge8" class="edge"><title>Node1&#45;&gt;Node9</title>
<path fill="none" stroke="midnightblue" d="M99.2595,-70.9456C120.807,-58.1596 153.518,-40.1568 184,-29 191.189,-26.3688 198.858,-24.0353 206.537,-21.9845"/>
<polygon fill="midnightblue" stroke="midnightblue" points="207.395,-25.378 216.234,-19.5371 205.681,-18.5909 207.395,-25.378"/>
</g>
<!-- Node3 -->
<g id="node3" class="node"><title>Node3</title>
<g id="a_node3"><a xlink:href="../../d8/d89/classturtle_classes_1_1_turtle.html#a2d3828dbca854624cc75fca5aa65b4c5" target="_top" xlink:title="turtleClasses.Turtle.set\lActive">
<polygon fill="white" stroke="black" points="397.5,-175 397.5,-205 522.5,-205 522.5,-175 397.5,-175"/>
<text text-anchor="start" x="405.5" y="-193" font-family="Helvetica,sans-Serif" font-size="10.00">turtleClasses.Turtle.set</text>
<text text-anchor="middle" x="460" y="-182" font-family="Helvetica,sans-Serif" font-size="10.00">Active</text>
</a>
</g>
</g>
<!-- Node2&#45;&gt;Node3 -->
<g id="edge2" class="edge"><title>Node2&#45;&gt;Node3</title>
<path fill="none" stroke="midnightblue" d="M356.199,-177.97C366.619,-179.189 377.184,-180.426 387.376,-181.619"/>
<polygon fill="midnightblue" stroke="midnightblue" points="387.086,-185.108 397.426,-182.794 387.9,-178.156 387.086,-185.108"/>
</g>
<!-- Node5 -->
<g id="node5" class="node"><title>Node5</title>
<g id="a_node5"><a xlink:href="../../d8/d89/classturtle_classes_1_1_turtle.html#aff48aa8a8ca4bb8a7aa40743a1a944c4" target="_top" xlink:title="turtleClasses.Turtle.getID">
<polygon fill="white" stroke="black" points="392,-136.5 392,-155.5 528,-155.5 528,-136.5 392,-136.5"/>
<text text-anchor="middle" x="460" y="-143.5" font-family="Helvetica,sans-Serif" font-size="10.00">turtleClasses.Turtle.getID</text>
</a>
</g>
</g>
<!-- Node2&#45;&gt;Node5 -->
<g id="edge4" class="edge"><title>Node2&#45;&gt;Node5</title>
<path fill="none" stroke="midnightblue" d="M356.199,-158.03C364.695,-157.036 373.287,-156.03 381.695,-155.046"/>
<polygon fill="midnightblue" stroke="midnightblue" points="382.316,-158.498 391.841,-153.859 381.502,-151.545 382.316,-158.498"/>
</g>
<!-- Node4 -->
<g id="node4" class="node"><title>Node4</title>
<g id="a_node4"><a xlink:href="../../d8/d89/classturtle_classes_1_1_turtle.html#abd769212afc56f042db3d4b5ee33790e" target="_top" xlink:title="turtleClasses.Turtle.handle\lActiveOutline">
<polygon fill="white" stroke="black" points="564.5,-175 564.5,-205 707.5,-205 707.5,-175 564.5,-175"/>
<text text-anchor="start" x="572.5" y="-193" font-family="Helvetica,sans-Serif" font-size="10.00">turtleClasses.Turtle.handle</text>
<text text-anchor="middle" x="636" y="-182" font-family="Helvetica,sans-Serif" font-size="10.00">ActiveOutline</text>
</a>
</g>
</g>
<!-- Node3&#45;&gt;Node4 -->
<g id="edge3" class="edge"><title>Node3&#45;&gt;Node4</title>
<path fill="none" stroke="midnightblue" d="M522.836,-190C533.051,-190 543.773,-190 554.368,-190"/>
<polygon fill="midnightblue" stroke="midnightblue" points="554.467,-193.5 564.467,-190 554.467,-186.5 554.467,-193.5"/>
</g>
</g>
</svg>
