<?xml version="1.0" encoding="UTF-8" standalone="no"?>
<!DOCTYPE svg PUBLIC "-//W3C//DTD SVG 1.1//EN"
 "http://www.w3.org/Graphics/SVG/1.1/DTD/svg11.dtd">
<!-- Generated by graphviz version 2.36.0 (20140111.2315)
 -->
<!-- Title: frontend.AbstractFeatures.SLogoDropDown Pages: 1 -->
<svg width="254pt" height="120pt"
 viewBox="0.00 0.00 254.00 120.00" xmlns="http://www.w3.org/2000/svg" xmlns:xlink="http://www.w3.org/1999/xlink">
<g id="graph0" class="graph" transform="scale(1 1) rotate(0) translate(4 116)">
<title>frontend.AbstractFeatures.SLogoDropDown</title>
<polygon fill="white" stroke="none" points="-4,4 -4,-116 250,-116 250,4 -4,4"/>
<!-- Node1 -->
<g id="node1" class="node"><title>Node1</title>
<polygon fill="#bfbfbf" stroke="black" points="65.5,-1 65.5,-31 210.5,-31 210.5,-1 65.5,-1"/>
<text text-anchor="start" x="73.5" y="-19" font-family="Helvetica,sans-Serif" font-size="10.00">frontend.AbstractFeatures.</text>
<text text-anchor="middle" x="138" y="-8" font-family="Helvetica,sans-Serif" font-size="10.00">SLogoDropDown</text>
</g>
<!-- Node2 -->
<g id="node2" class="node"><title>Node2</title>
<g id="a_node2"><a xlink:href="../../dc/db4/classfrontend_1_1_abstract_features_1_1_g_u_i_feature.html" target="_top" xlink:title="frontend.AbstractFeatures.\lGUIFeature">
<polygon fill="white" stroke="black" points="-0.5,-81 -0.5,-111 144.5,-111 144.5,-81 -0.5,-81"/>
<text text-anchor="start" x="7.5" y="-99" font-family="Helvetica,sans-Serif" font-size="10.00">frontend.AbstractFeatures.</text>
<text text-anchor="middle" x="72" y="-88" font-family="Helvetica,sans-Serif" font-size="10.00">GUIFeature</text>
</a>
</g>
</g>
<!-- Node2&#45;&gt;Node1 -->
<g id="edge1" class="edge"><title>Node2&#45;&gt;Node1</title>
<path fill="none" stroke="midnightblue" d="M90.7295,-72.8651C102.044,-59.493 116.132,-42.8445 125.971,-31.2157"/>
<polygon fill="midnightblue" stroke="midnightblue" points="87.893,-70.7989 84.1054,-80.6936 93.2367,-75.3205 87.893,-70.7989"/>
</g>
<!-- Node3 -->
<g id="node3" class="node"><title>Node3</title>
<polygon fill="white" stroke="#bfbfbf" points="163,-86.5 163,-105.5 247,-105.5 247,-86.5 163,-86.5"/>
<text text-anchor="middle" x="205" y="-93.5" font-family="Helvetica,sans-Serif" font-size="10.00">List&lt; String &gt;</text>
</g>
<!-- Node3&#45;&gt;Node1 -->
<g id="edge2" class="edge"><title>Node3&#45;&gt;Node1</title>
<path fill="none" stroke="#9a32cd" stroke-dasharray="5,2" d="M190.825,-78.4975C178.78,-64.4755 161.671,-44.557 150.221,-31.227"/>
<polygon fill="#9a32cd" stroke="#9a32cd" points="188.403,-81.0495 197.574,-86.3546 193.713,-76.4883 188.403,-81.0495"/>
<text text-anchor="middle" x="199" y="-53.5" font-family="Helvetica,sans-Serif" font-size="10.00"> myItems</text>
</g>
</g>
</svg>
