<?xml version="1.0" encoding="UTF-8" standalone="no"?>
<!DOCTYPE svg PUBLIC "-//W3C//DTD SVG 1.1//EN"
 "http://www.w3.org/Graphics/SVG/1.1/DTD/svg11.dtd">
<!-- Generated by graphviz version 2.36.0 (20140111.2315)
 -->
<!-- Title: displayCommands.AskWith Pages: 1 -->
<svg width="1584pt" height="230pt"
 viewBox="0.00 0.00 1584.00 230.00" xmlns="http://www.w3.org/2000/svg" xmlns:xlink="http://www.w3.org/1999/xlink">
<g id="graph0" class="graph" transform="scale(1 1) rotate(0) translate(4 226)">
<title>displayCommands.AskWith</title>
<polygon fill="white" stroke="none" points="-4,4 -4,-226 1580,-226 1580,4 -4,4"/>
<!-- Node1 -->
<g id="node1" class="node"><title>Node1</title>
<polygon fill="#bfbfbf" stroke="black" points="1430,-145.5 1430,-164.5 1576,-164.5 1576,-145.5 1430,-145.5"/>
<text text-anchor="middle" x="1503" y="-152.5" font-family="Helvetica,sans-Serif" font-size="10.00">displayCommands.AskWith</text>
</g>
<!-- Node2 -->
<g id="node2" class="node"><title>Node2</title>
<g id="a_node2"><a xlink:href="../../d6/d49/classdisplay_commands_1_1_display_node.html" target="_top" xlink:title="displayCommands.DisplayNode">
<polygon fill="white" stroke="black" points="1110,-167.5 1110,-186.5 1278,-186.5 1278,-167.5 1110,-167.5"/>
<text text-anchor="middle" x="1194" y="-174.5" font-family="Helvetica,sans-Serif" font-size="10.00">displayCommands.DisplayNode</text>
</a>
</g>
</g>
<!-- Node2&#45;&gt;Node1 -->
<g id="edge1" class="edge"><title>Node2&#45;&gt;Node1</title>
<path fill="none" stroke="midnightblue" d="M1288.24,-170.318C1333.7,-167.06 1387.55,-163.202 1429.82,-160.172"/>
<polygon fill="midnightblue" stroke="midnightblue" points="1287.8,-166.841 1278.08,-171.046 1288.3,-173.823 1287.8,-166.841"/>
</g>
<!-- Node3 -->
<g id="node3" class="node"><title>Node3</title>
<g id="a_node3"><a xlink:href="../../db/da5/classexpression_tree_1_1_expression_node.html" target="_top" xlink:title="expressionTree.ExpressionNode">
<polygon fill="white" stroke="black" points="854,-162.5 854,-181.5 1022,-181.5 1022,-162.5 854,-162.5"/>
<text text-anchor="middle" x="938" y="-169.5" font-family="Helvetica,sans-Serif" font-size="10.00">expressionTree.ExpressionNode</text>
</a>
</g>
</g>
<!-- Node3&#45;&gt;Node2 -->
<g id="edge2" class="edge"><title>Node3&#45;&gt;Node2</title>
<path fill="none" stroke="midnightblue" d="M1032.5,-173.841C1057.78,-174.338 1084.96,-174.873 1109.64,-175.359"/>
<polygon fill="midnightblue" stroke="midnightblue" points="1032.24,-170.335 1022.17,-173.637 1032.1,-177.333 1032.24,-170.335"/>
</g>
<!-- Node3&#45;&gt;Node3 -->
<g id="edge4" class="edge"><title>Node3&#45;&gt;Node3</title>
<path fill="none" stroke="#9a32cd" stroke-dasharray="5,2" d="M914.191,-191.029C915.489,-196.128 923.426,-200 938,-200 960.75,-200 967.326,-190.565 957.729,-181.757"/>
<polygon fill="#9a32cd" stroke="#9a32cd" points="917.447,-192.32 918.271,-181.757 911.04,-189.5 917.447,-192.32"/>
<text text-anchor="middle" x="938" y="-214" font-family="Helvetica,sans-Serif" font-size="10.00"> myLeft</text>
<text text-anchor="middle" x="938" y="-203" font-family="Helvetica,sans-Serif" font-size="10.00">myRight</text>
</g>
<!-- Node5 -->
<g id="node5" class="node"><title>Node5</title>
<g id="a_node5"><a xlink:href="../../d9/de6/classexpression_tree_1_1_list_node.html" target="_top" xlink:title="expressionTree.ListNode">
<polygon fill="white" stroke="black" points="1127.5,-123.5 1127.5,-142.5 1260.5,-142.5 1260.5,-123.5 1127.5,-123.5"/>
<text text-anchor="middle" x="1194" y="-130.5" font-family="Helvetica,sans-Serif" font-size="10.00">expressionTree.ListNode</text>
</a>
</g>
</g>
<!-- Node3&#45;&gt;Node5 -->
<g id="edge6" class="edge"><title>Node3&#45;&gt;Node5</title>
<path fill="none" stroke="midnightblue" d="M1011.08,-160.933C1048.93,-155.122 1094.84,-148.072 1131.07,-142.509"/>
<polygon fill="midnightblue" stroke="midnightblue" points="1010.49,-157.482 1001.14,-162.46 1011.55,-164.401 1010.49,-157.482"/>
</g>
<!-- Node4 -->
<g id="node4" class="node"><title>Node4</title>
<polygon fill="white" stroke="#bfbfbf" points="578,-118 578,-148 748,-148 748,-118 578,-118"/>
<text text-anchor="start" x="586" y="-136" font-family="Helvetica,sans-Serif" font-size="10.00">List&lt; displayCommands.Display</text>
<text text-anchor="middle" x="663" y="-125" font-family="Helvetica,sans-Serif" font-size="10.00">Node &gt;</text>
</g>
<!-- Node4&#45;&gt;Node3 -->
<g id="edge3" class="edge"><title>Node4&#45;&gt;Node3</title>
<path fill="none" stroke="#9a32cd" stroke-dasharray="5,2" d="M758.416,-146.488C795.325,-151.761 836.784,-157.683 870.458,-162.494"/>
<polygon fill="#9a32cd" stroke="#9a32cd" points="758.531,-142.969 748.137,-145.02 757.541,-149.899 758.531,-142.969"/>
<text text-anchor="middle" x="801" y="-160" font-family="Helvetica,sans-Serif" font-size="10.00"> instructionList</text>
</g>
<!-- Node4&#45;&gt;Node5 -->
<g id="edge20" class="edge"><title>Node4&#45;&gt;Node5</title>
<path fill="none" stroke="#9a32cd" stroke-dasharray="5,2" d="M758.188,-133C864.397,-133 1034.35,-133 1127.2,-133"/>
<polygon fill="#9a32cd" stroke="#9a32cd" points="758.114,-129.5 748.114,-133 758.114,-136.5 758.114,-129.5"/>
<text text-anchor="middle" x="938" y="-136" font-family="Helvetica,sans-Serif" font-size="10.00"> myFundamentals</text>
</g>
<!-- Node6 -->
<g id="node6" class="node"><title>Node6</title>
<g id="a_node6"><a xlink:href="../../d3/dfb/classexpression_tree_1_1_expression_tree_builder.html" target="_top" xlink:title="expressionTree.Expression\lTreeBuilder">
<polygon fill="white" stroke="black" points="866.5,-62 866.5,-92 1009.5,-92 1009.5,-62 866.5,-62"/>
<text text-anchor="start" x="874.5" y="-80" font-family="Helvetica,sans-Serif" font-size="10.00">expressionTree.Expression</text>
<text text-anchor="middle" x="938" y="-69" font-family="Helvetica,sans-Serif" font-size="10.00">TreeBuilder</text>
</a>
</g>
</g>
<!-- Node4&#45;&gt;Node6 -->
<g id="edge18" class="edge"><title>Node4&#45;&gt;Node6</title>
<path fill="none" stroke="#9a32cd" stroke-dasharray="5,2" d="M732.396,-115.628C743.599,-112.958 755.104,-110.321 766,-108 798.756,-101.024 835.255,-94.2689 866.092,-88.8553"/>
<polygon fill="#9a32cd" stroke="#9a32cd" points="731.553,-112.231 722.651,-117.976 733.193,-119.036 731.553,-112.231"/>
<text text-anchor="middle" x="801" y="-111" font-family="Helvetica,sans-Serif" font-size="10.00"> outputList</text>
</g>
<!-- Node5&#45;&gt;Node1 -->
<g id="edge5" class="edge"><title>Node5&#45;&gt;Node1</title>
<path fill="none" stroke="#9a32cd" stroke-dasharray="5,2" d="M1270.84,-129.824C1312.62,-129.046 1365.32,-129.658 1412,-135 1430.45,-137.111 1450.66,-141.415 1467.24,-145.492"/>
<polygon fill="#9a32cd" stroke="#9a32cd" points="1270.66,-126.327 1260.74,-130.042 1270.82,-133.325 1270.66,-126.327"/>
<text text-anchor="middle" x="1354" y="-149" font-family="Helvetica,sans-Serif" font-size="10.00"> myCommandsListNode</text>
<text text-anchor="middle" x="1354" y="-138" font-family="Helvetica,sans-Serif" font-size="10.00">myConditionListNode</text>
</g>
<!-- Node6&#45;&gt;Node5 -->
<g id="edge7" class="edge"><title>Node6&#45;&gt;Node5</title>
<path fill="none" stroke="#9a32cd" stroke-dasharray="5,2" d="M1019.49,-92.6361C1042.91,-97.3688 1068.52,-102.717 1092,-108 1113.32,-112.797 1137.05,-118.645 1156.15,-123.478"/>
<polygon fill="#9a32cd" stroke="#9a32cd" points="1020.09,-89.1867 1009.59,-90.6475 1018.71,-96.0494 1020.09,-89.1867"/>
<text text-anchor="middle" x="1066" y="-111" font-family="Helvetica,sans-Serif" font-size="10.00"> myBuilder</text>
</g>
<!-- Node7 -->
<g id="node7" class="node"><title>Node7</title>
<g id="a_node7"><a xlink:href="../../d9/d55/classexpression_tree_1_1_expression_node_factory.html" target="_top" xlink:title="expressionTree.Expression\lNodeFactory">
<polygon fill="white" stroke="black" points="591.5,-58 591.5,-88 734.5,-88 734.5,-58 591.5,-58"/>
<text text-anchor="start" x="599.5" y="-76" font-family="Helvetica,sans-Serif" font-size="10.00">expressionTree.Expression</text>
<text text-anchor="middle" x="663" y="-65" font-family="Helvetica,sans-Serif" font-size="10.00">NodeFactory</text>
</a>
</g>
</g>
<!-- Node7&#45;&gt;Node6 -->
<g id="edge8" class="edge"><title>Node7&#45;&gt;Node6</title>
<path fill="none" stroke="#9a32cd" stroke-dasharray="5,2" d="M744.733,-73.0719C773.537,-73.2027 806.221,-73.4712 836,-74 845.822,-74.1744 856.18,-74.4161 866.37,-74.6872"/>
<polygon fill="#9a32cd" stroke="#9a32cd" points="744.731,-69.5719 734.717,-73.0312 744.703,-76.5719 744.731,-69.5719"/>
<text text-anchor="middle" x="801" y="-77" font-family="Helvetica,sans-Serif" font-size="10.00"> nodeGetter</text>
</g>
<!-- Node8 -->
<g id="node8" class="node"><title>Node8</title>
<g id="a_node8"><a xlink:href="../../d8/d36/classexpression_tree_1_1_user_function_map.html" target="_top" xlink:title="expressionTree.UserFunctionMap">
<polygon fill="white" stroke="black" points="281.5,-105.5 281.5,-124.5 454.5,-124.5 454.5,-105.5 281.5,-105.5"/>
<text text-anchor="middle" x="368" y="-112.5" font-family="Helvetica,sans-Serif" font-size="10.00">expressionTree.UserFunctionMap</text>
</a>
</g>
</g>
<!-- Node8&#45;&gt;Node7 -->
<g id="edge9" class="edge"><title>Node8&#45;&gt;Node7</title>
<path fill="none" stroke="#9a32cd" stroke-dasharray="5,2" d="M445.518,-104.032C490.654,-97.5615 547.375,-89.4309 591.433,-83.1154"/>
<polygon fill="#9a32cd" stroke="#9a32cd" points="444.888,-100.586 435.486,-105.47 445.882,-107.515 444.888,-100.586"/>
<text text-anchor="middle" x="517" y="-102" font-family="Helvetica,sans-Serif" font-size="10.00"> myUserFunctions</text>
</g>
<!-- Node8&#45;&gt;Node8 -->
<g id="edge11" class="edge"><title>Node8&#45;&gt;Node8</title>
<path fill="none" stroke="#9a32cd" stroke-dasharray="5,2" d="M340.374,-133.654C341.529,-138.937 350.738,-143 368,-143 394.305,-143 401.908,-133.565 390.811,-124.757"/>
<polygon fill="#9a32cd" stroke="#9a32cd" points="343.508,-135.218 345.189,-124.757 337.351,-131.886 343.508,-135.218"/>
<text text-anchor="middle" x="368" y="-146" font-family="Helvetica,sans-Serif" font-size="10.00"> myUserFunctionMap</text>
</g>
<!-- Node9 -->
<g id="node9" class="node"><title>Node9</title>
<polygon fill="white" stroke="#bfbfbf" points="43.5,-72.5 43.5,-91.5 114.5,-91.5 114.5,-72.5 43.5,-72.5"/>
<text text-anchor="middle" x="79" y="-79.5" font-family="Helvetica,sans-Serif" font-size="10.00">Serializable</text>
</g>
<!-- Node9&#45;&gt;Node8 -->
<g id="edge10" class="edge"><title>Node9&#45;&gt;Node8</title>
<path fill="none" stroke="midnightblue" d="M124.657,-87.1348C167.178,-92.0239 232.218,-99.5024 284.216,-105.481"/>
<polygon fill="midnightblue" stroke="midnightblue" points="124.953,-83.6459 114.619,-85.9806 124.154,-90.6 124.953,-83.6459"/>
</g>
<!-- Node11 -->
<g id="node11" class="node"><title>Node11</title>
<g id="a_node11"><a xlink:href="../../de/d4e/classexpression_tree_1_1_variable_node_map.html" target="_top" xlink:title="expressionTree.VariableNodeMap">
<polygon fill="white" stroke="black" points="280.5,-38.5 280.5,-57.5 455.5,-57.5 455.5,-38.5 280.5,-38.5"/>
<text text-anchor="middle" x="368" y="-45.5" font-family="Helvetica,sans-Serif" font-size="10.00">expressionTree.VariableNodeMap</text>
</a>
</g>
</g>
<!-- Node9&#45;&gt;Node11 -->
<g id="edge14" class="edge"><title>Node9&#45;&gt;Node11</title>
<path fill="none" stroke="midnightblue" d="M124.808,-76.6918C167.989,-71.5762 234.295,-63.7211 286.619,-57.5225"/>
<polygon fill="midnightblue" stroke="midnightblue" points="124.138,-73.2466 114.619,-77.8988 124.961,-80.198 124.138,-73.2466"/>
</g>
<!-- Node10 -->
<g id="node10" class="node"><title>Node10</title>
<polygon fill="white" stroke="#bfbfbf" points="0.5,-111 0.5,-141 157.5,-141 157.5,-111 0.5,-111"/>
<text text-anchor="start" x="8.5" y="-129" font-family="Helvetica,sans-Serif" font-size="10.00">Map&lt; String, expressionTree.</text>
<text text-anchor="middle" x="79" y="-118" font-family="Helvetica,sans-Serif" font-size="10.00">ListNode &gt;</text>
</g>
<!-- Node10&#45;&gt;Node8 -->
<g id="edge12" class="edge"><title>Node10&#45;&gt;Node8</title>
<path fill="none" stroke="#9a32cd" stroke-dasharray="5,2" d="M167.699,-122.639C203.827,-121.254 245.545,-119.655 281.447,-118.279"/>
<polygon fill="#9a32cd" stroke="#9a32cd" points="167.525,-119.143 157.666,-123.023 167.793,-126.138 167.525,-119.143"/>
<text text-anchor="middle" x="219" y="-126" font-family="Helvetica,sans-Serif" font-size="10.00"> userFunctionMap</text>
</g>
<!-- Node11&#45;&gt;Node7 -->
<g id="edge13" class="edge"><title>Node11&#45;&gt;Node7</title>
<path fill="none" stroke="#9a32cd" stroke-dasharray="5,2" d="M465.729,-56.2534C506.713,-59.7503 553.595,-63.7504 591.26,-66.9641"/>
<polygon fill="#9a32cd" stroke="#9a32cd" points="465.982,-52.7623 455.72,-55.3994 465.387,-59.7369 465.982,-52.7623"/>
<text text-anchor="middle" x="517" y="-68" font-family="Helvetica,sans-Serif" font-size="10.00"> myVariables</text>
</g>
<!-- Node11&#45;&gt;Node11 -->
<g id="edge16" class="edge"><title>Node11&#45;&gt;Node11</title>
<path fill="none" stroke="#9a32cd" stroke-dasharray="5,2" d="M340.374,-66.6539C341.529,-71.9368 350.738,-76 368,-76 394.305,-76 401.908,-66.5653 390.811,-57.7571"/>
<polygon fill="#9a32cd" stroke="#9a32cd" points="343.508,-68.2176 345.189,-57.7571 337.351,-64.886 343.508,-68.2176"/>
<text text-anchor="middle" x="368" y="-79" font-family="Helvetica,sans-Serif" font-size="10.00"> myVariableNodeMap</text>
</g>
<!-- Node12 -->
<g id="node12" class="node"><title>Node12</title>
<polygon fill="white" stroke="#bfbfbf" points="0.5,-23 0.5,-53 157.5,-53 157.5,-23 0.5,-23"/>
<text text-anchor="start" x="8.5" y="-41" font-family="Helvetica,sans-Serif" font-size="10.00">Map&lt; String, expressionTree.</text>
<text text-anchor="middle" x="79" y="-30" font-family="Helvetica,sans-Serif" font-size="10.00">VariableNode &gt;</text>
</g>
<!-- Node12&#45;&gt;Node11 -->
<g id="edge15" class="edge"><title>Node12&#45;&gt;Node11</title>
<path fill="none" stroke="#9a32cd" stroke-dasharray="5,2" d="M167.531,-37.8095C197.499,-38.0505 231.226,-38.66 262,-40 267.936,-40.2585 274.057,-40.5803 280.221,-40.9451"/>
<polygon fill="#9a32cd" stroke="#9a32cd" points="167.545,-34.3096 157.521,-37.7414 167.497,-41.3094 167.545,-34.3096"/>
<text text-anchor="middle" x="219" y="-43" font-family="Helvetica,sans-Serif" font-size="10.00"> variableMap</text>
</g>
<!-- Node13 -->
<g id="node13" class="node"><title>Node13</title>
<polygon fill="white" stroke="#bfbfbf" points="578,-0 578,-30 748,-30 748,-0 578,-0"/>
<text text-anchor="start" x="586" y="-18" font-family="Helvetica,sans-Serif" font-size="10.00">List&lt; expressionTree.Expression</text>
<text text-anchor="middle" x="663" y="-7" font-family="Helvetica,sans-Serif" font-size="10.00">Node &gt;</text>
</g>
<!-- Node13&#45;&gt;Node5 -->
<g id="edge19" class="edge"><title>Node13&#45;&gt;Node5</title>
<path fill="none" stroke="#9a32cd" stroke-dasharray="5,2" d="M758.354,-11.1938C831.663,-10.763 935.134,-15.7345 1022,-41 1085.45,-59.4533 1151.98,-103.579 1179.68,-123.249"/>
<polygon fill="#9a32cd" stroke="#9a32cd" points="758.181,-7.69514 748.214,-11.2889 758.247,-14.6948 758.181,-7.69514"/>
<text text-anchor="middle" x="938" y="-44" font-family="Helvetica,sans-Serif" font-size="10.00"> allMyChildren</text>
</g>
<!-- Node13&#45;&gt;Node6 -->
<g id="edge17" class="edge"><title>Node13&#45;&gt;Node6</title>
<path fill="none" stroke="#9a32cd" stroke-dasharray="5,2" d="M740.03,-32.267C781.031,-41.5784 831.154,-52.9617 870.577,-61.9149"/>
<polygon fill="#9a32cd" stroke="#9a32cd" points="740.613,-28.8101 730.086,-30.0085 739.062,-35.6363 740.613,-28.8101"/>
<text text-anchor="middle" x="801" y="-57" font-family="Helvetica,sans-Serif" font-size="10.00"> nodeList</text>
</g>
</g>
</svg>
