<?xml version="1.0" encoding="UTF-8" standalone="no"?>
<!DOCTYPE svg PUBLIC "-//W3C//DTD SVG 1.1//EN"
 "http://www.w3.org/Graphics/SVG/1.1/DTD/svg11.dtd">
<!-- Generated by graphviz version 2.36.0 (20140111.2315)
 -->
<!-- Title: expressionTree.ExpressionNodeFactory.getAllNodes Pages: 1 -->
<!--zoomable 139 -->
<svg id="main" version="1.1" xmlns="http://www.w3.org/2000/svg" xmlns:xlink="http://www.w3.org/1999/xlink" xml:space="preserve" onload="init(evt)">
<style type="text/css"><![CDATA[
.edge:hover path { stroke: red; }
.edge:hover polygon { stroke: red; fill: red; }
]]></style>
<script type="text/javascript"><![CDATA[
var edges = document.getElementsByTagName('g');
if (edges && edges.length) {
  for (var i=0;i<edges.length;i++) {
    if (edges[i].id.substr(0,4)=='edge') {
      edges[i].setAttribute('class','edge');
    }
  }
}
]]></script>
        <defs>
                <circle id="rim" cx="0" cy="0" r="7"/>
                <circle id="rim2" cx="0" cy="0" r="3.5"/>
                <g id="zoomPlus">
                        <use xlink:href="#rim" fill="#404040">
                                <set attributeName="fill" to="#808080" begin="zoomplus.mouseover" end="zoomplus.mouseout"/>
                        </use>
                        <path d="M-4,0h8M0,-4v8" fill="none" stroke="white" stroke-width="1.5" pointer-events="none"/>
                </g>
                <g id="zoomMin">
                        <use xlink:href="#rim" fill="#404040">
                                <set attributeName="fill" to="#808080" begin="zoomminus.mouseover" end="zoomminus.mouseout"/>
                        </use>
                        <path d="M-4,0h8" fill="none" stroke="white" stroke-width="1.5" pointer-events="none"/>
                </g>
                <g id="dirArrow">
                        <path fill="none" stroke="white" stroke-width="1.5" d="M0,-3.0v7 M-2.5,-0.5L0,-3.0L2.5,-0.5"/>
                </g>
               <g id="resetDef">
                       <use xlink:href="#rim2" fill="#404040">
                               <set attributeName="fill" to="#808080" begin="reset.mouseover" end="reset.mouseout"/>
                       </use>
               </g>
        </defs>

<script type="text/javascript">
var viewWidth = 964;
var viewHeight = 139;
var sectionId = 'dynsection-3';
</script>
<script xlink:href="../../svgpan.js"/>
<svg id="graph" class="graph">
<g id="viewport">
<title>expressionTree.ExpressionNodeFactory.getAllNodes</title>
<polygon fill="white" stroke="none" points="-4,4 -4,-135 960,-135 960,4 -4,4"/>
<!-- Node1 -->
<g id="node1" class="node"><title>Node1</title>
<polygon fill="#bfbfbf" stroke="black" points="0.5,-71 0.5,-101 143.5,-101 143.5,-71 0.5,-71"/>
<text text-anchor="start" x="8.5" y="-89" font-family="Helvetica,sans-Serif" font-size="10.00">expressionTree.Expression</text>
<text text-anchor="middle" x="72" y="-78" font-family="Helvetica,sans-Serif" font-size="10.00">NodeFactory.getAllNodes</text>
</g>
<!-- Node2 -->
<g id="node2" class="node"><title>Node2</title>
<g id="a_node2"><a xlink:href="../../d9/de6/classexpression_tree_1_1_list_node.html#a2370fd631bd484e0178fc759df927b46" target="_top" xlink:title="expressionTree.ListNode.add">
<polygon fill="white" stroke="black" points="180,-98.5 180,-117.5 334,-117.5 334,-98.5 180,-98.5"/>
<text text-anchor="middle" x="257" y="-105.5" font-family="Helvetica,sans-Serif" font-size="10.00">expressionTree.ListNode.add</text>
</a>
</g>
</g>
<!-- Node1&#45;&gt;Node2 -->
<g id="edge1" class="edge"><title>Node1&#45;&gt;Node2</title>
<path fill="none" stroke="midnightblue" d="M143.753,-94.5058C152.283,-95.5313 161.067,-96.5873 169.787,-97.6356"/>
<polygon fill="midnightblue" stroke="midnightblue" points="169.629,-101.142 179.975,-98.8604 170.464,-94.1917 169.629,-101.142"/>
</g>
<!-- Node3 -->
<g id="node3" class="node"><title>Node3</title>
<g id="a_node3"><a xlink:href="../../d9/d55/classexpression_tree_1_1_expression_node_factory.html#a73b0e0bd339ff858fcb0c2daf891cc59" target="_top" xlink:title="expressionTree.Expression\lNodeFactory.getNode">
<polygon fill="white" stroke="black" points="185.5,-49 185.5,-79 328.5,-79 328.5,-49 185.5,-49"/>
<text text-anchor="start" x="193.5" y="-67" font-family="Helvetica,sans-Serif" font-size="10.00">expressionTree.Expression</text>
<text text-anchor="middle" x="257" y="-56" font-family="Helvetica,sans-Serif" font-size="10.00">NodeFactory.getNode</text>
</a>
</g>
</g>
<!-- Node1&#45;&gt;Node3 -->
<g id="edge2" class="edge"><title>Node1&#45;&gt;Node3</title>
<path fill="none" stroke="midnightblue" d="M143.753,-77.4942C154.118,-76.2481 164.859,-74.9568 175.404,-73.6891"/>
<polygon fill="midnightblue" stroke="midnightblue" points="175.925,-77.1518 185.436,-72.4832 175.089,-70.2019 175.925,-77.1518"/>
</g>
<!-- Node4 -->
<g id="node4" class="node"><title>Node4</title>
<g id="a_node4"><a xlink:href="../../d9/d55/classexpression_tree_1_1_expression_node_factory.html#a86a92afa63db312f07027af114f3d663" target="_top" xlink:title="expressionTree.Expression\lNodeFactory.variableHandler">
<polygon fill="white" stroke="black" points="375.5,-99 375.5,-129 528.5,-129 528.5,-99 375.5,-99"/>
<text text-anchor="start" x="383.5" y="-117" font-family="Helvetica,sans-Serif" font-size="10.00">expressionTree.Expression</text>
<text text-anchor="middle" x="452" y="-106" font-family="Helvetica,sans-Serif" font-size="10.00">NodeFactory.variableHandler</text>
</a>
</g>
</g>
<!-- Node3&#45;&gt;Node4 -->
<g id="edge3" class="edge"><title>Node3&#45;&gt;Node4</title>
<path fill="none" stroke="midnightblue" d="M315.906,-79.0016C336.993,-84.4646 361.024,-90.6901 382.913,-96.3609"/>
<polygon fill="midnightblue" stroke="midnightblue" points="382.243,-99.8028 392.801,-98.9226 383.999,-93.0265 382.243,-99.8028"/>
</g>
<!-- Node7 -->
<g id="node7" class="node"><title>Node7</title>
<g id="a_node7"><a xlink:href="../../d9/d55/classexpression_tree_1_1_expression_node_factory.html#ae3e414f8f49e18daa55822e37ea3bb54" target="_top" xlink:title="expressionTree.Expression\lNodeFactory.commandHandler">
<polygon fill="white" stroke="black" points="370,-49 370,-79 534,-79 534,-49 370,-49"/>
<text text-anchor="start" x="378" y="-67" font-family="Helvetica,sans-Serif" font-size="10.00">expressionTree.Expression</text>
<text text-anchor="middle" x="452" y="-56" font-family="Helvetica,sans-Serif" font-size="10.00">NodeFactory.commandHandler</text>
</a>
</g>
</g>
<!-- Node3&#45;&gt;Node7 -->
<g id="edge6" class="edge"><title>Node3&#45;&gt;Node7</title>
<path fill="none" stroke="midnightblue" d="M328.77,-64C338.775,-64 349.179,-64 359.505,-64"/>
<polygon fill="midnightblue" stroke="midnightblue" points="359.789,-67.5001 369.789,-64 359.789,-60.5001 359.789,-67.5001"/>
</g>
<!-- Node11 -->
<g id="node11" class="node"><title>Node11</title>
<g id="a_node11"><a xlink:href="../../db/da5/classexpression_tree_1_1_expression_node.html#af54cab1e99fb9ffaa4c0a45dab10c8eb" target="_top" xlink:title="expressionTree.Expression\lNode.setValue">
<polygon fill="white" stroke="black" points="380.5,-0 380.5,-30 523.5,-30 523.5,-0 380.5,-0"/>
<text text-anchor="start" x="388.5" y="-18" font-family="Helvetica,sans-Serif" font-size="10.00">expressionTree.Expression</text>
<text text-anchor="middle" x="452" y="-7" font-family="Helvetica,sans-Serif" font-size="10.00">Node.setValue</text>
</a>
</g>
</g>
<!-- Node3&#45;&gt;Node11 -->
<g id="edge10" class="edge"><title>Node3&#45;&gt;Node11</title>
<path fill="none" stroke="midnightblue" d="M317.218,-48.9654C337.689,-43.7682 360.804,-37.8994 381.991,-32.5204"/>
<polygon fill="midnightblue" stroke="midnightblue" points="383.063,-35.8594 391.894,-30.0062 381.34,-29.0747 383.063,-35.8594"/>
</g>
<!-- Node5 -->
<g id="node5" class="node"><title>Node5</title>
<g id="a_node5"><a xlink:href="../../de/d4e/classexpression_tree_1_1_variable_node_map.html#a4855134d1fd875836c2c9944ec2079f4" target="_top" xlink:title="expressionTree.VariableNode\lMap.getVariable">
<polygon fill="white" stroke="black" points="589.5,-101 589.5,-131 744.5,-131 744.5,-101 589.5,-101"/>
<text text-anchor="start" x="597.5" y="-119" font-family="Helvetica,sans-Serif" font-size="10.00">expressionTree.VariableNode</text>
<text text-anchor="middle" x="667" y="-108" font-family="Helvetica,sans-Serif" font-size="10.00">Map.getVariable</text>
</a>
</g>
</g>
<!-- Node4&#45;&gt;Node5 -->
<g id="edge4" class="edge"><title>Node4&#45;&gt;Node5</title>
<path fill="none" stroke="midnightblue" d="M528.696,-114.711C545.034,-114.864 562.431,-115.028 579.158,-115.185"/>
<polygon fill="midnightblue" stroke="midnightblue" points="579.439,-118.687 589.471,-115.281 579.505,-111.688 579.439,-118.687"/>
</g>
<!-- Node6 -->
<g id="node6" class="node"><title>Node6</title>
<g id="a_node6"><a xlink:href="../../de/d4e/classexpression_tree_1_1_variable_node_map.html#aa39aa781cc2fe52784af8657407974ce" target="_top" xlink:title="expressionTree.VariableNode\lMap.addVariable">
<polygon fill="white" stroke="black" points="800.5,-101 800.5,-131 955.5,-131 955.5,-101 800.5,-101"/>
<text text-anchor="start" x="808.5" y="-119" font-family="Helvetica,sans-Serif" font-size="10.00">expressionTree.VariableNode</text>
<text text-anchor="middle" x="878" y="-108" font-family="Helvetica,sans-Serif" font-size="10.00">Map.addVariable</text>
</a>
</g>
</g>
<!-- Node5&#45;&gt;Node6 -->
<g id="edge5" class="edge"><title>Node5&#45;&gt;Node6</title>
<path fill="none" stroke="midnightblue" d="M744.637,-116C759.404,-116 774.971,-116 790.037,-116"/>
<polygon fill="midnightblue" stroke="midnightblue" points="790.372,-119.5 800.372,-116 790.372,-112.5 790.372,-119.5"/>
</g>
<!-- Node8 -->
<g id="node8" class="node"><title>Node8</title>
<g id="a_node8"><a xlink:href="../../d9/d55/classexpression_tree_1_1_expression_node_factory.html#a0d40846816e28787c5fbf6d6ef21a534" target="_top" xlink:title="expressionTree.Expression\lNodeFactory.unrecognizedCommand\lHandler">
<polygon fill="white" stroke="black" points="570.5,-41.5 570.5,-82.5 763.5,-82.5 763.5,-41.5 570.5,-41.5"/>
<text text-anchor="start" x="578.5" y="-70.5" font-family="Helvetica,sans-Serif" font-size="10.00">expressionTree.Expression</text>
<text text-anchor="start" x="578.5" y="-59.5" font-family="Helvetica,sans-Serif" font-size="10.00">NodeFactory.unrecognizedCommand</text>
<text text-anchor="middle" x="667" y="-48.5" font-family="Helvetica,sans-Serif" font-size="10.00">Handler</text>
</a>
</g>
</g>
<!-- Node7&#45;&gt;Node8 -->
<g id="edge7" class="edge"><title>Node7&#45;&gt;Node8</title>
<path fill="none" stroke="midnightblue" d="M534.134,-63.2382C542.668,-63.158 551.434,-63.0757 560.193,-62.9935"/>
<polygon fill="midnightblue" stroke="midnightblue" points="560.491,-66.4909 570.458,-62.8971 560.426,-59.4913 560.491,-66.4909"/>
</g>
<!-- Node9 -->
<g id="node9" class="node"><title>Node9</title>
<g id="a_node9"><a xlink:href="../../d8/d36/classexpression_tree_1_1_user_function_map.html#a8a31726e8de991ba254e91fdee171e5b" target="_top" xlink:title="expressionTree.UserFunction\lMap.contains">
<polygon fill="white" stroke="black" points="801.5,-50 801.5,-80 954.5,-80 954.5,-50 801.5,-50"/>
<text text-anchor="start" x="809.5" y="-68" font-family="Helvetica,sans-Serif" font-size="10.00">expressionTree.UserFunction</text>
<text text-anchor="middle" x="878" y="-57" font-family="Helvetica,sans-Serif" font-size="10.00">Map.contains</text>
</a>
</g>
</g>
<!-- Node8&#45;&gt;Node9 -->
<g id="edge8" class="edge"><title>Node8&#45;&gt;Node9</title>
<path fill="none" stroke="midnightblue" d="M763.631,-63.3727C772.846,-63.505 782.154,-63.6386 791.265,-63.7694"/>
<polygon fill="midnightblue" stroke="midnightblue" points="791.403,-67.2716 801.453,-63.9156 791.504,-60.2723 791.403,-67.2716"/>
</g>
<!-- Node10 -->
<g id="node10" class="node"><title>Node10</title>
<g id="a_node10"><a xlink:href="../../d8/d36/classexpression_tree_1_1_user_function_map.html#a6ce2341adbcd5596710a90f96fd9e8dc" target="_top" xlink:title="expressionTree.UserFunction\lMap.getFunction">
<polygon fill="white" stroke="black" points="801.5,-1 801.5,-31 954.5,-31 954.5,-1 801.5,-1"/>
<text text-anchor="start" x="809.5" y="-19" font-family="Helvetica,sans-Serif" font-size="10.00">expressionTree.UserFunction</text>
<text text-anchor="middle" x="878" y="-8" font-family="Helvetica,sans-Serif" font-size="10.00">Map.getFunction</text>
</a>
</g>
</g>
<!-- Node8&#45;&gt;Node10 -->
<g id="edge9" class="edge"><title>Node8&#45;&gt;Node10</title>
<path fill="none" stroke="midnightblue" d="M761.192,-41.4888C773.693,-38.7374 786.413,-35.9378 798.624,-33.2502"/>
<polygon fill="midnightblue" stroke="midnightblue" points="799.732,-36.5902 808.746,-31.0225 798.227,-29.7539 799.732,-36.5902"/>
</g>
</g>
</svg>
        <g id="navigator" transform="translate(0 0)" fill="#404254">
                <rect fill="#f2f5e9" fill-opacity="0.5" stroke="#606060" stroke-width=".5" x="0" y="0" width="60" height="60"/>
                <use id="zoomplus" xlink:href="#zoomPlus" x="17" y="9" onmousedown="handleZoom(evt,'in')"/>
                <use id="zoomminus" xlink:href="#zoomMin" x="42" y="9" onmousedown="handleZoom(evt,'out')"/>
                <use id="reset" xlink:href="#resetDef" x="30" y="36" onmousedown="handleReset()"/>
                <g id="arrowUp" xlink:href="#dirArrow" transform="translate(30 24)" onmousedown="handlePan(0,-1)">
                  <use xlink:href="#rim" fill="#404040">
                        <set attributeName="fill" to="#808080" begin="arrowUp.mouseover" end="arrowUp.mouseout"/>
                  </use>
                  <path fill="none" stroke="white" stroke-width="1.5" d="M0,-3.0v7 M-2.5,-0.5L0,-3.0L2.5,-0.5"/>
                </g>
                <g id="arrowRight" xlink:href="#dirArrow" transform="rotate(90) translate(36 -43)" onmousedown="handlePan(1,0)">
                  <use xlink:href="#rim" fill="#404040">
                        <set attributeName="fill" to="#808080" begin="arrowRight.mouseover" end="arrowRight.mouseout"/>
                  </use>
                  <path fill="none" stroke="white" stroke-width="1.5" d="M0,-3.0v7 M-2.5,-0.5L0,-3.0L2.5,-0.5"/>
                </g>
                <g id="arrowDown" xlink:href="#dirArrow" transform="rotate(180) translate(-30 -48)" onmousedown="handlePan(0,1)">
                  <use xlink:href="#rim" fill="#404040">
                        <set attributeName="fill" to="#808080" begin="arrowDown.mouseover" end="arrowDown.mouseout"/>
                  </use>
                  <path fill="none" stroke="white" stroke-width="1.5" d="M0,-3.0v7 M-2.5,-0.5L0,-3.0L2.5,-0.5"/>
                </g>
                <g id="arrowLeft" xlink:href="#dirArrow" transform="rotate(270) translate(-36 17)" onmousedown="handlePan(-1,0)">
                  <use xlink:href="#rim" fill="#404040">
                        <set attributeName="fill" to="#808080" begin="arrowLeft.mouseover" end="arrowLeft.mouseout"/>
                  </use>
                  <path fill="none" stroke="white" stroke-width="1.5" d="M0,-3.0v7 M-2.5,-0.5L0,-3.0L2.5,-0.5"/>
                </g>
        </g>
        <svg viewBox="0 0 15 15" width="100%" height="30px" preserveAspectRatio="xMaxYMin meet">
         <g id="arrow_out" transform="scale(0.3 0.3)">
          <a xlink:href="classexpression_tree_1_1_expression_node_factory_ac3b2de675f1754dfd61694de51553631_cgraph_org.svg" target="_base">
           <rect id="button" ry="5" rx="5" y="6" x="6" height="38" width="38"
                fill="#f2f5e9" fill-opacity="0.5" stroke="#606060" stroke-width="1.0"/>
           <path id="arrow"
             d="M 11.500037,31.436501 C 11.940474,20.09759 22.043105,11.32322 32.158766,21.979434 L 37.068811,17.246167 C 37.068811,17.246167 37.088388,32 37.088388,32 L 22.160133,31.978069 C 22.160133,31.978069 26.997745,27.140456 26.997745,27.140456 C 18.528582,18.264221 13.291696,25.230495 11.500037,31.436501 z"
             style="fill:#404040;"/>
          </a>
         </g>
        </svg>
</svg>
