<?xml version="1.0" encoding="UTF-8" standalone="no"?>
<!DOCTYPE svg PUBLIC "-//W3C//DTD SVG 1.1//EN"
 "http://www.w3.org/Graphics/SVG/1.1/DTD/svg11.dtd">
<!-- Generated by graphviz version 2.36.0 (20140111.2315)
 -->
<!-- Title: expressionTree.ExpressionNodeFactory.getNode Pages: 1 -->
<svg width="774pt" height="160pt"
 viewBox="0.00 0.00 774.00 160.00" xmlns="http://www.w3.org/2000/svg" xmlns:xlink="http://www.w3.org/1999/xlink">
<g id="graph0" class="graph" transform="scale(1 1) rotate(0) translate(4 156)">
<title>expressionTree.ExpressionNodeFactory.getNode</title>
<polygon fill="white" stroke="none" points="-4,4 -4,-156 770,-156 770,4 -4,4"/>
<!-- Node1 -->
<g id="node1" class="node"><title>Node1</title>
<polygon fill="#bfbfbf" stroke="black" points="0.5,-49 0.5,-79 143.5,-79 143.5,-49 0.5,-49"/>
<text text-anchor="start" x="8.5" y="-67" font-family="Helvetica,sans-Serif" font-size="10.00">expressionTree.Expression</text>
<text text-anchor="middle" x="72" y="-56" font-family="Helvetica,sans-Serif" font-size="10.00">NodeFactory.getNode</text>
</g>
<!-- Node2 -->
<g id="node2" class="node"><title>Node2</title>
<g id="a_node2"><a xlink:href="../../d9/d55/classexpression_tree_1_1_expression_node_factory.html#ae3e414f8f49e18daa55822e37ea3bb54" target="_top" xlink:title="expressionTree.Expression\lNodeFactory.commandHandler">
<polygon fill="white" stroke="black" points="180,-98 180,-128 344,-128 344,-98 180,-98"/>
<text text-anchor="start" x="188" y="-116" font-family="Helvetica,sans-Serif" font-size="10.00">expressionTree.Expression</text>
<text text-anchor="middle" x="262" y="-105" font-family="Helvetica,sans-Serif" font-size="10.00">NodeFactory.commandHandler</text>
</a>
</g>
</g>
<!-- Node1&#45;&gt;Node2 -->
<g id="edge1" class="edge"><title>Node1&#45;&gt;Node2</title>
<path fill="none" stroke="midnightblue" d="M130.684,-79.0346C150.534,-84.2083 172.937,-90.0475 193.499,-95.4066"/>
<polygon fill="midnightblue" stroke="midnightblue" points="192.866,-98.8585 203.425,-97.9938 194.631,-92.0848 192.866,-98.8585"/>
</g>
<!-- Node6 -->
<g id="node6" class="node"><title>Node6</title>
<g id="a_node6"><a xlink:href="../../db/da5/classexpression_tree_1_1_expression_node.html#af54cab1e99fb9ffaa4c0a45dab10c8eb" target="_top" xlink:title="expressionTree.Expression\lNode.setValue">
<polygon fill="white" stroke="black" points="190.5,-49 190.5,-79 333.5,-79 333.5,-49 190.5,-49"/>
<text text-anchor="start" x="198.5" y="-67" font-family="Helvetica,sans-Serif" font-size="10.00">expressionTree.Expression</text>
<text text-anchor="middle" x="262" y="-56" font-family="Helvetica,sans-Serif" font-size="10.00">Node.setValue</text>
</a>
</g>
</g>
<!-- Node1&#45;&gt;Node6 -->
<g id="edge5" class="edge"><title>Node1&#45;&gt;Node6</title>
<path fill="none" stroke="midnightblue" d="M143.539,-64C155.505,-64 168.012,-64 180.217,-64"/>
<polygon fill="midnightblue" stroke="midnightblue" points="180.378,-67.5001 190.378,-64 180.378,-60.5001 180.378,-67.5001"/>
</g>
<!-- Node7 -->
<g id="node7" class="node"><title>Node7</title>
<g id="a_node7"><a xlink:href="../../d9/d55/classexpression_tree_1_1_expression_node_factory.html#a86a92afa63db312f07027af114f3d663" target="_top" xlink:title="expressionTree.Expression\lNodeFactory.variableHandler">
<polygon fill="white" stroke="black" points="185.5,-0 185.5,-30 338.5,-30 338.5,-0 185.5,-0"/>
<text text-anchor="start" x="193.5" y="-18" font-family="Helvetica,sans-Serif" font-size="10.00">expressionTree.Expression</text>
<text text-anchor="middle" x="262" y="-7" font-family="Helvetica,sans-Serif" font-size="10.00">NodeFactory.variableHandler</text>
</a>
</g>
</g>
<!-- Node1&#45;&gt;Node7 -->
<g id="edge6" class="edge"><title>Node1&#45;&gt;Node7</title>
<path fill="none" stroke="midnightblue" d="M130.684,-48.9654C150.534,-43.7917 172.937,-37.9525 193.499,-32.5934"/>
<polygon fill="midnightblue" stroke="midnightblue" points="194.631,-35.9152 203.425,-30.0062 192.866,-29.1415 194.631,-35.9152"/>
</g>
<!-- Node3 -->
<g id="node3" class="node"><title>Node3</title>
<g id="a_node3"><a xlink:href="../../d9/d55/classexpression_tree_1_1_expression_node_factory.html#a0d40846816e28787c5fbf6d6ef21a534" target="_top" xlink:title="expressionTree.Expression\lNodeFactory.unrecognizedCommand\lHandler">
<polygon fill="white" stroke="black" points="380.5,-92.5 380.5,-133.5 573.5,-133.5 573.5,-92.5 380.5,-92.5"/>
<text text-anchor="start" x="388.5" y="-121.5" font-family="Helvetica,sans-Serif" font-size="10.00">expressionTree.Expression</text>
<text text-anchor="start" x="388.5" y="-110.5" font-family="Helvetica,sans-Serif" font-size="10.00">NodeFactory.unrecognizedCommand</text>
<text text-anchor="middle" x="477" y="-99.5" font-family="Helvetica,sans-Serif" font-size="10.00">Handler</text>
</a>
</g>
</g>
<!-- Node2&#45;&gt;Node3 -->
<g id="edge2" class="edge"><title>Node2&#45;&gt;Node3</title>
<path fill="none" stroke="midnightblue" d="M344.134,-113C352.668,-113 361.434,-113 370.193,-113"/>
<polygon fill="midnightblue" stroke="midnightblue" points="370.458,-116.5 380.458,-113 370.458,-109.5 370.458,-116.5"/>
</g>
<!-- Node4 -->
<g id="node4" class="node"><title>Node4</title>
<g id="a_node4"><a xlink:href="../../d8/d36/classexpression_tree_1_1_user_function_map.html#a8a31726e8de991ba254e91fdee171e5b" target="_top" xlink:title="expressionTree.UserFunction\lMap.contains">
<polygon fill="white" stroke="black" points="611.5,-122 611.5,-152 764.5,-152 764.5,-122 611.5,-122"/>
<text text-anchor="start" x="619.5" y="-140" font-family="Helvetica,sans-Serif" font-size="10.00">expressionTree.UserFunction</text>
<text text-anchor="middle" x="688" y="-129" font-family="Helvetica,sans-Serif" font-size="10.00">Map.contains</text>
</a>
</g>
</g>
<!-- Node3&#45;&gt;Node4 -->
<g id="edge3" class="edge"><title>Node3&#45;&gt;Node4</title>
<path fill="none" stroke="midnightblue" d="M573.631,-123.982C582.846,-125.04 592.154,-126.109 601.265,-127.155"/>
<polygon fill="midnightblue" stroke="midnightblue" points="601.119,-130.661 611.453,-128.325 601.917,-123.707 601.119,-130.661"/>
</g>
<!-- Node5 -->
<g id="node5" class="node"><title>Node5</title>
<g id="a_node5"><a xlink:href="../../d8/d36/classexpression_tree_1_1_user_function_map.html#a6ce2341adbcd5596710a90f96fd9e8dc" target="_top" xlink:title="expressionTree.UserFunction\lMap.getFunction">
<polygon fill="white" stroke="black" points="611.5,-73 611.5,-103 764.5,-103 764.5,-73 611.5,-73"/>
<text text-anchor="start" x="619.5" y="-91" font-family="Helvetica,sans-Serif" font-size="10.00">expressionTree.UserFunction</text>
<text text-anchor="middle" x="688" y="-80" font-family="Helvetica,sans-Serif" font-size="10.00">Map.getFunction</text>
</a>
</g>
</g>
<!-- Node3&#45;&gt;Node5 -->
<g id="edge4" class="edge"><title>Node3&#45;&gt;Node5</title>
<path fill="none" stroke="midnightblue" d="M573.631,-101.561C582.846,-100.459 592.154,-99.3452 601.265,-98.2554"/>
<polygon fill="midnightblue" stroke="midnightblue" points="601.939,-101.7 611.453,-97.0368 601.108,-94.7493 601.939,-101.7"/>
</g>
<!-- Node8 -->
<g id="node8" class="node"><title>Node8</title>
<g id="a_node8"><a xlink:href="../../de/d4e/classexpression_tree_1_1_variable_node_map.html#a4855134d1fd875836c2c9944ec2079f4" target="_top" xlink:title="expressionTree.VariableNode\lMap.getVariable">
<polygon fill="white" stroke="black" points="399.5,-0 399.5,-30 554.5,-30 554.5,-0 399.5,-0"/>
<text text-anchor="start" x="407.5" y="-18" font-family="Helvetica,sans-Serif" font-size="10.00">expressionTree.VariableNode</text>
<text text-anchor="middle" x="477" y="-7" font-family="Helvetica,sans-Serif" font-size="10.00">Map.getVariable</text>
</a>
</g>
</g>
<!-- Node7&#45;&gt;Node8 -->
<g id="edge7" class="edge"><title>Node7&#45;&gt;Node8</title>
<path fill="none" stroke="midnightblue" d="M338.696,-15C355.034,-15 372.431,-15 389.158,-15"/>
<polygon fill="midnightblue" stroke="midnightblue" points="389.471,-18.5001 399.471,-15 389.471,-11.5001 389.471,-18.5001"/>
</g>
<!-- Node9 -->
<g id="node9" class="node"><title>Node9</title>
<g id="a_node9"><a xlink:href="../../de/d4e/classexpression_tree_1_1_variable_node_map.html#aa39aa781cc2fe52784af8657407974ce" target="_top" xlink:title="expressionTree.VariableNode\lMap.addVariable">
<polygon fill="white" stroke="black" points="610.5,-0 610.5,-30 765.5,-30 765.5,-0 610.5,-0"/>
<text text-anchor="start" x="618.5" y="-18" font-family="Helvetica,sans-Serif" font-size="10.00">expressionTree.VariableNode</text>
<text text-anchor="middle" x="688" y="-7" font-family="Helvetica,sans-Serif" font-size="10.00">Map.addVariable</text>
</a>
</g>
</g>
<!-- Node8&#45;&gt;Node9 -->
<g id="edge8" class="edge"><title>Node8&#45;&gt;Node9</title>
<path fill="none" stroke="midnightblue" d="M554.637,-15C569.404,-15 584.971,-15 600.037,-15"/>
<polygon fill="midnightblue" stroke="midnightblue" points="600.372,-18.5001 610.372,-15 600.372,-11.5001 600.372,-18.5001"/>
</g>
</g>
</svg>
