<?xml version="1.0" encoding="UTF-8" standalone="no"?>
<!DOCTYPE svg PUBLIC "-//W3C//DTD SVG 1.1//EN"
 "http://www.w3.org/Graphics/SVG/1.1/DTD/svg11.dtd">
<!-- Generated by graphviz version 2.36.0 (20140111.2315)
 -->
<!-- Title: expressionTree.ExpressionNodeFactory.commandHandler Pages: 1 -->
<svg width="744pt" height="38pt"
 viewBox="0.00 0.00 744.00 38.00" xmlns="http://www.w3.org/2000/svg" xmlns:xlink="http://www.w3.org/1999/xlink">
<g id="graph0" class="graph" transform="scale(1 1) rotate(0) translate(4 34)">
<title>expressionTree.ExpressionNodeFactory.commandHandler</title>
<polygon fill="white" stroke="none" points="-4,4 -4,-34 740,-34 740,4 -4,4"/>
<!-- Node1 -->
<g id="node1" class="node"><title>Node1</title>
<polygon fill="#bfbfbf" stroke="black" points="0,-0 0,-30 164,-30 164,-0 0,-0"/>
<text text-anchor="start" x="8" y="-18" font-family="Helvetica,sans-Serif" font-size="10.00">expressionTree.Expression</text>
<text text-anchor="middle" x="82" y="-7" font-family="Helvetica,sans-Serif" font-size="10.00">NodeFactory.commandHandler</text>
</g>
<!-- Node2 -->
<g id="node2" class="node"><title>Node2</title>
<g id="a_node2"><a xlink:href="../../d9/d55/classexpression_tree_1_1_expression_node_factory.html#a73b0e0bd339ff858fcb0c2daf891cc59" target="_top" xlink:title="expressionTree.Expression\lNodeFactory.getNode">
<polygon fill="white" stroke="black" points="200.5,-0 200.5,-30 343.5,-30 343.5,-0 200.5,-0"/>
<text text-anchor="start" x="208.5" y="-18" font-family="Helvetica,sans-Serif" font-size="10.00">expressionTree.Expression</text>
<text text-anchor="middle" x="272" y="-7" font-family="Helvetica,sans-Serif" font-size="10.00">NodeFactory.getNode</text>
</a>
</g>
</g>
<!-- Node1&#45;&gt;Node2 -->
<g id="edge1" class="edge"><title>Node1&#45;&gt;Node2</title>
<path fill="none" stroke="midnightblue" d="M174.289,-15C183.002,-15 191.746,-15 200.222,-15"/>
<polygon fill="midnightblue" stroke="midnightblue" points="174.093,-11.5001 164.093,-15 174.093,-18.5001 174.093,-11.5001"/>
</g>
<!-- Node3 -->
<g id="node3" class="node"><title>Node3</title>
<g id="a_node3"><a xlink:href="../../d9/d55/classexpression_tree_1_1_expression_node_factory.html#ac3b2de675f1754dfd61694de51553631" target="_top" xlink:title="expressionTree.Expression\lNodeFactory.getAllNodes">
<polygon fill="white" stroke="black" points="380.5,-0 380.5,-30 523.5,-30 523.5,-0 380.5,-0"/>
<text text-anchor="start" x="388.5" y="-18" font-family="Helvetica,sans-Serif" font-size="10.00">expressionTree.Expression</text>
<text text-anchor="middle" x="452" y="-7" font-family="Helvetica,sans-Serif" font-size="10.00">NodeFactory.getAllNodes</text>
</a>
</g>
</g>
<!-- Node2&#45;&gt;Node3 -->
<g id="edge2" class="edge"><title>Node2&#45;&gt;Node3</title>
<path fill="none" stroke="midnightblue" d="M353.646,-15C362.599,-15 371.666,-15 380.479,-15"/>
<polygon fill="midnightblue" stroke="midnightblue" points="353.606,-11.5001 343.606,-15 353.606,-18.5001 353.606,-11.5001"/>
</g>
<!-- Node4 -->
<g id="node4" class="node"><title>Node4</title>
<g id="a_node4"><a xlink:href="../../d3/dfb/classexpression_tree_1_1_expression_tree_builder.html#ab3c3bc68ab96d1cd026bc68a7b329f92" target="_top" xlink:title="expressionTree.Expression\lTreeBuilder.ExpressionTreeBuilder">
<polygon fill="white" stroke="black" points="560,-0 560,-30 736,-30 736,-0 560,-0"/>
<text text-anchor="start" x="568" y="-18" font-family="Helvetica,sans-Serif" font-size="10.00">expressionTree.Expression</text>
<text text-anchor="middle" x="648" y="-7" font-family="Helvetica,sans-Serif" font-size="10.00">TreeBuilder.ExpressionTreeBuilder</text>
</a>
</g>
</g>
<!-- Node3&#45;&gt;Node4 -->
<g id="edge3" class="edge"><title>Node3&#45;&gt;Node4</title>
<path fill="none" stroke="midnightblue" d="M533.668,-15C542.34,-15 551.191,-15 559.934,-15"/>
<polygon fill="midnightblue" stroke="midnightblue" points="533.587,-11.5001 523.587,-15 533.587,-18.5001 533.587,-11.5001"/>
</g>
</g>
</svg>
