<?xml version="1.0" encoding="UTF-8" standalone="no"?>
<!DOCTYPE svg PUBLIC "-//W3C//DTD SVG 1.1//EN"
 "http://www.w3.org/Graphics/SVG/1.1/DTD/svg11.dtd">
<!-- Generated by graphviz version 2.36.0 (20140111.2315)
 -->
<!-- Title: expressionTree.ExpressionNodeFactory.unrecognizedCommandHandler Pages: 1 -->
<svg width="974pt" height="48pt"
 viewBox="0.00 0.00 974.00 48.00" xmlns="http://www.w3.org/2000/svg" xmlns:xlink="http://www.w3.org/1999/xlink">
<g id="graph0" class="graph" transform="scale(1 1) rotate(0) translate(4 44)">
<title>expressionTree.ExpressionNodeFactory.unrecognizedCommandHandler</title>
<polygon fill="white" stroke="none" points="-4,4 -4,-44 970,-44 970,4 -4,4"/>
<!-- Node1 -->
<g id="node1" class="node"><title>Node1</title>
<polygon fill="#bfbfbf" stroke="black" points="0.5,0.5 0.5,-40.5 193.5,-40.5 193.5,0.5 0.5,0.5"/>
<text text-anchor="start" x="8.5" y="-28.5" font-family="Helvetica,sans-Serif" font-size="10.00">expressionTree.Expression</text>
<text text-anchor="start" x="8.5" y="-17.5" font-family="Helvetica,sans-Serif" font-size="10.00">NodeFactory.unrecognizedCommand</text>
<text text-anchor="middle" x="97" y="-6.5" font-family="Helvetica,sans-Serif" font-size="10.00">Handler</text>
</g>
<!-- Node2 -->
<g id="node2" class="node"><title>Node2</title>
<g id="a_node2"><a xlink:href="../../d9/d55/classexpression_tree_1_1_expression_node_factory.html#ae3e414f8f49e18daa55822e37ea3bb54" target="_top" xlink:title="expressionTree.Expression\lNodeFactory.commandHandler">
<polygon fill="white" stroke="black" points="230,-5 230,-35 394,-35 394,-5 230,-5"/>
<text text-anchor="start" x="238" y="-23" font-family="Helvetica,sans-Serif" font-size="10.00">expressionTree.Expression</text>
<text text-anchor="middle" x="312" y="-12" font-family="Helvetica,sans-Serif" font-size="10.00">NodeFactory.commandHandler</text>
</a>
</g>
</g>
<!-- Node1&#45;&gt;Node2 -->
<g id="edge1" class="edge"><title>Node1&#45;&gt;Node2</title>
<path fill="none" stroke="midnightblue" d="M203.799,-20C212.503,-20 221.215,-20 229.699,-20"/>
<polygon fill="midnightblue" stroke="midnightblue" points="203.597,-16.5001 193.597,-20 203.597,-23.5001 203.597,-16.5001"/>
</g>
<!-- Node3 -->
<g id="node3" class="node"><title>Node3</title>
<g id="a_node3"><a xlink:href="../../d9/d55/classexpression_tree_1_1_expression_node_factory.html#a73b0e0bd339ff858fcb0c2daf891cc59" target="_top" xlink:title="expressionTree.Expression\lNodeFactory.getNode">
<polygon fill="white" stroke="black" points="430.5,-5 430.5,-35 573.5,-35 573.5,-5 430.5,-5"/>
<text text-anchor="start" x="438.5" y="-23" font-family="Helvetica,sans-Serif" font-size="10.00">expressionTree.Expression</text>
<text text-anchor="middle" x="502" y="-12" font-family="Helvetica,sans-Serif" font-size="10.00">NodeFactory.getNode</text>
</a>
</g>
</g>
<!-- Node2&#45;&gt;Node3 -->
<g id="edge2" class="edge"><title>Node2&#45;&gt;Node3</title>
<path fill="none" stroke="midnightblue" d="M404.289,-20C413.002,-20 421.746,-20 430.222,-20"/>
<polygon fill="midnightblue" stroke="midnightblue" points="404.093,-16.5001 394.093,-20 404.093,-23.5001 404.093,-16.5001"/>
</g>
<!-- Node4 -->
<g id="node4" class="node"><title>Node4</title>
<g id="a_node4"><a xlink:href="../../d9/d55/classexpression_tree_1_1_expression_node_factory.html#ac3b2de675f1754dfd61694de51553631" target="_top" xlink:title="expressionTree.Expression\lNodeFactory.getAllNodes">
<polygon fill="white" stroke="black" points="610.5,-5 610.5,-35 753.5,-35 753.5,-5 610.5,-5"/>
<text text-anchor="start" x="618.5" y="-23" font-family="Helvetica,sans-Serif" font-size="10.00">expressionTree.Expression</text>
<text text-anchor="middle" x="682" y="-12" font-family="Helvetica,sans-Serif" font-size="10.00">NodeFactory.getAllNodes</text>
</a>
</g>
</g>
<!-- Node3&#45;&gt;Node4 -->
<g id="edge3" class="edge"><title>Node3&#45;&gt;Node4</title>
<path fill="none" stroke="midnightblue" d="M583.646,-20C592.599,-20 601.666,-20 610.479,-20"/>
<polygon fill="midnightblue" stroke="midnightblue" points="583.606,-16.5001 573.606,-20 583.606,-23.5001 583.606,-16.5001"/>
</g>
<!-- Node5 -->
<g id="node5" class="node"><title>Node5</title>
<g id="a_node5"><a xlink:href="../../d3/dfb/classexpression_tree_1_1_expression_tree_builder.html#ab3c3bc68ab96d1cd026bc68a7b329f92" target="_top" xlink:title="expressionTree.Expression\lTreeBuilder.ExpressionTreeBuilder">
<polygon fill="white" stroke="black" points="790,-5 790,-35 966,-35 966,-5 790,-5"/>
<text text-anchor="start" x="798" y="-23" font-family="Helvetica,sans-Serif" font-size="10.00">expressionTree.Expression</text>
<text text-anchor="middle" x="878" y="-12" font-family="Helvetica,sans-Serif" font-size="10.00">TreeBuilder.ExpressionTreeBuilder</text>
</a>
</g>
</g>
<!-- Node4&#45;&gt;Node5 -->
<g id="edge4" class="edge"><title>Node4&#45;&gt;Node5</title>
<path fill="none" stroke="midnightblue" d="M763.668,-20C772.34,-20 781.191,-20 789.934,-20"/>
<polygon fill="midnightblue" stroke="midnightblue" points="763.587,-16.5001 753.587,-20 763.587,-23.5001 763.587,-16.5001"/>
</g>
</g>
</svg>
