<?xml version="1.0" encoding="UTF-8" standalone="no"?>
<!DOCTYPE svg PUBLIC "-//W3C//DTD SVG 1.1//EN"
 "http://www.w3.org/Graphics/SVG/1.1/DTD/svg11.dtd">
<!-- Generated by graphviz version 2.36.0 (20140111.2315)
 -->
<!-- Title: expressionTree.ExpressionNodeFactory.unrecognizedCommandHandler Pages: 1 -->
<svg width="392pt" height="87pt"
 viewBox="0.00 0.00 392.00 87.00" xmlns="http://www.w3.org/2000/svg" xmlns:xlink="http://www.w3.org/1999/xlink">
<g id="graph0" class="graph" transform="scale(1 1) rotate(0) translate(4 83)">
<title>expressionTree.ExpressionNodeFactory.unrecognizedCommandHandler</title>
<polygon fill="white" stroke="none" points="-4,4 -4,-83 388,-83 388,4 -4,4"/>
<!-- Node1 -->
<g id="node1" class="node"><title>Node1</title>
<polygon fill="#bfbfbf" stroke="black" points="0.5,-18.5 0.5,-59.5 193.5,-59.5 193.5,-18.5 0.5,-18.5"/>
<text text-anchor="start" x="8.5" y="-47.5" font-family="Helvetica,sans-Serif" font-size="10.00">expressionTree.Expression</text>
<text text-anchor="start" x="8.5" y="-36.5" font-family="Helvetica,sans-Serif" font-size="10.00">NodeFactory.unrecognizedCommand</text>
<text text-anchor="middle" x="97" y="-25.5" font-family="Helvetica,sans-Serif" font-size="10.00">Handler</text>
</g>
<!-- Node2 -->
<g id="node2" class="node"><title>Node2</title>
<g id="a_node2"><a xlink:href="../../d8/d36/classexpression_tree_1_1_user_function_map.html#a8a31726e8de991ba254e91fdee171e5b" target="_top" xlink:title="expressionTree.UserFunction\lMap.contains">
<polygon fill="white" stroke="black" points="230.5,-49 230.5,-79 383.5,-79 383.5,-49 230.5,-49"/>
<text text-anchor="start" x="238.5" y="-67" font-family="Helvetica,sans-Serif" font-size="10.00">expressionTree.UserFunction</text>
<text text-anchor="middle" x="307" y="-56" font-family="Helvetica,sans-Serif" font-size="10.00">Map.contains</text>
</a>
</g>
</g>
<!-- Node1&#45;&gt;Node2 -->
<g id="edge1" class="edge"><title>Node1&#45;&gt;Node2</title>
<path fill="none" stroke="midnightblue" d="M193.781,-50.5121C202.594,-51.5714 211.486,-52.6402 220.202,-53.6878"/>
<polygon fill="midnightblue" stroke="midnightblue" points="219.992,-57.1876 230.338,-54.906 220.827,-50.2376 219.992,-57.1876"/>
</g>
<!-- Node3 -->
<g id="node3" class="node"><title>Node3</title>
<g id="a_node3"><a xlink:href="../../d8/d36/classexpression_tree_1_1_user_function_map.html#a6ce2341adbcd5596710a90f96fd9e8dc" target="_top" xlink:title="expressionTree.UserFunction\lMap.getFunction">
<polygon fill="white" stroke="black" points="230.5,-0 230.5,-30 383.5,-30 383.5,-0 230.5,-0"/>
<text text-anchor="start" x="238.5" y="-18" font-family="Helvetica,sans-Serif" font-size="10.00">expressionTree.UserFunction</text>
<text text-anchor="middle" x="307" y="-7" font-family="Helvetica,sans-Serif" font-size="10.00">Map.getFunction</text>
</a>
</g>
</g>
<!-- Node1&#45;&gt;Node3 -->
<g id="edge2" class="edge"><title>Node1&#45;&gt;Node3</title>
<path fill="none" stroke="midnightblue" d="M193.781,-27.9483C202.594,-26.9315 211.486,-25.9055 220.202,-24.8998"/>
<polygon fill="midnightblue" stroke="midnightblue" points="220.805,-28.3535 230.338,-23.7303 220.003,-21.3996 220.805,-28.3535"/>
</g>
</g>
</svg>
