<?xml version="1.0" encoding="UTF-8" standalone="no"?>
<!DOCTYPE svg PUBLIC "-//W3C//DTD SVG 1.1//EN"
 "http://www.w3.org/Graphics/SVG/1.1/DTD/svg11.dtd">
<!-- Generated by graphviz version 2.36.0 (20140111.2315)
 -->
<!-- Title: expressionTree.ExpressionNodeFactory Pages: 1 -->
<!--zoomable 139 -->
<svg id="main" version="1.1" xmlns="http://www.w3.org/2000/svg" xmlns:xlink="http://www.w3.org/1999/xlink" xml:space="preserve" onload="init(evt)">
<style type="text/css"><![CDATA[
.edge:hover path { stroke: red; }
.edge:hover polygon { stroke: red; fill: red; }
]]></style>
<script type="text/javascript"><![CDATA[
var edges = document.getElementsByTagName('g');
if (edges && edges.length) {
  for (var i=0;i<edges.length;i++) {
    if (edges[i].id.substr(0,4)=='edge') {
      edges[i].setAttribute('class','edge');
    }
  }
}
]]></script>
        <defs>
                <circle id="rim" cx="0" cy="0" r="7"/>
                <circle id="rim2" cx="0" cy="0" r="3.5"/>
                <g id="zoomPlus">
                        <use xlink:href="#rim" fill="#404040">
                                <set attributeName="fill" to="#808080" begin="zoomplus.mouseover" end="zoomplus.mouseout"/>
                        </use>
                        <path d="M-4,0h8M0,-4v8" fill="none" stroke="white" stroke-width="1.5" pointer-events="none"/>
                </g>
                <g id="zoomMin">
                        <use xlink:href="#rim" fill="#404040">
                                <set attributeName="fill" to="#808080" begin="zoomminus.mouseover" end="zoomminus.mouseout"/>
                        </use>
                        <path d="M-4,0h8" fill="none" stroke="white" stroke-width="1.5" pointer-events="none"/>
                </g>
                <g id="dirArrow">
                        <path fill="none" stroke="white" stroke-width="1.5" d="M0,-3.0v7 M-2.5,-0.5L0,-3.0L2.5,-0.5"/>
                </g>
               <g id="resetDef">
                       <use xlink:href="#rim2" fill="#404040">
                               <set attributeName="fill" to="#808080" begin="reset.mouseover" end="reset.mouseout"/>
                       </use>
               </g>
        </defs>

<script type="text/javascript">
var viewWidth = 730;
var viewHeight = 139;
var sectionId = 'dynsection-0';
</script>
<script xlink:href="../../svgpan.js"/>
<svg id="graph" class="graph">
<g id="viewport">
<title>expressionTree.ExpressionNodeFactory</title>
<polygon fill="white" stroke="none" points="-4,4 -4,-135 726,-135 726,4 -4,4"/>
<!-- Node1 -->
<g id="node1" class="node"><title>Node1</title>
<polygon fill="#bfbfbf" stroke="black" points="578.5,-47 578.5,-77 721.5,-77 721.5,-47 578.5,-47"/>
<text text-anchor="start" x="586.5" y="-65" font-family="Helvetica,sans-Serif" font-size="10.00">expressionTree.Expression</text>
<text text-anchor="middle" x="650" y="-54" font-family="Helvetica,sans-Serif" font-size="10.00">NodeFactory</text>
</g>
<!-- Node2 -->
<g id="node2" class="node"><title>Node2</title>
<g id="a_node2"><a xlink:href="../../d8/d36/classexpression_tree_1_1_user_function_map.html" target="_top" xlink:title="expressionTree.UserFunctionMap">
<polygon fill="white" stroke="black" points="281.5,-82.5 281.5,-101.5 454.5,-101.5 454.5,-82.5 281.5,-82.5"/>
<text text-anchor="middle" x="368" y="-89.5" font-family="Helvetica,sans-Serif" font-size="10.00">expressionTree.UserFunctionMap</text>
</a>
</g>
</g>
<!-- Node2&#45;&gt;Node1 -->
<g id="edge1" class="edge"><title>Node2&#45;&gt;Node1</title>
<path fill="none" stroke="#9a32cd" stroke-dasharray="5,2" d="M464.873,-81.7279C502.01,-77.7489 543.762,-73.2755 578.107,-69.5957"/>
<polygon fill="#9a32cd" stroke="#9a32cd" points="464.101,-78.2905 454.531,-82.836 464.847,-85.2507 464.101,-78.2905"/>
<text text-anchor="middle" x="517" y="-84" font-family="Helvetica,sans-Serif" font-size="10.00"> myUserFunctions</text>
</g>
<!-- Node2&#45;&gt;Node2 -->
<g id="edge3" class="edge"><title>Node2&#45;&gt;Node2</title>
<path fill="none" stroke="#9a32cd" stroke-dasharray="5,2" d="M340.374,-110.654C341.529,-115.937 350.738,-120 368,-120 394.305,-120 401.908,-110.565 390.811,-101.757"/>
<polygon fill="#9a32cd" stroke="#9a32cd" points="343.508,-112.218 345.189,-101.757 337.351,-108.886 343.508,-112.218"/>
<text text-anchor="middle" x="368" y="-123" font-family="Helvetica,sans-Serif" font-size="10.00"> myUserFunctionMap</text>
</g>
<!-- Node3 -->
<g id="node3" class="node"><title>Node3</title>
<polygon fill="white" stroke="#bfbfbf" points="43.5,-49.5 43.5,-68.5 114.5,-68.5 114.5,-49.5 43.5,-49.5"/>
<text text-anchor="middle" x="79" y="-56.5" font-family="Helvetica,sans-Serif" font-size="10.00">Serializable</text>
</g>
<!-- Node3&#45;&gt;Node2 -->
<g id="edge2" class="edge"><title>Node3&#45;&gt;Node2</title>
<path fill="none" stroke="midnightblue" d="M124.657,-64.1348C167.178,-69.0239 232.218,-76.5024 284.216,-82.4813"/>
<polygon fill="midnightblue" stroke="midnightblue" points="124.953,-60.6459 114.619,-62.9806 124.154,-67.6 124.953,-60.6459"/>
</g>
<!-- Node5 -->
<g id="node5" class="node"><title>Node5</title>
<g id="a_node5"><a xlink:href="../../de/d4e/classexpression_tree_1_1_variable_node_map.html" target="_top" xlink:title="expressionTree.VariableNodeMap">
<polygon fill="white" stroke="black" points="280.5,-15.5 280.5,-34.5 455.5,-34.5 455.5,-15.5 280.5,-15.5"/>
<text text-anchor="middle" x="368" y="-22.5" font-family="Helvetica,sans-Serif" font-size="10.00">expressionTree.VariableNodeMap</text>
</a>
</g>
</g>
<!-- Node3&#45;&gt;Node5 -->
<g id="edge6" class="edge"><title>Node3&#45;&gt;Node5</title>
<path fill="none" stroke="midnightblue" d="M124.808,-53.6918C167.989,-48.5762 234.295,-40.7211 286.619,-34.5225"/>
<polygon fill="midnightblue" stroke="midnightblue" points="124.138,-50.2466 114.619,-54.8988 124.961,-57.198 124.138,-50.2466"/>
</g>
<!-- Node4 -->
<g id="node4" class="node"><title>Node4</title>
<polygon fill="white" stroke="#bfbfbf" points="0.5,-88 0.5,-118 157.5,-118 157.5,-88 0.5,-88"/>
<text text-anchor="start" x="8.5" y="-106" font-family="Helvetica,sans-Serif" font-size="10.00">Map&lt; String, expressionTree.</text>
<text text-anchor="middle" x="79" y="-95" font-family="Helvetica,sans-Serif" font-size="10.00">ListNode &gt;</text>
</g>
<!-- Node4&#45;&gt;Node2 -->
<g id="edge4" class="edge"><title>Node4&#45;&gt;Node2</title>
<path fill="none" stroke="#9a32cd" stroke-dasharray="5,2" d="M167.699,-99.6387C203.827,-98.254 245.545,-96.6551 281.447,-95.279"/>
<polygon fill="#9a32cd" stroke="#9a32cd" points="167.525,-96.1427 157.666,-100.023 167.793,-103.138 167.525,-96.1427"/>
<text text-anchor="middle" x="219" y="-103" font-family="Helvetica,sans-Serif" font-size="10.00"> userFunctionMap</text>
</g>
<!-- Node5&#45;&gt;Node1 -->
<g id="edge5" class="edge"><title>Node5&#45;&gt;Node1</title>
<path fill="none" stroke="#9a32cd" stroke-dasharray="5,2" d="M451.169,-35.858C491.442,-41.1799 539.463,-47.5254 578.107,-52.632"/>
<polygon fill="#9a32cd" stroke="#9a32cd" points="451.479,-32.3687 441.107,-34.5284 450.562,-39.3084 451.479,-32.3687"/>
<text text-anchor="middle" x="517" y="-54" font-family="Helvetica,sans-Serif" font-size="10.00"> myVariables</text>
</g>
<!-- Node5&#45;&gt;Node5 -->
<g id="edge8" class="edge"><title>Node5&#45;&gt;Node5</title>
<path fill="none" stroke="#9a32cd" stroke-dasharray="5,2" d="M340.374,-43.6539C341.529,-48.9368 350.738,-53 368,-53 394.305,-53 401.908,-43.5653 390.811,-34.7571"/>
<polygon fill="#9a32cd" stroke="#9a32cd" points="343.508,-45.2176 345.189,-34.7571 337.351,-41.886 343.508,-45.2176"/>
<text text-anchor="middle" x="368" y="-56" font-family="Helvetica,sans-Serif" font-size="10.00"> myVariableNodeMap</text>
</g>
<!-- Node6 -->
<g id="node6" class="node"><title>Node6</title>
<polygon fill="white" stroke="#bfbfbf" points="0.5,-0 0.5,-30 157.5,-30 157.5,-0 0.5,-0"/>
<text text-anchor="start" x="8.5" y="-18" font-family="Helvetica,sans-Serif" font-size="10.00">Map&lt; String, expressionTree.</text>
<text text-anchor="middle" x="79" y="-7" font-family="Helvetica,sans-Serif" font-size="10.00">VariableNode &gt;</text>
</g>
<!-- Node6&#45;&gt;Node5 -->
<g id="edge7" class="edge"><title>Node6&#45;&gt;Node5</title>
<path fill="none" stroke="#9a32cd" stroke-dasharray="5,2" d="M167.531,-14.8095C197.499,-15.0505 231.226,-15.66 262,-17 267.936,-17.2585 274.057,-17.5803 280.221,-17.9451"/>
<polygon fill="#9a32cd" stroke="#9a32cd" points="167.545,-11.3096 157.521,-14.7414 167.497,-18.3094 167.545,-11.3096"/>
<text text-anchor="middle" x="219" y="-20" font-family="Helvetica,sans-Serif" font-size="10.00"> variableMap</text>
</g>
</g>
</svg>
        <g id="navigator" transform="translate(0 0)" fill="#404254">
                <rect fill="#f2f5e9" fill-opacity="0.5" stroke="#606060" stroke-width=".5" x="0" y="0" width="60" height="60"/>
                <use id="zoomplus" xlink:href="#zoomPlus" x="17" y="9" onmousedown="handleZoom(evt,'in')"/>
                <use id="zoomminus" xlink:href="#zoomMin" x="42" y="9" onmousedown="handleZoom(evt,'out')"/>
                <use id="reset" xlink:href="#resetDef" x="30" y="36" onmousedown="handleReset()"/>
                <g id="arrowUp" xlink:href="#dirArrow" transform="translate(30 24)" onmousedown="handlePan(0,-1)">
                  <use xlink:href="#rim" fill="#404040">
                        <set attributeName="fill" to="#808080" begin="arrowUp.mouseover" end="arrowUp.mouseout"/>
                  </use>
                  <path fill="none" stroke="white" stroke-width="1.5" d="M0,-3.0v7 M-2.5,-0.5L0,-3.0L2.5,-0.5"/>
                </g>
                <g id="arrowRight" xlink:href="#dirArrow" transform="rotate(90) translate(36 -43)" onmousedown="handlePan(1,0)">
                  <use xlink:href="#rim" fill="#404040">
                        <set attributeName="fill" to="#808080" begin="arrowRight.mouseover" end="arrowRight.mouseout"/>
                  </use>
                  <path fill="none" stroke="white" stroke-width="1.5" d="M0,-3.0v7 M-2.5,-0.5L0,-3.0L2.5,-0.5"/>
                </g>
                <g id="arrowDown" xlink:href="#dirArrow" transform="rotate(180) translate(-30 -48)" onmousedown="handlePan(0,1)">
                  <use xlink:href="#rim" fill="#404040">
                        <set attributeName="fill" to="#808080" begin="arrowDown.mouseover" end="arrowDown.mouseout"/>
                  </use>
                  <path fill="none" stroke="white" stroke-width="1.5" d="M0,-3.0v7 M-2.5,-0.5L0,-3.0L2.5,-0.5"/>
                </g>
                <g id="arrowLeft" xlink:href="#dirArrow" transform="rotate(270) translate(-36 17)" onmousedown="handlePan(-1,0)">
                  <use xlink:href="#rim" fill="#404040">
                        <set attributeName="fill" to="#808080" begin="arrowLeft.mouseover" end="arrowLeft.mouseout"/>
                  </use>
                  <path fill="none" stroke="white" stroke-width="1.5" d="M0,-3.0v7 M-2.5,-0.5L0,-3.0L2.5,-0.5"/>
                </g>
        </g>
        <svg viewBox="0 0 15 15" width="100%" height="30px" preserveAspectRatio="xMaxYMin meet">
         <g id="arrow_out" transform="scale(0.3 0.3)">
          <a xlink:href="classexpression_tree_1_1_expression_node_factory__coll__graph_org.svg" target="_base">
           <rect id="button" ry="5" rx="5" y="6" x="6" height="38" width="38"
                fill="#f2f5e9" fill-opacity="0.5" stroke="#606060" stroke-width="1.0"/>
           <path id="arrow"
             d="M 11.500037,31.436501 C 11.940474,20.09759 22.043105,11.32322 32.158766,21.979434 L 37.068811,17.246167 C 37.068811,17.246167 37.088388,32 37.088388,32 L 22.160133,31.978069 C 22.160133,31.978069 26.997745,27.140456 26.997745,27.140456 C 18.528582,18.264221 13.291696,25.230495 11.500037,31.436501 z"
             style="fill:#404040;"/>
          </a>
         </g>
        </svg>
</svg>
