<?xml version="1.0" encoding="UTF-8" standalone="no"?>
<!DOCTYPE svg PUBLIC "-//W3C//DTD SVG 1.1//EN"
 "http://www.w3.org/Graphics/SVG/1.1/DTD/svg11.dtd">
<!-- Generated by graphviz version 2.36.0 (20140111.2315)
 -->
<!-- Title: expressionTree.ExpressionNodeFactory Pages: 1 -->
<svg width="730pt" height="139pt"
 viewBox="0.00 0.00 730.00 139.00" xmlns="http://www.w3.org/2000/svg" xmlns:xlink="http://www.w3.org/1999/xlink">
<g id="graph0" class="graph" transform="scale(1 1) rotate(0) translate(4 135)">
<title>expressionTree.ExpressionNodeFactory</title>
<polygon fill="white" stroke="none" points="-4,4 -4,-135 726,-135 726,4 -4,4"/>
<!-- Node1 -->
<g id="node1" class="node"><title>Node1</title>
<polygon fill="#bfbfbf" stroke="black" points="578.5,-47 578.5,-77 721.5,-77 721.5,-47 578.5,-47"/>
<text text-anchor="start" x="586.5" y="-65" font-family="Helvetica,sans-Serif" font-size="10.00">expressionTree.Expression</text>
<text text-anchor="middle" x="650" y="-54" font-family="Helvetica,sans-Serif" font-size="10.00">NodeFactory</text>
</g>
<!-- Node2 -->
<g id="node2" class="node"><title>Node2</title>
<g id="a_node2"><a xlink:href="../../d8/d36/classexpression_tree_1_1_user_function_map.html" target="_top" xlink:title="expressionTree.UserFunctionMap">
<polygon fill="white" stroke="black" points="281.5,-82.5 281.5,-101.5 454.5,-101.5 454.5,-82.5 281.5,-82.5"/>
<text text-anchor="middle" x="368" y="-89.5" font-family="Helvetica,sans-Serif" font-size="10.00">expressionTree.UserFunctionMap</text>
</a>
</g>
</g>
<!-- Node2&#45;&gt;Node1 -->
<g id="edge1" class="edge"><title>Node2&#45;&gt;Node1</title>
<path fill="none" stroke="#9a32cd" stroke-dasharray="5,2" d="M464.873,-81.7279C502.01,-77.7489 543.762,-73.2755 578.107,-69.5957"/>
<polygon fill="#9a32cd" stroke="#9a32cd" points="464.101,-78.2905 454.531,-82.836 464.847,-85.2507 464.101,-78.2905"/>
<text text-anchor="middle" x="517" y="-84" font-family="Helvetica,sans-Serif" font-size="10.00"> myUserFunctions</text>
</g>
<!-- Node2&#45;&gt;Node2 -->
<g id="edge3" class="edge"><title>Node2&#45;&gt;Node2</title>
<path fill="none" stroke="#9a32cd" stroke-dasharray="5,2" d="M340.374,-110.654C341.529,-115.937 350.738,-120 368,-120 394.305,-120 401.908,-110.565 390.811,-101.757"/>
<polygon fill="#9a32cd" stroke="#9a32cd" points="343.508,-112.218 345.189,-101.757 337.351,-108.886 343.508,-112.218"/>
<text text-anchor="middle" x="368" y="-123" font-family="Helvetica,sans-Serif" font-size="10.00"> myUserFunctionMap</text>
</g>
<!-- Node3 -->
<g id="node3" class="node"><title>Node3</title>
<polygon fill="white" stroke="#bfbfbf" points="43.5,-49.5 43.5,-68.5 114.5,-68.5 114.5,-49.5 43.5,-49.5"/>
<text text-anchor="middle" x="79" y="-56.5" font-family="Helvetica,sans-Serif" font-size="10.00">Serializable</text>
</g>
<!-- Node3&#45;&gt;Node2 -->
<g id="edge2" class="edge"><title>Node3&#45;&gt;Node2</title>
<path fill="none" stroke="midnightblue" d="M124.657,-64.1348C167.178,-69.0239 232.218,-76.5024 284.216,-82.4813"/>
<polygon fill="midnightblue" stroke="midnightblue" points="124.953,-60.6459 114.619,-62.9806 124.154,-67.6 124.953,-60.6459"/>
</g>
<!-- Node5 -->
<g id="node5" class="node"><title>Node5</title>
<g id="a_node5"><a xlink:href="../../de/d4e/classexpression_tree_1_1_variable_node_map.html" target="_top" xlink:title="expressionTree.VariableNodeMap">
<polygon fill="white" stroke="black" points="280.5,-15.5 280.5,-34.5 455.5,-34.5 455.5,-15.5 280.5,-15.5"/>
<text text-anchor="middle" x="368" y="-22.5" font-family="Helvetica,sans-Serif" font-size="10.00">expressionTree.VariableNodeMap</text>
</a>
</g>
</g>
<!-- Node3&#45;&gt;Node5 -->
<g id="edge6" class="edge"><title>Node3&#45;&gt;Node5</title>
<path fill="none" stroke="midnightblue" d="M124.808,-53.6918C167.989,-48.5762 234.295,-40.7211 286.619,-34.5225"/>
<polygon fill="midnightblue" stroke="midnightblue" points="124.138,-50.2466 114.619,-54.8988 124.961,-57.198 124.138,-50.2466"/>
</g>
<!-- Node4 -->
<g id="node4" class="node"><title>Node4</title>
<polygon fill="white" stroke="#bfbfbf" points="0.5,-88 0.5,-118 157.5,-118 157.5,-88 0.5,-88"/>
<text text-anchor="start" x="8.5" y="-106" font-family="Helvetica,sans-Serif" font-size="10.00">Map&lt; String, expressionTree.</text>
<text text-anchor="middle" x="79" y="-95" font-family="Helvetica,sans-Serif" font-size="10.00">ListNode &gt;</text>
</g>
<!-- Node4&#45;&gt;Node2 -->
<g id="edge4" class="edge"><title>Node4&#45;&gt;Node2</title>
<path fill="none" stroke="#9a32cd" stroke-dasharray="5,2" d="M167.699,-99.6387C203.827,-98.254 245.545,-96.6551 281.447,-95.279"/>
<polygon fill="#9a32cd" stroke="#9a32cd" points="167.525,-96.1427 157.666,-100.023 167.793,-103.138 167.525,-96.1427"/>
<text text-anchor="middle" x="219" y="-103" font-family="Helvetica,sans-Serif" font-size="10.00"> userFunctionMap</text>
</g>
<!-- Node5&#45;&gt;Node1 -->
<g id="edge5" class="edge"><title>Node5&#45;&gt;Node1</title>
<path fill="none" stroke="#9a32cd" stroke-dasharray="5,2" d="M451.169,-35.858C491.442,-41.1799 539.463,-47.5254 578.107,-52.632"/>
<polygon fill="#9a32cd" stroke="#9a32cd" points="451.479,-32.3687 441.107,-34.5284 450.562,-39.3084 451.479,-32.3687"/>
<text text-anchor="middle" x="517" y="-54" font-family="Helvetica,sans-Serif" font-size="10.00"> myVariables</text>
</g>
<!-- Node5&#45;&gt;Node5 -->
<g id="edge8" class="edge"><title>Node5&#45;&gt;Node5</title>
<path fill="none" stroke="#9a32cd" stroke-dasharray="5,2" d="M340.374,-43.6539C341.529,-48.9368 350.738,-53 368,-53 394.305,-53 401.908,-43.5653 390.811,-34.7571"/>
<polygon fill="#9a32cd" stroke="#9a32cd" points="343.508,-45.2176 345.189,-34.7571 337.351,-41.886 343.508,-45.2176"/>
<text text-anchor="middle" x="368" y="-56" font-family="Helvetica,sans-Serif" font-size="10.00"> myVariableNodeMap</text>
</g>
<!-- Node6 -->
<g id="node6" class="node"><title>Node6</title>
<polygon fill="white" stroke="#bfbfbf" points="0.5,-0 0.5,-30 157.5,-30 157.5,-0 0.5,-0"/>
<text text-anchor="start" x="8.5" y="-18" font-family="Helvetica,sans-Serif" font-size="10.00">Map&lt; String, expressionTree.</text>
<text text-anchor="middle" x="79" y="-7" font-family="Helvetica,sans-Serif" font-size="10.00">VariableNode &gt;</text>
</g>
<!-- Node6&#45;&gt;Node5 -->
<g id="edge7" class="edge"><title>Node6&#45;&gt;Node5</title>
<path fill="none" stroke="#9a32cd" stroke-dasharray="5,2" d="M167.531,-14.8095C197.499,-15.0505 231.226,-15.66 262,-17 267.936,-17.2585 274.057,-17.5803 280.221,-17.9451"/>
<polygon fill="#9a32cd" stroke="#9a32cd" points="167.545,-11.3096 157.521,-14.7414 167.497,-18.3094 167.545,-11.3096"/>
<text text-anchor="middle" x="219" y="-20" font-family="Helvetica,sans-Serif" font-size="10.00"> variableMap</text>
</g>
</g>
</svg>
