<?xml version="1.0" encoding="UTF-8" standalone="no"?>
<!DOCTYPE svg PUBLIC "-//W3C//DTD SVG 1.1//EN"
 "http://www.w3.org/Graphics/SVG/1.1/DTD/svg11.dtd">
<!-- Generated by graphviz version 2.36.0 (20140111.2315)
 -->
<!-- Title: turtleClasses.TurtleCollection.addTurtle Pages: 1 -->
<svg width="568pt" height="38pt"
 viewBox="0.00 0.00 568.00 38.00" xmlns="http://www.w3.org/2000/svg" xmlns:xlink="http://www.w3.org/1999/xlink">
<g id="graph0" class="graph" transform="scale(1 1) rotate(0) translate(4 34)">
<title>turtleClasses.TurtleCollection.addTurtle</title>
<polygon fill="white" stroke="none" points="-4,4 -4,-34 564,-34 564,4 -4,4"/>
<!-- Node1 -->
<g id="node1" class="node"><title>Node1</title>
<polygon fill="#bfbfbf" stroke="black" points="0.5,-0 0.5,-30 175.5,-30 175.5,-0 0.5,-0"/>
<text text-anchor="start" x="8.5" y="-18" font-family="Helvetica,sans-Serif" font-size="10.00">turtleClasses.TurtleCollection.add</text>
<text text-anchor="middle" x="88" y="-7" font-family="Helvetica,sans-Serif" font-size="10.00">Turtle</text>
</g>
<!-- Node2 -->
<g id="node2" class="node"><title>Node2</title>
<g id="a_node2"><a xlink:href="../../d4/d7e/classturtle_classes_1_1_turtle_collection.html#a40bfa92a3800e4441e66c3c2964559f0" target="_top" xlink:title="turtleClasses.TurtleCollection.check\lAndAddActiveTurtle">
<polygon fill="white" stroke="black" points="212.5,-0 212.5,-30 397.5,-30 397.5,-0 212.5,-0"/>
<text text-anchor="start" x="220.5" y="-18" font-family="Helvetica,sans-Serif" font-size="10.00">turtleClasses.TurtleCollection.check</text>
<text text-anchor="middle" x="305" y="-7" font-family="Helvetica,sans-Serif" font-size="10.00">AndAddActiveTurtle</text>
</a>
</g>
</g>
<!-- Node1&#45;&gt;Node2 -->
<g id="edge1" class="edge"><title>Node1&#45;&gt;Node2</title>
<path fill="none" stroke="midnightblue" d="M175.519,-15C184.336,-15 193.349,-15 202.308,-15"/>
<polygon fill="midnightblue" stroke="midnightblue" points="202.387,-18.5001 212.387,-15 202.387,-11.5001 202.387,-18.5001"/>
</g>
<!-- Node3 -->
<g id="node3" class="node"><title>Node3</title>
<g id="a_node3"><a xlink:href="../../d8/d89/classturtle_classes_1_1_turtle.html#a2d2fbb81602870ad25869504ebc47a96" target="_top" xlink:title="turtleClasses.Turtle.get\lIsActive">
<polygon fill="white" stroke="black" points="434,-0 434,-30 560,-30 560,-0 434,-0"/>
<text text-anchor="start" x="442" y="-18" font-family="Helvetica,sans-Serif" font-size="10.00">turtleClasses.Turtle.get</text>
<text text-anchor="middle" x="497" y="-7" font-family="Helvetica,sans-Serif" font-size="10.00">IsActive</text>
</a>
</g>
</g>
<!-- Node2&#45;&gt;Node3 -->
<g id="edge2" class="edge"><title>Node2&#45;&gt;Node3</title>
<path fill="none" stroke="midnightblue" d="M397.661,-15C406.364,-15 415.104,-15 423.589,-15"/>
<polygon fill="midnightblue" stroke="midnightblue" points="423.793,-18.5001 433.793,-15 423.793,-11.5001 423.793,-18.5001"/>
</g>
</g>
</svg>
