<?xml version="1.0" encoding="UTF-8" standalone="no"?>
<!DOCTYPE svg PUBLIC "-//W3C//DTD SVG 1.1//EN"
 "http://www.w3.org/Graphics/SVG/1.1/DTD/svg11.dtd">
<!-- Generated by graphviz version 2.36.0 (20140111.2315)
 -->
<!-- Title: turtleClasses.TurtleCollection.getCanvas Pages: 1 -->
<svg width="416pt" height="136pt"
 viewBox="0.00 0.00 416.00 136.00" xmlns="http://www.w3.org/2000/svg" xmlns:xlink="http://www.w3.org/1999/xlink">
<g id="graph0" class="graph" transform="scale(1 1) rotate(0) translate(4 132)">
<title>turtleClasses.TurtleCollection.getCanvas</title>
<polygon fill="white" stroke="none" points="-4,4 -4,-132 412,-132 412,4 -4,4"/>
<!-- Node1 -->
<g id="node1" class="node"><title>Node1</title>
<polygon fill="#bfbfbf" stroke="black" points="0.5,-49 0.5,-79 173.5,-79 173.5,-49 0.5,-49"/>
<text text-anchor="start" x="8.5" y="-67" font-family="Helvetica,sans-Serif" font-size="10.00">turtleClasses.TurtleCollection.get</text>
<text text-anchor="middle" x="87" y="-56" font-family="Helvetica,sans-Serif" font-size="10.00">Canvas</text>
</g>
<!-- Node2 -->
<g id="node2" class="node"><title>Node2</title>
<g id="a_node2"><a xlink:href="../../d1/dae/classdisplay_commands_1_1_set_background.html#a4bd55b720ccdcebfeddf0bb29026fbe9" target="_top" xlink:title="displayCommands.SetBackground.do\lAction">
<polygon fill="white" stroke="black" points="210.5,-98 210.5,-128 407.5,-128 407.5,-98 210.5,-98"/>
<text text-anchor="start" x="218.5" y="-116" font-family="Helvetica,sans-Serif" font-size="10.00">displayCommands.SetBackground.do</text>
<text text-anchor="middle" x="309" y="-105" font-family="Helvetica,sans-Serif" font-size="10.00">Action</text>
</a>
</g>
</g>
<!-- Node1&#45;&gt;Node2 -->
<g id="edge1" class="edge"><title>Node1&#45;&gt;Node2</title>
<path fill="none" stroke="midnightblue" d="M165.485,-81.2581C189.999,-86.718 216.88,-92.705 240.625,-97.9938"/>
<polygon fill="midnightblue" stroke="midnightblue" points="166.024,-77.7924 155.502,-79.0346 164.502,-84.625 166.024,-77.7924"/>
</g>
<!-- Node3 -->
<g id="node3" class="node"><title>Node3</title>
<g id="a_node3"><a xlink:href="../../dd/d33/classdisplay_commands_1_1_clear_objects.html#a21cffe30d5c5ea33afa426d791d827b3" target="_top" xlink:title="displayCommands.ClearObjects.do\lAction">
<polygon fill="white" stroke="black" points="217,-49 217,-79 401,-79 401,-49 217,-49"/>
<text text-anchor="start" x="225" y="-67" font-family="Helvetica,sans-Serif" font-size="10.00">displayCommands.ClearObjects.do</text>
<text text-anchor="middle" x="309" y="-56" font-family="Helvetica,sans-Serif" font-size="10.00">Action</text>
</a>
</g>
</g>
<!-- Node1&#45;&gt;Node3 -->
<g id="edge2" class="edge"><title>Node1&#45;&gt;Node3</title>
<path fill="none" stroke="midnightblue" d="M183.693,-64C194.66,-64 205.821,-64 216.728,-64"/>
<polygon fill="midnightblue" stroke="midnightblue" points="183.688,-60.5001 173.688,-64 183.688,-67.5001 183.688,-60.5001"/>
</g>
<!-- Node4 -->
<g id="node4" class="node"><title>Node4</title>
<g id="a_node4"><a xlink:href="../../d7/d5b/classdisplay_commands_1_1_set_pen_color.html#aca9cc25cf5669418097f9d8f6509a23c" target="_top" xlink:title="displayCommands.SetPenColor.do\lAction">
<polygon fill="white" stroke="black" points="218,-0 218,-30 400,-30 400,-0 218,-0"/>
<text text-anchor="start" x="226" y="-18" font-family="Helvetica,sans-Serif" font-size="10.00">displayCommands.SetPenColor.do</text>
<text text-anchor="middle" x="309" y="-7" font-family="Helvetica,sans-Serif" font-size="10.00">Action</text>
</a>
</g>
</g>
<!-- Node1&#45;&gt;Node4 -->
<g id="edge3" class="edge"><title>Node1&#45;&gt;Node4</title>
<path fill="none" stroke="midnightblue" d="M165.485,-46.7419C189.999,-41.282 216.88,-35.295 240.625,-30.0062"/>
<polygon fill="midnightblue" stroke="midnightblue" points="164.502,-43.375 155.502,-48.9654 166.024,-50.2076 164.502,-43.375"/>
</g>
</g>
</svg>
