<?xml version="1.0" encoding="UTF-8" standalone="no"?>
<!DOCTYPE svg PUBLIC "-//W3C//DTD SVG 1.1//EN"
 "http://www.w3.org/Graphics/SVG/1.1/DTD/svg11.dtd">
<!-- Generated by graphviz version 2.36.0 (20140111.2315)
 -->
<!-- Title: turtleClasses.TurtleCollection.TurtleCollection Pages: 1 -->
<svg width="550pt" height="77pt"
 viewBox="0.00 0.00 550.00 77.00" xmlns="http://www.w3.org/2000/svg" xmlns:xlink="http://www.w3.org/1999/xlink">
<g id="graph0" class="graph" transform="scale(1 1) rotate(0) translate(4 73)">
<title>turtleClasses.TurtleCollection.TurtleCollection</title>
<polygon fill="white" stroke="none" points="-4,4 -4,-73 546,-73 546,4 -4,4"/>
<!-- Node1 -->
<g id="node1" class="node"><title>Node1</title>
<polygon fill="#bfbfbf" stroke="black" points="0.5,-17 0.5,-47 157.5,-47 157.5,-17 0.5,-17"/>
<text text-anchor="start" x="8.5" y="-35" font-family="Helvetica,sans-Serif" font-size="10.00">turtleClasses.TurtleCollection.</text>
<text text-anchor="middle" x="79" y="-24" font-family="Helvetica,sans-Serif" font-size="10.00">TurtleCollection</text>
</g>
<!-- Node2 -->
<g id="node2" class="node"><title>Node2</title>
<g id="a_node2"><a xlink:href="../../d4/d7e/classturtle_classes_1_1_turtle_collection.html#a40bfa92a3800e4441e66c3c2964559f0" target="_top" xlink:title="turtleClasses.TurtleCollection.check\lAndAddActiveTurtle">
<polygon fill="white" stroke="black" points="194.5,-39 194.5,-69 379.5,-69 379.5,-39 194.5,-39"/>
<text text-anchor="start" x="202.5" y="-57" font-family="Helvetica,sans-Serif" font-size="10.00">turtleClasses.TurtleCollection.check</text>
<text text-anchor="middle" x="287" y="-46" font-family="Helvetica,sans-Serif" font-size="10.00">AndAddActiveTurtle</text>
</a>
</g>
</g>
<!-- Node1&#45;&gt;Node2 -->
<g id="edge1" class="edge"><title>Node1&#45;&gt;Node2</title>
<path fill="none" stroke="midnightblue" d="M157.586,-40.2859C166.287,-41.2151 175.246,-42.1719 184.193,-43.1274"/>
<polygon fill="midnightblue" stroke="midnightblue" points="183.96,-46.6223 194.275,-44.2041 184.703,-39.6619 183.96,-46.6223"/>
</g>
<!-- Node4 -->
<g id="node4" class="node"><title>Node4</title>
<g id="a_node4"><a xlink:href="../../d8/d89/classturtle_classes_1_1_turtle.html#aff48aa8a8ca4bb8a7aa40743a1a944c4" target="_top" xlink:title="turtleClasses.Turtle.getID">
<polygon fill="white" stroke="black" points="219,-0.5 219,-19.5 355,-19.5 355,-0.5 219,-0.5"/>
<text text-anchor="middle" x="287" y="-7.5" font-family="Helvetica,sans-Serif" font-size="10.00">turtleClasses.Turtle.getID</text>
</a>
</g>
</g>
<!-- Node1&#45;&gt;Node4 -->
<g id="edge3" class="edge"><title>Node1&#45;&gt;Node4</title>
<path fill="none" stroke="midnightblue" d="M157.586,-23.7141C174.304,-21.9287 191.974,-20.0416 208.681,-18.2573"/>
<polygon fill="midnightblue" stroke="midnightblue" points="209.371,-21.7037 218.943,-17.1615 208.627,-14.7433 209.371,-21.7037"/>
</g>
<!-- Node3 -->
<g id="node3" class="node"><title>Node3</title>
<g id="a_node3"><a xlink:href="../../d8/d89/classturtle_classes_1_1_turtle.html#a2d2fbb81602870ad25869504ebc47a96" target="_top" xlink:title="turtleClasses.Turtle.get\lIsActive">
<polygon fill="white" stroke="black" points="416,-39 416,-69 542,-69 542,-39 416,-39"/>
<text text-anchor="start" x="424" y="-57" font-family="Helvetica,sans-Serif" font-size="10.00">turtleClasses.Turtle.get</text>
<text text-anchor="middle" x="479" y="-46" font-family="Helvetica,sans-Serif" font-size="10.00">IsActive</text>
</a>
</g>
</g>
<!-- Node2&#45;&gt;Node3 -->
<g id="edge2" class="edge"><title>Node2&#45;&gt;Node3</title>
<path fill="none" stroke="midnightblue" d="M379.661,-54C388.364,-54 397.104,-54 405.589,-54"/>
<polygon fill="midnightblue" stroke="midnightblue" points="405.793,-57.5001 415.793,-54 405.793,-50.5001 405.793,-57.5001"/>
</g>
</g>
</svg>
