<?xml version="1.0" encoding="UTF-8" standalone="no"?>
<!DOCTYPE svg PUBLIC "-//W3C//DTD SVG 1.1//EN"
 "http://www.w3.org/Graphics/SVG/1.1/DTD/svg11.dtd">
<!-- Generated by graphviz version 2.36.0 (20140111.2315)
 -->
<!-- Title: turtleClasses.TurtleCollection.setActiveTurtles Pages: 1 -->
<svg width="646pt" height="360pt"
 viewBox="0.00 0.00 646.00 360.00" xmlns="http://www.w3.org/2000/svg" xmlns:xlink="http://www.w3.org/1999/xlink">
<g id="graph0" class="graph" transform="scale(1 1) rotate(0) translate(4 356)">
<title>turtleClasses.TurtleCollection.setActiveTurtles</title>
<polygon fill="white" stroke="none" points="-4,4 -4,-356 642,-356 642,4 -4,4"/>
<!-- Node1 -->
<g id="node1" class="node"><title>Node1</title>
<polygon fill="#bfbfbf" stroke="black" points="0,-161 0,-191 172,-191 172,-161 0,-161"/>
<text text-anchor="start" x="8" y="-179" font-family="Helvetica,sans-Serif" font-size="10.00">turtleClasses.TurtleCollection.set</text>
<text text-anchor="middle" x="86" y="-168" font-family="Helvetica,sans-Serif" font-size="10.00">ActiveTurtles</text>
</g>
<!-- Node2 -->
<g id="node2" class="node"><title>Node2</title>
<g id="a_node2"><a xlink:href="../../d6/d89/classfrontend_1_1_concrete_features_1_1_set_line_color.html#add708f64c58cef9f6a09b1eaa9431253" target="_top" xlink:title="frontend.ConcreteFeatures.\lSetLineColor.action">
<polygon fill="white" stroke="black" points="233,-322 233,-352 381,-352 381,-322 233,-322"/>
<text text-anchor="start" x="241" y="-340" font-family="Helvetica,sans-Serif" font-size="10.00">frontend.ConcreteFeatures.</text>
<text text-anchor="middle" x="307" y="-329" font-family="Helvetica,sans-Serif" font-size="10.00">SetLineColor.action</text>
</a>
</g>
</g>
<!-- Node1&#45;&gt;Node2 -->
<g id="edge1" class="edge"><title>Node1&#45;&gt;Node2</title>
<path fill="none" stroke="midnightblue" d="M101.832,-200.122C122.008,-230.856 161.026,-283.411 208,-312 215.65,-316.656 224.141,-320.449 232.834,-323.538"/>
<polygon fill="midnightblue" stroke="midnightblue" points="104.537,-197.857 96.1875,-191.335 98.6476,-201.64 104.537,-197.857"/>
</g>
<!-- Node3 -->
<g id="node3" class="node"><title>Node3</title>
<g id="a_node3"><a xlink:href="../../d4/d4a/classfrontend_1_1_concrete_features_1_1_change_line_width.html#adde04d20814309d03954f834f7bc9af0" target="_top" xlink:title="frontend.ConcreteFeatures.\lChangeLineWidth.action">
<polygon fill="white" stroke="black" points="233,-273 233,-303 381,-303 381,-273 233,-273"/>
<text text-anchor="start" x="241" y="-291" font-family="Helvetica,sans-Serif" font-size="10.00">frontend.ConcreteFeatures.</text>
<text text-anchor="middle" x="307" y="-280" font-family="Helvetica,sans-Serif" font-size="10.00">ChangeLineWidth.action</text>
</a>
</g>
</g>
<!-- Node1&#45;&gt;Node3 -->
<g id="edge2" class="edge"><title>Node1&#45;&gt;Node3</title>
<path fill="none" stroke="midnightblue" d="M111.379,-197.775C134.659,-217.489 171.506,-245.972 208,-263 216.195,-266.824 225.058,-270.121 233.99,-272.948"/>
<polygon fill="midnightblue" stroke="midnightblue" points="113.598,-195.067 103.733,-191.201 109.034,-200.375 113.598,-195.067"/>
</g>
<!-- Node4 -->
<g id="node4" class="node"><title>Node4</title>
<g id="a_node4"><a xlink:href="../../d0/d72/classfrontend_1_1_concrete_features_1_1_reset.html#ab7b13b161309fd31ad8c3faeacec0986" target="_top" xlink:title="frontend.ConcreteFeatures.\lReset.action">
<polygon fill="white" stroke="black" points="233,-224 233,-254 381,-254 381,-224 233,-224"/>
<text text-anchor="start" x="241" y="-242" font-family="Helvetica,sans-Serif" font-size="10.00">frontend.ConcreteFeatures.</text>
<text text-anchor="middle" x="307" y="-231" font-family="Helvetica,sans-Serif" font-size="10.00">Reset.action</text>
</a>
</g>
</g>
<!-- Node1&#45;&gt;Node4 -->
<g id="edge3" class="edge"><title>Node1&#45;&gt;Node4</title>
<path fill="none" stroke="midnightblue" d="M142.587,-194.155C163.075,-200.662 186.523,-207.893 208,-214 219.907,-217.386 232.688,-220.803 244.959,-223.977"/>
<polygon fill="midnightblue" stroke="midnightblue" points="143.38,-190.734 132.789,-191.027 141.251,-197.403 143.38,-190.734"/>
</g>
<!-- Node5 -->
<g id="node5" class="node"><title>Node5</title>
<g id="a_node5"><a xlink:href="../../d9/d2b/classdisplay_commands_1_1_tell.html#a47e19aa9c97125a95f06c67dc189fc53" target="_top" xlink:title="displayCommands.Tell.doAction">
<polygon fill="white" stroke="black" points="223.5,-185.5 223.5,-204.5 390.5,-204.5 390.5,-185.5 223.5,-185.5"/>
<text text-anchor="middle" x="307" y="-192.5" font-family="Helvetica,sans-Serif" font-size="10.00">displayCommands.Tell.doAction</text>
</a>
</g>
</g>
<!-- Node1&#45;&gt;Node5 -->
<g id="edge4" class="edge"><title>Node1&#45;&gt;Node5</title>
<path fill="none" stroke="midnightblue" d="M182.629,-184.297C196.232,-185.477 210.124,-186.682 223.449,-187.838"/>
<polygon fill="midnightblue" stroke="midnightblue" points="182.563,-180.778 172.298,-183.4 181.958,-187.752 182.563,-180.778"/>
</g>
<!-- Node6 -->
<g id="node6" class="node"><title>Node6</title>
<g id="a_node6"><a xlink:href="../../dc/d9a/classdisplay_commands_1_1_ask.html#a8b9d7e789a2cd29220b440ae03c70432" target="_top" xlink:title="displayCommands.Ask.doAction">
<polygon fill="white" stroke="black" points="222,-147.5 222,-166.5 392,-166.5 392,-147.5 222,-147.5"/>
<text text-anchor="middle" x="307" y="-154.5" font-family="Helvetica,sans-Serif" font-size="10.00">displayCommands.Ask.doAction</text>
</a>
</g>
</g>
<!-- Node1&#45;&gt;Node6 -->
<g id="edge5" class="edge"><title>Node1&#45;&gt;Node6</title>
<path fill="none" stroke="midnightblue" d="M182.644,-167.702C195.632,-166.575 208.884,-165.426 221.654,-164.318"/>
<polygon fill="midnightblue" stroke="midnightblue" points="181.958,-164.248 172.298,-168.6 182.563,-171.222 181.958,-164.248"/>
</g>
<!-- Node7 -->
<g id="node7" class="node"><title>Node7</title>
<g id="a_node7"><a xlink:href="../../d0/d3e/classfrontend_1_1_concrete_features_1_1_turtle_changer.html#a61a656e67b68f3aff1d55cad3cd823d6" target="_top" xlink:title="frontend.ConcreteFeatures.\lTurtleChanger.doDropDownClickAction">
<polygon fill="white" stroke="black" points="208,-98 208,-128 406,-128 406,-98 208,-98"/>
<text text-anchor="start" x="216" y="-116" font-family="Helvetica,sans-Serif" font-size="10.00">frontend.ConcreteFeatures.</text>
<text text-anchor="middle" x="307" y="-105" font-family="Helvetica,sans-Serif" font-size="10.00">TurtleChanger.doDropDownClickAction</text>
</a>
</g>
</g>
<!-- Node1&#45;&gt;Node7 -->
<g id="edge6" class="edge"><title>Node1&#45;&gt;Node7</title>
<path fill="none" stroke="midnightblue" d="M142.587,-157.845C163.075,-151.338 186.523,-144.107 208,-138 219.907,-134.614 232.688,-131.197 244.959,-128.023"/>
<polygon fill="midnightblue" stroke="midnightblue" points="141.251,-154.597 132.789,-160.973 143.38,-161.266 141.251,-154.597"/>
</g>
<!-- Node8 -->
<g id="node8" class="node"><title>Node8</title>
<g id="a_node8"><a xlink:href="../../d3/d17/classturtle_classes_1_1_turtle_mover.html#a955db4be8fe596975332813b98a0cecf" target="_top" xlink:title="turtleClasses.TurtleMover.start\lDrawing">
<polygon fill="white" stroke="black" points="226.5,-49 226.5,-79 387.5,-79 387.5,-49 226.5,-49"/>
<text text-anchor="start" x="234.5" y="-67" font-family="Helvetica,sans-Serif" font-size="10.00">turtleClasses.TurtleMover.start</text>
<text text-anchor="middle" x="307" y="-56" font-family="Helvetica,sans-Serif" font-size="10.00">Drawing</text>
</a>
</g>
</g>
<!-- Node1&#45;&gt;Node8 -->
<g id="edge7" class="edge"><title>Node1&#45;&gt;Node8</title>
<path fill="none" stroke="midnightblue" d="M111.379,-154.225C134.659,-134.511 171.506,-106.028 208,-89 216.195,-85.1764 225.058,-81.8794 233.99,-79.052"/>
<polygon fill="midnightblue" stroke="midnightblue" points="109.034,-151.625 103.733,-160.799 113.598,-156.933 109.034,-151.625"/>
</g>
<!-- Node12 -->
<g id="node12" class="node"><title>Node12</title>
<g id="a_node12"><a xlink:href="../../d3/dc9/classfrontend_1_1_concrete_features_1_1_turtle_stats_window.html#ac10aeedb8611acaf30a7eab04d2a59db" target="_top" xlink:title="frontend.ConcreteFeatures.\lTurtleStatsWindow.updatePane">
<polygon fill="white" stroke="black" points="226,-0 226,-30 388,-30 388,-0 226,-0"/>
<text text-anchor="start" x="234" y="-18" font-family="Helvetica,sans-Serif" font-size="10.00">frontend.ConcreteFeatures.</text>
<text text-anchor="middle" x="307" y="-7" font-family="Helvetica,sans-Serif" font-size="10.00">TurtleStatsWindow.updatePane</text>
</a>
</g>
</g>
<!-- Node1&#45;&gt;Node12 -->
<g id="edge11" class="edge"><title>Node1&#45;&gt;Node12</title>
<path fill="none" stroke="midnightblue" d="M101.434,-152.112C121.425,-121.144 160.502,-67.7148 208,-39 213.696,-35.5563 219.861,-32.6062 226.229,-30.079"/>
<polygon fill="midnightblue" stroke="midnightblue" points="98.2337,-150.625 95.8547,-160.949 104.153,-154.362 98.2337,-150.625"/>
</g>
<!-- Node9 -->
<g id="node9" class="node"><title>Node9</title>
<g id="a_node9"><a xlink:href="../../d8/dc1/classfrontend_1_1_concrete_features_1_1_command_executer.html#a14b9b724db30e6cc89f62304f7bf40b2" target="_top" xlink:title="frontend.ConcreteFeatures.\lCommandExecuter.action">
<polygon fill="white" stroke="black" points="466,-98 466,-128 614,-128 614,-98 466,-98"/>
<text text-anchor="start" x="474" y="-116" font-family="Helvetica,sans-Serif" font-size="10.00">frontend.ConcreteFeatures.</text>
<text text-anchor="middle" x="540" y="-105" font-family="Helvetica,sans-Serif" font-size="10.00">CommandExecuter.action</text>
</a>
</g>
</g>
<!-- Node8&#45;&gt;Node9 -->
<g id="edge8" class="edge"><title>Node8&#45;&gt;Node9</title>
<path fill="none" stroke="midnightblue" d="M388.674,-81.1127C414.597,-86.6115 443.102,-92.658 468.257,-97.9938"/>
<polygon fill="midnightblue" stroke="midnightblue" points="389.386,-77.6859 378.877,-79.0346 387.934,-84.5336 389.386,-77.6859"/>
</g>
<!-- Node10 -->
<g id="node10" class="node"><title>Node10</title>
<g id="a_node10"><a xlink:href="../../de/d9f/classfrontend_1_1_concrete_features_1_1_load_s_logo_file.html#aa491ddd476ad22ed21a358b21c01605f" target="_top" xlink:title="frontend.ConcreteFeatures.\lLoadSLogoFile.action">
<polygon fill="white" stroke="black" points="466,-49 466,-79 614,-79 614,-49 466,-49"/>
<text text-anchor="start" x="474" y="-67" font-family="Helvetica,sans-Serif" font-size="10.00">frontend.ConcreteFeatures.</text>
<text text-anchor="middle" x="540" y="-56" font-family="Helvetica,sans-Serif" font-size="10.00">LoadSLogoFile.action</text>
</a>
</g>
</g>
<!-- Node8&#45;&gt;Node10 -->
<g id="edge9" class="edge"><title>Node8&#45;&gt;Node10</title>
<path fill="none" stroke="midnightblue" d="M398.022,-64C420.46,-64 444.247,-64 465.765,-64"/>
<polygon fill="midnightblue" stroke="midnightblue" points="397.821,-60.5001 387.821,-64 397.821,-67.5001 397.821,-60.5001"/>
</g>
<!-- Node11 -->
<g id="node11" class="node"><title>Node11</title>
<g id="a_node11"><a xlink:href="../../d7/d78/classturtle_classes_1_1_turtle_key_handler.html#a7dfe582e767f31105e84278d26dbc4c1" target="_top" xlink:title="turtleClasses.TurtleKeyHandler.handle">
<polygon fill="white" stroke="black" points="442,-10.5 442,-29.5 638,-29.5 638,-10.5 442,-10.5"/>
<text text-anchor="middle" x="540" y="-17.5" font-family="Helvetica,sans-Serif" font-size="10.00">turtleClasses.TurtleKeyHandler.handle</text>
</a>
</g>
</g>
<!-- Node8&#45;&gt;Node11 -->
<g id="edge10" class="edge"><title>Node8&#45;&gt;Node11</title>
<path fill="none" stroke="midnightblue" d="M396.89,-47.0686C428.146,-41.115 462.152,-34.6377 489.06,-29.5124"/>
<polygon fill="midnightblue" stroke="midnightblue" points="396.019,-43.6714 386.851,-48.9808 397.329,-50.5477 396.019,-43.6714"/>
</g>
</g>
</svg>
