<?xml version="1.0" encoding="UTF-8" standalone="no"?>
<!DOCTYPE svg PUBLIC "-//W3C//DTD SVG 1.1//EN"
 "http://www.w3.org/Graphics/SVG/1.1/DTD/svg11.dtd">
<!-- Generated by graphviz version 2.36.0 (20140111.2315)
 -->
<!-- Title: turtleClasses.TurtleCollection.checkAndAddActiveTurtle Pages: 1 -->
<svg width="774pt" height="136pt"
 viewBox="0.00 0.00 774.00 136.00" xmlns="http://www.w3.org/2000/svg" xmlns:xlink="http://www.w3.org/1999/xlink">
<g id="graph0" class="graph" transform="scale(1 1) rotate(0) translate(4 132)">
<title>turtleClasses.TurtleCollection.checkAndAddActiveTurtle</title>
<polygon fill="white" stroke="none" points="-4,4 -4,-132 770,-132 770,4 -4,4"/>
<!-- Node1 -->
<g id="node1" class="node"><title>Node1</title>
<polygon fill="#bfbfbf" stroke="black" points="0.5,-49 0.5,-79 185.5,-79 185.5,-49 0.5,-49"/>
<text text-anchor="start" x="8.5" y="-67" font-family="Helvetica,sans-Serif" font-size="10.00">turtleClasses.TurtleCollection.check</text>
<text text-anchor="middle" x="93" y="-56" font-family="Helvetica,sans-Serif" font-size="10.00">AndAddActiveTurtle</text>
</g>
<!-- Node2 -->
<g id="node2" class="node"><title>Node2</title>
<g id="a_node2"><a xlink:href="../../d4/d7e/classturtle_classes_1_1_turtle_collection.html#aef78a61da5522d472e6c70b49e8e1b0d" target="_top" xlink:title="turtleClasses.TurtleCollection.add\lTurtle">
<polygon fill="white" stroke="black" points="222.5,-98 222.5,-128 397.5,-128 397.5,-98 222.5,-98"/>
<text text-anchor="start" x="230.5" y="-116" font-family="Helvetica,sans-Serif" font-size="10.00">turtleClasses.TurtleCollection.add</text>
<text text-anchor="middle" x="310" y="-105" font-family="Helvetica,sans-Serif" font-size="10.00">Turtle</text>
</a>
</g>
</g>
<!-- Node1&#45;&gt;Node2 -->
<g id="edge1" class="edge"><title>Node1&#45;&gt;Node2</title>
<path fill="none" stroke="midnightblue" d="M169.724,-81.2581C193.681,-86.718 219.951,-92.705 243.157,-97.9938"/>
<polygon fill="midnightblue" stroke="midnightblue" points="170.496,-77.8443 159.968,-79.0346 168.94,-84.6693 170.496,-77.8443"/>
</g>
<!-- Node5 -->
<g id="node5" class="node"><title>Node5</title>
<g id="a_node5"><a xlink:href="../../d4/d7e/classturtle_classes_1_1_turtle_collection.html#a000c6119bd8a814df55fe31d990a1b6f" target="_top" xlink:title="turtleClasses.TurtleCollection.set\lActiveTurtles">
<polygon fill="white" stroke="black" points="224,-49 224,-79 396,-79 396,-49 224,-49"/>
<text text-anchor="start" x="232" y="-67" font-family="Helvetica,sans-Serif" font-size="10.00">turtleClasses.TurtleCollection.set</text>
<text text-anchor="middle" x="310" y="-56" font-family="Helvetica,sans-Serif" font-size="10.00">ActiveTurtles</text>
</a>
</g>
</g>
<!-- Node1&#45;&gt;Node5 -->
<g id="edge4" class="edge"><title>Node1&#45;&gt;Node5</title>
<path fill="none" stroke="midnightblue" d="M195.948,-64C205.33,-64 214.769,-64 223.977,-64"/>
<polygon fill="midnightblue" stroke="midnightblue" points="195.803,-60.5001 185.803,-64 195.803,-67.5001 195.803,-60.5001"/>
</g>
<!-- Node6 -->
<g id="node6" class="node"><title>Node6</title>
<g id="a_node6"><a xlink:href="../../d4/d7e/classturtle_classes_1_1_turtle_collection.html#a2c198e889660227ad13e0835fb5c9b7f" target="_top" xlink:title="turtleClasses.TurtleCollection.\lTurtleCollection">
<polygon fill="white" stroke="black" points="231.5,-0 231.5,-30 388.5,-30 388.5,-0 231.5,-0"/>
<text text-anchor="start" x="239.5" y="-18" font-family="Helvetica,sans-Serif" font-size="10.00">turtleClasses.TurtleCollection.</text>
<text text-anchor="middle" x="310" y="-7" font-family="Helvetica,sans-Serif" font-size="10.00">TurtleCollection</text>
</a>
</g>
</g>
<!-- Node1&#45;&gt;Node6 -->
<g id="edge5" class="edge"><title>Node1&#45;&gt;Node6</title>
<path fill="none" stroke="midnightblue" d="M169.724,-46.7419C193.681,-41.282 219.951,-35.295 243.157,-30.0062"/>
<polygon fill="midnightblue" stroke="midnightblue" points="168.94,-43.3307 159.968,-48.9654 170.496,-50.1557 168.94,-43.3307"/>
</g>
<!-- Node3 -->
<g id="node3" class="node"><title>Node3</title>
<g id="a_node3"><a xlink:href="../../df/de4/classfrontend_1_1_s_logo_workspace.html#afdbe19fcd31fb74f31efbea44ac0c24c" target="_top" xlink:title="frontend.SLogoWorkspace.\lSLogoWorkspace">
<polygon fill="white" stroke="black" points="434,-98 434,-128 578,-128 578,-98 434,-98"/>
<text text-anchor="start" x="442" y="-116" font-family="Helvetica,sans-Serif" font-size="10.00">frontend.SLogoWorkspace.</text>
<text text-anchor="middle" x="506" y="-105" font-family="Helvetica,sans-Serif" font-size="10.00">SLogoWorkspace</text>
</a>
</g>
</g>
<!-- Node2&#45;&gt;Node3 -->
<g id="edge2" class="edge"><title>Node2&#45;&gt;Node3</title>
<path fill="none" stroke="midnightblue" d="M407.77,-113C416.53,-113 425.293,-113 433.773,-113"/>
<polygon fill="midnightblue" stroke="midnightblue" points="407.504,-109.5 397.504,-113 407.504,-116.5 407.504,-109.5"/>
</g>
<!-- Node4 -->
<g id="node4" class="node"><title>Node4</title>
<g id="a_node4"><a xlink:href="../../dc/dae/classfrontend_1_1_s_logo_workspace_1_1_add_workspace_button.html#a156aecbf6509dec903bb35c7ada6257e" target="_top" xlink:title="frontend.SLogoWorkspace.\lAddWorkspaceButton.action">
<polygon fill="white" stroke="black" points="614.5,-98 614.5,-128 765.5,-128 765.5,-98 614.5,-98"/>
<text text-anchor="start" x="622.5" y="-116" font-family="Helvetica,sans-Serif" font-size="10.00">frontend.SLogoWorkspace.</text>
<text text-anchor="middle" x="690" y="-105" font-family="Helvetica,sans-Serif" font-size="10.00">AddWorkspaceButton.action</text>
</a>
</g>
</g>
<!-- Node3&#45;&gt;Node4 -->
<g id="edge3" class="edge"><title>Node3&#45;&gt;Node4</title>
<path fill="none" stroke="midnightblue" d="M588.251,-113C596.921,-113 605.71,-113 614.299,-113"/>
<polygon fill="midnightblue" stroke="midnightblue" points="588.148,-109.5 578.148,-113 588.148,-116.5 588.148,-109.5"/>
</g>
</g>
</svg>
