<?xml version="1.0" encoding="UTF-8" standalone="no"?>
<!DOCTYPE svg PUBLIC "-//W3C//DTD SVG 1.1//EN"
 "http://www.w3.org/Graphics/SVG/1.1/DTD/svg11.dtd">
<!-- Generated by graphviz version 2.36.0 (20140111.2315)
 -->
<!-- Title: turtleQueries.TurtleQuery Pages: 1 -->
<svg width="524pt" height="218pt"
 viewBox="0.00 0.00 524.00 218.00" xmlns="http://www.w3.org/2000/svg" xmlns:xlink="http://www.w3.org/1999/xlink">
<g id="graph0" class="graph" transform="scale(1 1) rotate(0) translate(4 214)">
<title>turtleQueries.TurtleQuery</title>
<polygon fill="white" stroke="none" points="-4,4 -4,-214 520,-214 520,4 -4,4"/>
<!-- Node1 -->
<g id="node1" class="node"><title>Node1</title>
<polygon fill="#bfbfbf" stroke="black" points="204,-95.5 204,-114.5 340,-114.5 340,-95.5 204,-95.5"/>
<text text-anchor="middle" x="272" y="-102.5" font-family="Helvetica,sans-Serif" font-size="10.00">turtleQueries.TurtleQuery</text>
</g>
<!-- Node3 -->
<g id="node3" class="node"><title>Node3</title>
<g id="a_node3"><a xlink:href="../../d9/d12/classturtle_queries_1_1_heading.html" target="_top" xlink:title="turtleQueries.Heading">
<polygon fill="white" stroke="black" points="385,-190.5 385,-209.5 507,-209.5 507,-190.5 385,-190.5"/>
<text text-anchor="middle" x="446" y="-197.5" font-family="Helvetica,sans-Serif" font-size="10.00">turtleQueries.Heading</text>
</a>
</g>
</g>
<!-- Node1&#45;&gt;Node3 -->
<g id="edge2" class="edge"><title>Node1&#45;&gt;Node3</title>
<path fill="none" stroke="midnightblue" d="M290.779,-121.339C310.318,-138.486 343.293,-165.112 376,-181 383.712,-184.746 392.279,-187.853 400.68,-190.393"/>
<polygon fill="midnightblue" stroke="midnightblue" points="293.057,-118.681 283.268,-114.63 288.394,-123.902 293.057,-118.681"/>
</g>
<!-- Node4 -->
<g id="node4" class="node"><title>Node4</title>
<g id="a_node4"><a xlink:href="../../de/d5c/classturtle_queries_1_1_i_d.html" target="_top" xlink:title="turtleQueries.ID">
<polygon fill="white" stroke="black" points="400,-152.5 400,-171.5 492,-171.5 492,-152.5 400,-152.5"/>
<text text-anchor="middle" x="446" y="-159.5" font-family="Helvetica,sans-Serif" font-size="10.00">turtleQueries.ID</text>
</a>
</g>
</g>
<!-- Node1&#45;&gt;Node4 -->
<g id="edge3" class="edge"><title>Node1&#45;&gt;Node4</title>
<path fill="none" stroke="midnightblue" d="M306.931,-118.342C326.895,-125.985 352.716,-135.514 376,-143 386.291,-146.309 397.556,-149.563 407.945,-152.417"/>
<polygon fill="midnightblue" stroke="midnightblue" points="307.944,-114.982 297.354,-114.649 305.425,-121.513 307.944,-114.982"/>
</g>
<!-- Node5 -->
<g id="node5" class="node"><title>Node5</title>
<g id="a_node5"><a xlink:href="../../dd/dc8/classturtle_queries_1_1_is_pen_down.html" target="_top" xlink:title="turtleQueries.IsPenDown">
<polygon fill="white" stroke="black" points="379,-114.5 379,-133.5 513,-133.5 513,-114.5 379,-114.5"/>
<text text-anchor="middle" x="446" y="-121.5" font-family="Helvetica,sans-Serif" font-size="10.00">turtleQueries.IsPenDown</text>
</a>
</g>
</g>
<!-- Node1&#45;&gt;Node5 -->
<g id="edge4" class="edge"><title>Node1&#45;&gt;Node5</title>
<path fill="none" stroke="midnightblue" d="M350.631,-113.576C360.051,-114.616 369.605,-115.671 378.837,-116.691"/>
<polygon fill="midnightblue" stroke="midnightblue" points="350.809,-110.074 340.485,-112.455 350.041,-117.032 350.809,-110.074"/>
</g>
<!-- Node6 -->
<g id="node6" class="node"><title>Node6</title>
<g id="a_node6"><a xlink:href="../../da/dc2/classturtle_queries_1_1_is_showing.html" target="_top" xlink:title="turtleQueries.IsShowing">
<polygon fill="white" stroke="black" points="381.5,-76.5 381.5,-95.5 510.5,-95.5 510.5,-76.5 381.5,-76.5"/>
<text text-anchor="middle" x="446" y="-83.5" font-family="Helvetica,sans-Serif" font-size="10.00">turtleQueries.IsShowing</text>
</a>
</g>
</g>
<!-- Node1&#45;&gt;Node6 -->
<g id="edge5" class="edge"><title>Node1&#45;&gt;Node6</title>
<path fill="none" stroke="midnightblue" d="M350.676,-96.4195C360.942,-95.2854 371.368,-94.1337 381.361,-93.0299"/>
<polygon fill="midnightblue" stroke="midnightblue" points="350.041,-92.9683 340.485,-97.5452 350.809,-99.926 350.041,-92.9683"/>
</g>
<!-- Node7 -->
<g id="node7" class="node"><title>Node7</title>
<g id="a_node7"><a xlink:href="../../de/dc6/classturtle_queries_1_1_x_coordinate.html" target="_top" xlink:title="turtleQueries.XCoordinate">
<polygon fill="white" stroke="black" points="376,-38.5 376,-57.5 516,-57.5 516,-38.5 376,-38.5"/>
<text text-anchor="middle" x="446" y="-45.5" font-family="Helvetica,sans-Serif" font-size="10.00">turtleQueries.XCoordinate</text>
</a>
</g>
</g>
<!-- Node1&#45;&gt;Node7 -->
<g id="edge6" class="edge"><title>Node1&#45;&gt;Node7</title>
<path fill="none" stroke="midnightblue" d="M306.931,-91.6578C326.895,-84.0149 352.716,-74.4861 376,-67 386.291,-63.6914 397.556,-60.4372 407.945,-57.5826"/>
<polygon fill="midnightblue" stroke="midnightblue" points="305.425,-88.4873 297.354,-95.3511 307.944,-95.0184 305.425,-88.4873"/>
</g>
<!-- Node8 -->
<g id="node8" class="node"><title>Node8</title>
<g id="a_node8"><a xlink:href="../../db/dff/classturtle_queries_1_1_y_coordinate.html" target="_top" xlink:title="turtleQueries.YCoordinate">
<polygon fill="white" stroke="black" points="376.5,-0.5 376.5,-19.5 515.5,-19.5 515.5,-0.5 376.5,-0.5"/>
<text text-anchor="middle" x="446" y="-7.5" font-family="Helvetica,sans-Serif" font-size="10.00">turtleQueries.YCoordinate</text>
</a>
</g>
</g>
<!-- Node1&#45;&gt;Node8 -->
<g id="edge7" class="edge"><title>Node1&#45;&gt;Node8</title>
<path fill="none" stroke="midnightblue" d="M290.779,-88.6608C310.318,-71.5141 343.293,-44.8882 376,-29 383.712,-25.254 392.279,-22.147 400.68,-19.6067"/>
<polygon fill="midnightblue" stroke="midnightblue" points="288.394,-86.098 283.268,-95.3701 293.057,-91.3186 288.394,-86.098"/>
</g>
<!-- Node2 -->
<g id="node2" class="node"><title>Node2</title>
<g id="a_node2"><a xlink:href="../../db/da5/classexpression_tree_1_1_expression_node.html" target="_top" xlink:title="expressionTree.ExpressionNode">
<polygon fill="white" stroke="black" points="0,-95.5 0,-114.5 168,-114.5 168,-95.5 0,-95.5"/>
<text text-anchor="middle" x="84" y="-102.5" font-family="Helvetica,sans-Serif" font-size="10.00">expressionTree.ExpressionNode</text>
</a>
</g>
</g>
<!-- Node2&#45;&gt;Node1 -->
<g id="edge1" class="edge"><title>Node2&#45;&gt;Node1</title>
<path fill="none" stroke="midnightblue" d="M178.28,-105C186.873,-105 195.464,-105 203.757,-105"/>
<polygon fill="midnightblue" stroke="midnightblue" points="178.208,-101.5 168.208,-105 178.208,-108.5 178.208,-101.5"/>
</g>
</g>
</svg>
