<?xml version="1.0" encoding="UTF-8" standalone="no"?>
<!DOCTYPE svg PUBLIC "-//W3C//DTD SVG 1.1//EN"
 "http://www.w3.org/Graphics/SVG/1.1/DTD/svg11.dtd">
<!-- Generated by graphviz version 2.36.0 (20140111.2315)
 -->
<!-- Title: controlStructures.IfElse.setChildren Pages: 1 -->
<svg width="336pt" height="136pt"
 viewBox="0.00 0.00 336.00 136.00" xmlns="http://www.w3.org/2000/svg" xmlns:xlink="http://www.w3.org/1999/xlink">
<g id="graph0" class="graph" transform="scale(1 1) rotate(0) translate(4 132)">
<title>controlStructures.IfElse.setChildren</title>
<polygon fill="white" stroke="none" points="-4,4 -4,-132 332,-132 332,4 -4,4"/>
<!-- Node1 -->
<g id="node1" class="node"><title>Node1</title>
<polygon fill="#bfbfbf" stroke="black" points="0,-49 0,-79 146,-79 146,-49 0,-49"/>
<text text-anchor="start" x="8" y="-67" font-family="Helvetica,sans-Serif" font-size="10.00">controlStructures.IfElse.set</text>
<text text-anchor="middle" x="73" y="-56" font-family="Helvetica,sans-Serif" font-size="10.00">Children</text>
</g>
<!-- Node2 -->
<g id="node2" class="node"><title>Node2</title>
<g id="a_node2"><a xlink:href="../../db/da5/classexpression_tree_1_1_expression_node.html#a2fa33101014b85248cd335238da0b74a" target="_top" xlink:title="expressionTree.Expression\lNode.setLeft">
<polygon fill="white" stroke="black" points="183.5,-98 183.5,-128 326.5,-128 326.5,-98 183.5,-98"/>
<text text-anchor="start" x="191.5" y="-116" font-family="Helvetica,sans-Serif" font-size="10.00">expressionTree.Expression</text>
<text text-anchor="middle" x="255" y="-105" font-family="Helvetica,sans-Serif" font-size="10.00">Node.setLeft</text>
</a>
</g>
</g>
<!-- Node1&#45;&gt;Node2 -->
<g id="edge1" class="edge"><title>Node1&#45;&gt;Node2</title>
<path fill="none" stroke="midnightblue" d="M129.475,-79.1014C148.297,-84.2253 169.494,-89.9956 188.991,-95.3032"/>
<polygon fill="midnightblue" stroke="midnightblue" points="188.14,-98.6988 198.708,-97.9484 189.979,-91.9446 188.14,-98.6988"/>
</g>
<!-- Node3 -->
<g id="node3" class="node"><title>Node3</title>
<g id="a_node3"><a xlink:href="../../d3/d06/classcontrol_structures_1_1_if_else.html#ad5dc11b562dd8eb4f32402abe549a326" target="_top" xlink:title="controlStructures.IfElse.set\lMiddle">
<polygon fill="white" stroke="black" points="182,-49 182,-79 328,-79 328,-49 182,-49"/>
<text text-anchor="start" x="190" y="-67" font-family="Helvetica,sans-Serif" font-size="10.00">controlStructures.IfElse.set</text>
<text text-anchor="middle" x="255" y="-56" font-family="Helvetica,sans-Serif" font-size="10.00">Middle</text>
</a>
</g>
</g>
<!-- Node1&#45;&gt;Node3 -->
<g id="edge2" class="edge"><title>Node1&#45;&gt;Node3</title>
<path fill="none" stroke="midnightblue" d="M146.176,-64C154.52,-64 163.077,-64 171.544,-64"/>
<polygon fill="midnightblue" stroke="midnightblue" points="171.808,-67.5001 181.808,-64 171.808,-60.5001 171.808,-67.5001"/>
</g>
<!-- Node4 -->
<g id="node4" class="node"><title>Node4</title>
<g id="a_node4"><a xlink:href="../../db/da5/classexpression_tree_1_1_expression_node.html#a25229591e36f2ce78394dff938a3ef54" target="_top" xlink:title="expressionTree.Expression\lNode.setRight">
<polygon fill="white" stroke="black" points="183.5,-0 183.5,-30 326.5,-30 326.5,-0 183.5,-0"/>
<text text-anchor="start" x="191.5" y="-18" font-family="Helvetica,sans-Serif" font-size="10.00">expressionTree.Expression</text>
<text text-anchor="middle" x="255" y="-7" font-family="Helvetica,sans-Serif" font-size="10.00">Node.setRight</text>
</a>
</g>
</g>
<!-- Node1&#45;&gt;Node4 -->
<g id="edge3" class="edge"><title>Node1&#45;&gt;Node4</title>
<path fill="none" stroke="midnightblue" d="M129.475,-48.8986C148.297,-43.7747 169.494,-38.0044 188.991,-32.6968"/>
<polygon fill="midnightblue" stroke="midnightblue" points="189.979,-36.0554 198.708,-30.0516 188.14,-29.3012 189.979,-36.0554"/>
</g>
</g>
</svg>
