<?xml version="1.0" encoding="UTF-8" standalone="no"?>
<!DOCTYPE svg PUBLIC "-//W3C//DTD SVG 1.1//EN"
 "http://www.w3.org/Graphics/SVG/1.1/DTD/svg11.dtd">
<!-- Generated by graphviz version 2.36.0 (20140111.2315)
 -->
<!-- Title: controlStructures.IfElse.makeInstructionList Pages: 1 -->
<svg width="526pt" height="111pt"
 viewBox="0.00 0.00 526.00 111.00" xmlns="http://www.w3.org/2000/svg" xmlns:xlink="http://www.w3.org/1999/xlink">
<g id="graph0" class="graph" transform="scale(1 1) rotate(0) translate(4 107)">
<title>controlStructures.IfElse.makeInstructionList</title>
<polygon fill="white" stroke="none" points="-4,4 -4,-107 522,-107 522,4 -4,4"/>
<!-- Node1 -->
<g id="node1" class="node"><title>Node1</title>
<polygon fill="#bfbfbf" stroke="black" points="0,-48 0,-78 158,-78 158,-48 0,-48"/>
<text text-anchor="start" x="8" y="-66" font-family="Helvetica,sans-Serif" font-size="10.00">controlStructures.IfElse.make</text>
<text text-anchor="middle" x="79" y="-55" font-family="Helvetica,sans-Serif" font-size="10.00">InstructionList</text>
</g>
<!-- Node2 -->
<g id="node2" class="node"><title>Node2</title>
<g id="a_node2"><a xlink:href="../../db/da5/classexpression_tree_1_1_expression_node.html#a189034630678dbe1dbb8805adbda2a96" target="_top" xlink:title="expressionTree.Expression\lNode.evaluate">
<polygon fill="white" stroke="black" points="194.5,-73 194.5,-103 337.5,-103 337.5,-73 194.5,-73"/>
<text text-anchor="start" x="202.5" y="-91" font-family="Helvetica,sans-Serif" font-size="10.00">expressionTree.Expression</text>
<text text-anchor="middle" x="266" y="-80" font-family="Helvetica,sans-Serif" font-size="10.00">Node.evaluate</text>
</a>
</g>
</g>
<!-- Node1&#45;&gt;Node2 -->
<g id="edge1" class="edge"><title>Node1&#45;&gt;Node2</title>
<path fill="none" stroke="midnightblue" d="M158.189,-73.566C166.836,-74.7346 175.654,-75.9262 184.331,-77.0988"/>
<polygon fill="midnightblue" stroke="midnightblue" points="184.055,-80.5932 194.434,-78.464 184.993,-73.6563 184.055,-80.5932"/>
</g>
<!-- Node3 -->
<g id="node3" class="node"><title>Node3</title>
<g id="a_node3"><a xlink:href="../../db/da5/classexpression_tree_1_1_expression_node.html#a784cb7e13acef3676fd7170ffe456432" target="_top" xlink:title="expressionTree.Expression\lNode.makeInstructionList">
<polygon fill="white" stroke="black" points="194.5,-24 194.5,-54 337.5,-54 337.5,-24 194.5,-24"/>
<text text-anchor="start" x="202.5" y="-42" font-family="Helvetica,sans-Serif" font-size="10.00">expressionTree.Expression</text>
<text text-anchor="middle" x="266" y="-31" font-family="Helvetica,sans-Serif" font-size="10.00">Node.makeInstructionList</text>
</a>
</g>
</g>
<!-- Node1&#45;&gt;Node3 -->
<g id="edge2" class="edge"><title>Node1&#45;&gt;Node3</title>
<path fill="none" stroke="midnightblue" d="M158.189,-52.8566C166.836,-51.7348 175.654,-50.5908 184.331,-49.4652"/>
<polygon fill="midnightblue" stroke="midnightblue" points="184.967,-52.9121 194.434,-48.1545 184.066,-45.9702 184.967,-52.9121"/>
</g>
<!-- Node4 -->
<g id="node4" class="node"><title>Node4</title>
<g id="a_node4"><a xlink:href="../../db/da5/classexpression_tree_1_1_expression_node.html#a76dbf0eda9446dbbe98827fb6ef33356" target="_top" xlink:title="expressionTree.Expression\lNode.getLeft">
<polygon fill="white" stroke="black" points="374.5,-49 374.5,-79 517.5,-79 517.5,-49 374.5,-49"/>
<text text-anchor="start" x="382.5" y="-67" font-family="Helvetica,sans-Serif" font-size="10.00">expressionTree.Expression</text>
<text text-anchor="middle" x="446" y="-56" font-family="Helvetica,sans-Serif" font-size="10.00">Node.getLeft</text>
</a>
</g>
</g>
<!-- Node3&#45;&gt;Node4 -->
<g id="edge3" class="edge"><title>Node3&#45;&gt;Node4</title>
<path fill="none" stroke="midnightblue" d="M337.606,-48.9166C346.421,-50.1547 355.488,-51.4281 364.441,-52.6855"/>
<polygon fill="midnightblue" stroke="midnightblue" points="364.09,-56.1705 374.479,-54.0954 365.063,-49.2385 364.09,-56.1705"/>
</g>
<!-- Node5 -->
<g id="node5" class="node"><title>Node5</title>
<g id="a_node5"><a xlink:href="../../db/da5/classexpression_tree_1_1_expression_node.html#a154ef8394f8f1a4f41d4842e72f0681e" target="_top" xlink:title="expressionTree.Expression\lNode.getRight">
<polygon fill="white" stroke="black" points="374.5,-0 374.5,-30 517.5,-30 517.5,-0 374.5,-0"/>
<text text-anchor="start" x="382.5" y="-18" font-family="Helvetica,sans-Serif" font-size="10.00">expressionTree.Expression</text>
<text text-anchor="middle" x="446" y="-7" font-family="Helvetica,sans-Serif" font-size="10.00">Node.getRight</text>
</a>
</g>
</g>
<!-- Node3&#45;&gt;Node5 -->
<g id="edge4" class="edge"><title>Node3&#45;&gt;Node5</title>
<path fill="none" stroke="midnightblue" d="M337.606,-29.4801C346.421,-28.2915 355.488,-27.069 364.441,-25.8619"/>
<polygon fill="midnightblue" stroke="midnightblue" points="365.037,-29.3133 374.479,-24.5084 364.101,-22.3761 365.037,-29.3133"/>
</g>
</g>
</svg>
