<?xml version="1.0" encoding="UTF-8" standalone="no"?>
<!DOCTYPE svg PUBLIC "-//W3C//DTD SVG 1.1//EN"
 "http://www.w3.org/Graphics/SVG/1.1/DTD/svg11.dtd">
<!-- Generated by graphviz version 2.36.0 (20140111.2315)
 -->
<!-- Title: displayCommands.DisplayNode Pages: 1 -->
<svg width="804pt" height="864pt"
 viewBox="0.00 0.00 804.00 864.00" xmlns="http://www.w3.org/2000/svg" xmlns:xlink="http://www.w3.org/1999/xlink">
<g id="graph0" class="graph" transform="scale(1 1) rotate(0) translate(4 860)">
<title>displayCommands.DisplayNode</title>
<polygon fill="white" stroke="none" points="-4,4 -4,-860 800,-860 800,4 -4,4"/>
<!-- Node1 -->
<g id="node1" class="node"><title>Node1</title>
<polygon fill="#bfbfbf" stroke="black" points="204,-418.5 204,-437.5 372,-437.5 372,-418.5 204,-418.5"/>
<text text-anchor="middle" x="288" y="-425.5" font-family="Helvetica,sans-Serif" font-size="10.00">displayCommands.DisplayNode</text>
</g>
<!-- Node3 -->
<g id="node3" class="node"><title>Node3</title>
<g id="a_node3"><a xlink:href="../../d3/db4/classcontrol_structures_1_1_repeat.html" target="_top" xlink:title="controlStructures.Repeat">
<polygon fill="white" stroke="black" points="431,-836.5 431,-855.5 567,-855.5 567,-836.5 431,-836.5"/>
<text text-anchor="middle" x="499" y="-843.5" font-family="Helvetica,sans-Serif" font-size="10.00">controlStructures.Repeat</text>
</a>
</g>
</g>
<!-- Node1&#45;&gt;Node3 -->
<g id="edge2" class="edge"><title>Node1&#45;&gt;Node3</title>
<path fill="none" stroke="midnightblue" d="M288.379,-447.67C287.477,-512.591 293.909,-721.879 408,-827 414.459,-832.952 422.297,-837.223 430.624,-840.261"/>
<polygon fill="midnightblue" stroke="midnightblue" points="291.88,-447.665 288.599,-437.591 284.882,-447.512 291.88,-447.665"/>
</g>
<!-- Node4 -->
<g id="node4" class="node"><title>Node4</title>
<g id="a_node4"><a xlink:href="../../dc/d9a/classdisplay_commands_1_1_ask.html" target="_top" xlink:title="displayCommands.Ask">
<polygon fill="white" stroke="black" points="436.5,-798.5 436.5,-817.5 561.5,-817.5 561.5,-798.5 436.5,-798.5"/>
<text text-anchor="middle" x="499" y="-805.5" font-family="Helvetica,sans-Serif" font-size="10.00">displayCommands.Ask</text>
</a>
</g>
</g>
<!-- Node1&#45;&gt;Node4 -->
<g id="edge3" class="edge"><title>Node1&#45;&gt;Node4</title>
<path fill="none" stroke="midnightblue" d="M289.094,-447.783C290.522,-508.795 303.614,-695.543 408,-789 415.971,-796.137 425.935,-800.839 436.302,-803.893"/>
<polygon fill="midnightblue" stroke="midnightblue" points="292.591,-447.559 288.942,-437.612 285.592,-447.664 292.591,-447.559"/>
</g>
<!-- Node5 -->
<g id="node5" class="node"><title>Node5</title>
<g id="a_node5"><a xlink:href="../../d0/d12/classdisplay_commands_1_1_ask_with.html" target="_top" xlink:title="displayCommands.AskWith">
<polygon fill="white" stroke="black" points="426,-760.5 426,-779.5 572,-779.5 572,-760.5 426,-760.5"/>
<text text-anchor="middle" x="499" y="-767.5" font-family="Helvetica,sans-Serif" font-size="10.00">displayCommands.AskWith</text>
</a>
</g>
</g>
<!-- Node1&#45;&gt;Node5 -->
<g id="edge4" class="edge"><title>Node1&#45;&gt;Node5</title>
<path fill="none" stroke="midnightblue" d="M289.975,-447.943C293.887,-504.837 313.265,-669.088 408,-751 413.315,-755.596 419.462,-759.173 425.998,-761.946"/>
<polygon fill="midnightblue" stroke="midnightblue" points="293.457,-447.548 289.367,-437.775 286.47,-447.966 293.457,-447.548"/>
</g>
<!-- Node6 -->
<g id="node6" class="node"><title>Node6</title>
<g id="a_node6"><a xlink:href="../../de/dfe/classdisplay_commands_1_1_backward.html" target="_top" xlink:title="displayCommands.Backward">
<polygon fill="white" stroke="black" points="422,-722.5 422,-741.5 576,-741.5 576,-722.5 422,-722.5"/>
<text text-anchor="middle" x="499" y="-729.5" font-family="Helvetica,sans-Serif" font-size="10.00">displayCommands.Backward</text>
</a>
</g>
</g>
<!-- Node1&#45;&gt;Node6 -->
<g id="edge5" class="edge"><title>Node1&#45;&gt;Node6</title>
<path fill="none" stroke="midnightblue" d="M291.031,-447.679C297.513,-499.802 322.588,-642.268 408,-713 412.551,-716.769 417.666,-719.845 423.088,-722.35"/>
<polygon fill="midnightblue" stroke="midnightblue" points="294.507,-447.264 289.888,-437.729 287.552,-448.063 294.507,-447.264"/>
</g>
<!-- Node7 -->
<g id="node7" class="node"><title>Node7</title>
<g id="a_node7"><a xlink:href="../../dd/d33/classdisplay_commands_1_1_clear_objects.html" target="_top" xlink:title="displayCommands.ClearObjects">
<polygon fill="white" stroke="black" points="414.5,-684.5 414.5,-703.5 583.5,-703.5 583.5,-684.5 414.5,-684.5"/>
<text text-anchor="middle" x="499" y="-691.5" font-family="Helvetica,sans-Serif" font-size="10.00">displayCommands.ClearObjects</text>
</a>
</g>
</g>
<!-- Node1&#45;&gt;Node7 -->
<g id="edge6" class="edge"><title>Node1&#45;&gt;Node7</title>
<path fill="none" stroke="midnightblue" d="M292.383,-447.565C301.625,-494.752 331.881,-615.319 408,-675 412.901,-678.843 418.398,-681.956 424.195,-684.472"/>
<polygon fill="midnightblue" stroke="midnightblue" points="295.819,-446.894 290.553,-437.7 288.936,-448.171 295.819,-446.894"/>
</g>
<!-- Node10 -->
<g id="node10" class="node"><title>Node10</title>
<g id="a_node10"><a xlink:href="../../d2/dcc/classdisplay_commands_1_1_forward.html" target="_top" xlink:title="displayCommands.Forward">
<polygon fill="white" stroke="black" points="426,-646.5 426,-665.5 572,-665.5 572,-646.5 426,-646.5"/>
<text text-anchor="middle" x="499" y="-653.5" font-family="Helvetica,sans-Serif" font-size="10.00">displayCommands.Forward</text>
</a>
</g>
</g>
<!-- Node1&#45;&gt;Node10 -->
<g id="edge9" class="edge"><title>Node1&#45;&gt;Node10</title>
<path fill="none" stroke="midnightblue" d="M294.223,-447.637C306.459,-489.606 341.134,-588.182 408,-637 413.417,-640.955 419.479,-644.123 425.829,-646.657"/>
<polygon fill="midnightblue" stroke="midnightblue" points="297.54,-446.504 291.473,-437.818 290.799,-448.391 297.54,-446.504"/>
</g>
<!-- Node11 -->
<g id="node11" class="node"><title>Node11</title>
<g id="a_node11"><a xlink:href="../../de/da2/classdisplay_commands_1_1_hide_turtle.html" target="_top" xlink:title="displayCommands.HideTurtle">
<polygon fill="white" stroke="black" points="421.5,-608.5 421.5,-627.5 576.5,-627.5 576.5,-608.5 421.5,-608.5"/>
<text text-anchor="middle" x="499" y="-615.5" font-family="Helvetica,sans-Serif" font-size="10.00">displayCommands.HideTurtle</text>
</a>
</g>
</g>
<!-- Node1&#45;&gt;Node11 -->
<g id="edge10" class="edge"><title>Node1&#45;&gt;Node11</title>
<path fill="none" stroke="midnightblue" d="M296.514,-446.989C311.746,-482.861 349.833,-560.437 408,-599 413.856,-602.883 420.358,-605.992 427.111,-608.479"/>
<polygon fill="midnightblue" stroke="midnightblue" points="299.718,-445.577 292.674,-437.663 293.245,-448.243 299.718,-445.577"/>
</g>
<!-- Node12 -->
<g id="node12" class="node"><title>Node12</title>
<g id="a_node12"><a xlink:href="../../d7/d1e/classdisplay_commands_1_1_home.html" target="_top" xlink:title="displayCommands.Home">
<polygon fill="white" stroke="black" points="430.5,-570.5 430.5,-589.5 567.5,-589.5 567.5,-570.5 430.5,-570.5"/>
<text text-anchor="middle" x="499" y="-577.5" font-family="Helvetica,sans-Serif" font-size="10.00">displayCommands.Home</text>
</a>
</g>
</g>
<!-- Node1&#45;&gt;Node12 -->
<g id="edge11" class="edge"><title>Node1&#45;&gt;Node12</title>
<path fill="none" stroke="midnightblue" d="M299.911,-446.356C318.3,-475.574 358.364,-532.284 408,-561 414.911,-564.998 422.556,-568.16 430.385,-570.658"/>
<polygon fill="midnightblue" stroke="midnightblue" points="302.738,-444.271 294.523,-437.581 296.773,-447.934 302.738,-444.271"/>
</g>
<!-- Node13 -->
<g id="node13" class="node"><title>Node13</title>
<g id="a_node13"><a xlink:href="../../d3/d7b/classdisplay_commands_1_1_left.html" target="_top" xlink:title="displayCommands.Left">
<polygon fill="white" stroke="black" points="436,-532.5 436,-551.5 562,-551.5 562,-532.5 436,-532.5"/>
<text text-anchor="middle" x="499" y="-539.5" font-family="Helvetica,sans-Serif" font-size="10.00">displayCommands.Left</text>
</a>
</g>
</g>
<!-- Node1&#45;&gt;Node13 -->
<g id="edge12" class="edge"><title>Node1&#45;&gt;Node13</title>
<path fill="none" stroke="midnightblue" d="M304.796,-444.746C326.117,-466.299 366.266,-503.307 408,-523 416.665,-527.089 426.213,-530.305 435.753,-532.832"/>
<polygon fill="midnightblue" stroke="midnightblue" points="307.301,-442.302 297.824,-437.566 302.279,-447.178 307.301,-442.302"/>
</g>
<!-- Node14 -->
<g id="node14" class="node"><title>Node14</title>
<g id="a_node14"><a xlink:href="../../dd/dcb/classdisplay_commands_1_1_pencolor.html" target="_top" xlink:title="displayCommands.Pencolor">
<polygon fill="white" stroke="black" points="424.5,-494.5 424.5,-513.5 573.5,-513.5 573.5,-494.5 424.5,-494.5"/>
<text text-anchor="middle" x="499" y="-501.5" font-family="Helvetica,sans-Serif" font-size="10.00">displayCommands.Pencolor</text>
</a>
</g>
</g>
<!-- Node1&#45;&gt;Node14 -->
<g id="edge13" class="edge"><title>Node1&#45;&gt;Node14</title>
<path fill="none" stroke="midnightblue" d="M314.8,-442.581C338.408,-455.379 374.638,-473.67 408,-485 418.887,-488.697 430.77,-491.818 442.226,-494.393"/>
<polygon fill="midnightblue" stroke="midnightblue" points="316.25,-439.385 305.801,-437.637 312.88,-445.52 316.25,-439.385"/>
</g>
<!-- Node15 -->
<g id="node15" class="node"><title>Node15</title>
<g id="a_node15"><a xlink:href="../../d6/dc9/classdisplay_commands_1_1_pen_down.html" target="_top" xlink:title="displayCommands.PenDown">
<polygon fill="white" stroke="black" points="423,-456.5 423,-475.5 575,-475.5 575,-456.5 423,-456.5"/>
<text text-anchor="middle" x="499" y="-463.5" font-family="Helvetica,sans-Serif" font-size="10.00">displayCommands.PenDown</text>
</a>
</g>
</g>
<!-- Node1&#45;&gt;Node15 -->
<g id="edge14" class="edge"><title>Node1&#45;&gt;Node15</title>
<path fill="none" stroke="midnightblue" d="M351.408,-439.347C381.395,-444.799 416.934,-451.261 445.509,-456.456"/>
<polygon fill="midnightblue" stroke="midnightblue" points="351.935,-435.885 341.47,-437.54 350.682,-442.772 351.935,-435.885"/>
</g>
<!-- Node16 -->
<g id="node16" class="node"><title>Node16</title>
<g id="a_node16"><a xlink:href="../../d5/d95/classdisplay_commands_1_1_pen_up.html" target="_top" xlink:title="displayCommands.PenUp">
<polygon fill="white" stroke="black" points="429,-418.5 429,-437.5 569,-437.5 569,-418.5 429,-418.5"/>
<text text-anchor="middle" x="499" y="-425.5" font-family="Helvetica,sans-Serif" font-size="10.00">displayCommands.PenUp</text>
</a>
</g>
</g>
<!-- Node1&#45;&gt;Node16 -->
<g id="edge15" class="edge"><title>Node1&#45;&gt;Node16</title>
<path fill="none" stroke="midnightblue" d="M382.406,-428C398.028,-428 413.985,-428 428.858,-428"/>
<polygon fill="midnightblue" stroke="midnightblue" points="382.203,-424.5 372.203,-428 382.203,-431.5 382.203,-424.5"/>
</g>
<!-- Node17 -->
<g id="node17" class="node"><title>Node17</title>
<g id="a_node17"><a xlink:href="../../d6/d3d/classdisplay_commands_1_1_right.html" target="_top" xlink:title="displayCommands.Right">
<polygon fill="white" stroke="black" points="433,-380.5 433,-399.5 565,-399.5 565,-380.5 433,-380.5"/>
<text text-anchor="middle" x="499" y="-387.5" font-family="Helvetica,sans-Serif" font-size="10.00">displayCommands.Right</text>
</a>
</g>
</g>
<!-- Node1&#45;&gt;Node17 -->
<g id="edge16" class="edge"><title>Node1&#45;&gt;Node17</title>
<path fill="none" stroke="midnightblue" d="M351.408,-416.653C381.395,-411.201 416.934,-404.739 445.509,-399.544"/>
<polygon fill="midnightblue" stroke="midnightblue" points="350.682,-413.228 341.47,-418.46 351.935,-420.115 350.682,-413.228"/>
</g>
<!-- Node18 -->
<g id="node18" class="node"><title>Node18</title>
<g id="a_node18"><a xlink:href="../../d1/dae/classdisplay_commands_1_1_set_background.html" target="_top" xlink:title="displayCommands.SetBackground">
<polygon fill="white" stroke="black" points="408,-342.5 408,-361.5 590,-361.5 590,-342.5 408,-342.5"/>
<text text-anchor="middle" x="499" y="-349.5" font-family="Helvetica,sans-Serif" font-size="10.00">displayCommands.SetBackground</text>
</a>
</g>
</g>
<!-- Node1&#45;&gt;Node18 -->
<g id="edge17" class="edge"><title>Node1&#45;&gt;Node18</title>
<path fill="none" stroke="midnightblue" d="M314.8,-413.419C338.408,-400.621 374.638,-382.33 408,-371 418.887,-367.303 430.77,-364.182 442.226,-361.607"/>
<polygon fill="midnightblue" stroke="midnightblue" points="312.88,-410.48 305.801,-418.363 316.25,-416.615 312.88,-410.48"/>
</g>
<!-- Node19 -->
<g id="node19" class="node"><title>Node19</title>
<g id="a_node19"><a xlink:href="../../dd/dc2/classdisplay_commands_1_1_set_palette.html" target="_top" xlink:title="displayCommands.SetPalette">
<polygon fill="white" stroke="black" points="420,-304.5 420,-323.5 578,-323.5 578,-304.5 420,-304.5"/>
<text text-anchor="middle" x="499" y="-311.5" font-family="Helvetica,sans-Serif" font-size="10.00">displayCommands.SetPalette</text>
</a>
</g>
</g>
<!-- Node1&#45;&gt;Node19 -->
<g id="edge18" class="edge"><title>Node1&#45;&gt;Node19</title>
<path fill="none" stroke="midnightblue" d="M304.796,-411.254C326.117,-389.701 366.266,-352.693 408,-333 416.232,-329.116 425.26,-326.019 434.322,-323.552"/>
<polygon fill="midnightblue" stroke="midnightblue" points="302.279,-408.822 297.824,-418.434 307.301,-413.698 302.279,-408.822"/>
</g>
<!-- Node20 -->
<g id="node20" class="node"><title>Node20</title>
<g id="a_node20"><a xlink:href="../../d7/d5b/classdisplay_commands_1_1_set_pen_color.html" target="_top" xlink:title="displayCommands.SetPenColor">
<polygon fill="white" stroke="black" points="415.5,-266.5 415.5,-285.5 582.5,-285.5 582.5,-266.5 415.5,-266.5"/>
<text text-anchor="middle" x="499" y="-273.5" font-family="Helvetica,sans-Serif" font-size="10.00">displayCommands.SetPenColor</text>
</a>
</g>
</g>
<!-- Node1&#45;&gt;Node20 -->
<g id="edge19" class="edge"><title>Node1&#45;&gt;Node20</title>
<path fill="none" stroke="midnightblue" d="M299.911,-409.644C318.3,-380.426 358.364,-323.716 408,-295 414.635,-291.162 421.946,-288.095 429.446,-285.645"/>
<polygon fill="midnightblue" stroke="midnightblue" points="296.773,-408.066 294.523,-418.419 302.738,-411.729 296.773,-408.066"/>
</g>
<!-- Node21 -->
<g id="node21" class="node"><title>Node21</title>
<g id="a_node21"><a xlink:href="../../dc/df4/classdisplay_commands_1_1_set_pen_size.html" target="_top" xlink:title="displayCommands.SetPenSize">
<polygon fill="white" stroke="black" points="417.5,-228.5 417.5,-247.5 580.5,-247.5 580.5,-228.5 417.5,-228.5"/>
<text text-anchor="middle" x="499" y="-235.5" font-family="Helvetica,sans-Serif" font-size="10.00">displayCommands.SetPenSize</text>
</a>
</g>
</g>
<!-- Node1&#45;&gt;Node21 -->
<g id="edge20" class="edge"><title>Node1&#45;&gt;Node21</title>
<path fill="none" stroke="midnightblue" d="M296.514,-409.011C311.746,-373.139 349.833,-295.563 408,-257 413.856,-253.117 420.358,-250.008 427.111,-247.521"/>
<polygon fill="midnightblue" stroke="midnightblue" points="293.245,-407.757 292.674,-418.337 299.718,-410.423 293.245,-407.757"/>
</g>
<!-- Node22 -->
<g id="node22" class="node"><title>Node22</title>
<g id="a_node22"><a xlink:href="../../da/d72/classdisplay_commands_1_1_set_shape.html" target="_top" xlink:title="displayCommands.SetShape">
<polygon fill="white" stroke="black" points="421.5,-190.5 421.5,-209.5 576.5,-209.5 576.5,-190.5 421.5,-190.5"/>
<text text-anchor="middle" x="499" y="-197.5" font-family="Helvetica,sans-Serif" font-size="10.00">displayCommands.SetShape</text>
</a>
</g>
</g>
<!-- Node1&#45;&gt;Node22 -->
<g id="edge21" class="edge"><title>Node1&#45;&gt;Node22</title>
<path fill="none" stroke="midnightblue" d="M294.223,-408.363C306.459,-366.394 341.134,-267.818 408,-219 413.288,-215.139 419.191,-212.028 425.376,-209.525"/>
<polygon fill="midnightblue" stroke="midnightblue" points="290.799,-407.609 291.473,-418.182 297.54,-409.496 290.799,-407.609"/>
</g>
<!-- Node23 -->
<g id="node23" class="node"><title>Node23</title>
<g id="a_node23"><a xlink:href="../../d6/d8f/classdisplay_commands_1_1_set_towards.html" target="_top" xlink:title="displayCommands.SetTowards">
<polygon fill="white" stroke="black" points="418,-152.5 418,-171.5 580,-171.5 580,-152.5 418,-152.5"/>
<text text-anchor="middle" x="499" y="-159.5" font-family="Helvetica,sans-Serif" font-size="10.00">displayCommands.SetTowards</text>
</a>
</g>
</g>
<!-- Node1&#45;&gt;Node23 -->
<g id="edge22" class="edge"><title>Node1&#45;&gt;Node23</title>
<path fill="none" stroke="midnightblue" d="M292.383,-408.435C301.625,-361.248 331.881,-240.681 408,-181 412.901,-177.157 418.398,-174.044 424.195,-171.528"/>
<polygon fill="midnightblue" stroke="midnightblue" points="288.936,-407.829 290.553,-418.3 295.819,-409.106 288.936,-407.829"/>
</g>
<!-- Node24 -->
<g id="node24" class="node"><title>Node24</title>
<g id="a_node24"><a xlink:href="../../d4/de5/classdisplay_commands_1_1_shape.html" target="_top" xlink:title="displayCommands.Shape">
<polygon fill="white" stroke="black" points="429.5,-114.5 429.5,-133.5 568.5,-133.5 568.5,-114.5 429.5,-114.5"/>
<text text-anchor="middle" x="499" y="-121.5" font-family="Helvetica,sans-Serif" font-size="10.00">displayCommands.Shape</text>
</a>
</g>
</g>
<!-- Node1&#45;&gt;Node24 -->
<g id="edge23" class="edge"><title>Node1&#45;&gt;Node24</title>
<path fill="none" stroke="midnightblue" d="M291.031,-408.321C297.513,-356.198 322.588,-213.732 408,-143 414.273,-137.805 421.618,-133.926 429.36,-131.045"/>
<polygon fill="midnightblue" stroke="midnightblue" points="287.552,-407.937 289.888,-418.271 294.507,-408.736 287.552,-407.937"/>
</g>
<!-- Node25 -->
<g id="node25" class="node"><title>Node25</title>
<g id="a_node25"><a xlink:href="../../d0/d7f/classdisplay_commands_1_1_show_turtle.html" target="_top" xlink:title="displayCommands.ShowTurtle">
<polygon fill="white" stroke="black" points="419.5,-76.5 419.5,-95.5 578.5,-95.5 578.5,-76.5 419.5,-76.5"/>
<text text-anchor="middle" x="499" y="-83.5" font-family="Helvetica,sans-Serif" font-size="10.00">displayCommands.ShowTurtle</text>
</a>
</g>
</g>
<!-- Node1&#45;&gt;Node25 -->
<g id="edge24" class="edge"><title>Node1&#45;&gt;Node25</title>
<path fill="none" stroke="midnightblue" d="M289.975,-408.057C293.887,-351.163 313.265,-186.912 408,-105 412.349,-101.24 417.254,-98.1615 422.474,-95.6476"/>
<polygon fill="midnightblue" stroke="midnightblue" points="286.47,-408.034 289.367,-418.225 293.457,-408.452 286.47,-408.034"/>
</g>
<!-- Node26 -->
<g id="node26" class="node"><title>Node26</title>
<g id="a_node26"><a xlink:href="../../d7/daf/classdisplay_commands_1_1_stamp.html" target="_top" xlink:title="displayCommands.Stamp">
<polygon fill="white" stroke="black" points="429,-38.5 429,-57.5 569,-57.5 569,-38.5 429,-38.5"/>
<text text-anchor="middle" x="499" y="-45.5" font-family="Helvetica,sans-Serif" font-size="10.00">displayCommands.Stamp</text>
</a>
</g>
</g>
<!-- Node1&#45;&gt;Node26 -->
<g id="edge25" class="edge"><title>Node1&#45;&gt;Node26</title>
<path fill="none" stroke="midnightblue" d="M289.094,-408.217C290.522,-347.205 303.614,-160.457 408,-67 414.068,-61.5675 421.29,-57.5454 428.966,-54.5874"/>
<polygon fill="midnightblue" stroke="midnightblue" points="285.592,-408.336 288.942,-418.388 292.591,-408.441 285.592,-408.336"/>
</g>
<!-- Node27 -->
<g id="node27" class="node"><title>Node27</title>
<g id="a_node27"><a xlink:href="../../d9/d2b/classdisplay_commands_1_1_tell.html" target="_top" xlink:title="displayCommands.Tell">
<polygon fill="white" stroke="black" points="438,-0.5 438,-19.5 560,-19.5 560,-0.5 438,-0.5"/>
<text text-anchor="middle" x="499" y="-7.5" font-family="Helvetica,sans-Serif" font-size="10.00">displayCommands.Tell</text>
</a>
</g>
</g>
<!-- Node1&#45;&gt;Node27 -->
<g id="edge26" class="edge"><title>Node1&#45;&gt;Node27</title>
<path fill="none" stroke="midnightblue" d="M288.379,-408.33C287.477,-343.409 293.909,-134.121 408,-29 416.338,-21.3171 426.974,-16.4344 437.992,-13.3895"/>
<polygon fill="midnightblue" stroke="midnightblue" points="284.882,-408.488 288.599,-418.409 291.88,-408.335 284.882,-408.488"/>
</g>
<!-- Node2 -->
<g id="node2" class="node"><title>Node2</title>
<g id="a_node2"><a xlink:href="../../db/da5/classexpression_tree_1_1_expression_node.html" target="_top" xlink:title="expressionTree.ExpressionNode">
<polygon fill="white" stroke="black" points="0,-418.5 0,-437.5 168,-437.5 168,-418.5 0,-418.5"/>
<text text-anchor="middle" x="84" y="-425.5" font-family="Helvetica,sans-Serif" font-size="10.00">expressionTree.ExpressionNode</text>
</a>
</g>
</g>
<!-- Node2&#45;&gt;Node1 -->
<g id="edge1" class="edge"><title>Node2&#45;&gt;Node1</title>
<path fill="none" stroke="midnightblue" d="M178.109,-428C186.734,-428 195.435,-428 203.96,-428"/>
<polygon fill="midnightblue" stroke="midnightblue" points="178.036,-424.5 168.036,-428 178.036,-431.5 178.036,-424.5"/>
</g>
<!-- Node8 -->
<g id="node8" class="node"><title>Node8</title>
<g id="a_node8"><a xlink:href="../../d6/dc6/classdisplay_commands_1_1_clear_screen.html" target="_top" xlink:title="displayCommands.ClearScreen">
<polygon fill="white" stroke="black" points="627.5,-703.5 627.5,-722.5 794.5,-722.5 794.5,-703.5 627.5,-703.5"/>
<text text-anchor="middle" x="711" y="-710.5" font-family="Helvetica,sans-Serif" font-size="10.00">displayCommands.ClearScreen</text>
</a>
</g>
</g>
<!-- Node7&#45;&gt;Node8 -->
<g id="edge7" class="edge"><title>Node7&#45;&gt;Node8</title>
<path fill="none" stroke="midnightblue" d="M593.812,-702.488C604.999,-703.5 616.358,-704.528 627.372,-705.524"/>
<polygon fill="midnightblue" stroke="midnightblue" points="593.876,-698.979 583.601,-701.564 593.245,-705.951 593.876,-698.979"/>
</g>
<!-- Node9 -->
<g id="node9" class="node"><title>Node9</title>
<g id="a_node9"><a xlink:href="../../dc/d6d/classdisplay_commands_1_1_clear_stamps.html" target="_top" xlink:title="displayCommands.ClearStamps">
<polygon fill="white" stroke="black" points="626,-665.5 626,-684.5 796,-684.5 796,-665.5 626,-665.5"/>
<text text-anchor="middle" x="711" y="-672.5" font-family="Helvetica,sans-Serif" font-size="10.00">displayCommands.ClearStamps</text>
</a>
</g>
</g>
<!-- Node7&#45;&gt;Node9 -->
<g id="edge8" class="edge"><title>Node7&#45;&gt;Node9</title>
<path fill="none" stroke="midnightblue" d="M593.733,-685.519C604.366,-684.557 615.155,-683.581 625.657,-682.631"/>
<polygon fill="midnightblue" stroke="midnightblue" points="593.245,-682.049 583.601,-686.436 593.876,-689.021 593.245,-682.049"/>
</g>
</g>
</svg>
