<?xml version="1.0" encoding="UTF-8" standalone="no"?>
<!DOCTYPE svg PUBLIC "-//W3C//DTD SVG 1.1//EN"
 "http://www.w3.org/Graphics/SVG/1.1/DTD/svg11.dtd">
<!-- Generated by graphviz version 2.36.0 (20140111.2315)
 -->
<!-- Title: frontend.AbstractFeatures.SLogoDropDown.doDropDownClickAction Pages: 1 -->
<svg width="402pt" height="38pt"
 viewBox="0.00 0.00 402.00 38.00" xmlns="http://www.w3.org/2000/svg" xmlns:xlink="http://www.w3.org/1999/xlink">
<g id="graph0" class="graph" transform="scale(1 1) rotate(0) translate(4 34)">
<title>frontend.AbstractFeatures.SLogoDropDown.doDropDownClickAction</title>
<polygon fill="white" stroke="none" points="-4,4 -4,-34 398,-34 398,4 -4,4"/>
<!-- Node1 -->
<g id="node1" class="node"><title>Node1</title>
<polygon fill="#bfbfbf" stroke="black" points="0,-0 0,-30 212,-30 212,-0 0,-0"/>
<text text-anchor="start" x="8" y="-18" font-family="Helvetica,sans-Serif" font-size="10.00">frontend.AbstractFeatures.</text>
<text text-anchor="middle" x="106" y="-7" font-family="Helvetica,sans-Serif" font-size="10.00">SLogoDropDown.doDropDownClickAction</text>
</g>
<!-- Node2 -->
<g id="node2" class="node"><title>Node2</title>
<g id="a_node2"><a xlink:href="../../d1/de3/classfrontend_1_1_abstract_features_1_1_s_logo_drop_down.html#afb413f03292821c9c46638e17ad1ad2d" target="_top" xlink:title="frontend.AbstractFeatures.\lSLogoDropDown.makeTool">
<polygon fill="white" stroke="black" points="248.5,-0 248.5,-30 393.5,-30 393.5,-0 248.5,-0"/>
<text text-anchor="start" x="256.5" y="-18" font-family="Helvetica,sans-Serif" font-size="10.00">frontend.AbstractFeatures.</text>
<text text-anchor="middle" x="321" y="-7" font-family="Helvetica,sans-Serif" font-size="10.00">SLogoDropDown.makeTool</text>
</a>
</g>
</g>
<!-- Node1&#45;&gt;Node2 -->
<g id="edge1" class="edge"><title>Node1&#45;&gt;Node2</title>
<path fill="none" stroke="midnightblue" d="M222.303,-15C231.186,-15 239.987,-15 248.456,-15"/>
<polygon fill="midnightblue" stroke="midnightblue" points="222.252,-11.5001 212.252,-15 222.252,-18.5001 222.252,-11.5001"/>
</g>
</g>
</svg>
