<?xml version="1.0" encoding="UTF-8" standalone="no"?>
<!DOCTYPE svg PUBLIC "-//W3C//DTD SVG 1.1//EN"
 "http://www.w3.org/Graphics/SVG/1.1/DTD/svg11.dtd">
<!-- Generated by graphviz version 2.36.0 (20140111.2315)
 -->
<!-- Title: frontend.AbstractFeatures.SLogoDropDown.SLogoDropDown Pages: 1 -->
<svg width="372pt" height="38pt"
 viewBox="0.00 0.00 372.00 38.00" xmlns="http://www.w3.org/2000/svg" xmlns:xlink="http://www.w3.org/1999/xlink">
<g id="graph0" class="graph" transform="scale(1 1) rotate(0) translate(4 34)">
<title>frontend.AbstractFeatures.SLogoDropDown.SLogoDropDown</title>
<polygon fill="white" stroke="none" points="-4,4 -4,-34 368,-34 368,4 -4,4"/>
<!-- Node1 -->
<g id="node1" class="node"><title>Node1</title>
<polygon fill="#bfbfbf" stroke="black" points="0.5,-0 0.5,-30 179.5,-30 179.5,-0 0.5,-0"/>
<text text-anchor="start" x="8.5" y="-18" font-family="Helvetica,sans-Serif" font-size="10.00">frontend.AbstractFeatures.</text>
<text text-anchor="middle" x="90" y="-7" font-family="Helvetica,sans-Serif" font-size="10.00">SLogoDropDown.SLogoDropDown</text>
</g>
<!-- Node2 -->
<g id="node2" class="node"><title>Node2</title>
<g id="a_node2"><a xlink:href="../../d1/de3/classfrontend_1_1_abstract_features_1_1_s_logo_drop_down.html#ad7d14f0d535a98ae332adc3b3d6bbab3" target="_top" xlink:title="frontend.AbstractFeatures.\lSLogoDropDown.fillItemList">
<polygon fill="white" stroke="black" points="216.5,-0 216.5,-30 363.5,-30 363.5,-0 216.5,-0"/>
<text text-anchor="start" x="224.5" y="-18" font-family="Helvetica,sans-Serif" font-size="10.00">frontend.AbstractFeatures.</text>
<text text-anchor="middle" x="290" y="-7" font-family="Helvetica,sans-Serif" font-size="10.00">SLogoDropDown.fillItemList</text>
</a>
</g>
</g>
<!-- Node1&#45;&gt;Node2 -->
<g id="edge1" class="edge"><title>Node1&#45;&gt;Node2</title>
<path fill="none" stroke="midnightblue" d="M179.576,-15C188.383,-15 197.301,-15 206.047,-15"/>
<polygon fill="midnightblue" stroke="midnightblue" points="206.219,-18.5001 216.219,-15 206.219,-11.5001 206.219,-18.5001"/>
</g>
</g>
</svg>
