<?xml version="1.0" encoding="UTF-8" standalone="no"?>
<!DOCTYPE svg PUBLIC "-//W3C//DTD SVG 1.1//EN"
 "http://www.w3.org/Graphics/SVG/1.1/DTD/svg11.dtd">
<!-- Generated by graphviz version 2.36.0 (20140111.2315)
 -->
<!-- Title: frontend.ConcreteFeatures.CurrentVariablesWindow.updatePane Pages: 1 -->
<svg width="602pt" height="185pt"
 viewBox="0.00 0.00 602.00 185.00" xmlns="http://www.w3.org/2000/svg" xmlns:xlink="http://www.w3.org/1999/xlink">
<g id="graph0" class="graph" transform="scale(1 1) rotate(0) translate(4 181)">
<title>frontend.ConcreteFeatures.CurrentVariablesWindow.updatePane</title>
<polygon fill="white" stroke="none" points="-4,4 -4,-181 598,-181 598,4 -4,4"/>
<!-- Node1 -->
<g id="node1" class="node"><title>Node1</title>
<polygon fill="#bfbfbf" stroke="black" points="0.5,-73 0.5,-103 191.5,-103 191.5,-73 0.5,-73"/>
<text text-anchor="start" x="8.5" y="-91" font-family="Helvetica,sans-Serif" font-size="10.00">frontend.ConcreteFeatures.</text>
<text text-anchor="middle" x="96" y="-80" font-family="Helvetica,sans-Serif" font-size="10.00">CurrentVariablesWindow.updatePane</text>
</g>
<!-- Node2 -->
<g id="node2" class="node"><title>Node2</title>
<g id="a_node2"><a xlink:href="../../d4/d83/classexpression_tree_1_1_variable_node.html#ab796c0a24b78271ecf015e92481d035b" target="_top" xlink:title="expressionTree.VariableNode.get\lValue">
<polygon fill="white" stroke="black" points="228.5,-147 228.5,-177 401.5,-177 401.5,-147 228.5,-147"/>
<text text-anchor="start" x="236.5" y="-165" font-family="Helvetica,sans-Serif" font-size="10.00">expressionTree.VariableNode.get</text>
<text text-anchor="middle" x="315" y="-154" font-family="Helvetica,sans-Serif" font-size="10.00">Value</text>
</a>
</g>
</g>
<!-- Node1&#45;&gt;Node2 -->
<g id="edge1" class="edge"><title>Node1&#45;&gt;Node2</title>
<path fill="none" stroke="midnightblue" d="M134.852,-103.018C160.872,-113.129 196.312,-126.484 228,-137 235.08,-139.35 242.527,-141.696 249.954,-143.959"/>
<polygon fill="midnightblue" stroke="midnightblue" points="249.091,-147.354 259.675,-146.879 251.104,-140.65 249.091,-147.354"/>
</g>
<!-- Node3 -->
<g id="node3" class="node"><title>Node3</title>
<g id="a_node3"><a xlink:href="../../de/d4e/classexpression_tree_1_1_variable_node_map.html#a4855134d1fd875836c2c9944ec2079f4" target="_top" xlink:title="expressionTree.VariableNode\lMap.getVariable">
<polygon fill="white" stroke="black" points="237.5,-98 237.5,-128 392.5,-128 392.5,-98 237.5,-98"/>
<text text-anchor="start" x="245.5" y="-116" font-family="Helvetica,sans-Serif" font-size="10.00">expressionTree.VariableNode</text>
<text text-anchor="middle" x="315" y="-105" font-family="Helvetica,sans-Serif" font-size="10.00">Map.getVariable</text>
</a>
</g>
</g>
<!-- Node1&#45;&gt;Node3 -->
<g id="edge2" class="edge"><title>Node1&#45;&gt;Node3</title>
<path fill="none" stroke="midnightblue" d="M191.548,-98.8926C203.385,-100.256 215.448,-101.646 227.159,-102.995"/>
<polygon fill="midnightblue" stroke="midnightblue" points="227.011,-106.501 237.346,-104.169 227.812,-99.5473 227.011,-106.501"/>
</g>
<!-- Node5 -->
<g id="node5" class="node"><title>Node5</title>
<g id="a_node5"><a xlink:href="../../de/d4e/classexpression_tree_1_1_variable_node_map.html#afa5500d8a01c92260f32d787c802b802" target="_top" xlink:title="expressionTree.VariableNode\lMap.getVariableNodeMap">
<polygon fill="white" stroke="black" points="237.5,-49 237.5,-79 392.5,-79 392.5,-49 237.5,-49"/>
<text text-anchor="start" x="245.5" y="-67" font-family="Helvetica,sans-Serif" font-size="10.00">expressionTree.VariableNode</text>
<text text-anchor="middle" x="315" y="-56" font-family="Helvetica,sans-Serif" font-size="10.00">Map.getVariableNodeMap</text>
</a>
</g>
</g>
<!-- Node1&#45;&gt;Node5 -->
<g id="edge4" class="edge"><title>Node1&#45;&gt;Node5</title>
<path fill="none" stroke="midnightblue" d="M191.548,-77.5431C203.385,-76.2339 215.448,-74.8998 227.159,-73.6045"/>
<polygon fill="midnightblue" stroke="midnightblue" points="227.791,-77.056 237.346,-72.4779 227.022,-70.0984 227.791,-77.056"/>
</g>
<!-- Node6 -->
<g id="node6" class="node"><title>Node6</title>
<g id="a_node6"><a xlink:href="../../de/d4e/classexpression_tree_1_1_variable_node_map.html#a3084617a836630c5e2e01ca1ba78ecd2" target="_top" xlink:title="expressionTree.VariableNode\lMap.keySet">
<polygon fill="white" stroke="black" points="237.5,-0 237.5,-30 392.5,-30 392.5,-0 237.5,-0"/>
<text text-anchor="start" x="245.5" y="-18" font-family="Helvetica,sans-Serif" font-size="10.00">expressionTree.VariableNode</text>
<text text-anchor="middle" x="315" y="-7" font-family="Helvetica,sans-Serif" font-size="10.00">Map.keySet</text>
</a>
</g>
</g>
<!-- Node1&#45;&gt;Node6 -->
<g id="edge5" class="edge"><title>Node1&#45;&gt;Node6</title>
<path fill="none" stroke="midnightblue" d="M136.022,-72.9084C161.942,-63.0805 196.815,-50.2326 228,-40 235.271,-37.614 242.926,-35.2214 250.547,-32.9129"/>
<polygon fill="midnightblue" stroke="midnightblue" points="251.573,-36.2591 260.151,-30.0406 249.568,-29.5526 251.573,-36.2591"/>
</g>
<!-- Node4 -->
<g id="node4" class="node"><title>Node4</title>
<g id="a_node4"><a xlink:href="../../de/d4e/classexpression_tree_1_1_variable_node_map.html#aa39aa781cc2fe52784af8657407974ce" target="_top" xlink:title="expressionTree.VariableNode\lMap.addVariable">
<polygon fill="white" stroke="black" points="438.5,-98 438.5,-128 593.5,-128 593.5,-98 438.5,-98"/>
<text text-anchor="start" x="446.5" y="-116" font-family="Helvetica,sans-Serif" font-size="10.00">expressionTree.VariableNode</text>
<text text-anchor="middle" x="516" y="-105" font-family="Helvetica,sans-Serif" font-size="10.00">Map.addVariable</text>
</a>
</g>
</g>
<!-- Node3&#45;&gt;Node4 -->
<g id="edge3" class="edge"><title>Node3&#45;&gt;Node4</title>
<path fill="none" stroke="midnightblue" d="M392.654,-113C404.256,-113 416.295,-113 428.095,-113"/>
<polygon fill="midnightblue" stroke="midnightblue" points="428.386,-116.5 438.386,-113 428.385,-109.5 428.386,-116.5"/>
</g>
</g>
</svg>
