<?xml version="1.0" encoding="UTF-8" standalone="no"?>
<!DOCTYPE svg PUBLIC "-//W3C//DTD SVG 1.1//EN"
 "http://www.w3.org/Graphics/SVG/1.1/DTD/svg11.dtd">
<!-- Generated by graphviz version 2.36.0 (20140111.2315)
 -->
<!-- Title: displayCommands.Ask Pages: 1 -->
<!--zoomable 230 -->
<svg id="main" version="1.1" xmlns="http://www.w3.org/2000/svg" xmlns:xlink="http://www.w3.org/1999/xlink" xml:space="preserve" onload="init(evt)">
<style type="text/css"><![CDATA[
.edge:hover path { stroke: red; }
.edge:hover polygon { stroke: red; fill: red; }
]]></style>
<script type="text/javascript"><![CDATA[
var edges = document.getElementsByTagName('g');
if (edges && edges.length) {
  for (var i=0;i<edges.length;i++) {
    if (edges[i].id.substr(0,4)=='edge') {
      edges[i].setAttribute('class','edge');
    }
  }
}
]]></script>
        <defs>
                <circle id="rim" cx="0" cy="0" r="7"/>
                <circle id="rim2" cx="0" cy="0" r="3.5"/>
                <g id="zoomPlus">
                        <use xlink:href="#rim" fill="#404040">
                                <set attributeName="fill" to="#808080" begin="zoomplus.mouseover" end="zoomplus.mouseout"/>
                        </use>
                        <path d="M-4,0h8M0,-4v8" fill="none" stroke="white" stroke-width="1.5" pointer-events="none"/>
                </g>
                <g id="zoomMin">
                        <use xlink:href="#rim" fill="#404040">
                                <set attributeName="fill" to="#808080" begin="zoomminus.mouseover" end="zoomminus.mouseout"/>
                        </use>
                        <path d="M-4,0h8" fill="none" stroke="white" stroke-width="1.5" pointer-events="none"/>
                </g>
                <g id="dirArrow">
                        <path fill="none" stroke="white" stroke-width="1.5" d="M0,-3.0v7 M-2.5,-0.5L0,-3.0L2.5,-0.5"/>
                </g>
               <g id="resetDef">
                       <use xlink:href="#rim2" fill="#404040">
                               <set attributeName="fill" to="#808080" begin="reset.mouseover" end="reset.mouseout"/>
                       </use>
               </g>
        </defs>

<script type="text/javascript">
var viewWidth = 1562;
var viewHeight = 230;
var sectionId = 'dynsection-1';
</script>
<script xlink:href="../../svgpan.js"/>
<svg id="graph" class="graph">
<g id="viewport">
<title>displayCommands.Ask</title>
<polygon fill="white" stroke="none" points="-4,4 -4,-226 1558,-226 1558,4 -4,4"/>
<!-- Node1 -->
<g id="node1" class="node"><title>Node1</title>
<polygon fill="#bfbfbf" stroke="black" points="1428.5,-135.5 1428.5,-154.5 1553.5,-154.5 1553.5,-135.5 1428.5,-135.5"/>
<text text-anchor="middle" x="1491" y="-142.5" font-family="Helvetica,sans-Serif" font-size="10.00">displayCommands.Ask</text>
</g>
<!-- Node2 -->
<g id="node2" class="node"><title>Node2</title>
<g id="a_node2"><a xlink:href="../../d6/d49/classdisplay_commands_1_1_display_node.html" target="_top" xlink:title="displayCommands.DisplayNode">
<polygon fill="white" stroke="black" points="1110,-173.5 1110,-192.5 1278,-192.5 1278,-173.5 1110,-173.5"/>
<text text-anchor="middle" x="1194" y="-180.5" font-family="Helvetica,sans-Serif" font-size="10.00">displayCommands.DisplayNode</text>
</a>
</g>
</g>
<!-- Node2&#45;&gt;Node1 -->
<g id="edge1" class="edge"><title>Node2&#45;&gt;Node1</title>
<path fill="none" stroke="midnightblue" d="M1288.15,-174.651C1326.04,-170.835 1370.2,-165.851 1410,-160 1420.63,-158.438 1431.99,-156.481 1442.72,-154.502"/>
<polygon fill="midnightblue" stroke="midnightblue" points="1287.75,-171.173 1278.15,-175.646 1288.44,-178.139 1287.75,-171.173"/>
</g>
<!-- Node3 -->
<g id="node3" class="node"><title>Node3</title>
<g id="a_node3"><a xlink:href="../../db/da5/classexpression_tree_1_1_expression_node.html" target="_top" xlink:title="expressionTree.ExpressionNode">
<polygon fill="white" stroke="black" points="854,-162.5 854,-181.5 1022,-181.5 1022,-162.5 854,-162.5"/>
<text text-anchor="middle" x="938" y="-169.5" font-family="Helvetica,sans-Serif" font-size="10.00">expressionTree.ExpressionNode</text>
</a>
</g>
</g>
<!-- Node3&#45;&gt;Node2 -->
<g id="edge2" class="edge"><title>Node3&#45;&gt;Node2</title>
<path fill="none" stroke="midnightblue" d="M1032.16,-176.035C1057.53,-177.133 1084.85,-178.316 1109.64,-179.39"/>
<polygon fill="midnightblue" stroke="midnightblue" points="1032.31,-172.538 1022.17,-175.602 1032.01,-179.531 1032.31,-172.538"/>
</g>
<!-- Node3&#45;&gt;Node3 -->
<g id="edge4" class="edge"><title>Node3&#45;&gt;Node3</title>
<path fill="none" stroke="#9a32cd" stroke-dasharray="5,2" d="M914.191,-191.029C915.489,-196.128 923.426,-200 938,-200 960.75,-200 967.326,-190.565 957.729,-181.757"/>
<polygon fill="#9a32cd" stroke="#9a32cd" points="917.447,-192.32 918.271,-181.757 911.04,-189.5 917.447,-192.32"/>
<text text-anchor="middle" x="938" y="-214" font-family="Helvetica,sans-Serif" font-size="10.00"> myLeft</text>
<text text-anchor="middle" x="938" y="-203" font-family="Helvetica,sans-Serif" font-size="10.00">myRight</text>
</g>
<!-- Node6 -->
<g id="node6" class="node"><title>Node6</title>
<g id="a_node6"><a xlink:href="../../d9/de6/classexpression_tree_1_1_list_node.html" target="_top" xlink:title="expressionTree.ListNode">
<polygon fill="white" stroke="black" points="1127.5,-90.5 1127.5,-109.5 1260.5,-109.5 1260.5,-90.5 1127.5,-90.5"/>
<text text-anchor="middle" x="1194" y="-97.5" font-family="Helvetica,sans-Serif" font-size="10.00">expressionTree.ListNode</text>
</a>
</g>
</g>
<!-- Node3&#45;&gt;Node6 -->
<g id="edge7" class="edge"><title>Node3&#45;&gt;Node6</title>
<path fill="none" stroke="midnightblue" d="M1032.21,-164.16C1052.69,-159.957 1073.71,-153.596 1092,-144 1102.02,-138.743 1100.32,-131.86 1110,-126 1121.75,-118.882 1135.64,-113.54 1148.66,-109.609"/>
<polygon fill="midnightblue" stroke="midnightblue" points="1031.38,-160.754 1022.21,-166.055 1032.69,-167.632 1031.38,-160.754"/>
</g>
<!-- Node4 -->
<g id="node4" class="node"><title>Node4</title>
<polygon fill="white" stroke="#bfbfbf" points="578,-118 578,-148 748,-148 748,-118 578,-118"/>
<text text-anchor="start" x="586" y="-136" font-family="Helvetica,sans-Serif" font-size="10.00">List&lt; displayCommands.Display</text>
<text text-anchor="middle" x="663" y="-125" font-family="Helvetica,sans-Serif" font-size="10.00">Node &gt;</text>
</g>
<!-- Node4&#45;&gt;Node3 -->
<g id="edge3" class="edge"><title>Node4&#45;&gt;Node3</title>
<path fill="none" stroke="#9a32cd" stroke-dasharray="5,2" d="M758.416,-146.488C795.325,-151.761 836.784,-157.683 870.458,-162.494"/>
<polygon fill="#9a32cd" stroke="#9a32cd" points="758.531,-142.969 748.137,-145.02 757.541,-149.899 758.531,-142.969"/>
<text text-anchor="middle" x="801" y="-161" font-family="Helvetica,sans-Serif" font-size="10.00"> instructionList</text>
</g>
<!-- Node4&#45;&gt;Node6 -->
<g id="edge21" class="edge"><title>Node4&#45;&gt;Node6</title>
<path fill="none" stroke="#9a32cd" stroke-dasharray="5,2" d="M758.188,-127.124C864.397,-120.499 1034.35,-109.897 1127.2,-104.105"/>
<polygon fill="#9a32cd" stroke="#9a32cd" points="757.877,-123.637 748.114,-127.753 758.312,-130.623 757.877,-123.637"/>
<text text-anchor="middle" x="938" y="-124" font-family="Helvetica,sans-Serif" font-size="10.00"> myFundamentals</text>
</g>
<!-- Node7 -->
<g id="node7" class="node"><title>Node7</title>
<g id="a_node7"><a xlink:href="../../d3/dfb/classexpression_tree_1_1_expression_tree_builder.html" target="_top" xlink:title="expressionTree.Expression\lTreeBuilder">
<polygon fill="white" stroke="black" points="866.5,-62 866.5,-92 1009.5,-92 1009.5,-62 866.5,-62"/>
<text text-anchor="start" x="874.5" y="-80" font-family="Helvetica,sans-Serif" font-size="10.00">expressionTree.Expression</text>
<text text-anchor="middle" x="938" y="-69" font-family="Helvetica,sans-Serif" font-size="10.00">TreeBuilder</text>
</a>
</g>
</g>
<!-- Node4&#45;&gt;Node7 -->
<g id="edge19" class="edge"><title>Node4&#45;&gt;Node7</title>
<path fill="none" stroke="#9a32cd" stroke-dasharray="5,2" d="M732.396,-115.628C743.599,-112.958 755.104,-110.321 766,-108 798.756,-101.024 835.255,-94.2689 866.092,-88.8553"/>
<polygon fill="#9a32cd" stroke="#9a32cd" points="731.553,-112.231 722.651,-117.976 733.193,-119.036 731.553,-112.231"/>
<text text-anchor="middle" x="801" y="-111" font-family="Helvetica,sans-Serif" font-size="10.00"> outputList</text>
</g>
<!-- Node5 -->
<g id="node5" class="node"><title>Node5</title>
<polygon fill="white" stroke="#bfbfbf" points="1149.5,-135.5 1149.5,-154.5 1238.5,-154.5 1238.5,-135.5 1149.5,-135.5"/>
<text text-anchor="middle" x="1194" y="-142.5" font-family="Helvetica,sans-Serif" font-size="10.00">List&lt; Double &gt;</text>
</g>
<!-- Node5&#45;&gt;Node1 -->
<g id="edge5" class="edge"><title>Node5&#45;&gt;Node1</title>
<path fill="none" stroke="#9a32cd" stroke-dasharray="5,2" d="M1248.62,-145C1299.26,-145 1375.16,-145 1428.3,-145"/>
<polygon fill="#9a32cd" stroke="#9a32cd" points="1248.53,-141.5 1238.53,-145 1248.53,-148.5 1248.53,-141.5"/>
<text text-anchor="middle" x="1353" y="-148" font-family="Helvetica,sans-Serif" font-size="10.00"> toAsk</text>
</g>
<!-- Node6&#45;&gt;Node1 -->
<g id="edge6" class="edge"><title>Node6&#45;&gt;Node1</title>
<path fill="none" stroke="#9a32cd" stroke-dasharray="5,2" d="M1270.97,-102.524C1312.39,-104.947 1364.38,-109.696 1410,-119 1429.03,-122.881 1449.88,-129.748 1465.52,-135.449"/>
<polygon fill="#9a32cd" stroke="#9a32cd" points="1271.13,-99.0276 1260.95,-101.971 1270.74,-106.017 1271.13,-99.0276"/>
<text text-anchor="middle" x="1353" y="-133" font-family="Helvetica,sans-Serif" font-size="10.00"> myTurtleList</text>
<text text-anchor="middle" x="1353" y="-122" font-family="Helvetica,sans-Serif" font-size="10.00">myCommandsListNode</text>
</g>
<!-- Node7&#45;&gt;Node6 -->
<g id="edge8" class="edge"><title>Node7&#45;&gt;Node6</title>
<path fill="none" stroke="#9a32cd" stroke-dasharray="5,2" d="M1019.86,-84.3223C1054.57,-87.465 1094.6,-91.0894 1127.42,-94.0613"/>
<polygon fill="#9a32cd" stroke="#9a32cd" points="1020.03,-80.823 1009.75,-83.4068 1019.4,-87.7944 1020.03,-80.823"/>
<text text-anchor="middle" x="1066" y="-94" font-family="Helvetica,sans-Serif" font-size="10.00"> myBuilder</text>
</g>
<!-- Node8 -->
<g id="node8" class="node"><title>Node8</title>
<g id="a_node8"><a xlink:href="../../d9/d55/classexpression_tree_1_1_expression_node_factory.html" target="_top" xlink:title="expressionTree.Expression\lNodeFactory">
<polygon fill="white" stroke="black" points="591.5,-58 591.5,-88 734.5,-88 734.5,-58 591.5,-58"/>
<text text-anchor="start" x="599.5" y="-76" font-family="Helvetica,sans-Serif" font-size="10.00">expressionTree.Expression</text>
<text text-anchor="middle" x="663" y="-65" font-family="Helvetica,sans-Serif" font-size="10.00">NodeFactory</text>
</a>
</g>
</g>
<!-- Node8&#45;&gt;Node7 -->
<g id="edge9" class="edge"><title>Node8&#45;&gt;Node7</title>
<path fill="none" stroke="#9a32cd" stroke-dasharray="5,2" d="M744.733,-73.0719C773.537,-73.2027 806.221,-73.4712 836,-74 845.822,-74.1744 856.18,-74.4161 866.37,-74.6872"/>
<polygon fill="#9a32cd" stroke="#9a32cd" points="744.731,-69.5719 734.717,-73.0312 744.703,-76.5719 744.731,-69.5719"/>
<text text-anchor="middle" x="801" y="-77" font-family="Helvetica,sans-Serif" font-size="10.00"> nodeGetter</text>
</g>
<!-- Node9 -->
<g id="node9" class="node"><title>Node9</title>
<g id="a_node9"><a xlink:href="../../d8/d36/classexpression_tree_1_1_user_function_map.html" target="_top" xlink:title="expressionTree.UserFunctionMap">
<polygon fill="white" stroke="black" points="281.5,-105.5 281.5,-124.5 454.5,-124.5 454.5,-105.5 281.5,-105.5"/>
<text text-anchor="middle" x="368" y="-112.5" font-family="Helvetica,sans-Serif" font-size="10.00">expressionTree.UserFunctionMap</text>
</a>
</g>
</g>
<!-- Node9&#45;&gt;Node8 -->
<g id="edge10" class="edge"><title>Node9&#45;&gt;Node8</title>
<path fill="none" stroke="#9a32cd" stroke-dasharray="5,2" d="M445.518,-104.032C490.654,-97.5615 547.375,-89.4309 591.433,-83.1154"/>
<polygon fill="#9a32cd" stroke="#9a32cd" points="444.888,-100.586 435.486,-105.47 445.882,-107.515 444.888,-100.586"/>
<text text-anchor="middle" x="517" y="-102" font-family="Helvetica,sans-Serif" font-size="10.00"> myUserFunctions</text>
</g>
<!-- Node9&#45;&gt;Node9 -->
<g id="edge12" class="edge"><title>Node9&#45;&gt;Node9</title>
<path fill="none" stroke="#9a32cd" stroke-dasharray="5,2" d="M340.374,-133.654C341.529,-138.937 350.738,-143 368,-143 394.305,-143 401.908,-133.565 390.811,-124.757"/>
<polygon fill="#9a32cd" stroke="#9a32cd" points="343.508,-135.218 345.189,-124.757 337.351,-131.886 343.508,-135.218"/>
<text text-anchor="middle" x="368" y="-146" font-family="Helvetica,sans-Serif" font-size="10.00"> myUserFunctionMap</text>
</g>
<!-- Node10 -->
<g id="node10" class="node"><title>Node10</title>
<polygon fill="white" stroke="#bfbfbf" points="43.5,-72.5 43.5,-91.5 114.5,-91.5 114.5,-72.5 43.5,-72.5"/>
<text text-anchor="middle" x="79" y="-79.5" font-family="Helvetica,sans-Serif" font-size="10.00">Serializable</text>
</g>
<!-- Node10&#45;&gt;Node9 -->
<g id="edge11" class="edge"><title>Node10&#45;&gt;Node9</title>
<path fill="none" stroke="midnightblue" d="M124.657,-87.1348C167.178,-92.0239 232.218,-99.5024 284.216,-105.481"/>
<polygon fill="midnightblue" stroke="midnightblue" points="124.953,-83.6459 114.619,-85.9806 124.154,-90.6 124.953,-83.6459"/>
</g>
<!-- Node12 -->
<g id="node12" class="node"><title>Node12</title>
<g id="a_node12"><a xlink:href="../../de/d4e/classexpression_tree_1_1_variable_node_map.html" target="_top" xlink:title="expressionTree.VariableNodeMap">
<polygon fill="white" stroke="black" points="280.5,-38.5 280.5,-57.5 455.5,-57.5 455.5,-38.5 280.5,-38.5"/>
<text text-anchor="middle" x="368" y="-45.5" font-family="Helvetica,sans-Serif" font-size="10.00">expressionTree.VariableNodeMap</text>
</a>
</g>
</g>
<!-- Node10&#45;&gt;Node12 -->
<g id="edge15" class="edge"><title>Node10&#45;&gt;Node12</title>
<path fill="none" stroke="midnightblue" d="M124.808,-76.6918C167.989,-71.5762 234.295,-63.7211 286.619,-57.5225"/>
<polygon fill="midnightblue" stroke="midnightblue" points="124.138,-73.2466 114.619,-77.8988 124.961,-80.198 124.138,-73.2466"/>
</g>
<!-- Node11 -->
<g id="node11" class="node"><title>Node11</title>
<polygon fill="white" stroke="#bfbfbf" points="0.5,-111 0.5,-141 157.5,-141 157.5,-111 0.5,-111"/>
<text text-anchor="start" x="8.5" y="-129" font-family="Helvetica,sans-Serif" font-size="10.00">Map&lt; String, expressionTree.</text>
<text text-anchor="middle" x="79" y="-118" font-family="Helvetica,sans-Serif" font-size="10.00">ListNode &gt;</text>
</g>
<!-- Node11&#45;&gt;Node9 -->
<g id="edge13" class="edge"><title>Node11&#45;&gt;Node9</title>
<path fill="none" stroke="#9a32cd" stroke-dasharray="5,2" d="M167.699,-122.639C203.827,-121.254 245.545,-119.655 281.447,-118.279"/>
<polygon fill="#9a32cd" stroke="#9a32cd" points="167.525,-119.143 157.666,-123.023 167.793,-126.138 167.525,-119.143"/>
<text text-anchor="middle" x="219" y="-126" font-family="Helvetica,sans-Serif" font-size="10.00"> userFunctionMap</text>
</g>
<!-- Node12&#45;&gt;Node8 -->
<g id="edge14" class="edge"><title>Node12&#45;&gt;Node8</title>
<path fill="none" stroke="#9a32cd" stroke-dasharray="5,2" d="M465.729,-56.2534C506.713,-59.7503 553.595,-63.7504 591.26,-66.9641"/>
<polygon fill="#9a32cd" stroke="#9a32cd" points="465.982,-52.7623 455.72,-55.3994 465.387,-59.7369 465.982,-52.7623"/>
<text text-anchor="middle" x="517" y="-68" font-family="Helvetica,sans-Serif" font-size="10.00"> myVariables</text>
</g>
<!-- Node12&#45;&gt;Node12 -->
<g id="edge17" class="edge"><title>Node12&#45;&gt;Node12</title>
<path fill="none" stroke="#9a32cd" stroke-dasharray="5,2" d="M340.374,-66.6539C341.529,-71.9368 350.738,-76 368,-76 394.305,-76 401.908,-66.5653 390.811,-57.7571"/>
<polygon fill="#9a32cd" stroke="#9a32cd" points="343.508,-68.2176 345.189,-57.7571 337.351,-64.886 343.508,-68.2176"/>
<text text-anchor="middle" x="368" y="-79" font-family="Helvetica,sans-Serif" font-size="10.00"> myVariableNodeMap</text>
</g>
<!-- Node13 -->
<g id="node13" class="node"><title>Node13</title>
<polygon fill="white" stroke="#bfbfbf" points="0.5,-23 0.5,-53 157.5,-53 157.5,-23 0.5,-23"/>
<text text-anchor="start" x="8.5" y="-41" font-family="Helvetica,sans-Serif" font-size="10.00">Map&lt; String, expressionTree.</text>
<text text-anchor="middle" x="79" y="-30" font-family="Helvetica,sans-Serif" font-size="10.00">VariableNode &gt;</text>
</g>
<!-- Node13&#45;&gt;Node12 -->
<g id="edge16" class="edge"><title>Node13&#45;&gt;Node12</title>
<path fill="none" stroke="#9a32cd" stroke-dasharray="5,2" d="M167.531,-37.8095C197.499,-38.0505 231.226,-38.66 262,-40 267.936,-40.2585 274.057,-40.5803 280.221,-40.9451"/>
<polygon fill="#9a32cd" stroke="#9a32cd" points="167.545,-34.3096 157.521,-37.7414 167.497,-41.3094 167.545,-34.3096"/>
<text text-anchor="middle" x="219" y="-43" font-family="Helvetica,sans-Serif" font-size="10.00"> variableMap</text>
</g>
<!-- Node14 -->
<g id="node14" class="node"><title>Node14</title>
<polygon fill="white" stroke="#bfbfbf" points="578,-0 578,-30 748,-30 748,-0 578,-0"/>
<text text-anchor="start" x="586" y="-18" font-family="Helvetica,sans-Serif" font-size="10.00">List&lt; expressionTree.Expression</text>
<text text-anchor="middle" x="663" y="-7" font-family="Helvetica,sans-Serif" font-size="10.00">Node &gt;</text>
</g>
<!-- Node14&#45;&gt;Node6 -->
<g id="edge20" class="edge"><title>Node14&#45;&gt;Node6</title>
<path fill="none" stroke="#9a32cd" stroke-dasharray="5,2" d="M758.087,-15.1932C830.823,-16.9346 933.672,-22.877 1022,-41 1077.38,-52.3618 1139.42,-76.9147 1171.38,-90.4917"/>
<polygon fill="#9a32cd" stroke="#9a32cd" points="758.101,-11.6928 748.028,-14.9745 757.949,-18.6911 758.101,-11.6928"/>
<text text-anchor="middle" x="938" y="-44" font-family="Helvetica,sans-Serif" font-size="10.00"> allMyChildren</text>
</g>
<!-- Node14&#45;&gt;Node7 -->
<g id="edge18" class="edge"><title>Node14&#45;&gt;Node7</title>
<path fill="none" stroke="#9a32cd" stroke-dasharray="5,2" d="M740.03,-32.267C781.031,-41.5784 831.154,-52.9617 870.577,-61.9149"/>
<polygon fill="#9a32cd" stroke="#9a32cd" points="740.613,-28.8101 730.086,-30.0085 739.062,-35.6363 740.613,-28.8101"/>
<text text-anchor="middle" x="801" y="-57" font-family="Helvetica,sans-Serif" font-size="10.00"> nodeList</text>
</g>
</g>
</svg>
        <g id="navigator" transform="translate(0 0)" fill="#404254">
                <rect fill="#f2f5e9" fill-opacity="0.5" stroke="#606060" stroke-width=".5" x="0" y="0" width="60" height="60"/>
                <use id="zoomplus" xlink:href="#zoomPlus" x="17" y="9" onmousedown="handleZoom(evt,'in')"/>
                <use id="zoomminus" xlink:href="#zoomMin" x="42" y="9" onmousedown="handleZoom(evt,'out')"/>
                <use id="reset" xlink:href="#resetDef" x="30" y="36" onmousedown="handleReset()"/>
                <g id="arrowUp" xlink:href="#dirArrow" transform="translate(30 24)" onmousedown="handlePan(0,-1)">
                  <use xlink:href="#rim" fill="#404040">
                        <set attributeName="fill" to="#808080" begin="arrowUp.mouseover" end="arrowUp.mouseout"/>
                  </use>
                  <path fill="none" stroke="white" stroke-width="1.5" d="M0,-3.0v7 M-2.5,-0.5L0,-3.0L2.5,-0.5"/>
                </g>
                <g id="arrowRight" xlink:href="#dirArrow" transform="rotate(90) translate(36 -43)" onmousedown="handlePan(1,0)">
                  <use xlink:href="#rim" fill="#404040">
                        <set attributeName="fill" to="#808080" begin="arrowRight.mouseover" end="arrowRight.mouseout"/>
                  </use>
                  <path fill="none" stroke="white" stroke-width="1.5" d="M0,-3.0v7 M-2.5,-0.5L0,-3.0L2.5,-0.5"/>
                </g>
                <g id="arrowDown" xlink:href="#dirArrow" transform="rotate(180) translate(-30 -48)" onmousedown="handlePan(0,1)">
                  <use xlink:href="#rim" fill="#404040">
                        <set attributeName="fill" to="#808080" begin="arrowDown.mouseover" end="arrowDown.mouseout"/>
                  </use>
                  <path fill="none" stroke="white" stroke-width="1.5" d="M0,-3.0v7 M-2.5,-0.5L0,-3.0L2.5,-0.5"/>
                </g>
                <g id="arrowLeft" xlink:href="#dirArrow" transform="rotate(270) translate(-36 17)" onmousedown="handlePan(-1,0)">
                  <use xlink:href="#rim" fill="#404040">
                        <set attributeName="fill" to="#808080" begin="arrowLeft.mouseover" end="arrowLeft.mouseout"/>
                  </use>
                  <path fill="none" stroke="white" stroke-width="1.5" d="M0,-3.0v7 M-2.5,-0.5L0,-3.0L2.5,-0.5"/>
                </g>
        </g>
        <svg viewBox="0 0 15 15" width="100%" height="30px" preserveAspectRatio="xMaxYMin meet">
         <g id="arrow_out" transform="scale(0.3 0.3)">
          <a xlink:href="classdisplay_commands_1_1_ask__coll__graph_org.svg" target="_base">
           <rect id="button" ry="5" rx="5" y="6" x="6" height="38" width="38"
                fill="#f2f5e9" fill-opacity="0.5" stroke="#606060" stroke-width="1.0"/>
           <path id="arrow"
             d="M 11.500037,31.436501 C 11.940474,20.09759 22.043105,11.32322 32.158766,21.979434 L 37.068811,17.246167 C 37.068811,17.246167 37.088388,32 37.088388,32 L 22.160133,31.978069 C 22.160133,31.978069 26.997745,27.140456 26.997745,27.140456 C 18.528582,18.264221 13.291696,25.230495 11.500037,31.436501 z"
             style="fill:#404040;"/>
          </a>
         </g>
        </svg>
</svg>
