<?xml version="1.0" encoding="UTF-8" standalone="no"?>
<!DOCTYPE svg PUBLIC "-//W3C//DTD SVG 1.1//EN"
 "http://www.w3.org/Graphics/SVG/1.1/DTD/svg11.dtd">
<!-- Generated by graphviz version 2.36.0 (20140111.2315)
 -->
<!-- Title: frontend.ConcreteFeatures.LoadSLogoFile.action Pages: 1 -->
<svg width="1000pt" height="405pt"
 viewBox="0.00 0.00 1000.00 405.00" xmlns="http://www.w3.org/2000/svg" xmlns:xlink="http://www.w3.org/1999/xlink">
<g id="graph0" class="graph" transform="scale(1 1) rotate(0) translate(4 401)">
<title>frontend.ConcreteFeatures.LoadSLogoFile.action</title>
<polygon fill="white" stroke="none" points="-4,4 -4,-401 996,-401 996,4 -4,4"/>
<!-- Node1 -->
<g id="node1" class="node"><title>Node1</title>
<polygon fill="#bfbfbf" stroke="black" points="0,-258 0,-288 148,-288 148,-258 0,-258"/>
<text text-anchor="start" x="8" y="-276" font-family="Helvetica,sans-Serif" font-size="10.00">frontend.ConcreteFeatures.</text>
<text text-anchor="middle" x="74" y="-265" font-family="Helvetica,sans-Serif" font-size="10.00">LoadSLogoFile.action</text>
</g>
<!-- Node2 -->
<g id="node2" class="node"><title>Node2</title>
<g id="a_node2"><a xlink:href="../../d2/dea/class_s_logo_controllers_1_1_input_controller.html#a7ce411d6699e0b45d54f63e43995c6a0" target="_top" xlink:title="SLogoControllers.InputController.get\lInstructions">
<polygon fill="white" stroke="black" points="186,-354 186,-384 376,-384 376,-354 186,-354"/>
<text text-anchor="start" x="194" y="-372" font-family="Helvetica,sans-Serif" font-size="10.00">SLogoControllers.InputController.get</text>
<text text-anchor="middle" x="281" y="-361" font-family="Helvetica,sans-Serif" font-size="10.00">Instructions</text>
</a>
</g>
</g>
<!-- Node1&#45;&gt;Node2 -->
<g id="edge1" class="edge"><title>Node1&#45;&gt;Node2</title>
<path fill="none" stroke="midnightblue" d="M100.012,-288.124C121.767,-300.947 154.365,-319.373 184,-333 197.403,-339.163 212.189,-345.108 226.058,-350.331"/>
<polygon fill="midnightblue" stroke="midnightblue" points="224.891,-353.632 235.484,-353.825 227.324,-347.068 224.891,-353.632"/>
</g>
<!-- Node5 -->
<g id="node5" class="node"><title>Node5</title>
<g id="a_node5"><a xlink:href="../../d2/dea/class_s_logo_controllers_1_1_input_controller.html#a1e1beebe816454b8128ce9222eeb8620" target="_top" xlink:title="SLogoControllers.InputController.give\lInput">
<polygon fill="white" stroke="black" points="184,-294 184,-324 378,-324 378,-294 184,-294"/>
<text text-anchor="start" x="192" y="-312" font-family="Helvetica,sans-Serif" font-size="10.00">SLogoControllers.InputController.give</text>
<text text-anchor="middle" x="281" y="-301" font-family="Helvetica,sans-Serif" font-size="10.00">Input</text>
</a>
</g>
</g>
<!-- Node1&#45;&gt;Node5 -->
<g id="edge4" class="edge"><title>Node1&#45;&gt;Node5</title>
<path fill="none" stroke="midnightblue" d="M148.141,-285.844C159.82,-287.895 172.053,-290.044 184.162,-292.17"/>
<polygon fill="midnightblue" stroke="midnightblue" points="183.835,-295.666 194.29,-293.948 185.046,-288.772 183.835,-295.666"/>
</g>
<!-- Node8 -->
<g id="node8" class="node"><title>Node8</title>
<g id="a_node8"><a xlink:href="../../d3/d17/classturtle_classes_1_1_turtle_mover.html#a955db4be8fe596975332813b98a0cecf" target="_top" xlink:title="turtleClasses.TurtleMover.start\lDrawing">
<polygon fill="white" stroke="black" points="200.5,-222 200.5,-252 361.5,-252 361.5,-222 200.5,-222"/>
<text text-anchor="start" x="208.5" y="-240" font-family="Helvetica,sans-Serif" font-size="10.00">turtleClasses.TurtleMover.start</text>
<text text-anchor="middle" x="281" y="-229" font-family="Helvetica,sans-Serif" font-size="10.00">Drawing</text>
</a>
</g>
</g>
<!-- Node1&#45;&gt;Node8 -->
<g id="edge7" class="edge"><title>Node1&#45;&gt;Node8</title>
<path fill="none" stroke="midnightblue" d="M148.141,-260.156C161.743,-257.767 176.098,-255.246 190.132,-252.782"/>
<polygon fill="midnightblue" stroke="midnightblue" points="191.035,-256.177 200.279,-251 189.824,-249.282 191.035,-256.177"/>
</g>
<!-- Node22 -->
<g id="node22" class="node"><title>Node22</title>
<g id="a_node22"><a xlink:href="../../df/d0e/classfrontend_1_1_pane_updater.html#a5fcda115228f65df7abd8ec164ca67f9" target="_top" xlink:title="frontend.PaneUpdater.updateAll">
<polygon fill="white" stroke="black" points="196,-183.5 196,-202.5 366,-202.5 366,-183.5 196,-183.5"/>
<text text-anchor="middle" x="281" y="-190.5" font-family="Helvetica,sans-Serif" font-size="10.00">frontend.PaneUpdater.updateAll</text>
</a>
</g>
</g>
<!-- Node1&#45;&gt;Node22 -->
<g id="edge22" class="edge"><title>Node1&#45;&gt;Node22</title>
<path fill="none" stroke="midnightblue" d="M96.9613,-257.966C118.293,-244.042 152.051,-223.764 184,-212 191.343,-209.296 199.151,-206.951 207.018,-204.921"/>
<polygon fill="midnightblue" stroke="midnightblue" points="208.085,-208.264 216.986,-202.517 206.444,-201.46 208.085,-208.264"/>
</g>
<!-- Node3 -->
<g id="node3" class="node"><title>Node3</title>
<g id="a_node3"><a xlink:href="../../d1/ddd/classbackend_1_1_parser.html#a8b57ca47f899f9682d7e7b8f19857933" target="_top" xlink:title="backend.Parser.parse">
<polygon fill="white" stroke="black" points="449.5,-365.5 449.5,-384.5 568.5,-384.5 568.5,-365.5 449.5,-365.5"/>
<text text-anchor="middle" x="509" y="-372.5" font-family="Helvetica,sans-Serif" font-size="10.00">backend.Parser.parse</text>
</a>
</g>
</g>
<!-- Node2&#45;&gt;Node3 -->
<g id="edge2" class="edge"><title>Node2&#45;&gt;Node3</title>
<path fill="none" stroke="midnightblue" d="M376.208,-371.501C397.351,-372.062 419.398,-372.648 439.274,-373.175"/>
<polygon fill="midnightblue" stroke="midnightblue" points="439.364,-376.679 449.453,-373.446 439.55,-369.681 439.364,-376.679"/>
</g>
<!-- Node4 -->
<g id="node4" class="node"><title>Node4</title>
<g id="a_node4"><a xlink:href="../../d3/dfb/classexpression_tree_1_1_expression_tree_builder.html#aa6681548d74fc2f813e9496a163716be" target="_top" xlink:title="expressionTree.Expression\lTreeBuilder.getOutputList">
<polygon fill="white" stroke="black" points="654.5,-367 654.5,-397 797.5,-397 797.5,-367 654.5,-367"/>
<text text-anchor="start" x="662.5" y="-385" font-family="Helvetica,sans-Serif" font-size="10.00">expressionTree.Expression</text>
<text text-anchor="middle" x="726" y="-374" font-family="Helvetica,sans-Serif" font-size="10.00">TreeBuilder.getOutputList</text>
</a>
</g>
</g>
<!-- Node3&#45;&gt;Node4 -->
<g id="edge3" class="edge"><title>Node3&#45;&gt;Node4</title>
<path fill="none" stroke="midnightblue" d="M568.75,-376.913C592.025,-377.671 619.169,-378.554 644.241,-379.371"/>
<polygon fill="midnightblue" stroke="midnightblue" points="644.362,-382.876 654.471,-379.704 644.59,-375.88 644.362,-382.876"/>
</g>
<!-- Node6 -->
<g id="node6" class="node"><title>Node6</title>
<g id="a_node6"><a xlink:href="../../d4/dbc/classfrontend_1_1_translator.html#af1bc0cb421e114e275cf9b0185da7092" target="_top" xlink:title="frontend.Translator.translate">
<polygon fill="white" stroke="black" points="433,-321.5 433,-340.5 585,-340.5 585,-321.5 433,-321.5"/>
<text text-anchor="middle" x="509" y="-328.5" font-family="Helvetica,sans-Serif" font-size="10.00">frontend.Translator.translate</text>
</a>
</g>
</g>
<!-- Node5&#45;&gt;Node6 -->
<g id="edge5" class="edge"><title>Node5&#45;&gt;Node6</title>
<path fill="none" stroke="midnightblue" d="M378.172,-318.362C393.009,-319.806 408.242,-321.289 422.817,-322.708"/>
<polygon fill="midnightblue" stroke="midnightblue" points="422.497,-326.193 432.789,-323.679 423.176,-319.226 422.497,-326.193"/>
</g>
<!-- Node7 -->
<g id="node7" class="node"><title>Node7</title>
<g id="a_node7"><a xlink:href="../../d4/dbc/classfrontend_1_1_translator.html#ad4388893530365ae85e623478ec20d50" target="_top" xlink:title="frontend.Translator.translateOne">
<polygon fill="white" stroke="black" points="640.5,-328.5 640.5,-347.5 811.5,-347.5 811.5,-328.5 640.5,-328.5"/>
<text text-anchor="middle" x="726" y="-335.5" font-family="Helvetica,sans-Serif" font-size="10.00">frontend.Translator.translateOne</text>
</a>
</g>
</g>
<!-- Node6&#45;&gt;Node7 -->
<g id="edge6" class="edge"><title>Node6&#45;&gt;Node7</title>
<path fill="none" stroke="midnightblue" d="M585.197,-333.448C599.66,-333.919 614.983,-334.418 629.978,-334.906"/>
<polygon fill="midnightblue" stroke="midnightblue" points="630.183,-338.415 640.292,-335.242 630.411,-331.418 630.183,-338.415"/>
</g>
<!-- Node9 -->
<g id="node9" class="node"><title>Node9</title>
<g id="a_node9"><a xlink:href="../../d4/d7e/classturtle_classes_1_1_turtle_collection.html#a61f007615f0fd523dae94957f8022100" target="_top" xlink:title="turtleClasses.TurtleCollection.set\lActiveTurtles">
<polygon fill="white" stroke="black" points="423,-265 423,-295 595,-295 595,-265 423,-265"/>
<text text-anchor="start" x="431" y="-283" font-family="Helvetica,sans-Serif" font-size="10.00">turtleClasses.TurtleCollection.set</text>
<text text-anchor="middle" x="509" y="-272" font-family="Helvetica,sans-Serif" font-size="10.00">ActiveTurtles</text>
</a>
</g>
</g>
<!-- Node8&#45;&gt;Node9 -->
<g id="edge8" class="edge"><title>Node8&#45;&gt;Node9</title>
<path fill="none" stroke="midnightblue" d="M361.044,-252.039C379.796,-255.607 399.924,-259.437 419.083,-263.082"/>
<polygon fill="midnightblue" stroke="midnightblue" points="418.523,-266.538 429.001,-264.969 419.831,-259.662 418.523,-266.538"/>
</g>
<!-- Node13 -->
<g id="node13" class="node"><title>Node13</title>
<g id="a_node13"><a xlink:href="../../dc/d69/classturtle_classes_1_1_turtle_snapshot.html#a40b94c5cc09d2877090e9ced16447e03" target="_top" xlink:title="turtleClasses.TurtleSnapshot.get\lTurtleSnapshot">
<polygon fill="white" stroke="black" points="423,-216 423,-246 595,-246 595,-216 423,-216"/>
<text text-anchor="start" x="431" y="-234" font-family="Helvetica,sans-Serif" font-size="10.00">turtleClasses.TurtleSnapshot.get</text>
<text text-anchor="middle" x="509" y="-223" font-family="Helvetica,sans-Serif" font-size="10.00">TurtleSnapshot</text>
</a>
</g>
</g>
<!-- Node8&#45;&gt;Node13 -->
<g id="edge12" class="edge"><title>Node8&#45;&gt;Node13</title>
<path fill="none" stroke="midnightblue" d="M361.679,-234.885C378.097,-234.449 395.545,-233.986 412.458,-233.537"/>
<polygon fill="midnightblue" stroke="midnightblue" points="413.003,-237.023 422.906,-233.259 412.817,-230.026 413.003,-237.023"/>
</g>
<!-- Node14 -->
<g id="node14" class="node"><title>Node14</title>
<g id="a_node14"><a xlink:href="../../dc/d69/classturtle_classes_1_1_turtle_snapshot.html#a15dec792db9c32413964d88bae094216" target="_top" xlink:title="turtleClasses.TurtleSnapshot.update">
<polygon fill="white" stroke="black" points="414,-164.5 414,-183.5 604,-183.5 604,-164.5 414,-164.5"/>
<text text-anchor="middle" x="509" y="-171.5" font-family="Helvetica,sans-Serif" font-size="10.00">turtleClasses.TurtleSnapshot.update</text>
</a>
</g>
</g>
<!-- Node8&#45;&gt;Node14 -->
<g id="edge13" class="edge"><title>Node8&#45;&gt;Node14</title>
<path fill="none" stroke="midnightblue" d="M340.966,-221.938C353.225,-218.725 366.048,-215.302 378,-212 407.713,-203.79 441.086,-194.024 466.578,-186.448"/>
<polygon fill="midnightblue" stroke="midnightblue" points="467.702,-189.765 476.286,-183.555 465.703,-183.056 467.702,-189.765"/>
</g>
<!-- Node21 -->
<g id="node21" class="node"><title>Node21</title>
<g id="a_node21"><a xlink:href="../../d4/d7e/classturtle_classes_1_1_turtle_collection.html#ad8dcff2e2a1b9234392977c700bd76ed" target="_top" xlink:title="turtleClasses.TurtleCollection.get\lLastActiveTurtle">
<polygon fill="white" stroke="black" points="422.5,-115 422.5,-145 595.5,-145 595.5,-115 422.5,-115"/>
<text text-anchor="start" x="430.5" y="-133" font-family="Helvetica,sans-Serif" font-size="10.00">turtleClasses.TurtleCollection.get</text>
<text text-anchor="middle" x="509" y="-122" font-family="Helvetica,sans-Serif" font-size="10.00">LastActiveTurtle</text>
</a>
</g>
</g>
<!-- Node8&#45;&gt;Node21 -->
<g id="edge21" class="edge"><title>Node8&#45;&gt;Node21</title>
<path fill="none" stroke="midnightblue" d="M360.787,-221.89C366.886,-219.128 372.716,-215.862 378,-212 402.191,-194.32 389.855,-172.742 414,-155 416.654,-153.05 419.448,-151.252 422.347,-149.595"/>
<polygon fill="midnightblue" stroke="midnightblue" points="423.994,-152.684 431.32,-145.03 420.82,-146.445 423.994,-152.684"/>
</g>
<!-- Node10 -->
<g id="node10" class="node"><title>Node10</title>
<g id="a_node10"><a xlink:href="../../d8/d89/classturtle_classes_1_1_turtle.html#a2d3828dbca854624cc75fca5aa65b4c5" target="_top" xlink:title="turtleClasses.Turtle.set\lActive">
<polygon fill="white" stroke="black" points="663.5,-279 663.5,-309 788.5,-309 788.5,-279 663.5,-279"/>
<text text-anchor="start" x="671.5" y="-297" font-family="Helvetica,sans-Serif" font-size="10.00">turtleClasses.Turtle.set</text>
<text text-anchor="middle" x="726" y="-286" font-family="Helvetica,sans-Serif" font-size="10.00">Active</text>
</a>
</g>
</g>
<!-- Node9&#45;&gt;Node10 -->
<g id="edge9" class="edge"><title>Node9&#45;&gt;Node10</title>
<path fill="none" stroke="midnightblue" d="M595.282,-285.553C614.473,-286.803 634.652,-288.117 653.225,-289.326"/>
<polygon fill="midnightblue" stroke="midnightblue" points="653.155,-292.829 663.362,-289.986 653.61,-285.844 653.155,-292.829"/>
</g>
<!-- Node12 -->
<g id="node12" class="node"><title>Node12</title>
<g id="a_node12"><a xlink:href="../../d8/d89/classturtle_classes_1_1_turtle.html#aff48aa8a8ca4bb8a7aa40743a1a944c4" target="_top" xlink:title="turtleClasses.Turtle.getID">
<polygon fill="white" stroke="black" points="658,-240.5 658,-259.5 794,-259.5 794,-240.5 658,-240.5"/>
<text text-anchor="middle" x="726" y="-247.5" font-family="Helvetica,sans-Serif" font-size="10.00">turtleClasses.Turtle.getID</text>
</a>
</g>
</g>
<!-- Node9&#45;&gt;Node12 -->
<g id="edge11" class="edge"><title>Node9&#45;&gt;Node12</title>
<path fill="none" stroke="midnightblue" d="M595.282,-268.1C612.467,-265.702 630.444,-263.194 647.351,-260.835"/>
<polygon fill="midnightblue" stroke="midnightblue" points="648.303,-264.236 657.723,-259.387 647.335,-257.303 648.303,-264.236"/>
</g>
<!-- Node11 -->
<g id="node11" class="node"><title>Node11</title>
<g id="a_node11"><a xlink:href="../../d8/d89/classturtle_classes_1_1_turtle.html#abd769212afc56f042db3d4b5ee33790e" target="_top" xlink:title="turtleClasses.Turtle.handle\lActiveOutline">
<polygon fill="white" stroke="black" points="848.5,-279 848.5,-309 991.5,-309 991.5,-279 848.5,-279"/>
<text text-anchor="start" x="856.5" y="-297" font-family="Helvetica,sans-Serif" font-size="10.00">turtleClasses.Turtle.handle</text>
<text text-anchor="middle" x="920" y="-286" font-family="Helvetica,sans-Serif" font-size="10.00">ActiveOutline</text>
</a>
</g>
</g>
<!-- Node10&#45;&gt;Node11 -->
<g id="edge10" class="edge"><title>Node10&#45;&gt;Node11</title>
<path fill="none" stroke="midnightblue" d="M788.542,-294C804.347,-294 821.589,-294 838.207,-294"/>
<polygon fill="midnightblue" stroke="midnightblue" points="838.455,-297.5 848.455,-294 838.455,-290.5 838.455,-297.5"/>
</g>
<!-- Node14&#45;&gt;Node12 -->
<g id="edge20" class="edge"><title>Node14&#45;&gt;Node12</title>
<path fill="none" stroke="midnightblue" d="M545.765,-183.604C563.725,-189.062 585.533,-196.676 604,-206 621.389,-214.78 622.162,-223.174 640,-231 645.725,-233.512 651.818,-235.708 658.01,-237.624"/>
<polygon fill="midnightblue" stroke="midnightblue" points="657.208,-241.035 667.785,-240.412 659.128,-234.304 657.208,-241.035"/>
</g>
<!-- Node15 -->
<g id="node15" class="node"><title>Node15</title>
<g id="a_node15"><a xlink:href="../../d8/d89/classturtle_classes_1_1_turtle.html#a56503fbcf1cf444dc2dba7a7f07b891e" target="_top" xlink:title="turtleClasses.Turtle.getX">
<polygon fill="white" stroke="black" points="660,-202.5 660,-221.5 792,-221.5 792,-202.5 660,-202.5"/>
<text text-anchor="middle" x="726" y="-209.5" font-family="Helvetica,sans-Serif" font-size="10.00">turtleClasses.Turtle.getX</text>
</a>
</g>
</g>
<!-- Node14&#45;&gt;Node15 -->
<g id="edge14" class="edge"><title>Node14&#45;&gt;Node15</title>
<path fill="none" stroke="midnightblue" d="M563.976,-183.54C593.368,-188.735 629.926,-195.196 660.777,-200.649"/>
<polygon fill="midnightblue" stroke="midnightblue" points="660.545,-204.162 671.002,-202.456 661.764,-197.269 660.545,-204.162"/>
</g>
<!-- Node16 -->
<g id="node16" class="node"><title>Node16</title>
<g id="a_node16"><a xlink:href="../../d8/d89/classturtle_classes_1_1_turtle.html#a603a81ffb444aa19cecef6fc7f356e1f" target="_top" xlink:title="turtleClasses.Turtle.getY">
<polygon fill="white" stroke="black" points="660.5,-164.5 660.5,-183.5 791.5,-183.5 791.5,-164.5 660.5,-164.5"/>
<text text-anchor="middle" x="726" y="-171.5" font-family="Helvetica,sans-Serif" font-size="10.00">turtleClasses.Turtle.getY</text>
</a>
</g>
</g>
<!-- Node14&#45;&gt;Node16 -->
<g id="edge15" class="edge"><title>Node14&#45;&gt;Node16</title>
<path fill="none" stroke="midnightblue" d="M604.302,-174C619.703,-174 635.471,-174 650.316,-174"/>
<polygon fill="midnightblue" stroke="midnightblue" points="650.429,-177.5 660.429,-174 650.429,-170.5 650.429,-177.5"/>
</g>
<!-- Node17 -->
<g id="node17" class="node"><title>Node17</title>
<g id="a_node17"><a xlink:href="../../d8/d89/classturtle_classes_1_1_turtle.html#a83d46277ec7258a57d8b69797ffb42d8" target="_top" xlink:title="turtleClasses.Turtle.get\lDirection">
<polygon fill="white" stroke="black" points="663,-115 663,-145 789,-145 789,-115 663,-115"/>
<text text-anchor="start" x="671" y="-133" font-family="Helvetica,sans-Serif" font-size="10.00">turtleClasses.Turtle.get</text>
<text text-anchor="middle" x="726" y="-122" font-family="Helvetica,sans-Serif" font-size="10.00">Direction</text>
</a>
</g>
</g>
<!-- Node14&#45;&gt;Node17 -->
<g id="edge16" class="edge"><title>Node14&#45;&gt;Node17</title>
<path fill="none" stroke="midnightblue" d="M556.652,-164.453C584.735,-158.705 621.079,-151.267 652.807,-144.774"/>
<polygon fill="midnightblue" stroke="midnightblue" points="653.835,-148.137 662.93,-142.703 652.432,-141.279 653.835,-148.137"/>
</g>
<!-- Node18 -->
<g id="node18" class="node"><title>Node18</title>
<g id="a_node18"><a xlink:href="../../d8/d89/classturtle_classes_1_1_turtle.html#aebccf7c8d3ea7b21ea040ec199df9524" target="_top" xlink:title="turtleClasses.Turtle.getPen">
<polygon fill="white" stroke="black" points="654,-76.5 654,-95.5 798,-95.5 798,-76.5 654,-76.5"/>
<text text-anchor="middle" x="726" y="-83.5" font-family="Helvetica,sans-Serif" font-size="10.00">turtleClasses.Turtle.getPen</text>
</a>
</g>
</g>
<!-- Node14&#45;&gt;Node18 -->
<g id="edge17" class="edge"><title>Node14&#45;&gt;Node18</title>
<path fill="none" stroke="midnightblue" d="M582.001,-164.45C589.763,-161.763 597.272,-158.345 604,-154 626.701,-139.34 617.374,-119.777 640,-105 643.161,-102.936 646.514,-101.093 649.992,-99.4488"/>
<polygon fill="midnightblue" stroke="midnightblue" points="651.536,-102.598 659.441,-95.5434 648.863,-96.1284 651.536,-102.598"/>
</g>
<!-- Node19 -->
<g id="node19" class="node"><title>Node19</title>
<g id="a_node19"><a xlink:href="../../d3/d0e/classfrontend_1_1_pen.html#a17318755b237586d312171984cbcc550" target="_top" xlink:title="frontend.Pen.isPenDown">
<polygon fill="white" stroke="black" points="659.5,-38.5 659.5,-57.5 792.5,-57.5 792.5,-38.5 659.5,-38.5"/>
<text text-anchor="middle" x="726" y="-45.5" font-family="Helvetica,sans-Serif" font-size="10.00">frontend.Pen.isPenDown</text>
</a>
</g>
</g>
<!-- Node14&#45;&gt;Node19 -->
<g id="edge18" class="edge"><title>Node14&#45;&gt;Node19</title>
<path fill="none" stroke="midnightblue" d="M586.876,-164.43C593.048,-161.692 598.87,-158.269 604,-154 636.166,-127.233 607.972,-93.932 640,-67 643.101,-64.3922 646.485,-62.1221 650.057,-60.1477"/>
<polygon fill="midnightblue" stroke="midnightblue" points="651.706,-63.2401 659.273,-55.8247 648.734,-56.9026 651.706,-63.2401"/>
</g>
<!-- Node20 -->
<g id="node20" class="node"><title>Node20</title>
<g id="a_node20"><a xlink:href="../../d8/d89/classturtle_classes_1_1_turtle.html#ab9f4167fbd3300aef49f2221457509af" target="_top" xlink:title="turtleClasses.Turtle.isShowing">
<polygon fill="white" stroke="black" points="647,-0.5 647,-19.5 805,-19.5 805,-0.5 647,-0.5"/>
<text text-anchor="middle" x="726" y="-7.5" font-family="Helvetica,sans-Serif" font-size="10.00">turtleClasses.Turtle.isShowing</text>
</a>
</g>
</g>
<!-- Node14&#45;&gt;Node20 -->
<g id="edge19" class="edge"><title>Node14&#45;&gt;Node20</title>
<path fill="none" stroke="midnightblue" d="M588.76,-164.371C594.308,-161.618 599.483,-158.208 604,-154 646.301,-114.591 597.902,-68.6253 640,-29 641.528,-27.562 643.14,-26.2241 644.822,-24.9796"/>
<polygon fill="midnightblue" stroke="midnightblue" points="647.059,-27.7136 653.758,-19.5051 643.402,-21.7446 647.059,-27.7136"/>
</g>
</g>
</svg>
