<?xml version="1.0" encoding="UTF-8" standalone="no"?>
<!DOCTYPE svg PUBLIC "-//W3C//DTD SVG 1.1//EN"
 "http://www.w3.org/Graphics/SVG/1.1/DTD/svg11.dtd">
<!-- Generated by graphviz version 2.36.0 (20140111.2315)
 -->
<!-- Title: controlStructures.Repeat.makeInstructionList Pages: 1 -->
<svg width="354pt" height="136pt"
 viewBox="0.00 0.00 354.00 136.00" xmlns="http://www.w3.org/2000/svg" xmlns:xlink="http://www.w3.org/1999/xlink">
<g id="graph0" class="graph" transform="scale(1 1) rotate(0) translate(4 132)">
<title>controlStructures.Repeat.makeInstructionList</title>
<polygon fill="white" stroke="none" points="-4,4 -4,-132 350,-132 350,4 -4,4"/>
<!-- Node1 -->
<g id="node1" class="node"><title>Node1</title>
<polygon fill="#bfbfbf" stroke="black" points="0,-49 0,-79 166,-79 166,-49 0,-49"/>
<text text-anchor="start" x="8" y="-67" font-family="Helvetica,sans-Serif" font-size="10.00">controlStructures.Repeat.make</text>
<text text-anchor="middle" x="83" y="-56" font-family="Helvetica,sans-Serif" font-size="10.00">InstructionList</text>
</g>
<!-- Node2 -->
<g id="node2" class="node"><title>Node2</title>
<g id="a_node2"><a xlink:href="../../db/da5/classexpression_tree_1_1_expression_node.html#a189034630678dbe1dbb8805adbda2a96" target="_top" xlink:title="expressionTree.Expression\lNode.evaluate">
<polygon fill="white" stroke="black" points="202.5,-98 202.5,-128 345.5,-128 345.5,-98 202.5,-98"/>
<text text-anchor="start" x="210.5" y="-116" font-family="Helvetica,sans-Serif" font-size="10.00">expressionTree.Expression</text>
<text text-anchor="middle" x="274" y="-105" font-family="Helvetica,sans-Serif" font-size="10.00">Node.evaluate</text>
</a>
</g>
</g>
<!-- Node1&#45;&gt;Node2 -->
<g id="edge1" class="edge"><title>Node1&#45;&gt;Node2</title>
<path fill="none" stroke="midnightblue" d="M141.991,-79.0346C162.037,-84.2318 184.674,-90.1006 205.421,-95.4796"/>
<polygon fill="midnightblue" stroke="midnightblue" points="204.561,-98.8721 215.119,-97.9938 206.317,-92.0961 204.561,-98.8721"/>
</g>
<!-- Node3 -->
<g id="node3" class="node"><title>Node3</title>
<g id="a_node3"><a xlink:href="../../db/da5/classexpression_tree_1_1_expression_node.html#a76dbf0eda9446dbbe98827fb6ef33356" target="_top" xlink:title="expressionTree.Expression\lNode.getLeft">
<polygon fill="white" stroke="black" points="202.5,-49 202.5,-79 345.5,-79 345.5,-49 202.5,-49"/>
<text text-anchor="start" x="210.5" y="-67" font-family="Helvetica,sans-Serif" font-size="10.00">expressionTree.Expression</text>
<text text-anchor="middle" x="274" y="-56" font-family="Helvetica,sans-Serif" font-size="10.00">Node.getLeft</text>
</a>
</g>
</g>
<!-- Node1&#45;&gt;Node3 -->
<g id="edge2" class="edge"><title>Node1&#45;&gt;Node3</title>
<path fill="none" stroke="midnightblue" d="M166.074,-64C174.737,-64 183.543,-64 192.192,-64"/>
<polygon fill="midnightblue" stroke="midnightblue" points="192.256,-67.5001 202.256,-64 192.256,-60.5001 192.256,-67.5001"/>
</g>
<!-- Node4 -->
<g id="node4" class="node"><title>Node4</title>
<g id="a_node4"><a xlink:href="../../db/da5/classexpression_tree_1_1_expression_node.html#a154ef8394f8f1a4f41d4842e72f0681e" target="_top" xlink:title="expressionTree.Expression\lNode.getRight">
<polygon fill="white" stroke="black" points="202.5,-0 202.5,-30 345.5,-30 345.5,-0 202.5,-0"/>
<text text-anchor="start" x="210.5" y="-18" font-family="Helvetica,sans-Serif" font-size="10.00">expressionTree.Expression</text>
<text text-anchor="middle" x="274" y="-7" font-family="Helvetica,sans-Serif" font-size="10.00">Node.getRight</text>
</a>
</g>
</g>
<!-- Node1&#45;&gt;Node4 -->
<g id="edge3" class="edge"><title>Node1&#45;&gt;Node4</title>
<path fill="none" stroke="midnightblue" d="M141.991,-48.9654C162.037,-43.7682 184.674,-37.8994 205.421,-32.5204"/>
<polygon fill="midnightblue" stroke="midnightblue" points="206.317,-35.9039 215.119,-30.0062 204.561,-29.1279 206.317,-35.9039"/>
</g>
</g>
</svg>
