<?xml version="1.0" encoding="UTF-8" standalone="no"?>
<!DOCTYPE svg PUBLIC "-//W3C//DTD SVG 1.1//EN"
 "http://www.w3.org/Graphics/SVG/1.1/DTD/svg11.dtd">
<!-- Generated by graphviz version 2.36.0 (20140111.2315)
 -->
<!-- Title: commandAbstractClasses.Constant Pages: 1 -->
<svg width="244pt" height="168pt"
 viewBox="0.00 0.00 244.00 168.00" xmlns="http://www.w3.org/2000/svg" xmlns:xlink="http://www.w3.org/1999/xlink">
<g id="graph0" class="graph" transform="scale(1 1) rotate(0) translate(4 164)">
<title>commandAbstractClasses.Constant</title>
<polygon fill="white" stroke="none" points="-4,4 -4,-164 240,-164 240,4 -4,4"/>
<!-- Node1 -->
<g id="node1" class="node"><title>Node1</title>
<polygon fill="#bfbfbf" stroke="black" points="-0.5,-0.5 -0.5,-19.5 188.5,-19.5 188.5,-0.5 -0.5,-0.5"/>
<text text-anchor="middle" x="94" y="-7.5" font-family="Helvetica,sans-Serif" font-size="10.00">commandAbstractClasses.Constant</text>
</g>
<!-- Node2 -->
<g id="node2" class="node"><title>Node2</title>
<g id="a_node2"><a xlink:href="../../db/da5/classexpression_tree_1_1_expression_node.html" target="_top" xlink:title="expressionTree.ExpressionNode">
<polygon fill="white" stroke="black" points="10,-59.5 10,-78.5 178,-78.5 178,-59.5 10,-59.5"/>
<text text-anchor="middle" x="94" y="-66.5" font-family="Helvetica,sans-Serif" font-size="10.00">expressionTree.ExpressionNode</text>
</a>
</g>
</g>
<!-- Node2&#45;&gt;Node1 -->
<g id="edge1" class="edge"><title>Node2&#45;&gt;Node1</title>
<path fill="none" stroke="midnightblue" d="M94,-48.9331C94,-39.0243 94,-27.4007 94,-19.6571"/>
<polygon fill="midnightblue" stroke="midnightblue" points="90.5001,-49.0937 94,-59.0938 97.5001,-49.0938 90.5001,-49.0937"/>
</g>
<!-- Node2&#45;&gt;Node2 -->
<g id="edge3" class="edge"><title>Node2&#45;&gt;Node2</title>
<path fill="none" stroke="#9a32cd" stroke-dasharray="5,2" d="M188.372,-72.4687C192.558,-71.5845 195,-70.4282 195,-69 195,-66.6562 188.424,-65.0449 178.356,-64.166"/>
<polygon fill="#9a32cd" stroke="#9a32cd" points="187.791,-69.0155 178.356,-73.834 188.737,-75.9513 187.791,-69.0155"/>
<text text-anchor="middle" x="215" y="-72" font-family="Helvetica,sans-Serif" font-size="10.00"> myLeft</text>
<text text-anchor="middle" x="215" y="-61" font-family="Helvetica,sans-Serif" font-size="10.00">myRight</text>
</g>
<!-- Node3 -->
<g id="node3" class="node"><title>Node3</title>
<polygon fill="white" stroke="#bfbfbf" points="9,-129 9,-159 179,-159 179,-129 9,-129"/>
<text text-anchor="start" x="17" y="-147" font-family="Helvetica,sans-Serif" font-size="10.00">List&lt; displayCommands.Display</text>
<text text-anchor="middle" x="94" y="-136" font-family="Helvetica,sans-Serif" font-size="10.00">Node &gt;</text>
</g>
<!-- Node3&#45;&gt;Node2 -->
<g id="edge2" class="edge"><title>Node3&#45;&gt;Node2</title>
<path fill="none" stroke="#9a32cd" stroke-dasharray="5,2" d="M94,-118.574C94,-104.751 94,-88.325 94,-78.5528"/>
<polygon fill="#9a32cd" stroke="#9a32cd" points="90.5001,-118.925 94,-128.925 97.5001,-118.925 90.5001,-118.925"/>
<text text-anchor="middle" x="129" y="-101.5" font-family="Helvetica,sans-Serif" font-size="10.00"> instructionList</text>
</g>
</g>
</svg>
