<?xml version="1.0" encoding="UTF-8" standalone="no"?>
<!DOCTYPE svg PUBLIC "-//W3C//DTD SVG 1.1//EN"
 "http://www.w3.org/Graphics/SVG/1.1/DTD/svg11.dtd">
<!-- Generated by graphviz version 2.36.0 (20140111.2315)
 -->
<!-- Title: SLogoControllers.InputController.giveInput Pages: 1 -->
<svg width="598pt" height="38pt"
 viewBox="0.00 0.00 598.00 38.00" xmlns="http://www.w3.org/2000/svg" xmlns:xlink="http://www.w3.org/1999/xlink">
<g id="graph0" class="graph" transform="scale(1 1) rotate(0) translate(4 34)">
<title>SLogoControllers.InputController.giveInput</title>
<polygon fill="white" stroke="none" points="-4,4 -4,-34 594,-34 594,4 -4,4"/>
<!-- Node1 -->
<g id="node1" class="node"><title>Node1</title>
<polygon fill="#bfbfbf" stroke="black" points="0,-0 0,-30 194,-30 194,-0 0,-0"/>
<text text-anchor="start" x="8" y="-18" font-family="Helvetica,sans-Serif" font-size="10.00">SLogoControllers.InputController.give</text>
<text text-anchor="middle" x="97" y="-7" font-family="Helvetica,sans-Serif" font-size="10.00">Input</text>
</g>
<!-- Node2 -->
<g id="node2" class="node"><title>Node2</title>
<g id="a_node2"><a xlink:href="../../d4/dbc/classfrontend_1_1_translator.html#af1bc0cb421e114e275cf9b0185da7092" target="_top" xlink:title="frontend.Translator.translate">
<polygon fill="white" stroke="black" points="230,-5.5 230,-24.5 382,-24.5 382,-5.5 230,-5.5"/>
<text text-anchor="middle" x="306" y="-12.5" font-family="Helvetica,sans-Serif" font-size="10.00">frontend.Translator.translate</text>
</a>
</g>
</g>
<!-- Node1&#45;&gt;Node2 -->
<g id="edge1" class="edge"><title>Node1&#45;&gt;Node2</title>
<path fill="none" stroke="midnightblue" d="M194.228,-15C202.71,-15 211.257,-15 219.64,-15"/>
<polygon fill="midnightblue" stroke="midnightblue" points="219.77,-18.5001 229.77,-15 219.77,-11.5001 219.77,-18.5001"/>
</g>
<!-- Node3 -->
<g id="node3" class="node"><title>Node3</title>
<g id="a_node3"><a xlink:href="../../d4/dbc/classfrontend_1_1_translator.html#ad4388893530365ae85e623478ec20d50" target="_top" xlink:title="frontend.Translator.translateOne">
<polygon fill="white" stroke="black" points="418.5,-5.5 418.5,-24.5 589.5,-24.5 589.5,-5.5 418.5,-5.5"/>
<text text-anchor="middle" x="504" y="-12.5" font-family="Helvetica,sans-Serif" font-size="10.00">frontend.Translator.translateOne</text>
</a>
</g>
</g>
<!-- Node2&#45;&gt;Node3 -->
<g id="edge2" class="edge"><title>Node2&#45;&gt;Node3</title>
<path fill="none" stroke="midnightblue" d="M382.218,-15C390.676,-15 399.373,-15 408.039,-15"/>
<polygon fill="midnightblue" stroke="midnightblue" points="408.18,-18.5001 418.18,-15 408.18,-11.5001 408.18,-18.5001"/>
</g>
</g>
</svg>
