<?xml version="1.0" encoding="UTF-8" standalone="no"?>
<!DOCTYPE svg PUBLIC "-//W3C//DTD SVG 1.1//EN"
 "http://www.w3.org/Graphics/SVG/1.1/DTD/svg11.dtd">
<!-- Generated by graphviz version 2.36.0 (20140111.2315)
 -->
<!-- Title: SLogoControllers.InputController.getInstructions Pages: 1 -->
<svg width="534pt" height="38pt"
 viewBox="0.00 0.00 534.00 38.00" xmlns="http://www.w3.org/2000/svg" xmlns:xlink="http://www.w3.org/1999/xlink">
<g id="graph0" class="graph" transform="scale(1 1) rotate(0) translate(4 34)">
<title>SLogoControllers.InputController.getInstructions</title>
<polygon fill="white" stroke="none" points="-4,4 -4,-34 530,-34 530,4 -4,4"/>
<!-- Node1 -->
<g id="node1" class="node"><title>Node1</title>
<polygon fill="#bfbfbf" stroke="black" points="0,-0 0,-30 190,-30 190,-0 0,-0"/>
<text text-anchor="start" x="8" y="-18" font-family="Helvetica,sans-Serif" font-size="10.00">SLogoControllers.InputController.get</text>
<text text-anchor="middle" x="95" y="-7" font-family="Helvetica,sans-Serif" font-size="10.00">Instructions</text>
</g>
<!-- Node2 -->
<g id="node2" class="node"><title>Node2</title>
<g id="a_node2"><a xlink:href="../../d1/ddd/classbackend_1_1_parser.html#a8b57ca47f899f9682d7e7b8f19857933" target="_top" xlink:title="backend.Parser.parse">
<polygon fill="white" stroke="black" points="226.5,-5.5 226.5,-24.5 345.5,-24.5 345.5,-5.5 226.5,-5.5"/>
<text text-anchor="middle" x="286" y="-12.5" font-family="Helvetica,sans-Serif" font-size="10.00">backend.Parser.parse</text>
</a>
</g>
</g>
<!-- Node1&#45;&gt;Node2 -->
<g id="edge1" class="edge"><title>Node1&#45;&gt;Node2</title>
<path fill="none" stroke="midnightblue" d="M190.223,-15C198.966,-15 207.712,-15 216.162,-15"/>
<polygon fill="midnightblue" stroke="midnightblue" points="216.302,-18.5001 226.302,-15 216.302,-11.5001 216.302,-18.5001"/>
</g>
<!-- Node3 -->
<g id="node3" class="node"><title>Node3</title>
<g id="a_node3"><a xlink:href="../../d3/dfb/classexpression_tree_1_1_expression_tree_builder.html#aa6681548d74fc2f813e9496a163716be" target="_top" xlink:title="expressionTree.Expression\lTreeBuilder.getOutputList">
<polygon fill="white" stroke="black" points="382.5,-0 382.5,-30 525.5,-30 525.5,-0 382.5,-0"/>
<text text-anchor="start" x="390.5" y="-18" font-family="Helvetica,sans-Serif" font-size="10.00">expressionTree.Expression</text>
<text text-anchor="middle" x="454" y="-7" font-family="Helvetica,sans-Serif" font-size="10.00">TreeBuilder.getOutputList</text>
</a>
</g>
</g>
<!-- Node2&#45;&gt;Node3 -->
<g id="edge2" class="edge"><title>Node2&#45;&gt;Node3</title>
<path fill="none" stroke="midnightblue" d="M345.525,-15C354.206,-15 363.28,-15 372.316,-15"/>
<polygon fill="midnightblue" stroke="midnightblue" points="372.481,-18.5001 382.481,-15 372.481,-11.5001 372.481,-18.5001"/>
</g>
</g>
</svg>
