<?xml version="1.0" encoding="UTF-8" standalone="no"?>
<!DOCTYPE svg PUBLIC "-//W3C//DTD SVG 1.1//EN"
 "http://www.w3.org/Graphics/SVG/1.1/DTD/svg11.dtd">
<!-- Generated by graphviz version 2.36.0 (20140111.2315)
 -->
<!-- Title: frontend.SLogoWorkspace Pages: 1 -->
<svg width="1044pt" height="661pt"
 viewBox="0.00 0.00 1044.00 660.80" xmlns="http://www.w3.org/2000/svg" xmlns:xlink="http://www.w3.org/1999/xlink">
<g id="graph0" class="graph" transform="scale(1 1) rotate(0) translate(4 656.803)">
<title>frontend.SLogoWorkspace</title>
<polygon fill="white" stroke="none" points="-4,4 -4,-656.803 1040,-656.803 1040,4 -4,4"/>
<!-- Node1 -->
<g id="node1" class="node"><title>Node1</title>
<polygon fill="#bfbfbf" stroke="black" points="894.5,-226.303 894.5,-245.303 1035.5,-245.303 1035.5,-226.303 894.5,-226.303"/>
<text text-anchor="middle" x="965" y="-233.303" font-family="Helvetica,sans-Serif" font-size="10.00">frontend.SLogoWorkspace</text>
</g>
<!-- Node2 -->
<g id="node2" class="node"><title>Node2</title>
<g id="a_node2"><a xlink:href="../../df/d0e/classfrontend_1_1_pane_updater.html" target="_top" xlink:title="frontend.PaneUpdater">
<polygon fill="white" stroke="black" points="628,-412.303 628,-431.303 750,-431.303 750,-412.303 628,-412.303"/>
<text text-anchor="middle" x="689" y="-419.303" font-family="Helvetica,sans-Serif" font-size="10.00">frontend.PaneUpdater</text>
</a>
</g>
</g>
<!-- Node2&#45;&gt;Node1 -->
<g id="edge1" class="edge"><title>Node2&#45;&gt;Node1</title>
<path fill="none" stroke="#9a32cd" stroke-dasharray="5,2" d="M760.519,-426.973C797.798,-426.299 842.619,-419.743 876,-396.803 931.393,-358.736 955.256,-274.047 961.933,-245.449"/>
<polygon fill="#9a32cd" stroke="#9a32cd" points="760.205,-423.475 750.22,-427.016 760.234,-430.475 760.205,-423.475"/>
<text text-anchor="middle" x="835" y="-427.803" font-family="Helvetica,sans-Serif" font-size="10.00"> myPaneUpdater</text>
</g>
<!-- Node3 -->
<g id="node3" class="node"><title>Node3</title>
<polygon fill="white" stroke="#bfbfbf" points="300.5,-403.803 300.5,-433.803 473.5,-433.803 473.5,-403.803 300.5,-403.803"/>
<text text-anchor="start" x="308.5" y="-421.803" font-family="Helvetica,sans-Serif" font-size="10.00">List&lt; frontend.AbstractFeatures.</text>
<text text-anchor="middle" x="387" y="-410.803" font-family="Helvetica,sans-Serif" font-size="10.00">SLogoScrollPane &gt;</text>
</g>
<!-- Node3&#45;&gt;Node2 -->
<g id="edge2" class="edge"><title>Node3&#45;&gt;Node2</title>
<path fill="none" stroke="#9a32cd" stroke-dasharray="5,2" d="M483.804,-419.761C530.96,-420.232 586.371,-420.787 627.564,-421.198"/>
<polygon fill="#9a32cd" stroke="#9a32cd" points="483.601,-416.259 473.566,-419.659 483.531,-423.258 483.601,-416.259"/>
<text text-anchor="middle" x="538" y="-423.803" font-family="Helvetica,sans-Serif" font-size="10.00"> myUpdateables</text>
</g>
<!-- Node4 -->
<g id="node4" class="node"><title>Node4</title>
<polygon fill="white" stroke="#bfbfbf" points="340.5,-230.303 340.5,-249.303 433.5,-249.303 433.5,-230.303 340.5,-230.303"/>
<text text-anchor="middle" x="387" y="-237.303" font-family="Helvetica,sans-Serif" font-size="10.00">ResourceBundle</text>
</g>
<!-- Node4&#45;&gt;Node1 -->
<g id="edge3" class="edge"><title>Node4&#45;&gt;Node1</title>
<path fill="none" stroke="#9a32cd" stroke-dasharray="5,2" d="M443.818,-239.415C549.51,-238.681 778.596,-237.09 894.232,-236.287"/>
<polygon fill="#9a32cd" stroke="#9a32cd" points="443.655,-235.916 433.679,-239.486 443.703,-242.916 443.655,-235.916"/>
<text text-anchor="middle" x="689" y="-252.803" font-family="Helvetica,sans-Serif" font-size="10.00"> GUI_NAMES</text>
<text text-anchor="middle" x="689" y="-241.803" font-family="Helvetica,sans-Serif" font-size="10.00">GUI_PREFERENCES</text>
</g>
<!-- Node23 -->
<g id="node23" class="node"><title>Node23</title>
<g id="a_node23"><a xlink:href="../../d4/dbc/classfrontend_1_1_translator.html" target="_top" xlink:title="frontend.Translator">
<polygon fill="white" stroke="black" points="635.5,-193.303 635.5,-212.303 742.5,-212.303 742.5,-193.303 635.5,-193.303"/>
<text text-anchor="middle" x="689" y="-200.303" font-family="Helvetica,sans-Serif" font-size="10.00">frontend.Translator</text>
</a>
</g>
</g>
<!-- Node4&#45;&gt;Node23 -->
<g id="edge27" class="edge"><title>Node4&#45;&gt;Node23</title>
<path fill="none" stroke="#9a32cd" stroke-dasharray="5,2" d="M443.772,-230.74C459.36,-228.338 476.323,-225.848 492,-223.803 540.358,-217.496 595.61,-211.703 635.098,-207.807"/>
<polygon fill="#9a32cd" stroke="#9a32cd" points="443.097,-227.303 433.755,-232.3 444.174,-234.219 443.097,-227.303"/>
<text text-anchor="middle" x="538" y="-226.803" font-family="Helvetica,sans-Serif" font-size="10.00"> myLanguage</text>
</g>
<!-- Node5 -->
<g id="node5" class="node"><title>Node5</title>
<g id="a_node5"><a xlink:href="../../d8/d89/classturtle_classes_1_1_turtle.html" target="_top" xlink:title="turtleClasses.Turtle">
<polygon fill="white" stroke="black" points="635.5,-534.303 635.5,-553.303 742.5,-553.303 742.5,-534.303 635.5,-534.303"/>
<text text-anchor="middle" x="689" y="-541.303" font-family="Helvetica,sans-Serif" font-size="10.00">turtleClasses.Turtle</text>
</a>
</g>
</g>
<!-- Node5&#45;&gt;Node1 -->
<g id="edge4" class="edge"><title>Node5&#45;&gt;Node1</title>
<path fill="none" stroke="#9a32cd" stroke-dasharray="5,2" d="M728.804,-530.709C770.192,-514.981 835.272,-484.939 876,-439.803 931.298,-378.521 955.638,-277.141 962.137,-245.526"/>
<polygon fill="#9a32cd" stroke="#9a32cd" points="727.495,-527.462 719.332,-534.216 729.925,-534.026 727.495,-527.462"/>
<text text-anchor="middle" x="835" y="-502.803" font-family="Helvetica,sans-Serif" font-size="10.00"> myInitialTurtle</text>
</g>
<!-- Node10 -->
<g id="node10" class="node"><title>Node10</title>
<g id="a_node10"><a xlink:href="../../da/deb/classfrontend_1_1_line_drawer.html" target="_top" xlink:title="frontend.LineDrawer">
<polygon fill="white" stroke="black" points="908.5,-581.303 908.5,-600.303 1021.5,-600.303 1021.5,-581.303 908.5,-581.303"/>
<text text-anchor="middle" x="965" y="-588.303" font-family="Helvetica,sans-Serif" font-size="10.00">frontend.LineDrawer</text>
</a>
</g>
</g>
<!-- Node5&#45;&gt;Node10 -->
<g id="edge12" class="edge"><title>Node5&#45;&gt;Node10</title>
<path fill="none" stroke="#9a32cd" stroke-dasharray="5,2" d="M752.556,-554.533C799.503,-562.586 863.2,-573.512 908.378,-581.262"/>
<polygon fill="#9a32cd" stroke="#9a32cd" points="752.954,-551.05 742.506,-552.809 751.77,-557.95 752.954,-551.05"/>
<text text-anchor="middle" x="835" y="-577.803" font-family="Helvetica,sans-Serif" font-size="10.00"> myTurtle</text>
</g>
<!-- Node6 -->
<g id="node6" class="node"><title>Node6</title>
<g id="a_node6"><a xlink:href="../../d3/d0e/classfrontend_1_1_pen.html" target="_top" xlink:title="frontend.Pen">
<polygon fill="white" stroke="black" points="348,-585.303 348,-604.303 426,-604.303 426,-585.303 348,-585.303"/>
<text text-anchor="middle" x="387" y="-592.303" font-family="Helvetica,sans-Serif" font-size="10.00">frontend.Pen</text>
</a>
</g>
</g>
<!-- Node6&#45;&gt;Node5 -->
<g id="edge5" class="edge"><title>Node6&#45;&gt;Node5</title>
<path fill="none" stroke="#9a32cd" stroke-dasharray="5,2" d="M436.396,-586.575C490.881,-577.313 579.115,-562.313 635.304,-552.761"/>
<polygon fill="#9a32cd" stroke="#9a32cd" points="435.572,-583.165 426.3,-588.292 436.745,-590.066 435.572,-583.165"/>
<text text-anchor="middle" x="538" y="-579.803" font-family="Helvetica,sans-Serif" font-size="10.00"> myPen</text>
</g>
<!-- Node6&#45;&gt;Node10 -->
<g id="edge10" class="edge"><title>Node6&#45;&gt;Node10</title>
<path fill="none" stroke="#9a32cd" stroke-dasharray="5,2" d="M436.344,-594.467C542.489,-593.73 795.421,-591.974 908.138,-591.191"/>
<polygon fill="#9a32cd" stroke="#9a32cd" points="436.214,-590.968 426.239,-594.537 436.263,-597.968 436.214,-590.968"/>
<text text-anchor="middle" x="689" y="-595.803" font-family="Helvetica,sans-Serif" font-size="10.00"> myPen</text>
</g>
<!-- Node7 -->
<g id="node7" class="node"><title>Node7</title>
<polygon fill="white" stroke="#bfbfbf" points="13,-595.303 13,-614.303 141,-614.303 141,-595.303 13,-595.303"/>
<text text-anchor="middle" x="77" y="-602.303" font-family="Helvetica,sans-Serif" font-size="10.00">Map&lt; String, Double &gt;</text>
</g>
<!-- Node7&#45;&gt;Node6 -->
<g id="edge6" class="edge"><title>Node7&#45;&gt;Node6</title>
<path fill="none" stroke="#9a32cd" stroke-dasharray="5,2" d="M151.146,-602.428C212.88,-600.424 298.81,-597.634 347.783,-596.044"/>
<polygon fill="#9a32cd" stroke="#9a32cd" points="150.953,-598.932 141.072,-602.755 151.18,-605.929 150.953,-598.932"/>
<text text-anchor="middle" x="227" y="-603.803" font-family="Helvetica,sans-Serif" font-size="10.00"> LINE_STYLES</text>
</g>
<!-- Node8 -->
<g id="node8" class="node"><title>Node8</title>
<polygon fill="white" stroke="#bfbfbf" points="56.5,-519.303 56.5,-538.303 97.5,-538.303 97.5,-519.303 56.5,-519.303"/>
<text text-anchor="middle" x="77" y="-526.303" font-family="Helvetica,sans-Serif" font-size="10.00">Color</text>
</g>
<!-- Node8&#45;&gt;Node6 -->
<g id="edge7" class="edge"><title>Node8&#45;&gt;Node6</title>
<path fill="none" stroke="#9a32cd" stroke-dasharray="5,2" d="M107.524,-534.93C147.215,-543.19 219.969,-558.406 282,-571.803 303.871,-576.526 328.301,-581.923 347.985,-586.301"/>
<polygon fill="#9a32cd" stroke="#9a32cd" points="108.21,-531.498 97.7069,-532.889 106.785,-538.352 108.21,-531.498"/>
<text text-anchor="middle" x="227" y="-585.803" font-family="Helvetica,sans-Serif" font-size="10.00"> DEFAULT_LINE_COLOR</text>
<text text-anchor="middle" x="227" y="-574.803" font-family="Helvetica,sans-Serif" font-size="10.00">myLineColor</text>
</g>
<!-- Node26 -->
<g id="node26" class="node"><title>Node26</title>
<g id="a_node26"><a xlink:href="../../d1/d07/classfrontend_1_1_s_logo_canvas.html" target="_top" xlink:title="frontend.SLogoCanvas">
<polygon fill="white" stroke="black" points="324.5,-365.303 324.5,-384.303 449.5,-384.303 449.5,-365.303 324.5,-365.303"/>
<text text-anchor="middle" x="387" y="-372.303" font-family="Helvetica,sans-Serif" font-size="10.00">frontend.SLogoCanvas</text>
</a>
</g>
</g>
<!-- Node8&#45;&gt;Node26 -->
<g id="edge36" class="edge"><title>Node8&#45;&gt;Node26</title>
<path fill="none" stroke="#9a32cd" stroke-dasharray="5,2" d="M107.029,-517.51C125.529,-510.433 150.061,-501.271 172,-493.803 220.441,-477.313 246.428,-496.588 282,-459.803 303.136,-437.946 277.982,-414.771 300,-393.803 306.754,-387.37 315.173,-382.925 324.079,-379.884"/>
<polygon fill="#9a32cd" stroke="#9a32cd" points="105.766,-514.245 97.6888,-521.101 108.279,-520.779 105.766,-514.245"/>
<text text-anchor="middle" x="227" y="-496.803" font-family="Helvetica,sans-Serif" font-size="10.00"> START_COLOR</text>
</g>
<!-- Node9 -->
<g id="node9" class="node"><title>Node9</title>
<polygon fill="white" stroke="#bfbfbf" points="353,-538.303 353,-557.303 421,-557.303 421,-538.303 353,-538.303"/>
<text text-anchor="middle" x="387" y="-545.303" font-family="Helvetica,sans-Serif" font-size="10.00">ImageView</text>
</g>
<!-- Node9&#45;&gt;Node5 -->
<g id="edge8" class="edge"><title>Node9&#45;&gt;Node5</title>
<path fill="none" stroke="#9a32cd" stroke-dasharray="5,2" d="M431.501,-546.318C450.13,-545.742 472.13,-545.14 492,-544.803 540.483,-543.98 595.721,-543.763 635.172,-543.733"/>
<polygon fill="#9a32cd" stroke="#9a32cd" points="431.134,-542.828 421.25,-546.643 431.356,-549.824 431.134,-542.828"/>
<text text-anchor="middle" x="538" y="-547.803" font-family="Helvetica,sans-Serif" font-size="10.00"> myImage</text>
</g>
<!-- Node10&#45;&gt;Node5 -->
<g id="edge9" class="edge"><title>Node10&#45;&gt;Node5</title>
<path fill="none" stroke="#9a32cd" stroke-dasharray="5,2" d="M941.84,-575.402C924.73,-564.487 899.998,-550.765 876,-544.803 831.968,-533.863 780.243,-534.63 742.531,-537.549"/>
<polygon fill="#9a32cd" stroke="#9a32cd" points="940.232,-578.533 950.508,-581.109 944.081,-572.687 940.232,-578.533"/>
<text text-anchor="middle" x="835" y="-547.803" font-family="Helvetica,sans-Serif" font-size="10.00"> myDrawer</text>
</g>
<!-- Node11 -->
<g id="node11" class="node"><title>Node11</title>
<polygon fill="white" stroke="#bfbfbf" points="57,-633.303 57,-652.303 97,-652.303 97,-633.303 57,-633.303"/>
<text text-anchor="middle" x="77" y="-640.303" font-family="Helvetica,sans-Serif" font-size="10.00">Pane</text>
</g>
<!-- Node11&#45;&gt;Node10 -->
<g id="edge11" class="edge"><title>Node11&#45;&gt;Node10</title>
<path fill="none" stroke="#9a32cd" stroke-dasharray="5,2" d="M107.324,-642.571C211.983,-641.497 576.848,-635.627 876,-604.803 887.08,-603.661 898.888,-602.054 910.139,-600.334"/>
<polygon fill="#9a32cd" stroke="#9a32cd" points="107.17,-639.072 97.2043,-642.668 107.237,-646.072 107.17,-639.072"/>
<text text-anchor="middle" x="538" y="-633.803" font-family="Helvetica,sans-Serif" font-size="10.00"> myPane</text>
</g>
<!-- Node11&#45;&gt;Node26 -->
<g id="edge33" class="edge"><title>Node11&#45;&gt;Node26</title>
<path fill="none" stroke="#9a32cd" stroke-dasharray="5,2" d="M107.459,-642.704C123.357,-641.058 142.104,-636.279 154,-623.803 182.15,-594.28 144.039,-563.505 172,-533.803 206.655,-496.989 248.025,-542.245 282,-504.803 315.585,-467.791 265.676,-430.13 300,-393.803 306.616,-386.801 315.184,-382.095 324.342,-378.978"/>
<polygon fill="#9a32cd" stroke="#9a32cd" points="106.773,-639.242 97.0278,-643.399 107.238,-646.227 106.773,-639.242"/>
<text text-anchor="middle" x="227" y="-536.803" font-family="Helvetica,sans-Serif" font-size="10.00"> myHolder</text>
</g>
<!-- Node12 -->
<g id="node12" class="node"><title>Node12</title>
<polygon fill="white" stroke="#bfbfbf" points="51,-403.303 51,-422.303 103,-422.303 103,-403.303 51,-403.303"/>
<text text-anchor="middle" x="77" y="-410.303" font-family="Helvetica,sans-Serif" font-size="10.00">Canvas</text>
</g>
<!-- Node12&#45;&gt;Node5 -->
<g id="edge13" class="edge"><title>Node12&#45;&gt;Node5</title>
<path fill="none" stroke="#9a32cd" stroke-dasharray="5,2" d="M113.187,-416.661C153.94,-421.313 223.033,-429.772 282,-439.803 367.931,-454.42 389.501,-458.407 474,-479.803 540.726,-496.699 617.802,-520.933 658.797,-534.206"/>
<polygon fill="#9a32cd" stroke="#9a32cd" points="113.544,-413.179 103.214,-415.533 112.758,-420.134 113.544,-413.179"/>
<text text-anchor="middle" x="387" y="-482.803" font-family="Helvetica,sans-Serif" font-size="10.00"> myCanvas</text>
</g>
<!-- Node17 -->
<g id="node17" class="node"><title>Node17</title>
<g id="a_node17"><a xlink:href="../../d4/d7e/classturtle_classes_1_1_turtle_collection.html" target="_top" xlink:title="turtleClasses.TurtleCollection">
<polygon fill="white" stroke="black" points="310,-67.3029 310,-86.3029 464,-86.3029 464,-67.3029 310,-67.3029"/>
<text text-anchor="middle" x="387" y="-74.3029" font-family="Helvetica,sans-Serif" font-size="10.00">turtleClasses.TurtleCollection</text>
</a>
</g>
</g>
<!-- Node12&#45;&gt;Node17 -->
<g id="edge22" class="edge"><title>Node12&#45;&gt;Node17</title>
<path fill="none" stroke="#9a32cd" stroke-dasharray="5,2" d="M113.332,-411.431C127.583,-409.143 143.178,-404.18 154,-393.803 174.403,-374.239 161.202,-358.926 172,-332.803 183.395,-305.234 276.273,-114.884 300,-96.8029 305.608,-92.529 311.978,-89.1452 318.654,-86.4698"/>
<polygon fill="#9a32cd" stroke="#9a32cd" points="112.781,-407.972 103.281,-412.663 113.632,-414.92 112.781,-407.972"/>
<text text-anchor="middle" x="227" y="-335.803" font-family="Helvetica,sans-Serif" font-size="10.00"> myCanvas</text>
</g>
<!-- Node12&#45;&gt;Node26 -->
<g id="edge31" class="edge"><title>Node12&#45;&gt;Node26</title>
<path fill="none" stroke="midnightblue" d="M113.161,-408.465C164.559,-402.123 260.963,-390.23 324.321,-382.413"/>
<polygon fill="midnightblue" stroke="midnightblue" points="112.701,-404.995 103.205,-409.693 113.558,-411.942 112.701,-404.995"/>
</g>
<!-- Node13 -->
<g id="node13" class="node"><title>Node13</title>
<polygon fill="white" stroke="#bfbfbf" points="366,-500.303 366,-519.303 408,-519.303 408,-500.303 366,-500.303"/>
<text text-anchor="middle" x="387" y="-507.303" font-family="Helvetica,sans-Serif" font-size="10.00">HBox</text>
</g>
<!-- Node13&#45;&gt;Node5 -->
<g id="edge14" class="edge"><title>Node13&#45;&gt;Node5</title>
<path fill="none" stroke="#9a32cd" stroke-dasharray="5,2" d="M418.094,-512.282C456.608,-515.554 525.363,-521.736 584,-528.803 600.753,-530.822 618.977,-533.34 635.423,-535.733"/>
<polygon fill="#9a32cd" stroke="#9a32cd" points="418.325,-508.789 408.067,-511.437 417.738,-515.764 418.325,-508.789"/>
<text text-anchor="middle" x="538" y="-531.803" font-family="Helvetica,sans-Serif" font-size="10.00"> myContainer</text>
</g>
<!-- Node14 -->
<g id="node14" class="node"><title>Node14</title>
<g id="a_node14"><a xlink:href="../../d1/ded/classexpression_tree_1_1_history_collection.html" target="_top" xlink:title="expressionTree.HistoryCollection">
<polygon fill="white" stroke="black" points="603.5,-155.303 603.5,-174.303 774.5,-174.303 774.5,-155.303 603.5,-155.303"/>
<text text-anchor="middle" x="689" y="-162.303" font-family="Helvetica,sans-Serif" font-size="10.00">expressionTree.HistoryCollection</text>
</a>
</g>
</g>
<!-- Node14&#45;&gt;Node1 -->
<g id="edge15" class="edge"><title>Node14&#45;&gt;Node1</title>
<path fill="none" stroke="#9a32cd" stroke-dasharray="5,2" d="M768.977,-176.034C802.365,-181.714 841.444,-189.598 876,-199.803 899.905,-206.862 926.226,-218.119 943.796,-226.165"/>
<polygon fill="#9a32cd" stroke="#9a32cd" points="769.249,-172.531 758.81,-174.342 768.1,-179.436 769.249,-172.531"/>
<text text-anchor="middle" x="835" y="-202.803" font-family="Helvetica,sans-Serif" font-size="10.00"> myHistory</text>
</g>
<!-- Node15 -->
<g id="node15" class="node"><title>Node15</title>
<polygon fill="white" stroke="#bfbfbf" points="335,-144.303 335,-163.303 439,-163.303 439,-144.303 335,-144.303"/>
<text text-anchor="middle" x="387" y="-151.303" font-family="Helvetica,sans-Serif" font-size="10.00">Iterable&lt; String &gt;</text>
</g>
<!-- Node15&#45;&gt;Node14 -->
<g id="edge16" class="edge"><title>Node15&#45;&gt;Node14</title>
<path fill="none" stroke="midnightblue" d="M449.293,-156.05C493.666,-157.677 554.202,-159.897 603.208,-161.694"/>
<polygon fill="midnightblue" stroke="midnightblue" points="449.353,-152.55 439.231,-155.681 449.096,-159.545 449.353,-152.55"/>
</g>
<!-- Node16 -->
<g id="node16" class="node"><title>Node16</title>
<polygon fill="white" stroke="#bfbfbf" points="345,-106.303 345,-125.303 429,-125.303 429,-106.303 345,-106.303"/>
<text text-anchor="middle" x="387" y="-113.303" font-family="Helvetica,sans-Serif" font-size="10.00">List&lt; String &gt;</text>
</g>
<!-- Node16&#45;&gt;Node14 -->
<g id="edge17" class="edge"><title>Node16&#45;&gt;Node14</title>
<path fill="none" stroke="#9a32cd" stroke-dasharray="5,2" d="M439.01,-121.814C478.658,-126.731 534.972,-134.252 584,-142.803 604.635,-146.402 627.416,-151.134 646.383,-155.287"/>
<polygon fill="#9a32cd" stroke="#9a32cd" points="439.403,-118.336 429.051,-120.59 438.549,-125.284 439.403,-118.336"/>
<text text-anchor="middle" x="538" y="-145.803" font-family="Helvetica,sans-Serif" font-size="10.00"> myHistory</text>
</g>
<!-- Node17&#45;&gt;Node1 -->
<g id="edge18" class="edge"><title>Node17&#45;&gt;Node1</title>
<path fill="none" stroke="#9a32cd" stroke-dasharray="5,2" d="M419.727,-63.3157C460.868,-46.627 535.271,-19.1497 602,-8.80285 678.42,3.04674 699.539,2.77685 776,-8.80285 822.006,-15.7703 841.162,-8.95699 876,-39.8029 935.763,-92.7178 957.103,-194.129 962.497,-225.98"/>
<polygon fill="#9a32cd" stroke="#9a32cd" points="418.172,-60.1707 410.252,-67.208 420.831,-66.6457 418.172,-60.1707"/>
<text text-anchor="middle" x="689" y="-11.8029" font-family="Helvetica,sans-Serif" font-size="10.00"> myTurtleCollection</text>
</g>
<!-- Node21 -->
<g id="node21" class="node"><title>Node21</title>
<g id="a_node21"><a xlink:href="../../d3/d17/classturtle_classes_1_1_turtle_mover.html" target="_top" xlink:title="turtleClasses.TurtleMover">
<polygon fill="white" stroke="black" points="620.5,-67.3029 620.5,-86.3029 757.5,-86.3029 757.5,-67.3029 620.5,-67.3029"/>
<text text-anchor="middle" x="689" y="-74.3029" font-family="Helvetica,sans-Serif" font-size="10.00">turtleClasses.TurtleMover</text>
</a>
</g>
</g>
<!-- Node17&#45;&gt;Node21 -->
<g id="edge24" class="edge"><title>Node17&#45;&gt;Node21</title>
<path fill="none" stroke="#9a32cd" stroke-dasharray="5,2" d="M474.15,-76.8029C520.63,-76.8029 577.165,-76.8029 620.431,-76.8029"/>
<polygon fill="#9a32cd" stroke="#9a32cd" points="474.091,-73.303 464.09,-76.8029 474.09,-80.303 474.091,-73.303"/>
<text text-anchor="middle" x="538" y="-79.8029" font-family="Helvetica,sans-Serif" font-size="10.00"> myTurtleCollection</text>
</g>
<!-- Node18 -->
<g id="node18" class="node"><title>Node18</title>
<polygon fill="white" stroke="#bfbfbf" points="26.5,-67.3029 26.5,-86.3029 127.5,-86.3029 127.5,-67.3029 26.5,-67.3029"/>
<text text-anchor="middle" x="77" y="-74.3029" font-family="Helvetica,sans-Serif" font-size="10.00">Iterable&lt; Turtle &gt;</text>
</g>
<!-- Node18&#45;&gt;Node17 -->
<g id="edge19" class="edge"><title>Node18&#45;&gt;Node17</title>
<path fill="none" stroke="midnightblue" d="M137.97,-76.8029C187.029,-76.8029 256.716,-76.8029 309.738,-76.8029"/>
<polygon fill="midnightblue" stroke="midnightblue" points="137.828,-73.303 127.828,-76.8029 137.828,-80.303 137.828,-73.303"/>
</g>
<!-- Node19 -->
<g id="node19" class="node"><title>Node19</title>
<polygon fill="white" stroke="#bfbfbf" points="0.5,-17.8029 0.5,-47.8029 153.5,-47.8029 153.5,-17.8029 0.5,-17.8029"/>
<text text-anchor="start" x="8.5" y="-35.8029" font-family="Helvetica,sans-Serif" font-size="10.00">Map&lt; Integer, turtleClasses.</text>
<text text-anchor="middle" x="77" y="-24.8029" font-family="Helvetica,sans-Serif" font-size="10.00">Turtle &gt;</text>
</g>
<!-- Node19&#45;&gt;Node17 -->
<g id="edge20" class="edge"><title>Node19&#45;&gt;Node17</title>
<path fill="none" stroke="#9a32cd" stroke-dasharray="5,2" d="M163.677,-44.9429C200.15,-50.1213 243.158,-56.2409 282,-61.8029 294.37,-63.5741 307.566,-65.4715 320.261,-67.3006"/>
<polygon fill="#9a32cd" stroke="#9a32cd" points="163.964,-41.4487 153.571,-43.5085 162.98,-48.3792 163.964,-41.4487"/>
<text text-anchor="middle" x="227" y="-64.8029" font-family="Helvetica,sans-Serif" font-size="10.00"> myTurtles</text>
</g>
<!-- Node20 -->
<g id="node20" class="node"><title>Node20</title>
<polygon fill="white" stroke="#bfbfbf" points="4,-105.303 4,-124.303 150,-124.303 150,-105.303 4,-105.303"/>
<text text-anchor="middle" x="77" y="-112.303" font-family="Helvetica,sans-Serif" font-size="10.00">List&lt; turtleClasses.Turtle &gt;</text>
</g>
<!-- Node20&#45;&gt;Node17 -->
<g id="edge21" class="edge"><title>Node20&#45;&gt;Node17</title>
<path fill="none" stroke="#9a32cd" stroke-dasharray="5,2" d="M160.535,-105.41C197.677,-101.102 242.06,-95.8402 282,-90.8029 293.116,-89.4008 304.894,-87.8645 316.373,-86.3392"/>
<polygon fill="#9a32cd" stroke="#9a32cd" points="159.792,-101.973 150.261,-106.599 160.597,-108.926 159.792,-101.973"/>
<text text-anchor="middle" x="227" y="-106.803" font-family="Helvetica,sans-Serif" font-size="10.00"> myActiveTurtles</text>
</g>
<!-- Node21&#45;&gt;Node1 -->
<g id="edge23" class="edge"><title>Node21&#45;&gt;Node1</title>
<path fill="none" stroke="#9a32cd" stroke-dasharray="5,2" d="M768.009,-84.4857C803.285,-90.8546 844.112,-102.502 876,-123.803 917.126,-151.274 947.703,-204.181 959.113,-226.013"/>
<polygon fill="#9a32cd" stroke="#9a32cd" points="768.182,-80.9654 757.739,-82.7497 767.016,-87.8675 768.182,-80.9654"/>
<text text-anchor="middle" x="835" y="-126.803" font-family="Helvetica,sans-Serif" font-size="10.00"> myMover</text>
</g>
<!-- Node22 -->
<g id="node22" class="node"><title>Node22</title>
<polygon fill="white" stroke="#bfbfbf" points="602.5,-105.803 602.5,-135.803 775.5,-135.803 775.5,-105.803 602.5,-105.803"/>
<text text-anchor="start" x="610.5" y="-123.803" font-family="Helvetica,sans-Serif" font-size="10.00">List&lt; frontend.AbstractFeatures.</text>
<text text-anchor="middle" x="689" y="-112.803" font-family="Helvetica,sans-Serif" font-size="10.00">GUIFeature &gt;</text>
</g>
<!-- Node22&#45;&gt;Node1 -->
<g id="edge25" class="edge"><title>Node22&#45;&gt;Node1</title>
<path fill="none" stroke="#9a32cd" stroke-dasharray="5,2" d="M785.585,-135.605C815.491,-142.401 847.977,-152.104 876,-165.803 908.271,-181.578 939.613,-210.838 954.691,-226.05"/>
<polygon fill="#9a32cd" stroke="#9a32cd" points="786.069,-132.128 775.552,-133.41 784.573,-138.966 786.069,-132.128"/>
<text text-anchor="middle" x="835" y="-168.803" font-family="Helvetica,sans-Serif" font-size="10.00"> startingFeatures</text>
</g>
<!-- Node23&#45;&gt;Node1 -->
<g id="edge26" class="edge"><title>Node23&#45;&gt;Node1</title>
<path fill="none" stroke="#9a32cd" stroke-dasharray="5,2" d="M752.921,-209.541C788.974,-213.494 835.057,-218.701 876,-223.803 882.273,-224.585 888.794,-225.424 895.323,-226.282"/>
<polygon fill="#9a32cd" stroke="#9a32cd" points="752.873,-206.015 742.552,-208.409 752.113,-212.974 752.873,-206.015"/>
<text text-anchor="middle" x="835" y="-226.803" font-family="Helvetica,sans-Serif" font-size="10.00"> myTranslator</text>
</g>
<!-- Node24 -->
<g id="node24" class="node"><title>Node24</title>
<polygon fill="white" stroke="#bfbfbf" points="326,-182.303 326,-201.303 448,-201.303 448,-182.303 326,-182.303"/>
<text text-anchor="middle" x="387" y="-189.303" font-family="Helvetica,sans-Serif" font-size="10.00">Map&lt; String, String &gt;</text>
</g>
<!-- Node24&#45;&gt;Node23 -->
<g id="edge28" class="edge"><title>Node24&#45;&gt;Node23</title>
<path fill="none" stroke="#9a32cd" stroke-dasharray="5,2" d="M458.383,-188.625C495.739,-187.559 542.4,-187.213 584,-189.803 600.799,-190.849 619.036,-192.836 635.479,-194.948"/>
<polygon fill="#9a32cd" stroke="#9a32cd" points="457.993,-185.135 448.106,-188.943 458.209,-192.132 457.993,-185.135"/>
<text text-anchor="middle" x="538" y="-192.803" font-family="Helvetica,sans-Serif" font-size="10.00"> myDictionary</text>
</g>
<!-- Node25 -->
<g id="node25" class="node"><title>Node25</title>
<polygon fill="white" stroke="#bfbfbf" points="661,-29.3029 661,-48.3029 717,-48.3029 717,-29.3029 661,-29.3029"/>
<text text-anchor="middle" x="689" y="-36.3029" font-family="Helvetica,sans-Serif" font-size="10.00">TabPane</text>
</g>
<!-- Node25&#45;&gt;Node1 -->
<g id="edge29" class="edge"><title>Node25&#45;&gt;Node1</title>
<path fill="none" stroke="#9a32cd" stroke-dasharray="5,2" d="M727.35,-37.3376C767.749,-37.6278 832.233,-43.7465 876,-75.8029 929.709,-115.141 954.518,-197.606 961.7,-225.972"/>
<polygon fill="#9a32cd" stroke="#9a32cd" points="727.112,-33.8386 717.129,-37.3851 727.145,-40.8385 727.112,-33.8386"/>
<text text-anchor="middle" x="835" y="-78.8029" font-family="Helvetica,sans-Serif" font-size="10.00"> myTabPane</text>
</g>
<!-- Node26&#45;&gt;Node1 -->
<g id="edge30" class="edge"><title>Node26&#45;&gt;Node1</title>
<path fill="none" stroke="#9a32cd" stroke-dasharray="5,2" d="M459.691,-376.478C577.792,-378.027 807.058,-375.576 876,-335.803 915.663,-312.921 946.614,-265.614 958.603,-245.353"/>
<polygon fill="#9a32cd" stroke="#9a32cd" points="459.704,-372.978 449.655,-376.333 459.603,-379.977 459.704,-372.978"/>
<text text-anchor="middle" x="689" y="-378.803" font-family="Helvetica,sans-Serif" font-size="10.00"> myCanvas</text>
</g>
<!-- Node27 -->
<g id="node27" class="node"><title>Node27</title>
<polygon fill="white" stroke="#bfbfbf" points="37,-327.303 37,-346.303 117,-346.303 117,-327.303 37,-327.303"/>
<text text-anchor="middle" x="77" y="-334.303" font-family="Helvetica,sans-Serif" font-size="10.00">List&lt; Color &gt;</text>
</g>
<!-- Node27&#45;&gt;Node26 -->
<g id="edge32" class="edge"><title>Node27&#45;&gt;Node26</title>
<path fill="none" stroke="#9a32cd" stroke-dasharray="5,2" d="M127.233,-341.922C168.583,-346.324 229.206,-353.021 282,-359.803 295.751,-361.569 310.504,-363.609 324.451,-365.604"/>
<polygon fill="#9a32cd" stroke="#9a32cd" points="127.465,-338.427 117.151,-340.853 126.727,-345.388 127.465,-338.427"/>
<text text-anchor="middle" x="227" y="-362.803" font-family="Helvetica,sans-Serif" font-size="10.00"> myColors</text>
</g>
<!-- Node28 -->
<g id="node28" class="node"><title>Node28</title>
<polygon fill="white" stroke="#bfbfbf" points="47.5,-449.303 47.5,-468.303 106.5,-468.303 106.5,-449.303 47.5,-449.303"/>
<text text-anchor="middle" x="77" y="-456.303" font-family="Helvetica,sans-Serif" font-size="10.00">GridPane</text>
</g>
<!-- Node28&#45;&gt;Node26 -->
<g id="edge34" class="edge"><title>Node28&#45;&gt;Node26</title>
<path fill="none" stroke="#9a32cd" stroke-dasharray="5,2" d="M116.72,-454.61C159.151,-448.837 228.322,-435.904 282,-408.803 291.296,-404.109 290.651,-398.389 300,-393.803 307.962,-389.897 316.731,-386.785 325.532,-384.309"/>
<polygon fill="#9a32cd" stroke="#9a32cd" points="116.261,-451.14 106.793,-455.896 117.16,-458.082 116.261,-451.14"/>
<text text-anchor="middle" x="227" y="-447.803" font-family="Helvetica,sans-Serif" font-size="10.00"> myGrid</text>
</g>
<!-- Node29 -->
<g id="node29" class="node"><title>Node29</title>
<polygon fill="white" stroke="#bfbfbf" points="45.5,-365.303 45.5,-384.303 108.5,-384.303 108.5,-365.303 45.5,-365.303"/>
<text text-anchor="middle" x="77" y="-372.303" font-family="Helvetica,sans-Serif" font-size="10.00">Rectangle</text>
</g>
<!-- Node29&#45;&gt;Node26 -->
<g id="edge35" class="edge"><title>Node29&#45;&gt;Node26</title>
<path fill="none" stroke="#9a32cd" stroke-dasharray="5,2" d="M118.94,-374.803C171.495,-374.803 263.166,-374.803 324.221,-374.803"/>
<polygon fill="#9a32cd" stroke="#9a32cd" points="118.658,-371.303 108.658,-374.803 118.658,-378.303 118.658,-371.303"/>
<text text-anchor="middle" x="227" y="-377.803" font-family="Helvetica,sans-Serif" font-size="10.00"> myBackground</text>
</g>
<!-- Node30 -->
<g id="node30" class="node"><title>Node30</title>
<polygon fill="white" stroke="#bfbfbf" points="666,-327.303 666,-346.303 712,-346.303 712,-327.303 666,-327.303"/>
<text text-anchor="middle" x="689" y="-334.303" font-family="Helvetica,sans-Serif" font-size="10.00">Group</text>
</g>
<!-- Node30&#45;&gt;Node1 -->
<g id="edge37" class="edge"><title>Node30&#45;&gt;Node1</title>
<path fill="none" stroke="#9a32cd" stroke-dasharray="5,2" d="M722.001,-333.501C759.992,-328.744 824.666,-317.973 876,-295.803 906.216,-282.753 936.958,-258.843 952.885,-245.484"/>
<polygon fill="#9a32cd" stroke="#9a32cd" points="721.542,-330.031 712.026,-334.688 722.369,-336.982 721.542,-330.031"/>
<text text-anchor="middle" x="835" y="-323.803" font-family="Helvetica,sans-Serif" font-size="10.00"> myRoot</text>
</g>
<!-- Node31 -->
<g id="node31" class="node"><title>Node31</title>
<polygon fill="white" stroke="#bfbfbf" points="654,-289.303 654,-308.303 724,-308.303 724,-289.303 654,-289.303"/>
<text text-anchor="middle" x="689" y="-296.303" font-family="Helvetica,sans-Serif" font-size="10.00">ColorPicker</text>
</g>
<!-- Node31&#45;&gt;Node1 -->
<g id="edge38" class="edge"><title>Node31&#45;&gt;Node1</title>
<path fill="none" stroke="#9a32cd" stroke-dasharray="5,2" d="M734.363,-291.586C772.23,-285.1 828.014,-274.772 876,-262.803 896.157,-257.775 918.535,-250.891 935.68,-245.333"/>
<polygon fill="#9a32cd" stroke="#9a32cd" points="733.454,-288.19 724.179,-293.312 734.624,-295.092 733.454,-288.19"/>
<text text-anchor="middle" x="835" y="-283.803" font-family="Helvetica,sans-Serif" font-size="10.00"> myColorPicker</text>
</g>
</g>
</svg>
