<?xml version="1.0" encoding="UTF-8" standalone="no"?>
<!DOCTYPE svg PUBLIC "-//W3C//DTD SVG 1.1//EN"
 "http://www.w3.org/Graphics/SVG/1.1/DTD/svg11.dtd">
<!-- Generated by graphviz version 2.36.0 (20140111.2315)
 -->
<!-- Title: frontend.ConcreteFeatures.TurtleStatsWindow.updatePane Pages: 1 -->
<svg width="730pt" height="77pt"
 viewBox="0.00 0.00 730.00 77.00" xmlns="http://www.w3.org/2000/svg" xmlns:xlink="http://www.w3.org/1999/xlink">
<g id="graph0" class="graph" transform="scale(1 1) rotate(0) translate(4 73)">
<title>frontend.ConcreteFeatures.TurtleStatsWindow.updatePane</title>
<polygon fill="white" stroke="none" points="-4,4 -4,-73 726,-73 726,4 -4,4"/>
<!-- Node1 -->
<g id="node1" class="node"><title>Node1</title>
<polygon fill="#bfbfbf" stroke="black" points="0,-17 0,-47 162,-47 162,-17 0,-17"/>
<text text-anchor="start" x="8" y="-35" font-family="Helvetica,sans-Serif" font-size="10.00">frontend.ConcreteFeatures.</text>
<text text-anchor="middle" x="81" y="-24" font-family="Helvetica,sans-Serif" font-size="10.00">TurtleStatsWindow.updatePane</text>
</g>
<!-- Node2 -->
<g id="node2" class="node"><title>Node2</title>
<g id="a_node2"><a xlink:href="../../d4/d7e/classturtle_classes_1_1_turtle_collection.html#a61f007615f0fd523dae94957f8022100" target="_top" xlink:title="turtleClasses.TurtleCollection.set\lActiveTurtles">
<polygon fill="white" stroke="black" points="198,-17 198,-47 370,-47 370,-17 198,-17"/>
<text text-anchor="start" x="206" y="-35" font-family="Helvetica,sans-Serif" font-size="10.00">turtleClasses.TurtleCollection.set</text>
<text text-anchor="middle" x="284" y="-24" font-family="Helvetica,sans-Serif" font-size="10.00">ActiveTurtles</text>
</a>
</g>
</g>
<!-- Node1&#45;&gt;Node2 -->
<g id="edge1" class="edge"><title>Node1&#45;&gt;Node2</title>
<path fill="none" stroke="midnightblue" d="M162.018,-32C170.516,-32 179.218,-32 187.868,-32"/>
<polygon fill="midnightblue" stroke="midnightblue" points="187.981,-35.5001 197.981,-32 187.981,-28.5001 187.981,-35.5001"/>
</g>
<!-- Node3 -->
<g id="node3" class="node"><title>Node3</title>
<g id="a_node3"><a xlink:href="../../d8/d89/classturtle_classes_1_1_turtle.html#a2d3828dbca854624cc75fca5aa65b4c5" target="_top" xlink:title="turtleClasses.Turtle.set\lActive">
<polygon fill="white" stroke="black" points="411.5,-39 411.5,-69 536.5,-69 536.5,-39 411.5,-39"/>
<text text-anchor="start" x="419.5" y="-57" font-family="Helvetica,sans-Serif" font-size="10.00">turtleClasses.Turtle.set</text>
<text text-anchor="middle" x="474" y="-46" font-family="Helvetica,sans-Serif" font-size="10.00">Active</text>
</a>
</g>
</g>
<!-- Node2&#45;&gt;Node3 -->
<g id="edge2" class="edge"><title>Node2&#45;&gt;Node3</title>
<path fill="none" stroke="midnightblue" d="M370.199,-41.9701C380.619,-43.1894 391.184,-44.4258 401.376,-45.6185"/>
<polygon fill="midnightblue" stroke="midnightblue" points="401.086,-49.1084 411.426,-46.7945 401.9,-42.1558 401.086,-49.1084"/>
</g>
<!-- Node5 -->
<g id="node5" class="node"><title>Node5</title>
<g id="a_node5"><a xlink:href="../../d8/d89/classturtle_classes_1_1_turtle.html#aff48aa8a8ca4bb8a7aa40743a1a944c4" target="_top" xlink:title="turtleClasses.Turtle.getID">
<polygon fill="white" stroke="black" points="406,-0.5 406,-19.5 542,-19.5 542,-0.5 406,-0.5"/>
<text text-anchor="middle" x="474" y="-7.5" font-family="Helvetica,sans-Serif" font-size="10.00">turtleClasses.Turtle.getID</text>
</a>
</g>
</g>
<!-- Node2&#45;&gt;Node5 -->
<g id="edge4" class="edge"><title>Node2&#45;&gt;Node5</title>
<path fill="none" stroke="midnightblue" d="M370.199,-22.0299C378.695,-21.0357 387.287,-20.0303 395.695,-19.0463"/>
<polygon fill="midnightblue" stroke="midnightblue" points="396.316,-22.4977 405.841,-17.859 395.502,-15.5451 396.316,-22.4977"/>
</g>
<!-- Node4 -->
<g id="node4" class="node"><title>Node4</title>
<g id="a_node4"><a xlink:href="../../d8/d89/classturtle_classes_1_1_turtle.html#abd769212afc56f042db3d4b5ee33790e" target="_top" xlink:title="turtleClasses.Turtle.handle\lActiveOutline">
<polygon fill="white" stroke="black" points="578.5,-39 578.5,-69 721.5,-69 721.5,-39 578.5,-39"/>
<text text-anchor="start" x="586.5" y="-57" font-family="Helvetica,sans-Serif" font-size="10.00">turtleClasses.Turtle.handle</text>
<text text-anchor="middle" x="650" y="-46" font-family="Helvetica,sans-Serif" font-size="10.00">ActiveOutline</text>
</a>
</g>
</g>
<!-- Node3&#45;&gt;Node4 -->
<g id="edge3" class="edge"><title>Node3&#45;&gt;Node4</title>
<path fill="none" stroke="midnightblue" d="M536.836,-54C547.051,-54 557.773,-54 568.368,-54"/>
<polygon fill="midnightblue" stroke="midnightblue" points="568.467,-57.5001 578.467,-54 568.467,-50.5001 568.467,-57.5001"/>
</g>
</g>
</svg>
