<?xml version="1.0" encoding="UTF-8" standalone="no"?>
<!DOCTYPE svg PUBLIC "-//W3C//DTD SVG 1.1//EN"
 "http://www.w3.org/Graphics/SVG/1.1/DTD/svg11.dtd">
<!-- Generated by graphviz version 2.36.0 (20140111.2315)
 -->
<!-- Title: mathOperations.Product Pages: 1 -->
<svg width="330pt" height="236pt"
 viewBox="0.00 0.00 330.00 236.00" xmlns="http://www.w3.org/2000/svg" xmlns:xlink="http://www.w3.org/1999/xlink">
<g id="graph0" class="graph" transform="scale(1 1) rotate(0) translate(4 232)">
<title>mathOperations.Product</title>
<polygon fill="white" stroke="none" points="-4,4 -4,-232 326,-232 326,4 -4,4"/>
<!-- Node1 -->
<g id="node1" class="node"><title>Node1</title>
<polygon fill="#bfbfbf" stroke="black" points="159,-0.5 159,-19.5 293,-19.5 293,-0.5 159,-0.5"/>
<text text-anchor="middle" x="226" y="-7.5" font-family="Helvetica,sans-Serif" font-size="10.00">mathOperations.Product</text>
</g>
<!-- Node2 -->
<g id="node2" class="node"><title>Node2</title>
<g id="a_node2"><a xlink:href="../../db/da6/classcommand_abstract_classes_1_1_operation.html" target="_top" xlink:title="commandAbstractClasses.Operation">
<polygon fill="white" stroke="black" points="129.5,-58.5 129.5,-77.5 322.5,-77.5 322.5,-58.5 129.5,-58.5"/>
<text text-anchor="middle" x="226" y="-65.5" font-family="Helvetica,sans-Serif" font-size="10.00">commandAbstractClasses.Operation</text>
</a>
</g>
</g>
<!-- Node2&#45;&gt;Node1 -->
<g id="edge1" class="edge"><title>Node2&#45;&gt;Node1</title>
<path fill="none" stroke="midnightblue" d="M226,-47.953C226,-38.2875 226,-27.0312 226,-19.5052"/>
<polygon fill="midnightblue" stroke="midnightblue" points="222.5,-48.25 226,-58.25 229.5,-48.25 222.5,-48.25"/>
</g>
<!-- Node3 -->
<g id="node3" class="node"><title>Node3</title>
<g id="a_node3"><a xlink:href="../../db/da5/classexpression_tree_1_1_expression_node.html" target="_top" xlink:title="expressionTree.ExpressionNode">
<polygon fill="white" stroke="black" points="1,-127.5 1,-146.5 169,-146.5 169,-127.5 1,-127.5"/>
<text text-anchor="middle" x="85" y="-134.5" font-family="Helvetica,sans-Serif" font-size="10.00">expressionTree.ExpressionNode</text>
</a>
</g>
</g>
<!-- Node3&#45;&gt;Node2 -->
<g id="edge2" class="edge"><title>Node3&#45;&gt;Node2</title>
<path fill="none" stroke="midnightblue" d="M112.443,-122.96C140.644,-109.559 183.743,-89.0796 207.925,-77.5888"/>
<polygon fill="midnightblue" stroke="midnightblue" points="110.675,-119.925 103.145,-127.378 113.679,-126.247 110.675,-119.925"/>
</g>
<!-- Node3&#45;&gt;Node3 -->
<g id="edge4" class="edge"><title>Node3&#45;&gt;Node3</title>
<path fill="none" stroke="#9a32cd" stroke-dasharray="5,2" d="M179.372,-140.931C183.558,-139.929 186,-138.619 186,-137 186,-134.344 179.424,-132.518 169.356,-131.521"/>
<polygon fill="#9a32cd" stroke="#9a32cd" points="178.704,-137.493 169.356,-142.479 179.773,-144.411 178.704,-137.493"/>
<text text-anchor="middle" x="206" y="-140" font-family="Helvetica,sans-Serif" font-size="10.00"> myLeft</text>
<text text-anchor="middle" x="206" y="-129" font-family="Helvetica,sans-Serif" font-size="10.00">myRight</text>
</g>
<!-- Node4 -->
<g id="node4" class="node"><title>Node4</title>
<polygon fill="white" stroke="#bfbfbf" points="0,-197 0,-227 170,-227 170,-197 0,-197"/>
<text text-anchor="start" x="8" y="-215" font-family="Helvetica,sans-Serif" font-size="10.00">List&lt; displayCommands.Display</text>
<text text-anchor="middle" x="85" y="-204" font-family="Helvetica,sans-Serif" font-size="10.00">Node &gt;</text>
</g>
<!-- Node4&#45;&gt;Node3 -->
<g id="edge3" class="edge"><title>Node4&#45;&gt;Node3</title>
<path fill="none" stroke="#9a32cd" stroke-dasharray="5,2" d="M85,-186.574C85,-172.751 85,-156.325 85,-146.553"/>
<polygon fill="#9a32cd" stroke="#9a32cd" points="81.5001,-186.925 85,-196.925 88.5001,-186.925 81.5001,-186.925"/>
<text text-anchor="middle" x="120" y="-169.5" font-family="Helvetica,sans-Serif" font-size="10.00"> instructionList</text>
</g>
<!-- Node5 -->
<g id="node5" class="node"><title>Node5</title>
<polygon fill="white" stroke="#bfbfbf" points="245,-127.5 245,-146.5 301,-146.5 301,-127.5 245,-127.5"/>
<text text-anchor="middle" x="273" y="-134.5" font-family="Helvetica,sans-Serif" font-size="10.00">Random</text>
</g>
<!-- Node5&#45;&gt;Node2 -->
<g id="edge5" class="edge"><title>Node5&#45;&gt;Node2</title>
<path fill="none" stroke="#9a32cd" stroke-dasharray="5,2" d="M261.044,-118.957C251.764,-105.727 239.287,-87.9415 231.997,-77.5494"/>
<polygon fill="#9a32cd" stroke="#9a32cd" points="258.247,-121.064 266.856,-127.241 263.978,-117.044 258.247,-121.064"/>
<text text-anchor="middle" x="281" y="-99.5" font-family="Helvetica,sans-Serif" font-size="10.00"> randomizer</text>
</g>
</g>
</svg>
