<?xml version="1.0" encoding="UTF-8" standalone="no"?>
<!DOCTYPE svg PUBLIC "-//W3C//DTD SVG 1.1//EN"
 "http://www.w3.org/Graphics/SVG/1.1/DTD/svg11.dtd">
<!-- Generated by graphviz version 2.36.0 (20140111.2315)
 -->
<!-- Title: turtleClasses.Turtle Pages: 1 -->
<svg width="415pt" height="242pt"
 viewBox="0.00 0.00 415.00 242.00" xmlns="http://www.w3.org/2000/svg" xmlns:xlink="http://www.w3.org/1999/xlink">
<g id="graph0" class="graph" transform="scale(1 1) rotate(0) translate(4 238)">
<title>turtleClasses.Turtle</title>
<polygon fill="white" stroke="none" points="-4,4 -4,-238 411,-238 411,4 -4,4"/>
<!-- Node1 -->
<g id="node1" class="node"><title>Node1</title>
<polygon fill="#bfbfbf" stroke="black" points="170.5,-68.5 170.5,-87.5 277.5,-87.5 277.5,-68.5 170.5,-68.5"/>
<text text-anchor="middle" x="224" y="-75.5" font-family="Helvetica,sans-Serif" font-size="10.00">turtleClasses.Turtle</text>
</g>
<!-- Node6 -->
<g id="node6" class="node"><title>Node6</title>
<g id="a_node6"><a xlink:href="../../da/deb/classfrontend_1_1_line_drawer.html" target="_top" xlink:title="frontend.LineDrawer">
<polygon fill="white" stroke="black" points="141.5,-0.5 141.5,-19.5 254.5,-19.5 254.5,-0.5 141.5,-0.5"/>
<text text-anchor="middle" x="198" y="-7.5" font-family="Helvetica,sans-Serif" font-size="10.00">frontend.LineDrawer</text>
</a>
</g>
</g>
<!-- Node1&#45;&gt;Node6 -->
<g id="edge8" class="edge"><title>Node1&#45;&gt;Node6</title>
<path fill="none" stroke="#9a32cd" stroke-dasharray="5,2" d="M176.94,-63.8344C171.037,-60.2666 165.761,-55.7401 162,-50 154.425,-38.4389 168.086,-27.0364 180.699,-19.5758"/>
<polygon fill="#9a32cd" stroke="#9a32cd" points="175.433,-66.9946 185.934,-68.4054 178.605,-60.7543 175.433,-66.9946"/>
<text text-anchor="middle" x="184" y="-41.5" font-family="Helvetica,sans-Serif" font-size="10.00"> myTurtle</text>
</g>
<!-- Node2 -->
<g id="node2" class="node"><title>Node2</title>
<g id="a_node2"><a xlink:href="../../d3/d0e/classfrontend_1_1_pen.html" target="_top" xlink:title="frontend.Pen">
<polygon fill="white" stroke="black" points="76,-136.5 76,-155.5 154,-155.5 154,-136.5 76,-136.5"/>
<text text-anchor="middle" x="115" y="-143.5" font-family="Helvetica,sans-Serif" font-size="10.00">frontend.Pen</text>
</a>
</g>
</g>
<!-- Node2&#45;&gt;Node1 -->
<g id="edge1" class="edge"><title>Node2&#45;&gt;Node1</title>
<path fill="none" stroke="#9a32cd" stroke-dasharray="5,2" d="M133.497,-130.076C143.42,-122.412 156.039,-113.199 168,-106 179.559,-99.0424 193.182,-92.4421 204.096,-87.5089"/>
<polygon fill="#9a32cd" stroke="#9a32cd" points="131.252,-127.389 125.555,-136.322 135.579,-132.891 131.252,-127.389"/>
<text text-anchor="middle" x="186.5" y="-109.5" font-family="Helvetica,sans-Serif" font-size="10.00"> myPen</text>
</g>
<!-- Node2&#45;&gt;Node6 -->
<g id="edge6" class="edge"><title>Node2&#45;&gt;Node6</title>
<path fill="none" stroke="#9a32cd" stroke-dasharray="5,2" d="M113.684,-126.015C113.358,-109.763 114.833,-86.1808 124,-68 135.535,-45.1213 161.02,-28.771 178.841,-19.6056"/>
<polygon fill="#9a32cd" stroke="#9a32cd" points="110.204,-126.54 114.156,-136.37 117.197,-126.221 110.204,-126.54"/>
<text text-anchor="middle" x="142.5" y="-75.5" font-family="Helvetica,sans-Serif" font-size="10.00"> myPen</text>
</g>
<!-- Node3 -->
<g id="node3" class="node"><title>Node3</title>
<polygon fill="white" stroke="#bfbfbf" points="0,-214.5 0,-233.5 128,-233.5 128,-214.5 0,-214.5"/>
<text text-anchor="middle" x="64" y="-221.5" font-family="Helvetica,sans-Serif" font-size="10.00">Map&lt; String, Double &gt;</text>
</g>
<!-- Node3&#45;&gt;Node2 -->
<g id="edge2" class="edge"><title>Node3&#45;&gt;Node2</title>
<path fill="none" stroke="#9a32cd" stroke-dasharray="5,2" d="M67.2986,-204.469C69.6777,-194.753 73.6256,-183.03 80,-174 85.2223,-166.602 93.0665,-160.287 100.006,-155.629"/>
<polygon fill="#9a32cd" stroke="#9a32cd" points="63.8568,-203.829 65.2335,-214.334 70.7083,-205.263 63.8568,-203.829"/>
<text text-anchor="middle" x="112.5" y="-182.5" font-family="Helvetica,sans-Serif" font-size="10.00"> LINE_STYLES</text>
</g>
<!-- Node4 -->
<g id="node4" class="node"><title>Node4</title>
<polygon fill="white" stroke="#bfbfbf" points="146.5,-214.5 146.5,-233.5 187.5,-233.5 187.5,-214.5 146.5,-214.5"/>
<text text-anchor="middle" x="167" y="-221.5" font-family="Helvetica,sans-Serif" font-size="10.00">Color</text>
</g>
<!-- Node4&#45;&gt;Node2 -->
<g id="edge3" class="edge"><title>Node4&#45;&gt;Node2</title>
<path fill="none" stroke="#9a32cd" stroke-dasharray="5,2" d="M160.994,-205.001C157.26,-195.292 151.859,-183.407 145,-174 139.881,-166.979 132.683,-160.425 126.62,-155.533"/>
<polygon fill="#9a32cd" stroke="#9a32cd" points="157.715,-206.228 164.382,-214.463 164.306,-203.868 157.715,-206.228"/>
<text text-anchor="middle" x="212.5" y="-188" font-family="Helvetica,sans-Serif" font-size="10.00"> DEFAULT_LINE_COLOR</text>
<text text-anchor="middle" x="212.5" y="-177" font-family="Helvetica,sans-Serif" font-size="10.00">myLineColor</text>
</g>
<!-- Node5 -->
<g id="node5" class="node"><title>Node5</title>
<polygon fill="white" stroke="#bfbfbf" points="173,-136.5 173,-155.5 241,-155.5 241,-136.5 173,-136.5"/>
<text text-anchor="middle" x="207" y="-143.5" font-family="Helvetica,sans-Serif" font-size="10.00">ImageView</text>
</g>
<!-- Node5&#45;&gt;Node1 -->
<g id="edge4" class="edge"><title>Node5&#45;&gt;Node1</title>
<path fill="none" stroke="#9a32cd" stroke-dasharray="5,2" d="M207.584,-126.488C208.135,-119.924 209.15,-112.546 211,-106 212.811,-99.5918 216.061,-92.8418 218.858,-87.6939"/>
<polygon fill="#9a32cd" stroke="#9a32cd" points="204.09,-126.296 207.032,-136.474 211.079,-126.682 204.09,-126.296"/>
<text text-anchor="middle" x="235.5" y="-109.5" font-family="Helvetica,sans-Serif" font-size="10.00"> myImage</text>
</g>
<!-- Node6&#45;&gt;Node1 -->
<g id="edge5" class="edge"><title>Node6&#45;&gt;Node1</title>
<path fill="none" stroke="#9a32cd" stroke-dasharray="5,2" d="M206.317,-29.2224C207.586,-32.1427 208.854,-35.1434 210,-38 214.124,-48.2824 218.353,-60.307 221.068,-68.2567"/>
<polygon fill="#9a32cd" stroke="#9a32cd" points="209.44,-27.6333 202.167,-19.9295 203.049,-30.4876 209.44,-27.6333"/>
<text text-anchor="middle" x="241" y="-41.5" font-family="Helvetica,sans-Serif" font-size="10.00"> myDrawer</text>
</g>
<!-- Node7 -->
<g id="node7" class="node"><title>Node7</title>
<polygon fill="white" stroke="#bfbfbf" points="296,-68.5 296,-87.5 336,-87.5 336,-68.5 296,-68.5"/>
<text text-anchor="middle" x="316" y="-75.5" font-family="Helvetica,sans-Serif" font-size="10.00">Pane</text>
</g>
<!-- Node7&#45;&gt;Node6 -->
<g id="edge7" class="edge"><title>Node7&#45;&gt;Node6</title>
<path fill="none" stroke="#9a32cd" stroke-dasharray="5,2" d="M300.434,-61.0221C292.233,-53.2803 281.678,-44.3162 271,-38 257.858,-30.2259 242.094,-24.0542 228.585,-19.585"/>
<polygon fill="#9a32cd" stroke="#9a32cd" points="298.177,-63.711 307.768,-68.213 303.078,-58.7128 298.177,-63.711"/>
<text text-anchor="middle" x="309" y="-41.5" font-family="Helvetica,sans-Serif" font-size="10.00"> myPane</text>
</g>
<!-- Node8 -->
<g id="node8" class="node"><title>Node8</title>
<polygon fill="white" stroke="#bfbfbf" points="259,-136.5 259,-155.5 311,-155.5 311,-136.5 259,-136.5"/>
<text text-anchor="middle" x="285" y="-143.5" font-family="Helvetica,sans-Serif" font-size="10.00">Canvas</text>
</g>
<!-- Node8&#45;&gt;Node1 -->
<g id="edge9" class="edge"><title>Node8&#45;&gt;Node1</title>
<path fill="none" stroke="#9a32cd" stroke-dasharray="5,2" d="M275.596,-127.47C271.348,-120.391 265.946,-112.4 260,-106 253.512,-99.0174 245.032,-92.5581 237.932,-87.7091"/>
<polygon fill="#9a32cd" stroke="#9a32cd" points="272.639,-129.351 280.617,-136.323 278.728,-125.898 272.639,-129.351"/>
<text text-anchor="middle" x="297" y="-109.5" font-family="Helvetica,sans-Serif" font-size="10.00"> myCanvas</text>
</g>
<!-- Node9 -->
<g id="node9" class="node"><title>Node9</title>
<polygon fill="white" stroke="#bfbfbf" points="338,-136.5 338,-155.5 380,-155.5 380,-136.5 338,-136.5"/>
<text text-anchor="middle" x="359" y="-143.5" font-family="Helvetica,sans-Serif" font-size="10.00">HBox</text>
</g>
<!-- Node9&#45;&gt;Node1 -->
<g id="edge10" class="edge"><title>Node9&#45;&gt;Node1</title>
<path fill="none" stroke="#9a32cd" stroke-dasharray="5,2" d="M348.759,-127.509C343.462,-119.869 336.351,-111.431 328,-106 312.987,-96.237 294.609,-89.9994 277.501,-86.016"/>
<polygon fill="#9a32cd" stroke="#9a32cd" points="345.957,-129.624 354.282,-136.177 351.86,-125.862 345.957,-129.624"/>
<text text-anchor="middle" x="374.5" y="-109.5" font-family="Helvetica,sans-Serif" font-size="10.00"> myContainer</text>
</g>
</g>
</svg>
