<?xml version="1.0" encoding="UTF-8" standalone="no"?>
<!DOCTYPE svg PUBLIC "-//W3C//DTD SVG 1.1//EN"
 "http://www.w3.org/Graphics/SVG/1.1/DTD/svg11.dtd">
<!-- Generated by graphviz version 2.36.0 (20140111.2315)
 -->
<!-- Title: frontend.LineDrawer.makeLine Pages: 1 -->
<svg width="724pt" height="87pt"
 viewBox="0.00 0.00 724.00 87.00" xmlns="http://www.w3.org/2000/svg" xmlns:xlink="http://www.w3.org/1999/xlink">
<g id="graph0" class="graph" transform="scale(1 1) rotate(0) translate(4 83)">
<title>frontend.LineDrawer.makeLine</title>
<polygon fill="white" stroke="none" points="-4,4 -4,-83 720,-83 720,4 -4,4"/>
<!-- Node1 -->
<g id="node1" class="node"><title>Node1</title>
<polygon fill="#bfbfbf" stroke="black" points="0,-29.5 0,-48.5 162,-48.5 162,-29.5 0,-29.5"/>
<text text-anchor="middle" x="81" y="-36.5" font-family="Helvetica,sans-Serif" font-size="10.00">frontend.LineDrawer.makeLine</text>
</g>
<!-- Node2 -->
<g id="node2" class="node"><title>Node2</title>
<g id="a_node2"><a xlink:href="../../da/deb/classfrontend_1_1_line_drawer.html#a6989f18991010fb1e13d2e451f2464f1" target="_top" xlink:title="frontend.LineDrawer.draw">
<polygon fill="white" stroke="black" points="198,-29.5 198,-48.5 336,-48.5 336,-29.5 198,-29.5"/>
<text text-anchor="middle" x="267" y="-36.5" font-family="Helvetica,sans-Serif" font-size="10.00">frontend.LineDrawer.draw</text>
</a>
</g>
</g>
<!-- Node1&#45;&gt;Node2 -->
<g id="edge1" class="edge"><title>Node1&#45;&gt;Node2</title>
<path fill="none" stroke="midnightblue" d="M172.266,-39C180.89,-39 189.534,-39 197.896,-39"/>
<polygon fill="midnightblue" stroke="midnightblue" points="172.17,-35.5001 162.17,-39 172.17,-42.5001 172.17,-35.5001"/>
</g>
<!-- Node3 -->
<g id="node3" class="node"><title>Node3</title>
<g id="a_node3"><a xlink:href="../../d8/d89/classturtle_classes_1_1_turtle.html#a64e1dd57e46b76e972cc94d829488a5a" target="_top" xlink:title="turtleClasses.Turtle.move">
<polygon fill="white" stroke="black" points="372.5,-29.5 372.5,-48.5 509.5,-48.5 509.5,-29.5 372.5,-29.5"/>
<text text-anchor="middle" x="441" y="-36.5" font-family="Helvetica,sans-Serif" font-size="10.00">turtleClasses.Turtle.move</text>
</a>
</g>
</g>
<!-- Node2&#45;&gt;Node3 -->
<g id="edge2" class="edge"><title>Node2&#45;&gt;Node3</title>
<path fill="none" stroke="midnightblue" d="M346.521,-39C355.138,-39 363.855,-39 372.324,-39"/>
<polygon fill="midnightblue" stroke="midnightblue" points="346.473,-35.5001 336.473,-39 346.473,-42.5001 346.473,-35.5001"/>
</g>
<!-- Node4 -->
<g id="node4" class="node"><title>Node4</title>
<g id="a_node4"><a xlink:href="../../de/dfe/classdisplay_commands_1_1_backward.html#a5c77f9bf5029c0bca76b78a8941aeaf0" target="_top" xlink:title="displayCommands.Backward.do\lAction">
<polygon fill="white" stroke="black" points="546.5,-49 546.5,-79 715.5,-79 715.5,-49 546.5,-49"/>
<text text-anchor="start" x="554.5" y="-67" font-family="Helvetica,sans-Serif" font-size="10.00">displayCommands.Backward.do</text>
<text text-anchor="middle" x="631" y="-56" font-family="Helvetica,sans-Serif" font-size="10.00">Action</text>
</a>
</g>
</g>
<!-- Node3&#45;&gt;Node4 -->
<g id="edge3" class="edge"><title>Node3&#45;&gt;Node4</title>
<path fill="none" stroke="midnightblue" d="M519.77,-49.3418C528.52,-50.5053 537.463,-51.6945 546.284,-52.8675"/>
<polygon fill="midnightblue" stroke="midnightblue" points="519.981,-45.8391 509.607,-47.9903 519.058,-52.778 519.981,-45.8391"/>
</g>
<!-- Node5 -->
<g id="node5" class="node"><title>Node5</title>
<g id="a_node5"><a xlink:href="../../d2/dcc/classdisplay_commands_1_1_forward.html#a937e7ee9094507de85d63357c80a4f5d" target="_top" xlink:title="displayCommands.Forward.do\lAction">
<polygon fill="white" stroke="black" points="550.5,-0 550.5,-30 711.5,-30 711.5,-0 550.5,-0"/>
<text text-anchor="start" x="558.5" y="-18" font-family="Helvetica,sans-Serif" font-size="10.00">displayCommands.Forward.do</text>
<text text-anchor="middle" x="631" y="-7" font-family="Helvetica,sans-Serif" font-size="10.00">Action</text>
</a>
</g>
</g>
<!-- Node3&#45;&gt;Node5 -->
<g id="edge4" class="edge"><title>Node3&#45;&gt;Node5</title>
<path fill="none" stroke="midnightblue" d="M519.598,-29.0938C529.695,-27.8049 540.052,-26.4827 550.184,-25.1892"/>
<polygon fill="midnightblue" stroke="midnightblue" points="519.083,-25.6311 509.607,-30.3694 519.969,-32.5748 519.083,-25.6311"/>
</g>
</g>
</svg>
