<?xml version="1.0" encoding="UTF-8" standalone="no"?>
<!DOCTYPE svg PUBLIC "-//W3C//DTD SVG 1.1//EN"
 "http://www.w3.org/Graphics/SVG/1.1/DTD/svg11.dtd">
<!-- Generated by graphviz version 2.36.0 (20140111.2315)
 -->
<!-- Title: frontend.LineDrawer.LineDrawer Pages: 1 -->
<svg width="324pt" height="153pt"
 viewBox="0.00 0.00 324.00 153.00" xmlns="http://www.w3.org/2000/svg" xmlns:xlink="http://www.w3.org/1999/xlink">
<g id="graph0" class="graph" transform="scale(1 1) rotate(0) translate(4 149)">
<title>frontend.LineDrawer.LineDrawer</title>
<polygon fill="white" stroke="none" points="-4,4 -4,-149 320,-149 320,4 -4,4"/>
<!-- Node1 -->
<g id="node1" class="node"><title>Node1</title>
<polygon fill="#bfbfbf" stroke="black" points="0.5,-52 0.5,-82 135.5,-82 135.5,-52 0.5,-52"/>
<text text-anchor="start" x="8.5" y="-70" font-family="Helvetica,sans-Serif" font-size="10.00">frontend.LineDrawer.Line</text>
<text text-anchor="middle" x="68" y="-59" font-family="Helvetica,sans-Serif" font-size="10.00">Drawer</text>
</g>
<!-- Node2 -->
<g id="node2" class="node"><title>Node2</title>
<g id="a_node2"><a xlink:href="../../d8/d89/classturtle_classes_1_1_turtle.html#a83d46277ec7258a57d8b69797ffb42d8" target="_top" xlink:title="turtleClasses.Turtle.get\lDirection">
<polygon fill="white" stroke="black" points="181,-115 181,-145 307,-145 307,-115 181,-115"/>
<text text-anchor="start" x="189" y="-133" font-family="Helvetica,sans-Serif" font-size="10.00">turtleClasses.Turtle.get</text>
<text text-anchor="middle" x="244" y="-122" font-family="Helvetica,sans-Serif" font-size="10.00">Direction</text>
</a>
</g>
</g>
<!-- Node1&#45;&gt;Node2 -->
<g id="edge1" class="edge"><title>Node1&#45;&gt;Node2</title>
<path fill="none" stroke="midnightblue" d="M109.553,-82.1195C128.5,-89.1432 151.38,-97.5664 172,-105 177.889,-107.123 184.061,-109.327 190.203,-111.507"/>
<polygon fill="midnightblue" stroke="midnightblue" points="189.19,-114.862 199.785,-114.899 191.526,-108.263 189.19,-114.862"/>
</g>
<!-- Node3 -->
<g id="node3" class="node"><title>Node3</title>
<g id="a_node3"><a xlink:href="../../d8/d89/classturtle_classes_1_1_turtle.html#aebccf7c8d3ea7b21ea040ec199df9524" target="_top" xlink:title="turtleClasses.Turtle.getPen">
<polygon fill="white" stroke="black" points="172,-76.5 172,-95.5 316,-95.5 316,-76.5 172,-76.5"/>
<text text-anchor="middle" x="244" y="-83.5" font-family="Helvetica,sans-Serif" font-size="10.00">turtleClasses.Turtle.getPen</text>
</a>
</g>
</g>
<!-- Node1&#45;&gt;Node3 -->
<g id="edge2" class="edge"><title>Node1&#45;&gt;Node3</title>
<path fill="none" stroke="midnightblue" d="M135.775,-74.2916C144.248,-75.2167 152.992,-76.1715 161.66,-77.118"/>
<polygon fill="midnightblue" stroke="midnightblue" points="161.46,-80.6169 171.78,-78.2232 162.219,-73.6582 161.46,-80.6169"/>
</g>
<!-- Node4 -->
<g id="node4" class="node"><title>Node4</title>
<g id="a_node4"><a xlink:href="../../d8/d89/classturtle_classes_1_1_turtle.html#a56503fbcf1cf444dc2dba7a7f07b891e" target="_top" xlink:title="turtleClasses.Turtle.getX">
<polygon fill="white" stroke="black" points="178,-38.5 178,-57.5 310,-57.5 310,-38.5 178,-38.5"/>
<text text-anchor="middle" x="244" y="-45.5" font-family="Helvetica,sans-Serif" font-size="10.00">turtleClasses.Turtle.getX</text>
</a>
</g>
</g>
<!-- Node1&#45;&gt;Node4 -->
<g id="edge3" class="edge"><title>Node1&#45;&gt;Node4</title>
<path fill="none" stroke="midnightblue" d="M135.775,-59.7084C146.234,-58.5664 157.105,-57.3794 167.738,-56.2183"/>
<polygon fill="midnightblue" stroke="midnightblue" points="168.277,-59.6803 177.838,-55.1154 167.517,-52.7217 168.277,-59.6803"/>
</g>
<!-- Node5 -->
<g id="node5" class="node"><title>Node5</title>
<g id="a_node5"><a xlink:href="../../d8/d89/classturtle_classes_1_1_turtle.html#a603a81ffb444aa19cecef6fc7f356e1f" target="_top" xlink:title="turtleClasses.Turtle.getY">
<polygon fill="white" stroke="black" points="178.5,-0.5 178.5,-19.5 309.5,-19.5 309.5,-0.5 178.5,-0.5"/>
<text text-anchor="middle" x="244" y="-7.5" font-family="Helvetica,sans-Serif" font-size="10.00">turtleClasses.Turtle.getY</text>
</a>
</g>
</g>
<!-- Node1&#45;&gt;Node5 -->
<g id="edge4" class="edge"><title>Node1&#45;&gt;Node5</title>
<path fill="none" stroke="midnightblue" d="M107.349,-51.897C126.606,-44.558 150.382,-35.8643 172,-29 179.44,-26.6377 187.378,-24.3195 195.151,-22.1592"/>
<polygon fill="midnightblue" stroke="midnightblue" points="196.131,-25.52 204.86,-19.5158 194.292,-18.7659 196.131,-25.52"/>
</g>
</g>
</svg>
