<?xml version="1.0" encoding="UTF-8" standalone="no"?>
<!DOCTYPE svg PUBLIC "-//W3C//DTD SVG 1.1//EN"
 "http://www.w3.org/Graphics/SVG/1.1/DTD/svg11.dtd">
<!-- Generated by graphviz version 2.36.0 (20140111.2315)
 -->
<!-- Title: frontend.LineDrawer.draw Pages: 1 -->
<svg width="504pt" height="28pt"
 viewBox="0.00 0.00 504.00 28.00" xmlns="http://www.w3.org/2000/svg" xmlns:xlink="http://www.w3.org/1999/xlink">
<g id="graph0" class="graph" transform="scale(1 1) rotate(0) translate(4 24)">
<title>frontend.LineDrawer.draw</title>
<polygon fill="white" stroke="none" points="-4,4 -4,-24 500,-24 500,4 -4,4"/>
<!-- Node1 -->
<g id="node1" class="node"><title>Node1</title>
<polygon fill="#bfbfbf" stroke="black" points="0,-0.5 0,-19.5 138,-19.5 138,-0.5 0,-0.5"/>
<text text-anchor="middle" x="69" y="-7.5" font-family="Helvetica,sans-Serif" font-size="10.00">frontend.LineDrawer.draw</text>
</g>
<!-- Node2 -->
<g id="node2" class="node"><title>Node2</title>
<g id="a_node2"><a xlink:href="../../da/deb/classfrontend_1_1_line_drawer.html#a815e10401e7bee5986e490aeb87b6c33" target="_top" xlink:title="frontend.LineDrawer.makeLine">
<polygon fill="white" stroke="black" points="174,-0.5 174,-19.5 336,-19.5 336,-0.5 174,-0.5"/>
<text text-anchor="middle" x="255" y="-7.5" font-family="Helvetica,sans-Serif" font-size="10.00">frontend.LineDrawer.makeLine</text>
</a>
</g>
</g>
<!-- Node1&#45;&gt;Node2 -->
<g id="edge1" class="edge"><title>Node1&#45;&gt;Node2</title>
<path fill="none" stroke="midnightblue" d="M138.253,-10C146.56,-10 155.144,-10 163.708,-10"/>
<polygon fill="midnightblue" stroke="midnightblue" points="163.735,-13.5001 173.735,-10 163.735,-6.5001 163.735,-13.5001"/>
</g>
<!-- Node3 -->
<g id="node3" class="node"><title>Node3</title>
<g id="a_node3"><a xlink:href="../../d3/d0e/classfrontend_1_1_pen.html#a53a8026e193d2ea338c563eaa0abf5ee" target="_top" xlink:title="frontend.Pen.drawLine">
<polygon fill="white" stroke="black" points="372.5,-0.5 372.5,-19.5 495.5,-19.5 495.5,-0.5 372.5,-0.5"/>
<text text-anchor="middle" x="434" y="-7.5" font-family="Helvetica,sans-Serif" font-size="10.00">frontend.Pen.drawLine</text>
</a>
</g>
</g>
<!-- Node2&#45;&gt;Node3 -->
<g id="edge2" class="edge"><title>Node2&#45;&gt;Node3</title>
<path fill="none" stroke="midnightblue" d="M336.214,-10C344.863,-10 353.618,-10 362.145,-10"/>
<polygon fill="midnightblue" stroke="midnightblue" points="362.412,-13.5001 372.412,-10 362.412,-6.5001 362.412,-13.5001"/>
</g>
</g>
</svg>
