<?xml version="1.0" encoding="UTF-8" standalone="no"?>
<!DOCTYPE svg PUBLIC "-//W3C//DTD SVG 1.1//EN"
 "http://www.w3.org/Graphics/SVG/1.1/DTD/svg11.dtd">
<!-- Generated by graphviz version 2.36.0 (20140111.2315)
 -->
<!-- Title: frontend.LineDrawer.draw Pages: 1 -->
<svg width="526pt" height="87pt"
 viewBox="0.00 0.00 526.00 87.00" xmlns="http://www.w3.org/2000/svg" xmlns:xlink="http://www.w3.org/1999/xlink">
<g id="graph0" class="graph" transform="scale(1 1) rotate(0) translate(4 83)">
<title>frontend.LineDrawer.draw</title>
<polygon fill="white" stroke="none" points="-4,4 -4,-83 522,-83 522,4 -4,4"/>
<!-- Node1 -->
<g id="node1" class="node"><title>Node1</title>
<polygon fill="#bfbfbf" stroke="black" points="0,-29.5 0,-48.5 138,-48.5 138,-29.5 0,-29.5"/>
<text text-anchor="middle" x="69" y="-36.5" font-family="Helvetica,sans-Serif" font-size="10.00">frontend.LineDrawer.draw</text>
</g>
<!-- Node2 -->
<g id="node2" class="node"><title>Node2</title>
<g id="a_node2"><a xlink:href="../../d8/d89/classturtle_classes_1_1_turtle.html#a64e1dd57e46b76e972cc94d829488a5a" target="_top" xlink:title="turtleClasses.Turtle.move">
<polygon fill="white" stroke="black" points="174.5,-29.5 174.5,-48.5 311.5,-48.5 311.5,-29.5 174.5,-29.5"/>
<text text-anchor="middle" x="243" y="-36.5" font-family="Helvetica,sans-Serif" font-size="10.00">turtleClasses.Turtle.move</text>
</a>
</g>
</g>
<!-- Node1&#45;&gt;Node2 -->
<g id="edge1" class="edge"><title>Node1&#45;&gt;Node2</title>
<path fill="none" stroke="midnightblue" d="M148.521,-39C157.138,-39 165.855,-39 174.324,-39"/>
<polygon fill="midnightblue" stroke="midnightblue" points="148.473,-35.5001 138.473,-39 148.473,-42.5001 148.473,-35.5001"/>
</g>
<!-- Node3 -->
<g id="node3" class="node"><title>Node3</title>
<g id="a_node3"><a xlink:href="../../de/dfe/classdisplay_commands_1_1_backward.html#a5c77f9bf5029c0bca76b78a8941aeaf0" target="_top" xlink:title="displayCommands.Backward.do\lAction">
<polygon fill="white" stroke="black" points="348.5,-49 348.5,-79 517.5,-79 517.5,-49 348.5,-49"/>
<text text-anchor="start" x="356.5" y="-67" font-family="Helvetica,sans-Serif" font-size="10.00">displayCommands.Backward.do</text>
<text text-anchor="middle" x="433" y="-56" font-family="Helvetica,sans-Serif" font-size="10.00">Action</text>
</a>
</g>
</g>
<!-- Node2&#45;&gt;Node3 -->
<g id="edge2" class="edge"><title>Node2&#45;&gt;Node3</title>
<path fill="none" stroke="midnightblue" d="M321.77,-49.3418C330.52,-50.5053 339.463,-51.6945 348.284,-52.8675"/>
<polygon fill="midnightblue" stroke="midnightblue" points="321.981,-45.8391 311.607,-47.9903 321.058,-52.778 321.981,-45.8391"/>
</g>
<!-- Node4 -->
<g id="node4" class="node"><title>Node4</title>
<g id="a_node4"><a xlink:href="../../d2/dcc/classdisplay_commands_1_1_forward.html#a937e7ee9094507de85d63357c80a4f5d" target="_top" xlink:title="displayCommands.Forward.do\lAction">
<polygon fill="white" stroke="black" points="352.5,-0 352.5,-30 513.5,-30 513.5,-0 352.5,-0"/>
<text text-anchor="start" x="360.5" y="-18" font-family="Helvetica,sans-Serif" font-size="10.00">displayCommands.Forward.do</text>
<text text-anchor="middle" x="433" y="-7" font-family="Helvetica,sans-Serif" font-size="10.00">Action</text>
</a>
</g>
</g>
<!-- Node2&#45;&gt;Node4 -->
<g id="edge3" class="edge"><title>Node2&#45;&gt;Node4</title>
<path fill="none" stroke="midnightblue" d="M321.598,-29.0938C331.695,-27.8049 342.052,-26.4827 352.184,-25.1892"/>
<polygon fill="midnightblue" stroke="midnightblue" points="321.083,-25.6311 311.607,-30.3694 321.969,-32.5748 321.083,-25.6311"/>
</g>
</g>
</svg>
