<?xml version="1.0" encoding="UTF-8" standalone="no"?>
<!DOCTYPE svg PUBLIC "-//W3C//DTD SVG 1.1//EN"
 "http://www.w3.org/Graphics/SVG/1.1/DTD/svg11.dtd">
<!-- Generated by graphviz version 2.36.0 (20140111.2315)
 -->
<!-- Title: backend.Parser.parse Pages: 1 -->
<svg width="586pt" height="126pt"
 viewBox="0.00 0.00 586.00 126.00" xmlns="http://www.w3.org/2000/svg" xmlns:xlink="http://www.w3.org/1999/xlink">
<g id="graph0" class="graph" transform="scale(1 1) rotate(0) translate(4 122)">
<title>backend.Parser.parse</title>
<polygon fill="white" stroke="none" points="-4,4 -4,-122 582,-122 582,4 -4,4"/>
<!-- Node1 -->
<g id="node1" class="node"><title>Node1</title>
<polygon fill="#bfbfbf" stroke="black" points="0.5,-44.5 0.5,-63.5 119.5,-63.5 119.5,-44.5 0.5,-44.5"/>
<text text-anchor="middle" x="60" y="-51.5" font-family="Helvetica,sans-Serif" font-size="10.00">backend.Parser.parse</text>
</g>
<!-- Node2 -->
<g id="node2" class="node"><title>Node2</title>
<g id="a_node2"><a xlink:href="../../d2/dea/class_s_logo_controllers_1_1_input_controller.html#a7ce411d6699e0b45d54f63e43995c6a0" target="_top" xlink:title="SLogoControllers.InputController.get\lInstructions">
<polygon fill="white" stroke="black" points="156,-39 156,-69 346,-69 346,-39 156,-39"/>
<text text-anchor="start" x="164" y="-57" font-family="Helvetica,sans-Serif" font-size="10.00">SLogoControllers.InputController.get</text>
<text text-anchor="middle" x="251" y="-46" font-family="Helvetica,sans-Serif" font-size="10.00">Instructions</text>
</a>
</g>
</g>
<!-- Node1&#45;&gt;Node2 -->
<g id="edge1" class="edge"><title>Node1&#45;&gt;Node2</title>
<path fill="none" stroke="midnightblue" d="M129.758,-54C138.304,-54 147.153,-54 155.997,-54"/>
<polygon fill="midnightblue" stroke="midnightblue" points="129.506,-50.5001 119.506,-54 129.506,-57.5001 129.506,-50.5001"/>
</g>
<!-- Node3 -->
<g id="node3" class="node"><title>Node3</title>
<g id="a_node3"><a xlink:href="../../d8/dc1/classfrontend_1_1_concrete_features_1_1_command_executer.html#a14b9b724db30e6cc89f62304f7bf40b2" target="_top" xlink:title="frontend.ConcreteFeatures.\lCommandExecuter.action">
<polygon fill="white" stroke="black" points="406,-88 406,-118 554,-118 554,-88 406,-88"/>
<text text-anchor="start" x="414" y="-106" font-family="Helvetica,sans-Serif" font-size="10.00">frontend.ConcreteFeatures.</text>
<text text-anchor="middle" x="480" y="-95" font-family="Helvetica,sans-Serif" font-size="10.00">CommandExecuter.action</text>
</a>
</g>
</g>
<!-- Node2&#45;&gt;Node3 -->
<g id="edge2" class="edge"><title>Node2&#45;&gt;Node3</title>
<path fill="none" stroke="midnightblue" d="M331.614,-71.1854C356.998,-76.6647 384.871,-82.6815 409.482,-87.9938"/>
<polygon fill="midnightblue" stroke="midnightblue" points="332.164,-67.7235 321.65,-69.0346 330.687,-74.5659 332.164,-67.7235"/>
</g>
<!-- Node4 -->
<g id="node4" class="node"><title>Node4</title>
<g id="a_node4"><a xlink:href="../../de/d9f/classfrontend_1_1_concrete_features_1_1_load_s_logo_file.html#aa491ddd476ad22ed21a358b21c01605f" target="_top" xlink:title="frontend.ConcreteFeatures.\lLoadSLogoFile.action">
<polygon fill="white" stroke="black" points="406,-39 406,-69 554,-69 554,-39 406,-39"/>
<text text-anchor="start" x="414" y="-57" font-family="Helvetica,sans-Serif" font-size="10.00">frontend.ConcreteFeatures.</text>
<text text-anchor="middle" x="480" y="-46" font-family="Helvetica,sans-Serif" font-size="10.00">LoadSLogoFile.action</text>
</a>
</g>
</g>
<!-- Node2&#45;&gt;Node4 -->
<g id="edge3" class="edge"><title>Node2&#45;&gt;Node4</title>
<path fill="none" stroke="midnightblue" d="M356.593,-54C373.204,-54 390.071,-54 405.759,-54"/>
<polygon fill="midnightblue" stroke="midnightblue" points="356.296,-50.5001 346.296,-54 356.296,-57.5001 356.296,-50.5001"/>
</g>
<!-- Node5 -->
<g id="node5" class="node"><title>Node5</title>
<g id="a_node5"><a xlink:href="../../d7/d78/classturtle_classes_1_1_turtle_key_handler.html#a7dfe582e767f31105e84278d26dbc4c1" target="_top" xlink:title="turtleClasses.TurtleKeyHandler.handle">
<polygon fill="white" stroke="black" points="382,-0.5 382,-19.5 578,-19.5 578,-0.5 382,-0.5"/>
<text text-anchor="middle" x="480" y="-7.5" font-family="Helvetica,sans-Serif" font-size="10.00">turtleClasses.TurtleKeyHandler.handle</text>
</a>
</g>
</g>
<!-- Node2&#45;&gt;Node5 -->
<g id="edge4" class="edge"><title>Node2&#45;&gt;Node5</title>
<path fill="none" stroke="midnightblue" d="M339.351,-37.0686C370.066,-31.115 403.483,-24.6377 429.925,-19.5124"/>
<polygon fill="midnightblue" stroke="midnightblue" points="338.637,-33.6417 329.486,-38.9808 339.969,-40.5138 338.637,-33.6417"/>
</g>
</g>
</svg>
