<?xml version="1.0" encoding="UTF-8" standalone="no"?>
<!DOCTYPE svg PUBLIC "-//W3C//DTD SVG 1.1//EN"
 "http://www.w3.org/Graphics/SVG/1.1/DTD/svg11.dtd">
<!-- Generated by graphviz version 2.36.0 (20140111.2315)
 -->
<!-- Title: frontend.PaneUpdater Pages: 1 -->
<svg width="180pt" height="108pt"
 viewBox="0.00 0.00 180.00 108.00" xmlns="http://www.w3.org/2000/svg" xmlns:xlink="http://www.w3.org/1999/xlink">
<g id="graph0" class="graph" transform="scale(1 1) rotate(0) translate(4 104)">
<title>frontend.PaneUpdater</title>
<polygon fill="white" stroke="none" points="-4,4 -4,-104 176,-104 176,4 -4,4"/>
<!-- Node1 -->
<g id="node1" class="node"><title>Node1</title>
<polygon fill="#bfbfbf" stroke="black" points="25,-0.5 25,-19.5 147,-19.5 147,-0.5 25,-0.5"/>
<text text-anchor="middle" x="86" y="-7.5" font-family="Helvetica,sans-Serif" font-size="10.00">frontend.PaneUpdater</text>
</g>
<!-- Node2 -->
<g id="node2" class="node"><title>Node2</title>
<polygon fill="white" stroke="#bfbfbf" points="-0.5,-69 -0.5,-99 172.5,-99 172.5,-69 -0.5,-69"/>
<text text-anchor="start" x="7.5" y="-87" font-family="Helvetica,sans-Serif" font-size="10.00">List&lt; frontend.AbstractFeatures.</text>
<text text-anchor="middle" x="86" y="-76" font-family="Helvetica,sans-Serif" font-size="10.00">SLogoScrollPane &gt;</text>
</g>
<!-- Node2&#45;&gt;Node1 -->
<g id="edge1" class="edge"><title>Node2&#45;&gt;Node1</title>
<path fill="none" stroke="#9a32cd" stroke-dasharray="5,2" d="M86,-58.6883C86,-45.2526 86,-29.3805 86,-19.7589"/>
<polygon fill="#9a32cd" stroke="#9a32cd" points="82.5001,-58.7751 86,-68.7751 89.5001,-58.7752 82.5001,-58.7751"/>
<text text-anchor="middle" x="125.5" y="-41.5" font-family="Helvetica,sans-Serif" font-size="10.00"> myUpdateables</text>
</g>
</g>
</svg>
