<?xml version="1.0" encoding="UTF-8" standalone="no"?>
<!DOCTYPE svg PUBLIC "-//W3C//DTD SVG 1.1//EN"
 "http://www.w3.org/Graphics/SVG/1.1/DTD/svg11.dtd">
<!-- Generated by graphviz version 2.36.0 (20140111.2315)
 -->
<!-- Title: frontend.ConcreteFeatures.CommandsWindow.updatePane Pages: 1 -->
<svg width="366pt" height="87pt"
 viewBox="0.00 0.00 366.00 87.00" xmlns="http://www.w3.org/2000/svg" xmlns:xlink="http://www.w3.org/1999/xlink">
<g id="graph0" class="graph" transform="scale(1 1) rotate(0) translate(4 83)">
<title>frontend.ConcreteFeatures.CommandsWindow.updatePane</title>
<polygon fill="white" stroke="none" points="-4,4 -4,-83 362,-83 362,4 -4,4"/>
<!-- Node1 -->
<g id="node1" class="node"><title>Node1</title>
<polygon fill="#bfbfbf" stroke="black" points="0.5,-24 0.5,-54 167.5,-54 167.5,-24 0.5,-24"/>
<text text-anchor="start" x="8.5" y="-42" font-family="Helvetica,sans-Serif" font-size="10.00">frontend.ConcreteFeatures.</text>
<text text-anchor="middle" x="84" y="-31" font-family="Helvetica,sans-Serif" font-size="10.00">CommandsWindow.updatePane</text>
</g>
<!-- Node2 -->
<g id="node2" class="node"><title>Node2</title>
<g id="a_node2"><a xlink:href="../../d8/d36/classexpression_tree_1_1_user_function_map.html#a8cb80acc8ccf7338f39433c854b9dfb4" target="_top" xlink:title="expressionTree.UserFunction\lMap.getUserFunctionMap">
<polygon fill="white" stroke="black" points="204.5,-49 204.5,-79 357.5,-79 357.5,-49 204.5,-49"/>
<text text-anchor="start" x="212.5" y="-67" font-family="Helvetica,sans-Serif" font-size="10.00">expressionTree.UserFunction</text>
<text text-anchor="middle" x="281" y="-56" font-family="Helvetica,sans-Serif" font-size="10.00">Map.getUserFunctionMap</text>
</a>
</g>
</g>
<!-- Node1&#45;&gt;Node2 -->
<g id="edge1" class="edge"><title>Node1&#45;&gt;Node2</title>
<path fill="none" stroke="midnightblue" d="M167.698,-49.6023C176.522,-50.7335 185.511,-51.8861 194.368,-53.0216"/>
<polygon fill="midnightblue" stroke="midnightblue" points="193.932,-56.4942 204.296,-54.2944 194.822,-49.5511 193.932,-56.4942"/>
</g>
<!-- Node3 -->
<g id="node3" class="node"><title>Node3</title>
<g id="a_node3"><a xlink:href="../../d8/d36/classexpression_tree_1_1_user_function_map.html#a93c2c866484b41d84b572fe2be8c1828" target="_top" xlink:title="expressionTree.UserFunction\lMap.keySet">
<polygon fill="white" stroke="black" points="204.5,-0 204.5,-30 357.5,-30 357.5,-0 204.5,-0"/>
<text text-anchor="start" x="212.5" y="-18" font-family="Helvetica,sans-Serif" font-size="10.00">expressionTree.UserFunction</text>
<text text-anchor="middle" x="281" y="-7" font-family="Helvetica,sans-Serif" font-size="10.00">Map.keySet</text>
</a>
</g>
</g>
<!-- Node1&#45;&gt;Node3 -->
<g id="edge2" class="edge"><title>Node1&#45;&gt;Node3</title>
<path fill="none" stroke="midnightblue" d="M167.698,-28.8218C176.522,-27.7358 185.511,-26.6294 194.368,-25.5393"/>
<polygon fill="midnightblue" stroke="midnightblue" points="194.799,-29.0128 204.296,-24.3174 193.943,-22.0653 194.799,-29.0128"/>
</g>
</g>
</svg>
