<?xml version="1.0" encoding="UTF-8" standalone="no"?>
<!DOCTYPE svg PUBLIC "-//W3C//DTD SVG 1.1//EN"
 "http://www.w3.org/Graphics/SVG/1.1/DTD/svg11.dtd">
<!-- Generated by graphviz version 2.36.0 (20140111.2315)
 -->
<!-- Title: frontend.ConcreteFeatures.SLogoColorPicker Pages: 1 -->
<svg width="251pt" height="120pt"
 viewBox="0.00 0.00 251.00 120.00" xmlns="http://www.w3.org/2000/svg" xmlns:xlink="http://www.w3.org/1999/xlink">
<g id="graph0" class="graph" transform="scale(1 1) rotate(0) translate(4 116)">
<title>frontend.ConcreteFeatures.SLogoColorPicker</title>
<polygon fill="white" stroke="none" points="-4,4 -4,-116 247,-116 247,4 -4,4"/>
<!-- Node1 -->
<g id="node1" class="node"><title>Node1</title>
<polygon fill="#bfbfbf" stroke="black" points="61,-1 61,-31 209,-31 209,-1 61,-1"/>
<text text-anchor="start" x="69" y="-19" font-family="Helvetica,sans-Serif" font-size="10.00">frontend.ConcreteFeatures.</text>
<text text-anchor="middle" x="135" y="-8" font-family="Helvetica,sans-Serif" font-size="10.00">SLogoColorPicker</text>
</g>
<!-- Node2 -->
<g id="node2" class="node"><title>Node2</title>
<g id="a_node2"><a xlink:href="../../dc/db4/classfrontend_1_1_abstract_features_1_1_g_u_i_feature.html" target="_top" xlink:title="frontend.AbstractFeatures.\lGUIFeature">
<polygon fill="white" stroke="black" points="-0.5,-81 -0.5,-111 144.5,-111 144.5,-81 -0.5,-81"/>
<text text-anchor="start" x="7.5" y="-99" font-family="Helvetica,sans-Serif" font-size="10.00">frontend.AbstractFeatures.</text>
<text text-anchor="middle" x="72" y="-88" font-family="Helvetica,sans-Serif" font-size="10.00">GUIFeature</text>
</a>
</g>
</g>
<!-- Node2&#45;&gt;Node1 -->
<g id="edge1" class="edge"><title>Node2&#45;&gt;Node1</title>
<path fill="none" stroke="midnightblue" d="M89.8782,-72.8651C100.679,-59.493 114.126,-42.8445 123.518,-31.2157"/>
<polygon fill="midnightblue" stroke="midnightblue" points="87.1158,-70.715 83.5552,-80.6936 92.5614,-75.1134 87.1158,-70.715"/>
</g>
<!-- Node3 -->
<g id="node3" class="node"><title>Node3</title>
<polygon fill="white" stroke="#bfbfbf" points="163,-86.5 163,-105.5 233,-105.5 233,-86.5 163,-86.5"/>
<text text-anchor="middle" x="198" y="-93.5" font-family="Helvetica,sans-Serif" font-size="10.00">ColorPicker</text>
</g>
<!-- Node3&#45;&gt;Node1 -->
<g id="edge2" class="edge"><title>Node3&#45;&gt;Node1</title>
<path fill="none" stroke="#9a32cd" stroke-dasharray="5,2" d="M184.671,-78.4975C173.346,-64.4755 157.258,-44.557 146.491,-31.227"/>
<polygon fill="#9a32cd" stroke="#9a32cd" points="182.011,-80.7744 191.017,-86.3546 187.457,-76.376 182.011,-80.7744"/>
<text text-anchor="middle" x="207" y="-53.5" font-family="Helvetica,sans-Serif" font-size="10.00"> myColorPicker</text>
</g>
</g>
</svg>
