<?xml version="1.0" encoding="UTF-8" standalone="no"?>
<!DOCTYPE svg PUBLIC "-//W3C//DTD SVG 1.1//EN"
 "http://www.w3.org/Graphics/SVG/1.1/DTD/svg11.dtd">
<!-- Generated by graphviz version 2.36.0 (20140111.2315)
 -->
<!-- Title: frontend.ConcreteFeatures.CommandExecuter.action Pages: 1 -->
<!--zoomable 425 -->
<svg id="main" version="1.1" xmlns="http://www.w3.org/2000/svg" xmlns:xlink="http://www.w3.org/1999/xlink" xml:space="preserve" onload="init(evt)">
<style type="text/css"><![CDATA[
.edge:hover path { stroke: red; }
.edge:hover polygon { stroke: red; fill: red; }
]]></style>
<script type="text/javascript"><![CDATA[
var edges = document.getElementsByTagName('g');
if (edges && edges.length) {
  for (var i=0;i<edges.length;i++) {
    if (edges[i].id.substr(0,4)=='edge') {
      edges[i].setAttribute('class','edge');
    }
  }
}
]]></script>
        <defs>
                <circle id="rim" cx="0" cy="0" r="7"/>
                <circle id="rim2" cx="0" cy="0" r="3.5"/>
                <g id="zoomPlus">
                        <use xlink:href="#rim" fill="#404040">
                                <set attributeName="fill" to="#808080" begin="zoomplus.mouseover" end="zoomplus.mouseout"/>
                        </use>
                        <path d="M-4,0h8M0,-4v8" fill="none" stroke="white" stroke-width="1.5" pointer-events="none"/>
                </g>
                <g id="zoomMin">
                        <use xlink:href="#rim" fill="#404040">
                                <set attributeName="fill" to="#808080" begin="zoomminus.mouseover" end="zoomminus.mouseout"/>
                        </use>
                        <path d="M-4,0h8" fill="none" stroke="white" stroke-width="1.5" pointer-events="none"/>
                </g>
                <g id="dirArrow">
                        <path fill="none" stroke="white" stroke-width="1.5" d="M0,-3.0v7 M-2.5,-0.5L0,-3.0L2.5,-0.5"/>
                </g>
               <g id="resetDef">
                       <use xlink:href="#rim2" fill="#404040">
                               <set attributeName="fill" to="#808080" begin="reset.mouseover" end="reset.mouseout"/>
                       </use>
               </g>
        </defs>

<script type="text/javascript">
var viewWidth = 1000;
var viewHeight = 425;
var sectionId = 'dynsection-2';
</script>
<script xlink:href="../../svgpan.js"/>
<svg id="graph" class="graph">
<g id="viewport">
<title>frontend.ConcreteFeatures.CommandExecuter.action</title>
<polygon fill="white" stroke="none" points="-4,4 -4,-421 996,-421 996,4 -4,4"/>
<!-- Node1 -->
<g id="node1" class="node"><title>Node1</title>
<polygon fill="#bfbfbf" stroke="black" points="0,-299 0,-329 148,-329 148,-299 0,-299"/>
<text text-anchor="start" x="8" y="-317" font-family="Helvetica,sans-Serif" font-size="10.00">frontend.ConcreteFeatures.</text>
<text text-anchor="middle" x="74" y="-306" font-family="Helvetica,sans-Serif" font-size="10.00">CommandExecuter.action</text>
</g>
<!-- Node2 -->
<g id="node2" class="node"><title>Node2</title>
<g id="a_node2"><a xlink:href="../../d1/ded/classexpression_tree_1_1_history_collection.html#a9fda077d14c8109b7a1a22f9604358ff" target="_top" xlink:title="expressionTree.HistoryCollection.add">
<polygon fill="white" stroke="black" points="185,-397.5 185,-416.5 377,-416.5 377,-397.5 185,-397.5"/>
<text text-anchor="middle" x="281" y="-404.5" font-family="Helvetica,sans-Serif" font-size="10.00">expressionTree.HistoryCollection.add</text>
</a>
</g>
</g>
<!-- Node1&#45;&gt;Node2 -->
<g id="edge1" class="edge"><title>Node1&#45;&gt;Node2</title>
<path fill="none" stroke="midnightblue" d="M93.0193,-329.294C113.661,-346.009 149.144,-372.355 184,-387 191.365,-390.094 199.255,-392.726 207.23,-394.961"/>
<polygon fill="midnightblue" stroke="midnightblue" points="206.412,-398.365 216.971,-397.495 208.174,-391.59 206.412,-398.365"/>
</g>
<!-- Node3 -->
<g id="node3" class="node"><title>Node3</title>
<g id="a_node3"><a xlink:href="../../d2/dea/class_s_logo_controllers_1_1_input_controller.html#a7ce411d6699e0b45d54f63e43995c6a0" target="_top" xlink:title="SLogoControllers.InputController.get\lInstructions">
<polygon fill="white" stroke="black" points="186,-348 186,-378 376,-378 376,-348 186,-348"/>
<text text-anchor="start" x="194" y="-366" font-family="Helvetica,sans-Serif" font-size="10.00">SLogoControllers.InputController.get</text>
<text text-anchor="middle" x="281" y="-355" font-family="Helvetica,sans-Serif" font-size="10.00">Instructions</text>
</a>
</g>
</g>
<!-- Node1&#45;&gt;Node3 -->
<g id="edge2" class="edge"><title>Node1&#45;&gt;Node3</title>
<path fill="none" stroke="midnightblue" d="M137.9,-329.035C159.84,-334.279 184.641,-340.207 207.311,-345.626"/>
<polygon fill="midnightblue" stroke="midnightblue" points="206.679,-349.073 217.219,-347.994 208.307,-342.265 206.679,-349.073"/>
</g>
<!-- Node6 -->
<g id="node6" class="node"><title>Node6</title>
<g id="a_node6"><a xlink:href="../../d2/dea/class_s_logo_controllers_1_1_input_controller.html#a1e1beebe816454b8128ce9222eeb8620" target="_top" xlink:title="SLogoControllers.InputController.give\lInput">
<polygon fill="white" stroke="black" points="184,-299 184,-329 378,-329 378,-299 184,-299"/>
<text text-anchor="start" x="192" y="-317" font-family="Helvetica,sans-Serif" font-size="10.00">SLogoControllers.InputController.give</text>
<text text-anchor="middle" x="281" y="-306" font-family="Helvetica,sans-Serif" font-size="10.00">Input</text>
</a>
</g>
</g>
<!-- Node1&#45;&gt;Node6 -->
<g id="edge5" class="edge"><title>Node1&#45;&gt;Node6</title>
<path fill="none" stroke="midnightblue" d="M148.141,-314C156.489,-314 165.12,-314 173.786,-314"/>
<polygon fill="midnightblue" stroke="midnightblue" points="173.961,-317.5 183.961,-314 173.961,-310.5 173.961,-317.5"/>
</g>
<!-- Node9 -->
<g id="node9" class="node"><title>Node9</title>
<g id="a_node9"><a xlink:href="../../d3/d17/classturtle_classes_1_1_turtle_mover.html#a955db4be8fe596975332813b98a0cecf" target="_top" xlink:title="turtleClasses.TurtleMover.start\lDrawing">
<polygon fill="white" stroke="black" points="200.5,-227 200.5,-257 361.5,-257 361.5,-227 200.5,-227"/>
<text text-anchor="start" x="208.5" y="-245" font-family="Helvetica,sans-Serif" font-size="10.00">turtleClasses.TurtleMover.start</text>
<text text-anchor="middle" x="281" y="-234" font-family="Helvetica,sans-Serif" font-size="10.00">Drawing</text>
</a>
</g>
</g>
<!-- Node1&#45;&gt;Node9 -->
<g id="edge8" class="edge"><title>Node1&#45;&gt;Node9</title>
<path fill="none" stroke="midnightblue" d="M117.975,-298.906C149.819,-287.722 193.393,-272.418 227.333,-260.498"/>
<polygon fill="midnightblue" stroke="midnightblue" points="228.807,-263.69 237.082,-257.074 226.487,-257.085 228.807,-263.69"/>
</g>
<!-- Node23 -->
<g id="node23" class="node"><title>Node23</title>
<g id="a_node23"><a xlink:href="../../df/d0e/classfrontend_1_1_pane_updater.html#a5fcda115228f65df7abd8ec164ca67f9" target="_top" xlink:title="frontend.PaneUpdater.updateAll">
<polygon fill="white" stroke="black" points="196,-188.5 196,-207.5 366,-207.5 366,-188.5 196,-188.5"/>
<text text-anchor="middle" x="281" y="-195.5" font-family="Helvetica,sans-Serif" font-size="10.00">frontend.PaneUpdater.updateAll</text>
</a>
</g>
</g>
<!-- Node1&#45;&gt;Node23 -->
<g id="edge23" class="edge"><title>Node1&#45;&gt;Node23</title>
<path fill="none" stroke="midnightblue" d="M87.3202,-298.795C105.869,-277.006 143.169,-237.296 184,-217 188.897,-214.566 194.08,-212.443 199.4,-210.593"/>
<polygon fill="midnightblue" stroke="midnightblue" points="200.601,-213.884 209.092,-207.547 198.502,-207.206 200.601,-213.884"/>
</g>
<!-- Node4 -->
<g id="node4" class="node"><title>Node4</title>
<g id="a_node4"><a xlink:href="../../d1/ddd/classbackend_1_1_parser.html#a8b57ca47f899f9682d7e7b8f19857933" target="_top" xlink:title="backend.Parser.parse">
<polygon fill="white" stroke="black" points="449.5,-365.5 449.5,-384.5 568.5,-384.5 568.5,-365.5 449.5,-365.5"/>
<text text-anchor="middle" x="509" y="-372.5" font-family="Helvetica,sans-Serif" font-size="10.00">backend.Parser.parse</text>
</a>
</g>
</g>
<!-- Node3&#45;&gt;Node4 -->
<g id="edge3" class="edge"><title>Node3&#45;&gt;Node4</title>
<path fill="none" stroke="midnightblue" d="M376.208,-368.002C397.351,-369.125 419.398,-370.295 439.274,-371.351"/>
<polygon fill="midnightblue" stroke="midnightblue" points="439.282,-374.856 449.453,-371.891 439.653,-367.866 439.282,-374.856"/>
</g>
<!-- Node5 -->
<g id="node5" class="node"><title>Node5</title>
<g id="a_node5"><a xlink:href="../../d3/dfb/classexpression_tree_1_1_expression_tree_builder.html#aa6681548d74fc2f813e9496a163716be" target="_top" xlink:title="expressionTree.Expression\lTreeBuilder.getOutputList">
<polygon fill="white" stroke="black" points="654.5,-367 654.5,-397 797.5,-397 797.5,-367 654.5,-367"/>
<text text-anchor="start" x="662.5" y="-385" font-family="Helvetica,sans-Serif" font-size="10.00">expressionTree.Expression</text>
<text text-anchor="middle" x="726" y="-374" font-family="Helvetica,sans-Serif" font-size="10.00">TreeBuilder.getOutputList</text>
</a>
</g>
</g>
<!-- Node4&#45;&gt;Node5 -->
<g id="edge4" class="edge"><title>Node4&#45;&gt;Node5</title>
<path fill="none" stroke="midnightblue" d="M568.75,-376.913C592.025,-377.671 619.169,-378.554 644.241,-379.371"/>
<polygon fill="midnightblue" stroke="midnightblue" points="644.362,-382.876 654.471,-379.704 644.59,-375.88 644.362,-382.876"/>
</g>
<!-- Node7 -->
<g id="node7" class="node"><title>Node7</title>
<g id="a_node7"><a xlink:href="../../d4/dbc/classfrontend_1_1_translator.html#af1bc0cb421e114e275cf9b0185da7092" target="_top" xlink:title="frontend.Translator.translate">
<polygon fill="white" stroke="black" points="433,-321.5 433,-340.5 585,-340.5 585,-321.5 433,-321.5"/>
<text text-anchor="middle" x="509" y="-328.5" font-family="Helvetica,sans-Serif" font-size="10.00">frontend.Translator.translate</text>
</a>
</g>
</g>
<!-- Node6&#45;&gt;Node7 -->
<g id="edge6" class="edge"><title>Node6&#45;&gt;Node7</title>
<path fill="none" stroke="midnightblue" d="M378.172,-321.234C393.009,-322.35 408.242,-323.496 422.817,-324.592"/>
<polygon fill="midnightblue" stroke="midnightblue" points="422.555,-328.083 432.789,-325.343 423.08,-321.102 422.555,-328.083"/>
</g>
<!-- Node8 -->
<g id="node8" class="node"><title>Node8</title>
<g id="a_node8"><a xlink:href="../../d4/dbc/classfrontend_1_1_translator.html#ad4388893530365ae85e623478ec20d50" target="_top" xlink:title="frontend.Translator.translateOne">
<polygon fill="white" stroke="black" points="640.5,-328.5 640.5,-347.5 811.5,-347.5 811.5,-328.5 640.5,-328.5"/>
<text text-anchor="middle" x="726" y="-335.5" font-family="Helvetica,sans-Serif" font-size="10.00">frontend.Translator.translateOne</text>
</a>
</g>
</g>
<!-- Node7&#45;&gt;Node8 -->
<g id="edge7" class="edge"><title>Node7&#45;&gt;Node8</title>
<path fill="none" stroke="midnightblue" d="M585.197,-333.448C599.66,-333.919 614.983,-334.418 629.978,-334.906"/>
<polygon fill="midnightblue" stroke="midnightblue" points="630.183,-338.415 640.292,-335.242 630.411,-331.418 630.183,-338.415"/>
</g>
<!-- Node10 -->
<g id="node10" class="node"><title>Node10</title>
<g id="a_node10"><a xlink:href="../../d4/d7e/classturtle_classes_1_1_turtle_collection.html#a61f007615f0fd523dae94957f8022100" target="_top" xlink:title="turtleClasses.TurtleCollection.set\lActiveTurtles">
<polygon fill="white" stroke="black" points="423,-265 423,-295 595,-295 595,-265 423,-265"/>
<text text-anchor="start" x="431" y="-283" font-family="Helvetica,sans-Serif" font-size="10.00">turtleClasses.TurtleCollection.set</text>
<text text-anchor="middle" x="509" y="-272" font-family="Helvetica,sans-Serif" font-size="10.00">ActiveTurtles</text>
</a>
</g>
</g>
<!-- Node9&#45;&gt;Node10 -->
<g id="edge9" class="edge"><title>Node9&#45;&gt;Node10</title>
<path fill="none" stroke="midnightblue" d="M361.679,-255.397C378.252,-258.184 395.874,-261.147 412.937,-264.016"/>
<polygon fill="midnightblue" stroke="midnightblue" points="412.464,-267.486 422.906,-265.692 413.625,-260.582 412.464,-267.486"/>
</g>
<!-- Node14 -->
<g id="node14" class="node"><title>Node14</title>
<g id="a_node14"><a xlink:href="../../dc/d69/classturtle_classes_1_1_turtle_snapshot.html#a40b94c5cc09d2877090e9ced16447e03" target="_top" xlink:title="turtleClasses.TurtleSnapshot.get\lTurtleSnapshot">
<polygon fill="white" stroke="black" points="423,-216 423,-246 595,-246 595,-216 423,-216"/>
<text text-anchor="start" x="431" y="-234" font-family="Helvetica,sans-Serif" font-size="10.00">turtleClasses.TurtleSnapshot.get</text>
<text text-anchor="middle" x="509" y="-223" font-family="Helvetica,sans-Serif" font-size="10.00">TurtleSnapshot</text>
</a>
</g>
</g>
<!-- Node9&#45;&gt;Node14 -->
<g id="edge13" class="edge"><title>Node9&#45;&gt;Node14</title>
<path fill="none" stroke="midnightblue" d="M361.679,-238.122C378.097,-237.323 395.545,-236.473 412.458,-235.65"/>
<polygon fill="midnightblue" stroke="midnightblue" points="413.088,-239.124 422.906,-235.142 412.748,-232.132 413.088,-239.124"/>
</g>
<!-- Node15 -->
<g id="node15" class="node"><title>Node15</title>
<g id="a_node15"><a xlink:href="../../dc/d69/classturtle_classes_1_1_turtle_snapshot.html#a15dec792db9c32413964d88bae094216" target="_top" xlink:title="turtleClasses.TurtleSnapshot.update">
<polygon fill="white" stroke="black" points="414,-164.5 414,-183.5 604,-183.5 604,-164.5 414,-164.5"/>
<text text-anchor="middle" x="509" y="-171.5" font-family="Helvetica,sans-Serif" font-size="10.00">turtleClasses.TurtleSnapshot.update</text>
</a>
</g>
</g>
<!-- Node9&#45;&gt;Node15 -->
<g id="edge14" class="edge"><title>Node9&#45;&gt;Node15</title>
<path fill="none" stroke="midnightblue" d="M342.081,-226.992C354.021,-223.83 366.438,-220.414 378,-217 409.6,-207.67 445.089,-195.838 470.994,-186.949"/>
<polygon fill="midnightblue" stroke="midnightblue" points="472.459,-190.146 480.771,-183.577 470.177,-183.528 472.459,-190.146"/>
</g>
<!-- Node22 -->
<g id="node22" class="node"><title>Node22</title>
<g id="a_node22"><a xlink:href="../../d4/d7e/classturtle_classes_1_1_turtle_collection.html#ad8dcff2e2a1b9234392977c700bd76ed" target="_top" xlink:title="turtleClasses.TurtleCollection.get\lLastActiveTurtle">
<polygon fill="white" stroke="black" points="422.5,-115 422.5,-145 595.5,-145 595.5,-115 422.5,-115"/>
<text text-anchor="start" x="430.5" y="-133" font-family="Helvetica,sans-Serif" font-size="10.00">turtleClasses.TurtleCollection.get</text>
<text text-anchor="middle" x="509" y="-122" font-family="Helvetica,sans-Serif" font-size="10.00">LastActiveTurtle</text>
</a>
</g>
</g>
<!-- Node9&#45;&gt;Node22 -->
<g id="edge22" class="edge"><title>Node9&#45;&gt;Node22</title>
<path fill="none" stroke="midnightblue" d="M361.424,-226.88C367.313,-224.118 372.926,-220.855 378,-217 403.371,-197.723 388.679,-174.343 414,-155 416.47,-153.113 419.071,-151.368 421.771,-149.755"/>
<polygon fill="midnightblue" stroke="midnightblue" points="423.489,-152.806 430.692,-145.037 420.216,-146.618 423.489,-152.806"/>
</g>
<!-- Node11 -->
<g id="node11" class="node"><title>Node11</title>
<g id="a_node11"><a xlink:href="../../d8/d89/classturtle_classes_1_1_turtle.html#a2d3828dbca854624cc75fca5aa65b4c5" target="_top" xlink:title="turtleClasses.Turtle.set\lActive">
<polygon fill="white" stroke="black" points="663.5,-279 663.5,-309 788.5,-309 788.5,-279 663.5,-279"/>
<text text-anchor="start" x="671.5" y="-297" font-family="Helvetica,sans-Serif" font-size="10.00">turtleClasses.Turtle.set</text>
<text text-anchor="middle" x="726" y="-286" font-family="Helvetica,sans-Serif" font-size="10.00">Active</text>
</a>
</g>
</g>
<!-- Node10&#45;&gt;Node11 -->
<g id="edge10" class="edge"><title>Node10&#45;&gt;Node11</title>
<path fill="none" stroke="midnightblue" d="M595.282,-285.553C614.473,-286.803 634.652,-288.117 653.225,-289.326"/>
<polygon fill="midnightblue" stroke="midnightblue" points="653.155,-292.829 663.362,-289.986 653.61,-285.844 653.155,-292.829"/>
</g>
<!-- Node13 -->
<g id="node13" class="node"><title>Node13</title>
<g id="a_node13"><a xlink:href="../../d8/d89/classturtle_classes_1_1_turtle.html#aff48aa8a8ca4bb8a7aa40743a1a944c4" target="_top" xlink:title="turtleClasses.Turtle.getID">
<polygon fill="white" stroke="black" points="658,-240.5 658,-259.5 794,-259.5 794,-240.5 658,-240.5"/>
<text text-anchor="middle" x="726" y="-247.5" font-family="Helvetica,sans-Serif" font-size="10.00">turtleClasses.Turtle.getID</text>
</a>
</g>
</g>
<!-- Node10&#45;&gt;Node13 -->
<g id="edge12" class="edge"><title>Node10&#45;&gt;Node13</title>
<path fill="none" stroke="midnightblue" d="M595.282,-268.1C612.467,-265.702 630.444,-263.194 647.351,-260.835"/>
<polygon fill="midnightblue" stroke="midnightblue" points="648.303,-264.236 657.723,-259.387 647.335,-257.303 648.303,-264.236"/>
</g>
<!-- Node12 -->
<g id="node12" class="node"><title>Node12</title>
<g id="a_node12"><a xlink:href="../../d8/d89/classturtle_classes_1_1_turtle.html#abd769212afc56f042db3d4b5ee33790e" target="_top" xlink:title="turtleClasses.Turtle.handle\lActiveOutline">
<polygon fill="white" stroke="black" points="848.5,-279 848.5,-309 991.5,-309 991.5,-279 848.5,-279"/>
<text text-anchor="start" x="856.5" y="-297" font-family="Helvetica,sans-Serif" font-size="10.00">turtleClasses.Turtle.handle</text>
<text text-anchor="middle" x="920" y="-286" font-family="Helvetica,sans-Serif" font-size="10.00">ActiveOutline</text>
</a>
</g>
</g>
<!-- Node11&#45;&gt;Node12 -->
<g id="edge11" class="edge"><title>Node11&#45;&gt;Node12</title>
<path fill="none" stroke="midnightblue" d="M788.542,-294C804.347,-294 821.589,-294 838.207,-294"/>
<polygon fill="midnightblue" stroke="midnightblue" points="838.455,-297.5 848.455,-294 838.455,-290.5 838.455,-297.5"/>
</g>
<!-- Node15&#45;&gt;Node13 -->
<g id="edge21" class="edge"><title>Node15&#45;&gt;Node13</title>
<path fill="none" stroke="midnightblue" d="M545.765,-183.604C563.725,-189.062 585.533,-196.676 604,-206 621.389,-214.78 622.162,-223.174 640,-231 645.725,-233.512 651.818,-235.708 658.01,-237.624"/>
<polygon fill="midnightblue" stroke="midnightblue" points="657.208,-241.035 667.785,-240.412 659.128,-234.304 657.208,-241.035"/>
</g>
<!-- Node16 -->
<g id="node16" class="node"><title>Node16</title>
<g id="a_node16"><a xlink:href="../../d8/d89/classturtle_classes_1_1_turtle.html#a56503fbcf1cf444dc2dba7a7f07b891e" target="_top" xlink:title="turtleClasses.Turtle.getX">
<polygon fill="white" stroke="black" points="660,-202.5 660,-221.5 792,-221.5 792,-202.5 660,-202.5"/>
<text text-anchor="middle" x="726" y="-209.5" font-family="Helvetica,sans-Serif" font-size="10.00">turtleClasses.Turtle.getX</text>
</a>
</g>
</g>
<!-- Node15&#45;&gt;Node16 -->
<g id="edge15" class="edge"><title>Node15&#45;&gt;Node16</title>
<path fill="none" stroke="midnightblue" d="M563.976,-183.54C593.368,-188.735 629.926,-195.196 660.777,-200.649"/>
<polygon fill="midnightblue" stroke="midnightblue" points="660.545,-204.162 671.002,-202.456 661.764,-197.269 660.545,-204.162"/>
</g>
<!-- Node17 -->
<g id="node17" class="node"><title>Node17</title>
<g id="a_node17"><a xlink:href="../../d8/d89/classturtle_classes_1_1_turtle.html#a603a81ffb444aa19cecef6fc7f356e1f" target="_top" xlink:title="turtleClasses.Turtle.getY">
<polygon fill="white" stroke="black" points="660.5,-164.5 660.5,-183.5 791.5,-183.5 791.5,-164.5 660.5,-164.5"/>
<text text-anchor="middle" x="726" y="-171.5" font-family="Helvetica,sans-Serif" font-size="10.00">turtleClasses.Turtle.getY</text>
</a>
</g>
</g>
<!-- Node15&#45;&gt;Node17 -->
<g id="edge16" class="edge"><title>Node15&#45;&gt;Node17</title>
<path fill="none" stroke="midnightblue" d="M604.302,-174C619.703,-174 635.471,-174 650.316,-174"/>
<polygon fill="midnightblue" stroke="midnightblue" points="650.429,-177.5 660.429,-174 650.429,-170.5 650.429,-177.5"/>
</g>
<!-- Node18 -->
<g id="node18" class="node"><title>Node18</title>
<g id="a_node18"><a xlink:href="../../d8/d89/classturtle_classes_1_1_turtle.html#a83d46277ec7258a57d8b69797ffb42d8" target="_top" xlink:title="turtleClasses.Turtle.get\lDirection">
<polygon fill="white" stroke="black" points="663,-115 663,-145 789,-145 789,-115 663,-115"/>
<text text-anchor="start" x="671" y="-133" font-family="Helvetica,sans-Serif" font-size="10.00">turtleClasses.Turtle.get</text>
<text text-anchor="middle" x="726" y="-122" font-family="Helvetica,sans-Serif" font-size="10.00">Direction</text>
</a>
</g>
</g>
<!-- Node15&#45;&gt;Node18 -->
<g id="edge17" class="edge"><title>Node15&#45;&gt;Node18</title>
<path fill="none" stroke="midnightblue" d="M556.652,-164.453C584.735,-158.705 621.079,-151.267 652.807,-144.774"/>
<polygon fill="midnightblue" stroke="midnightblue" points="653.835,-148.137 662.93,-142.703 652.432,-141.279 653.835,-148.137"/>
</g>
<!-- Node19 -->
<g id="node19" class="node"><title>Node19</title>
<g id="a_node19"><a xlink:href="../../d8/d89/classturtle_classes_1_1_turtle.html#aebccf7c8d3ea7b21ea040ec199df9524" target="_top" xlink:title="turtleClasses.Turtle.getPen">
<polygon fill="white" stroke="black" points="654,-76.5 654,-95.5 798,-95.5 798,-76.5 654,-76.5"/>
<text text-anchor="middle" x="726" y="-83.5" font-family="Helvetica,sans-Serif" font-size="10.00">turtleClasses.Turtle.getPen</text>
</a>
</g>
</g>
<!-- Node15&#45;&gt;Node19 -->
<g id="edge18" class="edge"><title>Node15&#45;&gt;Node19</title>
<path fill="none" stroke="midnightblue" d="M582.001,-164.45C589.763,-161.763 597.272,-158.345 604,-154 626.701,-139.34 617.374,-119.777 640,-105 643.161,-102.936 646.514,-101.093 649.992,-99.4488"/>
<polygon fill="midnightblue" stroke="midnightblue" points="651.536,-102.598 659.441,-95.5434 648.863,-96.1284 651.536,-102.598"/>
</g>
<!-- Node20 -->
<g id="node20" class="node"><title>Node20</title>
<g id="a_node20"><a xlink:href="../../d3/d0e/classfrontend_1_1_pen.html#a17318755b237586d312171984cbcc550" target="_top" xlink:title="frontend.Pen.isPenDown">
<polygon fill="white" stroke="black" points="659.5,-38.5 659.5,-57.5 792.5,-57.5 792.5,-38.5 659.5,-38.5"/>
<text text-anchor="middle" x="726" y="-45.5" font-family="Helvetica,sans-Serif" font-size="10.00">frontend.Pen.isPenDown</text>
</a>
</g>
</g>
<!-- Node15&#45;&gt;Node20 -->
<g id="edge19" class="edge"><title>Node15&#45;&gt;Node20</title>
<path fill="none" stroke="midnightblue" d="M586.876,-164.43C593.048,-161.692 598.87,-158.269 604,-154 636.166,-127.233 607.972,-93.932 640,-67 643.101,-64.3922 646.485,-62.1221 650.057,-60.1477"/>
<polygon fill="midnightblue" stroke="midnightblue" points="651.706,-63.2401 659.273,-55.8247 648.734,-56.9026 651.706,-63.2401"/>
</g>
<!-- Node21 -->
<g id="node21" class="node"><title>Node21</title>
<g id="a_node21"><a xlink:href="../../d8/d89/classturtle_classes_1_1_turtle.html#ab9f4167fbd3300aef49f2221457509af" target="_top" xlink:title="turtleClasses.Turtle.isShowing">
<polygon fill="white" stroke="black" points="647,-0.5 647,-19.5 805,-19.5 805,-0.5 647,-0.5"/>
<text text-anchor="middle" x="726" y="-7.5" font-family="Helvetica,sans-Serif" font-size="10.00">turtleClasses.Turtle.isShowing</text>
</a>
</g>
</g>
<!-- Node15&#45;&gt;Node21 -->
<g id="edge20" class="edge"><title>Node15&#45;&gt;Node21</title>
<path fill="none" stroke="midnightblue" d="M588.76,-164.371C594.308,-161.618 599.483,-158.208 604,-154 646.301,-114.591 597.902,-68.6253 640,-29 641.528,-27.562 643.14,-26.2241 644.822,-24.9796"/>
<polygon fill="midnightblue" stroke="midnightblue" points="647.059,-27.7136 653.758,-19.5051 643.402,-21.7446 647.059,-27.7136"/>
</g>
</g>
</svg>
        <g id="navigator" transform="translate(0 0)" fill="#404254">
                <rect fill="#f2f5e9" fill-opacity="0.5" stroke="#606060" stroke-width=".5" x="0" y="0" width="60" height="60"/>
                <use id="zoomplus" xlink:href="#zoomPlus" x="17" y="9" onmousedown="handleZoom(evt,'in')"/>
                <use id="zoomminus" xlink:href="#zoomMin" x="42" y="9" onmousedown="handleZoom(evt,'out')"/>
                <use id="reset" xlink:href="#resetDef" x="30" y="36" onmousedown="handleReset()"/>
                <g id="arrowUp" xlink:href="#dirArrow" transform="translate(30 24)" onmousedown="handlePan(0,-1)">
                  <use xlink:href="#rim" fill="#404040">
                        <set attributeName="fill" to="#808080" begin="arrowUp.mouseover" end="arrowUp.mouseout"/>
                  </use>
                  <path fill="none" stroke="white" stroke-width="1.5" d="M0,-3.0v7 M-2.5,-0.5L0,-3.0L2.5,-0.5"/>
                </g>
                <g id="arrowRight" xlink:href="#dirArrow" transform="rotate(90) translate(36 -43)" onmousedown="handlePan(1,0)">
                  <use xlink:href="#rim" fill="#404040">
                        <set attributeName="fill" to="#808080" begin="arrowRight.mouseover" end="arrowRight.mouseout"/>
                  </use>
                  <path fill="none" stroke="white" stroke-width="1.5" d="M0,-3.0v7 M-2.5,-0.5L0,-3.0L2.5,-0.5"/>
                </g>
                <g id="arrowDown" xlink:href="#dirArrow" transform="rotate(180) translate(-30 -48)" onmousedown="handlePan(0,1)">
                  <use xlink:href="#rim" fill="#404040">
                        <set attributeName="fill" to="#808080" begin="arrowDown.mouseover" end="arrowDown.mouseout"/>
                  </use>
                  <path fill="none" stroke="white" stroke-width="1.5" d="M0,-3.0v7 M-2.5,-0.5L0,-3.0L2.5,-0.5"/>
                </g>
                <g id="arrowLeft" xlink:href="#dirArrow" transform="rotate(270) translate(-36 17)" onmousedown="handlePan(-1,0)">
                  <use xlink:href="#rim" fill="#404040">
                        <set attributeName="fill" to="#808080" begin="arrowLeft.mouseover" end="arrowLeft.mouseout"/>
                  </use>
                  <path fill="none" stroke="white" stroke-width="1.5" d="M0,-3.0v7 M-2.5,-0.5L0,-3.0L2.5,-0.5"/>
                </g>
        </g>
        <svg viewBox="0 0 15 15" width="100%" height="30px" preserveAspectRatio="xMaxYMin meet">
         <g id="arrow_out" transform="scale(0.3 0.3)">
          <a xlink:href="classfrontend_1_1_concrete_features_1_1_command_executer_a14b9b724db30e6cc89f62304f7bf40b2_cgraph_org.svg" target="_base">
           <rect id="button" ry="5" rx="5" y="6" x="6" height="38" width="38"
                fill="#f2f5e9" fill-opacity="0.5" stroke="#606060" stroke-width="1.0"/>
           <path id="arrow"
             d="M 11.500037,31.436501 C 11.940474,20.09759 22.043105,11.32322 32.158766,21.979434 L 37.068811,17.246167 C 37.068811,17.246167 37.088388,32 37.088388,32 L 22.160133,31.978069 C 22.160133,31.978069 26.997745,27.140456 26.997745,27.140456 C 18.528582,18.264221 13.291696,25.230495 11.500037,31.436501 z"
             style="fill:#404040;"/>
          </a>
         </g>
        </svg>
</svg>
