<?xml version="1.0" encoding="UTF-8" standalone="no"?>
<!DOCTYPE svg PUBLIC "-//W3C//DTD SVG 1.1//EN"
 "http://www.w3.org/Graphics/SVG/1.1/DTD/svg11.dtd">
<!-- Generated by graphviz version 2.36.0 (20140111.2315)
 -->
<!-- Title: main.Initializer.start Pages: 1 -->
<svg width="502pt" height="38pt"
 viewBox="0.00 0.00 502.00 38.00" xmlns="http://www.w3.org/2000/svg" xmlns:xlink="http://www.w3.org/1999/xlink">
<g id="graph0" class="graph" transform="scale(1 1) rotate(0) translate(4 34)">
<title>main.Initializer.start</title>
<polygon fill="white" stroke="none" points="-4,4 -4,-34 498,-34 498,4 -4,4"/>
<!-- Node1 -->
<g id="node1" class="node"><title>Node1</title>
<polygon fill="#bfbfbf" stroke="black" points="0,-5.5 0,-24.5 110,-24.5 110,-5.5 0,-5.5"/>
<text text-anchor="middle" x="55" y="-12.5" font-family="Helvetica,sans-Serif" font-size="10.00">main.Initializer.start</text>
</g>
<!-- Node2 -->
<g id="node2" class="node"><title>Node2</title>
<g id="a_node2"><a xlink:href="../../d0/dc4/classfrontend_1_1_g_u_i_maker.html#a1472d2be1bf7a2a8e954e2f3c96dee99" target="_top" xlink:title="frontend.GUIMaker.make">
<polygon fill="white" stroke="black" points="146,-5.5 146,-24.5 282,-24.5 282,-5.5 146,-5.5"/>
<text text-anchor="middle" x="214" y="-12.5" font-family="Helvetica,sans-Serif" font-size="10.00">frontend.GUIMaker.make</text>
</a>
</g>
</g>
<!-- Node1&#45;&gt;Node2 -->
<g id="edge1" class="edge"><title>Node1&#45;&gt;Node2</title>
<path fill="none" stroke="midnightblue" d="M110.03,-15C118.318,-15 127.011,-15 135.684,-15"/>
<polygon fill="midnightblue" stroke="midnightblue" points="135.831,-18.5001 145.831,-15 135.831,-11.5001 135.831,-18.5001"/>
</g>
<!-- Node3 -->
<g id="node3" class="node"><title>Node3</title>
<g id="a_node3"><a xlink:href="../../df/de4/classfrontend_1_1_s_logo_workspace.html#a80ce8f0c42c40fbb7ac2f94ba0d9ac68" target="_top" xlink:title="frontend.SLogoWorkspace.create\lWorkspace">
<polygon fill="white" stroke="black" points="318.5,-0 318.5,-30 493.5,-30 493.5,-0 318.5,-0"/>
<text text-anchor="start" x="326.5" y="-18" font-family="Helvetica,sans-Serif" font-size="10.00">frontend.SLogoWorkspace.create</text>
<text text-anchor="middle" x="406" y="-7" font-family="Helvetica,sans-Serif" font-size="10.00">Workspace</text>
</a>
</g>
</g>
<!-- Node2&#45;&gt;Node3 -->
<g id="edge2" class="edge"><title>Node2&#45;&gt;Node3</title>
<path fill="none" stroke="midnightblue" d="M282.254,-15C290.618,-15 299.295,-15 307.996,-15"/>
<polygon fill="midnightblue" stroke="midnightblue" points="308.202,-18.5001 318.202,-15 308.202,-11.5001 308.202,-18.5001"/>
</g>
</g>
</svg>
