<?xml version="1.0" encoding="UTF-8" standalone="no"?>
<!DOCTYPE svg PUBLIC "-//W3C//DTD SVG 1.1//EN"
 "http://www.w3.org/Graphics/SVG/1.1/DTD/svg11.dtd">
<!-- Generated by graphviz version 2.36.0 (20140111.2315)
 -->
<!-- Title: expressionTree.VariableNodeMap.getVariable Pages: 1 -->
<svg width="964pt" height="126pt"
 viewBox="0.00 0.00 964.00 126.00" xmlns="http://www.w3.org/2000/svg" xmlns:xlink="http://www.w3.org/1999/xlink">
<g id="graph0" class="graph" transform="scale(1 1) rotate(0) translate(4 122)">
<title>expressionTree.VariableNodeMap.getVariable</title>
<polygon fill="white" stroke="none" points="-4,4 -4,-122 960,-122 960,4 -4,4"/>
<!-- Node1 -->
<g id="node1" class="node"><title>Node1</title>
<polygon fill="#bfbfbf" stroke="black" points="0.5,-49 0.5,-79 155.5,-79 155.5,-49 0.5,-49"/>
<text text-anchor="start" x="8.5" y="-67" font-family="Helvetica,sans-Serif" font-size="10.00">expressionTree.VariableNode</text>
<text text-anchor="middle" x="78" y="-56" font-family="Helvetica,sans-Serif" font-size="10.00">Map.getVariable</text>
</g>
<!-- Node2 -->
<g id="node2" class="node"><title>Node2</title>
<g id="a_node2"><a xlink:href="../../d8/dae/classsave_1_1load_1_1_file_writer.html#a171559cd21a6ba4fb1261a126a7b9118" target="_top" xlink:title="save.load.FileWriter.main">
<polygon fill="white" stroke="black" points="221,-98.5 221,-117.5 355,-117.5 355,-98.5 221,-98.5"/>
<text text-anchor="middle" x="288" y="-105.5" font-family="Helvetica,sans-Serif" font-size="10.00">save.load.FileWriter.main</text>
</a>
</g>
</g>
<!-- Node1&#45;&gt;Node2 -->
<g id="edge1" class="edge"><title>Node1&#45;&gt;Node2</title>
<path fill="none" stroke="midnightblue" d="M159.729,-81.1642C170.577,-83.4653 181.559,-85.7922 192,-88 208.16,-91.4172 225.87,-95.149 241.574,-98.4538"/>
<polygon fill="midnightblue" stroke="midnightblue" points="160.332,-77.7144 149.823,-79.0624 158.879,-84.562 160.332,-77.7144"/>
</g>
<!-- Node3 -->
<g id="node3" class="node"><title>Node3</title>
<g id="a_node3"><a xlink:href="../../d3/d3b/classfrontend_1_1_concrete_features_1_1_current_variables_window.html#a88b7dc03391021e9db2c2ba531ec3898" target="_top" xlink:title="frontend.ConcreteFeatures.\lCurrentVariablesWindow.updatePane">
<polygon fill="white" stroke="black" points="192.5,-49 192.5,-79 383.5,-79 383.5,-49 192.5,-49"/>
<text text-anchor="start" x="200.5" y="-67" font-family="Helvetica,sans-Serif" font-size="10.00">frontend.ConcreteFeatures.</text>
<text text-anchor="middle" x="288" y="-56" font-family="Helvetica,sans-Serif" font-size="10.00">CurrentVariablesWindow.updatePane</text>
</a>
</g>
</g>
<!-- Node1&#45;&gt;Node3 -->
<g id="edge2" class="edge"><title>Node1&#45;&gt;Node3</title>
<path fill="none" stroke="midnightblue" d="M165.74,-64C174.486,-64 183.399,-64 192.223,-64"/>
<polygon fill="midnightblue" stroke="midnightblue" points="165.565,-60.5001 155.565,-64 165.565,-67.5001 165.565,-60.5001"/>
</g>
<!-- Node4 -->
<g id="node4" class="node"><title>Node4</title>
<g id="a_node4"><a xlink:href="../../d9/d55/classexpression_tree_1_1_expression_node_factory.html#a86a92afa63db312f07027af114f3d663" target="_top" xlink:title="expressionTree.Expression\lNodeFactory.variableHandler">
<polygon fill="white" stroke="black" points="211.5,-0 211.5,-30 364.5,-30 364.5,-0 211.5,-0"/>
<text text-anchor="start" x="219.5" y="-18" font-family="Helvetica,sans-Serif" font-size="10.00">expressionTree.Expression</text>
<text text-anchor="middle" x="288" y="-7" font-family="Helvetica,sans-Serif" font-size="10.00">NodeFactory.variableHandler</text>
</a>
</g>
</g>
<!-- Node1&#45;&gt;Node4 -->
<g id="edge3" class="edge"><title>Node1&#45;&gt;Node4</title>
<path fill="none" stroke="midnightblue" d="M152.568,-46.6691C175.661,-41.2288 200.95,-35.2715 223.3,-30.0062"/>
<polygon fill="midnightblue" stroke="midnightblue" points="151.751,-43.2656 142.82,-48.9654 153.357,-50.0791 151.751,-43.2656"/>
</g>
<!-- Node5 -->
<g id="node5" class="node"><title>Node5</title>
<g id="a_node5"><a xlink:href="../../d9/d55/classexpression_tree_1_1_expression_node_factory.html#a73b0e0bd339ff858fcb0c2daf891cc59" target="_top" xlink:title="expressionTree.Expression\lNodeFactory.getNode">
<polygon fill="white" stroke="black" points="420.5,-0 420.5,-30 563.5,-30 563.5,-0 420.5,-0"/>
<text text-anchor="start" x="428.5" y="-18" font-family="Helvetica,sans-Serif" font-size="10.00">expressionTree.Expression</text>
<text text-anchor="middle" x="492" y="-7" font-family="Helvetica,sans-Serif" font-size="10.00">NodeFactory.getNode</text>
</a>
</g>
</g>
<!-- Node4&#45;&gt;Node5 -->
<g id="edge4" class="edge"><title>Node4&#45;&gt;Node5</title>
<path fill="none" stroke="midnightblue" d="M374.888,-15C390.017,-15 405.609,-15 420.264,-15"/>
<polygon fill="midnightblue" stroke="midnightblue" points="374.505,-11.5001 364.505,-15 374.505,-18.5001 374.505,-11.5001"/>
</g>
<!-- Node6 -->
<g id="node6" class="node"><title>Node6</title>
<g id="a_node6"><a xlink:href="../../d9/d55/classexpression_tree_1_1_expression_node_factory.html#ac3b2de675f1754dfd61694de51553631" target="_top" xlink:title="expressionTree.Expression\lNodeFactory.getAllNodes">
<polygon fill="white" stroke="black" points="600.5,-0 600.5,-30 743.5,-30 743.5,-0 600.5,-0"/>
<text text-anchor="start" x="608.5" y="-18" font-family="Helvetica,sans-Serif" font-size="10.00">expressionTree.Expression</text>
<text text-anchor="middle" x="672" y="-7" font-family="Helvetica,sans-Serif" font-size="10.00">NodeFactory.getAllNodes</text>
</a>
</g>
</g>
<!-- Node5&#45;&gt;Node6 -->
<g id="edge5" class="edge"><title>Node5&#45;&gt;Node6</title>
<path fill="none" stroke="midnightblue" d="M573.646,-15C582.599,-15 591.666,-15 600.479,-15"/>
<polygon fill="midnightblue" stroke="midnightblue" points="573.606,-11.5001 563.606,-15 573.606,-18.5001 573.606,-11.5001"/>
</g>
<!-- Node7 -->
<g id="node7" class="node"><title>Node7</title>
<g id="a_node7"><a xlink:href="../../d3/dfb/classexpression_tree_1_1_expression_tree_builder.html#ab3c3bc68ab96d1cd026bc68a7b329f92" target="_top" xlink:title="expressionTree.Expression\lTreeBuilder.ExpressionTreeBuilder">
<polygon fill="white" stroke="black" points="780,-0 780,-30 956,-30 956,-0 780,-0"/>
<text text-anchor="start" x="788" y="-18" font-family="Helvetica,sans-Serif" font-size="10.00">expressionTree.Expression</text>
<text text-anchor="middle" x="868" y="-7" font-family="Helvetica,sans-Serif" font-size="10.00">TreeBuilder.ExpressionTreeBuilder</text>
</a>
</g>
</g>
<!-- Node6&#45;&gt;Node7 -->
<g id="edge6" class="edge"><title>Node6&#45;&gt;Node7</title>
<path fill="none" stroke="midnightblue" d="M753.668,-15C762.34,-15 771.191,-15 779.934,-15"/>
<polygon fill="midnightblue" stroke="midnightblue" points="753.587,-11.5001 743.587,-15 753.587,-18.5001 753.587,-11.5001"/>
</g>
</g>
</svg>
