<?xml version="1.0" encoding="UTF-8" standalone="no"?>
<!DOCTYPE svg PUBLIC "-//W3C//DTD SVG 1.1//EN"
 "http://www.w3.org/Graphics/SVG/1.1/DTD/svg11.dtd">
<!-- Generated by graphviz version 2.36.0 (20140111.2315)
 -->
<!-- Title: expressionTree.VariableNodeMap.applyLoadedMap Pages: 1 -->
<svg width="572pt" height="87pt"
 viewBox="0.00 0.00 572.00 87.00" xmlns="http://www.w3.org/2000/svg" xmlns:xlink="http://www.w3.org/1999/xlink">
<g id="graph0" class="graph" transform="scale(1 1) rotate(0) translate(4 83)">
<title>expressionTree.VariableNodeMap.applyLoadedMap</title>
<polygon fill="white" stroke="none" points="-4,4 -4,-83 568,-83 568,4 -4,4"/>
<!-- Node1 -->
<g id="node1" class="node"><title>Node1</title>
<polygon fill="#bfbfbf" stroke="black" points="0.5,-24 0.5,-54 155.5,-54 155.5,-24 0.5,-24"/>
<text text-anchor="start" x="8.5" y="-42" font-family="Helvetica,sans-Serif" font-size="10.00">expressionTree.VariableNode</text>
<text text-anchor="middle" x="78" y="-31" font-family="Helvetica,sans-Serif" font-size="10.00">Map.applyLoadedMap</text>
</g>
<!-- Node2 -->
<g id="node2" class="node"><title>Node2</title>
<g id="a_node2"><a xlink:href="../../d8/dae/classsave_1_1load_1_1_file_writer.html#a07ea7e1a48782df66b6ec1ac8ed08b93" target="_top" xlink:title="save.load.FileWriter.read\lFromFile">
<polygon fill="white" stroke="black" points="220.5,-49 220.5,-79 351.5,-79 351.5,-49 220.5,-49"/>
<text text-anchor="start" x="228.5" y="-67" font-family="Helvetica,sans-Serif" font-size="10.00">save.load.FileWriter.read</text>
<text text-anchor="middle" x="286" y="-56" font-family="Helvetica,sans-Serif" font-size="10.00">FromFile</text>
</a>
</g>
</g>
<!-- Node1&#45;&gt;Node2 -->
<g id="edge1" class="edge"><title>Node1&#45;&gt;Node2</title>
<path fill="none" stroke="midnightblue" d="M165.783,-49.5319C184.076,-51.752 203.07,-54.057 220.377,-56.1574"/>
<polygon fill="midnightblue" stroke="midnightblue" points="166.056,-46.0394 155.707,-48.3091 165.212,-52.9884 166.056,-46.0394"/>
</g>
<!-- Node4 -->
<g id="node4" class="node"><title>Node4</title>
<g id="a_node4"><a xlink:href="../../d5/d5c/classsave_1_1load_1_1_custom_reader_writer.html#aa7470e6e6936ac7311b45602d2aca763" target="_top" xlink:title="save.load.CustomReaderWriter.read\lFromFile">
<polygon fill="white" stroke="black" points="192.5,-0 192.5,-30 379.5,-30 379.5,-0 192.5,-0"/>
<text text-anchor="start" x="200.5" y="-18" font-family="Helvetica,sans-Serif" font-size="10.00">save.load.CustomReaderWriter.read</text>
<text text-anchor="middle" x="286" y="-7" font-family="Helvetica,sans-Serif" font-size="10.00">FromFile</text>
</a>
</g>
</g>
<!-- Node1&#45;&gt;Node4 -->
<g id="edge3" class="edge"><title>Node1&#45;&gt;Node4</title>
<path fill="none" stroke="midnightblue" d="M165.848,-28.8818C174.562,-27.8665 183.435,-26.8329 192.207,-25.8108"/>
<polygon fill="midnightblue" stroke="midnightblue" points="165.235,-25.4295 155.707,-30.0633 166.045,-32.3825 165.235,-25.4295"/>
</g>
<!-- Node3 -->
<g id="node3" class="node"><title>Node3</title>
<g id="a_node3"><a xlink:href="../../d8/dae/classsave_1_1load_1_1_file_writer.html#a171559cd21a6ba4fb1261a126a7b9118" target="_top" xlink:title="save.load.FileWriter.main">
<polygon fill="white" stroke="black" points="423,-54.5 423,-73.5 557,-73.5 557,-54.5 423,-54.5"/>
<text text-anchor="middle" x="490" y="-61.5" font-family="Helvetica,sans-Serif" font-size="10.00">save.load.FileWriter.main</text>
</a>
</g>
</g>
<!-- Node2&#45;&gt;Node3 -->
<g id="edge2" class="edge"><title>Node2&#45;&gt;Node3</title>
<path fill="none" stroke="midnightblue" d="M361.765,-64C381.813,-64 403.342,-64 422.884,-64"/>
<polygon fill="midnightblue" stroke="midnightblue" points="361.748,-60.5001 351.748,-64 361.748,-67.5001 361.748,-60.5001"/>
</g>
<!-- Node5 -->
<g id="node5" class="node"><title>Node5</title>
<g id="a_node5"><a xlink:href="../../d9/d35/classfrontend_1_1_concrete_features_1_1_load_variables_button.html#a6c33614e2366ea92f0da2cf0ba06095f" target="_top" xlink:title="frontend.ConcreteFeatures.\lLoadVariablesButton.action">
<polygon fill="white" stroke="black" points="416,-0 416,-30 564,-30 564,-0 416,-0"/>
<text text-anchor="start" x="424" y="-18" font-family="Helvetica,sans-Serif" font-size="10.00">frontend.ConcreteFeatures.</text>
<text text-anchor="middle" x="490" y="-7" font-family="Helvetica,sans-Serif" font-size="10.00">LoadVariablesButton.action</text>
</a>
</g>
</g>
<!-- Node4&#45;&gt;Node5 -->
<g id="edge4" class="edge"><title>Node4&#45;&gt;Node5</title>
<path fill="none" stroke="midnightblue" d="M389.984,-15C398.731,-15 407.457,-15 415.902,-15"/>
<polygon fill="midnightblue" stroke="midnightblue" points="389.723,-11.5001 379.723,-15 389.723,-18.5001 389.723,-11.5001"/>
</g>
</g>
</svg>
