<?xml version="1.0" encoding="UTF-8" standalone="no"?>
<!DOCTYPE svg PUBLIC "-//W3C//DTD SVG 1.1//EN"
 "http://www.w3.org/Graphics/SVG/1.1/DTD/svg11.dtd">
<!-- Generated by graphviz version 2.36.0 (20140111.2315)
 -->
<!-- Title: expressionTree.VariableNodeMap.getVariableNodeMap Pages: 1 -->
<svg width="578pt" height="259pt"
 viewBox="0.00 0.00 578.00 259.31" xmlns="http://www.w3.org/2000/svg" xmlns:xlink="http://www.w3.org/1999/xlink">
<g id="graph0" class="graph" transform="scale(1 1) rotate(0) translate(4 255.307)">
<title>expressionTree.VariableNodeMap.getVariableNodeMap</title>
<polygon fill="white" stroke="none" points="-4,4 -4,-255.307 574,-255.307 574,4 -4,4"/>
<!-- Node1 -->
<g id="node1" class="node"><title>Node1</title>
<polygon fill="#bfbfbf" stroke="black" points="0.5,-122 0.5,-152 155.5,-152 155.5,-122 0.5,-122"/>
<text text-anchor="start" x="8.5" y="-140" font-family="Helvetica,sans-Serif" font-size="10.00">expressionTree.VariableNode</text>
<text text-anchor="middle" x="78" y="-129" font-family="Helvetica,sans-Serif" font-size="10.00">Map.getVariableNodeMap</text>
</g>
<!-- Node2 -->
<g id="node2" class="node"><title>Node2</title>
<g id="a_node2"><a xlink:href="../../d8/dae/classsave_1_1load_1_1_file_writer.html#a171559cd21a6ba4fb1261a126a7b9118" target="_top" xlink:title="save.load.FileWriter.main">
<polygon fill="white" stroke="black" points="428,-201.5 428,-220.5 562,-220.5 562,-201.5 428,-201.5"/>
<text text-anchor="middle" x="495" y="-208.5" font-family="Helvetica,sans-Serif" font-size="10.00">save.load.FileWriter.main</text>
</a>
</g>
</g>
<!-- Node1&#45;&gt;Node2 -->
<g id="edge1" class="edge"><title>Node1&#45;&gt;Node2</title>
<path fill="none" stroke="midnightblue" d="M96.9443,-160.236C117.076,-184.21 152.174,-220.136 192,-235 288.088,-270.862 413.017,-238.165 467.098,-220.547"/>
<polygon fill="midnightblue" stroke="midnightblue" points="99.5031,-157.836 90.4644,-152.308 94.0834,-162.266 99.5031,-157.836"/>
</g>
<!-- Node3 -->
<g id="node3" class="node"><title>Node3</title>
<g id="a_node3"><a xlink:href="../../d8/dae/classsave_1_1load_1_1_file_writer.html#a07ea7e1a48782df66b6ec1ac8ed08b93" target="_top" xlink:title="save.load.FileWriter.read\lFromFile">
<polygon fill="white" stroke="black" points="222.5,-196 222.5,-226 353.5,-226 353.5,-196 222.5,-196"/>
<text text-anchor="start" x="230.5" y="-214" font-family="Helvetica,sans-Serif" font-size="10.00">save.load.FileWriter.read</text>
<text text-anchor="middle" x="288" y="-203" font-family="Helvetica,sans-Serif" font-size="10.00">FromFile</text>
</a>
</g>
</g>
<!-- Node1&#45;&gt;Node3 -->
<g id="edge2" class="edge"><title>Node1&#45;&gt;Node3</title>
<path fill="none" stroke="midnightblue" d="M119.518,-156.35C140.79,-166.05 167.468,-177.508 192,-186 202.314,-189.57 213.409,-192.918 224.249,-195.931"/>
<polygon fill="midnightblue" stroke="midnightblue" points="120.699,-153.04 110.153,-152.033 117.769,-159.397 120.699,-153.04"/>
</g>
<!-- Node4 -->
<g id="node4" class="node"><title>Node4</title>
<g id="a_node4"><a xlink:href="../../d5/d5c/classsave_1_1load_1_1_custom_reader_writer.html#aa7470e6e6936ac7311b45602d2aca763" target="_top" xlink:title="save.load.CustomReaderWriter.read\lFromFile">
<polygon fill="white" stroke="black" points="194.5,-49 194.5,-79 381.5,-79 381.5,-49 194.5,-49"/>
<text text-anchor="start" x="202.5" y="-67" font-family="Helvetica,sans-Serif" font-size="10.00">save.load.CustomReaderWriter.read</text>
<text text-anchor="middle" x="288" y="-56" font-family="Helvetica,sans-Serif" font-size="10.00">FromFile</text>
</a>
</g>
</g>
<!-- Node1&#45;&gt;Node4 -->
<g id="edge4" class="edge"><title>Node1&#45;&gt;Node4</title>
<path fill="none" stroke="midnightblue" d="M119.484,-117.55C140.746,-107.822 167.426,-96.3706 192,-88 201.501,-84.7638 211.668,-81.7445 221.69,-79.014"/>
<polygon fill="midnightblue" stroke="midnightblue" points="117.729,-114.505 110.123,-121.881 120.668,-120.858 117.729,-114.505"/>
</g>
<!-- Node6 -->
<g id="node6" class="node"><title>Node6</title>
<g id="a_node6"><a xlink:href="../../d3/d3b/classfrontend_1_1_concrete_features_1_1_current_variables_window.html#a88b7dc03391021e9db2c2ba531ec3898" target="_top" xlink:title="frontend.ConcreteFeatures.\lCurrentVariablesWindow.updatePane">
<polygon fill="white" stroke="black" points="192.5,-98 192.5,-128 383.5,-128 383.5,-98 192.5,-98"/>
<text text-anchor="start" x="200.5" y="-116" font-family="Helvetica,sans-Serif" font-size="10.00">frontend.ConcreteFeatures.</text>
<text text-anchor="middle" x="288" y="-105" font-family="Helvetica,sans-Serif" font-size="10.00">CurrentVariablesWindow.updatePane</text>
</a>
</g>
</g>
<!-- Node1&#45;&gt;Node6 -->
<g id="edge6" class="edge"><title>Node1&#45;&gt;Node6</title>
<path fill="none" stroke="midnightblue" d="M165.74,-126.992C174.486,-125.982 183.399,-124.954 192.223,-123.936"/>
<polygon fill="midnightblue" stroke="midnightblue" points="165.098,-123.542 155.565,-128.166 165.901,-130.496 165.098,-123.542"/>
</g>
<!-- Node7 -->
<g id="node7" class="node"><title>Node7</title>
<g id="a_node7"><a xlink:href="../../d8/dae/classsave_1_1load_1_1_file_writer.html#a60b6f2a1f12cf993e2dded94c9fe05a2" target="_top" xlink:title="save.load.FileWriter.write\lToFile">
<polygon fill="white" stroke="black" points="222,-147 222,-177 354,-177 354,-147 222,-147"/>
<text text-anchor="start" x="230" y="-165" font-family="Helvetica,sans-Serif" font-size="10.00">save.load.FileWriter.write</text>
<text text-anchor="middle" x="288" y="-154" font-family="Helvetica,sans-Serif" font-size="10.00">ToFile</text>
</a>
</g>
</g>
<!-- Node1&#45;&gt;Node7 -->
<g id="edge7" class="edge"><title>Node1&#45;&gt;Node7</title>
<path fill="none" stroke="midnightblue" d="M165.624,-147.411C184.447,-149.674 204.051,-152.03 221.876,-154.173"/>
<polygon fill="midnightblue" stroke="midnightblue" points="165.912,-143.921 155.565,-146.203 165.076,-150.871 165.912,-143.921"/>
</g>
<!-- Node8 -->
<g id="node8" class="node"><title>Node8</title>
<g id="a_node8"><a xlink:href="../../d5/d5c/classsave_1_1load_1_1_custom_reader_writer.html#ad71853d99efbc2b4eb909d2b1811ec56" target="_top" xlink:title="save.load.CustomReaderWriter.write\lToFile">
<polygon fill="white" stroke="black" points="194,-0 194,-30 382,-30 382,-0 194,-0"/>
<text text-anchor="start" x="202" y="-18" font-family="Helvetica,sans-Serif" font-size="10.00">save.load.CustomReaderWriter.write</text>
<text text-anchor="middle" x="288" y="-7" font-family="Helvetica,sans-Serif" font-size="10.00">ToFile</text>
</a>
</g>
</g>
<!-- Node1&#45;&gt;Node8 -->
<g id="edge9" class="edge"><title>Node1&#45;&gt;Node8</title>
<path fill="none" stroke="midnightblue" d="M98.8153,-114.526C119.789,-92.1226 154.931,-58.3431 192,-39 198.485,-35.6161 205.472,-32.6918 212.609,-30.1682"/>
<polygon fill="midnightblue" stroke="midnightblue" points="96.1971,-112.203 92.0075,-121.934 101.351,-116.94 96.1971,-112.203"/>
</g>
<!-- Node3&#45;&gt;Node2 -->
<g id="edge3" class="edge"><title>Node3&#45;&gt;Node2</title>
<path fill="none" stroke="midnightblue" d="M363.753,-211C384.783,-211 407.498,-211 427.978,-211"/>
<polygon fill="midnightblue" stroke="midnightblue" points="363.582,-207.5 353.582,-211 363.582,-214.5 363.582,-207.5"/>
</g>
<!-- Node5 -->
<g id="node5" class="node"><title>Node5</title>
<g id="a_node5"><a xlink:href="../../d9/d35/classfrontend_1_1_concrete_features_1_1_load_variables_button.html#a6c33614e2366ea92f0da2cf0ba06095f" target="_top" xlink:title="frontend.ConcreteFeatures.\lLoadVariablesButton.action">
<polygon fill="white" stroke="black" points="421,-49 421,-79 569,-79 569,-49 421,-49"/>
<text text-anchor="start" x="429" y="-67" font-family="Helvetica,sans-Serif" font-size="10.00">frontend.ConcreteFeatures.</text>
<text text-anchor="middle" x="495" y="-56" font-family="Helvetica,sans-Serif" font-size="10.00">LoadVariablesButton.action</text>
</a>
</g>
</g>
<!-- Node4&#45;&gt;Node5 -->
<g id="edge5" class="edge"><title>Node4&#45;&gt;Node5</title>
<path fill="none" stroke="midnightblue" d="M391.809,-64C401.615,-64 411.417,-64 420.856,-64"/>
<polygon fill="midnightblue" stroke="midnightblue" points="391.604,-60.5001 381.604,-64 391.604,-67.5001 391.604,-60.5001"/>
</g>
<!-- Node7&#45;&gt;Node2 -->
<g id="edge8" class="edge"><title>Node7&#45;&gt;Node2</title>
<path fill="none" stroke="midnightblue" d="M361.831,-179.408C392.898,-186.834 427.944,-195.211 454.138,-201.472"/>
<polygon fill="midnightblue" stroke="midnightblue" points="362.44,-175.955 351.9,-177.035 360.812,-182.764 362.44,-175.955"/>
</g>
<!-- Node9 -->
<g id="node9" class="node"><title>Node9</title>
<g id="a_node9"><a xlink:href="../../da/dc2/classfrontend_1_1_concrete_features_1_1_save_variables_button.html#abf3b7e14025dae885127328774c2eb2c" target="_top" xlink:title="frontend.ConcreteFeatures.\lSaveVariablesButton.action">
<polygon fill="white" stroke="black" points="420.5,-0 420.5,-30 569.5,-30 569.5,-0 420.5,-0"/>
<text text-anchor="start" x="428.5" y="-18" font-family="Helvetica,sans-Serif" font-size="10.00">frontend.ConcreteFeatures.</text>
<text text-anchor="middle" x="495" y="-7" font-family="Helvetica,sans-Serif" font-size="10.00">SaveVariablesButton.action</text>
</a>
</g>
</g>
<!-- Node8&#45;&gt;Node9 -->
<g id="edge10" class="edge"><title>Node8&#45;&gt;Node9</title>
<path fill="none" stroke="midnightblue" d="M392.427,-15C401.86,-15 411.282,-15 420.374,-15"/>
<polygon fill="midnightblue" stroke="midnightblue" points="392.202,-11.5001 382.202,-15 392.202,-18.5001 392.202,-11.5001"/>
</g>
</g>
</svg>
