<?xml version="1.0" encoding="UTF-8" standalone="no"?>
<!DOCTYPE svg PUBLIC "-//W3C//DTD SVG 1.1//EN"
 "http://www.w3.org/Graphics/SVG/1.1/DTD/svg11.dtd">
<!-- Generated by graphviz version 2.36.0 (20140111.2315)
 -->
<!-- Title: expressionTree.VariableNodeMap.addVariable Pages: 1 -->
<!--zoomable 126 -->
<svg id="main" version="1.1" xmlns="http://www.w3.org/2000/svg" xmlns:xlink="http://www.w3.org/1999/xlink" xml:space="preserve" onload="init(evt)">
<style type="text/css"><![CDATA[
.edge:hover path { stroke: red; }
.edge:hover polygon { stroke: red; fill: red; }
]]></style>
<script type="text/javascript"><![CDATA[
var edges = document.getElementsByTagName('g');
if (edges && edges.length) {
  for (var i=0;i<edges.length;i++) {
    if (edges[i].id.substr(0,4)=='edge') {
      edges[i].setAttribute('class','edge');
    }
  }
}
]]></script>
        <defs>
                <circle id="rim" cx="0" cy="0" r="7"/>
                <circle id="rim2" cx="0" cy="0" r="3.5"/>
                <g id="zoomPlus">
                        <use xlink:href="#rim" fill="#404040">
                                <set attributeName="fill" to="#808080" begin="zoomplus.mouseover" end="zoomplus.mouseout"/>
                        </use>
                        <path d="M-4,0h8M0,-4v8" fill="none" stroke="white" stroke-width="1.5" pointer-events="none"/>
                </g>
                <g id="zoomMin">
                        <use xlink:href="#rim" fill="#404040">
                                <set attributeName="fill" to="#808080" begin="zoomminus.mouseover" end="zoomminus.mouseout"/>
                        </use>
                        <path d="M-4,0h8" fill="none" stroke="white" stroke-width="1.5" pointer-events="none"/>
                </g>
                <g id="dirArrow">
                        <path fill="none" stroke="white" stroke-width="1.5" d="M0,-3.0v7 M-2.5,-0.5L0,-3.0L2.5,-0.5"/>
                </g>
               <g id="resetDef">
                       <use xlink:href="#rim2" fill="#404040">
                               <set attributeName="fill" to="#808080" begin="reset.mouseover" end="reset.mouseout"/>
                       </use>
               </g>
        </defs>

<script type="text/javascript">
var viewWidth = 1156;
var viewHeight = 126;
var sectionId = 'dynsection-2';
</script>
<script xlink:href="../../svgpan.js"/>
<svg id="graph" class="graph">
<g id="viewport">
<title>expressionTree.VariableNodeMap.addVariable</title>
<polygon fill="white" stroke="none" points="-4,4 -4,-122 1152,-122 1152,4 -4,4"/>
<!-- Node1 -->
<g id="node1" class="node"><title>Node1</title>
<polygon fill="#bfbfbf" stroke="black" points="0.5,-39 0.5,-69 155.5,-69 155.5,-39 0.5,-39"/>
<text text-anchor="start" x="8.5" y="-57" font-family="Helvetica,sans-Serif" font-size="10.00">expressionTree.VariableNode</text>
<text text-anchor="middle" x="78" y="-46" font-family="Helvetica,sans-Serif" font-size="10.00">Map.addVariable</text>
</g>
<!-- Node2 -->
<g id="node2" class="node"><title>Node2</title>
<g id="a_node2"><a xlink:href="../../de/d4e/classexpression_tree_1_1_variable_node_map.html#a4855134d1fd875836c2c9944ec2079f4" target="_top" xlink:title="expressionTree.VariableNode\lMap.getVariable">
<polygon fill="white" stroke="black" points="192.5,-39 192.5,-69 347.5,-69 347.5,-39 192.5,-39"/>
<text text-anchor="start" x="200.5" y="-57" font-family="Helvetica,sans-Serif" font-size="10.00">expressionTree.VariableNode</text>
<text text-anchor="middle" x="270" y="-46" font-family="Helvetica,sans-Serif" font-size="10.00">Map.getVariable</text>
</a>
</g>
</g>
<!-- Node1&#45;&gt;Node2 -->
<g id="edge1" class="edge"><title>Node1&#45;&gt;Node2</title>
<path fill="none" stroke="midnightblue" d="M165.978,-54C174.758,-54 183.629,-54 192.29,-54"/>
<polygon fill="midnightblue" stroke="midnightblue" points="165.733,-50.5001 155.733,-54 165.733,-57.5001 165.733,-50.5001"/>
</g>
<!-- Node3 -->
<g id="node3" class="node"><title>Node3</title>
<g id="a_node3"><a xlink:href="../../d9/d55/classexpression_tree_1_1_expression_node_factory.html#a86a92afa63db312f07027af114f3d663" target="_top" xlink:title="expressionTree.Expression\lNodeFactory.variableHandler">
<polygon fill="white" stroke="black" points="403.5,-88 403.5,-118 556.5,-118 556.5,-88 403.5,-88"/>
<text text-anchor="start" x="411.5" y="-106" font-family="Helvetica,sans-Serif" font-size="10.00">expressionTree.Expression</text>
<text text-anchor="middle" x="480" y="-95" font-family="Helvetica,sans-Serif" font-size="10.00">NodeFactory.variableHandler</text>
</a>
</g>
</g>
<!-- Node2&#45;&gt;Node3 -->
<g id="edge2" class="edge"><title>Node2&#45;&gt;Node3</title>
<path fill="none" stroke="midnightblue" d="M344.568,-71.3309C367.661,-76.7712 392.95,-82.7285 415.3,-87.9938"/>
<polygon fill="midnightblue" stroke="midnightblue" points="345.357,-67.9209 334.82,-69.0346 343.751,-74.7344 345.357,-67.9209"/>
</g>
<!-- Node7 -->
<g id="node7" class="node"><title>Node7</title>
<g id="a_node7"><a xlink:href="../../d3/d3b/classfrontend_1_1_concrete_features_1_1_current_variables_window.html#a88b7dc03391021e9db2c2ba531ec3898" target="_top" xlink:title="frontend.ConcreteFeatures.\lCurrentVariablesWindow.updatePane">
<polygon fill="white" stroke="black" points="384.5,-39 384.5,-69 575.5,-69 575.5,-39 384.5,-39"/>
<text text-anchor="start" x="392.5" y="-57" font-family="Helvetica,sans-Serif" font-size="10.00">frontend.ConcreteFeatures.</text>
<text text-anchor="middle" x="480" y="-46" font-family="Helvetica,sans-Serif" font-size="10.00">CurrentVariablesWindow.updatePane</text>
</a>
</g>
</g>
<!-- Node2&#45;&gt;Node7 -->
<g id="edge6" class="edge"><title>Node2&#45;&gt;Node7</title>
<path fill="none" stroke="midnightblue" d="M357.74,-54C366.486,-54 375.399,-54 384.223,-54"/>
<polygon fill="midnightblue" stroke="midnightblue" points="357.565,-50.5001 347.565,-54 357.565,-57.5001 357.565,-50.5001"/>
</g>
<!-- Node8 -->
<g id="node8" class="node"><title>Node8</title>
<g id="a_node8"><a xlink:href="../../d8/dae/classsave_1_1load_1_1_file_writer.html#a171559cd21a6ba4fb1261a126a7b9118" target="_top" xlink:title="save.load.FileWriter.main">
<polygon fill="white" stroke="black" points="413,-0.5 413,-19.5 547,-19.5 547,-0.5 413,-0.5"/>
<text text-anchor="middle" x="480" y="-7.5" font-family="Helvetica,sans-Serif" font-size="10.00">save.load.FileWriter.main</text>
</a>
</g>
</g>
<!-- Node2&#45;&gt;Node8 -->
<g id="edge7" class="edge"><title>Node2&#45;&gt;Node8</title>
<path fill="none" stroke="midnightblue" d="M351.729,-36.8358C362.577,-34.5347 373.559,-32.2078 384,-30 400.16,-26.5828 417.87,-22.851 433.574,-19.5462"/>
<polygon fill="midnightblue" stroke="midnightblue" points="350.879,-33.438 341.823,-38.9376 352.332,-40.2856 350.879,-33.438"/>
</g>
<!-- Node4 -->
<g id="node4" class="node"><title>Node4</title>
<g id="a_node4"><a xlink:href="../../d9/d55/classexpression_tree_1_1_expression_node_factory.html#a73b0e0bd339ff858fcb0c2daf891cc59" target="_top" xlink:title="expressionTree.Expression\lNodeFactory.getNode">
<polygon fill="white" stroke="black" points="612.5,-88 612.5,-118 755.5,-118 755.5,-88 612.5,-88"/>
<text text-anchor="start" x="620.5" y="-106" font-family="Helvetica,sans-Serif" font-size="10.00">expressionTree.Expression</text>
<text text-anchor="middle" x="684" y="-95" font-family="Helvetica,sans-Serif" font-size="10.00">NodeFactory.getNode</text>
</a>
</g>
</g>
<!-- Node3&#45;&gt;Node4 -->
<g id="edge3" class="edge"><title>Node3&#45;&gt;Node4</title>
<path fill="none" stroke="midnightblue" d="M566.888,-103C582.017,-103 597.609,-103 612.264,-103"/>
<polygon fill="midnightblue" stroke="midnightblue" points="566.505,-99.5001 556.505,-103 566.505,-106.5 566.505,-99.5001"/>
</g>
<!-- Node5 -->
<g id="node5" class="node"><title>Node5</title>
<g id="a_node5"><a xlink:href="../../d9/d55/classexpression_tree_1_1_expression_node_factory.html#ac3b2de675f1754dfd61694de51553631" target="_top" xlink:title="expressionTree.Expression\lNodeFactory.getAllNodes">
<polygon fill="white" stroke="black" points="792.5,-88 792.5,-118 935.5,-118 935.5,-88 792.5,-88"/>
<text text-anchor="start" x="800.5" y="-106" font-family="Helvetica,sans-Serif" font-size="10.00">expressionTree.Expression</text>
<text text-anchor="middle" x="864" y="-95" font-family="Helvetica,sans-Serif" font-size="10.00">NodeFactory.getAllNodes</text>
</a>
</g>
</g>
<!-- Node4&#45;&gt;Node5 -->
<g id="edge4" class="edge"><title>Node4&#45;&gt;Node5</title>
<path fill="none" stroke="midnightblue" d="M765.646,-103C774.599,-103 783.666,-103 792.479,-103"/>
<polygon fill="midnightblue" stroke="midnightblue" points="765.606,-99.5001 755.606,-103 765.606,-106.5 765.606,-99.5001"/>
</g>
<!-- Node6 -->
<g id="node6" class="node"><title>Node6</title>
<g id="a_node6"><a xlink:href="../../d3/dfb/classexpression_tree_1_1_expression_tree_builder.html#ab3c3bc68ab96d1cd026bc68a7b329f92" target="_top" xlink:title="expressionTree.Expression\lTreeBuilder.ExpressionTreeBuilder">
<polygon fill="white" stroke="black" points="972,-88 972,-118 1148,-118 1148,-88 972,-88"/>
<text text-anchor="start" x="980" y="-106" font-family="Helvetica,sans-Serif" font-size="10.00">expressionTree.Expression</text>
<text text-anchor="middle" x="1060" y="-95" font-family="Helvetica,sans-Serif" font-size="10.00">TreeBuilder.ExpressionTreeBuilder</text>
</a>
</g>
</g>
<!-- Node5&#45;&gt;Node6 -->
<g id="edge5" class="edge"><title>Node5&#45;&gt;Node6</title>
<path fill="none" stroke="midnightblue" d="M945.668,-103C954.34,-103 963.191,-103 971.934,-103"/>
<polygon fill="midnightblue" stroke="midnightblue" points="945.587,-99.5001 935.587,-103 945.587,-106.5 945.587,-99.5001"/>
</g>
</g>
</svg>
        <g id="navigator" transform="translate(0 0)" fill="#404254">
                <rect fill="#f2f5e9" fill-opacity="0.5" stroke="#606060" stroke-width=".5" x="0" y="0" width="60" height="60"/>
                <use id="zoomplus" xlink:href="#zoomPlus" x="17" y="9" onmousedown="handleZoom(evt,'in')"/>
                <use id="zoomminus" xlink:href="#zoomMin" x="42" y="9" onmousedown="handleZoom(evt,'out')"/>
                <use id="reset" xlink:href="#resetDef" x="30" y="36" onmousedown="handleReset()"/>
                <g id="arrowUp" xlink:href="#dirArrow" transform="translate(30 24)" onmousedown="handlePan(0,-1)">
                  <use xlink:href="#rim" fill="#404040">
                        <set attributeName="fill" to="#808080" begin="arrowUp.mouseover" end="arrowUp.mouseout"/>
                  </use>
                  <path fill="none" stroke="white" stroke-width="1.5" d="M0,-3.0v7 M-2.5,-0.5L0,-3.0L2.5,-0.5"/>
                </g>
                <g id="arrowRight" xlink:href="#dirArrow" transform="rotate(90) translate(36 -43)" onmousedown="handlePan(1,0)">
                  <use xlink:href="#rim" fill="#404040">
                        <set attributeName="fill" to="#808080" begin="arrowRight.mouseover" end="arrowRight.mouseout"/>
                  </use>
                  <path fill="none" stroke="white" stroke-width="1.5" d="M0,-3.0v7 M-2.5,-0.5L0,-3.0L2.5,-0.5"/>
                </g>
                <g id="arrowDown" xlink:href="#dirArrow" transform="rotate(180) translate(-30 -48)" onmousedown="handlePan(0,1)">
                  <use xlink:href="#rim" fill="#404040">
                        <set attributeName="fill" to="#808080" begin="arrowDown.mouseover" end="arrowDown.mouseout"/>
                  </use>
                  <path fill="none" stroke="white" stroke-width="1.5" d="M0,-3.0v7 M-2.5,-0.5L0,-3.0L2.5,-0.5"/>
                </g>
                <g id="arrowLeft" xlink:href="#dirArrow" transform="rotate(270) translate(-36 17)" onmousedown="handlePan(-1,0)">
                  <use xlink:href="#rim" fill="#404040">
                        <set attributeName="fill" to="#808080" begin="arrowLeft.mouseover" end="arrowLeft.mouseout"/>
                  </use>
                  <path fill="none" stroke="white" stroke-width="1.5" d="M0,-3.0v7 M-2.5,-0.5L0,-3.0L2.5,-0.5"/>
                </g>
        </g>
        <svg viewBox="0 0 15 15" width="100%" height="30px" preserveAspectRatio="xMaxYMin meet">
         <g id="arrow_out" transform="scale(0.3 0.3)">
          <a xlink:href="classexpression_tree_1_1_variable_node_map_aa39aa781cc2fe52784af8657407974ce_icgraph_org.svg" target="_base">
           <rect id="button" ry="5" rx="5" y="6" x="6" height="38" width="38"
                fill="#f2f5e9" fill-opacity="0.5" stroke="#606060" stroke-width="1.0"/>
           <path id="arrow"
             d="M 11.500037,31.436501 C 11.940474,20.09759 22.043105,11.32322 32.158766,21.979434 L 37.068811,17.246167 C 37.068811,17.246167 37.088388,32 37.088388,32 L 22.160133,31.978069 C 22.160133,31.978069 26.997745,27.140456 26.997745,27.140456 C 18.528582,18.264221 13.291696,25.230495 11.500037,31.436501 z"
             style="fill:#404040;"/>
          </a>
         </g>
        </svg>
</svg>
