<?xml version="1.0" encoding="UTF-8" standalone="no"?>
<!DOCTYPE svg PUBLIC "-//W3C//DTD SVG 1.1//EN"
 "http://www.w3.org/Graphics/SVG/1.1/DTD/svg11.dtd">
<!-- Generated by graphviz version 2.36.0 (20140111.2315)
 -->
<!-- Title: frontend.SLogoWorkspace.AddWorkspaceButton.action Pages: 1 -->
<svg width="968pt" height="111pt"
 viewBox="0.00 0.00 968.00 111.00" xmlns="http://www.w3.org/2000/svg" xmlns:xlink="http://www.w3.org/1999/xlink">
<g id="graph0" class="graph" transform="scale(1 1) rotate(0) translate(4 107)">
<title>frontend.SLogoWorkspace.AddWorkspaceButton.action</title>
<polygon fill="white" stroke="none" points="-4,4 -4,-107 964,-107 964,4 -4,4"/>
<!-- Node1 -->
<g id="node1" class="node"><title>Node1</title>
<polygon fill="#bfbfbf" stroke="black" points="0.5,-48 0.5,-78 151.5,-78 151.5,-48 0.5,-48"/>
<text text-anchor="start" x="8.5" y="-66" font-family="Helvetica,sans-Serif" font-size="10.00">frontend.SLogoWorkspace.</text>
<text text-anchor="middle" x="76" y="-55" font-family="Helvetica,sans-Serif" font-size="10.00">AddWorkspaceButton.action</text>
</g>
<!-- Node2 -->
<g id="node2" class="node"><title>Node2</title>
<g id="a_node2"><a xlink:href="../../df/de4/classfrontend_1_1_s_logo_workspace.html#a80ce8f0c42c40fbb7ac2f94ba0d9ac68" target="_top" xlink:title="frontend.SLogoWorkspace.create\lWorkspace">
<polygon fill="white" stroke="black" points="188.5,-73 188.5,-103 363.5,-103 363.5,-73 188.5,-73"/>
<text text-anchor="start" x="196.5" y="-91" font-family="Helvetica,sans-Serif" font-size="10.00">frontend.SLogoWorkspace.create</text>
<text text-anchor="middle" x="276" y="-80" font-family="Helvetica,sans-Serif" font-size="10.00">Workspace</text>
</a>
</g>
</g>
<!-- Node1&#45;&gt;Node2 -->
<g id="edge1" class="edge"><title>Node1&#45;&gt;Node2</title>
<path fill="none" stroke="midnightblue" d="M151.573,-72.4158C160.255,-73.512 169.204,-74.6419 178.13,-75.7689"/>
<polygon fill="midnightblue" stroke="midnightblue" points="177.822,-79.2578 188.182,-77.0381 178.699,-72.3129 177.822,-79.2578"/>
</g>
<!-- Node3 -->
<g id="node3" class="node"><title>Node3</title>
<g id="a_node3"><a xlink:href="../../df/de4/classfrontend_1_1_s_logo_workspace.html#afdbe19fcd31fb74f31efbea44ac0c24c" target="_top" xlink:title="frontend.SLogoWorkspace.\lSLogoWorkspace">
<polygon fill="white" stroke="black" points="204,-24 204,-54 348,-54 348,-24 204,-24"/>
<text text-anchor="start" x="212" y="-42" font-family="Helvetica,sans-Serif" font-size="10.00">frontend.SLogoWorkspace.</text>
<text text-anchor="middle" x="276" y="-31" font-family="Helvetica,sans-Serif" font-size="10.00">SLogoWorkspace</text>
</a>
</g>
</g>
<!-- Node1&#45;&gt;Node3 -->
<g id="edge2" class="edge"><title>Node1&#45;&gt;Node3</title>
<path fill="none" stroke="midnightblue" d="M151.573,-53.9608C165.334,-52.2928 179.767,-50.5434 193.715,-48.8527"/>
<polygon fill="midnightblue" stroke="midnightblue" points="194.263,-52.3121 203.769,-47.6341 193.42,-45.3629 194.263,-52.3121"/>
</g>
<!-- Node4 -->
<g id="node4" class="node"><title>Node4</title>
<g id="a_node4"><a xlink:href="../../d4/d7e/classturtle_classes_1_1_turtle_collection.html#aef78a61da5522d472e6c70b49e8e1b0d" target="_top" xlink:title="turtleClasses.TurtleCollection.add\lTurtle">
<polygon fill="white" stroke="black" points="400.5,-49 400.5,-79 575.5,-79 575.5,-49 400.5,-49"/>
<text text-anchor="start" x="408.5" y="-67" font-family="Helvetica,sans-Serif" font-size="10.00">turtleClasses.TurtleCollection.add</text>
<text text-anchor="middle" x="488" y="-56" font-family="Helvetica,sans-Serif" font-size="10.00">Turtle</text>
</a>
</g>
</g>
<!-- Node3&#45;&gt;Node4 -->
<g id="edge3" class="edge"><title>Node3&#45;&gt;Node4</title>
<path fill="none" stroke="midnightblue" d="M348.096,-47.4639C361.597,-49.0711 375.935,-50.778 390.077,-52.4616"/>
<polygon fill="midnightblue" stroke="midnightblue" points="389.981,-55.9748 400.325,-53.6816 390.809,-49.0239 389.981,-55.9748"/>
</g>
<!-- Node7 -->
<g id="node7" class="node"><title>Node7</title>
<g id="a_node7"><a xlink:href="../../d1/d07/classfrontend_1_1_s_logo_canvas.html#ab32d1e197727cf9bed0a9c5f634a2cf5" target="_top" xlink:title="frontend.SLogoCanvas.get\lHolder">
<polygon fill="white" stroke="black" points="416,-0 416,-30 560,-30 560,-0 416,-0"/>
<text text-anchor="start" x="424" y="-18" font-family="Helvetica,sans-Serif" font-size="10.00">frontend.SLogoCanvas.get</text>
<text text-anchor="middle" x="488" y="-7" font-family="Helvetica,sans-Serif" font-size="10.00">Holder</text>
</a>
</g>
</g>
<!-- Node3&#45;&gt;Node7 -->
<g id="edge6" class="edge"><title>Node3&#45;&gt;Node7</title>
<path fill="none" stroke="midnightblue" d="M348.096,-30.8747C366.655,-28.7537 386.797,-26.4518 405.835,-24.276"/>
<polygon fill="midnightblue" stroke="midnightblue" points="406.439,-27.7299 415.977,-23.1169 405.644,-20.7751 406.439,-27.7299"/>
</g>
<!-- Node5 -->
<g id="node5" class="node"><title>Node5</title>
<g id="a_node5"><a xlink:href="../../d4/d7e/classturtle_classes_1_1_turtle_collection.html#a40bfa92a3800e4441e66c3c2964559f0" target="_top" xlink:title="turtleClasses.TurtleCollection.check\lAndAddActiveTurtle">
<polygon fill="white" stroke="black" points="612.5,-49 612.5,-79 797.5,-79 797.5,-49 612.5,-49"/>
<text text-anchor="start" x="620.5" y="-67" font-family="Helvetica,sans-Serif" font-size="10.00">turtleClasses.TurtleCollection.check</text>
<text text-anchor="middle" x="705" y="-56" font-family="Helvetica,sans-Serif" font-size="10.00">AndAddActiveTurtle</text>
</a>
</g>
</g>
<!-- Node4&#45;&gt;Node5 -->
<g id="edge4" class="edge"><title>Node4&#45;&gt;Node5</title>
<path fill="none" stroke="midnightblue" d="M575.519,-64C584.336,-64 593.349,-64 602.308,-64"/>
<polygon fill="midnightblue" stroke="midnightblue" points="602.387,-67.5001 612.387,-64 602.387,-60.5001 602.387,-67.5001"/>
</g>
<!-- Node6 -->
<g id="node6" class="node"><title>Node6</title>
<g id="a_node6"><a xlink:href="../../d8/d89/classturtle_classes_1_1_turtle.html#a2d2fbb81602870ad25869504ebc47a96" target="_top" xlink:title="turtleClasses.Turtle.get\lIsActive">
<polygon fill="white" stroke="black" points="834,-49 834,-79 960,-79 960,-49 834,-49"/>
<text text-anchor="start" x="842" y="-67" font-family="Helvetica,sans-Serif" font-size="10.00">turtleClasses.Turtle.get</text>
<text text-anchor="middle" x="897" y="-56" font-family="Helvetica,sans-Serif" font-size="10.00">IsActive</text>
</a>
</g>
</g>
<!-- Node5&#45;&gt;Node6 -->
<g id="edge5" class="edge"><title>Node5&#45;&gt;Node6</title>
<path fill="none" stroke="midnightblue" d="M797.661,-64C806.364,-64 815.104,-64 823.589,-64"/>
<polygon fill="midnightblue" stroke="midnightblue" points="823.793,-67.5001 833.793,-64 823.793,-60.5001 823.793,-67.5001"/>
</g>
</g>
</svg>
