<?xml version="1.0" encoding="UTF-8" standalone="no"?>
<!DOCTYPE svg PUBLIC "-//W3C//DTD SVG 1.1//EN"
 "http://www.w3.org/Graphics/SVG/1.1/DTD/svg11.dtd">
<!-- Generated by graphviz version 2.36.0 (20140111.2315)
 -->
<!-- Title: displayCommands.ClearScreen Pages: 1 -->
<svg width="176pt" height="196pt"
 viewBox="0.00 0.00 176.00 196.00" xmlns="http://www.w3.org/2000/svg" xmlns:xlink="http://www.w3.org/1999/xlink">
<g id="graph0" class="graph" transform="scale(1 1) rotate(0) translate(4 192)">
<title>displayCommands.ClearScreen</title>
<polygon fill="white" stroke="none" points="-4,4 -4,-192 172,-192 172,4 -4,4"/>
<!-- Node1 -->
<g id="node1" class="node"><title>Node1</title>
<polygon fill="#bfbfbf" stroke="black" points="0.5,-0.5 0.5,-19.5 167.5,-19.5 167.5,-0.5 0.5,-0.5"/>
<text text-anchor="middle" x="84" y="-7.5" font-family="Helvetica,sans-Serif" font-size="10.00">displayCommands.ClearScreen</text>
</g>
<!-- Node2 -->
<g id="node2" class="node"><title>Node2</title>
<g id="a_node2"><a xlink:href="../../dd/d33/classdisplay_commands_1_1_clear_objects.html" target="_top" xlink:title="displayCommands.ClearObjects">
<polygon fill="white" stroke="black" points="-0.5,-56.5 -0.5,-75.5 168.5,-75.5 168.5,-56.5 -0.5,-56.5"/>
<text text-anchor="middle" x="84" y="-63.5" font-family="Helvetica,sans-Serif" font-size="10.00">displayCommands.ClearObjects</text>
</a>
</g>
</g>
<!-- Node2&#45;&gt;Node1 -->
<g id="edge1" class="edge"><title>Node2&#45;&gt;Node1</title>
<path fill="none" stroke="midnightblue" d="M84,-45.8045C84,-36.9102 84,-26.7798 84,-19.7511"/>
<polygon fill="midnightblue" stroke="midnightblue" points="80.5001,-46.083 84,-56.083 87.5001,-46.083 80.5001,-46.083"/>
</g>
<!-- Node3 -->
<g id="node3" class="node"><title>Node3</title>
<g id="a_node3"><a xlink:href="../../d6/d49/classdisplay_commands_1_1_display_node.html" target="_top" xlink:title="displayCommands.DisplayNode">
<polygon fill="white" stroke="black" points="0,-112.5 0,-131.5 168,-131.5 168,-112.5 0,-112.5"/>
<text text-anchor="middle" x="84" y="-119.5" font-family="Helvetica,sans-Serif" font-size="10.00">displayCommands.DisplayNode</text>
</a>
</g>
</g>
<!-- Node3&#45;&gt;Node2 -->
<g id="edge2" class="edge"><title>Node3&#45;&gt;Node2</title>
<path fill="none" stroke="midnightblue" d="M84,-101.805C84,-92.9102 84,-82.7798 84,-75.7511"/>
<polygon fill="midnightblue" stroke="midnightblue" points="80.5001,-102.083 84,-112.083 87.5001,-102.083 80.5001,-102.083"/>
</g>
<!-- Node4 -->
<g id="node4" class="node"><title>Node4</title>
<g id="a_node4"><a xlink:href="../../db/da5/classexpression_tree_1_1_expression_node.html" target="_top" xlink:title="expressionTree.ExpressionNode">
<polygon fill="white" stroke="black" points="0,-168.5 0,-187.5 168,-187.5 168,-168.5 0,-168.5"/>
<text text-anchor="middle" x="84" y="-175.5" font-family="Helvetica,sans-Serif" font-size="10.00">expressionTree.ExpressionNode</text>
</a>
</g>
</g>
<!-- Node4&#45;&gt;Node3 -->
<g id="edge3" class="edge"><title>Node4&#45;&gt;Node3</title>
<path fill="none" stroke="midnightblue" d="M84,-157.805C84,-148.91 84,-138.78 84,-131.751"/>
<polygon fill="midnightblue" stroke="midnightblue" points="80.5001,-158.083 84,-168.083 87.5001,-158.083 80.5001,-158.083"/>
</g>
</g>
</svg>
