<?xml version="1.0" encoding="UTF-8" standalone="no"?>
<!DOCTYPE svg PUBLIC "-//W3C//DTD SVG 1.1//EN"
 "http://www.w3.org/Graphics/SVG/1.1/DTD/svg11.dtd">
<!-- Generated by graphviz version 2.36.0 (20140111.2315)
 -->
<!-- Title: expressionTree.ListNode.getListContents Pages: 1 -->
<svg width="386pt" height="153pt"
 viewBox="0.00 0.00 386.00 153.00" xmlns="http://www.w3.org/2000/svg" xmlns:xlink="http://www.w3.org/1999/xlink">
<g id="graph0" class="graph" transform="scale(1 1) rotate(0) translate(4 149)">
<title>expressionTree.ListNode.getListContents</title>
<polygon fill="white" stroke="none" points="-4,4 -4,-149 382,-149 382,4 -4,4"/>
<!-- Node1 -->
<g id="node1" class="node"><title>Node1</title>
<polygon fill="#bfbfbf" stroke="black" points="0,-63 0,-93 152,-93 152,-63 0,-63"/>
<text text-anchor="start" x="8" y="-81" font-family="Helvetica,sans-Serif" font-size="10.00">expressionTree.ListNode.get</text>
<text text-anchor="middle" x="76" y="-70" font-family="Helvetica,sans-Serif" font-size="10.00">ListContents</text>
</g>
<!-- Node2 -->
<g id="node2" class="node"><title>Node2</title>
<g id="a_node2"><a xlink:href="../../d0/d12/classdisplay_commands_1_1_ask_with.html#a289dd1788ad6c9d4ffee88deaa98cb1f" target="_top" xlink:title="displayCommands.AskWith.evaluate">
<polygon fill="white" stroke="black" points="188,-125.5 188,-144.5 378,-144.5 378,-125.5 188,-125.5"/>
<text text-anchor="middle" x="283" y="-132.5" font-family="Helvetica,sans-Serif" font-size="10.00">displayCommands.AskWith.evaluate</text>
</a>
</g>
</g>
<!-- Node1&#45;&gt;Node2 -->
<g id="edge1" class="edge"><title>Node1&#45;&gt;Node2</title>
<path fill="none" stroke="midnightblue" d="M126.597,-96.525C145.629,-103.224 167.659,-110.488 188,-116 201.017,-119.527 215.207,-122.725 228.525,-125.448"/>
<polygon fill="midnightblue" stroke="midnightblue" points="127.538,-93.1447 116.943,-93.0856 125.189,-99.7387 127.538,-93.1447"/>
</g>
<!-- Node3 -->
<g id="node3" class="node"><title>Node3</title>
<g id="a_node3"><a xlink:href="../../d9/d2b/classdisplay_commands_1_1_tell.html#a584240af72be7290f5cbc7eb8deafa48" target="_top" xlink:title="displayCommands.Tell.evaluate">
<polygon fill="white" stroke="black" points="199.5,-87.5 199.5,-106.5 366.5,-106.5 366.5,-87.5 199.5,-87.5"/>
<text text-anchor="middle" x="283" y="-94.5" font-family="Helvetica,sans-Serif" font-size="10.00">displayCommands.Tell.evaluate</text>
</a>
</g>
</g>
<!-- Node1&#45;&gt;Node3 -->
<g id="edge2" class="edge"><title>Node1&#45;&gt;Node3</title>
<path fill="none" stroke="midnightblue" d="M162.329,-85.9086C174.536,-87.0399 187.077,-88.2022 199.233,-89.3289"/>
<polygon fill="midnightblue" stroke="midnightblue" points="162.451,-82.4049 152.17,-84.967 161.805,-89.375 162.451,-82.4049"/>
</g>
<!-- Node4 -->
<g id="node4" class="node"><title>Node4</title>
<g id="a_node4"><a xlink:href="../../dc/d9a/classdisplay_commands_1_1_ask.html#ad7725f77c582751b73c3e0a54dc60400" target="_top" xlink:title="displayCommands.Ask.evaluate">
<polygon fill="white" stroke="black" points="198,-49.5 198,-68.5 368,-68.5 368,-49.5 198,-49.5"/>
<text text-anchor="middle" x="283" y="-56.5" font-family="Helvetica,sans-Serif" font-size="10.00">displayCommands.Ask.evaluate</text>
</a>
</g>
</g>
<!-- Node1&#45;&gt;Node4 -->
<g id="edge3" class="edge"><title>Node1&#45;&gt;Node4</title>
<path fill="none" stroke="midnightblue" d="M162.379,-70.0869C174.103,-69.0002 186.135,-67.885 197.838,-66.8004"/>
<polygon fill="midnightblue" stroke="midnightblue" points="161.805,-66.625 152.17,-71.033 162.451,-73.5951 161.805,-66.625"/>
</g>
<!-- Node5 -->
<g id="node5" class="node"><title>Node5</title>
<g id="a_node5"><a xlink:href="../../da/de9/classexpression_tree_1_1_user_function.html#a8ac552db0be75fbb07da847cb1152e46" target="_top" xlink:title="expressionTree.UserFunction.make\lInstructionList">
<polygon fill="white" stroke="black" points="191.5,-0 191.5,-30 374.5,-30 374.5,-0 191.5,-0"/>
<text text-anchor="start" x="199.5" y="-18" font-family="Helvetica,sans-Serif" font-size="10.00">expressionTree.UserFunction.make</text>
<text text-anchor="middle" x="283" y="-7" font-family="Helvetica,sans-Serif" font-size="10.00">InstructionList</text>
</a>
</g>
</g>
<!-- Node1&#45;&gt;Node5 -->
<g id="edge4" class="edge"><title>Node1&#45;&gt;Node5</title>
<path fill="none" stroke="midnightblue" d="M128.202,-59.6357C146.924,-53.1424 168.333,-45.9737 188,-40 199.23,-36.589 211.29,-33.1875 222.903,-30.0418"/>
<polygon fill="midnightblue" stroke="midnightblue" points="126.967,-56.3595 118.679,-62.9599 129.274,-62.9683 126.967,-56.3595"/>
</g>
</g>
</svg>
